<?xml version="1.0" encoding="UTF-8" standalone="no"?>
<!-- Created with Inkscape (http://www.inkscape.org/) -->

<svg
   width="57.448044mm"
   height="57.448044mm"
   viewBox="0 0 57.448044 57.448044"
   version="1.1"
   id="svg1"
   inkscape:version="1.3.2 (091e20e, 2023-11-25, custom)"
   sodipodi:docname="ps-D-PAD.svg"
   xmlns:inkscape="http://www.inkscape.org/namespaces/inkscape"
   xmlns:sodipodi="http://sodipodi.sourceforge.net/DTD/sodipodi-0.dtd"
   xmlns="http://www.w3.org/2000/svg"
   xmlns:svg="http://www.w3.org/2000/svg">
  <sodipodi:namedview
     id="namedview1"
     pagecolor="#9cff8f"
     bordercolor="#000000"
     borderopacity="0.25"
     inkscape:showpageshadow="2"
     inkscape:pageopacity="0.0"
     inkscape:pagecheckerboard="0"
     inkscape:deskcolor="#d1d1d1"
     inkscape:document-units="mm"
     inkscape:zoom="2.9279062"
     inkscape:cx="52.768084"
     inkscape:cy="130.29789"
     inkscape:window-width="2560"
     inkscape:window-height="1351"
     inkscape:window-x="-9"
     inkscape:window-y="-9"
     inkscape:window-maximized="1"
     inkscape:current-layer="g43" />
  <defs
     id="defs1" />
  <g
     id="g43"
     inkscape:label="D-PAD">
    <g
       id="g25"
       style="display:none"
       transform="translate(2.7284202,2.7290688)"
       inkscape:label="Style - Outline (White)">
      <g
         id="path62"
         inkscape:label="D-Pad Down">
        <path
           style="color:#000000;display:inline;fill:#ffffff;stroke-linecap:round;stroke-linejoin:round;-inkscape-stroke:none"
           d="m 18.573156,35.587287 -1.075999,16.157787 c -0.07817,1.17388 0.94742,2.1239 2.1239,2.1239 h 12.74961 c 1.17647,0 2.12338,-0.94742 2.12338,-2.1239 L 33.417916,35.586833 25.995768,28.164676 Z"
           id="path16"
           inkscape:label="D-Pad Shape" />
        <path
           style="color:#000000;display:inline;fill:#000000;stroke-linecap:round;stroke-linejoin:round;-inkscape-stroke:none"
           d="m 25.394531,27.564453 -7.421875,7.421875 a 0.85008502,0.85008502 0 0 0 -0.248047,0.544922 l -1.076172,16.158203 c -0.11294,1.696023 1.338589,3.029297 2.972657,3.029297 h 12.75 c 1.632809,0 2.972656,-1.34204 2.972656,-2.974609 a 0.85008502,0.85008502 0 0 0 -0.002,-0.05469 L 34.265625,35.53125 a 0.85008502,0.85008502 0 0 0 -0.246094,-0.544922 l -7.421875,-7.421875 a 0.85008502,0.85008502 0 0 0 -1.203125,0 z m 0.601563,1.802734 6.595703,6.595704 1.050781,15.785156 c -0.0025,0.718045 -0.552956,1.271484 -1.271484,1.271484 h -12.75 c -0.71889,0 -1.318791,-0.567015 -1.275391,-1.21875 l 1.054688,-15.839844 z"
           id="path17"
           inkscape:label="Outline" />
      </g>
      <g
         id="path25"
         inkscape:label="D-Pad Right"
         style="display:inline">
        <path
           style="color:#000000;display:inline;fill:#ffffff;stroke-linecap:round;stroke-linejoin:round;-inkscape-stroke:none"
           d="m 35.587942,33.417272 16.157781,1.076126 c 1.173879,0.07818 2.1239,-0.94742 2.1239,-2.1239 v -12.74961 c 0,-1.17647 -0.94742,-2.12338 -2.1239,-2.12338 l -16.158241,1.075999 -7.422157,7.422149 z"
           id="path18"
           inkscape:label="D-Pad Shape" />
        <path
           style="color:#000000;fill:#000000;stroke-linecap:round;stroke-linejoin:round;-inkscape-stroke:none"
           d="m 51.746094,16.646484 a 0.85008502,0.85008502 0 0 0 -0.05664,0.002 L 35.53125,17.724609 a 0.85008502,0.85008502 0 0 0 -0.544922,0.246094 l -7.421875,7.423828 a 0.85008502,0.85008502 0 0 0 0,1.201172 l 7.421875,7.421875 a 0.85008502,0.85008502 0 0 0 0.544922,0.248047 l 16.158203,1.076172 c 1.69603,0.112955 3.029297,-1.338588 3.029297,-2.972656 v -12.75 c 0,-1.63281 -1.340087,-2.972657 -2.972656,-2.972657 z m 0.0039,1.701172 c 0.718041,0.0025 1.269531,0.552959 1.269531,1.271485 v 12.75 c 0,0.718889 -0.565071,1.318795 -1.216797,1.27539 l -15.839843,-1.054687 -6.595704,-6.595703 6.595704,-6.595704 z"
           id="path19"
           inkscape:label="Outline" />
      </g>
      <g
         id="path23"
         inkscape:label="D-Pad Left">
        <path
           style="color:#000000;display:inline;fill:#ffffff;stroke-linecap:round;stroke-linejoin:round;-inkscape-stroke:none"
           d="M 16.403585,18.572507 0.2454799,17.496508 c -1.1738701,-0.07817 -2.1239,0.94691 -2.1239,2.12338 v 12.74961 c 0,1.17648 0.94743,2.1239 2.1239,2.1239 l 16.1567511,-1.07613 7.423057,-7.423057 z"
           id="path20"
           inkscape:label="D-Pad Shape" />
        <path
           style="color:#000000;fill:#000000;stroke-linecap:round;stroke-linejoin:round;-inkscape-stroke:none"
           d="M 0.30273438,16.648437 C -1.393039,16.535513 -2.7285156,17.985074 -2.7285156,19.619141 v 12.75 c 0,1.63282 1.3418001,2.974609 2.97460935,2.974609 a 0.85008502,0.85008502 0 0 0 0.0566406,-0.002 L 16.458984,34.265625 a 0.85008502,0.85008502 0 0 0 0.544922,-0.248047 l 7.421875,-7.421875 a 0.85008502,0.85008502 0 0 0 0,-1.203125 l -7.421875,-7.421875 a 0.85008502,0.85008502 0 0 0 -0.542969,-0.246094 z m -0.11328126,1.695313 15.83789088,1.054687 6.595703,6.595704 -6.595703,6.595703 -15.7851565,1.050781 c -0.71778726,-0.0025 -1.2714844,-0.552948 -1.2714844,-1.271484 v -12.75 c 0,-0.718872 0.56678558,-1.318806 1.21875002,-1.275391 z"
           id="path21"
           inkscape:label="Outline" />
      </g>
      <g
         id="path60"
         inkscape:label="D-Pad Up">
        <path
           style="color:#000000;display:inline;fill:#ffffff;stroke-linecap:round;stroke-linejoin:round;-inkscape-stroke:none"
           d="M 33.417916,16.402935 34.494047,0.2448313 c 0.07818,-1.1738695 -0.94691,-2.1239 -2.12338,-2.1239 h -12.74961 c -1.17648,0 -2.1239,0.94743 -2.1239,2.1239 l 1.075999,16.1567507 7.423057,7.423057 z"
           id="path22"
           inkscape:label="D-Pad Shape" />
        <path
           style="color:#000000;display:inline;fill:#000000;stroke-linecap:round;stroke-linejoin:round;-inkscape-stroke:none"
           d="m 19.621094,-2.7285156 c -1.63282,0 -2.97461,1.339847 -2.97461,2.97265623 a 0.85008502,0.85008502 0 0 0 0.002,0.0566406 L 17.724609,16.458984 a 0.85008502,0.85008502 0 0 0 0.248047,0.542969 l 7.421875,7.423828 a 0.85008502,0.85008502 0 0 0 1.203125,0 l 7.421875,-7.421875 a 0.85008502,0.85008502 0 0 0 0.246094,-0.544922 L 35.341797,0.30078125 C 35.454736,-1.3949997 34.00516,-2.7285156 32.371094,-2.7285156 Z m 0,1.6992187 h 12.75 c 0.718871,0 1.318811,0.56484115 1.27539,1.2167969 l -1.054687,15.839844 -6.595703,6.59375 -6.595703,-6.59375 -1.050782,-15.78710962 c 0.0025,-0.7177842 0.552951,-1.26953128 1.271485,-1.26953128 z"
           id="path24"
           inkscape:label="Outline" />
      </g>
    </g>
    <g
       id="g42"
       style="display:none"
       transform="translate(2.7284201,2.7290689)"
       inkscape:label="Style - Outline (Black)">
      <g
         id="g35"
         inkscape:label="D-Pad Down">
        <path
           style="color:#000000;display:inline;fill:#000000;stroke-linecap:round;stroke-linejoin:round;-inkscape-stroke:none"
           d="m 18.573156,35.587287 -1.075999,16.157787 c -0.07817,1.17388 0.94742,2.1239 2.1239,2.1239 h 12.74961 c 1.17647,0 2.12338,-0.94742 2.12338,-2.1239 L 33.417916,35.586833 25.995768,28.164676 Z"
           id="path34"
           inkscape:label="D-Pad Shape" />
        <path
           style="color:#000000;display:inline;fill:#ffffff;stroke-linecap:round;stroke-linejoin:round;-inkscape-stroke:none"
           d="m 25.394531,27.564453 -7.421875,7.421875 a 0.85008502,0.85008502 0 0 0 -0.248047,0.544922 l -1.076172,16.158203 c -0.11294,1.696023 1.338589,3.029297 2.972657,3.029297 h 12.75 c 1.632809,0 2.972656,-1.34204 2.972656,-2.974609 a 0.85008502,0.85008502 0 0 0 -0.002,-0.05469 L 34.265625,35.53125 a 0.85008502,0.85008502 0 0 0 -0.246094,-0.544922 l -7.421875,-7.421875 a 0.85008502,0.85008502 0 0 0 -1.203125,0 z m 0.601563,1.802734 6.595703,6.595704 1.050781,15.785156 c -0.0025,0.718045 -0.552956,1.271484 -1.271484,1.271484 h -12.75 c -0.71889,0 -1.318791,-0.567015 -1.275391,-1.21875 l 1.054688,-15.839844 z"
           id="path35"
           inkscape:label="Outline" />
      </g>
      <g
         id="g37"
         inkscape:label="D-Pad Right"
         style="display:inline">
        <path
           style="color:#000000;display:inline;fill:#000000;stroke-linecap:round;stroke-linejoin:round;-inkscape-stroke:none"
           d="m 35.587942,33.417272 16.157781,1.076126 c 1.173879,0.07818 2.1239,-0.94742 2.1239,-2.1239 v -12.74961 c 0,-1.17647 -0.94742,-2.12338 -2.1239,-2.12338 l -16.158241,1.075999 -7.422157,7.422149 z"
           id="path36"
           inkscape:label="D-Pad Shape" />
        <path
           style="color:#000000;fill:#ffffff;stroke-linecap:round;stroke-linejoin:round;-inkscape-stroke:none"
           d="m 51.746094,16.646484 a 0.85008502,0.85008502 0 0 0 -0.05664,0.002 L 35.53125,17.724609 a 0.85008502,0.85008502 0 0 0 -0.544922,0.246094 l -7.421875,7.423828 a 0.85008502,0.85008502 0 0 0 0,1.201172 l 7.421875,7.421875 a 0.85008502,0.85008502 0 0 0 0.544922,0.248047 l 16.158203,1.076172 c 1.69603,0.112955 3.029297,-1.338588 3.029297,-2.972656 v -12.75 c 0,-1.63281 -1.340087,-2.972657 -2.972656,-2.972657 z m 0.0039,1.701172 c 0.718041,0.0025 1.269531,0.552959 1.269531,1.271485 v 12.75 c 0,0.718889 -0.565071,1.318795 -1.216797,1.27539 l -15.839843,-1.054687 -6.595704,-6.595703 6.595704,-6.595704 z"
           id="path37"
           inkscape:label="Outline" />
      </g>
      <g
         id="g39"
         inkscape:label="D-Pad Left">
        <path
           style="color:#000000;display:inline;fill:#000000;stroke-linecap:round;stroke-linejoin:round;-inkscape-stroke:none"
           d="M 16.403585,18.572507 0.2454799,17.496508 c -1.1738701,-0.07817 -2.1239,0.94691 -2.1239,2.12338 v 12.74961 c 0,1.17648 0.94743,2.1239 2.1239,2.1239 l 16.1567511,-1.07613 7.423057,-7.423057 z"
           id="path38"
           inkscape:label="D-Pad Shape" />
        <path
           style="color:#000000;fill:#ffffff;stroke-linecap:round;stroke-linejoin:round;-inkscape-stroke:none"
           d="M 0.30273438,16.648437 C -1.393039,16.535513 -2.7285156,17.985074 -2.7285156,19.619141 v 12.75 c 0,1.63282 1.3418001,2.974609 2.97460935,2.974609 a 0.85008502,0.85008502 0 0 0 0.0566406,-0.002 L 16.458984,34.265625 a 0.85008502,0.85008502 0 0 0 0.544922,-0.248047 l 7.421875,-7.421875 a 0.85008502,0.85008502 0 0 0 0,-1.203125 l -7.421875,-7.421875 a 0.85008502,0.85008502 0 0 0 -0.542969,-0.246094 z m -0.11328126,1.695313 15.83789088,1.054687 6.595703,6.595704 -6.595703,6.595703 -15.7851565,1.050781 c -0.71778726,-0.0025 -1.2714844,-0.552948 -1.2714844,-1.271484 v -12.75 c 0,-0.718872 0.56678558,-1.318806 1.21875002,-1.275391 z"
           id="path39"
           inkscape:label="Outline" />
      </g>
      <g
         id="g41"
         inkscape:label="D-Pad Up">
        <path
           style="color:#000000;display:inline;fill:#000000;stroke-linecap:round;stroke-linejoin:round;-inkscape-stroke:none"
           d="M 33.417916,16.402935 34.494047,0.2448313 c 0.07818,-1.1738695 -0.94691,-2.1239 -2.12338,-2.1239 h -12.74961 c -1.17648,0 -2.1239,0.94743 -2.1239,2.1239 l 1.075999,16.1567507 7.423057,7.423057 z"
           id="path40"
           inkscape:label="D-Pad Shape" />
        <path
           style="color:#000000;display:inline;fill:#ffffff;stroke-linecap:round;stroke-linejoin:round;-inkscape-stroke:none"
           d="m 19.621094,-2.7285156 c -1.63282,0 -2.97461,1.339847 -2.97461,2.97265623 a 0.85008502,0.85008502 0 0 0 0.002,0.0566406 L 17.724609,16.458984 a 0.85008502,0.85008502 0 0 0 0.248047,0.542969 l 7.421875,7.423828 a 0.85008502,0.85008502 0 0 0 1.203125,0 l 7.421875,-7.421875 a 0.85008502,0.85008502 0 0 0 0.246094,-0.544922 L 35.341797,0.30078125 C 35.454736,-1.3949997 34.00516,-2.7285156 32.371094,-2.7285156 Z m 0,1.6992187 h 12.75 c 0.718871,0 1.318811,0.56484115 1.27539,1.2167969 l -1.054687,15.839844 -6.595703,6.59375 -6.595703,-6.59375 -1.050782,-15.78710962 c 0.0025,-0.7177842 0.552951,-1.26953128 1.271485,-1.26953128 z"
           id="path41"
           inkscape:label="Outline" />
      </g>
    </g>
    <g
       id="g7"
       style="display:inline"
       transform="translate(2.7284202,2.7290688)"
       inkscape:label="Style - Transparent">
      <g
         id="path4"
         inkscape:label="D-Pad Down">
        <path
           style="color:#000000;fill:#808080;fill-opacity:0.501961;stroke-linecap:round;stroke-linejoin:round;-inkscape-stroke:none;paint-order:stroke fill markers"
           d="m 25.394531,27.564453 -7.421875,7.421875 a 0.85008502,0.85008502 0 0 0 -0.248047,0.544922 l -1.076172,16.158203 c -0.11294,1.696023 1.338589,3.029297 2.972657,3.029297 h 12.75 c 1.632809,0 2.972656,-1.34204 2.972656,-2.974609 a 0.85008502,0.85008502 0 0 0 -0.002,-0.05469 L 34.265625,35.53125 a 0.85008502,0.85008502 0 0 0 -0.246094,-0.544922 l -7.421875,-7.421875 a 0.85008502,0.85008502 0 0 0 -1.203125,0 z m 0.601563,1.802734 6.595703,6.595704 1.050781,15.785156 c -0.0025,0.718045 -0.552956,1.271484 -1.271484,1.271484 h -12.75 c -0.71889,0 -1.318791,-0.567015 -1.275391,-1.21875 l 1.054688,-15.839844 z"
           id="path14"
           inkscape:label="Outline" />
        <path
           style="color:#000000;fill:#ffffff;stroke-linecap:round;stroke-linejoin:round;-inkscape-stroke:none;paint-order:stroke fill markers"
           d="m 18.573156,35.587287 -1.075999,16.157787 c -0.07817,1.17388 0.94742,2.1239 2.1239,2.1239 h 12.74961 c 1.17647,0 2.12338,-0.94742 2.12338,-2.1239 L 33.417916,35.586833 25.995768,28.164676 Z"
           id="path15"
           inkscape:label="D-Pad Shape" />
      </g>
      <g
         id="path5"
         inkscape:label="D-Pad Right"
         style="display:inline">
        <path
           style="color:#000000;fill:#808080;fill-opacity:0.501961;stroke-linecap:round;stroke-linejoin:round;-inkscape-stroke:none;paint-order:stroke fill markers"
           d="m 51.746094,16.646484 a 0.85008502,0.85008502 0 0 0 -0.05664,0.002 L 35.53125,17.724609 a 0.85008502,0.85008502 0 0 0 -0.544922,0.246094 l -7.421875,7.423828 a 0.85008502,0.85008502 0 0 0 0,1.201172 l 7.421875,7.421875 a 0.85008502,0.85008502 0 0 0 0.544922,0.248047 l 16.158203,1.076172 c 1.69603,0.112955 3.029297,-1.338588 3.029297,-2.972656 v -12.75 c 0,-1.63281 -1.340087,-2.972657 -2.972656,-2.972657 z m 0.0039,1.701172 c 0.718041,0.0025 1.269531,0.552959 1.269531,1.271485 v 12.75 c 0,0.718889 -0.565071,1.318795 -1.216797,1.27539 l -15.839843,-1.054687 -6.595704,-6.595703 6.595704,-6.595704 z"
           id="path12"
           inkscape:label="Outline" />
        <path
           style="color:#000000;fill:#ffffff;stroke-linecap:round;stroke-linejoin:round;-inkscape-stroke:none;paint-order:stroke fill markers"
           d="m 35.587942,33.417272 16.157781,1.076126 c 1.173879,0.07818 2.1239,-0.94742 2.1239,-2.1239 v -12.74961 c 0,-1.17647 -0.94742,-2.12338 -2.1239,-2.12338 l -16.158241,1.075999 -7.422157,7.422149 z"
           id="path13"
           inkscape:label="D-Pad Shape" />
      </g>
      <g
         id="path6"
         inkscape:label="D-Pad Left"
         style="display:inline">
        <path
           style="color:#000000;fill:#808080;fill-opacity:0.501961;stroke-linecap:round;stroke-linejoin:round;-inkscape-stroke:none;paint-order:stroke fill markers"
           d="M 0.30273438,16.648437 C -1.393039,16.535513 -2.7285156,17.985074 -2.7285156,19.619141 v 12.75 c 0,1.63282 1.3418001,2.974609 2.97460935,2.974609 a 0.85008502,0.85008502 0 0 0 0.0566406,-0.002 L 16.458984,34.265625 a 0.85008502,0.85008502 0 0 0 0.544922,-0.248047 l 7.421875,-7.421875 a 0.85008502,0.85008502 0 0 0 0,-1.203125 l -7.421875,-7.421875 a 0.85008502,0.85008502 0 0 0 -0.542969,-0.246094 z m -0.11328126,1.695313 15.83789088,1.054687 6.595703,6.595704 -6.595703,6.595703 -15.7851565,1.050781 c -0.71778726,-0.0025 -1.2714844,-0.552948 -1.2714844,-1.271484 v -12.75 c 0,-0.718872 0.56678558,-1.318806 1.21875002,-1.275391 z"
           id="path10"
           inkscape:label="Outline" />
        <path
           style="color:#000000;display:inline;fill:#ffffff;stroke-linecap:round;stroke-linejoin:round;-inkscape-stroke:none;paint-order:stroke fill markers"
           d="M 16.403585,18.572507 0.2454799,17.496508 c -1.1738701,-0.07817 -2.1239,0.94691 -2.1239,2.12338 v 12.74961 c 0,1.17648 0.94743,2.1239 2.1239,2.1239 l 16.1567511,-1.07613 7.423057,-7.423057 z"
           id="path11"
           inkscape:label="D-Pad Shape" />
      </g>
      <g
         id="path7"
         inkscape:label="D-Pad Up">
        <path
           style="color:#000000;fill:#808080;fill-opacity:0.501961;stroke-linecap:round;stroke-linejoin:round;-inkscape-stroke:none;paint-order:stroke fill markers"
           d="m 19.621094,-2.7285156 c -1.63282,0 -2.97461,1.339847 -2.97461,2.97265623 a 0.85008502,0.85008502 0 0 0 0.002,0.0566406 L 17.724609,16.458984 a 0.85008502,0.85008502 0 0 0 0.248047,0.542969 l 7.421875,7.423828 a 0.85008502,0.85008502 0 0 0 1.203125,0 l 7.421875,-7.421875 a 0.85008502,0.85008502 0 0 0 0.246094,-0.544922 L 35.341797,0.30078125 C 35.454736,-1.3949997 34.00516,-2.7285156 32.371094,-2.7285156 Z m 0,1.6992187 h 12.75 c 0.718871,0 1.318811,0.56484115 1.27539,1.2167969 l -1.054687,15.839844 -6.595703,6.59375 -6.595703,-6.59375 -1.050782,-15.78710962 c 0.0025,-0.7177842 0.552951,-1.26953128 1.271485,-1.26953128 z"
           id="path8"
           inkscape:label="Outline" />
        <path
           style="color:#000000;display:inline;fill:#ffffff;stroke-linecap:round;stroke-linejoin:round;-inkscape-stroke:none;paint-order:stroke fill markers"
           d="M 33.417916,16.402935 34.494047,0.2448313 c 0.07818,-1.1738695 -0.94691,-2.1239 -2.12338,-2.1239 h -12.74961 c -1.17648,0 -2.1239,0.94743 -2.1239,2.1239 l 1.075999,16.1567507 7.423057,7.423057 z"
           id="path9"
           inkscape:label="D-Pad Shape" />
      </g>
    </g>
  </g>
</svg>
