<?xml version="1.0" encoding="UTF-8" standalone="no"?>
<!-- Created with Inkscape (http://www.inkscape.org/) -->

<svg
   width="45.529301mm"
   height="45.529289mm"
   viewBox="0 0 45.529301 45.529289"
   version="1.1"
   id="svg1"
   sodipodi:docname="ps-Guide.svg"
   inkscape:version="1.3.2 (091e20e, 2023-11-25, custom)"
   xmlns:inkscape="http://www.inkscape.org/namespaces/inkscape"
   xmlns:sodipodi="http://sodipodi.sourceforge.net/DTD/sodipodi-0.dtd"
   xmlns="http://www.w3.org/2000/svg"
   xmlns:svg="http://www.w3.org/2000/svg"
   xmlns:rdf="http://www.w3.org/1999/02/22-rdf-syntax-ns#"
   xmlns:cc="http://creativecommons.org/ns#">
  <sodipodi:namedview
     id="namedview1"
     pagecolor="#3e8d2e"
     bordercolor="#000000"
     borderopacity="0.25"
     inkscape:showpageshadow="true"
     inkscape:pageopacity="0.0"
     inkscape:pagecheckerboard="false"
     inkscape:deskcolor="#d1d1d1"
     inkscape:document-units="mm"
     inkscape:zoom="1.4142136"
     inkscape:cx="-76.721085"
     inkscape:cy="83.085046"
     inkscape:window-width="2560"
     inkscape:window-height="1351"
     inkscape:window-x="-9"
     inkscape:window-y="-9"
     inkscape:window-maximized="1"
     inkscape:current-layer="path1"
     labelstyle="default"
     showborder="true" />
  <defs
     id="defs1">
    <rect
       x="-329.58707"
       y="426.24316"
       width="115.7824"
       height="107.24387"
       id="rect2" />
    <rect
       x="-486.35437"
       y="484.30515"
       width="87.776039"
       height="93.582237"
       id="rect1" />
  </defs>
  <g
     inkscape:label="Button Prompt PlayStation Guide"
     id="layer1"
     transform="translate(139.87891,-115.24219)"
     style="display:inline">
    <g
       id="path1"
       inkscape:label="Style - Outline (White)"
       style="display:none">
      <path
         style="color:#000000;display:inline;fill:#ffffff;fill-opacity:1;stroke-linecap:round;stroke-linejoin:round;-inkscape-stroke:none"
         d="m -95.899378,138.00743 a 21.214285,21.214285 0 0 1 -21.214282,21.21429 21.214285,21.214285 0 0 1 -21.21429,-21.21429 21.214285,21.214285 0 0 1 21.21429,-21.21428 21.214285,21.214285 0 0 1 21.214282,21.21428 z"
         id="path3"
         inkscape:label="Circle" />
      <path
         style="color:#000000;display:inline;fill:#000000;fill-opacity:1;stroke-linecap:round;stroke-linejoin:round;-inkscape-stroke:none"
         d="m -117.11328,115.24219 c -12.554,0 -22.76563,10.21163 -22.76563,22.76562 0,12.554 10.21163,22.76367 22.76563,22.76367 12.55399,0 22.763671,-10.20967 22.763671,-22.76367 0,-12.55399 -10.209681,-22.76562 -22.763671,-22.76562 z m 0,3.10156 c 10.87863,0 19.664061,8.78543 19.664061,19.66406 0,10.87864 -8.785431,19.66406 -19.664061,19.66406 -10.87863,0 -19.66406,-8.78542 -19.66406,-19.66406 0,-10.87863 8.78543,-19.66406 19.66406,-19.66406 z"
         id="path4"
         inkscape:label="Outline" />
      <path
         id="path6444"
         style="display:inline;fill:#000000;fill-opacity:1;fill-rule:nonzero;stroke:none;stroke-width:3.64672"
         d="m -120.93516,125.8176 v 21.38831 l 4.93762,1.53496 v -17.94188 c 0,-0.83874 0.34636,-1.34176 0.97724,-1.2141 0.4595,0.0949 0.98855,0.42639 0.98488,1.84132 v 7.16576 c 3.07787,1.45502 5.49886,1e-4 5.49886,-3.84716 0,-3.94575 -1.41467,-5.69583 -5.59746,-7.09983 -1.6447,-0.54701 -4.70426,-1.44814 -6.80114,-1.82738 z m -0.95988,12.9258 -7.07825,2.46914 c 0,0 -1.71394,0.54694 -2.72409,1.28356 -1.08672,0.79134 -0.68917,2.16247 1.70307,2.82617 2.56364,0.82415 5.16699,0.98822 7.61031,0.59802 0.1604,-0.0254 0.33214,-0.0544 0.48896,-0.0762 v -2.5199 l -2.44345,0.86753 c -0.90076,0.31729 -2.22446,0.38707 -2.95745,0.15008 -0.73298,-0.23336 -0.59446,-0.67856 0.3063,-0.99947 l 5.0946,-1.78294 z m 12.28676,1.22172 c -0.50551,0.004 -0.99913,0.031 -1.46901,0.0819 -2.15155,0.2334 -3.67905,0.76196 -3.67905,0.76196 l -0.30631,0.10212 v 2.90674 l 5.29114,-1.82741 c 0.9044,-0.3136 2.22428,-0.3827 2.96092,-0.14929 0.72933,0.23705 0.59098,0.68222 -0.30977,0.99948 l -7.94229,2.77477 v 2.80116 l 10.79068,-3.79993 c 0,0 1.45108,-0.52211 2.04549,-1.25508 0.59076,-0.73302 0.32851,-1.79732 -2.00174,-2.5157 -1.61253,-0.60113 -3.57464,-0.89312 -5.38006,-0.8807 z"
         inkscape:label="Symbol PlayStation Guide Button"
         transform="translate(1.25e-6)" />
    </g>
    <g
       id="g6"
       inkscape:label="Style - Outline (Black)"
       style="display:none">
      <path
         style="color:#000000;display:inline;fill:#000000;fill-opacity:1;stroke-linecap:round;stroke-linejoin:round;-inkscape-stroke:none"
         d="m -95.899378,138.00743 a 21.214285,21.214285 0 0 1 -21.214282,21.21429 21.214285,21.214285 0 0 1 -21.21429,-21.21429 21.214285,21.214285 0 0 1 21.21429,-21.21428 21.214285,21.214285 0 0 1 21.214282,21.21428 z"
         id="path5"
         inkscape:label="Circle" />
      <path
         style="color:#000000;display:inline;fill:#ffffff;fill-opacity:1;stroke-linecap:round;stroke-linejoin:round;-inkscape-stroke:none"
         d="m -117.11328,115.24219 c -12.554,0 -22.76563,10.21163 -22.76563,22.76562 0,12.554 10.21163,22.76367 22.76563,22.76367 12.55399,0 22.763671,-10.20967 22.763671,-22.76367 0,-12.55399 -10.209681,-22.76562 -22.763671,-22.76562 z m 0,3.10156 c 10.87863,0 19.664061,8.78543 19.664061,19.66406 0,10.87864 -8.785431,19.66406 -19.664061,19.66406 -10.87863,0 -19.66406,-8.78542 -19.66406,-19.66406 0,-10.87863 8.78543,-19.66406 19.66406,-19.66406 z"
         id="path6"
         inkscape:label="Outline" />
      <path
         id="path11"
         style="display:inline;fill:#ffffff;fill-opacity:1;fill-rule:nonzero;stroke:none;stroke-width:3.64672"
         d="m -120.93516,125.8176 v 21.38831 l 4.93762,1.53496 v -17.94188 c 0,-0.83874 0.34636,-1.34176 0.97724,-1.2141 0.4595,0.0949 0.98855,0.42639 0.98488,1.84132 v 7.16576 c 3.07787,1.45502 5.49886,1e-4 5.49886,-3.84716 0,-3.94575 -1.41467,-5.69583 -5.59746,-7.09983 -1.6447,-0.54701 -4.70426,-1.44814 -6.80114,-1.82738 z m -0.95988,12.9258 -7.07825,2.46914 c 0,0 -1.71394,0.54694 -2.72409,1.28356 -1.08672,0.79134 -0.68917,2.16247 1.70307,2.82617 2.56364,0.82415 5.16699,0.98822 7.61031,0.59802 0.1604,-0.0254 0.33214,-0.0544 0.48896,-0.0762 v -2.5199 l -2.44345,0.86753 c -0.90076,0.31729 -2.22446,0.38707 -2.95745,0.15008 -0.73298,-0.23336 -0.59446,-0.67856 0.3063,-0.99947 l 5.0946,-1.78294 z m 12.28676,1.22172 c -0.50551,0.004 -0.99913,0.031 -1.46901,0.0819 -2.15155,0.2334 -3.67905,0.76196 -3.67905,0.76196 l -0.30631,0.10212 v 2.90674 l 5.29114,-1.82741 c 0.9044,-0.3136 2.22428,-0.3827 2.96092,-0.14929 0.72933,0.23705 0.59098,0.68222 -0.30977,0.99948 l -7.94229,2.77477 v 2.80116 l 10.79068,-3.79993 c 0,0 1.45108,-0.52211 2.04549,-1.25508 0.59076,-0.73302 0.32851,-1.79732 -2.00174,-2.5157 -1.61253,-0.60113 -3.57464,-0.89312 -5.38006,-0.8807 z"
         inkscape:label="Symbol PlayStation Guide Button" />
    </g>
    <g
       id="g8"
       inkscape:label="Style - Transparent"
       style="display:inline;fill:#ffffff;fill-opacity:1">
      <path
         style="color:#000000;display:inline;fill:#808080;fill-opacity:0.501031;stroke-linecap:round;stroke-linejoin:round;-inkscape-stroke:none;paint-order:stroke markers fill"
         d="m -117.11328,115.24219 c -12.554,-10e-6 -22.76562,10.21163 -22.76563,22.76562 0,12.554 10.21163,22.76368 22.76563,22.76367 12.554,0 22.763674,-10.20967 22.763671,-22.76367 -3e-6,-12.55399 -10.209681,-22.76562 -22.763671,-22.76562 z m 0,3.10156 c 10.87863,0 19.664059,8.78543 19.664061,19.66406 3e-6,10.87864 -8.785431,19.66406 -19.664061,19.66406 -10.87864,10e-6 -19.66407,-8.78542 -19.66406,-19.66406 0,-10.87863 8.78543,-19.66406 19.66406,-19.66406 z"
         id="path9"
         inkscape:label="Outline" />
      <path
         style="color:#000000;display:inline;stroke-linecap:round;stroke-linejoin:round;-inkscape-stroke:none;paint-order:stroke markers fill"
         d="m -95.899378,138.00743 a 21.214285,21.214285 0 0 1 -21.214282,21.21429 21.214285,21.214285 0 0 1 -21.21429,-21.21429 21.214285,21.214285 0 0 1 21.21429,-21.21428 21.214285,21.214285 0 0 1 21.214282,21.21428 z"
         id="path10"
         inkscape:label="Circle" />
      <path
         id="path8"
         style="display:inline;fill:#808080;fill-opacity:1;fill-rule:nonzero;stroke:none;stroke-width:3.64672"
         d="m -120.93516,125.8176 v 21.38831 l 4.93761,1.53496 v -17.94188 c 0,-0.83874 0.34637,-1.34176 0.97725,-1.2141 0.4595,0.0949 0.98855,0.42639 0.98488,1.84132 v 7.16576 c 3.07787,1.45502 5.49886,1e-4 5.49886,-3.84716 0,-3.94575 -1.41467,-5.69583 -5.59747,-7.09983 -1.64469,-0.54701 -4.70425,-1.44814 -6.80113,-1.82738 z m -0.95988,12.9258 -7.07826,2.46914 c 0,0 -1.71393,0.54694 -2.72408,1.28356 -1.08672,0.79134 -0.68917,2.16247 1.70307,2.82617 2.56364,0.82415 5.16699,0.98822 7.61031,0.59802 0.1604,-0.0254 0.33214,-0.0544 0.48896,-0.0762 v -2.5199 l -2.44345,0.86753 c -0.90077,0.31729 -2.22446,0.38707 -2.95745,0.15008 -0.73298,-0.23336 -0.59446,-0.67856 0.3063,-0.99947 l 5.0946,-1.78294 z m 12.28676,1.22172 c -0.50551,0.004 -0.99913,0.031 -1.46901,0.0819 -2.15155,0.2334 -3.67906,0.76196 -3.67906,0.76196 l -0.3063,0.10212 v 2.90674 l 5.29114,-1.82741 c 0.9044,-0.3136 2.22428,-0.3827 2.96092,-0.14929 0.72932,0.23705 0.59097,0.68222 -0.30977,0.99948 l -7.94229,2.77477 v 2.80116 l 10.79068,-3.79993 c 0,0 1.45108,-0.52211 2.04548,-1.25508 0.59077,-0.73302 0.32852,-1.79732 -2.00174,-2.5157 -1.61252,-0.60113 -3.57463,-0.89312 -5.38005,-0.8807 z"
         inkscape:label="Symbol PlayStation Guide Button" />
    </g>
    <path
       id="path8160-9-5"
       style="display:none;fill:#808080;fill-opacity:1;fill-rule:nonzero;stroke:none;stroke-width:0.252036"
       d="m -117.11562,116.78881 c -4.27424,0 -7.84013,1.17217 -11.10231,3.12554 l -0.0299,0.10727 0.0986,0.0388 c 3.64542,-0.93761 9.42305,2.09979 10.98535,2.98857 l 0.048,0.0199 0.0403,-0.0199 c 0.59935,-0.35158 6.84818,-3.89599 10.95543,-3.01698 l 0.10792,-0.0297 -0.039,-0.10726 c -3.2524,-1.93381 -6.78052,-3.10613 -11.06464,-3.10613 z m 14.27793,5.97456 c -1.04027,0.002 -3.48982,0.7622 -8.44142,5.67737 l -0.0288,0.0685 0.0288,0.0581 c 4.27424,5.08854 12.548102,17.21917 10.92682,22.21981 l 0.0221,0.10727 0.11702,-0.0297 c 2.721775,-3.5747 4.344204,-8.01824 4.344204,-12.86262 0,-5.89919 -2.41782,-11.242 -6.318764,-15.09014 0.007,0.004 -0.17575,-0.14915 -0.64863,-0.14849 z m -28.55847,0.002 c -0.47272,-0.002 -0.65395,0.15202 -0.64471,0.14604 -3.90091,3.84817 -6.31874,9.19097 -6.31874,15.09016 0,4.84437 1.61259,9.28793 4.3442,12.86259 l 0.10793,0.0297 0.0285,-0.10727 c -1.62125,-5.00062 6.66302,-17.12093 10.93725,-22.20949 l 0.0289,-0.0594 -0.039,-0.0685 c -4.95169,-4.9151 -7.40409,-5.67924 -8.44411,-5.68376 z m 14.28054,11.03688 -0.0689,0.0388 c -6.35737,4.82485 -17.23438,16.77 -13.92306,20.13957 3.74368,3.26215 8.63683,5.24455 13.99196,5.24455 5.35511,0 10.24904,-1.9824 13.98284,-5.24455 3.321196,-3.36957 -7.55657,-15.31472 -13.91396,-20.13955 z"
       inkscape:label="Symbol Xbox Guide Button" />
    <path
       id="path7"
       style="display:none;fill:#808080;fill-opacity:1;fill-rule:nonzero;stroke:none;stroke-width:0.234327"
       d="m -117.11552,118.27967 c -3.97392,0 -7.28927,1.0898 -10.32223,2.90594 l -0.0278,0.0997 0.0917,0.0361 c 3.38929,-0.87173 8.76095,1.95226 10.21348,2.77857 l 0.0446,0.0186 0.0375,-0.0186 c 0.55723,-0.32686 6.367,-3.62223 10.18566,-2.80499 l 0.10034,-0.0276 -0.0363,-0.0997 c -3.02387,-1.79792 -6.30409,-2.88787 -10.28719,-2.88787 z m 13.27471,5.55477 c -0.96718,0.002 -3.24462,0.70865 -7.8483,5.27846 l -0.0268,0.0637 0.0268,0.0541 c 3.97392,4.731 11.66643,16.0093 10.15907,20.65857 l 0.0206,0.0997 0.10879,-0.0276 c 2.530532,-3.32353 4.038964,-7.45485 4.038964,-11.95885 0,-5.48469 -2.247936,-10.4521 -5.874784,-14.02985 0.006,0.004 -0.1634,-0.13867 -0.60305,-0.13806 z m -26.55185,0.002 c -0.43951,-0.002 -0.608,0.14134 -0.59942,0.13578 -3.62682,3.57778 -5.87476,8.54518 -5.87476,14.02987 0,4.50399 1.49928,8.63533 4.03896,11.95883 l 0.10035,0.0276 0.0265,-0.0997 c -1.50734,-4.64926 6.19485,-15.91795 10.16876,-20.64897 l 0.0269,-0.0553 -0.0363,-0.0637 c -4.60377,-4.56974 -6.88385,-5.28019 -7.85079,-5.2844 z m 13.27714,10.26139 -0.0641,0.0361 c -5.91068,4.48585 -16.02343,15.59169 -12.94478,18.72449 3.48063,3.03294 8.02998,4.87606 13.00884,4.87606 4.97883,0 9.52891,-1.84312 13.00035,-4.87606 3.08784,-3.1328 -7.02562,-14.23864 -12.93631,-18.72447 z"
       inkscape:label="Symbol Xbox Guide Button" />
  </g>
  <metadata
     id="metadata8">
    <rdf:RDF>
      <cc:Work
         rdf:about="">
        <cc:license
           rdf:resource="https://opensource.org/license/mit" />
      </cc:Work>
    </rdf:RDF>
  </metadata>
</svg>
