<?xml version="1.0" encoding="UTF-8" standalone="no"?>
<!-- Created with Inkscape (http://www.inkscape.org/) -->

<svg
   width="34.230633mm"
   height="30.630714mm"
   viewBox="0 0 34.230633 30.630714"
   version="1.1"
   id="svg1"
   inkscape:version="1.3.2 (091e20e, 2023-11-25, custom)"
   sodipodi:docname="ps3-Start.svg"
   xmlns:inkscape="http://www.inkscape.org/namespaces/inkscape"
   xmlns:sodipodi="http://sodipodi.sourceforge.net/DTD/sodipodi-0.dtd"
   xmlns="http://www.w3.org/2000/svg"
   xmlns:svg="http://www.w3.org/2000/svg">
  <sodipodi:namedview
     id="namedview1"
     pagecolor="#63ff87"
     bordercolor="#000000"
     borderopacity="0.25"
     inkscape:showpageshadow="2"
     inkscape:pageopacity="0.0"
     inkscape:pagecheckerboard="0"
     inkscape:deskcolor="#d1d1d1"
     inkscape:document-units="mm"
     inkscape:zoom="2.0257997"
     inkscape:cx="-36.775601"
     inkscape:cy="67.380799"
     inkscape:window-width="2560"
     inkscape:window-height="1351"
     inkscape:window-x="-9"
     inkscape:window-y="-9"
     inkscape:window-maximized="1"
     inkscape:current-layer="svg1" />
  <defs
     id="defs1">
    <rect
       x="-6"
       y="-34"
       width="85"
       height="25.25"
       id="rect22" />
  </defs>
  <g
     inkscape:label="Button START"
     id="layer1"
     transform="translate(-87.329501,-95.05994)"
     style="display:inline">
    <g
       id="g8"
       style="display:none"
       inkscape:label="Style - Outline (White)">
      <path
         style="color:#000000;display:inline;fill:#ffffff;stroke-linecap:round;stroke-linejoin:round;-inkscape-stroke:none"
         d="m 93.132336,109.54598 a 0.51224356,0.51224356 0 0 0 -0.35361,0.48808 v 14.44745 a 0.51224356,0.51224356 0 0 0 0.67073,0.4865 c 7.436574,-2.40784 14.871454,-4.81541 22.307994,-7.22322 a 0.51224356,0.51224356 0 0 0 0,-0.97403 c -7.43656,-2.40788 -14.87142,-4.8169 -22.308004,-7.22478 a 0.51224356,0.51224356 0 0 0 -0.31711,0 z"
         id="path9"
         inkscape:label="Shape" />
      <path
         style="color:#000000;fill:#000000;stroke-linecap:round;stroke-linejoin:round;-inkscape-stroke:none"
         d="m 92.916015,108.88086 c -0.497263,0.16195 -0.838931,0.63133 -0.837891,1.1543 v 14.44726 c 9.55e-4,0.803 0.824296,1.39884 1.587891,1.15039 v 0.002 c 7.436585,-2.40785 14.870125,-4.81681 22.306645,-7.22461 a 0.70006999,0.70006999 0 0 0 0.002,0 c 0.51933,-0.16932 0.83594,-0.67916 0.83594,-1.15235 0,-0.47318 -0.31661,-0.98303 -0.83594,-1.15234 a 0.70006999,0.70006999 0 0 0 -0.002,0 c -7.43646,-2.40785 -14.86998,-4.8167 -22.306645,-7.22461 -0.243769,-0.0794 -0.506232,-0.0794 -0.75,0 z m 0.5625,1.41016 c 7.170225,2.32167 14.337475,4.64503 21.507815,6.96679 -7.17025,2.32161 -14.33752,4.64517 -21.507815,6.9668 z"
         id="path10"
         inkscape:label="Outline" />
      <path
         d="m 4.7395664,-32.016545 q 0,1.354164 -0.6770823,2.322913 -0.6666656,0.958332 -1.8854137,1.468748 -1.21874806,0.510415 -2.89582874,0.510415 -0.84374866,0 -1.61458076,-0.09375 -0.7604155,-0.08333 -1.4166645,-0.25 -0.6562489,-0.166666 -1.1874981,-0.416666 v -2.02083 q 0.864582,0.354166 1.9999969,0.666665 1.1354148,0.302083 2.34374626,0.302083 1.05208167,0 1.76041384,-0.281249 0.7187489,-0.291666 1.0833317,-0.812499 0.3645827,-0.520832 0.3645827,-1.249998 0,-0.729165 -0.3541661,-1.218748 -0.3541661,-0.499999 -1.1249982,-0.916665 -0.76041547,-0.416666 -1.99999684,-0.885416 -0.86458196,-0.312499 -1.57291416,-0.708332 -0.7083322,-0.406249 -1.2291648,-0.927082 -0.5104158,-0.520832 -0.7916654,-1.218748 -0.2812495,-0.708332 -0.2812495,-1.624997 0,-1.260415 0.6145823,-2.156247 0.6249991,-0.895832 1.7395806,-1.364581 1.1145816,-0.479166 2.58332928,-0.479166 1.20833142,0 2.24999642,0.239583 1.0520817,0.239583 1.9999969,0.656249 l -0.6770823,1.770831 q -0.8854153,-0.364583 -1.7812472,-0.593749 -0.8958319,-0.229167 -1.85416372,-0.229167 -0.88541527,0 -1.49999768,0.260417 -0.6041657,0.260416 -0.9270818,0.739582 -0.3124995,0.479166 -0.3124995,1.135415 0,0.739582 0.3333328,1.229164 0.3333328,0.489583 1.0520816,0.885416 0.71874891,0.395832 1.87499709,0.843748 1.30208131,0.499999 2.20832981,1.062499 0.9166653,0.562499 1.3958312,1.354164 0.4791659,0.791666 0.4791659,1.999998 z m 7.9895706,4.093743 h -2.14583 V -41.308197 H 5.9583145 v -1.843747 H 17.343713 v 1.843747 h -4.614576 z m 16.427057,0 -1.687497,-4.531242 h -5.968741 l -1.666664,4.531242 h -2.218746 l 5.812491,-15.291642 h 2.187496 l 5.781241,15.291642 z m -2.281246,-6.385406 -1.604164,-4.489576 q -0.07292,-0.229167 -0.229167,-0.687499 -0.145833,-0.458333 -0.302082,-0.947915 -0.145834,-0.489583 -0.239583,-0.812499 -0.104167,0.427083 -0.239583,0.906248 -0.135417,0.46875 -0.270833,0.885416 -0.125,0.406249 -0.208333,0.656249 l -1.624998,4.489576 z m 10.781232,-8.843736 q 1.927081,0 3.177079,0.479166 1.260414,0.468749 1.874997,1.437498 0.614582,0.958331 0.614582,2.437496 0,1.166664 -0.427083,1.968747 -0.427082,0.802082 -1.124998,1.312497 -0.687499,0.510416 -1.479164,0.802083 l 4.26041,6.791655 H 42.10409 l -3.708327,-6.229156 h -2.802079 v 6.229156 H 33.45827 v -15.229142 z m -0.135416,1.812497 h -1.92708 v 5.406241 h 2.072913 q 1.802081,0 2.635413,-0.697915 0.833332,-0.708332 0.833332,-2.08333 0,-1.427081 -0.885416,-2.02083 -0.885415,-0.604166 -2.729162,-0.604166 z m 14.312478,13.416645 h -2.14583 v -13.385395 h -4.624993 v -1.843747 h 11.385399 v 1.843747 h -4.614576 z"
         id="path8"
         style="font-weight:500;font-size:21.3333px;line-height:0;font-family:'open sans';-inkscape-font-specification:'open sans Medium';letter-spacing:0px;word-spacing:0px;white-space:pre;fill:#000000;stroke-width:3.77953;stroke-linecap:round;stroke-linejoin:round;paint-order:stroke fill markers"
         transform="matrix(0.55763552,0,0,0.55763552,90.082827,119.24498)"
         aria-label="START"
         inkscape:label="Symbol START" />
    </g>
    <g
       id="g13"
       style="display:none"
       inkscape:label="Style - Outline (Black)">
      <path
         style="color:#000000;display:inline;fill:#000000;stroke-linecap:round;stroke-linejoin:round;-inkscape-stroke:none"
         d="m 93.132336,109.54598 a 0.51224356,0.51224356 0 0 0 -0.35361,0.48808 v 14.44745 a 0.51224356,0.51224356 0 0 0 0.67073,0.4865 c 7.436574,-2.40784 14.871454,-4.81541 22.307994,-7.22322 a 0.51224356,0.51224356 0 0 0 0,-0.97403 c -7.43656,-2.40788 -14.87142,-4.8169 -22.308004,-7.22478 a 0.51224356,0.51224356 0 0 0 -0.31711,0 z"
         id="path11"
         inkscape:label="Shape" />
      <path
         style="color:#000000;fill:#ffffff;stroke-linecap:round;stroke-linejoin:round;-inkscape-stroke:none"
         d="m 92.916015,108.88086 c -0.497263,0.16195 -0.838931,0.63133 -0.837891,1.1543 v 14.44726 c 9.55e-4,0.803 0.824296,1.39884 1.587891,1.15039 v 0.002 c 7.436585,-2.40785 14.870125,-4.81681 22.306645,-7.22461 a 0.70006999,0.70006999 0 0 0 0.002,0 c 0.51933,-0.16932 0.83594,-0.67916 0.83594,-1.15235 0,-0.47318 -0.31661,-0.98303 -0.83594,-1.15234 a 0.70006999,0.70006999 0 0 0 -0.002,0 c -7.43646,-2.40785 -14.86998,-4.8167 -22.306645,-7.22461 -0.243769,-0.0794 -0.506232,-0.0794 -0.75,0 z m 0.5625,1.41016 c 7.170225,2.32167 14.337475,4.64503 21.507815,6.96679 -7.17025,2.32161 -14.33752,4.64517 -21.507815,6.9668 z"
         id="path12"
         inkscape:label="Outline" />
      <path
         d="m 4.7395664,-32.016545 q 0,1.354164 -0.6770823,2.322913 -0.6666656,0.958332 -1.8854137,1.468748 -1.21874806,0.510415 -2.89582874,0.510415 -0.84374866,0 -1.61458076,-0.09375 -0.7604155,-0.08333 -1.4166645,-0.25 -0.6562489,-0.166666 -1.1874981,-0.416666 v -2.02083 q 0.864582,0.354166 1.9999969,0.666665 1.1354148,0.302083 2.34374626,0.302083 1.05208167,0 1.76041384,-0.281249 0.7187489,-0.291666 1.0833317,-0.812499 0.3645827,-0.520832 0.3645827,-1.249998 0,-0.729165 -0.3541661,-1.218748 -0.3541661,-0.499999 -1.1249982,-0.916665 -0.76041547,-0.416666 -1.99999684,-0.885416 -0.86458196,-0.312499 -1.57291416,-0.708332 -0.7083322,-0.406249 -1.2291648,-0.927082 -0.5104158,-0.520832 -0.7916654,-1.218748 -0.2812495,-0.708332 -0.2812495,-1.624997 0,-1.260415 0.6145823,-2.156247 0.6249991,-0.895832 1.7395806,-1.364581 1.1145816,-0.479166 2.58332928,-0.479166 1.20833142,0 2.24999642,0.239583 1.0520817,0.239583 1.9999969,0.656249 l -0.6770823,1.770831 q -0.8854153,-0.364583 -1.7812472,-0.593749 -0.8958319,-0.229167 -1.85416372,-0.229167 -0.88541527,0 -1.49999768,0.260417 -0.6041657,0.260416 -0.9270818,0.739582 -0.3124995,0.479166 -0.3124995,1.135415 0,0.739582 0.3333328,1.229164 0.3333328,0.489583 1.0520816,0.885416 0.71874891,0.395832 1.87499709,0.843748 1.30208131,0.499999 2.20832981,1.062499 0.9166653,0.562499 1.3958312,1.354164 0.4791659,0.791666 0.4791659,1.999998 z m 7.9895706,4.093743 h -2.14583 V -41.308197 H 5.9583145 v -1.843747 H 17.343713 v 1.843747 h -4.614576 z m 16.427057,0 -1.687497,-4.531242 h -5.968741 l -1.666664,4.531242 h -2.218746 l 5.812491,-15.291642 h 2.187496 l 5.781241,15.291642 z m -2.281246,-6.385406 -1.604164,-4.489576 q -0.07292,-0.229167 -0.229167,-0.687499 -0.145833,-0.458333 -0.302082,-0.947915 -0.145834,-0.489583 -0.239583,-0.812499 -0.104167,0.427083 -0.239583,0.906248 -0.135417,0.46875 -0.270833,0.885416 -0.125,0.406249 -0.208333,0.656249 l -1.624998,4.489576 z m 10.781232,-8.843736 q 1.927081,0 3.177079,0.479166 1.260414,0.468749 1.874997,1.437498 0.614582,0.958331 0.614582,2.437496 0,1.166664 -0.427083,1.968747 -0.427082,0.802082 -1.124998,1.312497 -0.687499,0.510416 -1.479164,0.802083 l 4.26041,6.791655 H 42.10409 l -3.708327,-6.229156 h -2.802079 v 6.229156 H 33.45827 v -15.229142 z m -0.135416,1.812497 h -1.92708 v 5.406241 h 2.072913 q 1.802081,0 2.635413,-0.697915 0.833332,-0.708332 0.833332,-2.08333 0,-1.427081 -0.885416,-2.02083 -0.885415,-0.604166 -2.729162,-0.604166 z m 14.312478,13.416645 h -2.14583 v -13.385395 h -4.624993 v -1.843747 h 11.385399 v 1.843747 h -4.614576 z"
         id="path13"
         style="font-weight:500;font-size:21.3333px;line-height:0;font-family:'open sans';-inkscape-font-specification:'open sans Medium';letter-spacing:0px;word-spacing:0px;white-space:pre;fill:#ffffff;stroke-width:3.77953;stroke-linecap:round;stroke-linejoin:round;paint-order:stroke fill markers"
         transform="matrix(0.55763552,0,0,0.55763552,90.082827,119.24498)"
         aria-label="START"
         inkscape:label="Symbol START" />
    </g>
    <g
       id="g1"
       style="display:inline"
       inkscape:label="Style - Transparent">
      <path
         style="color:#000000;fill:#808080;fill-opacity:0.501961;stroke-linecap:round;stroke-linejoin:round;-inkscape-stroke:none;paint-order:stroke fill markers"
         d="m 92.916015,108.88086 c -0.497263,0.16195 -0.838931,0.63133 -0.837891,1.1543 v 14.44726 c 9.55e-4,0.803 0.824296,1.39884 1.587891,1.15039 v 0.002 c 7.436585,-2.40785 14.870125,-4.81681 22.306645,-7.22461 a 0.70006999,0.70006999 0 0 0 0.002,0 c 0.51933,-0.16932 0.83594,-0.67916 0.83594,-1.15235 0,-0.47318 -0.31661,-0.98303 -0.83594,-1.15234 a 0.70006999,0.70006999 0 0 0 -0.002,0 c -7.43646,-2.40785 -14.86998,-4.8167 -22.306645,-7.22461 -0.243769,-0.0794 -0.506232,-0.0794 -0.75,0 z m 0.5625,1.41016 c 7.170225,2.32167 14.337475,4.64503 21.507815,6.96679 -7.17025,2.32161 -14.33752,4.64517 -21.507815,6.9668 z"
         id="path4"
         inkscape:label="Outline" />
      <path
         style="color:#000000;display:inline;fill:#ffffff;stroke-linecap:round;stroke-linejoin:round;-inkscape-stroke:none;paint-order:stroke fill markers"
         d="m 93.132336,109.54598 a 0.51224356,0.51224356 0 0 0 -0.35361,0.48808 v 14.44745 a 0.51224356,0.51224356 0 0 0 0.67073,0.4865 c 7.436574,-2.40784 14.871454,-4.81541 22.307994,-7.22322 a 0.51224356,0.51224356 0 0 0 0,-0.97403 c -7.43656,-2.40788 -14.87142,-4.8169 -22.308004,-7.22478 a 0.51224356,0.51224356 0 0 0 -0.31711,0 z"
         id="path5"
         inkscape:label="Shape" />
      <path
         d="m 4.7395664,-32.016545 q 0,1.354164 -0.6770823,2.322913 -0.6666656,0.958332 -1.8854137,1.468748 -1.21874806,0.510415 -2.89582874,0.510415 -0.84374866,0 -1.61458076,-0.09375 -0.7604155,-0.08333 -1.4166645,-0.25 -0.6562489,-0.166666 -1.1874981,-0.416666 v -2.02083 q 0.864582,0.354166 1.9999969,0.666665 1.1354148,0.302083 2.34374626,0.302083 1.05208167,0 1.76041384,-0.281249 0.7187489,-0.291666 1.0833317,-0.812499 0.3645827,-0.520832 0.3645827,-1.249998 0,-0.729165 -0.3541661,-1.218748 -0.3541661,-0.499999 -1.1249982,-0.916665 -0.76041547,-0.416666 -1.99999684,-0.885416 -0.86458196,-0.312499 -1.57291416,-0.708332 -0.7083322,-0.406249 -1.2291648,-0.927082 -0.5104158,-0.520832 -0.7916654,-1.218748 -0.2812495,-0.708332 -0.2812495,-1.624997 0,-1.260415 0.6145823,-2.156247 0.6249991,-0.895832 1.7395806,-1.364581 1.1145816,-0.479166 2.58332928,-0.479166 1.20833142,0 2.24999642,0.239583 1.0520817,0.239583 1.9999969,0.656249 l -0.6770823,1.770831 q -0.8854153,-0.364583 -1.7812472,-0.593749 -0.8958319,-0.229167 -1.85416372,-0.229167 -0.88541527,0 -1.49999768,0.260417 -0.6041657,0.260416 -0.9270818,0.739582 -0.3124995,0.479166 -0.3124995,1.135415 0,0.739582 0.3333328,1.229164 0.3333328,0.489583 1.0520816,0.885416 0.71874891,0.395832 1.87499709,0.843748 1.30208131,0.499999 2.20832981,1.062499 0.9166653,0.562499 1.3958312,1.354164 0.4791659,0.791666 0.4791659,1.999998 z m 7.9895706,4.093743 h -2.14583 V -41.308197 H 5.9583145 v -1.843747 H 17.343713 v 1.843747 h -4.614576 z m 16.427057,0 -1.687497,-4.531242 h -5.968741 l -1.666664,4.531242 h -2.218746 l 5.812491,-15.291642 h 2.187496 l 5.781241,15.291642 z m -2.281246,-6.385406 -1.604164,-4.489576 q -0.07292,-0.229167 -0.229167,-0.687499 -0.145833,-0.458333 -0.302082,-0.947915 -0.145834,-0.489583 -0.239583,-0.812499 -0.104167,0.427083 -0.239583,0.906248 -0.135417,0.46875 -0.270833,0.885416 -0.125,0.406249 -0.208333,0.656249 l -1.624998,4.489576 z m 10.781232,-8.843736 q 1.927081,0 3.177079,0.479166 1.260414,0.468749 1.874997,1.437498 0.614582,0.958331 0.614582,2.437496 0,1.166664 -0.427083,1.968747 -0.427082,0.802082 -1.124998,1.312497 -0.687499,0.510416 -1.479164,0.802083 l 4.26041,6.791655 H 42.10409 l -3.708327,-6.229156 h -2.802079 v 6.229156 H 33.45827 v -15.229142 z m -0.135416,1.812497 h -1.92708 v 5.406241 h 2.072913 q 1.802081,0 2.635413,-0.697915 0.833332,-0.708332 0.833332,-2.08333 0,-1.427081 -0.885416,-2.02083 -0.885415,-0.604166 -2.729162,-0.604166 z m 14.312478,13.416645 h -2.14583 v -13.385395 h -4.624993 v -1.843747 h 11.385399 v 1.843747 h -4.614576 z"
         id="text22"
         style="font-weight:500;font-size:21.3333px;line-height:0;font-family:'open sans';-inkscape-font-specification:'open sans Medium';letter-spacing:0px;word-spacing:0px;white-space:pre;fill:#808080;stroke-width:3.77953;stroke-linecap:round;stroke-linejoin:round;paint-order:stroke fill markers"
         transform="matrix(0.55763552,0,0,0.55763552,90.082827,119.24498)"
         aria-label="START"
         inkscape:label="Symbol START" />
    </g>
  </g>
</svg>
