<?xml version="1.0" encoding="UTF-8" standalone="no"?>
<!-- Created with Inkscape (http://www.inkscape.org/) -->

<svg
   width="38.865913mm"
   height="30.632551mm"
   viewBox="0 0 38.865913 30.632551"
   version="1.1"
   id="svg1"
   inkscape:version="1.3.2 (091e20e, 2023-11-25, custom)"
   sodipodi:docname="ps3-Select.svg"
   xmlns:inkscape="http://www.inkscape.org/namespaces/inkscape"
   xmlns:sodipodi="http://sodipodi.sourceforge.net/DTD/sodipodi-0.dtd"
   xmlns="http://www.w3.org/2000/svg"
   xmlns:svg="http://www.w3.org/2000/svg">
  <sodipodi:namedview
     id="namedview1"
     pagecolor="#69ff33"
     bordercolor="#000000"
     borderopacity="0.25"
     inkscape:showpageshadow="2"
     inkscape:pageopacity="0.0"
     inkscape:pagecheckerboard="0"
     inkscape:deskcolor="#d1d1d1"
     inkscape:document-units="mm"
     inkscape:zoom="1.4324567"
     inkscape:cx="-47.121844"
     inkscape:cy="86.913623"
     inkscape:window-width="2560"
     inkscape:window-height="1351"
     inkscape:window-x="-9"
     inkscape:window-y="-9"
     inkscape:window-maximized="1"
     inkscape:current-layer="layer1" />
  <defs
     id="defs1">
    <rect
       x="-6"
       y="-34"
       width="85"
       height="25.25"
       id="rect21" />
  </defs>
  <g
     inkscape:label="Button SELECT"
     id="layer1"
     transform="translate(-90.4875,-157.69167)">
    <g
       id="rect1"
       inkscape:label="Style - Outline (White)"
       style="display:none">
      <path
         style="color:#000000;fill:#ffffff;stroke-linecap:round;stroke-linejoin:round;-inkscape-stroke:none"
         d="m 98.333898,172.01625 h 23.173112 c 0.78203,0 1.4116,0.62957 1.4116,1.4116 v 12.7855 c 0,0.78203 -0.62957,1.4116 -1.4116,1.4116 H 98.333898 c -0.782024,0 -1.411596,-0.62957 -1.411596,-1.4116 v -12.7855 c 0,-0.78203 0.629572,-1.4116 1.411596,-1.4116 z"
         id="path4"
         inkscape:label="Shape" />
      <path
         style="color:#000000;display:inline;fill:#000000;stroke-linecap:round;stroke-linejoin:round;-inkscape-stroke:none"
         d="m 98.333984,171.31641 c -1.157714,0 -2.111328,0.95361 -2.111328,2.11132 v 12.78516 c 0,1.15772 0.953614,2.11133 2.111328,2.11133 h 23.173826 c 1.15772,0 2.11133,-0.95361 2.11133,-2.11133 v -12.78516 c 0,-1.15771 -0.95361,-2.11132 -2.11133,-2.11132 z m 0,1.40039 h 23.173826 c 0.40633,0 0.71094,0.3046 0.71094,0.71093 v 12.78516 c 0,0.40633 -0.30461,0.71289 -0.71094,0.71289 H 98.333984 c -0.406331,0 -0.710937,-0.30656 -0.710937,-0.71289 v -12.78516 c 0,-0.40633 0.304606,-0.71093 0.710937,-0.71093 z"
         id="path5"
         inkscape:label="Outline" />
      <path
         d="m 4.7395664,-32.016545 q 0,1.354164 -0.6770823,2.322913 -0.6666656,0.958332 -1.8854137,1.468748 -1.21874806,0.510415 -2.89582874,0.510415 -0.84374866,0 -1.61458076,-0.09375 -0.7604155,-0.08333 -1.4166645,-0.25 -0.6562489,-0.166666 -1.1874981,-0.416666 v -2.02083 q 0.864582,0.354166 1.9999969,0.666665 1.1354148,0.302083 2.34374626,0.302083 1.05208167,0 1.76041384,-0.281249 0.7187489,-0.291666 1.0833317,-0.812499 0.3645827,-0.520832 0.3645827,-1.249998 0,-0.729165 -0.3541661,-1.218748 -0.3541661,-0.499999 -1.1249982,-0.916665 -0.76041547,-0.416666 -1.99999684,-0.885416 -0.86458196,-0.312499 -1.57291416,-0.708332 -0.7083322,-0.406249 -1.2291648,-0.927082 -0.5104158,-0.520832 -0.7916654,-1.218748 -0.2812495,-0.708332 -0.2812495,-1.624997 0,-1.260415 0.6145823,-2.156247 0.6249991,-0.895832 1.7395806,-1.364581 1.1145816,-0.479166 2.58332928,-0.479166 1.20833142,0 2.24999642,0.239583 1.0520817,0.239583 1.9999969,0.656249 l -0.6770823,1.770831 q -0.8854153,-0.364583 -1.7812472,-0.593749 -0.8958319,-0.229167 -1.85416372,-0.229167 -0.88541527,0 -1.49999768,0.260417 -0.6041657,0.260416 -0.9270818,0.739582 -0.3124995,0.479166 -0.3124995,1.135415 0,0.739582 0.3333328,1.229164 0.3333328,0.489583 1.0520816,0.885416 0.71874891,0.395832 1.87499709,0.843748 1.30208131,0.499999 2.20832981,1.062499 0.9166653,0.562499 1.3958312,1.354164 0.4791659,0.791666 0.4791659,1.999998 z m 11.5624816,4.093743 H 7.7499783 v -15.229142 h 8.5520697 v 1.83333 H 9.8853916 v 4.531243 h 6.0312404 v 1.812497 H 9.8853916 v 5.208325 h 6.4166564 z m 3.322911,0 v -15.229142 h 2.135414 v 13.374979 h 6.614572 v 1.854163 z m 19.916635,0 h -8.55207 v -15.229142 h 8.55207 v 1.83333 h -6.416657 v 4.531243 h 6.031241 v 1.812497 h -6.031241 v 5.208325 h 6.416657 z m 9.822901,-13.604145 q -1.177082,0 -2.11458,0.416666 -0.927082,0.40625 -1.572914,1.197915 -0.645833,0.781249 -0.989582,1.885414 -0.34375,1.104165 -0.34375,2.489579 0,1.843747 0.541666,3.187495 0.552083,1.343748 1.656248,2.072914 1.104165,0.729165 2.781245,0.729165 0.999999,0 1.906247,-0.177083 0.916665,-0.1875 1.822914,-0.479166 v 1.833331 q -0.874999,0.333332 -1.812497,0.489582 -0.927082,0.166666 -2.17708,0.166666 -2.33333,0 -3.885411,-0.968748 -1.541664,-0.968748 -2.302079,-2.718746 -0.760416,-1.760414 -0.760416,-4.145826 0,-1.729164 0.479166,-3.156245 0.479166,-1.437498 1.406248,-2.479163 0.927082,-1.052082 2.27083,-1.614581 1.354164,-0.572916 3.114578,-0.572916 1.145832,0 2.229163,0.25 1.093749,0.239583 2.010414,0.677082 l -0.791666,1.781247 q -0.760415,-0.343749 -1.635414,-0.604165 -0.864582,-0.260417 -1.83333,-0.260417 z m 11.958314,13.604145 h -2.14583 v -13.385395 h -4.624993 v -1.843747 h 11.385399 v 1.843747 h -4.614576 z"
         id="text20"
         style="font-weight:500;font-size:21.3333px;line-height:0;font-family:'open sans';-inkscape-font-specification:'open sans Medium';letter-spacing:0px;word-spacing:0px;white-space:pre;display:inline;stroke-width:3.77953;stroke-linecap:round;stroke-linejoin:round;paint-order:stroke fill markers"
         inkscape:label="Symbol SELECT"
         transform="matrix(0.54837354,0,0,0.54837354,93.195095,181.47501)"
         aria-label="SELECT" />
    </g>
    <g
       id="g8"
       inkscape:label="Style - Outline (Black)"
       style="display:none">
      <path
         style="color:#000000;fill:#000000;stroke-linecap:round;stroke-linejoin:round;-inkscape-stroke:none"
         d="m 98.333898,172.01625 h 23.173112 c 0.78203,0 1.4116,0.62957 1.4116,1.4116 v 12.7855 c 0,0.78203 -0.62957,1.4116 -1.4116,1.4116 H 98.333898 c -0.782024,0 -1.411596,-0.62957 -1.411596,-1.4116 v -12.7855 c 0,-0.78203 0.629572,-1.4116 1.411596,-1.4116 z"
         id="path6"
         inkscape:label="Shape" />
      <path
         style="color:#000000;display:inline;fill:#ffffff;stroke-linecap:round;stroke-linejoin:round;-inkscape-stroke:none"
         d="m 98.333984,171.31641 c -1.157714,0 -2.111328,0.95361 -2.111328,2.11132 v 12.78516 c 0,1.15772 0.953614,2.11133 2.111328,2.11133 h 23.173826 c 1.15772,0 2.11133,-0.95361 2.11133,-2.11133 v -12.78516 c 0,-1.15771 -0.95361,-2.11132 -2.11133,-2.11132 z m 0,1.40039 h 23.173826 c 0.40633,0 0.71094,0.3046 0.71094,0.71093 v 12.78516 c 0,0.40633 -0.30461,0.71289 -0.71094,0.71289 H 98.333984 c -0.406331,0 -0.710937,-0.30656 -0.710937,-0.71289 v -12.78516 c 0,-0.40633 0.304606,-0.71093 0.710937,-0.71093 z"
         id="path7"
         inkscape:label="Outline" />
      <path
         d="m 4.7395664,-32.016545 q 0,1.354164 -0.6770823,2.322913 -0.6666656,0.958332 -1.8854137,1.468748 -1.21874806,0.510415 -2.89582874,0.510415 -0.84374866,0 -1.61458076,-0.09375 -0.7604155,-0.08333 -1.4166645,-0.25 -0.6562489,-0.166666 -1.1874981,-0.416666 v -2.02083 q 0.864582,0.354166 1.9999969,0.666665 1.1354148,0.302083 2.34374626,0.302083 1.05208167,0 1.76041384,-0.281249 0.7187489,-0.291666 1.0833317,-0.812499 0.3645827,-0.520832 0.3645827,-1.249998 0,-0.729165 -0.3541661,-1.218748 -0.3541661,-0.499999 -1.1249982,-0.916665 -0.76041547,-0.416666 -1.99999684,-0.885416 -0.86458196,-0.312499 -1.57291416,-0.708332 -0.7083322,-0.406249 -1.2291648,-0.927082 -0.5104158,-0.520832 -0.7916654,-1.218748 -0.2812495,-0.708332 -0.2812495,-1.624997 0,-1.260415 0.6145823,-2.156247 0.6249991,-0.895832 1.7395806,-1.364581 1.1145816,-0.479166 2.58332928,-0.479166 1.20833142,0 2.24999642,0.239583 1.0520817,0.239583 1.9999969,0.656249 l -0.6770823,1.770831 q -0.8854153,-0.364583 -1.7812472,-0.593749 -0.8958319,-0.229167 -1.85416372,-0.229167 -0.88541527,0 -1.49999768,0.260417 -0.6041657,0.260416 -0.9270818,0.739582 -0.3124995,0.479166 -0.3124995,1.135415 0,0.739582 0.3333328,1.229164 0.3333328,0.489583 1.0520816,0.885416 0.71874891,0.395832 1.87499709,0.843748 1.30208131,0.499999 2.20832981,1.062499 0.9166653,0.562499 1.3958312,1.354164 0.4791659,0.791666 0.4791659,1.999998 z m 11.5624816,4.093743 H 7.7499783 v -15.229142 h 8.5520697 v 1.83333 H 9.8853916 v 4.531243 h 6.0312404 v 1.812497 H 9.8853916 v 5.208325 h 6.4166564 z m 3.322911,0 v -15.229142 h 2.135414 v 13.374979 h 6.614572 v 1.854163 z m 19.916635,0 h -8.55207 v -15.229142 h 8.55207 v 1.83333 h -6.416657 v 4.531243 h 6.031241 v 1.812497 h -6.031241 v 5.208325 h 6.416657 z m 9.822901,-13.604145 q -1.177082,0 -2.11458,0.416666 -0.927082,0.40625 -1.572914,1.197915 -0.645833,0.781249 -0.989582,1.885414 -0.34375,1.104165 -0.34375,2.489579 0,1.843747 0.541666,3.187495 0.552083,1.343748 1.656248,2.072914 1.104165,0.729165 2.781245,0.729165 0.999999,0 1.906247,-0.177083 0.916665,-0.1875 1.822914,-0.479166 v 1.833331 q -0.874999,0.333332 -1.812497,0.489582 -0.927082,0.166666 -2.17708,0.166666 -2.33333,0 -3.885411,-0.968748 -1.541664,-0.968748 -2.302079,-2.718746 -0.760416,-1.760414 -0.760416,-4.145826 0,-1.729164 0.479166,-3.156245 0.479166,-1.437498 1.406248,-2.479163 0.927082,-1.052082 2.27083,-1.614581 1.354164,-0.572916 3.114578,-0.572916 1.145832,0 2.229163,0.25 1.093749,0.239583 2.010414,0.677082 l -0.791666,1.781247 q -0.760415,-0.343749 -1.635414,-0.604165 -0.864582,-0.260417 -1.83333,-0.260417 z m 11.958314,13.604145 h -2.14583 v -13.385395 h -4.624993 v -1.843747 h 11.385399 v 1.843747 h -4.614576 z"
         id="path8"
         style="font-weight:500;font-size:21.3333px;line-height:0;font-family:'open sans';-inkscape-font-specification:'open sans Medium';letter-spacing:0px;word-spacing:0px;white-space:pre;display:inline;fill:#ffffff;stroke-width:3.77953;stroke-linecap:round;stroke-linejoin:round;paint-order:stroke fill markers"
         inkscape:label="Symbol SELECT"
         transform="matrix(0.54837354,0,0,0.54837354,93.195095,181.47501)"
         aria-label="SELECT" />
    </g>
    <g
       id="rect16"
       inkscape:label="Style - Transparent"
       style="display:inline">
      <path
         style="color:#000000;display:inline;fill:#808080;fill-opacity:0.501961;stroke-linecap:round;stroke-linejoin:round;-inkscape-stroke:none;paint-order:stroke fill markers"
         d="m 98.333984,171.31641 c -1.157713,0 -2.111328,0.95361 -2.111328,2.11132 v 12.78516 c 0,1.15772 0.953615,2.11133 2.111328,2.11133 h 23.173826 c 1.15772,0 2.11133,-0.95361 2.11133,-2.11133 v -12.78516 c 0,-1.15771 -0.95361,-2.11132 -2.11133,-2.11132 z m 0,1.40039 h 23.173826 c 0.40634,0 0.71094,0.30459 0.71094,0.71093 v 12.78516 c 0,0.40634 -0.3046,0.71289 -0.71094,0.71289 H 98.333984 c -0.406332,0 -0.710937,-0.30655 -0.710937,-0.71289 v -12.78516 c 0,-0.40634 0.304605,-0.71093 0.710937,-0.71093 z"
         id="path1"
         inkscape:label="Outline" />
      <path
         style="color:#000000;display:inline;fill:#ffffff;stroke-linecap:round;stroke-linejoin:round;-inkscape-stroke:none;paint-order:stroke fill markers"
         d="m 98.333898,172.01625 h 23.173112 c 0.78203,0 1.4116,0.62957 1.4116,1.4116 v 12.7855 c 0,0.78203 -0.62957,1.4116 -1.4116,1.4116 H 98.333898 c -0.782024,0 -1.411596,-0.62957 -1.411596,-1.4116 v -12.7855 c 0,-0.78203 0.629572,-1.4116 1.411596,-1.4116 z"
         id="path2"
         inkscape:label="Shape" />
      <path
         d="m 4.7395664,-32.016545 q 0,1.354164 -0.6770823,2.322913 -0.6666656,0.958332 -1.8854137,1.468748 -1.21874806,0.510415 -2.89582874,0.510415 -0.84374866,0 -1.61458076,-0.09375 -0.7604155,-0.08333 -1.4166645,-0.25 -0.6562489,-0.166666 -1.1874981,-0.416666 v -2.02083 q 0.864582,0.354166 1.9999969,0.666665 1.1354148,0.302083 2.34374626,0.302083 1.05208167,0 1.76041384,-0.281249 0.7187489,-0.291666 1.0833317,-0.812499 0.3645827,-0.520832 0.3645827,-1.249998 0,-0.729165 -0.3541661,-1.218748 -0.3541661,-0.499999 -1.1249982,-0.916665 -0.76041547,-0.416666 -1.99999684,-0.885416 -0.86458196,-0.312499 -1.57291416,-0.708332 -0.7083322,-0.406249 -1.2291648,-0.927082 -0.5104158,-0.520832 -0.7916654,-1.218748 -0.2812495,-0.708332 -0.2812495,-1.624997 0,-1.260415 0.6145823,-2.156247 0.6249991,-0.895832 1.7395806,-1.364581 1.1145816,-0.479166 2.58332928,-0.479166 1.20833142,0 2.24999642,0.239583 1.0520817,0.239583 1.9999969,0.656249 l -0.6770823,1.770831 q -0.8854153,-0.364583 -1.7812472,-0.593749 -0.8958319,-0.229167 -1.85416372,-0.229167 -0.88541527,0 -1.49999768,0.260417 -0.6041657,0.260416 -0.9270818,0.739582 -0.3124995,0.479166 -0.3124995,1.135415 0,0.739582 0.3333328,1.229164 0.3333328,0.489583 1.0520816,0.885416 0.71874891,0.395832 1.87499709,0.843748 1.30208131,0.499999 2.20832981,1.062499 0.9166653,0.562499 1.3958312,1.354164 0.4791659,0.791666 0.4791659,1.999998 z m 11.5624816,4.093743 H 7.7499783 v -15.229142 h 8.5520697 v 1.83333 H 9.8853916 v 4.531243 h 6.0312404 v 1.812497 H 9.8853916 v 5.208325 h 6.4166564 z m 3.322911,0 v -15.229142 h 2.135414 v 13.374979 h 6.614572 v 1.854163 z m 19.916635,0 h -8.55207 v -15.229142 h 8.55207 v 1.83333 h -6.416657 v 4.531243 h 6.031241 v 1.812497 h -6.031241 v 5.208325 h 6.416657 z m 9.822901,-13.604145 q -1.177082,0 -2.11458,0.416666 -0.927082,0.40625 -1.572914,1.197915 -0.645833,0.781249 -0.989582,1.885414 -0.34375,1.104165 -0.34375,2.489579 0,1.843747 0.541666,3.187495 0.552083,1.343748 1.656248,2.072914 1.104165,0.729165 2.781245,0.729165 0.999999,0 1.906247,-0.177083 0.916665,-0.1875 1.822914,-0.479166 v 1.833331 q -0.874999,0.333332 -1.812497,0.489582 -0.927082,0.166666 -2.17708,0.166666 -2.33333,0 -3.885411,-0.968748 -1.541664,-0.968748 -2.302079,-2.718746 -0.760416,-1.760414 -0.760416,-4.145826 0,-1.729164 0.479166,-3.156245 0.479166,-1.437498 1.406248,-2.479163 0.927082,-1.052082 2.27083,-1.614581 1.354164,-0.572916 3.114578,-0.572916 1.145832,0 2.229163,0.25 1.093749,0.239583 2.010414,0.677082 l -0.791666,1.781247 q -0.760415,-0.343749 -1.635414,-0.604165 -0.864582,-0.260417 -1.83333,-0.260417 z m 11.958314,13.604145 h -2.14583 v -13.385395 h -4.624993 v -1.843747 h 11.385399 v 1.843747 h -4.614576 z"
         id="path3"
         style="font-weight:500;font-size:21.3333px;line-height:0;font-family:'open sans';-inkscape-font-specification:'open sans Medium';letter-spacing:0px;word-spacing:0px;white-space:pre;fill:#808080;stroke-width:3.77953;stroke-linecap:round;stroke-linejoin:round;paint-order:stroke fill markers"
         inkscape:label="Symbol SELECT"
         transform="matrix(0.54837354,0,0,0.54837354,93.195095,181.47501)"
         aria-label="SELECT" />
    </g>
  </g>
</svg>
