<?xml version="1.0" encoding="UTF-8" standalone="no"?>
<!-- Created with Inkscape (http://www.inkscape.org/) -->

<svg
   width="42.605125mm"
   height="57.027477mm"
   viewBox="0 0 42.605127 57.027476"
   version="1.1"
   id="svg1"
   inkscape:version="1.3.2 (091e20e, 2023-11-25, custom)"
   sodipodi:docname="ps4-Option.svg"
   xmlns:inkscape="http://www.inkscape.org/namespaces/inkscape"
   xmlns:sodipodi="http://sodipodi.sourceforge.net/DTD/sodipodi-0.dtd"
   xmlns="http://www.w3.org/2000/svg"
   xmlns:svg="http://www.w3.org/2000/svg">
  <sodipodi:namedview
     id="namedview1"
     pagecolor="#33ff4e"
     bordercolor="#000000"
     borderopacity="0.25"
     inkscape:showpageshadow="2"
     inkscape:pageopacity="0.0"
     inkscape:pagecheckerboard="0"
     inkscape:deskcolor="#d1d1d1"
     inkscape:document-units="mm"
     inkscape:zoom="4.0515993"
     inkscape:cx="106.50115"
     inkscape:cy="132.66366"
     inkscape:window-width="2560"
     inkscape:window-height="1351"
     inkscape:window-x="-9"
     inkscape:window-y="-9"
     inkscape:window-maximized="1"
     inkscape:current-layer="svg1" />
  <defs
     id="defs1" />
  <g
     inkscape:label="Button OPTION"
     id="layer1"
     transform="translate(-73.289583,-93.662493)">
    <g
       id="rect15"
       inkscape:label="Style - Outline (White)"
       style="display:none">
      <path
         style="color:#000000;fill:#ffffff;stroke-linecap:round;stroke-linejoin:round;-inkscape-stroke:none"
         d="m 94.592055,107.46002 h 2e-6 c 5.357403,0 9.670403,4.13081 9.670403,9.2619 v 23.30616 c 0,5.13109 -4.313,9.26189 -9.670403,9.26189 h -2e-6 c -5.357402,0 -9.670401,-4.1308 -9.670401,-9.26189 v -23.30616 c 0,-5.13109 4.312999,-9.2619 9.670401,-9.2619 z"
         id="path3"
         inkscape:label="Shape" />
      <path
         style="color:#000000;display:inline;fill:#000000;stroke-linecap:round;stroke-linejoin:round;-inkscape-stroke:none"
         d="m 94.591797,106.06055 c -6.07704,0 -11.070313,4.7465 -11.070313,10.66211 v 23.30468 c 0,5.91561 4.993273,10.66211 11.070313,10.66211 6.077043,0 11.070313,-4.7465 11.070313,-10.66211 v -23.30468 c 0,-5.91561 -4.99327,-10.66211 -11.070313,-10.66211 z m 0,2.79883 c 4.637755,0 8.271483,3.51672 8.271483,7.86328 v 23.30468 c 0,4.34656 -3.633728,7.86328 -8.271483,7.86328 -4.637755,0 -8.269531,-3.51672 -8.269531,-7.86328 v -23.30468 c 0,-4.34656 3.631776,-7.86328 8.269531,-7.86328 z"
         id="path4"
         inkscape:label="Outline" />
      <path
         d="m 81.042724,97.965343 q 0,0.966997 -0.246041,1.762337 -0.246041,0.78962 -0.7324,1.36181 -0.480638,0.56646 -1.207316,0.87544 -0.720956,0.30898 -1.687953,0.30898 -0.984162,0 -1.716562,-0.30898 -0.726678,-0.30898 -1.207316,-0.88117 -0.480637,-0.57218 -0.720956,-1.367523 -0.234597,-0.795341 -0.234597,-1.762338 0,-1.287422 0.423419,-2.254419 0.423418,-0.966997 1.287422,-1.499131 0.869725,-0.537856 2.185756,-0.537856 1.270256,0 2.128537,0.532134 0.858282,0.532135 1.293144,1.499131 0.434863,0.961275 0.434863,2.271585 z m -6.522938,0 q 0,1.018494 0.280372,1.762337 0.286094,0.73812 0.869725,1.14438 0.589353,0.40053 1.499131,0.40053 0.921222,0 1.504853,-0.40053 0.583632,-0.40626 0.858282,-1.14438 0.27465,-0.743843 0.27465,-1.762337 0,-1.544906 -0.629407,-2.414631 -0.629406,-0.875447 -1.991212,-0.875447 -0.9155,0 -1.504853,0.400531 -0.589353,0.394809 -0.875447,1.132931 -0.286094,0.7324 -0.286094,1.756616 z m 10.654131,-4.171247 q 1.619291,0 2.363135,0.646572 0.749565,0.646572 0.749565,1.836722 0,0.537856 -0.171656,1.024215 -0.171656,0.480638 -0.560744,0.85256 -0.383365,0.3662 -1.012771,0.583631 -0.629407,0.211709 -1.544907,0.211709 h -0.955553 v 3.209975 h -1.172984 v -8.365384 z m -0.09155,0.984162 h -1.041381 v 3.181363 h 0.829672 q 0.726678,0 1.218759,-0.160213 0.492082,-0.165934 0.743844,-0.526412 0.251763,-0.360478 0.251763,-0.949831 0,-0.778175 -0.48636,-1.161541 -0.486359,-0.383366 -1.516297,-0.383366 z m 7.650148,7.381222 h -1.178707 v -7.352612 h -2.540512 v -1.012772 h 6.254009 v 1.012772 h -2.53479 z m 3.805045,0 v -8.365384 h 1.172985 v 8.365384 z m 10.76857,-4.194137 q 0,0.966997 -0.24604,1.762337 -0.24604,0.78962 -0.7324,1.36181 -0.48064,0.56646 -1.20732,0.87544 -0.72095,0.30898 -1.68795,0.30898 -0.98416,0 -1.71656,-0.30898 -0.72668,-0.30898 -1.20732,-0.88117 -0.48063,-0.57218 -0.720953,-1.367523 -0.234597,-0.795341 -0.234597,-1.762338 0,-1.287422 0.423418,-2.254419 0.423422,-0.966997 1.287422,-1.499131 0.86973,-0.537856 2.18576,-0.537856 1.27025,0 2.12853,0.532134 0.85829,0.532135 1.29315,1.499131 0.43486,0.961275 0.43486,2.271585 z m -6.52294,0 q 0,1.018494 0.28037,1.762337 0.2861,0.73812 0.86973,1.14438 0.58935,0.40053 1.49913,0.40053 0.92122,0 1.50485,-0.40053 0.58364,-0.40626 0.85829,-1.14438 0.27465,-0.743843 0.27465,-1.762337 0,-1.544906 -0.62941,-2.414631 -0.62941,-0.875447 -1.99121,-0.875447 -0.9155,0 -1.50486,0.400531 -0.58935,0.394809 -0.87544,1.132931 -0.2861,0.7324 -0.2861,1.756616 z m 15.11148,4.194137 h -1.40759 l -4.33145,-6.854809 h -0.0458 q 0.0172,0.308981 0.0401,0.680903 0.0229,0.3662 0.0343,0.772453 0.0172,0.400531 0.0229,0.812506 v 4.588947 h -1.07571 v -8.365384 h 1.39614 l 4.31429,6.820474 h 0.04 q -0.0114,-0.25176 -0.0286,-0.623683 -0.0172,-0.371922 -0.0343,-0.783897 -0.0114,-0.417697 -0.0114,-0.789619 v -4.623275 h 1.08716 z"
         id="text14"
         style="font-weight:500;font-size:11.7184px;line-height:0;font-family:'open sans';-inkscape-font-specification:'open sans Medium';letter-spacing:0px;word-spacing:0px;display:inline;fill:#000000;stroke-width:0.330036;stroke-linecap:round;stroke-linejoin:round;paint-order:stroke fill markers"
         aria-label="OPTION"
         inkscape:label="Symbol Option" />
    </g>
    <g
       id="g8"
       inkscape:label="Style - Outline (Black)"
       style="display:none">
      <path
         style="color:#000000;fill:#000000;stroke-linecap:round;stroke-linejoin:round;-inkscape-stroke:none"
         d="m 94.592055,107.46002 h 2e-6 c 5.357403,0 9.670403,4.13081 9.670403,9.2619 v 23.30616 c 0,5.13109 -4.313,9.26189 -9.670403,9.26189 h -2e-6 c -5.357402,0 -9.670401,-4.1308 -9.670401,-9.26189 v -23.30616 c 0,-5.13109 4.312999,-9.2619 9.670401,-9.2619 z"
         id="path6"
         inkscape:label="Shape" />
      <path
         style="color:#000000;display:inline;fill:#ffffff;stroke-linecap:round;stroke-linejoin:round;-inkscape-stroke:none"
         d="m 94.591797,106.06055 c -6.07704,0 -11.070313,4.7465 -11.070313,10.66211 v 23.30468 c 0,5.91561 4.993273,10.66211 11.070313,10.66211 6.077043,0 11.070313,-4.7465 11.070313,-10.66211 v -23.30468 c 0,-5.91561 -4.99327,-10.66211 -11.070313,-10.66211 z m 0,2.79883 c 4.637755,0 8.271483,3.51672 8.271483,7.86328 v 23.30468 c 0,4.34656 -3.633728,7.86328 -8.271483,7.86328 -4.637755,0 -8.269531,-3.51672 -8.269531,-7.86328 v -23.30468 c 0,-4.34656 3.631776,-7.86328 8.269531,-7.86328 z"
         id="path7"
         inkscape:label="Outline" />
      <path
         d="m 81.042724,97.965343 q 0,0.966997 -0.246041,1.762337 -0.246041,0.78962 -0.7324,1.36181 -0.480638,0.56646 -1.207316,0.87544 -0.720956,0.30898 -1.687953,0.30898 -0.984162,0 -1.716562,-0.30898 -0.726678,-0.30898 -1.207316,-0.88117 -0.480637,-0.57218 -0.720956,-1.367523 -0.234597,-0.795341 -0.234597,-1.762338 0,-1.287422 0.423419,-2.254419 0.423418,-0.966997 1.287422,-1.499131 0.869725,-0.537856 2.185756,-0.537856 1.270256,0 2.128537,0.532134 0.858282,0.532135 1.293144,1.499131 0.434863,0.961275 0.434863,2.271585 z m -6.522938,0 q 0,1.018494 0.280372,1.762337 0.286094,0.73812 0.869725,1.14438 0.589353,0.40053 1.499131,0.40053 0.921222,0 1.504853,-0.40053 0.583632,-0.40626 0.858282,-1.14438 0.27465,-0.743843 0.27465,-1.762337 0,-1.544906 -0.629407,-2.414631 -0.629406,-0.875447 -1.991212,-0.875447 -0.9155,0 -1.504853,0.400531 -0.589353,0.394809 -0.875447,1.132931 -0.286094,0.7324 -0.286094,1.756616 z m 10.654131,-4.171247 q 1.619291,0 2.363135,0.646572 0.749565,0.646572 0.749565,1.836722 0,0.537856 -0.171656,1.024215 -0.171656,0.480638 -0.560744,0.85256 -0.383365,0.3662 -1.012771,0.583631 -0.629407,0.211709 -1.544907,0.211709 h -0.955553 v 3.209975 h -1.172984 v -8.365384 z m -0.09155,0.984162 h -1.041381 v 3.181363 h 0.829672 q 0.726678,0 1.218759,-0.160213 0.492082,-0.165934 0.743844,-0.526412 0.251763,-0.360478 0.251763,-0.949831 0,-0.778175 -0.48636,-1.161541 -0.486359,-0.383366 -1.516297,-0.383366 z m 7.650148,7.381222 h -1.178707 v -7.352612 h -2.540512 v -1.012772 h 6.254009 v 1.012772 h -2.53479 z m 3.805045,0 v -8.365384 h 1.172985 v 8.365384 z m 10.76857,-4.194137 q 0,0.966997 -0.24604,1.762337 -0.24604,0.78962 -0.7324,1.36181 -0.48064,0.56646 -1.20732,0.87544 -0.72095,0.30898 -1.68795,0.30898 -0.98416,0 -1.71656,-0.30898 -0.72668,-0.30898 -1.20732,-0.88117 -0.48063,-0.57218 -0.720953,-1.367523 -0.234597,-0.795341 -0.234597,-1.762338 0,-1.287422 0.423418,-2.254419 0.423422,-0.966997 1.287422,-1.499131 0.86973,-0.537856 2.18576,-0.537856 1.27025,0 2.12853,0.532134 0.85829,0.532135 1.29315,1.499131 0.43486,0.961275 0.43486,2.271585 z m -6.52294,0 q 0,1.018494 0.28037,1.762337 0.2861,0.73812 0.86973,1.14438 0.58935,0.40053 1.49913,0.40053 0.92122,0 1.50485,-0.40053 0.58364,-0.40626 0.85829,-1.14438 0.27465,-0.743843 0.27465,-1.762337 0,-1.544906 -0.62941,-2.414631 -0.62941,-0.875447 -1.99121,-0.875447 -0.9155,0 -1.50486,0.400531 -0.58935,0.394809 -0.87544,1.132931 -0.2861,0.7324 -0.2861,1.756616 z m 15.11148,4.194137 h -1.40759 l -4.33145,-6.854809 h -0.0458 q 0.0172,0.308981 0.0401,0.680903 0.0229,0.3662 0.0343,0.772453 0.0172,0.400531 0.0229,0.812506 v 4.588947 h -1.07571 v -8.365384 h 1.39614 l 4.31429,6.820474 h 0.04 q -0.0114,-0.25176 -0.0286,-0.623683 -0.0172,-0.371922 -0.0343,-0.783897 -0.0114,-0.417697 -0.0114,-0.789619 v -4.623275 h 1.08716 z"
         id="path8"
         style="font-weight:500;font-size:11.7184px;line-height:0;font-family:'open sans';-inkscape-font-specification:'open sans Medium';letter-spacing:0px;word-spacing:0px;display:inline;fill:#ffffff;stroke-width:0.330036;stroke-linecap:round;stroke-linejoin:round;paint-order:stroke fill markers"
         aria-label="OPTION"
         inkscape:label="Symbol Option" />
    </g>
    <g
       id="rect1"
       inkscape:label="Style - Transparent"
       style="display:inline">
      <path
         style="color:#000000;fill:#808080;fill-opacity:0.501961;stroke-linecap:round;stroke-linejoin:round;-inkscape-stroke:none;paint-order:stroke fill markers"
         d="m 94.591797,106.06055 c -6.07704,0 -11.070313,4.7465 -11.070313,10.66211 v 23.30468 c 0,5.91561 4.993273,10.66211 11.070313,10.66211 6.077043,0 11.070313,-4.7465 11.070313,-10.66211 v -23.30468 c 0,-5.91561 -4.99327,-10.66211 -11.070313,-10.66211 z m 0,2.79883 c 4.637755,0 8.271483,3.51672 8.271483,7.86328 v 23.30468 c 0,4.34656 -3.633728,7.86328 -8.271483,7.86328 -4.637755,0 -8.269531,-3.51672 -8.269531,-7.86328 v -23.30468 c 0,-4.34656 3.631776,-7.86328 8.269531,-7.86328 z"
         id="path1"
         inkscape:label="Outline" />
      <path
         style="color:#000000;display:inline;fill:#ffffff;stroke-linecap:round;stroke-linejoin:round;-inkscape-stroke:none;paint-order:stroke fill markers"
         d="m 94.592055,107.46002 h 2e-6 c 5.357403,0 9.670403,4.13081 9.670403,9.2619 v 23.30616 c 0,5.13109 -4.313,9.26189 -9.670403,9.26189 h -2e-6 c -5.357402,0 -9.670401,-4.1308 -9.670401,-9.26189 v -23.30616 c 0,-5.13109 4.312999,-9.2619 9.670401,-9.2619 z"
         id="path2"
         inkscape:label="Shape" />
      <path
         d="m 81.042724,97.965343 q 0,0.966997 -0.246041,1.762337 -0.246041,0.78962 -0.7324,1.36181 -0.480638,0.56646 -1.207316,0.87544 -0.720956,0.30898 -1.687953,0.30898 -0.984162,0 -1.716562,-0.30898 -0.726678,-0.30898 -1.207316,-0.88117 -0.480637,-0.57218 -0.720956,-1.367523 -0.234597,-0.795341 -0.234597,-1.762338 0,-1.287422 0.423419,-2.254419 0.423418,-0.966997 1.287422,-1.499131 0.869725,-0.537856 2.185756,-0.537856 1.270256,0 2.128537,0.532134 0.858282,0.532135 1.293144,1.499131 0.434863,0.961275 0.434863,2.271585 z m -6.522938,0 q 0,1.018494 0.280372,1.762337 0.286094,0.73812 0.869725,1.14438 0.589353,0.40053 1.499131,0.40053 0.921222,0 1.504853,-0.40053 0.583632,-0.40626 0.858282,-1.14438 0.27465,-0.743843 0.27465,-1.762337 0,-1.544906 -0.629407,-2.414631 -0.629406,-0.875447 -1.991212,-0.875447 -0.9155,0 -1.504853,0.400531 -0.589353,0.394809 -0.875447,1.132931 -0.286094,0.7324 -0.286094,1.756616 z m 10.654131,-4.171247 q 1.619291,0 2.363135,0.646572 0.749565,0.646572 0.749565,1.836722 0,0.537856 -0.171656,1.024215 -0.171656,0.480638 -0.560744,0.85256 -0.383365,0.3662 -1.012771,0.583631 -0.629407,0.211709 -1.544907,0.211709 h -0.955553 v 3.209975 h -1.172984 v -8.365384 z m -0.09155,0.984162 h -1.041381 v 3.181363 h 0.829672 q 0.726678,0 1.218759,-0.160213 0.492082,-0.165934 0.743844,-0.526412 0.251763,-0.360478 0.251763,-0.949831 0,-0.778175 -0.48636,-1.161541 -0.486359,-0.383366 -1.516297,-0.383366 z m 7.650148,7.381222 h -1.178707 v -7.352612 h -2.540512 v -1.012772 h 6.254009 v 1.012772 h -2.53479 z m 3.805045,0 v -8.365384 h 1.172985 v 8.365384 z m 10.76857,-4.194137 q 0,0.966997 -0.24604,1.762337 -0.24604,0.78962 -0.7324,1.36181 -0.48064,0.56646 -1.20732,0.87544 -0.72095,0.30898 -1.68795,0.30898 -0.98416,0 -1.71656,-0.30898 -0.72668,-0.30898 -1.20732,-0.88117 -0.48063,-0.57218 -0.720953,-1.367523 -0.234597,-0.795341 -0.234597,-1.762338 0,-1.287422 0.423418,-2.254419 0.423422,-0.966997 1.287422,-1.499131 0.86973,-0.537856 2.18576,-0.537856 1.27025,0 2.12853,0.532134 0.85829,0.532135 1.29315,1.499131 0.43486,0.961275 0.43486,2.271585 z m -6.52294,0 q 0,1.018494 0.28037,1.762337 0.2861,0.73812 0.86973,1.14438 0.58935,0.40053 1.49913,0.40053 0.92122,0 1.50485,-0.40053 0.58364,-0.40626 0.85829,-1.14438 0.27465,-0.743843 0.27465,-1.762337 0,-1.544906 -0.62941,-2.414631 -0.62941,-0.875447 -1.99121,-0.875447 -0.9155,0 -1.50486,0.400531 -0.58935,0.394809 -0.87544,1.132931 -0.2861,0.7324 -0.2861,1.756616 z m 15.11148,4.194137 h -1.40759 l -4.33145,-6.854809 h -0.0458 q 0.0172,0.308981 0.0401,0.680903 0.0229,0.3662 0.0343,0.772453 0.0172,0.400531 0.0229,0.812506 v 4.588947 h -1.07571 v -8.365384 h 1.39614 l 4.31429,6.820474 h 0.04 q -0.0114,-0.25176 -0.0286,-0.623683 -0.0172,-0.371922 -0.0343,-0.783897 -0.0114,-0.417697 -0.0114,-0.789619 v -4.623275 h 1.08716 z"
         id="path5"
         style="font-weight:500;font-size:11.7184px;line-height:0;font-family:'open sans';-inkscape-font-specification:'open sans Medium';letter-spacing:0px;word-spacing:0px;display:inline;fill:#808080;stroke-width:0.330036;stroke-linecap:round;stroke-linejoin:round;paint-order:stroke fill markers"
         aria-label="OPTION"
         inkscape:label="Symbol Option" />
    </g>
  </g>
</svg>
