<?xml version="1.0" encoding="UTF-8" standalone="no"?>
<!-- Created with Inkscape (http://www.inkscape.org/) -->

<svg
   width="35.33046mm"
   height="57.026951mm"
   viewBox="0 0 35.330461 57.02695"
   version="1.1"
   id="svg1"
   inkscape:version="1.3.2 (091e20e, 2023-11-25, custom)"
   sodipodi:docname="ps4-Share.svg"
   xmlns:inkscape="http://www.inkscape.org/namespaces/inkscape"
   xmlns:sodipodi="http://sodipodi.sourceforge.net/DTD/sodipodi-0.dtd"
   xmlns="http://www.w3.org/2000/svg"
   xmlns:svg="http://www.w3.org/2000/svg">
  <sodipodi:namedview
     id="namedview1"
     pagecolor="#33ff4e"
     bordercolor="#000000"
     borderopacity="0.25"
     inkscape:showpageshadow="2"
     inkscape:pageopacity="0.0"
     inkscape:pagecheckerboard="0"
     inkscape:deskcolor="#d1d1d1"
     inkscape:document-units="mm"
     inkscape:zoom="4.0515993"
     inkscape:cx="86.015416"
     inkscape:cy="127.48052"
     inkscape:window-width="2560"
     inkscape:window-height="1351"
     inkscape:window-x="-9"
     inkscape:window-y="-9"
     inkscape:window-maximized="1"
     inkscape:current-layer="layer1" />
  <defs
     id="defs1" />
  <g
     inkscape:label="Button SHARE"
     id="layer1"
     transform="translate(-76.926892,-93.662501)">
    <g
       id="rect15"
       inkscape:label="Style - Outline (White)"
       style="display:none">
      <path
         style="color:#000000;fill:#ffffff;stroke-linecap:round;stroke-linejoin:round;-inkscape-stroke:none"
         d="m 94.592055,107.46002 h 2e-6 c 5.357403,0 9.670403,4.13081 9.670403,9.2619 v 23.30616 c 0,5.13109 -4.313,9.26189 -9.670403,9.26189 h -2e-6 c -5.357402,0 -9.670401,-4.1308 -9.670401,-9.26189 v -23.30616 c 0,-5.13109 4.312999,-9.2619 9.670401,-9.2619 z"
         id="path3"
         inkscape:label="Shape" />
      <path
         style="color:#000000;display:inline;fill:#000000;stroke-linecap:round;stroke-linejoin:round;-inkscape-stroke:none"
         d="m 94.591797,106.06055 c -6.07704,0 -11.070313,4.7465 -11.070313,10.66211 v 23.30468 c 0,5.91561 4.993273,10.66211 11.070313,10.66211 6.077043,0 11.070313,-4.7465 11.070313,-10.66211 v -23.30468 c 0,-5.91561 -4.99327,-10.66211 -11.070313,-10.66211 z m 0,2.79883 c 4.637755,0 8.271483,3.51672 8.271483,7.86328 v 23.30468 c 0,4.34656 -3.633728,7.86328 -8.271483,7.86328 -4.637755,0 -8.269531,-3.51672 -8.269531,-7.86328 v -23.30468 c 0,-4.34656 3.631776,-7.86328 8.269531,-7.86328 z"
         id="path4"
         inkscape:label="Outline" />
      <path
         d="m 82.243058,99.899983 q 0,0.743917 -0.37196,1.276107 -0.366238,0.52647 -1.035766,0.80687 -0.669528,0.2804 -1.590844,0.2804 -0.463519,0 -0.886981,-0.0515 -0.41774,-0.0458 -0.778255,-0.13734 -0.360515,-0.0916 -0.65236,-0.2289 v -1.11016 q 0.474964,0.19457 1.098712,0.36624 0.623748,0.16595 1.287554,0.16595 0.577968,0 0.967096,-0.1545 0.39485,-0.16023 0.595136,-0.44636 0.200286,-0.28612 0.200286,-0.686692 0,-0.400572 -0.194564,-0.669528 -0.194564,-0.274678 -0.618026,-0.503577 -0.417739,-0.228898 -1.098712,-0.486409 -0.474964,-0.171674 -0.864092,-0.389127 -0.389127,-0.223176 -0.67525,-0.509299 -0.280401,-0.286123 -0.434907,-0.669528 -0.154507,-0.389127 -0.154507,-0.892704 0,-0.692418 0.337626,-1.184549 0.343347,-0.492132 0.955651,-0.749643 0.612303,-0.263233 1.41917,-0.263233 0.663805,0 1.236051,0.131617 0.577969,0.131616 1.098713,0.360515 l -0.37196,0.972818 q -0.486409,-0.200286 -0.978541,-0.32618 -0.492132,-0.125894 -1.018598,-0.125894 -0.486409,0 -0.824034,0.143061 -0.331903,0.143062 -0.509299,0.406295 -0.171674,0.263233 -0.171674,0.623748 0,0.406295 0.183119,0.675251 0.183118,0.268955 0.577968,0.486409 0.39485,0.217453 1.030043,0.463519 0.715308,0.274678 1.213162,0.583691 0.503576,0.309013 0.76681,0.74392 0.263233,0.434907 0.263233,1.098712 z m 8.125894,2.248927 h -1.173104 v -3.862661 h -4.125895 v 3.862661 h -1.173104 v -8.366237 h 1.173104 v 3.490701 h 4.125895 v -3.490701 h 1.173104 z m 7.467811,0 -0.927038,-2.48927 h -3.27897 l -0.915594,2.48927 h -1.218884 l 3.193133,-8.400572 h 1.201717 l 3.175965,8.400572 z m -1.253218,-3.507868 -0.881259,-2.466381 q -0.04006,-0.125894 -0.125895,-0.377682 -0.08011,-0.251788 -0.165951,-0.520744 -0.08011,-0.268956 -0.131617,-0.446352 -0.05722,0.234621 -0.131616,0.497854 -0.07439,0.257511 -0.148784,0.486409 -0.06867,0.223176 -0.114449,0.360515 l -0.892704,2.466381 z m 5.922745,-4.858369 q 1.05866,0 1.74535,0.263233 0.69242,0.257511 1.03004,0.7897 0.33763,0.526466 0.33763,1.339055 0,0.640916 -0.23462,1.081546 -0.23462,0.440629 -0.61803,0.72103 -0.37768,0.2804 -0.81259,0.440629 l 2.34049,3.731044 h -1.34478 l -2.03719,-3.422031 h -1.53935 v 3.422031 h -1.1731 v -8.366237 z m -0.0744,0.995708 h -1.05866 v 2.969957 h 1.13877 q 0.98999,0 1.44779,-0.383405 0.45779,-0.389127 0.45779,-1.144492 0,-0.783977 -0.48641,-1.110157 -0.48641,-0.331903 -1.49928,-0.331903 z m 9.82546,7.370529 h -4.69814 v -8.366237 h 4.69814 v 1.007153 h -3.52503 v 2.48927 h 3.3133 v 0.995709 h -3.3133 v 2.861225 h 3.52503 z"
         id="text15"
         style="font-weight:500;font-size:11.7196px;line-height:0;font-family:'open sans';-inkscape-font-specification:'open sans Medium';letter-spacing:0px;word-spacing:0px;display:inline;fill:#000000;stroke-width:0.33;stroke-linecap:round;stroke-linejoin:round;paint-order:stroke fill markers"
         aria-label="SHARE"
         inkscape:label="Symbol Share" />
    </g>
    <g
       id="g8"
       inkscape:label="Style - Outline (Black)"
       style="display:none">
      <path
         style="color:#000000;fill:#000000;stroke-linecap:round;stroke-linejoin:round;-inkscape-stroke:none"
         d="m 94.592055,107.46002 h 2e-6 c 5.357403,0 9.670403,4.13081 9.670403,9.2619 v 23.30616 c 0,5.13109 -4.313,9.26189 -9.670403,9.26189 h -2e-6 c -5.357402,0 -9.670401,-4.1308 -9.670401,-9.26189 v -23.30616 c 0,-5.13109 4.312999,-9.2619 9.670401,-9.2619 z"
         id="path6"
         inkscape:label="Shape" />
      <path
         style="color:#000000;display:inline;fill:#ffffff;stroke-linecap:round;stroke-linejoin:round;-inkscape-stroke:none"
         d="m 94.591797,106.06055 c -6.07704,0 -11.070313,4.7465 -11.070313,10.66211 v 23.30468 c 0,5.91561 4.993273,10.66211 11.070313,10.66211 6.077043,0 11.070313,-4.7465 11.070313,-10.66211 v -23.30468 c 0,-5.91561 -4.99327,-10.66211 -11.070313,-10.66211 z m 0,2.79883 c 4.637755,0 8.271483,3.51672 8.271483,7.86328 v 23.30468 c 0,4.34656 -3.633728,7.86328 -8.271483,7.86328 -4.637755,0 -8.269531,-3.51672 -8.269531,-7.86328 v -23.30468 c 0,-4.34656 3.631776,-7.86328 8.269531,-7.86328 z"
         id="path7"
         inkscape:label="Outline" />
      <path
         d="m 82.243058,99.899983 q 0,0.743917 -0.37196,1.276107 -0.366238,0.52647 -1.035766,0.80687 -0.669528,0.2804 -1.590844,0.2804 -0.463519,0 -0.886981,-0.0515 -0.41774,-0.0458 -0.778255,-0.13734 -0.360515,-0.0916 -0.65236,-0.2289 v -1.11016 q 0.474964,0.19457 1.098712,0.36624 0.623748,0.16595 1.287554,0.16595 0.577968,0 0.967096,-0.1545 0.39485,-0.16023 0.595136,-0.44636 0.200286,-0.28612 0.200286,-0.686692 0,-0.400572 -0.194564,-0.669528 -0.194564,-0.274678 -0.618026,-0.503577 -0.417739,-0.228898 -1.098712,-0.486409 -0.474964,-0.171674 -0.864092,-0.389127 -0.389127,-0.223176 -0.67525,-0.509299 -0.280401,-0.286123 -0.434907,-0.669528 -0.154507,-0.389127 -0.154507,-0.892704 0,-0.692418 0.337626,-1.184549 0.343347,-0.492132 0.955651,-0.749643 0.612303,-0.263233 1.41917,-0.263233 0.663805,0 1.236051,0.131617 0.577969,0.131616 1.098713,0.360515 l -0.37196,0.972818 q -0.486409,-0.200286 -0.978541,-0.32618 -0.492132,-0.125894 -1.018598,-0.125894 -0.486409,0 -0.824034,0.143061 -0.331903,0.143062 -0.509299,0.406295 -0.171674,0.263233 -0.171674,0.623748 0,0.406295 0.183119,0.675251 0.183118,0.268955 0.577968,0.486409 0.39485,0.217453 1.030043,0.463519 0.715308,0.274678 1.213162,0.583691 0.503576,0.309013 0.76681,0.74392 0.263233,0.434907 0.263233,1.098712 z m 8.125894,2.248927 h -1.173104 v -3.862661 h -4.125895 v 3.862661 h -1.173104 v -8.366237 h 1.173104 v 3.490701 h 4.125895 v -3.490701 h 1.173104 z m 7.467811,0 -0.927038,-2.48927 h -3.27897 l -0.915594,2.48927 h -1.218884 l 3.193133,-8.400572 h 1.201717 l 3.175965,8.400572 z m -1.253218,-3.507868 -0.881259,-2.466381 q -0.04006,-0.125894 -0.125895,-0.377682 -0.08011,-0.251788 -0.165951,-0.520744 -0.08011,-0.268956 -0.131617,-0.446352 -0.05722,0.234621 -0.131616,0.497854 -0.07439,0.257511 -0.148784,0.486409 -0.06867,0.223176 -0.114449,0.360515 l -0.892704,2.466381 z m 5.922745,-4.858369 q 1.05866,0 1.74535,0.263233 0.69242,0.257511 1.03004,0.7897 0.33763,0.526466 0.33763,1.339055 0,0.640916 -0.23462,1.081546 -0.23462,0.440629 -0.61803,0.72103 -0.37768,0.2804 -0.81259,0.440629 l 2.34049,3.731044 h -1.34478 l -2.03719,-3.422031 h -1.53935 v 3.422031 h -1.1731 v -8.366237 z m -0.0744,0.995708 h -1.05866 v 2.969957 h 1.13877 q 0.98999,0 1.44779,-0.383405 0.45779,-0.389127 0.45779,-1.144492 0,-0.783977 -0.48641,-1.110157 -0.48641,-0.331903 -1.49928,-0.331903 z m 9.82546,7.370529 h -4.69814 v -8.366237 h 4.69814 v 1.007153 h -3.52503 v 2.48927 h 3.3133 v 0.995709 h -3.3133 v 2.861225 h 3.52503 z"
         id="path9"
         style="font-weight:500;font-size:11.7196px;line-height:0;font-family:'open sans';-inkscape-font-specification:'open sans Medium';letter-spacing:0px;word-spacing:0px;display:inline;fill:#ffffff;stroke-width:0.33;stroke-linecap:round;stroke-linejoin:round;paint-order:stroke fill markers"
         aria-label="SHARE"
         inkscape:label="Symbol Share" />
    </g>
    <g
       id="rect1"
       inkscape:label="Style - Transparent"
       style="display:inline">
      <path
         style="color:#000000;fill:#808080;fill-opacity:0.501961;stroke-linecap:round;stroke-linejoin:round;-inkscape-stroke:none;paint-order:stroke fill markers"
         d="m 94.591797,106.06055 c -6.07704,0 -11.070313,4.7465 -11.070313,10.66211 v 23.30468 c 0,5.91561 4.993273,10.66211 11.070313,10.66211 6.077043,0 11.070313,-4.7465 11.070313,-10.66211 v -23.30468 c 0,-5.91561 -4.99327,-10.66211 -11.070313,-10.66211 z m 0,2.79883 c 4.637755,0 8.271483,3.51672 8.271483,7.86328 v 23.30468 c 0,4.34656 -3.633728,7.86328 -8.271483,7.86328 -4.637755,0 -8.269531,-3.51672 -8.269531,-7.86328 v -23.30468 c 0,-4.34656 3.631776,-7.86328 8.269531,-7.86328 z"
         id="path1"
         inkscape:label="Outline" />
      <path
         style="color:#000000;display:inline;fill:#ffffff;stroke-linecap:round;stroke-linejoin:round;-inkscape-stroke:none;paint-order:stroke fill markers"
         d="m 94.592055,107.46002 h 2e-6 c 5.357403,0 9.670403,4.13081 9.670403,9.2619 v 23.30616 c 0,5.13109 -4.313,9.26189 -9.670403,9.26189 h -2e-6 c -5.357402,0 -9.670401,-4.1308 -9.670401,-9.26189 v -23.30616 c 0,-5.13109 4.312999,-9.2619 9.670401,-9.2619 z"
         id="path2"
         inkscape:label="Shape" />
      <path
         d="m 82.243058,99.899983 q 0,0.743917 -0.37196,1.276107 -0.366238,0.52647 -1.035766,0.80687 -0.669528,0.2804 -1.590844,0.2804 -0.463519,0 -0.886981,-0.0515 -0.41774,-0.0458 -0.778255,-0.13734 -0.360515,-0.0916 -0.65236,-0.2289 v -1.11016 q 0.474964,0.19457 1.098712,0.36624 0.623748,0.16595 1.287554,0.16595 0.577968,0 0.967096,-0.1545 0.39485,-0.16023 0.595136,-0.44636 0.200286,-0.28612 0.200286,-0.686692 0,-0.400572 -0.194564,-0.669528 -0.194564,-0.274678 -0.618026,-0.503577 -0.417739,-0.228898 -1.098712,-0.486409 -0.474964,-0.171674 -0.864092,-0.389127 -0.389127,-0.223176 -0.67525,-0.509299 -0.280401,-0.286123 -0.434907,-0.669528 -0.154507,-0.389127 -0.154507,-0.892704 0,-0.692418 0.337626,-1.184549 0.343347,-0.492132 0.955651,-0.749643 0.612303,-0.263233 1.41917,-0.263233 0.663805,0 1.236051,0.131617 0.577969,0.131616 1.098713,0.360515 l -0.37196,0.972818 q -0.486409,-0.200286 -0.978541,-0.32618 -0.492132,-0.125894 -1.018598,-0.125894 -0.486409,0 -0.824034,0.143061 -0.331903,0.143062 -0.509299,0.406295 -0.171674,0.263233 -0.171674,0.623748 0,0.406295 0.183119,0.675251 0.183118,0.268955 0.577968,0.486409 0.39485,0.217453 1.030043,0.463519 0.715308,0.274678 1.213162,0.583691 0.503576,0.309013 0.76681,0.74392 0.263233,0.434907 0.263233,1.098712 z m 8.125894,2.248927 h -1.173104 v -3.862661 h -4.125895 v 3.862661 h -1.173104 v -8.366237 h 1.173104 v 3.490701 h 4.125895 v -3.490701 h 1.173104 z m 7.467811,0 -0.927038,-2.48927 h -3.27897 l -0.915594,2.48927 h -1.218884 l 3.193133,-8.400572 h 1.201717 l 3.175965,8.400572 z m -1.253218,-3.507868 -0.881259,-2.466381 q -0.04006,-0.125894 -0.125895,-0.377682 -0.08011,-0.251788 -0.165951,-0.520744 -0.08011,-0.268956 -0.131617,-0.446352 -0.05722,0.234621 -0.131616,0.497854 -0.07439,0.257511 -0.148784,0.486409 -0.06867,0.223176 -0.114449,0.360515 l -0.892704,2.466381 z m 5.922745,-4.858369 q 1.05866,0 1.74535,0.263233 0.69242,0.257511 1.03004,0.7897 0.33763,0.526466 0.33763,1.339055 0,0.640916 -0.23462,1.081546 -0.23462,0.440629 -0.61803,0.72103 -0.37768,0.2804 -0.81259,0.440629 l 2.34049,3.731044 h -1.34478 l -2.03719,-3.422031 h -1.53935 v 3.422031 h -1.1731 v -8.366237 z m -0.0744,0.995708 h -1.05866 v 2.969957 h 1.13877 q 0.98999,0 1.44779,-0.383405 0.45779,-0.389127 0.45779,-1.144492 0,-0.783977 -0.48641,-1.110157 -0.48641,-0.331903 -1.49928,-0.331903 z m 9.82546,7.370529 h -4.69814 v -8.366237 h 4.69814 v 1.007153 h -3.52503 v 2.48927 h 3.3133 v 0.995709 h -3.3133 v 2.861225 h 3.52503 z"
         id="path8"
         style="font-weight:500;font-size:11.7196px;line-height:0;font-family:'open sans';-inkscape-font-specification:'open sans Medium';letter-spacing:0px;word-spacing:0px;display:inline;fill:#808080;stroke-width:0.33;stroke-linecap:round;stroke-linejoin:round;paint-order:stroke fill markers"
         aria-label="SHARE"
         inkscape:label="Symbol Share" />
    </g>
  </g>
</svg>
