<?xml version="1.0" encoding="UTF-8" standalone="no"?>
<!-- Created with Inkscape (http://www.inkscape.org/) -->

<svg
   width="61.157791mm"
   height="21.761726mm"
   viewBox="0 0 61.157791 21.761726"
   version="1.1"
   id="svg1"
   inkscape:version="1.3.2 (091e20e, 2023-11-25, custom)"
   sodipodi:docname="ps4-Option-Alt.svg"
   xmlns:inkscape="http://www.inkscape.org/namespaces/inkscape"
   xmlns:sodipodi="http://sodipodi.sourceforge.net/DTD/sodipodi-0.dtd"
   xmlns="http://www.w3.org/2000/svg"
   xmlns:svg="http://www.w3.org/2000/svg">
  <sodipodi:namedview
     id="namedview1"
     pagecolor="#6effae"
     bordercolor="#000000"
     borderopacity="0.25"
     inkscape:showpageshadow="2"
     inkscape:pageopacity="0.0"
     inkscape:pagecheckerboard="0"
     inkscape:deskcolor="#d1d1d1"
     inkscape:document-units="mm"
     inkscape:zoom="3.9910213"
     inkscape:cx="97.96991"
     inkscape:cy="48.358549"
     inkscape:window-width="2560"
     inkscape:window-height="1344"
     inkscape:window-x="-9"
     inkscape:window-y="-9"
     inkscape:window-maximized="1"
     inkscape:current-layer="layer1" />
  <defs
     id="defs1" />
  <g
     inkscape:label="Button Prompt Options"
     id="layer1"
     transform="translate(-116.15207,-130.96875)">
    <g
       id="g6"
       inkscape:label="Style - Outline (Black)"
       style="display:none">
      <path
         style="color:#000000;display:inline;fill:#ffffff;stroke-linecap:round;stroke-linejoin:round;-inkscape-stroke:none"
         d="M 127.03294,131.66864 H 166.429 c 5.64025,0 10.18097,4.54071 10.18097,10.18097 0,5.64025 -4.54072,10.18097 -10.18097,10.18097 h -39.39606 c -5.64026,0 -10.18097,-4.54072 -10.18097,-10.18097 0,-5.64026 4.54071,-10.18097 10.18097,-10.18097 z"
         id="path5"
         inkscape:label="Color" />
      <path
         style="color:#000000;display:inline;fill:#000000;stroke-linecap:round;stroke-linejoin:round;-inkscape-stroke:none"
         d="m 127.0332,130.96875 c -6.01588,0 -10.88086,4.86497 -10.88086,10.88086 0,6.01589 4.86498,10.88086 10.88086,10.88086 h 39.39649 c 6.01588,0 10.88086,-4.86497 10.88086,-10.88086 0,-6.01589 -4.86498,-10.88086 -10.88086,-10.88086 z m 0,1.40039 h 39.39649 c 5.26461,0 9.48047,4.21585 9.48047,9.48047 0,5.26461 -4.21586,9.48047 -9.48047,9.48047 H 127.0332 c -5.26461,0 -9.48047,-4.21586 -9.48047,-9.48047 0,-5.26462 4.21586,-9.48047 9.48047,-9.48047 z"
         id="path6"
         inkscape:label="Outline" />
      <path
         style="font-weight:500;font-size:10.5689px;line-height:0;font-family:'open sans';-inkscape-font-specification:'open sans Medium';letter-spacing:0px;word-spacing:0px;baseline-shift:baseline;stroke-width:1.33152;stroke-linecap:round;stroke-linejoin:round"
         d="m 131.34724,141.84703 q 0,0.87214 -0.2219,1.58946 -0.22191,0.71216 -0.66056,1.22822 -0.43349,0.5109 -1.08888,0.78958 -0.65024,0.27867 -1.52238,0.27867 -0.88762,0 -1.54818,-0.27867 -0.65539,-0.27868 -1.08888,-0.79474 -0.43349,-0.51606 -0.65024,-1.23338 -0.21158,-0.71732 -0.21158,-1.58946 0,-1.16114 0.38188,-2.03328 0.38188,-0.87214 1.16113,-1.35207 0.78441,-0.4851 1.97135,-0.4851 1.14565,0 1.91974,0.47994 0.77409,0.47993 1.1663,1.35207 0.3922,0.86698 0.3922,2.04876 z m -5.88308,0 q 0,0.91858 0.25287,1.58946 0.25803,0.66572 0.78441,1.03212 0.53154,0.36124 1.35208,0.36124 0.83086,0 1.35724,-0.36124 0.52638,-0.3664 0.77409,-1.03212 0.2477,-0.67088 0.2477,-1.58946 0,-1.39336 -0.56766,-2.17777 -0.56767,-0.78957 -1.79589,-0.78957 -0.82569,0 -1.35724,0.36124 -0.53154,0.35608 -0.78957,1.0218 -0.25803,0.66055 -0.25803,1.5843 z m 9.60903,-3.76208 q 1.46045,0 2.13133,0.58315 0.67604,0.58315 0.67604,1.65655 0,0.4851 -0.15482,0.92375 -0.15482,0.43349 -0.50574,0.76893 -0.34576,0.33028 -0.91342,0.52638 -0.56767,0.19094 -1.39337,0.19094 h -0.86181 v 2.8951 h -1.05793 v -7.5448 z m -0.0826,0.88763 h -0.93922 v 2.86929 h 0.74828 q 0.6554,0 1.09921,-0.1445 0.44381,-0.14966 0.67088,-0.47477 0.22706,-0.32512 0.22706,-0.85666 0,-0.70184 -0.43865,-1.0476 -0.43865,-0.34576 -1.36756,-0.34576 z m 6.89972,6.65717 h -1.06308 v -6.63137 h -2.29131 v -0.91343 h 5.64053 v 0.91343 h -2.28614 z m 3.4318,0 v -7.5448 h 1.05792 v 7.5448 z m 9.71224,-3.78272 q 0,0.87214 -0.22191,1.58946 -0.2219,0.71216 -0.66055,1.22822 -0.43349,0.5109 -1.08889,0.78958 -0.65023,0.27867 -1.52237,0.27867 -0.88763,0 -1.54818,-0.27867 -0.6554,-0.27868 -1.08889,-0.79474 -0.43349,-0.51606 -0.65023,-1.23338 -0.21159,-0.71732 -0.21159,-1.58946 0,-1.16114 0.38189,-2.03328 0.38188,-0.87214 1.16113,-1.35207 0.78441,-0.4851 1.97135,-0.4851 1.14565,0 1.91974,0.47994 0.77409,0.47993 1.16629,1.35207 0.39221,0.86698 0.39221,2.04876 z m -5.88308,0 q 0,0.91858 0.25287,1.58946 0.25803,0.66572 0.78441,1.03212 0.53154,0.36124 1.35208,0.36124 0.83085,0 1.35723,-0.36124 0.52638,-0.3664 0.77409,-1.03212 0.24771,-0.67088 0.24771,-1.58946 0,-1.39336 -0.56767,-2.17777 -0.56766,-0.78957 -1.79588,-0.78957 -0.8257,0 -1.35724,0.36124 -0.53154,0.35608 -0.78957,1.0218 -0.25803,0.66055 -0.25803,1.5843 z m 13.62913,3.78272 h -1.2695 l -3.90657,-6.1824 h -0.0413 q 0.0155,0.27867 0.0361,0.61411 0.0206,0.33028 0.031,0.69668 0.0155,0.36124 0.0206,0.73281 v 4.1388 h -0.97019 v -7.5448 h 1.25918 l 3.89109,6.15143 h 0.0361 q -0.0103,-0.22706 -0.0258,-0.5625 -0.0155,-0.33544 -0.031,-0.707 -0.0103,-0.37673 -0.0103,-0.71216 v -4.16977 h 0.98051 z m 6.32689,-2.02812 q 0,0.67088 -0.33544,1.15081 -0.33028,0.47478 -0.93407,0.72765 -0.60379,0.25287 -1.43464,0.25287 -0.41801,0 -0.79989,-0.0464 -0.37673,-0.0413 -0.70184,-0.12385 -0.32512,-0.0826 -0.58831,-0.20643 v -1.00115 q 0.42833,0.17546 0.99083,0.33028 0.56251,0.14965 1.16114,0.14965 0.52122,0 0.87214,-0.13933 0.35608,-0.1445 0.5367,-0.40253 0.18062,-0.25803 0.18062,-0.61927 0,-0.36124 -0.17546,-0.60379 -0.17546,-0.24771 -0.55734,-0.45413 -0.37673,-0.20643 -0.99084,-0.43865 -0.42833,-0.15482 -0.77925,-0.35092 -0.35092,-0.20127 -0.60895,-0.4593 -0.25287,-0.25803 -0.3922,-0.60379 -0.13934,-0.35092 -0.13934,-0.80505 0,-0.62443 0.30447,-1.06824 0.30964,-0.44381 0.86182,-0.67604 0.55219,-0.23739 1.27983,-0.23739 0.59863,0 1.11469,0.1187 0.52122,0.11869 0.99083,0.32511 l -0.33543,0.8773 q -0.43865,-0.18062 -0.88247,-0.29415 -0.44381,-0.11353 -0.91858,-0.11353 -0.43865,0 -0.74313,0.12901 -0.29931,0.12902 -0.45929,0.3664 -0.15482,0.23739 -0.15482,0.56251 0,0.3664 0.16514,0.60895 0.16514,0.24255 0.52122,0.43865 0.35608,0.1961 0.92891,0.41801 0.64507,0.24771 1.09404,0.52638 0.45414,0.27867 0.69152,0.67088 0.23739,0.3922 0.23739,0.99083 z"
         id="text6"
         inkscape:label="Symbol Options"
         aria-label="OPTIONS" />
    </g>
    <g
       id="rect1"
       inkscape:label="Style - Outline (Black)"
       style="display:none">
      <path
         style="color:#000000;display:inline;fill:#000000;stroke-linecap:round;stroke-linejoin:round;-inkscape-stroke:none"
         d="M 127.03294,131.66864 H 166.429 c 5.64025,0 10.18097,4.54071 10.18097,10.18097 0,5.64025 -4.54072,10.18097 -10.18097,10.18097 h -39.39606 c -5.64026,0 -10.18097,-4.54072 -10.18097,-10.18097 0,-5.64026 4.54071,-10.18097 10.18097,-10.18097 z"
         id="path3"
         inkscape:label="Color" />
      <path
         style="color:#000000;display:inline;fill:#ffffff;stroke-linecap:round;stroke-linejoin:round;-inkscape-stroke:none"
         d="m 127.0332,130.96875 c -6.01588,0 -10.88086,4.86497 -10.88086,10.88086 0,6.01589 4.86498,10.88086 10.88086,10.88086 h 39.39649 c 6.01588,0 10.88086,-4.86497 10.88086,-10.88086 0,-6.01589 -4.86498,-10.88086 -10.88086,-10.88086 z m 0,1.40039 h 39.39649 c 5.26461,0 9.48047,4.21585 9.48047,9.48047 0,5.26461 -4.21586,9.48047 -9.48047,9.48047 H 127.0332 c -5.26461,0 -9.48047,-4.21586 -9.48047,-9.48047 0,-5.26462 4.21586,-9.48047 9.48047,-9.48047 z"
         id="path4"
         inkscape:label="Outline" />
      <path
         style="font-weight:500;font-size:10.5689px;line-height:0;font-family:'open sans';-inkscape-font-specification:'open sans Medium';letter-spacing:0px;word-spacing:0px;baseline-shift:baseline;fill:#ffffff;stroke-width:1.33152;stroke-linecap:round;stroke-linejoin:round"
         d="m 131.34724,141.84703 q 0,0.87214 -0.2219,1.58946 -0.22191,0.71216 -0.66056,1.22822 -0.43349,0.5109 -1.08888,0.78958 -0.65024,0.27867 -1.52238,0.27867 -0.88762,0 -1.54818,-0.27867 -0.65539,-0.27868 -1.08888,-0.79474 -0.43349,-0.51606 -0.65024,-1.23338 -0.21158,-0.71732 -0.21158,-1.58946 0,-1.16114 0.38188,-2.03328 0.38188,-0.87214 1.16113,-1.35207 0.78441,-0.4851 1.97135,-0.4851 1.14565,0 1.91974,0.47994 0.77409,0.47993 1.1663,1.35207 0.3922,0.86698 0.3922,2.04876 z m -5.88308,0 q 0,0.91858 0.25287,1.58946 0.25803,0.66572 0.78441,1.03212 0.53154,0.36124 1.35208,0.36124 0.83086,0 1.35724,-0.36124 0.52638,-0.3664 0.77409,-1.03212 0.2477,-0.67088 0.2477,-1.58946 0,-1.39336 -0.56766,-2.17777 -0.56767,-0.78957 -1.79589,-0.78957 -0.82569,0 -1.35724,0.36124 -0.53154,0.35608 -0.78957,1.0218 -0.25803,0.66055 -0.25803,1.5843 z m 9.60903,-3.76208 q 1.46045,0 2.13133,0.58315 0.67604,0.58315 0.67604,1.65655 0,0.4851 -0.15482,0.92375 -0.15482,0.43349 -0.50574,0.76893 -0.34576,0.33028 -0.91342,0.52638 -0.56767,0.19094 -1.39337,0.19094 h -0.86181 v 2.8951 h -1.05793 v -7.5448 z m -0.0826,0.88763 h -0.93922 v 2.86929 h 0.74828 q 0.6554,0 1.09921,-0.1445 0.44381,-0.14966 0.67088,-0.47477 0.22706,-0.32512 0.22706,-0.85666 0,-0.70184 -0.43865,-1.0476 -0.43865,-0.34576 -1.36756,-0.34576 z m 6.89972,6.65717 h -1.06308 v -6.63137 h -2.29131 v -0.91343 h 5.64053 v 0.91343 h -2.28614 z m 3.4318,0 v -7.5448 h 1.05792 v 7.5448 z m 9.71224,-3.78272 q 0,0.87214 -0.22191,1.58946 -0.2219,0.71216 -0.66055,1.22822 -0.43349,0.5109 -1.08889,0.78958 -0.65023,0.27867 -1.52237,0.27867 -0.88763,0 -1.54818,-0.27867 -0.6554,-0.27868 -1.08889,-0.79474 -0.43349,-0.51606 -0.65023,-1.23338 -0.21159,-0.71732 -0.21159,-1.58946 0,-1.16114 0.38189,-2.03328 0.38188,-0.87214 1.16113,-1.35207 0.78441,-0.4851 1.97135,-0.4851 1.14565,0 1.91974,0.47994 0.77409,0.47993 1.16629,1.35207 0.39221,0.86698 0.39221,2.04876 z m -5.88308,0 q 0,0.91858 0.25287,1.58946 0.25803,0.66572 0.78441,1.03212 0.53154,0.36124 1.35208,0.36124 0.83085,0 1.35723,-0.36124 0.52638,-0.3664 0.77409,-1.03212 0.24771,-0.67088 0.24771,-1.58946 0,-1.39336 -0.56767,-2.17777 -0.56766,-0.78957 -1.79588,-0.78957 -0.8257,0 -1.35724,0.36124 -0.53154,0.35608 -0.78957,1.0218 -0.25803,0.66055 -0.25803,1.5843 z m 13.62913,3.78272 h -1.2695 l -3.90657,-6.1824 h -0.0413 q 0.0155,0.27867 0.0361,0.61411 0.0206,0.33028 0.031,0.69668 0.0155,0.36124 0.0206,0.73281 v 4.1388 h -0.97019 v -7.5448 h 1.25918 l 3.89109,6.15143 h 0.0361 q -0.0103,-0.22706 -0.0258,-0.5625 -0.0155,-0.33544 -0.031,-0.707 -0.0103,-0.37673 -0.0103,-0.71216 v -4.16977 h 0.98051 z m 6.32689,-2.02812 q 0,0.67088 -0.33544,1.15081 -0.33028,0.47478 -0.93407,0.72765 -0.60379,0.25287 -1.43464,0.25287 -0.41801,0 -0.79989,-0.0464 -0.37673,-0.0413 -0.70184,-0.12385 -0.32512,-0.0826 -0.58831,-0.20643 v -1.00115 q 0.42833,0.17546 0.99083,0.33028 0.56251,0.14965 1.16114,0.14965 0.52122,0 0.87214,-0.13933 0.35608,-0.1445 0.5367,-0.40253 0.18062,-0.25803 0.18062,-0.61927 0,-0.36124 -0.17546,-0.60379 -0.17546,-0.24771 -0.55734,-0.45413 -0.37673,-0.20643 -0.99084,-0.43865 -0.42833,-0.15482 -0.77925,-0.35092 -0.35092,-0.20127 -0.60895,-0.4593 -0.25287,-0.25803 -0.3922,-0.60379 -0.13934,-0.35092 -0.13934,-0.80505 0,-0.62443 0.30447,-1.06824 0.30964,-0.44381 0.86182,-0.67604 0.55219,-0.23739 1.27983,-0.23739 0.59863,0 1.11469,0.1187 0.52122,0.11869 0.99083,0.32511 l -0.33543,0.8773 q -0.43865,-0.18062 -0.88247,-0.29415 -0.44381,-0.11353 -0.91858,-0.11353 -0.43865,0 -0.74313,0.12901 -0.29931,0.12902 -0.45929,0.3664 -0.15482,0.23739 -0.15482,0.56251 0,0.3664 0.16514,0.60895 0.16514,0.24255 0.52122,0.43865 0.35608,0.1961 0.92891,0.41801 0.64507,0.24771 1.09404,0.52638 0.45414,0.27867 0.69152,0.67088 0.23739,0.3922 0.23739,0.99083 z"
         id="text4"
         inkscape:label="Symbol Options"
         aria-label="OPTIONS" />
    </g>
    <g
       id="rect5"
       inkscape:label="Style - Transparent"
       style="display:inline">
      <path
         style="color:#000000;fill:#808080;fill-opacity:0.501961;stroke-linecap:round;stroke-linejoin:round;-inkscape-stroke:none;paint-order:stroke fill markers"
         d="m 127.0332,130.96875 c -6.01588,0 -10.88086,4.86497 -10.88086,10.88086 0,6.01589 4.86498,10.88086 10.88086,10.88086 h 39.39649 c 6.01588,0 10.88086,-4.86497 10.88086,-10.88086 0,-6.01589 -4.86498,-10.88086 -10.88086,-10.88086 z m 0,1.40039 h 39.39649 c 5.26461,0 9.48047,4.21585 9.48047,9.48047 0,5.26461 -4.21586,9.48047 -9.48047,9.48047 H 127.0332 c -5.26461,0 -9.48047,-4.21586 -9.48047,-9.48047 0,-5.26462 4.21586,-9.48047 9.48047,-9.48047 z"
         id="path1"
         inkscape:label="Outline" />
      <path
         style="color:#000000;display:inline;fill:#ffffff;stroke-linecap:round;stroke-linejoin:round;-inkscape-stroke:none;paint-order:stroke fill markers"
         d="M 127.03294,131.66864 H 166.429 c 5.64025,0 10.18097,4.54071 10.18097,10.18097 0,5.64025 -4.54072,10.18097 -10.18097,10.18097 h -39.39606 c -5.64026,0 -10.18097,-4.54072 -10.18097,-10.18097 0,-5.64026 4.54071,-10.18097 10.18097,-10.18097 z"
         id="path2"
         inkscape:label="Color" />
      <path
         style="font-weight:500;font-size:10.5689px;line-height:0;font-family:'open sans';-inkscape-font-specification:'open sans Medium';letter-spacing:0px;word-spacing:0px;baseline-shift:baseline;fill:#808080;stroke-width:1.33152;stroke-linecap:round;stroke-linejoin:round"
         d="m 131.34724,141.84703 q 0,0.87214 -0.2219,1.58946 -0.22191,0.71216 -0.66056,1.22822 -0.43349,0.5109 -1.08888,0.78958 -0.65024,0.27867 -1.52238,0.27867 -0.88762,0 -1.54818,-0.27867 -0.65539,-0.27868 -1.08888,-0.79474 -0.43349,-0.51606 -0.65024,-1.23338 -0.21158,-0.71732 -0.21158,-1.58946 0,-1.16114 0.38188,-2.03328 0.38188,-0.87214 1.16113,-1.35207 0.78441,-0.4851 1.97135,-0.4851 1.14565,0 1.91974,0.47994 0.77409,0.47993 1.1663,1.35207 0.3922,0.86698 0.3922,2.04876 z m -5.88308,0 q 0,0.91858 0.25287,1.58946 0.25803,0.66572 0.78441,1.03212 0.53154,0.36124 1.35208,0.36124 0.83086,0 1.35724,-0.36124 0.52638,-0.3664 0.77409,-1.03212 0.2477,-0.67088 0.2477,-1.58946 0,-1.39336 -0.56766,-2.17777 -0.56767,-0.78957 -1.79589,-0.78957 -0.82569,0 -1.35724,0.36124 -0.53154,0.35608 -0.78957,1.0218 -0.25803,0.66055 -0.25803,1.5843 z m 9.60903,-3.76208 q 1.46045,0 2.13133,0.58315 0.67604,0.58315 0.67604,1.65655 0,0.4851 -0.15482,0.92375 -0.15482,0.43349 -0.50574,0.76893 -0.34576,0.33028 -0.91342,0.52638 -0.56767,0.19094 -1.39337,0.19094 h -0.86181 v 2.8951 h -1.05793 v -7.5448 z m -0.0826,0.88763 h -0.93922 v 2.86929 h 0.74828 q 0.6554,0 1.09921,-0.1445 0.44381,-0.14966 0.67088,-0.47477 0.22706,-0.32512 0.22706,-0.85666 0,-0.70184 -0.43865,-1.0476 -0.43865,-0.34576 -1.36756,-0.34576 z m 6.89972,6.65717 h -1.06308 v -6.63137 h -2.29131 v -0.91343 h 5.64053 v 0.91343 h -2.28614 z m 3.4318,0 v -7.5448 h 1.05792 v 7.5448 z m 9.71224,-3.78272 q 0,0.87214 -0.22191,1.58946 -0.2219,0.71216 -0.66055,1.22822 -0.43349,0.5109 -1.08889,0.78958 -0.65023,0.27867 -1.52237,0.27867 -0.88763,0 -1.54818,-0.27867 -0.6554,-0.27868 -1.08889,-0.79474 -0.43349,-0.51606 -0.65023,-1.23338 -0.21159,-0.71732 -0.21159,-1.58946 0,-1.16114 0.38189,-2.03328 0.38188,-0.87214 1.16113,-1.35207 0.78441,-0.4851 1.97135,-0.4851 1.14565,0 1.91974,0.47994 0.77409,0.47993 1.16629,1.35207 0.39221,0.86698 0.39221,2.04876 z m -5.88308,0 q 0,0.91858 0.25287,1.58946 0.25803,0.66572 0.78441,1.03212 0.53154,0.36124 1.35208,0.36124 0.83085,0 1.35723,-0.36124 0.52638,-0.3664 0.77409,-1.03212 0.24771,-0.67088 0.24771,-1.58946 0,-1.39336 -0.56767,-2.17777 -0.56766,-0.78957 -1.79588,-0.78957 -0.8257,0 -1.35724,0.36124 -0.53154,0.35608 -0.78957,1.0218 -0.25803,0.66055 -0.25803,1.5843 z m 13.62913,3.78272 h -1.2695 l -3.90657,-6.1824 h -0.0413 q 0.0155,0.27867 0.0361,0.61411 0.0206,0.33028 0.031,0.69668 0.0155,0.36124 0.0206,0.73281 v 4.1388 h -0.97019 v -7.5448 h 1.25918 l 3.89109,6.15143 h 0.0361 q -0.0103,-0.22706 -0.0258,-0.5625 -0.0155,-0.33544 -0.031,-0.707 -0.0103,-0.37673 -0.0103,-0.71216 v -4.16977 h 0.98051 z m 6.32689,-2.02812 q 0,0.67088 -0.33544,1.15081 -0.33028,0.47478 -0.93407,0.72765 -0.60379,0.25287 -1.43464,0.25287 -0.41801,0 -0.79989,-0.0464 -0.37673,-0.0413 -0.70184,-0.12385 -0.32512,-0.0826 -0.58831,-0.20643 v -1.00115 q 0.42833,0.17546 0.99083,0.33028 0.56251,0.14965 1.16114,0.14965 0.52122,0 0.87214,-0.13933 0.35608,-0.1445 0.5367,-0.40253 0.18062,-0.25803 0.18062,-0.61927 0,-0.36124 -0.17546,-0.60379 -0.17546,-0.24771 -0.55734,-0.45413 -0.37673,-0.20643 -0.99084,-0.43865 -0.42833,-0.15482 -0.77925,-0.35092 -0.35092,-0.20127 -0.60895,-0.4593 -0.25287,-0.25803 -0.3922,-0.60379 -0.13934,-0.35092 -0.13934,-0.80505 0,-0.62443 0.30447,-1.06824 0.30964,-0.44381 0.86182,-0.67604 0.55219,-0.23739 1.27983,-0.23739 0.59863,0 1.11469,0.1187 0.52122,0.11869 0.99083,0.32511 l -0.33543,0.8773 q -0.43865,-0.18062 -0.88247,-0.29415 -0.44381,-0.11353 -0.91858,-0.11353 -0.43865,0 -0.74313,0.12901 -0.29931,0.12902 -0.45929,0.3664 -0.15482,0.23739 -0.15482,0.56251 0,0.3664 0.16514,0.60895 0.16514,0.24255 0.52122,0.43865 0.35608,0.1961 0.92891,0.41801 0.64507,0.24771 1.09404,0.52638 0.45414,0.27867 0.69152,0.67088 0.23739,0.3922 0.23739,0.99083 z"
         id="text5"
         inkscape:label="Symbol Options"
         aria-label="OPTIONS" />
    </g>
  </g>
</svg>
