<?xml version="1.0" encoding="UTF-8" standalone="no"?>
<!-- Created with Inkscape (http://www.inkscape.org/) -->

<svg
   width="47.898441mm"
   height="21.761721mm"
   viewBox="0 0 47.898441 21.761721"
   version="1.1"
   id="svg1"
   inkscape:version="1.3.2 (091e20e, 2023-11-25, custom)"
   sodipodi:docname="ps4-Share-Alt.svg"
   xmlns:inkscape="http://www.inkscape.org/namespaces/inkscape"
   xmlns:sodipodi="http://sodipodi.sourceforge.net/DTD/sodipodi-0.dtd"
   xmlns="http://www.w3.org/2000/svg"
   xmlns:svg="http://www.w3.org/2000/svg">
  <sodipodi:namedview
     id="namedview1"
     pagecolor="#90ff90"
     bordercolor="#000000"
     borderopacity="0.25"
     inkscape:showpageshadow="2"
     inkscape:pageopacity="0.0"
     inkscape:pagecheckerboard="0"
     inkscape:deskcolor="#d1d1d1"
     inkscape:document-units="mm"
     inkscape:zoom="3.9910213"
     inkscape:cx="61.638358"
     inkscape:cy="58.631609"
     inkscape:window-width="2560"
     inkscape:window-height="1344"
     inkscape:window-x="-9"
     inkscape:window-y="-9"
     inkscape:window-maximized="1"
     inkscape:current-layer="g11" />
  <defs
     id="defs1" />
  <g
     inkscape:label="Button Prompt Share"
     id="layer1"
     transform="translate(-116.94531,-116.15234)"
     style="display:inline">
    <g
       id="g11"
       inkscape:label="Style - Outline (White)"
       style="display:none">
      <path
         style="color:#000000;display:inline;fill:#ffffff;stroke-linecap:round;stroke-linejoin:round;-inkscape-stroke:none"
         d="m 127.8267,116.77291 h 26.13714 c 5.68406,0 10.26003,4.57598 10.26003,10.26003 0,5.68406 -4.57597,10.26003 -10.26003,10.26003 H 127.8267 c -5.68405,0 -10.26003,-4.57597 -10.26003,-10.26003 0,-5.68405 4.57598,-10.26003 10.26003,-10.26003 z"
         id="path9"
         inkscape:label="Color" />
      <path
         style="color:#000000;display:inline;fill:#000000;stroke-linecap:round;stroke-linejoin:round;-inkscape-stroke:none"
         d="m 127.82617,116.15234 c -6.01725,0 -10.88086,4.86361 -10.88086,10.88086 0,6.01726 4.86361,10.88086 10.88086,10.88086 h 26.13672 c 6.01725,0 10.88086,-4.8636 10.88086,-10.88086 0,-6.01725 -4.86361,-10.88086 -10.88086,-10.88086 z m 0,1.24219 h 26.13672 c 5.35085,0 9.64063,4.28782 9.64063,9.63867 0,5.35085 -4.28978,9.63867 -9.64063,9.63867 h -26.13672 c -5.35085,0 -9.63867,-4.28782 -9.63867,-9.63867 0,-5.35085 4.28782,-9.63867 9.63867,-9.63867 z"
         id="path10"
         inkscape:label="Outline" />
      <path
         style="font-weight:500;font-size:10.5234px;line-height:0;font-family:'open sans';-inkscape-font-specification:'open sans Medium';letter-spacing:0px;word-spacing:0px;baseline-shift:baseline;display:inline;fill:#000000;stroke-width:1.32578;stroke-linecap:round;stroke-linejoin:round"
         d="m 129.80591,128.77255 q 0,0.66799 -0.334,1.14586 -0.32885,0.47273 -0.93004,0.72451 -0.60119,0.25178 -1.42847,0.25178 -0.41621,0 -0.79645,-0.0462 -0.3751,-0.0411 -0.69882,-0.12332 -0.32372,-0.0822 -0.58578,-0.20553 v -0.99685 q 0.42649,0.17471 0.98657,0.32886 0.56009,0.14901 1.15614,0.14901 0.51897,0 0.86838,-0.13874 0.35455,-0.14387 0.5344,-0.40079 0.17984,-0.25692 0.17984,-0.6166 0,-0.35969 -0.17471,-0.60119 -0.1747,-0.24665 -0.55494,-0.45218 -0.3751,-0.20554 -0.98657,-0.43676 -0.42648,-0.15416 -0.77589,-0.34941 -0.34941,-0.2004 -0.60633,-0.45732 -0.25178,-0.25692 -0.39052,-0.60119 -0.13874,-0.34941 -0.13874,-0.80159 0,-0.62174 0.30317,-1.06364 0.3083,-0.4419 0.85811,-0.67313 0.5498,-0.23636 1.27432,-0.23636 0.59605,0 1.10989,0.11818 0.51897,0.11818 0.98656,0.32372 l -0.33399,0.87352 q -0.43676,-0.17984 -0.87866,-0.29289 -0.4419,-0.11304 -0.91463,-0.11304 -0.43677,0 -0.73993,0.12846 -0.29803,0.12846 -0.45732,0.36482 -0.15415,0.23637 -0.15415,0.56009 0,0.36482 0.16443,0.60632 0.16443,0.24151 0.51898,0.43677 0.35454,0.19526 0.9249,0.41621 0.6423,0.24664 1.08934,0.52411 0.45218,0.27747 0.68854,0.66799 0.23637,0.39052 0.23637,0.98657 z m 7.2965,2.01938 h -1.05337 v -3.4684 h -3.70477 v 3.4684 h -1.05337 v -7.51231 h 1.05337 v 3.13441 h 3.70477 v -3.13441 h 1.05337 z m 6.70558,0 -0.83242,-2.23519 h -2.94429 l -0.82214,2.23519 h -1.09447 l 2.86721,-7.54314 h 1.07906 l 2.8518,7.54314 z m -1.1253,-3.14983 -0.79131,-2.21464 q -0.036,-0.11304 -0.11305,-0.33913 -0.0719,-0.22609 -0.14901,-0.46759 -0.0719,-0.24151 -0.11818,-0.4008 -0.0514,0.21068 -0.11819,0.44704 -0.0668,0.23123 -0.13359,0.43677 -0.0617,0.20039 -0.10277,0.32371 l -0.80159,2.21464 z m 5.31822,-4.36248 q 0.9506,0 1.5672,0.23637 0.62175,0.23122 0.92491,0.70909 0.30317,0.47273 0.30317,1.20238 0,0.5755 -0.21068,0.97116 -0.21067,0.39565 -0.55494,0.64743 -0.33913,0.25178 -0.72965,0.39566 l 2.1016,3.35022 H 150.195 l -1.82927,-3.07275 h -1.38222 v 3.07275 h -1.05337 v -7.51231 z m -0.0668,0.89408 h -0.9506 v 2.66682 h 1.02254 q 0.88894,0 1.30001,-0.34427 0.41107,-0.34941 0.41107,-1.02768 0,-0.70396 -0.43677,-0.99685 -0.43676,-0.29802 -1.34625,-0.29802 z m 8.8226,6.61823 h -4.21861 v -7.51231 h 4.21861 v 0.90436 h -3.16524 v 2.23519 h 2.97512 v 0.89408 h -2.97512 v 2.56919 h 3.16524 z"
         id="text5"
         inkscape:label="Symbol Share"
         aria-label="SHARE" />
    </g>
    <g
       id="rect1"
       inkscape:label="Style - Outline (Black)"
       style="display:none">
      <path
         style="color:#000000;display:inline;fill:#000000;stroke-linecap:round;stroke-linejoin:round;-inkscape-stroke:none"
         d="m 127.8267,116.77291 h 26.13714 c 5.68406,0 10.26003,4.57598 10.26003,10.26003 0,5.68406 -4.57597,10.26003 -10.26003,10.26003 H 127.8267 c -5.68405,0 -10.26003,-4.57597 -10.26003,-10.26003 0,-5.68405 4.57598,-10.26003 10.26003,-10.26003 z"
         id="path6"
         inkscape:label="Color" />
      <path
         style="color:#000000;display:inline;fill:#ffffff;stroke-linecap:round;stroke-linejoin:round;-inkscape-stroke:none"
         d="m 127.82617,116.15234 c -6.01725,0 -10.88086,4.86361 -10.88086,10.88086 0,6.01726 4.86361,10.88086 10.88086,10.88086 h 26.13672 c 6.01725,0 10.88086,-4.8636 10.88086,-10.88086 0,-6.01725 -4.86361,-10.88086 -10.88086,-10.88086 z m 0,1.24219 h 26.13672 c 5.35085,0 9.64063,4.28782 9.64063,9.63867 0,5.35085 -4.28978,9.63867 -9.64063,9.63867 h -26.13672 c -5.35085,0 -9.63867,-4.28782 -9.63867,-9.63867 0,-5.35085 4.28782,-9.63867 9.63867,-9.63867 z"
         id="path7"
         inkscape:label="Outline" />
      <path
         style="font-weight:500;font-size:10.5234px;line-height:0;font-family:'open sans';-inkscape-font-specification:'open sans Medium';letter-spacing:0px;word-spacing:0px;baseline-shift:baseline;display:inline;fill:#ffffff;stroke-width:1.32578;stroke-linecap:round;stroke-linejoin:round"
         d="m 129.80591,128.77255 q 0,0.66799 -0.334,1.14586 -0.32885,0.47273 -0.93004,0.72451 -0.60119,0.25178 -1.42847,0.25178 -0.41621,0 -0.79645,-0.0462 -0.3751,-0.0411 -0.69882,-0.12332 -0.32372,-0.0822 -0.58578,-0.20553 v -0.99685 q 0.42649,0.17471 0.98657,0.32886 0.56009,0.14901 1.15614,0.14901 0.51897,0 0.86838,-0.13874 0.35455,-0.14387 0.5344,-0.40079 0.17984,-0.25692 0.17984,-0.6166 0,-0.35969 -0.17471,-0.60119 -0.1747,-0.24665 -0.55494,-0.45218 -0.3751,-0.20554 -0.98657,-0.43676 -0.42648,-0.15416 -0.77589,-0.34941 -0.34941,-0.2004 -0.60633,-0.45732 -0.25178,-0.25692 -0.39052,-0.60119 -0.13874,-0.34941 -0.13874,-0.80159 0,-0.62174 0.30317,-1.06364 0.3083,-0.4419 0.85811,-0.67313 0.5498,-0.23636 1.27432,-0.23636 0.59605,0 1.10989,0.11818 0.51897,0.11818 0.98656,0.32372 l -0.33399,0.87352 q -0.43676,-0.17984 -0.87866,-0.29289 -0.4419,-0.11304 -0.91463,-0.11304 -0.43677,0 -0.73993,0.12846 -0.29803,0.12846 -0.45732,0.36482 -0.15415,0.23637 -0.15415,0.56009 0,0.36482 0.16443,0.60632 0.16443,0.24151 0.51898,0.43677 0.35454,0.19526 0.9249,0.41621 0.6423,0.24664 1.08934,0.52411 0.45218,0.27747 0.68854,0.66799 0.23637,0.39052 0.23637,0.98657 z m 7.2965,2.01938 h -1.05337 v -3.4684 h -3.70477 v 3.4684 h -1.05337 v -7.51231 h 1.05337 v 3.13441 h 3.70477 v -3.13441 h 1.05337 z m 6.70558,0 -0.83242,-2.23519 h -2.94429 l -0.82214,2.23519 h -1.09447 l 2.86721,-7.54314 h 1.07906 l 2.8518,7.54314 z m -1.1253,-3.14983 -0.79131,-2.21464 q -0.036,-0.11304 -0.11305,-0.33913 -0.0719,-0.22609 -0.14901,-0.46759 -0.0719,-0.24151 -0.11818,-0.4008 -0.0514,0.21068 -0.11819,0.44704 -0.0668,0.23123 -0.13359,0.43677 -0.0617,0.20039 -0.10277,0.32371 l -0.80159,2.21464 z m 5.31822,-4.36248 q 0.9506,0 1.5672,0.23637 0.62175,0.23122 0.92491,0.70909 0.30317,0.47273 0.30317,1.20238 0,0.5755 -0.21068,0.97116 -0.21067,0.39565 -0.55494,0.64743 -0.33913,0.25178 -0.72965,0.39566 l 2.1016,3.35022 H 150.195 l -1.82927,-3.07275 h -1.38222 v 3.07275 h -1.05337 v -7.51231 z m -0.0668,0.89408 h -0.9506 v 2.66682 h 1.02254 q 0.88894,0 1.30001,-0.34427 0.41107,-0.34941 0.41107,-1.02768 0,-0.70396 -0.43677,-0.99685 -0.43676,-0.29802 -1.34625,-0.29802 z m 8.8226,6.61823 h -4.21861 v -7.51231 h 4.21861 v 0.90436 h -3.16524 v 2.23519 h 2.97512 v 0.89408 h -2.97512 v 2.56919 h 3.16524 z"
         id="path13"
         inkscape:label="Symbol Share"
         aria-label="SHARE" />
    </g>
    <g
       id="rect7"
       inkscape:label="Style - Transparent"
       style="display:inline">
      <path
         style="color:#000000;fill:#808080;fill-opacity:0.501961;stroke-linecap:round;stroke-linejoin:round;-inkscape-stroke:none;paint-order:stroke fill markers"
         d="m 127.82617,116.15234 c -6.01725,0 -10.88086,4.86361 -10.88086,10.88086 0,6.01726 4.86361,10.88086 10.88086,10.88086 h 26.13672 c 6.01725,0 10.88086,-4.8636 10.88086,-10.88086 0,-6.01725 -4.86361,-10.88086 -10.88086,-10.88086 z m 0,1.24219 h 26.13672 c 5.35085,0 9.64063,4.28782 9.64063,9.63867 0,5.35085 -4.28978,9.63867 -9.64063,9.63867 h -26.13672 c -5.35085,0 -9.63867,-4.28782 -9.63867,-9.63867 0,-5.35085 4.28782,-9.63867 9.63867,-9.63867 z"
         id="path4"
         inkscape:label="Outline" />
      <path
         style="color:#000000;display:inline;fill:#ffffff;fill-opacity:1;stroke-linecap:round;stroke-linejoin:round;-inkscape-stroke:none;paint-order:stroke fill markers"
         d="m 127.8267,116.77291 h 26.13714 c 5.68406,0 10.26003,4.57598 10.26003,10.26003 0,5.68406 -4.57597,10.26003 -10.26003,10.26003 H 127.8267 c -5.68405,0 -10.26003,-4.57597 -10.26003,-10.26003 0,-5.68405 4.57598,-10.26003 10.26003,-10.26003 z"
         id="path5"
         inkscape:label="Color" />
      <path
         style="font-weight:500;font-size:10.5234px;line-height:0;font-family:'open sans';-inkscape-font-specification:'open sans Medium';letter-spacing:0px;word-spacing:0px;baseline-shift:baseline;fill:#808080;stroke-width:1.32578;stroke-linecap:round;stroke-linejoin:round"
         d="m 129.80591,128.77255 q 0,0.66799 -0.334,1.14586 -0.32885,0.47273 -0.93004,0.72451 -0.60119,0.25178 -1.42847,0.25178 -0.41621,0 -0.79645,-0.0462 -0.3751,-0.0411 -0.69882,-0.12332 -0.32372,-0.0822 -0.58578,-0.20553 v -0.99685 q 0.42649,0.17471 0.98657,0.32886 0.56009,0.14901 1.15614,0.14901 0.51897,0 0.86838,-0.13874 0.35455,-0.14387 0.5344,-0.40079 0.17984,-0.25692 0.17984,-0.6166 0,-0.35969 -0.17471,-0.60119 -0.1747,-0.24665 -0.55494,-0.45218 -0.3751,-0.20554 -0.98657,-0.43676 -0.42648,-0.15416 -0.77589,-0.34941 -0.34941,-0.2004 -0.60633,-0.45732 -0.25178,-0.25692 -0.39052,-0.60119 -0.13874,-0.34941 -0.13874,-0.80159 0,-0.62174 0.30317,-1.06364 0.3083,-0.4419 0.85811,-0.67313 0.5498,-0.23636 1.27432,-0.23636 0.59605,0 1.10989,0.11818 0.51897,0.11818 0.98656,0.32372 l -0.33399,0.87352 q -0.43676,-0.17984 -0.87866,-0.29289 -0.4419,-0.11304 -0.91463,-0.11304 -0.43677,0 -0.73993,0.12846 -0.29803,0.12846 -0.45732,0.36482 -0.15415,0.23637 -0.15415,0.56009 0,0.36482 0.16443,0.60632 0.16443,0.24151 0.51898,0.43677 0.35454,0.19526 0.9249,0.41621 0.6423,0.24664 1.08934,0.52411 0.45218,0.27747 0.68854,0.66799 0.23637,0.39052 0.23637,0.98657 z m 7.2965,2.01938 h -1.05337 v -3.4684 h -3.70477 v 3.4684 h -1.05337 v -7.51231 h 1.05337 v 3.13441 h 3.70477 v -3.13441 h 1.05337 z m 6.70558,0 -0.83242,-2.23519 h -2.94429 l -0.82214,2.23519 h -1.09447 l 2.86721,-7.54314 h 1.07906 l 2.8518,7.54314 z m -1.1253,-3.14983 -0.79131,-2.21464 q -0.036,-0.11304 -0.11305,-0.33913 -0.0719,-0.22609 -0.14901,-0.46759 -0.0719,-0.24151 -0.11818,-0.4008 -0.0514,0.21068 -0.11819,0.44704 -0.0668,0.23123 -0.13359,0.43677 -0.0617,0.20039 -0.10277,0.32371 l -0.80159,2.21464 z m 5.31822,-4.36248 q 0.9506,0 1.5672,0.23637 0.62175,0.23122 0.92491,0.70909 0.30317,0.47273 0.30317,1.20238 0,0.5755 -0.21068,0.97116 -0.21067,0.39565 -0.55494,0.64743 -0.33913,0.25178 -0.72965,0.39566 l 2.1016,3.35022 H 150.195 l -1.82927,-3.07275 h -1.38222 v 3.07275 h -1.05337 v -7.51231 z m -0.0668,0.89408 h -0.9506 v 2.66682 h 1.02254 q 0.88894,0 1.30001,-0.34427 0.41107,-0.34941 0.41107,-1.02768 0,-0.70396 -0.43677,-0.99685 -0.43676,-0.29802 -1.34625,-0.29802 z m 8.8226,6.61823 h -4.21861 v -7.51231 h 4.21861 v 0.90436 h -3.16524 v 2.23519 h 2.97512 v 0.89408 h -2.97512 v 2.56919 h 3.16524 z"
         id="path12"
         inkscape:label="Symbol Share"
         aria-label="SHARE" />
    </g>
  </g>
</svg>
