<?xml version="1.0" encoding="UTF-8" standalone="no"?>
<!-- Created with Inkscape (http://www.inkscape.org/) -->

<svg
   width="36.34536mm"
   height="26.712582mm"
   viewBox="0 0 36.345359 26.712583"
   version="1.1"
   id="svg1"
   inkscape:version="1.3.2 (091e20e, 2023-11-25, custom)"
   sodipodi:docname="ps5-Left Back.svg"
   xmlns:inkscape="http://www.inkscape.org/namespaces/inkscape"
   xmlns:sodipodi="http://sodipodi.sourceforge.net/DTD/sodipodi-0.dtd"
   xmlns="http://www.w3.org/2000/svg"
   xmlns:svg="http://www.w3.org/2000/svg">
  <sodipodi:namedview
     id="namedview1"
     pagecolor="#53ff98"
     bordercolor="#000000"
     borderopacity="0.25"
     inkscape:showpageshadow="2"
     inkscape:pageopacity="0.0"
     inkscape:pagecheckerboard="0"
     inkscape:deskcolor="#d1d1d1"
     inkscape:document-units="mm"
     inkscape:zoom="7.9820426"
     inkscape:cx="70.032199"
     inkscape:cy="55.875422"
     inkscape:window-width="2560"
     inkscape:window-height="1344"
     inkscape:window-x="-9"
     inkscape:window-y="-9"
     inkscape:window-maximized="1"
     inkscape:current-layer="layer1" />
  <defs
     id="defs1" />
  <g
     inkscape:label="Button Prompt Left Back"
     id="layer1"
     transform="translate(-184.41458,-74.083333)">
    <g
       id="path18"
       style="display:none"
       inkscape:label="Style - Outline (White)"
       transform="matrix(-1,0,0,1,343.76588,8.7550943)">
      <path
         id="path19"
         style="color:#000000;display:inline;fill:#ffffff;stroke-linecap:round;stroke-linejoin:round;-inkscape-stroke:none"
         d="m 159.3513,66.427397 h -22.60666 c -7.0015,0 -12.63851,5.466047 -12.63851,12.256099 0,6.790053 5.63701,12.257133 12.63851,12.257133 h 22.60666 z"
         sodipodi:nodetypes="cssscc"
         inkscape:label="Color" />
      <path
         id="path20"
         style="color:#000000;display:inline;fill:#000000;stroke-linecap:round;stroke-linejoin:round;-inkscape-stroke:none"
         d="m 159.3513,65.328239 h -22.60718 c -7.57401,0 -13.73818,5.956415 -13.73818,13.355257 0,7.398843 6.16411,13.357325 13.73818,13.357325 h 22.60718 v -2.2009 h -22.60718 c -6.4289,0 -11.53728,-4.975177 -11.53728,-11.156425 0,-6.181248 5.10833,-11.155908 11.53728,-11.155908 h 22.60718 z"
         sodipodi:nodetypes="csssccssscc"
         inkscape:label="Outline" />
      <path
         id="path15"
         style="font-weight:500;font-size:21.6393px;line-height:0;font-family:'open sans';-inkscape-font-specification:'open sans Medium';letter-spacing:0px;word-spacing:0px;display:inline;fill:#000000;stroke-width:6.6197;stroke-linecap:round;stroke-linejoin:round"
         d="m 203.11142,79.091643 c -1.19209,0 -2.15239,0.99537 -2.15239,2.20235 v 12.289296 c 0,1.20699 0.9603,2.20433 2.15239,2.20433 h 8.24899 c 1.19209,0 2.15303,-0.99734 2.15303,-2.20433 V 81.293993 c 0,-1.20698 -0.96094,-2.20235 -2.15303,-2.20235 z m 0,0.85252 h 8.24899 c 0.72113,0 1.30051,0.5872 1.30051,1.34983 v 12.289296 c 0,0.76264 -0.57938,1.3518 -1.30051,1.3518 h -8.24899 c -0.72114,0 -1.29985,-0.58916 -1.29985,-1.3518 V 81.293993 c 0,-0.76263 0.57871,-1.34983 1.29985,-1.34983 z m -11.6861,0.91173 v 13.166806 h 7.56488 v -1.60308 h -5.71905 V 80.855893 Z m 11.42757,0 v 13.166806 h 4.62905 c 0.95464,0 1.777,-0.14398 2.46746,-0.43217 0.69648,-0.29419 1.23406,-0.72043 1.61231,-1.27879 0.37826,-0.56439 0.56703,-1.24849 0.56703,-2.05305 0,-0.67244 -0.12284,-1.2222 -0.36903,-1.64848 -0.24016,-0.4323 -0.57038,-0.765066 -0.99067,-0.999226 -0.42028,-0.23416 -0.90089,-0.39672 -1.44127,-0.48678 v -0.0901 c 0.51634,-0.0961 0.95218,-0.27589 1.30643,-0.54007 0.35423,-0.26418 0.6243,-0.59761 0.81041,-0.99988 0.18614,-0.40227 0.27893,-0.85855 0.27893,-1.3689 0,-1.19481 -0.42302,-2.03828 -1.26959,-2.53061 -0.84659,-0.49233 -2.10732,-0.73873 -3.78244,-0.73873 z m 1.84583,1.54916 h 2.07146 c 1.05671,0 1.82851,0.15295 2.31485,0.45916 0.48634,0.30019 0.72953,0.79552 0.72953,1.48599 0,0.66645 -0.20415,1.17395 -0.61243,1.52217 -0.40828,0.34825 -1.14426,0.5223 -2.20698,0.5223 h -2.29643 z m 0,5.51182 h 2.38655 c 0.76252,0 1.36922,0.0871 1.81952,0.261146 0.45031,0.17412 0.77477,0.42627 0.97291,0.75649 0.20414,0.32422 0.30588,0.71459 0.30588,1.17091 0,0.72048 -0.22525,1.29389 -0.67556,1.72018 -0.44431,0.42629 -1.20971,0.63939 -2.29645,0.63939 h -2.51285 z"
         inkscape:label="Symbol Left Back"
         transform="matrix(-1,0,0,1,343.76588,-8.7550946)" />
    </g>
    <g
       id="g27"
       style="display:none"
       inkscape:label="Style - Outline (Black)"
       transform="matrix(-1,0,0,1,343.76588,8.7550943)">
      <path
         id="path26"
         style="color:#000000;display:inline;fill:#000000;stroke-linecap:round;stroke-linejoin:round;-inkscape-stroke:none"
         d="m 159.3513,66.427397 h -22.60666 c -7.0015,0 -12.63851,5.466047 -12.63851,12.256099 0,6.790053 5.63701,12.257133 12.63851,12.257133 h 22.60666 z"
         sodipodi:nodetypes="cssscc"
         inkscape:label="Color" />
      <path
         id="path27"
         style="color:#000000;display:inline;fill:#ffffff;stroke-linecap:round;stroke-linejoin:round;-inkscape-stroke:none"
         d="m 159.3513,65.328239 h -22.60718 c -7.57401,0 -13.73818,5.956415 -13.73818,13.355257 0,7.398843 6.16411,13.357325 13.73818,13.357325 h 22.60718 v -2.2009 h -22.60718 c -6.4289,0 -11.53728,-4.975177 -11.53728,-11.156425 0,-6.181248 5.10833,-11.155908 11.53728,-11.155908 h 22.60718 z"
         sodipodi:nodetypes="csssccssscc"
         inkscape:label="Outline" />
      <path
         id="path6"
         style="font-weight:500;font-size:21.6393px;line-height:0;font-family:'open sans';-inkscape-font-specification:'open sans Medium';letter-spacing:0px;word-spacing:0px;display:inline;fill:#ffffff;stroke-width:6.6197;stroke-linecap:round;stroke-linejoin:round"
         d="m 203.11142,79.091643 c -1.19209,0 -2.15239,0.99537 -2.15239,2.20235 v 12.289296 c 0,1.20699 0.9603,2.20433 2.15239,2.20433 h 8.24899 c 1.19209,0 2.15303,-0.99734 2.15303,-2.20433 V 81.293993 c 0,-1.20698 -0.96094,-2.20235 -2.15303,-2.20235 z m 0,0.85252 h 8.24899 c 0.72113,0 1.30051,0.5872 1.30051,1.34983 v 12.289296 c 0,0.76264 -0.57938,1.3518 -1.30051,1.3518 h -8.24899 c -0.72114,0 -1.29985,-0.58916 -1.29985,-1.3518 V 81.293993 c 0,-0.76263 0.57871,-1.34983 1.29985,-1.34983 z m -11.6861,0.91173 v 13.166806 h 7.56488 v -1.60308 h -5.71905 V 80.855893 Z m 11.42757,0 v 13.166806 h 4.62905 c 0.95464,0 1.777,-0.14398 2.46746,-0.43217 0.69648,-0.29419 1.23406,-0.72043 1.61231,-1.27879 0.37826,-0.56439 0.56703,-1.24849 0.56703,-2.05305 0,-0.67244 -0.12284,-1.2222 -0.36903,-1.64848 -0.24016,-0.4323 -0.57038,-0.765066 -0.99067,-0.999226 -0.42028,-0.23416 -0.90089,-0.39672 -1.44127,-0.48678 v -0.0901 c 0.51634,-0.0961 0.95218,-0.27589 1.30643,-0.54007 0.35423,-0.26418 0.6243,-0.59761 0.81041,-0.99988 0.18614,-0.40227 0.27893,-0.85855 0.27893,-1.3689 0,-1.19481 -0.42302,-2.03828 -1.26959,-2.53061 -0.84659,-0.49233 -2.10732,-0.73873 -3.78244,-0.73873 z m 1.84583,1.54916 h 2.07146 c 1.05671,0 1.82851,0.15295 2.31485,0.45916 0.48634,0.30019 0.72953,0.79552 0.72953,1.48599 0,0.66645 -0.20415,1.17395 -0.61243,1.52217 -0.40828,0.34825 -1.14426,0.5223 -2.20698,0.5223 h -2.29643 z m 0,5.51182 h 2.38655 c 0.76252,0 1.36922,0.0871 1.81952,0.261146 0.45031,0.17412 0.77477,0.42627 0.97291,0.75649 0.20414,0.32422 0.30588,0.71459 0.30588,1.17091 0,0.72048 -0.22525,1.29389 -0.67556,1.72018 -0.44431,0.42629 -1.20971,0.63939 -2.29645,0.63939 h -2.51285 z"
         inkscape:label="Symbol Left Back"
         transform="matrix(-1,0,0,1,343.76588,-8.7550946)" />
    </g>
    <g
       id="rect1"
       style="display:inline"
       inkscape:label="Style - Transparent"
       transform="matrix(-1,0,0,1,343.76588,8.7550943)">
      <path
         id="path21"
         style="color:#000000;display:inline;fill:#808080;fill-opacity:0.5;stroke-linecap:round;stroke-linejoin:round;-inkscape-stroke:none;paint-order:stroke fill markers"
         d="m 159.3513,65.328239 h -22.60718 c -7.57401,0 -13.73818,5.956415 -13.73818,13.355257 0,7.398843 6.16411,13.357325 13.73818,13.357325 h 22.60718 v -2.2009 h -22.60718 c -6.4289,0 -11.53728,-4.975177 -11.53728,-11.156425 0,-6.181248 5.10833,-11.155908 11.53728,-11.155908 h 22.60718 z"
         sodipodi:nodetypes="csssccssscc"
         inkscape:label="Outline" />
      <path
         id="path22"
         style="color:#000000;display:inline;fill:#ffffff;stroke-linecap:round;stroke-linejoin:round;-inkscape-stroke:none;paint-order:stroke fill markers"
         d="m 159.3513,66.427397 h -22.60666 c -7.0015,0 -12.63851,5.466054 -12.63851,12.256099 0,6.790047 5.63701,12.257133 12.63851,12.257133 h 22.60666 z"
         sodipodi:nodetypes="cssscc"
         inkscape:label="Color" />
      <path
         id="path5"
         style="font-weight:500;font-size:21.6393px;line-height:0;font-family:'open sans';-inkscape-font-specification:'open sans Medium';letter-spacing:0px;word-spacing:0px;fill:#808080;stroke-width:6.6197;stroke-linecap:round;stroke-linejoin:round"
         d="m 203.11142,79.091643 c -1.19209,0 -2.15239,0.99537 -2.15239,2.20235 v 12.289296 c 0,1.20699 0.9603,2.20433 2.15239,2.20433 h 8.24899 c 1.19209,0 2.15303,-0.99734 2.15303,-2.20433 V 81.293993 c 0,-1.20698 -0.96094,-2.20235 -2.15303,-2.20235 z m 0,0.85252 h 8.24899 c 0.72113,0 1.30051,0.5872 1.30051,1.34983 v 12.289296 c 0,0.76264 -0.57938,1.3518 -1.30051,1.3518 h -8.24899 c -0.72114,0 -1.29985,-0.58916 -1.29985,-1.3518 V 81.293993 c 0,-0.76263 0.57871,-1.34983 1.29985,-1.34983 z m -11.6861,0.91173 v 13.166806 h 7.56488 v -1.60308 h -5.71905 V 80.855893 Z m 11.42757,0 v 13.166806 h 4.62905 c 0.95464,0 1.777,-0.14398 2.46746,-0.43217 0.69648,-0.29419 1.23406,-0.72043 1.61231,-1.27879 0.37826,-0.56439 0.56703,-1.24849 0.56703,-2.05305 0,-0.67244 -0.12284,-1.2222 -0.36903,-1.64848 -0.24016,-0.4323 -0.57038,-0.765066 -0.99067,-0.999226 -0.42028,-0.23416 -0.90089,-0.39672 -1.44127,-0.48678 v -0.0901 c 0.51634,-0.0961 0.95218,-0.27589 1.30643,-0.54007 0.35423,-0.26418 0.6243,-0.59761 0.81041,-0.99988 0.18614,-0.40227 0.27893,-0.85855 0.27893,-1.3689 0,-1.19481 -0.42302,-2.03828 -1.26959,-2.53061 -0.84659,-0.49233 -2.10732,-0.73873 -3.78244,-0.73873 z m 1.84583,1.54916 h 2.07146 c 1.05671,0 1.82851,0.15295 2.31485,0.45916 0.48634,0.30019 0.72953,0.79552 0.72953,1.48599 0,0.66645 -0.20415,1.17395 -0.61243,1.52217 -0.40828,0.34825 -1.14426,0.5223 -2.20698,0.5223 h -2.29643 z m 0,5.51182 h 2.38655 c 0.76252,0 1.36922,0.0871 1.81952,0.261146 0.45031,0.17412 0.77477,0.42627 0.97291,0.75649 0.20414,0.32422 0.30588,0.71459 0.30588,1.17091 0,0.72048 -0.22525,1.29389 -0.67556,1.72018 -0.44431,0.42629 -1.20971,0.63939 -2.29645,0.63939 h -2.51285 z"
         inkscape:label="Symbol Left Back"
         transform="matrix(-1,0,0,1,343.76588,-8.7550946)" />
    </g>
  </g>
</svg>
