<?xml version="1.0" encoding="UTF-8" standalone="no"?>
<!-- Created with Inkscape (http://www.inkscape.org/) -->

<svg
   width="36.34536mm"
   height="26.712582mm"
   viewBox="0 0 36.345359 26.712583"
   version="1.1"
   id="svg1"
   inkscape:version="1.3.2 (091e20e, 2023-11-25, custom)"
   sodipodi:docname="ps5-Right Back.svg"
   xmlns:inkscape="http://www.inkscape.org/namespaces/inkscape"
   xmlns:sodipodi="http://sodipodi.sourceforge.net/DTD/sodipodi-0.dtd"
   xmlns="http://www.w3.org/2000/svg"
   xmlns:svg="http://www.w3.org/2000/svg">
  <sodipodi:namedview
     id="namedview1"
     pagecolor="#53ff98"
     bordercolor="#000000"
     borderopacity="0.25"
     inkscape:showpageshadow="2"
     inkscape:pageopacity="0.0"
     inkscape:pagecheckerboard="0"
     inkscape:deskcolor="#d1d1d1"
     inkscape:document-units="mm"
     inkscape:zoom="3.9910213"
     inkscape:cx="26.81018"
     inkscape:cy="87.696851"
     inkscape:window-width="2560"
     inkscape:window-height="1344"
     inkscape:window-x="-9"
     inkscape:window-y="-9"
     inkscape:window-maximized="1"
     inkscape:current-layer="layer1" />
  <defs
     id="defs1" />
  <g
     inkscape:label="Button Prompt Right Back"
     id="layer1"
     transform="translate(-184.41458,-74.083333)">
    <g
       id="path18"
       style="display:none"
       inkscape:label="Style - Outline (White)"
       transform="translate(61.408643,8.7550943)">
      <path
         id="path19"
         style="color:#000000;display:inline;fill:#ffffff;stroke-linecap:round;stroke-linejoin:round;-inkscape-stroke:none"
         d="m 159.3513,66.427397 h -22.60666 c -7.0015,0 -12.63851,5.466047 -12.63851,12.256099 0,6.790053 5.63701,12.257133 12.63851,12.257133 h 22.60666 z"
         sodipodi:nodetypes="cssscc"
         inkscape:label="Color" />
      <path
         id="path20"
         style="color:#000000;display:inline;fill:#000000;stroke-linecap:round;stroke-linejoin:round;-inkscape-stroke:none"
         d="m 159.3513,65.328239 h -22.60718 c -7.57401,0 -13.73818,5.956415 -13.73818,13.355257 0,7.398843 6.16411,13.357325 13.73818,13.357325 h 22.60718 v -2.2009 h -22.60718 c -6.4289,0 -11.53728,-4.975177 -11.53728,-11.156425 0,-6.181248 5.10833,-11.155908 11.53728,-11.155908 h 22.60718 z"
         sodipodi:nodetypes="csssccssscc"
         inkscape:label="Outline" />
      <path
         id="text9"
         style="font-weight:500;font-size:21.6393px;line-height:0;font-family:'open sans';-inkscape-font-specification:'open sans Medium';letter-spacing:0px;word-spacing:0px;display:inline;fill:#000000;stroke-width:6.61966;stroke-linecap:round;stroke-linejoin:round"
         d="m 20.175137,5.0083429 c -1.19207,0 -2.15235,0.99537 -2.15235,2.20235 V 19.499923 c 0,1.20699 0.96028,2.20433 2.15235,2.20433 h 8.24896 c 1.19207,0 2.15302,-0.99734 2.15302,-2.20433 V 7.2106929 c 0,-1.20698 -0.96095,-2.20235 -2.15302,-2.20235 z m 0,0.85252 h 8.24896 c 0.72111,0 1.30049,0.58721 1.30049,1.34983 V 19.499923 c 0,0.76263 -0.57938,1.3518 -1.30049,1.3518 h -8.24896 c -0.72112,0 -1.29984,-0.58917 -1.29984,-1.3518 V 7.2106929 c 0,-0.76262 0.57872,-1.34983 1.29984,-1.34983 z m -0.25852,0.91172 V 19.939343 h 4.62901 c 0.95464,0 1.77701,-0.144 2.46746,-0.43219 0.69647,-0.29419 1.23404,-0.72041 1.6123,-1.27879 0.37825,-0.56437 0.56703,-1.24847 0.56703,-2.05302 0,-0.67245 -0.12284,-1.22218 -0.36904,-1.64848 -0.24016,-0.43227 -0.57038,-0.76505 -0.99065,-0.9992 -0.42029,-0.23417 -0.90025,-0.39673 -1.44062,-0.48679 v -0.0901 c 0.51636,-0.0961 0.95153,-0.27588 1.30576,-0.54006 0.35425,-0.26417 0.6243,-0.59761 0.81042,-0.99987 0.18613,-0.40226 0.27892,-0.85856 0.27892,-1.36891 0,-1.1947901 -0.42302,-2.0382601 -1.26957,-2.5305901 -0.84657,-0.49234 -2.10731,-0.73873 -3.78242,-0.73873 z m -12.67011,6.7e-4 V 19.939993 h 1.84648 v -5.38549 h 2.42272 l 3.20617,5.38549 h 2.11618 l -3.68374,-5.87228 c 0.45631,-0.1681 0.88251,-0.39913 1.27878,-0.69333 0.40228,-0.29419 0.72674,-0.67241 0.97291,-1.13473 0.24616,-0.4623 0.36903,-1.02996 0.36903,-1.7024 0,-0.8525801 -0.17662,-1.5546101 -0.53086,-2.1069801 -0.35423,-0.55837 -0.89502,-0.97307 -1.6215,-1.24327 -0.72048,-0.27617 -1.63628,-0.41375 -2.74702,-0.41375 z m 14.51593,1.54848 h 2.07144 c 1.05671,0 1.82852,0.15296 2.31485,0.45915 0.48632,0.30021 0.72951,0.79554 0.72951,1.4860101 0,0.66643 -0.20414,1.17393 -0.61243,1.52217 -0.40827,0.34822 -1.14358,0.5223 -2.2063,0.5223 h -2.29707 z m -12.66945,0.0185 h 1.66559 c 1.0627,0 1.84921,0.17407 2.35956,0.5223 0.51033,0.34224 0.7657,0.9246 0.7657,1.7471501 0,0.79254 -0.23999,1.39282 -0.72031,1.80109 -0.48032,0.40226 -1.23996,0.60321 -2.27865,0.60321 h -1.79189 z m 12.66945,5.4933801 h 2.38653 c 0.76252,0 1.36922,0.0871 1.81952,0.26116 0.4503,0.17411 0.77478,0.42626 0.9729,0.75648 0.20414,0.32422 0.30589,0.71459 0.30589,1.17091 0,0.72048 -0.22528,1.29388 -0.67558,1.72017 -0.44429,0.42627 -1.20969,0.63939 -2.29643,0.63939 h -2.51283 z"
         inkscape:label="Symbol Right Back"
         transform="translate(123.00594,65.328239)" />
    </g>
    <g
       id="g27"
       style="display:none"
       inkscape:label="Style - Outline (Black)"
       transform="translate(61.408643,8.7550943)">
      <path
         id="path26"
         style="color:#000000;display:inline;fill:#000000;stroke-linecap:round;stroke-linejoin:round;-inkscape-stroke:none"
         d="m 159.3513,66.427397 h -22.60666 c -7.0015,0 -12.63851,5.466047 -12.63851,12.256099 0,6.790053 5.63701,12.257133 12.63851,12.257133 h 22.60666 z"
         sodipodi:nodetypes="cssscc"
         inkscape:label="Color" />
      <path
         id="path27"
         style="color:#000000;display:inline;fill:#ffffff;stroke-linecap:round;stroke-linejoin:round;-inkscape-stroke:none"
         d="m 159.3513,65.328239 h -22.60718 c -7.57401,0 -13.73818,5.956415 -13.73818,13.355257 0,7.398843 6.16411,13.357325 13.73818,13.357325 h 22.60718 v -2.2009 h -22.60718 c -6.4289,0 -11.53728,-4.975177 -11.53728,-11.156425 0,-6.181248 5.10833,-11.155908 11.53728,-11.155908 h 22.60718 z"
         sodipodi:nodetypes="csssccssscc"
         inkscape:label="Outline" />
      <path
         id="path2"
         style="font-weight:500;font-size:21.6393px;line-height:0;font-family:'open sans';-inkscape-font-specification:'open sans Medium';letter-spacing:0px;word-spacing:0px;display:inline;fill:#ffffff;stroke-width:6.61966;stroke-linecap:round;stroke-linejoin:round"
         d="m 20.175137,5.0083429 c -1.19207,0 -2.15235,0.99537 -2.15235,2.20235 V 19.499923 c 0,1.20699 0.96028,2.20433 2.15235,2.20433 h 8.24896 c 1.19207,0 2.15302,-0.99734 2.15302,-2.20433 V 7.2106929 c 0,-1.20698 -0.96095,-2.20235 -2.15302,-2.20235 z m 0,0.85252 h 8.24896 c 0.72111,0 1.30049,0.58721 1.30049,1.34983 V 19.499923 c 0,0.76263 -0.57938,1.3518 -1.30049,1.3518 h -8.24896 c -0.72112,0 -1.29984,-0.58917 -1.29984,-1.3518 V 7.2106929 c 0,-0.76262 0.57872,-1.34983 1.29984,-1.34983 z m -0.25852,0.91172 V 19.939343 h 4.62901 c 0.95464,0 1.77701,-0.144 2.46746,-0.43219 0.69647,-0.29419 1.23404,-0.72041 1.6123,-1.27879 0.37825,-0.56437 0.56703,-1.24847 0.56703,-2.05302 0,-0.67245 -0.12284,-1.22218 -0.36904,-1.64848 -0.24016,-0.43227 -0.57038,-0.76505 -0.99065,-0.9992 -0.42029,-0.23417 -0.90025,-0.39673 -1.44062,-0.48679 v -0.0901 c 0.51636,-0.0961 0.95153,-0.27588 1.30576,-0.54006 0.35425,-0.26417 0.6243,-0.59761 0.81042,-0.99987 0.18613,-0.40226 0.27892,-0.85856 0.27892,-1.36891 0,-1.1947901 -0.42302,-2.0382601 -1.26957,-2.5305901 -0.84657,-0.49234 -2.10731,-0.73873 -3.78242,-0.73873 z m -12.67011,6.7e-4 V 19.939993 h 1.84648 v -5.38549 h 2.42272 l 3.20617,5.38549 h 2.11618 l -3.68374,-5.87228 c 0.45631,-0.1681 0.88251,-0.39913 1.27878,-0.69333 0.40228,-0.29419 0.72674,-0.67241 0.97291,-1.13473 0.24616,-0.4623 0.36903,-1.02996 0.36903,-1.7024 0,-0.8525801 -0.17662,-1.5546101 -0.53086,-2.1069801 -0.35423,-0.55837 -0.89502,-0.97307 -1.6215,-1.24327 -0.72048,-0.27617 -1.63628,-0.41375 -2.74702,-0.41375 z m 14.51593,1.54848 h 2.07144 c 1.05671,0 1.82852,0.15296 2.31485,0.45915 0.48632,0.30021 0.72951,0.79554 0.72951,1.4860101 0,0.66643 -0.20414,1.17393 -0.61243,1.52217 -0.40827,0.34822 -1.14358,0.5223 -2.2063,0.5223 h -2.29707 z m -12.66945,0.0185 h 1.66559 c 1.0627,0 1.84921,0.17407 2.35956,0.5223 0.51033,0.34224 0.7657,0.9246 0.7657,1.7471501 0,0.79254 -0.23999,1.39282 -0.72031,1.80109 -0.48032,0.40226 -1.23996,0.60321 -2.27865,0.60321 h -1.79189 z m 12.66945,5.4933801 h 2.38653 c 0.76252,0 1.36922,0.0871 1.81952,0.26116 0.4503,0.17411 0.77478,0.42626 0.9729,0.75648 0.20414,0.32422 0.30589,0.71459 0.30589,1.17091 0,0.72048 -0.22528,1.29388 -0.67558,1.72017 -0.44429,0.42627 -1.20969,0.63939 -2.29643,0.63939 h -2.51283 z"
         inkscape:label="Symbol Right Back"
         transform="translate(123.00594,65.328239)" />
    </g>
    <g
       id="rect1"
       style="display:inline"
       inkscape:label="Style - Transparent"
       transform="translate(61.408643,8.7550943)">
      <path
         id="path21"
         style="color:#000000;display:inline;fill:#808080;fill-opacity:0.5;stroke-linecap:round;stroke-linejoin:round;-inkscape-stroke:none;paint-order:stroke fill markers"
         d="m 159.3513,65.328239 h -22.60718 c -7.57401,0 -13.73818,5.956415 -13.73818,13.355257 0,7.398843 6.16411,13.357325 13.73818,13.357325 h 22.60718 v -2.2009 h -22.60718 c -6.4289,0 -11.53728,-4.975177 -11.53728,-11.156425 0,-6.181248 5.10833,-11.155908 11.53728,-11.155908 h 22.60718 z"
         sodipodi:nodetypes="csssccssscc"
         inkscape:label="Outline" />
      <path
         id="path22"
         style="color:#000000;display:inline;fill:#ffffff;stroke-linecap:round;stroke-linejoin:round;-inkscape-stroke:none;paint-order:stroke fill markers"
         d="m 159.3513,66.427397 h -22.60666 c -7.0015,0 -12.63851,5.466054 -12.63851,12.256099 0,6.790047 5.63701,12.257133 12.63851,12.257133 h 22.60666 z"
         sodipodi:nodetypes="cssscc"
         inkscape:label="Color" />
      <path
         id="path1"
         style="font-weight:500;font-size:21.6393px;line-height:0;font-family:'open sans';-inkscape-font-specification:'open sans Medium';letter-spacing:0px;word-spacing:0px;display:inline;fill:#808080;stroke-width:6.61966;stroke-linecap:round;stroke-linejoin:round"
         d="m 20.175137,5.0083429 c -1.19207,0 -2.15235,0.99537 -2.15235,2.20235 V 19.499923 c 0,1.20699 0.96028,2.20433 2.15235,2.20433 h 8.24896 c 1.19207,0 2.15302,-0.99734 2.15302,-2.20433 V 7.2106929 c 0,-1.20698 -0.96095,-2.20235 -2.15302,-2.20235 z m 0,0.85252 h 8.24896 c 0.72111,0 1.30049,0.58721 1.30049,1.34983 V 19.499923 c 0,0.76263 -0.57938,1.3518 -1.30049,1.3518 h -8.24896 c -0.72112,0 -1.29984,-0.58917 -1.29984,-1.3518 V 7.2106929 c 0,-0.76262 0.57872,-1.34983 1.29984,-1.34983 z m -0.25852,0.91172 V 19.939343 h 4.62901 c 0.95464,0 1.77701,-0.144 2.46746,-0.43219 0.69647,-0.29419 1.23404,-0.72041 1.6123,-1.27879 0.37825,-0.56437 0.56703,-1.24847 0.56703,-2.05302 0,-0.67245 -0.12284,-1.22218 -0.36904,-1.64848 -0.24016,-0.43227 -0.57038,-0.76505 -0.99065,-0.9992 -0.42029,-0.23417 -0.90025,-0.39673 -1.44062,-0.48679 v -0.0901 c 0.51636,-0.0961 0.95153,-0.27588 1.30576,-0.54006 0.35425,-0.26417 0.6243,-0.59761 0.81042,-0.99987 0.18613,-0.40226 0.27892,-0.85856 0.27892,-1.36891 0,-1.1947901 -0.42302,-2.0382601 -1.26957,-2.5305901 -0.84657,-0.49234 -2.10731,-0.73873 -3.78242,-0.73873 z m -12.67011,6.7e-4 V 19.939993 h 1.84648 v -5.38549 h 2.42272 l 3.20617,5.38549 h 2.11618 l -3.68374,-5.87228 c 0.45631,-0.1681 0.88251,-0.39913 1.27878,-0.69333 0.40228,-0.29419 0.72674,-0.67241 0.97291,-1.13473 0.24616,-0.4623 0.36903,-1.02996 0.36903,-1.7024 0,-0.8525801 -0.17662,-1.5546101 -0.53086,-2.1069801 -0.35423,-0.55837 -0.89502,-0.97307 -1.6215,-1.24327 -0.72048,-0.27617 -1.63628,-0.41375 -2.74702,-0.41375 z m 14.51593,1.54848 h 2.07144 c 1.05671,0 1.82852,0.15296 2.31485,0.45915 0.48632,0.30021 0.72951,0.79554 0.72951,1.4860101 0,0.66643 -0.20414,1.17393 -0.61243,1.52217 -0.40827,0.34822 -1.14358,0.5223 -2.2063,0.5223 h -2.29707 z m -12.66945,0.0185 h 1.66559 c 1.0627,0 1.84921,0.17407 2.35956,0.5223 0.51033,0.34224 0.7657,0.9246 0.7657,1.7471501 0,0.79254 -0.23999,1.39282 -0.72031,1.80109 -0.48032,0.40226 -1.23996,0.60321 -2.27865,0.60321 h -1.79189 z m 12.66945,5.4933801 h 2.38653 c 0.76252,0 1.36922,0.0871 1.81952,0.26116 0.4503,0.17411 0.77478,0.42626 0.9729,0.75648 0.20414,0.32422 0.30589,0.71459 0.30589,1.17091 0,0.72048 -0.22528,1.29388 -0.67558,1.72017 -0.44429,0.42627 -1.20969,0.63939 -2.29643,0.63939 h -2.51283 z"
         inkscape:label="Symbol Right Back"
         transform="translate(123.00594,65.328239)" />
    </g>
  </g>
</svg>
