<?xml version="1.0" encoding="UTF-8" standalone="no"?>
<!-- Created with Inkscape (http://www.inkscape.org/) -->

<svg
   width="73.791016mm"
   height="36.202576mm"
   viewBox="0 0 73.790997 36.202573"
   version="1.1"
   id="svg1"
   xml:space="preserve"
   inkscape:version="1.3.2 (091e20e, 2023-11-25, custom)"
   sodipodi:docname="ps5-Mute.svg"
   xmlns:inkscape="http://www.inkscape.org/namespaces/inkscape"
   xmlns:sodipodi="http://sodipodi.sourceforge.net/DTD/sodipodi-0.dtd"
   xmlns="http://www.w3.org/2000/svg"
   xmlns:svg="http://www.w3.org/2000/svg"><sodipodi:namedview
     id="namedview1"
     pagecolor="#00f044"
     bordercolor="#000000"
     borderopacity="0.25"
     inkscape:showpageshadow="2"
     inkscape:pageopacity="0.0"
     inkscape:pagecheckerboard="0"
     inkscape:deskcolor="#d1d1d1"
     inkscape:document-units="mm"
     inkscape:zoom="2.9031256"
     inkscape:cx="145.87726"
     inkscape:cy="53.907416"
     inkscape:window-width="2560"
     inkscape:window-height="1351"
     inkscape:window-x="-9"
     inkscape:window-y="-9"
     inkscape:window-maximized="1"
     inkscape:current-layer="layer1" /><defs
     id="defs1"><inkscape:path-effect
       effect="bspline"
       id="path-effect10"
       is_visible="true"
       lpeversion="1.3"
       weight="33.333333"
       steps="2"
       helper_size="0"
       apply_no_weight="true"
       apply_with_weight="true"
       only_selected="false"
       uniform="false" /><rect
       x="-6"
       y="-34"
       width="85"
       height="25.25"
       id="rect19" /><inkscape:perspective
       sodipodi:type="inkscape:persp3d"
       inkscape:vp_x="0 : 68.63829 : 1"
       inkscape:vp_y="0 : 999.99999 : 0"
       inkscape:vp_z="44.51922 : 68.63829 : 1"
       inkscape:persp3d-origin="22.259611 : 64.832814 : 1"
       id="perspective4" /><rect
       x="-6"
       y="-34"
       width="85"
       height="25.25"
       id="rect20" /><rect
       x="-6"
       y="-34"
       width="85"
       height="25.25"
       id="rect21" /><rect
       x="-6"
       y="-34"
       width="85"
       height="25.25"
       id="rect22" /></defs><g
     id="layer1"
     inkscape:label="Button Mute"
     transform="translate(-0.140625,-0.140625)"><g
       id="rect2"
       inkscape:label="Style - Outline (White)"
       style="display:none"><path
         style="color:#000000;fill:#fbfbfb;stroke-linecap:round;stroke-linejoin:round;-inkscape-stroke:none"
         d="M 5.9218227,1.140555 H 68.149868 c 2.648822,0 4.781268,2.1324454 4.781268,4.7812677 0,2.6488222 -2.132446,4.7812673 -4.781268,4.7812673 H 5.9218227 c -2.6488223,0 -4.7812677,-2.1324451 -4.7812677,-4.7812673 0,-2.6488223 2.1324454,-4.7812677 4.7812677,-4.7812677 z"
         id="path5"
         inkscape:label="Color" /><path
         style="color:#000000;display:inline;fill:#000000;stroke-linecap:round;stroke-linejoin:round;-inkscape-stroke:none"
         d="m 5.921875,0.140625 c -3.1855219,0 -5.78125,2.5957281 -5.78125,5.78125 0,3.1855219 2.5957281,5.78125 5.78125,5.78125 h 62.228516 c 3.185521,0 5.78125,-2.5957281 5.78125,-5.78125 0,-3.1855219 -2.595729,-5.78125 -5.78125,-5.78125 z m 0,2 h 62.228516 c 2.112117,0 3.78125,1.6691326 3.78125,3.78125 0,2.1121174 -1.669133,3.78125 -3.78125,3.78125 H 5.921875 c -2.1121174,0 -3.78125,-1.6691326 -3.78125,-3.78125 0,-2.1121174 1.6691326,-3.78125 3.78125,-3.78125 z"
         id="path6"
         inkscape:label="Outline" /><path
         id="path57"
         style="display:inline;fill:#000000;stroke-width:0.531516;stroke-linecap:round;stroke-linejoin:round;paint-order:stroke fill markers"
         d="m 34.186138,15.955927 c -0.743154,0 -1.341387,0.647613 -1.341387,1.451375 v 2.447493 l 7.696252,7.696253 V 17.407302 c 0,-0.803762 -0.598232,-1.451375 -1.341387,-1.451375 z m -5.901311,0.950197 -0.816965,0.816399 18.620679,18.620678 0.816966,-0.816965 z m 4.559924,7.803972 v 4.144921 c 0,0.803761 0.598233,1.45024 1.341387,1.45024 h 4.25434 z m -2.004711,2.022285 a 0.81552659,0.7914038 0 0 0 -0.815264,0.791453 v 2.34261 c 0,1.827282 1.539655,3.32342 3.422635,3.32342 h 2.191802 v 1.389011 H 30.8939 c -0.481846,0 -0.869124,0.385115 -0.869124,0.863454 0,0.478335 0.387278,0.863454 0.869124,0.863454 h 11.598521 c 0.481847,0 0.869691,-0.385119 0.869691,-0.863454 0,-0.09101 -0.01759,-0.176857 -0.04365,-0.259094 -0.08425,-0.265777 -0.292084,-0.473547 -0.559007,-0.559005 -0.08461,-0.02709 -0.173119,-0.04535 -0.26703,-0.04535 h -4.745313 v -1.389011 h 2.189534 c 0.414411,0 0.810633,-0.07609 1.179241,-0.208635 l -1.373703,-1.37427 h -6.29477 c -1.007593,0 -1.790973,-0.762729 -1.790973,-1.740515 v -2.34261 a 0.81552659,0.7914038 0 0 0 -0.816398,-0.791452 z m 11.706241,0 a 0.81552659,0.7914038 0 0 0 -0.815831,0.791453 v 1.216661 l 1.593676,1.593109 c 0.02256,-0.153218 0.03798,-0.308164 0.03798,-0.46716 v -2.34261 a 0.81552659,0.7914038 0 0 0 -0.815831,-0.791453 z"
         inkscape:label="Symbol Mute" /></g><g
       id="g9"
       inkscape:label="Style - Outline (Black)"
       style="display:none"><path
         style="color:#000000;fill:#000000;stroke-linecap:round;stroke-linejoin:round;-inkscape-stroke:none"
         d="M 5.9218227,1.140555 H 68.149868 c 2.648822,0 4.781268,2.1324454 4.781268,4.7812677 0,2.6488222 -2.132446,4.7812673 -4.781268,4.7812673 H 5.9218227 c -2.6488223,0 -4.7812677,-2.1324451 -4.7812677,-4.7812673 0,-2.6488223 2.1324454,-4.7812677 4.7812677,-4.7812677 z"
         id="path7"
         inkscape:label="Color" /><path
         style="color:#000000;display:inline;fill:#ffffff;stroke-linecap:round;stroke-linejoin:round;-inkscape-stroke:none"
         d="m 5.921875,0.140625 c -3.1855219,0 -5.78125,2.5957281 -5.78125,5.78125 0,3.1855219 2.5957281,5.78125 5.78125,5.78125 h 62.228516 c 3.185521,0 5.78125,-2.5957281 5.78125,-5.78125 0,-3.1855219 -2.595729,-5.78125 -5.78125,-5.78125 z m 0,2 h 62.228516 c 2.112117,0 3.78125,1.6691326 3.78125,3.78125 0,2.1121174 -1.669133,3.78125 -3.78125,3.78125 H 5.921875 c -2.1121174,0 -3.78125,-1.6691326 -3.78125,-3.78125 0,-2.1121174 1.6691326,-3.78125 3.78125,-3.78125 z"
         id="path8"
         inkscape:label="Outline" /><path
         id="path59"
         style="display:inline;fill:#ffffff;stroke-width:0.531516;stroke-linecap:round;stroke-linejoin:round;paint-order:stroke fill markers"
         d="m 34.186138,15.955927 c -0.743154,0 -1.341387,0.647613 -1.341387,1.451375 v 2.447493 l 7.696252,7.696253 V 17.407302 c 0,-0.803762 -0.598232,-1.451375 -1.341387,-1.451375 z m -5.901311,0.950197 -0.816965,0.816399 18.620679,18.620678 0.816966,-0.816965 z m 4.559924,7.803972 v 4.144921 c 0,0.803761 0.598233,1.45024 1.341387,1.45024 h 4.25434 z m -2.004711,2.022285 a 0.81552659,0.7914038 0 0 0 -0.815264,0.791453 v 2.34261 c 0,1.827282 1.539655,3.32342 3.422635,3.32342 h 2.191802 v 1.389011 H 30.8939 c -0.481846,0 -0.869124,0.385115 -0.869124,0.863454 0,0.478335 0.387278,0.863454 0.869124,0.863454 h 11.598521 c 0.481847,0 0.869691,-0.385119 0.869691,-0.863454 0,-0.09101 -0.01759,-0.176857 -0.04365,-0.259094 -0.08425,-0.265777 -0.292084,-0.473547 -0.559007,-0.559005 -0.08461,-0.02709 -0.173119,-0.04535 -0.26703,-0.04535 h -4.745313 v -1.389011 h 2.189534 c 0.414411,0 0.810633,-0.07609 1.179241,-0.208635 l -1.373703,-1.37427 h -6.29477 c -1.007593,0 -1.790973,-0.762729 -1.790973,-1.740515 v -2.34261 a 0.81552659,0.7914038 0 0 0 -0.816398,-0.791452 z m 11.706241,0 a 0.81552659,0.7914038 0 0 0 -0.815831,0.791453 v 1.216661 l 1.593676,1.593109 c 0.02256,-0.153218 0.03798,-0.308164 0.03798,-0.46716 v -2.34261 a 0.81552659,0.7914038 0 0 0 -0.815831,-0.791453 z"
         inkscape:label="Symbol Mute" /></g><g
       id="rect1"
       inkscape:label="Style - Transparent"
       style="display:inline"><path
         style="color:#000000;display:inline;fill:#808080;fill-opacity:0.501961;stroke-linecap:round;stroke-linejoin:round;-inkscape-stroke:none;paint-order:stroke fill markers"
         d="m 5.921875,0.140625 c -3.1855219,0 -5.78125,2.5957281 -5.78125,5.78125 0,3.1855219 2.5957281,5.78125 5.78125,5.78125 h 62.228516 c 3.185521,0 5.78125,-2.5957281 5.78125,-5.78125 0,-3.1855219 -2.595729,-5.78125 -5.78125,-5.78125 z m 0,2 h 62.228516 c 2.112117,0 3.78125,1.6691326 3.78125,3.78125 0,2.1121174 -1.669133,3.78125 -3.78125,3.78125 H 5.921875 c -2.1121174,0 -3.78125,-1.6691326 -3.78125,-3.78125 0,-2.1121174 1.6691326,-3.78125 3.78125,-3.78125 z"
         id="path2"
         inkscape:label="Outline" /><path
         style="color:#000000;fill:#fbfbfb;stroke-linecap:round;stroke-linejoin:round;-inkscape-stroke:none;paint-order:stroke fill markers"
         d="M 5.9218227,1.140555 H 68.149868 c 2.648822,0 4.781268,2.1324454 4.781268,4.7812677 0,2.6488222 -2.132446,4.7812673 -4.781268,4.7812673 H 5.9218227 c -2.6488223,0 -4.7812677,-2.1324451 -4.7812677,-4.7812673 0,-2.6488223 2.1324454,-4.7812677 4.7812677,-4.7812677 z"
         id="path3"
         inkscape:label="Color" /><path
         id="path58"
         style="fill:#808080;stroke-width:0.531516;stroke-linecap:round;stroke-linejoin:round;paint-order:stroke fill markers"
         d="m 34.186138,15.955927 c -0.743154,0 -1.341387,0.647613 -1.341387,1.451375 v 2.447493 l 7.696252,7.696253 V 17.407302 c 0,-0.803762 -0.598232,-1.451375 -1.341387,-1.451375 z m -5.901311,0.950197 -0.816965,0.816399 18.620679,18.620678 0.816966,-0.816965 z m 4.559924,7.803972 v 4.144921 c 0,0.803761 0.598233,1.45024 1.341387,1.45024 h 4.25434 z m -2.004711,2.022285 a 0.81552659,0.7914038 0 0 0 -0.815264,0.791453 v 2.34261 c 0,1.827282 1.539655,3.32342 3.422635,3.32342 h 2.191802 v 1.389011 H 30.8939 c -0.481846,0 -0.869124,0.385115 -0.869124,0.863454 0,0.478335 0.387278,0.863454 0.869124,0.863454 h 11.598521 c 0.481847,0 0.869691,-0.385119 0.869691,-0.863454 0,-0.09101 -0.01759,-0.176857 -0.04365,-0.259094 -0.08425,-0.265777 -0.292084,-0.473547 -0.559007,-0.559005 -0.08461,-0.02709 -0.173119,-0.04535 -0.26703,-0.04535 h -4.745313 v -1.389011 h 2.189534 c 0.414411,0 0.810633,-0.07609 1.179241,-0.208635 l -1.373703,-1.37427 h -6.29477 c -1.007593,0 -1.790973,-0.762729 -1.790973,-1.740515 v -2.34261 a 0.81552659,0.7914038 0 0 0 -0.816398,-0.791452 z m 11.706241,0 a 0.81552659,0.7914038 0 0 0 -0.815831,0.791453 v 1.216661 l 1.593676,1.593109 c 0.02256,-0.153218 0.03798,-0.308164 0.03798,-0.46716 v -2.34261 a 0.81552659,0.7914038 0 0 0 -0.815831,-0.791453 z"
         inkscape:label="Symbol Mute" /></g></g></svg>
