<?xml version="1.0" encoding="UTF-8" standalone="no"?>
<!-- Created with Inkscape (http://www.inkscape.org/) -->

<svg
   width="48.910149mm"
   height="31.757816mm"
   viewBox="0 0 48.910154 31.757817"
   version="1.1"
   id="svg1"
   inkscape:version="1.3.2 (091e20e, 2023-11-25, custom)"
   sodipodi:docname="ps5-Mute-Alt.svg"
   xml:space="preserve"
   xmlns:inkscape="http://www.inkscape.org/namespaces/inkscape"
   xmlns:sodipodi="http://sodipodi.sourceforge.net/DTD/sodipodi-0.dtd"
   xmlns="http://www.w3.org/2000/svg"
   xmlns:svg="http://www.w3.org/2000/svg"><sodipodi:namedview
     id="namedview1"
     pagecolor="#50ff5f"
     bordercolor="#000000"
     borderopacity="0.25"
     inkscape:showpageshadow="2"
     inkscape:pageopacity="0.0"
     inkscape:pagecheckerboard="0"
     inkscape:deskcolor="#d1d1d1"
     inkscape:document-units="mm"
     inkscape:zoom="4.0515992"
     inkscape:cx="37.886275"
     inkscape:cy="72.317124"
     inkscape:window-width="2560"
     inkscape:window-height="1344"
     inkscape:window-x="-9"
     inkscape:window-y="-9"
     inkscape:window-maximized="1"
     inkscape:current-layer="layer1"
     showgrid="false" /><defs
     id="defs1"><inkscape:path-effect
       effect="bspline"
       id="path-effect12"
       is_visible="true"
       lpeversion="1.3"
       weight="33.333333"
       steps="2"
       helper_size="0"
       apply_no_weight="true"
       apply_with_weight="true"
       only_selected="false"
       uniform="false" /><inkscape:path-effect
       effect="bspline"
       id="path-effect10"
       is_visible="true"
       lpeversion="1.3"
       weight="33.333333"
       steps="2"
       helper_size="0"
       apply_no_weight="true"
       apply_with_weight="true"
       only_selected="false"
       uniform="false" /><rect
       x="-6"
       y="-34"
       width="85"
       height="25.25"
       id="rect22" /><rect
       x="-6"
       y="-34"
       width="85"
       height="25.25"
       id="rect11" /><rect
       x="-6"
       y="-34"
       width="85"
       height="25.25"
       id="rect12" /></defs><g
     inkscape:label="Button Mute"
     id="layer1"
     transform="translate(-133.87891,-82.814453)"><g
       id="rect1"
       inkscape:label="Style - Outline (White)"
       style="display:none"><path
         style="color:#000000;display:inline;fill:#ffffff;stroke-linecap:round;stroke-linejoin:round;-inkscape-stroke:none"
         d="m 149.37507,84.214584 h 17.91721 c 7.80913,0 14.0959,6.286768 14.0959,14.095891 V 99.0771 c 0,7.80912 -6.28677,14.09589 -14.0959,14.09589 h -17.91721 c -7.80913,0 -14.0959,-6.28677 -14.0959,-14.09589 v -0.766625 c 0,-7.809123 6.28677,-14.095891 14.0959,-14.095891 z"
         id="path4"
         inkscape:label="Shape" /><path
         style="color:#000000;display:inline;fill:#000000;stroke-linecap:round;stroke-linejoin:round;-inkscape-stroke:none"
         d="m 149.375,82.814453 c -8.5605,0 -15.49609,6.935595 -15.49609,15.496094 v 0.765625 c 0,8.560498 6.93559,15.496098 15.49609,15.496098 h 17.91797 c 8.5605,0 15.49609,-6.9356 15.49609,-15.496098 v -0.765625 c 0,-8.560499 -6.93559,-15.496094 -15.49609,-15.496094 z m 0,2.800781 h 17.91797 c 7.05773,0 12.69531,5.63758 12.69531,12.695313 v 0.765625 c 0,7.057728 -5.63758,12.697268 -12.69531,12.697268 H 149.375 c -7.05773,0 -12.69531,-5.63954 -12.69531,-12.697268 v -0.765625 c 0,-7.057733 5.63758,-12.695313 12.69531,-12.695313 z"
         id="path5"
         inkscape:label="Outline" /><path
         id="path8"
         style="display:inline;fill:#000000;stroke-width:0.531516;stroke-linecap:round;stroke-linejoin:round;paint-order:stroke fill markers"
         d="m 156.12964,88.499724 c -0.74316,0 -1.34139,0.647613 -1.34139,1.451375 v 2.447493 l 7.69625,7.696258 V 89.951099 c 0,-0.803762 -0.59823,-1.451375 -1.34138,-1.451375 z m -5.90131,0.950197 -0.81697,0.816399 18.62068,18.62068 0.81697,-0.81697 z m 4.55992,7.803972 v 4.144917 c 0,0.80377 0.59823,1.45024 1.34139,1.45024 h 4.25434 z m -2.00471,2.022285 a 0.81552659,0.7914038 0 0 0 -0.81526,0.791452 v 2.34261 c 0,1.82728 1.53965,3.32342 3.42263,3.32342 h 2.1918 v 1.38901 h -4.74531 c -0.48185,0 -0.86912,0.38512 -0.86912,0.86346 0,0.47833 0.38727,0.86345 0.86912,0.86345 h 11.59852 c 0.48185,0 0.86969,-0.38512 0.86969,-0.86345 0,-0.091 -0.0176,-0.17686 -0.0437,-0.2591 -0.0842,-0.26577 -0.29208,-0.47354 -0.55901,-0.559 -0.0846,-0.0271 -0.17311,-0.0453 -0.26703,-0.0453 h -4.74531 v -1.38901 h 2.18954 c 0.41441,0 0.81063,-0.0761 1.17924,-0.20864 l -1.37371,-1.37427 h -6.29477 c -1.00759,0 -1.79097,-0.76273 -1.79097,-1.74051 v -2.34261 a 0.81552659,0.7914038 0 0 0 -0.8164,-0.791456 z m 11.70624,0 a 0.81552659,0.7914038 0 0 0 -0.81583,0.791452 v 1.21666 l 1.59368,1.59311 c 0.0226,-0.15322 0.038,-0.30816 0.038,-0.46716 v -2.34261 a 0.81552659,0.7914038 0 0 0 -0.81584,-0.791452 z"
         inkscape:label="Symbol Mute" /></g><g
       id="g7"
       inkscape:label="Style - Outline (Black)"
       style="display:none"><path
         style="color:#000000;display:inline;fill:#000000;stroke-linecap:round;stroke-linejoin:round;-inkscape-stroke:none"
         d="m 149.37507,84.214584 h 17.91721 c 7.80913,0 14.0959,6.286768 14.0959,14.095891 V 99.0771 c 0,7.80912 -6.28677,14.09589 -14.0959,14.09589 h -17.91721 c -7.80913,0 -14.0959,-6.28677 -14.0959,-14.09589 v -0.766625 c 0,-7.809123 6.28677,-14.095891 14.0959,-14.095891 z"
         id="path6"
         inkscape:label="Shape" /><path
         style="color:#000000;display:inline;fill:#ffffff;stroke-linecap:round;stroke-linejoin:round;-inkscape-stroke:none"
         d="m 149.375,82.814453 c -8.5605,0 -15.49609,6.935595 -15.49609,15.496094 v 0.765625 c 0,8.560498 6.93559,15.496098 15.49609,15.496098 h 17.91797 c 8.5605,0 15.49609,-6.9356 15.49609,-15.496098 v -0.765625 c 0,-8.560499 -6.93559,-15.496094 -15.49609,-15.496094 z m 0,2.800781 h 17.91797 c 7.05773,0 12.69531,5.63758 12.69531,12.695313 v 0.765625 c 0,7.057728 -5.63758,12.697268 -12.69531,12.697268 H 149.375 c -7.05773,0 -12.69531,-5.63954 -12.69531,-12.697268 v -0.765625 c 0,-7.057733 5.63758,-12.695313 12.69531,-12.695313 z"
         id="path7"
         inkscape:label="Outline" /><path
         id="path58"
         style="display:inline;fill:#ffffff;stroke-width:0.531516;stroke-linecap:round;stroke-linejoin:round;paint-order:stroke fill markers"
         d="m 156.12964,88.499724 c -0.74316,0 -1.34139,0.647613 -1.34139,1.451375 v 2.447493 l 7.69625,7.696258 V 89.951099 c 0,-0.803762 -0.59823,-1.451375 -1.34138,-1.451375 z m -5.90131,0.950197 -0.81697,0.816399 18.62068,18.62068 0.81697,-0.81697 z m 4.55992,7.803972 v 4.144917 c 0,0.80377 0.59823,1.45024 1.34139,1.45024 h 4.25434 z m -2.00471,2.022285 a 0.81552659,0.7914038 0 0 0 -0.81526,0.791452 v 2.34261 c 0,1.82728 1.53965,3.32342 3.42263,3.32342 h 2.1918 v 1.38901 h -4.74531 c -0.48185,0 -0.86912,0.38512 -0.86912,0.86346 0,0.47833 0.38727,0.86345 0.86912,0.86345 h 11.59852 c 0.48185,0 0.86969,-0.38512 0.86969,-0.86345 0,-0.091 -0.0176,-0.17686 -0.0437,-0.2591 -0.0842,-0.26577 -0.29208,-0.47354 -0.55901,-0.559 -0.0846,-0.0271 -0.17311,-0.0453 -0.26703,-0.0453 h -4.74531 v -1.38901 h 2.18954 c 0.41441,0 0.81063,-0.0761 1.17924,-0.20864 l -1.37371,-1.37427 h -6.29477 c -1.00759,0 -1.79097,-0.76273 -1.79097,-1.74051 v -2.34261 a 0.81552659,0.7914038 0 0 0 -0.8164,-0.791456 z m 11.70624,0 a 0.81552659,0.7914038 0 0 0 -0.81583,0.791452 v 1.21666 l 1.59368,1.59311 c 0.0226,-0.15322 0.038,-0.30816 0.038,-0.46716 v -2.34261 a 0.81552659,0.7914038 0 0 0 -0.81584,-0.791452 z"
         inkscape:label="Symbol Mute" /></g><g
       id="rect24"
       inkscape:label="Style - Transparent"
       style="display:inline"><path
         style="color:#000000;fill:#808080;fill-opacity:0.501961;stroke-linecap:round;stroke-linejoin:round;-inkscape-stroke:none;paint-order:stroke fill markers"
         d="m 149.375,82.814453 c -8.5605,0 -15.49609,6.935595 -15.49609,15.496094 v 0.765625 c 0,8.560498 6.93559,15.496098 15.49609,15.496098 h 17.91797 c 8.5605,0 15.49609,-6.9356 15.49609,-15.496098 v -0.765625 c 0,-8.560499 -6.93559,-15.496094 -15.49609,-15.496094 z m 0,2.800781 h 17.91797 c 7.05773,0 12.69531,5.63758 12.69531,12.695313 v 0.765625 c 0,7.057728 -5.63758,12.697268 -12.69531,12.697268 H 149.375 c -7.05773,0 -12.69531,-5.63954 -12.69531,-12.697268 v -0.765625 c 0,-7.057733 5.63758,-12.695313 12.69531,-12.695313 z"
         id="path2"
         inkscape:label="Outline" /><path
         style="color:#000000;display:inline;fill:#ffffff;stroke-linecap:round;stroke-linejoin:round;-inkscape-stroke:none;paint-order:stroke fill markers"
         d="m 149.37507,84.214584 h 17.91721 c 7.80913,0 14.0959,6.286768 14.0959,14.095891 V 99.0771 c 0,7.80912 -6.28677,14.09589 -14.0959,14.09589 h -17.91721 c -7.80913,0 -14.0959,-6.28677 -14.0959,-14.09589 v -0.766625 c 0,-7.809123 6.28677,-14.095891 14.0959,-14.095891 z"
         id="path3"
         inkscape:label="Shape" /><path
         id="path1"
         style="display:inline;fill:#808080;stroke-width:0.531516;stroke-linecap:round;stroke-linejoin:round;paint-order:stroke fill markers"
         d="m 156.12964,88.499724 c -0.74316,0 -1.34139,0.647613 -1.34139,1.451375 v 2.447493 l 7.69625,7.696258 V 89.951099 c 0,-0.803762 -0.59823,-1.451375 -1.34138,-1.451375 z m -5.90131,0.950197 -0.81697,0.816399 18.62068,18.62068 0.81697,-0.81697 z m 4.55992,7.803972 v 4.144917 c 0,0.80377 0.59823,1.45024 1.34139,1.45024 h 4.25434 z m -2.00471,2.022285 a 0.81552659,0.7914038 0 0 0 -0.81526,0.791452 v 2.34261 c 0,1.82728 1.53965,3.32342 3.42263,3.32342 h 2.1918 v 1.38901 h -4.74531 c -0.48185,0 -0.86912,0.38512 -0.86912,0.86346 0,0.47833 0.38727,0.86345 0.86912,0.86345 h 11.59852 c 0.48185,0 0.86969,-0.38512 0.86969,-0.86345 0,-0.091 -0.0176,-0.17686 -0.0437,-0.2591 -0.0842,-0.26577 -0.29208,-0.47354 -0.55901,-0.559 -0.0846,-0.0271 -0.17311,-0.0453 -0.26703,-0.0453 h -4.74531 v -1.38901 h 2.18954 c 0.41441,0 0.81063,-0.0761 1.17924,-0.20864 l -1.37371,-1.37427 h -6.29477 c -1.00759,0 -1.79097,-0.76273 -1.79097,-1.74051 v -2.34261 a 0.81552659,0.7914038 0 0 0 -0.8164,-0.791456 z m 11.70624,0 a 0.81552659,0.7914038 0 0 0 -0.81583,0.791452 v 1.21666 l 1.59368,1.59311 c 0.0226,-0.15322 0.038,-0.30816 0.038,-0.46716 v -2.34261 a 0.81552659,0.7914038 0 0 0 -0.81584,-0.791452 z"
         inkscape:label="Symbol Mute" /></g></g></svg>
