<?xml version="1.0" encoding="UTF-8" standalone="no"?>
<!-- Created with Inkscape (http://www.inkscape.org/) -->

<svg
   width="23.626949mm"
   height="25.367189mm"
   viewBox="0 0 23.626949 25.367189"
   version="1.1"
   id="svg1"
   xml:space="preserve"
   sodipodi:docname="nintendo-L Click.svg"
   inkscape:version="1.3.2 (091e20e, 2023-11-25, custom)"
   xmlns:inkscape="http://www.inkscape.org/namespaces/inkscape"
   xmlns:sodipodi="http://sodipodi.sourceforge.net/DTD/sodipodi-0.dtd"
   xmlns="http://www.w3.org/2000/svg"
   xmlns:svg="http://www.w3.org/2000/svg"><sodipodi:namedview
     id="namedview1"
     pagecolor="#65ffaf"
     bordercolor="#000000"
     borderopacity="0.25"
     inkscape:showpageshadow="2"
     inkscape:pageopacity="0.0"
     inkscape:pagecheckerboard="0"
     inkscape:deskcolor="#d1d1d1"
     inkscape:document-units="mm"
     inkscape:zoom="5.9768311"
     inkscape:cx="30.952857"
     inkscape:cy="41.409904"
     inkscape:window-width="2560"
     inkscape:window-height="1351"
     inkscape:window-x="-9"
     inkscape:window-y="-9"
     inkscape:window-maximized="1"
     inkscape:current-layer="svg1" /><defs
     id="defs1" /><g
     inkscape:label="L Click"
     id="layer1"
     transform="translate(-121.48047,-100.32031)"><g
       id="g6"
       inkscape:label="Style - Outline (White)"
       style="display:none;stroke-width:1;stroke-dasharray:none"><g
         id="path5"
         inkscape:label="Joystick Click Shape"><path
           style="color:#000000;fill:#ffffff;stroke-linecap:round;stroke-linejoin:round;-inkscape-stroke:none"
           d="m 124.09205,108.46171 c -1.17046,0 -2.11253,0.94207 -2.11253,2.11253 0,1.17046 0.94207,2.11305 2.11253,2.11305 h 1.10174 v 12.4995 h 16.19902 v -12.4995 h 1.10122 c 1.17046,0 2.11253,-0.94259 2.11253,-2.11305 0,-1.17046 -0.94207,-2.11253 -2.11253,-2.11253 z"
           id="path21"
           inkscape:label="Color" /><path
           style="color:#000000;display:inline;fill:#000000;stroke-linecap:round;stroke-linejoin:round;-inkscape-stroke:none"
           d="m 124.0918,107.96094 c -1.43875,0 -2.61133,1.17453 -2.61133,2.61328 0,1.43875 1.17243,2.61328 2.61133,2.61328 h 0.60156 v 12 a 0.50005,0.50005 0 0 0 0.5,0.5 h 16.19922 a 0.50005,0.50005 0 0 0 0.5,-0.5 v -12 h 0.60156 c 1.4389,0 2.61328,-1.17453 2.61328,-2.61328 0,-1.43875 -1.17453,-2.61328 -2.61328,-2.61328 z m 0,1 h 18.40234 c 0.90217,0 1.61328,0.71111 1.61328,1.61328 0,0.90217 -0.71126,1.61328 -1.61328,1.61328 h -1.10156 a 0.50005,0.50005 0 0 0 -0.5,0.5 v 12 h -15.19922 v -12 a 0.50005,0.50005 0 0 0 -0.5,-0.5 h -1.10156 c -0.90202,0 -1.61133,-0.71111 -1.61133,-1.61328 0,-0.90217 0.70916,-1.61328 1.61133,-1.61328 z"
           id="path22"
           inkscape:label="Outline" /></g><g
         id="path6"
         inkscape:label="Arrow Indicator"><path
           style="color:#000000;fill:#000000;stroke-linecap:round;stroke-linejoin:round;-inkscape-stroke:none;paint-order:stroke fill markers"
           d="m 127.00195,100.32031 c -0.47125,6.7e-4 -0.8787,0.32838 -1.01757,0.7168 -0.13888,0.38842 -0.032,0.90187 0.33203,1.20117 l 3.14453,2.58594 3.14453,2.58789 c 0.3958,0.32537 0.9792,0.32537 1.375,0 l 3.14453,-2.58789 3.14453,-2.58594 c 0.36421,-0.29947 0.47124,-0.81266 0.33203,-1.20117 -0.1392,-0.38851 -0.54605,-0.71677 -1.01758,-0.7168 h -6.29101 z m 0.88868,1.40039 h 5.40234 5.40234 l -2.45898,2.02344 -2.94336,2.41992 -2.94336,-2.41992 z"
           id="path17"
           inkscape:label="Outline" /><path
           style="color:#000000;display:inline;fill:#ffffff;stroke-linecap:round;stroke-linejoin:round;-inkscape-stroke:none;paint-order:stroke fill markers"
           d="m 127.0027,101.02057 a 0.38164931,0.38164931 0 0 0 -0.24185,0.67644 l 3.14503,2.58744 3.14503,2.58641 a 0.38164931,0.38164931 0 0 0 0.48472,0 l 3.14503,-2.58641 3.14503,-2.58744 a 0.38164931,0.38164931 0 0 0 -0.24237,-0.67644 h -6.29005 z"
           id="path18"
           sodipodi:insensitive="true"
           inkscape:label="Arrow Shape" /></g><path
         d="m 131.24698,122.4116 v -7.73896 h 1.08515 v 6.79673 h 3.36131 v 0.94223 z"
         id="text28"
         style="font-weight:500;font-size:10.8409px;line-height:0;font-family:'open sans';-inkscape-font-specification:'open sans Medium';letter-spacing:-0.396875px;word-spacing:0px;fill-opacity:0.996556;stroke-linecap:round"
         inkscape:label="Symbol L"
         transform="translate(1.125e-6)"
         aria-label="L" /></g><g
       id="g27"
       inkscape:label="Style - Outline (Black)"
       style="display:none;stroke-width:1;stroke-dasharray:none"><g
         id="g24"
         inkscape:label="Joystick Click Shape"><path
           style="color:#000000;fill:#000000;stroke-linecap:round;stroke-linejoin:round;-inkscape-stroke:none"
           d="m 124.09205,108.46171 c -1.17046,0 -2.11253,0.94207 -2.11253,2.11253 0,1.17046 0.94207,2.11305 2.11253,2.11305 h 1.10174 v 12.4995 h 16.19902 v -12.4995 h 1.10122 c 1.17046,0 2.11253,-0.94259 2.11253,-2.11305 0,-1.17046 -0.94207,-2.11253 -2.11253,-2.11253 z"
           id="path23"
           inkscape:label="Color" /><path
           style="color:#000000;display:inline;fill:#ffffff;stroke-linecap:round;stroke-linejoin:round;-inkscape-stroke:none"
           d="m 124.0918,107.96094 c -1.43875,0 -2.61133,1.17453 -2.61133,2.61328 0,1.43875 1.17243,2.61328 2.61133,2.61328 h 0.60156 v 12 a 0.50005,0.50005 0 0 0 0.5,0.5 h 16.19922 a 0.50005,0.50005 0 0 0 0.5,-0.5 v -12 h 0.60156 c 1.4389,0 2.61328,-1.17453 2.61328,-2.61328 0,-1.43875 -1.17453,-2.61328 -2.61328,-2.61328 z m 0,1 h 18.40234 c 0.90217,0 1.61328,0.71111 1.61328,1.61328 0,0.90217 -0.71126,1.61328 -1.61328,1.61328 h -1.10156 a 0.50005,0.50005 0 0 0 -0.5,0.5 v 12 h -15.19922 v -12 a 0.50005,0.50005 0 0 0 -0.5,-0.5 h -1.10156 c -0.90202,0 -1.61133,-0.71111 -1.61133,-1.61328 0,-0.90217 0.70916,-1.61328 1.61133,-1.61328 z"
           id="path24"
           inkscape:label="Outline" /></g><g
         id="g26"
         inkscape:label="Arrow Indicator"><path
           style="color:#000000;fill:#ffffff;stroke-linecap:round;stroke-linejoin:round;-inkscape-stroke:none;paint-order:stroke fill markers"
           d="m 127.00195,100.32031 c -0.47125,6.7e-4 -0.8787,0.32838 -1.01757,0.7168 -0.13888,0.38842 -0.032,0.90187 0.33203,1.20117 l 3.14453,2.58594 3.14453,2.58789 c 0.3958,0.32537 0.9792,0.32537 1.375,0 l 3.14453,-2.58789 3.14453,-2.58594 c 0.36421,-0.29947 0.47124,-0.81266 0.33203,-1.20117 -0.1392,-0.38851 -0.54605,-0.71677 -1.01758,-0.7168 h -6.29101 z m 0.88868,1.40039 h 5.40234 5.40234 l -2.45898,2.02344 -2.94336,2.41992 -2.94336,-2.41992 z"
           id="path25"
           inkscape:label="Outline" /><path
           style="color:#000000;display:inline;fill:#000000;stroke-linecap:round;stroke-linejoin:round;-inkscape-stroke:none;paint-order:stroke fill markers"
           d="m 127.0027,101.02057 a 0.38164931,0.38164931 0 0 0 -0.24185,0.67644 l 3.14503,2.58744 3.14503,2.58641 a 0.38164931,0.38164931 0 0 0 0.48472,0 l 3.14503,-2.58641 3.14503,-2.58744 a 0.38164931,0.38164931 0 0 0 -0.24237,-0.67644 h -6.29005 z"
           id="path26"
           inkscape:label="Arrow Shape" /></g><path
         d="m 131.24698,122.4116 v -7.73896 h 1.08515 v 6.79673 h 3.36131 v 0.94223 z"
         id="text29"
         style="font-weight:500;font-size:10.8409px;line-height:0;font-family:'open sans';-inkscape-font-specification:'open sans Medium';letter-spacing:-0.396875px;word-spacing:0px;fill:#ffffff;fill-opacity:0.996556;stroke-linecap:round"
         inkscape:label="Symbol L"
         transform="translate(1.125e-6)"
         aria-label="L" /></g><g
       id="g5"
       inkscape:label="Style - Transparent"
       style="display:inline;stroke-width:1;stroke-dasharray:none"><g
         id="rect1"
         inkscape:label="Joystick Click Shape"><path
           style="color:#000000;display:inline;fill:#808080;fill-opacity:0.501961;stroke-linecap:round;-inkscape-stroke:none;paint-order:stroke fill markers"
           d="m 124.0918,107.96094 c -1.43875,0 -2.61133,1.17453 -2.61133,2.61328 0,1.43875 1.17243,2.61328 2.61133,2.61328 h 0.60156 v 12.5 h 17.19922 v -12.5 h 0.60156 c 1.4389,0 2.61328,-1.17453 2.61328,-2.61328 0,-1.43875 -1.17453,-2.61328 -2.61328,-2.61328 z m 0,1 h 18.40234 c 0.90217,0 1.61328,0.71111 1.61328,1.61328 0,0.90217 -0.71126,1.61328 -1.61328,1.61328 h -1.60156 v 12.5 h -15.19922 v -12.5 h -1.60156 c -0.90202,0 -1.61133,-0.71111 -1.61133,-1.61328 0,-0.90217 0.70916,-1.61328 1.61133,-1.61328 z"
           id="path7"
           inkscape:label="Outline" /><path
           style="color:#000000;display:inline;fill:#ffffff;stroke-linecap:round;-inkscape-stroke:none;paint-order:stroke fill markers"
           d="m 124.09205,108.46171 c -1.17046,0 -2.11253,0.94207 -2.11253,2.11253 0,1.17046 0.94207,2.11305 2.11253,2.11305 h 1.10174 v 12.4995 h 16.19902 v -12.4995 h 1.10122 c 1.17046,0 2.11253,-0.94259 2.11253,-2.11305 0,-1.17046 -0.94207,-2.11253 -2.11253,-2.11253 z"
           id="path8"
           inkscape:label="Color" /></g><g
         id="g20"
         inkscape:label="Arrow Indicator"
         style="display:inline;stroke-width:1;stroke-dasharray:none"><path
           style="color:#000000;fill:#808080;fill-opacity:0.501961;stroke-linecap:round;stroke-linejoin:round;-inkscape-stroke:none;paint-order:stroke fill markers"
           d="m 127.00195,100.32031 c -0.47125,6.7e-4 -0.8787,0.32838 -1.01757,0.7168 -0.13888,0.38842 -0.032,0.90187 0.33203,1.20117 l 3.14453,2.58594 3.14453,2.58789 c 0.3958,0.32537 0.9792,0.32537 1.375,0 l 3.14453,-2.58789 3.14453,-2.58594 c 0.36421,-0.29947 0.47124,-0.81266 0.33203,-1.20117 -0.1392,-0.38851 -0.54605,-0.71677 -1.01758,-0.7168 h -6.29101 z m 0.88868,1.40039 h 5.40234 5.40234 l -2.45898,2.02344 -2.94336,2.41992 -2.94336,-2.41992 z"
           id="path19"
           inkscape:label="Outline" /><path
           style="color:#000000;display:inline;fill:#ffffff;stroke-linecap:round;stroke-linejoin:round;-inkscape-stroke:none;paint-order:stroke fill markers"
           d="m 127.0027,101.02057 a 0.38164931,0.38164931 0 0 0 -0.24185,0.67644 l 3.14503,2.58744 3.14503,2.58641 a 0.38164931,0.38164931 0 0 0 0.48472,0 l 3.14503,-2.58641 3.14503,-2.58744 a 0.38164931,0.38164931 0 0 0 -0.24237,-0.67644 h -6.29005 z"
           id="path20"
           inkscape:label="Arrow Shape" /></g><path
         d="m 131.24698,122.4116 v -7.73896 h 1.08515 v 6.79673 h 3.36131 v 0.94223 z"
         id="text2"
         style="font-weight:500;font-size:10.8409px;line-height:0;font-family:'open sans';-inkscape-font-specification:'open sans Medium';letter-spacing:-0.396875px;word-spacing:0px;fill:#808080;fill-opacity:0.996556;stroke-linecap:round"
         inkscape:label="Symbol L"
         aria-label="L" /></g></g></svg>
