<?xml version="1.0" encoding="UTF-8" standalone="no"?>
<!-- Created with Inkscape (http://www.inkscape.org/) -->

<svg
   width="58.03125mm"
   height="38.664059mm"
   viewBox="0 0 58.03125 38.664058"
   version="1.1"
   id="svg1"
   sodipodi:docname="nintendo-R.svg"
   inkscape:version="1.3.2 (091e20e, 2023-11-25, custom)"
   xmlns:inkscape="http://www.inkscape.org/namespaces/inkscape"
   xmlns:sodipodi="http://sodipodi.sourceforge.net/DTD/sodipodi-0.dtd"
   xmlns="http://www.w3.org/2000/svg"
   xmlns:svg="http://www.w3.org/2000/svg">
  <sodipodi:namedview
     id="namedview1"
     pagecolor="#00ff2e"
     bordercolor="#000000"
     borderopacity="0.25"
     inkscape:showpageshadow="2"
     inkscape:pageopacity="0.0"
     inkscape:pagecheckerboard="0"
     inkscape:deskcolor="#d1d1d1"
     inkscape:document-units="mm"
     inkscape:zoom="4.1406846"
     inkscape:cx="100.46648"
     inkscape:cy="37.433423"
     inkscape:window-width="2560"
     inkscape:window-height="1351"
     inkscape:window-x="-9"
     inkscape:window-y="-9"
     inkscape:window-maximized="1"
     inkscape:current-layer="svg1" />
  <defs
     id="defs1">
    <rect
       x="360.04303"
       y="190.72911"
       width="206.08942"
       height="106.00632"
       id="rect5" />
    <rect
       x="360.04303"
       y="190.72911"
       width="206.08942"
       height="106.00632"
       id="rect2" />
    <rect
       x="360.04303"
       y="190.72911"
       width="206.08942"
       height="106.00632"
       id="rect9" />
    <rect
       x="360.04303"
       y="190.72911"
       width="206.08942"
       height="106.00632"
       id="rect10" />
    <rect
       x="360.04303"
       y="190.72911"
       width="206.08942"
       height="106.00632"
       id="rect13" />
    <rect
       x="360.04303"
       y="190.72911"
       width="206.08942"
       height="106.00632"
       id="rect14" />
  </defs>
  <g
     id="g7"
     inkscape:label="Button Prompt R"
     transform="translate(-240.41602,-201.23828)">
    <g
       id="path6"
       inkscape:label="Style - Outline (White)"
       style="display:none">
      <path
         style="color:#000000;display:inline;fill:#ffffff;stroke-linecap:round;-inkscape-stroke:none"
         d="m 250.44892,202.69012 c -4.75343,0 -8.58038,2.7342 -8.58038,6.13053 v 29.62894 h 55.12552 v -29.62894 c 0,-3.39633 -3.82695,-6.13053 -8.58037,-6.13053 z"
         id="path10"
         inkscape:label="Bumper Shape" />
      <path
         style="color:#000000;display:inline;fill:#000000;stroke-linecap:round;-inkscape-stroke:none"
         d="m 250.44922,201.23828 c -2.65518,0 -5.08151,0.7504 -6.91797,2.0625 -1.83646,1.3121 -3.11523,3.27587 -3.11523,5.51953 v 31.08203 h 58.03125 v -31.08203 c 0,-2.24366 -1.28074,-4.20743 -3.11719,-5.51953 -1.83646,-1.3121 -4.26084,-2.0625 -6.91602,-2.0625 z m 0,2.9043 h 37.96484 c 2.09824,0 3.96314,0.6174 5.22852,1.52148 1.26537,0.90408 1.89844,2.00359 1.89844,3.15625 v 28.17774 h -52.22071 v -28.17774 c 0,-1.15266 0.63502,-2.25217 1.90039,-3.15625 1.26538,-0.90408 3.13028,-1.52148 5.22852,-1.52148 z"
         id="path11"
         inkscape:label="Outline" />
      <path
         style="font-weight:500;font-size:31.0372px;line-height:0;font-family:'open sans';-inkscape-font-specification:'open sans Medium';letter-spacing:-2.11667px;word-spacing:0px;stroke-width:2.825;stroke-linecap:round"
         d="m 268.01393,209.49163 q 2.80366,0 4.62224,0.69713 1.83374,0.68197 2.72788,2.09137 0.89414,1.39425 0.89414,3.54624 0,1.69735 -0.62135,2.86428 -0.62135,1.16692 -1.63673,1.90951 -1.00022,0.74259 -2.15199,1.16693 l 6.19835,9.88098 h -3.5614 l -5.39514,-9.06262 h -4.07666 v 9.06262 h -3.10676 v -22.15644 z m -0.19701,2.63695 h -2.80365 v 7.86539 h 3.01582 q 2.62179,0 3.83418,-1.01538 1.21239,-1.03053 1.21239,-3.03098 0,-2.07622 -1.28816,-2.94005 -1.28817,-0.87898 -3.97058,-0.87898 z"
         id="text1"
         inkscape:label="Symbol R"
         transform="translate(1.2916667e-6)"
         aria-label="R" />
    </g>
    <g
       id="g13"
       inkscape:label="Style - Outline (Black)"
       style="display:none">
      <path
         style="color:#000000;display:inline;fill:#000000;fill-opacity:1;stroke-linecap:round;-inkscape-stroke:none"
         d="m 250.44892,202.69012 c -4.75343,0 -8.58038,2.7342 -8.58038,6.13053 v 29.62894 h 55.12552 v -29.62894 c 0,-3.39633 -3.82695,-6.13053 -8.58037,-6.13053 z"
         id="path12"
         inkscape:label="Bumper Shape" />
      <path
         style="color:#000000;display:inline;fill:#ffffff;fill-opacity:1;stroke-linecap:round;-inkscape-stroke:none"
         d="m 250.44922,201.23828 c -2.65518,0 -5.08151,0.7504 -6.91797,2.0625 -1.83646,1.3121 -3.11523,3.27587 -3.11523,5.51953 v 31.08203 h 58.03125 v -31.08203 c 0,-2.24366 -1.28074,-4.20743 -3.11719,-5.51953 -1.83646,-1.3121 -4.26084,-2.0625 -6.91602,-2.0625 z m 0,2.9043 h 37.96484 c 2.09824,0 3.96314,0.6174 5.22852,1.52148 1.26537,0.90408 1.89844,2.00359 1.89844,3.15625 v 28.17774 h -52.22071 v -28.17774 c 0,-1.15266 0.63502,-2.25217 1.90039,-3.15625 1.26538,-0.90408 3.13028,-1.52148 5.22852,-1.52148 z"
         id="path13"
         inkscape:label="Outline" />
      <path
         style="font-weight:500;font-size:31.0372px;line-height:0;font-family:'open sans';-inkscape-font-specification:'open sans Medium';letter-spacing:-2.11667px;word-spacing:0px;fill:#ffffff;stroke-width:2.825;stroke-linecap:round"
         d="m 268.01393,209.49163 q 2.80366,0 4.62224,0.69713 1.83374,0.68197 2.72788,2.09137 0.89414,1.39425 0.89414,3.54624 0,1.69735 -0.62135,2.86428 -0.62135,1.16692 -1.63673,1.90951 -1.00022,0.74259 -2.15199,1.16693 l 6.19835,9.88098 h -3.5614 l -5.39514,-9.06262 h -4.07666 v 9.06262 h -3.10676 v -22.15644 z m -0.19701,2.63695 h -2.80365 v 7.86539 h 3.01582 q 2.62179,0 3.83418,-1.01538 1.21239,-1.03053 1.21239,-3.03098 0,-2.07622 -1.28816,-2.94005 -1.28817,-0.87898 -3.97058,-0.87898 z"
         id="text3"
         inkscape:label="Symbol R"
         transform="translate(1.2916667e-6)"
         aria-label="R" />
    </g>
    <g
       id="rect1"
       inkscape:label="Style - Transparent"
       style="display:inline">
      <path
         style="color:#000000;display:inline;fill:#808080;fill-opacity:0.501961;stroke-linecap:round;-inkscape-stroke:none;paint-order:stroke fill markers"
         d="m 250.44922,201.23828 c -2.65518,0 -5.08151,0.7504 -6.91797,2.0625 -1.83646,1.3121 -3.11523,3.27587 -3.11523,5.51953 v 31.08203 h 58.03125 v -31.08203 c 0,-2.24366 -1.28074,-4.20743 -3.11719,-5.51953 -1.83646,-1.3121 -4.26084,-2.0625 -6.91602,-2.0625 z m 0,2.9043 h 37.96484 c 2.09824,0 3.96314,0.6174 5.22852,1.52148 1.26537,0.90408 1.89844,2.00359 1.89844,3.15625 v 28.17774 h -52.22071 v -28.17774 c 0,-1.15266 0.63502,-2.25217 1.90039,-3.15625 1.26538,-0.90408 3.13028,-1.52148 5.22852,-1.52148 z"
         id="path8"
         inkscape:label="Outline" />
      <path
         style="color:#000000;display:inline;fill:#ffffff;stroke-linecap:round;-inkscape-stroke:none;paint-order:stroke fill markers"
         d="m 250.44892,202.69012 c -4.75343,0 -8.58038,2.7342 -8.58038,6.13053 v 29.62894 h 55.12552 v -29.62894 c 0,-3.39633 -3.82695,-6.13053 -8.58037,-6.13053 z"
         id="path9"
         inkscape:label="Bumper Shape" />
      <path
         style="font-weight:500;font-size:31.0372px;line-height:0;font-family:'open sans';-inkscape-font-specification:'open sans Medium';letter-spacing:-2.11667px;word-spacing:0px;fill:#808080;stroke-width:2.825;stroke-linecap:round"
         d="m 268.01393,209.49163 q 2.80366,0 4.62224,0.69713 1.83374,0.68197 2.72788,2.09137 0.89414,1.39425 0.89414,3.54624 0,1.69735 -0.62135,2.86428 -0.62135,1.16692 -1.63673,1.90951 -1.00022,0.74259 -2.15199,1.16693 l 6.19835,9.88098 h -3.5614 l -5.39514,-9.06262 h -4.07666 v 9.06262 h -3.10676 v -22.15644 z m -0.19701,2.63695 h -2.80365 v 7.86539 h 3.01582 q 2.62179,0 3.83418,-1.01538 1.21239,-1.03053 1.21239,-3.03098 0,-2.07622 -1.28816,-2.94005 -1.28817,-0.87898 -3.97058,-0.87898 z"
         id="text2"
         inkscape:label="Symbol R"
         aria-label="R" />
    </g>
  </g>
</svg>
