<?xml version="1.0" encoding="UTF-8" standalone="no"?>
<!-- Created with Inkscape (http://www.inkscape.org/) -->

<svg
   width="45.529301mm"
   height="45.529289mm"
   viewBox="0 0 45.529301 45.529289"
   version="1.1"
   id="svg1"
   sodipodi:docname="nintendo-C.svg"
   inkscape:version="1.3.2 (091e20e, 2023-11-25, custom)"
   xml:space="preserve"
   xmlns:inkscape="http://www.inkscape.org/namespaces/inkscape"
   xmlns:sodipodi="http://sodipodi.sourceforge.net/DTD/sodipodi-0.dtd"
   xmlns="http://www.w3.org/2000/svg"
   xmlns:svg="http://www.w3.org/2000/svg"
   xmlns:rdf="http://www.w3.org/1999/02/22-rdf-syntax-ns#"
   xmlns:cc="http://creativecommons.org/ns#"><sodipodi:namedview
     id="namedview1"
     pagecolor="#3e8d2e"
     bordercolor="#000000"
     borderopacity="0.25"
     inkscape:showpageshadow="true"
     inkscape:pageopacity="0.0"
     inkscape:pagecheckerboard="false"
     inkscape:deskcolor="#d1d1d1"
     inkscape:document-units="mm"
     inkscape:zoom="0.88491818"
     inkscape:cx="25.991104"
     inkscape:cy="48.592063"
     inkscape:window-width="2560"
     inkscape:window-height="1351"
     inkscape:window-x="-9"
     inkscape:window-y="-9"
     inkscape:window-maximized="1"
     inkscape:current-layer="layer1"
     labelstyle="default"
     showborder="true" /><defs
     id="defs1"><rect
       x="-329.58707"
       y="426.24316"
       width="115.7824"
       height="107.24387"
       id="rect2" /><rect
       x="-486.35437"
       y="484.30515"
       width="87.776039"
       height="93.582237"
       id="rect1" /></defs><g
     inkscape:label="Button Prompt C"
     id="layer1"
     transform="translate(139.87891,-115.24219)"
     style="display:inline"><g
       id="path1"
       inkscape:label="Style - Outline (White)"
       style="display:none"><path
         style="color:#000000;display:inline;fill:#ffffff;fill-opacity:1;stroke-linecap:round;stroke-linejoin:round;-inkscape-stroke:none"
         d="m -95.899378,138.00743 a 21.214285,21.214285 0 0 1 -21.214282,21.21429 21.214285,21.214285 0 0 1 -21.21429,-21.21429 21.214285,21.214285 0 0 1 21.21429,-21.21428 21.214285,21.214285 0 0 1 21.214282,21.21428 z"
         id="path3"
         inkscape:label="Circle" /><path
         style="color:#000000;display:inline;fill:#000000;fill-opacity:1;stroke-linecap:round;stroke-linejoin:round;-inkscape-stroke:none"
         d="m -117.11328,115.24219 c -12.554,0 -22.76563,10.21163 -22.76563,22.76562 0,12.554 10.21163,22.76367 22.76563,22.76367 12.55399,0 22.763671,-10.20967 22.763671,-22.76367 0,-12.55399 -10.209681,-22.76562 -22.763671,-22.76562 z m 0,3.10156 c 10.87863,0 19.664061,8.78543 19.664061,19.66406 0,10.87864 -8.785431,19.66406 -19.664061,19.66406 -10.87863,0 -19.66406,-8.78542 -19.66406,-19.66406 0,-10.87863 8.78543,-19.66406 19.66406,-19.66406 z"
         id="path4"
         inkscape:label="Outline" /><path
         style="font-weight:500;font-size:31.0372px;line-height:0;font-family:'open sans';-inkscape-font-specification:'open sans Medium';letter-spacing:-2.11667px;word-spacing:0px;stroke-width:2.825;stroke-linecap:round"
         d="m -114.93893,129.30095 q -1.7125,0 -3.07644,0.6062 -1.34879,0.59104 -2.28839,1.74281 -0.9396,1.13662 -1.43971,2.74303 -0.50012,1.60642 -0.50012,3.62202 0,2.68242 0.78806,4.6374 0.80321,1.95498 2.40962,3.01582 1.60642,1.06084 4.04636,1.06084 1.45487,0 2.77334,-0.25763 1.33363,-0.27279 2.65211,-0.69713 v 2.66726 q -1.27301,0.48496 -2.63695,0.71228 -1.34879,0.24248 -3.16737,0.24248 -3.3947,0 -5.65278,-1.40941 -2.24292,-1.4094 -3.34922,-3.95542 -1.10631,-2.56118 -1.10631,-6.03164 0,-2.51571 0.69712,-4.59193 0.69713,-2.09138 2.04591,-3.60687 1.34879,-1.53064 3.30377,-2.349 1.97013,-0.83352 4.53131,-0.83352 1.66703,0 3.24314,0.36372 1.59127,0.34856 2.9249,0.98506 l -1.15178,2.59149 q -1.1063,-0.50011 -2.37931,-0.87898 -1.25786,-0.37888 -2.66726,-0.37888 z"
         id="text2"
         inkscape:label="Symbol C"
         transform="translate(1.25e-6)"
         aria-label="C" /></g><g
       id="g6"
       inkscape:label="Style - Outline (Black)"
       style="display:none"><path
         style="color:#000000;display:inline;fill:#000000;fill-opacity:1;stroke-linecap:round;stroke-linejoin:round;-inkscape-stroke:none"
         d="m -95.899378,138.00743 a 21.214285,21.214285 0 0 1 -21.214282,21.21429 21.214285,21.214285 0 0 1 -21.21429,-21.21429 21.214285,21.214285 0 0 1 21.21429,-21.21428 21.214285,21.214285 0 0 1 21.214282,21.21428 z"
         id="path5"
         inkscape:label="Circle" /><path
         style="color:#000000;display:inline;fill:#ffffff;fill-opacity:1;stroke-linecap:round;stroke-linejoin:round;-inkscape-stroke:none"
         d="m -117.11328,115.24219 c -12.554,0 -22.76563,10.21163 -22.76563,22.76562 0,12.554 10.21163,22.76367 22.76563,22.76367 12.55399,0 22.763671,-10.20967 22.763671,-22.76367 0,-12.55399 -10.209681,-22.76562 -22.763671,-22.76562 z m 0,3.10156 c 10.87863,0 19.664061,8.78543 19.664061,19.66406 0,10.87864 -8.785431,19.66406 -19.664061,19.66406 -10.87863,0 -19.66406,-8.78542 -19.66406,-19.66406 0,-10.87863 8.78543,-19.66406 19.66406,-19.66406 z"
         id="path6"
         inkscape:label="Outline" /><path
         style="font-weight:500;font-size:31.0372px;line-height:0;font-family:'open sans';-inkscape-font-specification:'open sans Medium';letter-spacing:-2.11667px;word-spacing:0px;fill:#ffffff;stroke-width:2.825;stroke-linecap:round"
         d="m -114.93893,129.30095 q -1.7125,0 -3.07644,0.6062 -1.34879,0.59104 -2.28839,1.74281 -0.9396,1.13662 -1.43971,2.74303 -0.50012,1.60642 -0.50012,3.62202 0,2.68242 0.78806,4.6374 0.80321,1.95498 2.40962,3.01582 1.60642,1.06084 4.04636,1.06084 1.45487,0 2.77334,-0.25763 1.33363,-0.27279 2.65211,-0.69713 v 2.66726 q -1.27301,0.48496 -2.63695,0.71228 -1.34879,0.24248 -3.16737,0.24248 -3.3947,0 -5.65278,-1.40941 -2.24292,-1.4094 -3.34922,-3.95542 -1.10631,-2.56118 -1.10631,-6.03164 0,-2.51571 0.69712,-4.59193 0.69713,-2.09138 2.04591,-3.60687 1.34879,-1.53064 3.30377,-2.349 1.97013,-0.83352 4.53131,-0.83352 1.66703,0 3.24314,0.36372 1.59127,0.34856 2.9249,0.98506 l -1.15178,2.59149 q -1.1063,-0.50011 -2.37931,-0.87898 -1.25786,-0.37888 -2.66726,-0.37888 z"
         id="text4"
         inkscape:label="Symbol C"
         transform="translate(1.25e-6)"
         aria-label="C" /></g><g
       id="g8"
       inkscape:label="Style - Transparent"
       style="display:inline;fill:#ffffff;fill-opacity:1"><path
         style="color:#000000;display:inline;fill:#808080;fill-opacity:0.501031;stroke-linecap:round;stroke-linejoin:round;-inkscape-stroke:none;paint-order:stroke markers fill"
         d="m -117.11328,115.24219 c -12.554,-10e-6 -22.76562,10.21163 -22.76563,22.76562 0,12.554 10.21163,22.76368 22.76563,22.76367 12.554,0 22.763674,-10.20967 22.763671,-22.76367 -3e-6,-12.55399 -10.209681,-22.76562 -22.763671,-22.76562 z m 0,3.10156 c 10.87863,0 19.664059,8.78543 19.664061,19.66406 3e-6,10.87864 -8.785431,19.66406 -19.664061,19.66406 -10.87864,10e-6 -19.66407,-8.78542 -19.66406,-19.66406 0,-10.87863 8.78543,-19.66406 19.66406,-19.66406 z"
         id="path9"
         inkscape:label="Outline" /><path
         style="color:#000000;display:inline;stroke-linecap:round;stroke-linejoin:round;-inkscape-stroke:none;paint-order:stroke markers fill"
         d="m -95.899378,138.00743 a 21.214285,21.214285 0 0 1 -21.214282,21.21429 21.214285,21.214285 0 0 1 -21.21429,-21.21429 21.214285,21.214285 0 0 1 21.21429,-21.21428 21.214285,21.214285 0 0 1 21.214282,21.21428 z"
         id="path10"
         inkscape:label="Circle" /><path
         style="font-weight:500;font-size:31.0372px;line-height:0;font-family:'open sans';-inkscape-font-specification:'open sans Medium';letter-spacing:-2.11667px;word-spacing:0px;fill:#808080;stroke-width:2.825;stroke-linecap:round"
         d="m -114.93893,129.30095 q -1.7125,0 -3.07644,0.6062 -1.34879,0.59104 -2.28839,1.74281 -0.9396,1.13662 -1.43971,2.74303 -0.50012,1.60642 -0.50012,3.62202 0,2.68242 0.78806,4.6374 0.80321,1.95498 2.40962,3.01582 1.60642,1.06084 4.04636,1.06084 1.45487,0 2.77334,-0.25763 1.33363,-0.27279 2.65211,-0.69713 v 2.66726 q -1.27301,0.48496 -2.63695,0.71228 -1.34879,0.24248 -3.16737,0.24248 -3.3947,0 -5.65278,-1.40941 -2.24292,-1.4094 -3.34922,-3.95542 -1.10631,-2.56118 -1.10631,-6.03164 0,-2.51571 0.69712,-4.59193 0.69713,-2.09138 2.04591,-3.60687 1.34879,-1.53064 3.30377,-2.349 1.97013,-0.83352 4.53131,-0.83352 1.66703,0 3.24314,0.36372 1.59127,0.34856 2.9249,0.98506 l -1.15178,2.59149 q -1.1063,-0.50011 -2.37931,-0.87898 -1.25786,-0.37888 -2.66726,-0.37888 z"
         id="text3"
         inkscape:label="Symbol C"
         aria-label="C" /></g></g><metadata
     id="metadata8"><rdf:RDF><cc:Work
         rdf:about=""><cc:license
           rdf:resource="https://opensource.org/license/mit" /></cc:Work></rdf:RDF></metadata></svg>
