<?xml version="1.0" encoding="UTF-8" standalone="no"?>
<!-- Created with Inkscape (http://www.inkscape.org/) -->

<svg
   width="82.939453mm"
   height="36.259762mm"
   viewBox="0 0 82.939453 36.25976"
   version="1.1"
   id="svg1"
   inkscape:version="1.3.2 (091e20e, 2023-11-25, custom)"
   sodipodi:docname="nintendo-Z.svg"
   xmlns:inkscape="http://www.inkscape.org/namespaces/inkscape"
   xmlns:sodipodi="http://sodipodi.sourceforge.net/DTD/sodipodi-0.dtd"
   xmlns="http://www.w3.org/2000/svg"
   xmlns:svg="http://www.w3.org/2000/svg">
  <sodipodi:namedview
     id="namedview1"
     pagecolor="#ffffff"
     bordercolor="#000000"
     borderopacity="0.25"
     inkscape:showpageshadow="2"
     inkscape:pageopacity="0.0"
     inkscape:pagecheckerboard="0"
     inkscape:deskcolor="#d1d1d1"
     inkscape:document-units="mm"
     inkscape:zoom="2.8284271"
     inkscape:cx="142.83557"
     inkscape:cy="73.892659"
     inkscape:window-width="2560"
     inkscape:window-height="1351"
     inkscape:window-x="-9"
     inkscape:window-y="-9"
     inkscape:window-maximized="1"
     inkscape:current-layer="layer1" />
  <defs
     id="defs1">
    <rect
       x="1.366164"
       y="506.84683"
       width="185.11522"
       height="155.74271"
       id="rect8" />
    <rect
       x="-8.1969843"
       y="504.1145"
       width="179.65057"
       height="198.09378"
       id="rect7" />
    <rect
       x="360.04303"
       y="190.72911"
       width="206.08942"
       height="106.00632"
       id="rect5" />
    <rect
       x="360.04303"
       y="190.72911"
       width="206.08942"
       height="106.00632"
       id="rect2" />
    <rect
       x="360.04303"
       y="190.72911"
       width="206.08942"
       height="106.00632"
       id="rect3" />
    <rect
       x="360.04303"
       y="190.72911"
       width="206.08942"
       height="106.00632"
       id="rect4" />
    <rect
       x="360.04303"
       y="190.72911"
       width="206.08942"
       height="106.00632"
       id="rect9" />
    <rect
       x="360.04303"
       y="190.72911"
       width="206.08942"
       height="106.00632"
       id="rect10" />
    <rect
       x="360.04303"
       y="190.72911"
       width="206.08942"
       height="106.00632"
       id="rect11" />
    <rect
       x="360.04303"
       y="190.72911"
       width="206.08942"
       height="106.00632"
       id="rect12" />
    <rect
       x="360.04303"
       y="190.72911"
       width="206.08942"
       height="106.00632"
       id="rect13" />
    <rect
       x="360.04303"
       y="190.72911"
       width="206.08942"
       height="106.00632"
       id="rect14" />
    <rect
       x="360.04303"
       y="190.72911"
       width="206.08942"
       height="106.00632"
       id="rect15" />
    <rect
       x="360.04303"
       y="190.72911"
       width="206.08942"
       height="106.00632"
       id="rect16" />
    <rect
       x="360.04303"
       y="190.72911"
       width="206.08942"
       height="106.00632"
       id="rect17" />
    <rect
       x="360.04303"
       y="190.72911"
       width="206.08942"
       height="106.00632"
       id="rect18" />
    <rect
       x="360.04303"
       y="190.72911"
       width="206.08942"
       height="106.00632"
       id="rect18-7" />
  </defs>
  <g
     inkscape:label="Button Prompt Z"
     id="layer1"
     transform="translate(-309.06836,-201.66211)">
    <g
       id="rect20"
       inkscape:label="Style - Outline (White)"
       style="display:none">
      <path
         style="color:#000000;display:inline;fill:#ffffff;stroke-linecap:round;stroke-linejoin:round;-inkscape-stroke:none"
         d="m 314.55937,203.38472 h 71.95665 c 2.08713,0 3.76738,1.68025 3.76738,3.76738 v 25.27803 c 0,2.08713 -1.68025,3.76738 -3.76738,3.76738 h -71.95665 c -2.08713,0 -3.76738,-1.68025 -3.76738,-3.76738 V 207.1521 c 0,-2.08713 1.68025,-3.76738 3.76738,-3.76738 z"
         id="path28"
         inkscape:label="Button Shape" />
      <path
         style="color:#000000;display:inline;fill:#000000;stroke-linecap:round;stroke-linejoin:round;-inkscape-stroke:none"
         d="m 314.55859,201.66211 c -3.0121,0 -5.49023,2.47813 -5.49023,5.49023 v 25.27735 c 0,3.0121 2.47813,5.49218 5.49023,5.49218 h 71.95703 c 3.01211,0 5.49219,-2.48008 5.49219,-5.49218 v -25.27735 c 0,-3.0121 -2.48008,-5.49023 -5.49219,-5.49023 z m 0,3.44531 h 71.95703 c 1.16215,0 2.04493,0.88278 2.04493,2.04492 v 25.27735 c 0,1.16214 -0.88278,2.04492 -2.04493,2.04492 h -71.95703 c -1.16214,0 -2.04297,-0.88278 -2.04297,-2.04492 v -25.27735 c 0,-1.16214 0.88083,-2.04492 2.04297,-2.04492 z"
         id="path29"
         inkscape:label="Outline" />
      <path
         style="font-weight:500;font-size:31.0372px;line-height:0;font-family:'open sans';-inkscape-font-specification:'open sans Medium';letter-spacing:-2.11667px;word-spacing:0px;stroke-width:2.825;stroke-linecap:round"
         d="m 358.36463,230.87021 h -15.655 v -2.21261 l 11.59349,-17.24626 h -11.21461 v -2.69757 h 14.97302 v 2.21261 l -11.60864,17.24626 h 11.91174 z"
         id="text6"
         inkscape:label="Symbol Z"
         transform="translate(9.2281264e-6)"
         aria-label="Z" />
    </g>
    <g
       id="g37"
       inkscape:label="Style - Outline (Black)"
       style="display:none"
       transform="translate(8.3333335e-6)">
      <path
         style="color:#000000;display:inline;fill:#000000;fill-opacity:1;stroke-linecap:round;stroke-linejoin:round;-inkscape-stroke:none"
         d="m 314.55937,203.38472 h 71.95665 c 2.08713,0 3.76738,1.68025 3.76738,3.76738 v 25.27803 c 0,2.08713 -1.68025,3.76738 -3.76738,3.76738 h -71.95665 c -2.08713,0 -3.76738,-1.68025 -3.76738,-3.76738 V 207.1521 c 0,-2.08713 1.68025,-3.76738 3.76738,-3.76738 z"
         id="path36"
         inkscape:label="Button Shape" />
      <path
         style="color:#000000;display:inline;fill:#ffffff;fill-opacity:1;stroke-linecap:round;stroke-linejoin:round;-inkscape-stroke:none"
         d="m 314.55859,201.66211 c -3.0121,0 -5.49023,2.47813 -5.49023,5.49023 v 25.27735 c 0,3.0121 2.47813,5.49218 5.49023,5.49218 h 71.95703 c 3.01211,0 5.49219,-2.48008 5.49219,-5.49218 v -25.27735 c 0,-3.0121 -2.48008,-5.49023 -5.49219,-5.49023 z m 0,3.44531 h 71.95703 c 1.16215,0 2.04493,0.88278 2.04493,2.04492 v 25.27735 c 0,1.16214 -0.88278,2.04492 -2.04493,2.04492 h -71.95703 c -1.16214,0 -2.04297,-0.88278 -2.04297,-2.04492 v -25.27735 c 0,-1.16214 0.88083,-2.04492 2.04297,-2.04492 z"
         id="path37"
         inkscape:label="Outline" />
      <path
         style="font-weight:500;font-size:31.0372px;line-height:0;font-family:'open sans';-inkscape-font-specification:'open sans Medium';letter-spacing:-2.11667px;word-spacing:0px;fill:#ffffff;stroke-width:2.825;stroke-linecap:round"
         d="m 358.36463,230.87021 h -15.655 v -2.21261 l 11.59349,-17.24626 h -11.21461 v -2.69757 h 14.97302 v 2.21261 l -11.60864,17.24626 h 11.91174 z"
         id="text4"
         inkscape:label="Symbol Z"
         aria-label="Z" />
    </g>
    <g
       id="rect6"
       inkscape:label="Style - Transparent"
       style="display:inline"
       transform="translate(8.3333335e-6)">
      <path
         style="color:#000000;display:inline;fill:#808080;fill-opacity:0.501961;stroke-linecap:round;stroke-linejoin:round;-inkscape-stroke:none;paint-order:stroke fill markers"
         d="m 314.55859,201.66211 c -3.0121,0 -5.49023,2.47813 -5.49023,5.49023 v 25.27735 c 0,3.0121 2.47813,5.49219 5.49023,5.49218 h 71.95703 c 3.01211,0 5.49024,-2.48008 5.49024,-5.49218 v -25.27735 c 0,-3.0121 -2.47813,-5.49023 -5.49024,-5.49023 z m 0,3.44531 h 71.95703 c 1.16215,0 2.04493,0.88278 2.04493,2.04492 v 25.27735 c 0,1.16214 -0.88278,2.04492 -2.04493,2.04492 h -71.95703 c -1.16214,0 -2.04297,-0.88278 -2.04297,-2.04492 v -25.27735 c 0,-1.16214 0.88083,-2.04492 2.04297,-2.04492 z"
         id="path26"
         inkscape:label="Outline" />
      <path
         style="color:#000000;display:inline;fill:#ffffff;stroke-linecap:round;stroke-linejoin:round;-inkscape-stroke:none;paint-order:stroke fill markers"
         d="m 314.55952,203.38472 h 71.95635 c 2.08713,0 3.76738,1.68025 3.76738,3.76738 v 25.27803 c 0,2.08713 -1.68025,3.76738 -3.76738,3.76738 h -71.95635 c -2.08712,0 -3.76738,-1.68025 -3.76738,-3.76738 V 207.1521 c 0,-2.08713 1.68026,-3.76738 3.76738,-3.76738 z"
         id="path27"
         inkscape:label="Button Shape" />
      <path
         style="font-weight:500;font-size:31.0372px;line-height:0;font-family:'open sans';-inkscape-font-specification:'open sans Medium';letter-spacing:-2.11667px;word-spacing:0px;fill:#808080;stroke-width:2.825;stroke-linecap:round"
         d="m 358.36463,230.87021 h -15.655 v -2.21261 l 11.59349,-17.24626 h -11.21461 v -2.69757 h 14.97302 v 2.21261 l -11.60864,17.24626 h 11.91174 z"
         id="text5"
         inkscape:label="Symbol Z"
         aria-label="Z" />
    </g>
  </g>
</svg>
