<?xml version="1.0" encoding="UTF-8" standalone="no"?>
<!-- Created with Inkscape (http://www.inkscape.org/) -->

<svg
   width="126.21537mm"
   height="126.21536mm"
   viewBox="0 0 126.21537 126.21536"
   version="1.1"
   id="svg1"
   xml:space="preserve"
   inkscape:version="1.3.2 (091e20e, 2023-11-25, custom)"
   sodipodi:docname="nintendo-positional prompt X.svg"
   xmlns:inkscape="http://www.inkscape.org/namespaces/inkscape"
   xmlns:sodipodi="http://sodipodi.sourceforge.net/DTD/sodipodi-0.dtd"
   xmlns="http://www.w3.org/2000/svg"
   xmlns:svg="http://www.w3.org/2000/svg"><sodipodi:namedview
     id="namedview1"
     pagecolor="#5bff91"
     bordercolor="#000000"
     borderopacity="0.25"
     inkscape:showpageshadow="2"
     inkscape:pageopacity="0.0"
     inkscape:pagecheckerboard="0"
     inkscape:deskcolor="#d1d1d1"
     inkscape:document-units="mm"
     inkscape:zoom="1.4942659"
     inkscape:cx="200.76748"
     inkscape:cy="161.61782"
     inkscape:window-width="2560"
     inkscape:window-height="1351"
     inkscape:window-x="-9"
     inkscape:window-y="-9"
     inkscape:window-maximized="1"
     inkscape:current-layer="layer1" /><defs
     id="defs1"><rect
       x="-329.58707"
       y="426.24316"
       width="115.7824"
       height="107.24387"
       id="rect2" /><rect
       x="-486.35437"
       y="484.30515"
       width="87.776039"
       height="93.582237"
       id="rect1" /><rect
       x="-329.58707"
       y="426.24316"
       width="115.7824"
       height="107.24387"
       id="rect2-1" /><rect
       x="-486.35437"
       y="484.30515"
       width="87.776039"
       height="93.582237"
       id="rect1-3" /><rect
       x="-329.58707"
       y="426.24316"
       width="115.7824"
       height="107.24387"
       id="rect2-4" /><rect
       x="-486.35437"
       y="484.30515"
       width="87.776039"
       height="93.582237"
       id="rect1-9" /><rect
       x="-329.58707"
       y="426.24316"
       width="115.7824"
       height="107.24387"
       id="rect2-11" /><rect
       x="-486.35437"
       y="484.30515"
       width="87.776039"
       height="93.582237"
       id="rect1-5" /></defs><g
     inkscape:label="Positional Glyph X"
     id="layer1"
     transform="translate(-35.105441,-127.68245)"><g
       id="g2"
       inkscape:label="Style - Outline (White)"
       style="display:none"
       transform="translate(4.5833335e-7,-1.0958333e-5)"><g
         inkscape:label="Button Prompt B"
         id="layer1-8"
         transform="translate(215.32783,93.126341)"
         style="display:inline"><path
           style="color:#000000;display:inline;fill:#000000;fill-opacity:1;stroke:none;stroke-linecap:round;stroke-linejoin:round;stroke-opacity:1;-inkscape-stroke:none"
           d="m -117.11328,115.24219 c -12.554,0 -22.76563,10.21163 -22.76563,22.76562 0,12.554 10.21163,22.76367 22.76563,22.76367 12.55399,0 22.763671,-10.20967 22.763671,-22.76367 0,-12.55399 -10.209681,-22.76562 -22.763671,-22.76562 z m 0,3.10156 c 10.87863,0 19.664061,8.78543 19.664061,19.66406 0,10.87864 -8.785431,19.66406 -19.664061,19.66406 -10.87863,0 -19.66406,-8.78542 -19.66406,-19.66406 0,-10.87863 8.78543,-19.66406 19.66406,-19.66406 z"
           id="path22"
           inkscape:label="Outline" /></g><g
         inkscape:label="Button Prompt A"
         id="layer1-5"
         transform="translate(255.67042,52.783311)"
         style="display:inline"><path
           style="color:#000000;display:inline;fill:#0a0a0a;fill-opacity:1;stroke-linecap:round;stroke-linejoin:round;-inkscape-stroke:none"
           d="m -117.11328,115.24219 c -12.554,0 -22.76563,10.21163 -22.76563,22.76562 0,12.554 10.21163,22.76367 22.76563,22.76367 12.55399,0 22.763671,-10.20967 22.763671,-22.76367 0,-12.55399 -10.209681,-22.76562 -22.763671,-22.76562 z m 0,3.10156 c 10.87863,0 19.664061,8.78543 19.664061,19.66406 0,10.87864 -8.785431,19.66406 -19.664061,19.66406 -10.87863,0 -19.66406,-8.78542 -19.66406,-19.66406 0,-10.87863 8.78543,-19.66406 19.66406,-19.66406 z"
           id="path43"
           inkscape:label="Outline" /></g><g
         inkscape:label="Button Prompt Y"
         id="layer1-7"
         transform="translate(174.98435,52.783301)"
         style="display:inline"><path
           style="color:#000000;display:inline;fill:#000000;fill-opacity:1;stroke-linecap:round;stroke-linejoin:round;-inkscape-stroke:none"
           d="m -117.11328,115.24219 c -12.554,0 -22.76563,10.21163 -22.76563,22.76562 0,12.554 10.21163,22.76367 22.76563,22.76367 12.55399,0 22.763671,-10.20967 22.763671,-22.76367 0,-12.55399 -10.209681,-22.76562 -22.763671,-22.76562 z m 0,3.10156 c 10.87863,0 19.664061,8.78543 19.664061,19.66406 0,10.87864 -8.785431,19.66406 -19.664061,19.66406 -10.87863,0 -19.66406,-8.78542 -19.66406,-19.66406 0,-10.87863 8.78543,-19.66406 19.66406,-19.66406 z"
           id="path4-2"
           inkscape:label="Outline" /></g><g
         inkscape:label="Button Prompt X"
         id="layer1-4"
         transform="translate(215.32783,12.440265)"
         style="display:inline;fill:#ffffff;fill-opacity:1"><path
           id="path54"
           style="color:#000000;display:inline;fill:#ffffff;fill-opacity:1;stroke-width:1.04044;stroke-linecap:round;stroke-linejoin:round;-inkscape-stroke:none"
           inkscape:label="Circle"
           d="m 98.214253,129.98868 c -11.3185,0 -20.45904,9.14107 -20.45904,20.45957 0,11.31851 9.14054,20.45903 20.45904,20.45903 11.318487,0 20.459027,-9.14052 20.459027,-20.45903 0,-11.3185 -9.14054,-20.45957 -20.459027,-20.45957 z"
           transform="translate(-215.32783,-12.440265)" /><path
           id="path55"
           style="color:#000000;display:inline;fill:#000000;fill-opacity:1;stroke-linecap:round;stroke-linejoin:round;-inkscape-stroke:none"
           inkscape:label="Outline"
           d="m 98.214253,127.6827 c -7.61699,0 -14.36651,3.76322 -18.5012,9.52397 -0.25411,0.35405 -0.49835,0.7154 -0.73226,1.08417 -0.33914,0.53466 -0.65626,1.08396 -0.95084,1.64745 -0.22969,0.43936 -0.44626,0.88648 -0.64751,1.34203 -1.24004,2.80691 -1.93373,5.90701 -1.93373,9.16792 0,3.13849 0.63813,6.13066 1.79162,8.8532 0.28833,0.68049 0.60936,1.34413 0.96015,1.98903 0.17543,0.32252 0.35796,0.64053 0.54829,0.95343 0.38066,0.6258 0.79096,1.23198 1.22835,1.81643 4.15516,5.55218 10.7832,9.15138 18.23713,9.15138 6.276837,0 11.967727,-2.55256 16.089447,-6.67401 0.77281,-0.77282 1.49065,-1.6007 2.14664,-2.47737 1.31202,-1.75332 2.37755,-3.70143 3.14451,-5.79241 0.89477,-2.4395 1.38338,-5.0735 1.38338,-7.81968 0,-1.88786 -0.23471,-3.72151 -0.66973,-5.47667 -0.037,-0.1492 -0.0764,-0.29742 -0.11627,-0.44545 -0.14885,-0.55206 -0.31786,-1.09567 -0.50643,-1.63039 -0.8274,-2.34604 -2.02946,-4.51499 -3.53311,-6.43889 -0.24615,-0.31496 -0.5002,-0.62308 -0.76223,-0.92449 -0.22774,-0.26194 -0.46093,-0.51872 -0.70022,-0.76998 -0.12865,-0.1351 -0.25464,-0.2727 -0.38654,-0.40462 -4.12172,-4.12198 -9.81261,-6.67505 -16.089447,-6.67505 z m 0,3.10111 c 10.878607,0 19.663907,8.78581 19.663907,19.66443 0,10.87863 -8.7853,19.66391 -19.663907,19.66391 -10.87862,0 -19.66392,-8.78528 -19.66392,-19.66391 0,-10.87862 8.7853,-19.66443 19.66392,-19.66443 z"
           transform="translate(-215.32783,-12.440265)" /><path
           style="font-weight:500;font-size:31.0372px;line-height:0;font-family:'open sans';-inkscape-font-specification:'open sans Medium';letter-spacing:-2.11667px;word-spacing:0px;display:inline;fill:#000000;fill-opacity:1;stroke-width:2.825;stroke-linecap:round"
           d="m -107.87676,149.08565 h -3.54624 l -5.77401,-9.41118 -5.84978,9.41118 h -3.30377 l 7.36527,-11.51771 -6.86516,-10.63872 h 3.44016 l 5.34967,8.62312 5.33452,-8.62312 h 3.31892 l -6.88031,10.66903 z"
           id="text1"
           inkscape:label="Symbol X"
           aria-label="X"
           transform="translate(6.2499936e-8,1.1104167e-5)" /></g></g><g
       id="g42"
       inkscape:label="Style - Outline (Black)"
       style="display:none"
       transform="translate(4.5833335e-7,-1.0958333e-5)"><g
         inkscape:label="Button Prompt B"
         id="g29"
         transform="translate(215.32783,93.126341)"
         style="display:inline"><path
           style="color:#000000;display:inline;fill:#ffffff;fill-opacity:1;stroke:none;stroke-linecap:round;stroke-linejoin:round;stroke-opacity:1;-inkscape-stroke:none"
           d="m -117.11328,115.24219 c -12.554,0 -22.76563,10.21163 -22.76563,22.76562 0,12.554 10.21163,22.76367 22.76563,22.76367 12.55399,0 22.763671,-10.20967 22.763671,-22.76367 0,-12.55399 -10.209681,-22.76562 -22.763671,-22.76562 z m 0,3.10156 c 10.87863,0 19.664061,8.78543 19.664061,19.66406 0,10.87864 -8.785431,19.66406 -19.664061,19.66406 -10.87863,0 -19.66406,-8.78542 -19.66406,-19.66406 0,-10.87863 8.78543,-19.66406 19.66406,-19.66406 z"
           id="path26"
           inkscape:label="Outline" /></g><g
         inkscape:label="Button Prompt A"
         id="g33"
         transform="translate(255.67042,52.783311)"
         style="display:inline"><path
           style="color:#000000;display:inline;fill:#ffffff;fill-opacity:1;stroke-linecap:round;stroke-linejoin:round;-inkscape-stroke:none"
           d="m -117.11328,115.24219 c -12.554,0 -22.76563,10.21163 -22.76563,22.76562 0,12.554 10.21163,22.76367 22.76563,22.76367 12.55399,0 22.763671,-10.20967 22.763671,-22.76367 0,-12.55399 -10.209681,-22.76562 -22.763671,-22.76562 z m 0,3.10156 c 10.87863,0 19.664061,8.78543 19.664061,19.66406 0,10.87864 -8.785431,19.66406 -19.664061,19.66406 -10.87863,0 -19.66406,-8.78542 -19.66406,-19.66406 0,-10.87863 8.78543,-19.66406 19.66406,-19.66406 z"
           id="path30"
           inkscape:label="Outline" /></g><g
         inkscape:label="Button Prompt Y"
         id="g37"
         transform="translate(174.98435,52.783301)"
         style="display:inline"><path
           style="color:#000000;display:inline;fill:#ffffff;fill-opacity:1;stroke-linecap:round;stroke-linejoin:round;-inkscape-stroke:none"
           d="m -117.11328,115.24219 c -12.554,0 -22.76563,10.21163 -22.76563,22.76562 0,12.554 10.21163,22.76367 22.76563,22.76367 12.55399,0 22.763671,-10.20967 22.763671,-22.76367 0,-12.55399 -10.209681,-22.76562 -22.763671,-22.76562 z m 0,3.10156 c 10.87863,0 19.664061,8.78543 19.664061,19.66406 0,10.87864 -8.785431,19.66406 -19.664061,19.66406 -10.87863,0 -19.66406,-8.78542 -19.66406,-19.66406 0,-10.87863 8.78543,-19.66406 19.66406,-19.66406 z"
           id="path10"
           inkscape:label="Outline" /></g><g
         inkscape:label="Button Prompt X"
         id="g41"
         transform="translate(215.32783,12.440265)"
         style="display:inline;fill:#ffffff;fill-opacity:1"><path
           id="path54-3"
           style="color:#000000;display:inline;fill:#000000;fill-opacity:1;stroke-width:1.04044;stroke-linecap:round;stroke-linejoin:round;-inkscape-stroke:none"
           inkscape:label="Circle"
           d="m 98.214254,129.98868 c -11.3185,0 -20.45904,9.14107 -20.45904,20.45957 0,11.31851 9.14054,20.45903 20.45904,20.45903 11.318486,0 20.459026,-9.14052 20.459026,-20.45903 0,-11.3185 -9.14054,-20.45957 -20.459026,-20.45957 z"
           transform="translate(-215.32783,-12.440265)" /><path
           id="path55-9"
           style="color:#000000;display:inline;fill:#ffffff;fill-opacity:1;stroke-linecap:round;stroke-linejoin:round;-inkscape-stroke:none"
           inkscape:label="Outline"
           d="m 98.214254,127.6827 c -7.61699,0 -14.36651,3.76322 -18.5012,9.52397 -0.25411,0.35405 -0.49835,0.7154 -0.73226,1.08417 -0.33914,0.53466 -0.65626,1.08396 -0.95084,1.64745 -0.22969,0.43936 -0.44626,0.88648 -0.64751,1.34203 -1.24004,2.80691 -1.93373,5.90701 -1.93373,9.16792 0,3.13849 0.63813,6.13066 1.79162,8.8532 0.28833,0.68049 0.60936,1.34413 0.96015,1.98903 0.17543,0.32252 0.35796,0.64053 0.54829,0.95343 0.38066,0.6258 0.79096,1.23198 1.22835,1.81643 4.15516,5.55218 10.7832,9.15138 18.23713,9.15138 6.276836,0 11.967726,-2.55256 16.089446,-6.67401 0.77281,-0.77282 1.49065,-1.6007 2.14664,-2.47737 1.31202,-1.75332 2.37755,-3.70143 3.14451,-5.79241 0.89477,-2.4395 1.38338,-5.0735 1.38338,-7.81968 0,-1.88786 -0.23471,-3.72151 -0.66973,-5.47667 -0.037,-0.1492 -0.0764,-0.29742 -0.11627,-0.44545 -0.14885,-0.55206 -0.31786,-1.09567 -0.50643,-1.63039 -0.8274,-2.34604 -2.02946,-4.51499 -3.53312,-6.43889 -0.24614,-0.31496 -0.50019,-0.62308 -0.76222,-0.92449 -0.22774,-0.26194 -0.46093,-0.51872 -0.70022,-0.76998 -0.12865,-0.1351 -0.25464,-0.2727 -0.38654,-0.40462 -4.12172,-4.12198 -9.81261,-6.67505 -16.089446,-6.67505 z m 0,3.10111 c 10.878606,0 19.663906,8.78581 19.663906,19.66443 0,10.87863 -8.7853,19.66391 -19.663906,19.66391 -10.87862,0 -19.66392,-8.78528 -19.66392,-19.66391 0,-10.87862 8.7853,-19.66443 19.66392,-19.66443 z"
           transform="translate(-215.32783,-12.440265)" /><path
           style="font-weight:500;font-size:31.0372px;line-height:0;font-family:'open sans';-inkscape-font-specification:'open sans Medium';letter-spacing:-2.11667px;word-spacing:0px;display:inline;fill:#ffffff;fill-opacity:1;stroke-width:2.825;stroke-linecap:round"
           d="m -107.87676,149.08565 h -3.54624 l -5.77401,-9.41118 -5.84978,9.41118 h -3.30377 l 7.36527,-11.51771 -6.86516,-10.63872 h 3.44016 l 5.34967,8.62312 5.33452,-8.62312 h 3.31892 l -6.88031,10.66903 z"
           id="path2"
           inkscape:label="Symbol X"
           aria-label="X"
           transform="translate(6.2499936e-8,1.1104167e-5)" /></g></g><g
       id="g20"
       inkscape:label="Style - Transparent"
       style="display:inline"
       transform="translate(4.5833335e-7,-1.0958333e-5)"><g
         inkscape:label="Button Prompt B"
         id="g7"
         transform="translate(215.32783,93.126341)"
         style="display:inline"><path
           style="color:#000000;display:inline;fill:#ffffff;fill-opacity:1;stroke:none;stroke-linecap:round;stroke-linejoin:round;stroke-opacity:1;-inkscape-stroke:none"
           d="m -117.11328,115.24219 c -12.554,0 -22.76563,10.21163 -22.76563,22.76562 0,12.554 10.21163,22.76367 22.76563,22.76367 12.55399,0 22.763671,-10.20967 22.763671,-22.76367 0,-12.55399 -10.209681,-22.76562 -22.763671,-22.76562 z m 0,3.10156 c 10.87863,0 19.664061,8.78543 19.664061,19.66406 0,10.87864 -8.785431,19.66406 -19.664061,19.66406 -10.87863,0 -19.66406,-8.78542 -19.66406,-19.66406 0,-10.87863 8.78543,-19.66406 19.66406,-19.66406 z"
           id="path5"
           inkscape:label="Outline" /></g><g
         inkscape:label="Button Prompt A"
         id="g11"
         transform="translate(255.67042,52.783311)"
         style="display:inline"><path
           style="color:#000000;display:inline;fill:#ffffff;fill-opacity:1;stroke-linecap:round;stroke-linejoin:round;-inkscape-stroke:none"
           d="m -117.11328,115.24219 c -12.554,0 -22.76563,10.21163 -22.76563,22.76562 0,12.554 10.21163,22.76367 22.76563,22.76367 12.55399,0 22.763671,-10.20967 22.763671,-22.76367 0,-12.55399 -10.209681,-22.76562 -22.763671,-22.76562 z m 0,3.10156 c 10.87863,0 19.664061,8.78543 19.664061,19.66406 0,10.87864 -8.785431,19.66406 -19.664061,19.66406 -10.87863,0 -19.66406,-8.78542 -19.66406,-19.66406 0,-10.87863 8.78543,-19.66406 19.66406,-19.66406 z"
           id="path8"
           inkscape:label="Outline" /></g><g
         inkscape:label="Button Prompt Y"
         id="g15"
         transform="translate(174.98435,52.783301)"
         style="display:inline"><path
           style="color:#000000;display:inline;fill:#ffffff;fill-opacity:1;stroke-linecap:round;stroke-linejoin:round;-inkscape-stroke:none"
           d="m -117.11328,115.24219 c -12.554,0 -22.76563,10.21163 -22.76563,22.76562 0,12.554 10.21163,22.76367 22.76563,22.76367 12.55399,0 22.763671,-10.20967 22.763671,-22.76367 0,-12.55399 -10.209681,-22.76562 -22.763671,-22.76562 z m 0,3.10156 c 10.87863,0 19.664061,8.78543 19.664061,19.66406 0,10.87864 -8.785431,19.66406 -19.664061,19.66406 -10.87863,0 -19.66406,-8.78542 -19.66406,-19.66406 0,-10.87863 8.78543,-19.66406 19.66406,-19.66406 z"
           id="path12"
           inkscape:label="Outline"
           transform="translate(1.2499999e-6)" /></g><g
         inkscape:label="Button Prompt X"
         id="g19"
         transform="translate(215.32783,12.440265)"
         style="display:inline;fill:#ffffff;fill-opacity:1"><path
           id="path15"
           style="color:#000000;display:inline;fill:#ffffff;fill-opacity:1;stroke-linecap:round;stroke-linejoin:round;-inkscape-stroke:none"
           inkscape:label="Circle"
           d="m -117.11306,115.24219 c -12.55399,0 -22.76606,10.21155 -22.76606,22.76553 0,12.55399 10.21207,22.76399 22.76606,22.76399 12.55397,0 22.763465,-10.21 22.763465,-22.76399 0,-12.55398 -10.209495,-22.76553 -22.763465,-22.76553 z" /><path
           style="font-weight:500;font-size:31.0372px;line-height:0;font-family:'open sans';-inkscape-font-specification:'open sans Medium';letter-spacing:-2.11667px;word-spacing:0px;display:inline;fill:#808080;fill-opacity:1;stroke-width:2.825;stroke-linecap:round"
           d="m -107.87676,149.08565 h -3.54624 l -5.77401,-9.41118 -5.84978,9.41118 h -3.30377 l 7.36527,-11.51771 -6.86516,-10.63872 h 3.44016 l 5.34967,8.62312 5.33452,-8.62312 h 3.31892 l -6.88031,10.66903 z"
           id="path1"
           inkscape:label="Symbol X"
           aria-label="X"
           transform="translate(6.2499936e-8,1.1104167e-5)" /></g></g></g></svg>
