<?xml version="1.0" encoding="UTF-8" standalone="no"?>
<!-- Created with Inkscape (http://www.inkscape.org/) -->

<svg
   width="82.9375mm"
   height="36.259762mm"
   viewBox="0 0 82.937499 36.259761"
   version="1.1"
   id="svg1"
   inkscape:version="1.3.2 (091e20e, 2023-11-25, custom)"
   sodipodi:docname="nintendo-SL.svg"
   xmlns:inkscape="http://www.inkscape.org/namespaces/inkscape"
   xmlns:sodipodi="http://sodipodi.sourceforge.net/DTD/sodipodi-0.dtd"
   xmlns="http://www.w3.org/2000/svg"
   xmlns:svg="http://www.w3.org/2000/svg">
  <sodipodi:namedview
     id="namedview1"
     pagecolor="#ffffff"
     bordercolor="#000000"
     borderopacity="0.25"
     inkscape:showpageshadow="2"
     inkscape:pageopacity="0.0"
     inkscape:pagecheckerboard="0"
     inkscape:deskcolor="#d1d1d1"
     inkscape:document-units="mm"
     inkscape:zoom="2.8284271"
     inkscape:cx="141.42136"
     inkscape:cy="74.246213"
     inkscape:window-width="2560"
     inkscape:window-height="1351"
     inkscape:window-x="-9"
     inkscape:window-y="-9"
     inkscape:window-maximized="1"
     inkscape:current-layer="svg1" />
  <defs
     id="defs1">
    <rect
       x="1.366164"
       y="506.84683"
       width="185.11522"
       height="155.74271"
       id="rect8" />
    <rect
       x="-8.1969843"
       y="504.1145"
       width="179.65057"
       height="198.09378"
       id="rect7" />
    <rect
       x="360.04303"
       y="190.72911"
       width="206.08942"
       height="106.00632"
       id="rect5" />
    <rect
       x="360.04303"
       y="190.72911"
       width="206.08942"
       height="106.00632"
       id="rect2" />
    <rect
       x="360.04303"
       y="190.72911"
       width="206.08942"
       height="106.00632"
       id="rect3" />
    <rect
       x="360.04303"
       y="190.72911"
       width="206.08942"
       height="106.00632"
       id="rect4" />
    <rect
       x="360.04303"
       y="190.72911"
       width="206.08942"
       height="106.00632"
       id="rect9" />
    <rect
       x="360.04303"
       y="190.72911"
       width="206.08942"
       height="106.00632"
       id="rect10" />
    <rect
       x="360.04303"
       y="190.72911"
       width="206.08942"
       height="106.00632"
       id="rect11" />
    <rect
       x="360.04303"
       y="190.72911"
       width="206.08942"
       height="106.00632"
       id="rect12" />
    <rect
       x="360.04303"
       y="190.72911"
       width="206.08942"
       height="106.00632"
       id="rect13" />
    <rect
       x="360.04303"
       y="190.72911"
       width="206.08942"
       height="106.00632"
       id="rect14" />
    <rect
       x="360.04303"
       y="190.72911"
       width="206.08942"
       height="106.00632"
       id="rect15" />
    <rect
       x="360.04303"
       y="190.72911"
       width="206.08942"
       height="106.00632"
       id="rect16" />
    <rect
       x="360.04303"
       y="190.72911"
       width="206.08942"
       height="106.00632"
       id="rect17" />
    <rect
       x="360.04303"
       y="190.72911"
       width="206.08942"
       height="106.00632"
       id="rect18" />
    <rect
       x="360.04303"
       y="190.72911"
       width="206.08942"
       height="106.00632"
       id="rect18-7" />
  </defs>
  <g
     inkscape:label="Button Prompt SL"
     id="layer1"
     transform="translate(-309.06837,-201.66211)">
    <g
       id="rect20"
       inkscape:label="Style - Outline (White)"
       style="display:none">
      <path
         style="color:#000000;display:inline;fill:#ffffff;stroke-linecap:round;stroke-linejoin:round;-inkscape-stroke:none"
         d="m 314.55937,203.38472 h 71.95665 c 2.08713,0 3.76738,1.68025 3.76738,3.76738 v 25.27803 c 0,2.08713 -1.68025,3.76738 -3.76738,3.76738 h -71.95665 c -2.08713,0 -3.76738,-1.68025 -3.76738,-3.76738 V 207.1521 c 0,-2.08713 1.68025,-3.76738 3.76738,-3.76738 z"
         id="path28"
         inkscape:label="Button Shape" />
      <path
         style="color:#000000;display:inline;fill:#000000;stroke-linecap:round;stroke-linejoin:round;-inkscape-stroke:none"
         d="m 314.55859,201.66211 c -3.0121,0 -5.49023,2.47813 -5.49023,5.49023 v 25.27735 c 0,3.0121 2.47813,5.49218 5.49023,5.49218 h 71.95703 c 3.01211,0 5.49219,-2.48008 5.49219,-5.49218 v -25.27735 c 0,-3.0121 -2.48008,-5.49023 -5.49219,-5.49023 z m 0,3.44531 h 71.95703 c 1.16215,0 2.04493,0.88278 2.04493,2.04492 v 25.27735 c 0,1.16214 -0.88278,2.04492 -2.04493,2.04492 h -71.95703 c -1.16214,0 -2.04297,-0.88278 -2.04297,-2.04492 v -25.27735 c 0,-1.16214 0.88083,-2.04492 2.04297,-2.04492 z"
         id="path29"
         inkscape:label="Outline" />
      <path
         style="font-weight:500;font-size:31.0372px;line-height:0;font-family:'open sans';-inkscape-font-specification:'open sans Medium';letter-spacing:-2.11667px;word-spacing:0px;stroke-width:2.825;stroke-linecap:round"
         d="m 17.344227,16.617358 q 0,1.970135 -0.985067,3.379539 -0.969913,1.394249 -2.743034,2.136838 -1.773122,0.74259 -4.2130578,0.74259 -1.2275455,0 -2.3490069,-0.136394 Q 5.9477548,22.618692 4.9929972,22.376213 4.0382395,22.133735 3.2653405,21.770018 v -2.940047 q 1.2578553,0.515266 2.9097376,0.969912 1.6518822,0.439492 3.4098487,0.439492 1.5306432,0 2.5611752,-0.409182 1.045687,-0.424337 1.576108,-1.182081 0.530421,-0.757744 0.530421,-1.818586 0,-1.060842 -0.515266,-1.773121 Q 13.222099,14.32897 12.100637,13.722775 10.994331,13.11658 9.1908998,12.43461 7.9330445,11.979964 6.9025125,11.404078 5.8719804,10.813038 5.1142362,10.055293 4.371647,9.2975492 3.9624651,8.282172 3.5532833,7.2516399 3.5532833,5.9180102 q 0,-1.8337409 0.8941381,-3.1370608 0.909293,-1.30332 2.5308655,-1.98528972 1.6215725,-0.69712463 3.7584111,-0.69712463 1.757966,0 3.273455,0.34856231 1.530643,0.34856232 2.909737,0.95475764 l -0.985067,2.5763302 q -1.288165,-0.530421 -2.591485,-0.8638284 -1.30332,-0.3334074 -2.697569,-0.3334074 -1.2881655,0 -2.1823036,0.3788721 -0.8789832,0.378872 -1.3487846,1.0759967 -0.4546465,0.6971246 -0.4546465,1.6518823 0,1.0759967 0.4849563,1.7882762 0.4849563,0.7122795 1.5306432,1.2881651 1.0456869,0.5758855 2.7278792,1.2275452 1.89436,0.727435 3.212835,1.545798 1.33363,0.818364 2.030754,1.970135 0.697125,1.151771 0.697125,2.909738 z m 2.263091,5.955869 V 0.41678759 h 3.106751 V 19.875658 h 9.623351 v 2.697569 z"
         id="text3"
         inkscape:label="Symbol SL"
         transform="translate(332.73632,208.30369)"
         aria-label="SL" />
    </g>
    <g
       id="g37"
       inkscape:label="Style - Outline (Black)"
       style="display:none"
       transform="translate(8.3333335e-6)">
      <path
         style="color:#000000;display:inline;fill:#000000;fill-opacity:1;stroke-linecap:round;stroke-linejoin:round;-inkscape-stroke:none"
         d="m 314.55937,203.38472 h 71.95665 c 2.08713,0 3.76738,1.68025 3.76738,3.76738 v 25.27803 c 0,2.08713 -1.68025,3.76738 -3.76738,3.76738 h -71.95665 c -2.08713,0 -3.76738,-1.68025 -3.76738,-3.76738 V 207.1521 c 0,-2.08713 1.68025,-3.76738 3.76738,-3.76738 z"
         id="path36"
         inkscape:label="Button Shape" />
      <path
         style="color:#000000;display:inline;fill:#ffffff;fill-opacity:1;stroke-linecap:round;stroke-linejoin:round;-inkscape-stroke:none"
         d="m 314.55859,201.66211 c -3.0121,0 -5.49023,2.47813 -5.49023,5.49023 v 25.27735 c 0,3.0121 2.47813,5.49218 5.49023,5.49218 h 71.95703 c 3.01211,0 5.49219,-2.48008 5.49219,-5.49218 v -25.27735 c 0,-3.0121 -2.48008,-5.49023 -5.49219,-5.49023 z m 0,3.44531 h 71.95703 c 1.16215,0 2.04493,0.88278 2.04493,2.04492 v 25.27735 c 0,1.16214 -0.88278,2.04492 -2.04493,2.04492 h -71.95703 c -1.16214,0 -2.04297,-0.88278 -2.04297,-2.04492 v -25.27735 c 0,-1.16214 0.88083,-2.04492 2.04297,-2.04492 z"
         id="path37"
         inkscape:label="Outline" />
      <path
         style="font-weight:500;font-size:31.0372px;line-height:0;font-family:'open sans';-inkscape-font-specification:'open sans Medium';letter-spacing:-2.11667px;word-spacing:0px;fill:#ffffff;stroke-width:2.825;stroke-linecap:round"
         d="m 17.344227,16.617358 q 0,1.970135 -0.985067,3.379539 -0.969913,1.394249 -2.743034,2.136838 -1.773122,0.74259 -4.2130578,0.74259 -1.2275455,0 -2.3490069,-0.136394 Q 5.9477548,22.618692 4.9929972,22.376213 4.0382395,22.133735 3.2653405,21.770018 v -2.940047 q 1.2578553,0.515266 2.9097376,0.969912 1.6518822,0.439492 3.4098487,0.439492 1.5306432,0 2.5611752,-0.409182 1.045687,-0.424337 1.576108,-1.182081 0.530421,-0.757744 0.530421,-1.818586 0,-1.060842 -0.515266,-1.773121 Q 13.222099,14.32897 12.100637,13.722775 10.994331,13.11658 9.1908998,12.43461 7.9330445,11.979964 6.9025125,11.404078 5.8719804,10.813038 5.1142362,10.055293 4.371647,9.2975492 3.9624651,8.282172 3.5532833,7.2516399 3.5532833,5.9180102 q 0,-1.8337409 0.8941381,-3.1370608 0.909293,-1.30332 2.5308655,-1.98528972 1.6215725,-0.69712463 3.7584111,-0.69712463 1.757966,0 3.273455,0.34856231 1.530643,0.34856232 2.909737,0.95475764 l -0.985067,2.5763302 q -1.288165,-0.530421 -2.591485,-0.8638284 -1.30332,-0.3334074 -2.697569,-0.3334074 -1.2881655,0 -2.1823036,0.3788721 -0.8789832,0.378872 -1.3487846,1.0759967 -0.4546465,0.6971246 -0.4546465,1.6518823 0,1.0759967 0.4849563,1.7882762 0.4849563,0.7122795 1.5306432,1.2881651 1.0456869,0.5758855 2.7278792,1.2275452 1.89436,0.727435 3.212835,1.545798 1.33363,0.818364 2.030754,1.970135 0.697125,1.151771 0.697125,2.909738 z m 2.263091,5.955869 V 0.41678759 h 3.106751 V 19.875658 h 9.623351 v 2.697569 z"
         id="text1"
         inkscape:label="Symbol SL"
         transform="translate(332.73631,208.30369)"
         aria-label="SL" />
    </g>
    <g
       id="rect6"
       inkscape:label="Style - Transparent"
       style="display:inline"
       transform="translate(8.3333335e-6)">
      <path
         style="color:#000000;display:inline;fill:#808080;fill-opacity:0.501961;stroke-linecap:round;stroke-linejoin:round;-inkscape-stroke:none;paint-order:stroke fill markers"
         d="m 314.55859,201.66211 c -3.0121,0 -5.49023,2.47813 -5.49023,5.49023 v 25.27735 c 0,3.0121 2.47813,5.49219 5.49023,5.49218 h 71.95703 c 3.01211,0 5.49024,-2.48008 5.49024,-5.49218 v -25.27735 c 0,-3.0121 -2.47813,-5.49023 -5.49024,-5.49023 z m 0,3.44531 h 71.95703 c 1.16215,0 2.04493,0.88278 2.04493,2.04492 v 25.27735 c 0,1.16214 -0.88278,2.04492 -2.04493,2.04492 h -71.95703 c -1.16214,0 -2.04297,-0.88278 -2.04297,-2.04492 v -25.27735 c 0,-1.16214 0.88083,-2.04492 2.04297,-2.04492 z"
         id="path26"
         inkscape:label="Outline" />
      <path
         style="color:#000000;display:inline;fill:#ffffff;stroke-linecap:round;stroke-linejoin:round;-inkscape-stroke:none;paint-order:stroke fill markers"
         d="m 314.55952,203.38472 h 71.95635 c 2.08713,0 3.76738,1.68025 3.76738,3.76738 v 25.27803 c 0,2.08713 -1.68025,3.76738 -3.76738,3.76738 h -71.95635 c -2.08712,0 -3.76738,-1.68025 -3.76738,-3.76738 V 207.1521 c 0,-2.08713 1.68026,-3.76738 3.76738,-3.76738 z"
         id="path27"
         inkscape:label="Button Shape" />
      <path
         style="font-weight:500;font-size:31.0372px;line-height:0;font-family:'open sans';-inkscape-font-specification:'open sans Medium';letter-spacing:-2.11667px;word-spacing:0px;fill:#808080;stroke-width:2.825;stroke-linecap:round"
         d="m 17.344227,16.617358 q 0,1.970135 -0.985067,3.379539 -0.969913,1.394249 -2.743034,2.136838 -1.773122,0.74259 -4.2130578,0.74259 -1.2275455,0 -2.3490069,-0.136394 Q 5.9477548,22.618692 4.9929972,22.376213 4.0382395,22.133735 3.2653405,21.770018 v -2.940047 q 1.2578553,0.515266 2.9097376,0.969912 1.6518822,0.439492 3.4098487,0.439492 1.5306432,0 2.5611752,-0.409182 1.045687,-0.424337 1.576108,-1.182081 0.530421,-0.757744 0.530421,-1.818586 0,-1.060842 -0.515266,-1.773121 Q 13.222099,14.32897 12.100637,13.722775 10.994331,13.11658 9.1908998,12.43461 7.9330445,11.979964 6.9025125,11.404078 5.8719804,10.813038 5.1142362,10.055293 4.371647,9.2975492 3.9624651,8.282172 3.5532833,7.2516399 3.5532833,5.9180102 q 0,-1.8337409 0.8941381,-3.1370608 0.909293,-1.30332 2.5308655,-1.98528972 1.6215725,-0.69712463 3.7584111,-0.69712463 1.757966,0 3.273455,0.34856231 1.530643,0.34856232 2.909737,0.95475764 l -0.985067,2.5763302 q -1.288165,-0.530421 -2.591485,-0.8638284 -1.30332,-0.3334074 -2.697569,-0.3334074 -1.2881655,0 -2.1823036,0.3788721 -0.8789832,0.378872 -1.3487846,1.0759967 -0.4546465,0.6971246 -0.4546465,1.6518823 0,1.0759967 0.4849563,1.7882762 0.4849563,0.7122795 1.5306432,1.2881651 1.0456869,0.5758855 2.7278792,1.2275452 1.89436,0.727435 3.212835,1.545798 1.33363,0.818364 2.030754,1.970135 0.697125,1.151771 0.697125,2.909738 z m 2.263091,5.955869 V 0.41678759 h 3.106751 V 19.875658 h 9.623351 v 2.697569 z"
         id="text2"
         inkscape:label="Symbol SL"
         transform="translate(332.73631,208.30369)"
         aria-label="SL" />
    </g>
  </g>
</svg>
