<?xml version="1.0" encoding="UTF-8" standalone="no"?>
<!-- Created with Inkscape (http://www.inkscape.org/) -->

<svg
   width="126.21545mm"
   height="126.21523mm"
   viewBox="0 0 126.21543 126.21519"
   version="1.1"
   id="svg1"
   xml:space="preserve"
   inkscape:version="1.3.2 (091e20e, 2023-11-25, custom)"
   sodipodi:docname="nintendo-positional prompts JoyCon D-PAD Up.svg"
   xmlns:inkscape="http://www.inkscape.org/namespaces/inkscape"
   xmlns:sodipodi="http://sodipodi.sourceforge.net/DTD/sodipodi-0.dtd"
   xmlns="http://www.w3.org/2000/svg"
   xmlns:svg="http://www.w3.org/2000/svg"><sodipodi:namedview
     id="namedview1"
     pagecolor="#5bff91"
     bordercolor="#000000"
     borderopacity="0.25"
     inkscape:showpageshadow="2"
     inkscape:pageopacity="0.0"
     inkscape:pagecheckerboard="0"
     inkscape:deskcolor="#d1d1d1"
     inkscape:document-units="mm"
     inkscape:zoom="1.4942659"
     inkscape:cx="127.15274"
     inkscape:cy="317.54723"
     inkscape:window-width="2560"
     inkscape:window-height="1351"
     inkscape:window-x="-9"
     inkscape:window-y="-9"
     inkscape:window-maximized="1"
     inkscape:current-layer="g2" /><defs
     id="defs1"><rect
       x="-329.58707"
       y="426.24316"
       width="115.7824"
       height="107.24387"
       id="rect2" /><rect
       x="-486.35437"
       y="484.30515"
       width="87.776039"
       height="93.582237"
       id="rect1" /><rect
       x="-329.58707"
       y="426.24316"
       width="115.7824"
       height="107.24387"
       id="rect2-1" /><rect
       x="-486.35437"
       y="484.30515"
       width="87.776039"
       height="93.582237"
       id="rect1-3" /><rect
       x="-329.58707"
       y="426.24316"
       width="115.7824"
       height="107.24387"
       id="rect2-4" /><rect
       x="-486.35437"
       y="484.30515"
       width="87.776039"
       height="93.582237"
       id="rect1-9" /><rect
       x="-329.58707"
       y="426.24316"
       width="115.7824"
       height="107.24387"
       id="rect2-11" /><rect
       x="-486.35437"
       y="484.30515"
       width="87.776039"
       height="93.582237"
       id="rect1-5" /><rect
       x="-56.219887"
       y="21.188398"
       width="94.076492"
       height="120.63262"
       id="rect3" /><rect
       x="-329.58707"
       y="426.24316"
       width="115.7824"
       height="107.24387"
       id="rect2-49" /><rect
       x="-486.35437"
       y="484.30515"
       width="87.776039"
       height="93.582237"
       id="rect1-2" /><rect
       x="-56.219887"
       y="21.188398"
       width="94.076492"
       height="120.63262"
       id="rect4" /><rect
       x="-56.219887"
       y="21.188398"
       width="94.076492"
       height="120.63262"
       id="rect5" /><rect
       x="-56.219887"
       y="21.188398"
       width="94.076492"
       height="120.63262"
       id="rect3-0" /><rect
       x="-329.58707"
       y="426.24316"
       width="115.7824"
       height="107.24387"
       id="rect2-0" /><rect
       x="-486.35437"
       y="484.30515"
       width="87.776039"
       height="93.582237"
       id="rect1-1" /><rect
       x="-56.219887"
       y="21.188398"
       width="94.076492"
       height="120.63262"
       id="rect4-5" /><rect
       x="-56.219887"
       y="21.188398"
       width="94.076492"
       height="120.63262"
       id="rect5-9" /><rect
       x="-56.219887"
       y="21.188398"
       width="94.076492"
       height="120.63262"
       id="rect3-6" /><rect
       x="-329.58707"
       y="426.24316"
       width="115.7824"
       height="107.24387"
       id="rect2-5" /><rect
       x="-486.35437"
       y="484.30515"
       width="87.776039"
       height="93.582237"
       id="rect1-31" /><rect
       x="-56.219887"
       y="21.188398"
       width="94.076492"
       height="120.63262"
       id="rect4-50" /><rect
       x="-56.219887"
       y="21.188398"
       width="94.076492"
       height="120.63262"
       id="rect5-8" /><rect
       x="-56.219887"
       y="21.188398"
       width="94.076492"
       height="120.63262"
       id="rect3-64" /><rect
       x="-329.58707"
       y="426.24316"
       width="115.7824"
       height="107.24387"
       id="rect2-46" /><rect
       x="-486.35437"
       y="484.30515"
       width="87.776039"
       height="93.582237"
       id="rect1-21" /><rect
       x="-56.219887"
       y="21.188398"
       width="94.076492"
       height="120.63262"
       id="rect4-4" /><rect
       x="-56.219887"
       y="21.188398"
       width="94.076492"
       height="120.63262"
       id="rect5-85" /></defs><g
     inkscape:label="Button Prompt Joy-Con D-PAD Up"
     id="layer1"
     transform="translate(-35.105345,-127.68259)"
     style="display:inline"><g
       id="g2"
       inkscape:label="Style - Outline (White)"
       style="display:none"
       transform="translate(-9.2910889e-5)"><g
         inkscape:label="Button Prompt D-PAD Down"
         id="layer1-8-0"
         transform="translate(215.32783,93.126341)"
         style="display:inline"><path
           style="color:#000000;display:inline;fill:#000000;fill-opacity:1;stroke-linecap:round;stroke-linejoin:round;-inkscape-stroke:none"
           d="m -76.7698,155.58523 c -12.554,0 -22.76563,10.21163 -22.76563,22.76562 0,12.554 10.21163,22.76367 22.76563,22.76367 12.55399,0 22.763671,-10.20967 22.763671,-22.76367 0,-12.55399 -10.209681,-22.76562 -22.763671,-22.76562 z m 0,3.10156 c 10.87863,0 19.664061,8.78543 19.664061,19.66406 0,10.87864 -8.785431,19.66406 -19.664061,19.66406 -10.87863,0 -19.66406,-8.78542 -19.66406,-19.66406 0,-10.87863 8.78543,-19.66406 19.66406,-19.66406 z"
           id="path5"
           inkscape:label="Outline"
           transform="translate(-40.343479,-40.34304)" /></g><g
         inkscape:label="Button Prompt D-PAD Right"
         id="layer1-5-1"
         transform="translate(255.67042,52.783311)"
         style="display:inline"><path
           style="color:#000000;display:inline;fill:#000000;fill-opacity:1;stroke-linecap:round;stroke-linejoin:round;-inkscape-stroke:none"
           d="m -117.1132,115.24219 c -12.554,0 -22.76563,10.21163 -22.76563,22.76562 0,12.554 10.21163,22.76367 22.76563,22.76367 12.55399,0 22.763666,-10.20967 22.763666,-22.76367 0,-12.55399 -10.209676,-22.76562 -22.763666,-22.76562 z m 0,3.10156 c 10.87863,0 19.664056,8.78543 19.664056,19.66406 0,10.87864 -8.785426,19.66406 -19.664056,19.66406 -10.87863,0 -19.66406,-8.78542 -19.66406,-19.66406 0,-10.87863 8.78543,-19.66406 19.66406,-19.66406 z"
           id="path4-2-8"
           inkscape:label="Outline" /></g><g
         inkscape:label="Button Prompt D-PAD Left"
         id="layer1-7-7"
         transform="translate(174.98435,52.783301)"
         style="display:inline"><path
           style="color:#000000;display:inline;fill:#000000;fill-opacity:1;stroke-linecap:round;stroke-linejoin:round;-inkscape-stroke:none"
           d="m -157.45676,155.58523 c -12.554,0 -22.76563,10.21163 -22.76563,22.76562 0,12.554 10.21163,22.76367 22.76563,22.76367 12.55399,0 22.76367,-10.20967 22.76367,-22.76367 0,-12.55399 -10.20968,-22.76562 -22.76367,-22.76562 z m 0,3.10156 c 10.87863,0 19.66406,8.78543 19.66406,19.66406 0,10.87864 -8.78543,19.66406 -19.66406,19.66406 -10.87863,0 -19.66406,-8.78542 -19.66406,-19.66406 0,-10.87863 8.78543,-19.66406 19.66406,-19.66406 z"
           id="path4-6-7"
           inkscape:label="Outline"
           transform="translate(40.343481,-40.343035)" /></g><g
         inkscape:label="Button Prompt D-PAD Up"
         id="layer1-4-7"
         transform="translate(215.32783,12.440265)"
         style="display:inline;fill:#ffffff;fill-opacity:1"><path
           id="path23"
           style="color:#000000;display:inline;fill:#ffffff;fill-opacity:1;stroke-width:1.04044;stroke-linecap:round;stroke-linejoin:round;-inkscape-stroke:none"
           inkscape:label="Circle"
           d="m 98.214349,129.98857 c -11.3185,0 -20.45904,9.14107 -20.45904,20.45957 0,11.31851 9.14054,20.45903 20.45904,20.45903 11.318491,0 20.459021,-9.14052 20.459021,-20.45903 0,-11.3185 -9.14053,-20.45957 -20.459021,-20.45957 z"
           transform="translate(-215.32783,-12.440265)" /><path
           id="path24"
           style="color:#000000;display:inline;fill:#000000;fill-opacity:1;stroke-linecap:round;stroke-linejoin:round;-inkscape-stroke:none"
           inkscape:label="Outline"
           d="m 98.214349,127.68259 c -7.61699,0 -14.36651,3.76322 -18.5012,9.52397 -0.25411,0.35405 -0.49835,0.7154 -0.73226,1.08417 -0.33914,0.53466 -0.65626,1.08396 -0.95084,1.64745 -0.22969,0.43936 -0.44626,0.88648 -0.64751,1.34203 -1.24004,2.80691 -1.93373,5.90701 -1.93373,9.16792 0,3.13849 0.63813,6.13066 1.79162,8.8532 0.28833,0.68049 0.60936,1.34413 0.96015,1.98903 0.17543,0.32252 0.35796,0.64053 0.54829,0.95343 0.38066,0.6258 0.79096,1.23198 1.22835,1.81643 4.15516,5.55218 10.7832,9.15138 18.23713,9.15138 6.276841,0 11.967731,-2.55256 16.089451,-6.67401 0.77281,-0.77282 1.49064,-1.6007 2.14664,-2.47737 1.31201,-1.75332 2.37754,-3.70143 3.14451,-5.79241 0.89476,-2.4395 1.38338,-5.0735 1.38338,-7.81968 0,-1.88786 -0.23472,-3.72151 -0.66973,-5.47667 -0.037,-0.1492 -0.0764,-0.29742 -0.11627,-0.44545 -0.14885,-0.55206 -0.31786,-1.09567 -0.50643,-1.63039 -0.82741,-2.34604 -2.02946,-4.51499 -3.53312,-6.43889 -0.24615,-0.31496 -0.5002,-0.62308 -0.76223,-0.92449 -0.22773,-0.26194 -0.46092,-0.51872 -0.70021,-0.76998 -0.12865,-0.1351 -0.25464,-0.2727 -0.38654,-0.40462 -4.12172,-4.12198 -9.81261,-6.67505 -16.089451,-6.67505 z m 0,3.10111 c 10.878611,0 19.663901,8.78581 19.663901,19.66443 0,10.87863 -8.78529,19.66391 -19.663901,19.66391 -10.87862,0 -19.66392,-8.78528 -19.66392,-19.66391 0,-10.87862 8.7853,-19.66443 19.66392,-19.66443 z"
           transform="translate(-215.32783,-12.440265)" /><path
           id="path28"
           style="color:#000000;display:inline;fill:#000000;fill-opacity:1;stroke-width:2.01647;stroke-linecap:round;stroke-linejoin:round;-inkscape-stroke:none"
           d="m -116.70283,127.96321 a 1.0502375,0.96810035 0 0 0 -0.91064,0.48371 l -5.42744,8.66676 -5.42679,8.66266 a 1.0502375,0.96810035 0 0 0 0.91065,1.4519 h 10.85422 10.85358 a 1.0502375,0.96810035 0 0 0 0.91065,-1.4519 l -5.42678,-8.66266 -5.42679,-8.66676 a 1.0502375,0.96810035 0 0 0 -0.91066,-0.48371 z"
           inkscape:label="Symbol D-PAD Up" /></g></g><g
       id="g42"
       inkscape:label="Style - Outline (Black)"
       style="display:none"
       transform="translate(-9.2910889e-5)"><g
         inkscape:label="Button Prompt D-PAD Down"
         id="g29"
         transform="translate(215.32783,93.126341)"
         style="display:inline"><path
           style="color:#000000;display:inline;fill:#ffffff;fill-opacity:1;stroke-linecap:round;stroke-linejoin:round;-inkscape-stroke:none"
           d="m -157.45587,155.58522 c -12.554,0 -22.76563,10.21163 -22.76563,22.76562 0,12.554 10.21163,22.76367 22.76563,22.76367 12.55399,0 22.76367,-10.20967 22.76367,-22.76367 0,-12.55399 -10.20968,-22.76562 -22.76367,-22.76562 z m 0,3.10156 c 10.87863,0 19.66406,8.78543 19.66406,19.66406 0,10.87864 -8.78543,19.66406 -19.66406,19.66406 -10.87863,0 -19.66406,-8.78542 -19.66406,-19.66406 0,-10.87863 8.78543,-19.66406 19.66406,-19.66406 z"
           id="path9"
           inkscape:label="Outline"
           transform="translate(40.342591,-40.34303)" /></g><g
         inkscape:label="Button Prompt D-PAD Right"
         id="g33"
         transform="translate(255.67042,52.783311)"
         style="display:inline"><path
           style="color:#000000;display:inline;fill:#ffffff;fill-opacity:1;stroke-linecap:round;stroke-linejoin:round;-inkscape-stroke:none"
           d="m -117.11321,115.24219 c -12.554,0 -22.76563,10.21163 -22.76563,22.76562 0,12.554 10.21163,22.76367 22.76563,22.76367 12.55399,0 22.763676,-10.20967 22.763676,-22.76367 0,-12.55399 -10.209686,-22.76562 -22.763676,-22.76562 z m 0,3.10156 c 10.87863,0 19.664066,8.78543 19.664066,19.66406 0,10.87864 -8.785436,19.66406 -19.664066,19.66406 -10.87863,0 -19.66406,-8.78542 -19.66406,-19.66406 0,-10.87863 8.78543,-19.66406 19.66406,-19.66406 z"
           id="path20"
           inkscape:label="Outline" /></g><g
         inkscape:label="Button Prompt D-PAD Left"
         id="g37"
         transform="translate(174.98435,52.783301)"
         style="display:inline"><path
           style="color:#000000;display:inline;fill:#ffffff;fill-opacity:1;stroke-linecap:round;stroke-linejoin:round;-inkscape-stroke:none"
           d="m 57.871068,168.02549 c -12.554,0 -22.76563,10.21163 -22.76563,22.76562 0,12.554 10.21163,22.76367 22.76563,22.76367 12.55399,0 22.763671,-10.20967 22.763671,-22.76367 0,-12.55399 -10.209681,-22.76562 -22.763671,-22.76562 z m 0,3.10156 c 10.87863,0 19.664061,8.78543 19.664061,19.66406 0,10.87864 -8.785431,19.66406 -19.664061,19.66406 -10.87863,0 -19.66406,-8.78542 -19.66406,-19.66406 0,-10.87863 8.78543,-19.66406 19.66406,-19.66406 z"
           id="path38"
           inkscape:label="Outline"
           transform="translate(-174.98435,-52.783301)" /></g><g
         inkscape:label="Button Prompt D-PAD Up"
         id="g41"
         transform="translate(215.32783,12.440265)"
         style="display:inline;fill:#ffffff;fill-opacity:1"><path
           id="path25"
           style="color:#000000;display:inline;fill:#000000;fill-opacity:1;stroke-width:1.04044;stroke-linecap:round;stroke-linejoin:round;-inkscape-stroke:none"
           inkscape:label="Circle"
           d="m 98.21435,129.98857 c -11.3185,0 -20.45904,9.14107 -20.45904,20.45957 0,11.31851 9.14054,20.45903 20.45904,20.45903 11.31849,0 20.45903,-9.14052 20.45903,-20.45903 0,-11.3185 -9.14054,-20.45957 -20.45903,-20.45957 z"
           transform="translate(-215.32783,-12.440265)" /><path
           id="path26"
           style="color:#000000;display:inline;fill:#f3f3f3;fill-opacity:1;stroke-linecap:round;stroke-linejoin:round;-inkscape-stroke:none"
           inkscape:label="Outline"
           d="m 98.21435,127.68259 c -7.61699,0 -14.36651,3.76322 -18.5012,9.52397 -0.25411,0.35405 -0.49835,0.7154 -0.73226,1.08417 -0.33914,0.53466 -0.65626,1.08396 -0.95084,1.64745 -0.22969,0.43936 -0.44626,0.88648 -0.64751,1.34203 -1.24004,2.80691 -1.93373,5.90701 -1.93373,9.16792 0,3.13849 0.63813,6.13066 1.79162,8.8532 0.28833,0.68049 0.60936,1.34413 0.96015,1.98903 0.17543,0.32252 0.35796,0.64053 0.54829,0.95343 0.38066,0.6258 0.79096,1.23198 1.22835,1.81643 4.15516,5.55218 10.7832,9.15138 18.23713,9.15138 6.27684,0 11.96773,-2.55256 16.08945,-6.67401 0.77281,-0.77282 1.49065,-1.6007 2.14664,-2.47737 1.31202,-1.75332 2.37755,-3.70143 3.14451,-5.79241 0.89477,-2.4395 1.38338,-5.0735 1.38338,-7.81968 0,-1.88786 -0.23471,-3.72151 -0.66973,-5.47667 -0.037,-0.1492 -0.0764,-0.29742 -0.11627,-0.44545 -0.14885,-0.55206 -0.31786,-1.09567 -0.50643,-1.63039 -0.8274,-2.34604 -2.02946,-4.51499 -3.53312,-6.43889 -0.24614,-0.31496 -0.50019,-0.62308 -0.76222,-0.92449 -0.22774,-0.26194 -0.46093,-0.51872 -0.70022,-0.76998 -0.12865,-0.1351 -0.25464,-0.2727 -0.38654,-0.40462 -4.12172,-4.12198 -9.81261,-6.67505 -16.08945,-6.67505 z m 0,3.10111 c 10.87861,0 19.66391,8.78581 19.66391,19.66443 0,10.87863 -8.7853,19.66391 -19.66391,19.66391 -10.87862,0 -19.66392,-8.78528 -19.66392,-19.66391 0,-10.87862 8.7853,-19.66443 19.66392,-19.66443 z"
           transform="translate(-215.32783,-12.440265)" /><path
           id="path29"
           style="color:#000000;display:inline;fill:#ffffff;fill-opacity:1;stroke-width:2.01647;stroke-linecap:round;stroke-linejoin:round;-inkscape-stroke:none"
           d="m -116.70283,127.96321 a 1.0502375,0.96810035 0 0 0 -0.91064,0.48371 l -5.42744,8.66676 -5.42679,8.66266 a 1.0502375,0.96810035 0 0 0 0.91065,1.4519 h 10.85422 10.85358 a 1.0502375,0.96810035 0 0 0 0.91065,-1.4519 l -5.42678,-8.66266 -5.42679,-8.66676 a 1.0502375,0.96810035 0 0 0 -0.91066,-0.48371 z"
           inkscape:label="Symbol D-PAD Up" /></g></g><g
       id="g20"
       inkscape:label="Style - Transparent"
       style="display:inline"
       transform="translate(-9.2910889e-5)"><g
         inkscape:label="Button Prompt D-PAD Down"
         id="g7"
         transform="translate(215.32783,93.126341)"
         style="display:inline"><path
           style="color:#000000;display:inline;fill:#ffffff;fill-opacity:1;stroke-linecap:round;stroke-linejoin:round;-inkscape-stroke:none"
           d="m -117.11328,115.24219 c -12.554,0 -22.76563,10.21163 -22.76563,22.76562 0,12.554 10.21163,22.76367 22.76563,22.76367 12.55399,0 22.763668,-10.20967 22.763668,-22.76367 0,-12.55399 -10.209678,-22.76562 -22.763668,-22.76562 z m 0,3.10156 c 10.87863,0 19.664058,8.78543 19.664058,19.66406 0,10.87864 -8.785428,19.66406 -19.664058,19.66406 -10.87863,0 -19.66406,-8.78542 -19.66406,-19.66406 0,-10.87863 8.78543,-19.66406 19.66406,-19.66406 z"
           id="path16"
           inkscape:label="Outline" /></g><g
         inkscape:label="Button Prompt D-PAD Right"
         id="g11"
         transform="translate(255.67042,52.783311)"
         style="display:inline"><path
           style="color:#000000;display:inline;fill:#ffffff;fill-opacity:1;stroke-linecap:round;stroke-linejoin:round;-inkscape-stroke:none"
           d="m -117.11321,115.24227 c -12.554,0 -22.76563,10.21163 -22.76563,22.76562 0,12.554 10.21163,22.76367 22.76563,22.76367 12.55399,0 22.763674,-10.20967 22.763674,-22.76367 0,-12.55399 -10.209684,-22.76562 -22.763674,-22.76562 z m 0,3.10156 c 10.87863,0 19.664064,8.78543 19.664064,19.66406 0,10.87864 -8.785434,19.66406 -19.664064,19.66406 -10.87863,0 -19.66406,-8.78542 -19.66406,-19.66406 0,-10.87863 8.78543,-19.66406 19.66406,-19.66406 z"
           id="path12-5"
           inkscape:label="Outline" /></g><g
         inkscape:label="Button Prompt D-PAD Left"
         id="g15"
         transform="translate(174.98435,52.783301)"
         style="display:inline"><path
           style="color:#000000;display:inline;fill:#ffffff;fill-opacity:1;stroke-linecap:round;stroke-linejoin:round;-inkscape-stroke:none"
           d="m 57.871068,168.02549 c -12.554,0 -22.76563,10.21163 -22.76563,22.76562 0,12.554 10.21163,22.76367 22.76563,22.76367 12.55399,0 22.763671,-10.20967 22.763671,-22.76367 0,-12.55399 -10.209681,-22.76562 -22.763671,-22.76562 z m 0,3.10156 c 10.87863,0 19.664061,8.78543 19.664061,19.66406 0,10.87864 -8.785431,19.66406 -19.664061,19.66406 -10.87863,0 -19.66406,-8.78542 -19.66406,-19.66406 0,-10.87863 8.78543,-19.66406 19.66406,-19.66406 z"
           id="path14"
           inkscape:label="Outline"
           transform="translate(-174.98435,-52.783301)" /></g><g
         inkscape:label="Button Prompt D-PAD Up"
         id="g19"
         transform="translate(215.32783,12.440265)"
         style="display:inline;fill:#ffffff;fill-opacity:1"><path
           id="path22"
           style="color:#000000;display:inline;fill:#ffffff;fill-opacity:1;stroke-linecap:round;stroke-linejoin:round;-inkscape-stroke:none"
           inkscape:label="Circle"
           d="m 98.21435,127.68259 c -12.55399,0 -22.76554,10.21156 -22.76554,22.76554 0,12.55399 10.21155,22.76347 22.76554,22.76347 12.55397,0 22.76398,-10.20948 22.76398,-22.76347 0,-12.55398 -10.21001,-22.76554 -22.76398,-22.76554 z"
           transform="translate(-215.32783,-12.440265)" /><path
           id="path27"
           style="color:#000000;display:inline;fill:#808080;fill-opacity:1;stroke-width:2.01647;stroke-linecap:round;stroke-linejoin:round;-inkscape-stroke:none"
           d="m -116.70283,127.96321 a 1.0502375,0.96810035 0 0 0 -0.91064,0.48371 l -5.42744,8.66676 -5.42679,8.66266 a 1.0502375,0.96810035 0 0 0 0.91065,1.4519 h 10.85422 10.85358 a 1.0502375,0.96810035 0 0 0 0.91065,-1.4519 l -5.42678,-8.66266 -5.42679,-8.66676 a 1.0502375,0.96810035 0 0 0 -0.91066,-0.48371 z"
           inkscape:label="Symbol D-PAD Up" /></g></g></g></svg>
