<?xml version="1.0" encoding="UTF-8" standalone="no"?>
<!-- Created with Inkscape (http://www.inkscape.org/) -->

<svg
   width="37.026142mm"
   height="38.156021mm"
   viewBox="0 0 37.026142 38.15602"
   version="1.1"
   id="svg1"
   xml:space="preserve"
   inkscape:version="1.3.2 (091e20e, 2023-11-25, custom)"
   sodipodi:docname="nintendoswitch-Capture.svg"
   xmlns:inkscape="http://www.inkscape.org/namespaces/inkscape"
   xmlns:sodipodi="http://sodipodi.sourceforge.net/DTD/sodipodi-0.dtd"
   xmlns="http://www.w3.org/2000/svg"
   xmlns:svg="http://www.w3.org/2000/svg"><sodipodi:namedview
     id="namedview1"
     pagecolor="#2aff9b"
     bordercolor="#000000"
     borderopacity="0.25"
     inkscape:showpageshadow="2"
     inkscape:pageopacity="0.0"
     inkscape:pagecheckerboard="0"
     inkscape:deskcolor="#d1d1d1"
     inkscape:document-units="mm"
     inkscape:zoom="5.8558123"
     inkscape:cx="40.131067"
     inkscape:cy="85.897561"
     inkscape:window-width="2560"
     inkscape:window-height="1351"
     inkscape:window-x="-9"
     inkscape:window-y="-9"
     inkscape:window-maximized="1"
     inkscape:current-layer="svg1" /><defs
     id="defs1" /><g
     inkscape:label="Button Prompt Switch Capture Button"
     id="layer1"
     transform="translate(-29.403528,-46.889202)"><g
       id="rect2"
       inkscape:label="Style - Outline (White)"
       style="display:none"><path
         style="color:#000000;display:inline;fill:#ffffff;stroke-linecap:round;stroke-linejoin:round;-inkscape-stroke:none"
         d="m 38.112468,47.889202 h 19.608263 c 4.270752,0 7.708939,3.438187 7.708939,7.70894 v 20.738142 c 0,4.270752 -3.438187,7.708939 -7.708939,7.708939 H 38.112468 c -4.270753,0 -7.70894,-3.438187 -7.70894,-7.708939 V 55.598142 c 0,-4.270753 3.438187,-7.70894 7.70894,-7.70894 z"
         id="path5"
         inkscape:label="Color" /><path
         style="color:#000000;display:inline;fill:#000000;stroke-linecap:round;stroke-linejoin:round;-inkscape-stroke:none"
         d="m 38.113281,46.888672 c -4.80745,0 -8.708984,3.901534 -8.708984,8.708984 v 20.738281 c 0,4.807451 3.901534,8.708985 8.708984,8.708985 h 19.607422 c 4.807451,0 8.708984,-3.901534 8.708984,-8.708985 V 55.597656 c 0,-4.80745 -3.901533,-8.708984 -8.708984,-8.708984 z m 0,2 h 19.607422 c 3.734046,0 6.708984,2.974938 6.708984,6.708984 v 20.738281 c 0,3.734047 -2.974938,6.708985 -6.708984,6.708985 H 38.113281 c -3.734046,0 -6.708984,-2.974938 -6.708984,-6.708985 V 55.597656 c 0,-3.734046 2.974938,-6.708984 6.708984,-6.708984 z"
         id="path6"
         inkscape:label="Outline" /><path
         id="path1"
         style="display:inline;fill:#000000;fill-opacity:0.802526;stroke-width:2.15586;stroke-linecap:round;stroke-linejoin:round"
         d="M 61.810115,65.967212 A 13.893516,13.893516 0 0 1 47.916599,79.860728 13.893516,13.893516 0 0 1 34.023083,65.967212 13.893516,13.893516 0 0 1 47.916599,52.073697 13.893516,13.893516 0 0 1 61.810115,65.967212 Z"
         inkscape:label="Symbol Capture" /></g><g
       id="g10"
       inkscape:label="Style - Outline (Black)"
       style="display:none"><path
         style="color:#000000;display:inline;fill:#000000;stroke-linecap:round;stroke-linejoin:round;-inkscape-stroke:none"
         d="m 38.112468,47.889202 h 19.608263 c 4.270752,0 7.708939,3.438187 7.708939,7.70894 v 20.738142 c 0,4.270752 -3.438187,7.708939 -7.708939,7.708939 H 38.112468 c -4.270753,0 -7.70894,-3.438187 -7.70894,-7.708939 V 55.598142 c 0,-4.270753 3.438187,-7.70894 7.70894,-7.70894 z"
         id="path8"
         inkscape:label="Color" /><path
         style="color:#000000;display:inline;fill:#ffffff;stroke-linecap:round;stroke-linejoin:round;-inkscape-stroke:none"
         d="m 38.113281,46.888672 c -4.80745,0 -8.708984,3.901534 -8.708984,8.708984 v 20.738281 c 0,4.807451 3.901534,8.708985 8.708984,8.708985 h 19.607422 c 4.807451,0 8.708984,-3.901534 8.708984,-8.708985 V 55.597656 c 0,-4.80745 -3.901533,-8.708984 -8.708984,-8.708984 z m 0,2 h 19.607422 c 3.734046,0 6.708984,2.974938 6.708984,6.708984 v 20.738281 c 0,3.734047 -2.974938,6.708985 -6.708984,6.708985 H 38.113281 c -3.734046,0 -6.708984,-2.974938 -6.708984,-6.708985 V 55.597656 c 0,-3.734046 2.974938,-6.708984 6.708984,-6.708984 z"
         id="path9"
         inkscape:label="Outline" /><path
         id="path10"
         style="display:inline;fill:#ffffff;fill-opacity:0.80023;stroke-width:2.15586;stroke-linecap:round;stroke-linejoin:round"
         d="M 61.810115,65.967212 A 13.893516,13.893516 0 0 1 47.916599,79.860728 13.893516,13.893516 0 0 1 34.023083,65.967212 13.893516,13.893516 0 0 1 47.916599,52.073697 13.893516,13.893516 0 0 1 61.810115,65.967212 Z"
         inkscape:label="Symbol Capture" /></g><g
       id="rect1"
       inkscape:label="Style - Transparent"
       style="display:inline"><path
         style="color:#000000;fill:#808080;fill-opacity:0.501961;stroke-linecap:round;stroke-linejoin:round;-inkscape-stroke:none;paint-order:stroke fill markers"
         d="m 38.113281,46.888672 c -4.80745,0 -8.708984,3.901534 -8.708984,8.708984 v 20.738281 c 0,4.807451 3.901534,8.708985 8.708984,8.708985 h 19.607422 c 4.807451,0 8.708984,-3.901534 8.708984,-8.708985 V 55.597656 c 0,-4.80745 -3.901533,-8.708984 -8.708984,-8.708984 z m 0,2 h 19.607422 c 3.734046,0 6.708984,2.974938 6.708984,6.708984 v 20.738281 c 0,3.734047 -2.974938,6.708985 -6.708984,6.708985 H 38.113281 c -3.734046,0 -6.708984,-2.974938 -6.708984,-6.708985 V 55.597656 c 0,-3.734046 2.974938,-6.708984 6.708984,-6.708984 z"
         id="path3"
         inkscape:label="Outline" /><path
         style="color:#000000;display:inline;fill:#ffffff;stroke-linecap:round;stroke-linejoin:round;-inkscape-stroke:none;paint-order:stroke fill markers"
         d="m 38.112468,47.889202 h 19.608263 c 4.270752,0 7.708939,3.438187 7.708939,7.70894 v 20.738142 c 0,4.270752 -3.438187,7.708939 -7.708939,7.708939 H 38.112468 c -4.270753,0 -7.70894,-3.438187 -7.70894,-7.708939 V 55.598142 c 0,-4.270753 3.438187,-7.70894 7.70894,-7.70894 z"
         id="path4"
         inkscape:label="Color" /><path
         id="path2"
         style="display:inline;fill:#808080;fill-opacity:0.5;stroke-width:2.15586;stroke-linecap:round;stroke-linejoin:round"
         d="M 61.810115,65.967212 A 13.893516,13.893516 0 0 1 47.916599,79.860728 13.893516,13.893516 0 0 1 34.023083,65.967212 13.893516,13.893516 0 0 1 47.916599,52.073697 13.893516,13.893516 0 0 1 61.810115,65.967212 Z"
         inkscape:label="Symbol Capture" /></g></g></svg>
