<?xml version="1.0" encoding="UTF-8" standalone="no"?>
<!-- Created with Inkscape (http://www.inkscape.org/) -->

<svg
   width="51.170334mm"
   height="21.310999mm"
   viewBox="0 0 51.170334 21.310999"
   version="1.1"
   id="svg1"
   inkscape:version="1.3.2 (091e20e, 2023-11-25, custom)"
   sodipodi:docname="steamdeck-guide.svg"
   xmlns:inkscape="http://www.inkscape.org/namespaces/inkscape"
   xmlns:sodipodi="http://sodipodi.sourceforge.net/DTD/sodipodi-0.dtd"
   xmlns="http://www.w3.org/2000/svg"
   xmlns:svg="http://www.w3.org/2000/svg">
  <sodipodi:namedview
     id="namedview1"
     pagecolor="#b1ffb7"
     bordercolor="#000000"
     borderopacity="0.25"
     inkscape:showpageshadow="2"
     inkscape:pageopacity="0.0"
     inkscape:pagecheckerboard="0"
     inkscape:deskcolor="#d1d1d1"
     inkscape:document-units="mm"
     inkscape:zoom="4"
     inkscape:cx="38.375"
     inkscape:cy="33.625"
     inkscape:window-width="2560"
     inkscape:window-height="1351"
     inkscape:window-x="-9"
     inkscape:window-y="-9"
     inkscape:window-maximized="1"
     inkscape:current-layer="layer1" />
  <defs
     id="defs1" />
  <g
     inkscape:label="Button Prompt Steam Guide Button"
     id="layer1"
     transform="translate(-51.734092,-114.66176)">
    <g
       id="rect3"
       inkscape:label="Style - Outline (White)"
       style="display:none">
      <path
         style="color:#000000;fill:#ffffff;stroke-linecap:round;stroke-linejoin:round;-inkscape-stroke:none"
         d="m 61.310077,115.4416 h 32.018366 c 4.873066,0 8.796147,4.40454 8.796147,9.87566 0,5.47112 -3.923081,9.87567 -8.796147,9.87567 H 61.310077 c -4.873067,0 -8.79615,-4.40455 -8.79615,-9.87567 0,-5.47112 3.923083,-9.87566 8.79615,-9.87566 z"
         id="path7"
         inkscape:label="Color" />
      <path
         style="color:#000000;display:inline;fill:#000000;stroke-linecap:round;stroke-linejoin:round;-inkscape-stroke:none"
         d="m 61.310547,114.66211 c -5.342967,0 -9.576172,4.8104 -9.576172,10.6543 0,5.8439 4.233205,10.65625 9.576172,10.65625 h 32.017578 c 5.342967,0 9.576175,-4.81235 9.576175,-10.65625 0,-5.8439 -4.233208,-10.6543 -9.576175,-10.6543 z m 0,1.55859 h 32.017578 c 4.403157,0 8.017575,3.99738 8.017575,9.09571 0,5.09832 -3.614418,9.09765 -8.017575,9.09765 H 61.310547 c -4.403157,0 -8.017578,-3.99933 -8.017578,-9.09765 0,-5.09833 3.614421,-9.09571 8.017578,-9.09571 z"
         id="path8"
         inkscape:label="Outline" />
      <path
         d="m 65.405297,127.13387 q 0,0.69767 -0.348833,1.19677 -0.343465,0.49373 -0.971363,0.75669 -0.627898,0.26297 -1.491929,0.26297 -0.434699,0 -0.831831,-0.0483 -0.391765,-0.0429 -0.729864,-0.1288 -0.338099,-0.0859 -0.611799,-0.21467 v -1.04113 q 0.445432,0.18247 1.030397,0.34347 0.584965,0.15563 1.207497,0.15563 0.542031,0 0.906964,-0.1449 0.370298,-0.15026 0.558131,-0.4186 0.187833,-0.26833 0.187833,-0.64399 0,-0.37567 -0.182466,-0.6279 -0.182466,-0.2576 -0.579598,-0.47227 -0.391766,-0.21466 -1.030397,-0.45616 -0.445432,-0.161 -0.810364,-0.36494 -0.364933,-0.2093 -0.633265,-0.47763 -0.262966,-0.26833 -0.407866,-0.6279 -0.144899,-0.36493 -0.144899,-0.83719 0,-0.64937 0.316632,-1.1109 0.321999,-0.46153 0.896231,-0.70303 0.574231,-0.24687 1.330929,-0.24687 0.622532,0 1.159197,0.12344 0.542031,0.12343 1.030396,0.3381 l -0.348832,0.91233 q -0.456165,-0.18784 -0.917697,-0.3059 -0.461532,-0.11807 -0.955264,-0.11807 -0.456165,0 -0.772797,0.13417 -0.311266,0.13416 -0.477632,0.38103 -0.161,0.24686 -0.161,0.58496 0,0.38104 0.171733,0.63327 0.171733,0.25223 0.542032,0.45616 0.370299,0.20394 0.965997,0.4347 0.670831,0.2576 1.13773,0.5474 0.472265,0.2898 0.719131,0.69767 0.246866,0.40786 0.246866,1.03039 z m 4.11622,2.1091 h -1.10553 v -6.89615 h -2.382792 v -0.9499 h 5.865749 v 0.9499 h -2.377427 z m 7.974843,0 h -4.40602 v -7.84605 h 4.40602 v 0.94453 h -3.305856 v 2.3345 h 3.10729 v 0.93379 h -3.10729 v 2.68333 h 3.305856 z m 6.606347,0 -0.869398,-2.3345 h -3.07509 l -0.858665,2.3345 h -1.143096 l 2.994591,-7.87825 h 1.126996 l 2.978491,7.87825 z m -1.175297,-3.28976 -0.826464,-2.31303 q -0.03757,-0.11806 -0.118066,-0.3542 -0.07513,-0.23613 -0.155633,-0.48836 -0.07513,-0.25223 -0.123433,-0.4186 -0.05367,0.22003 -0.123433,0.4669 -0.06977,0.2415 -0.139533,0.45616 -0.0644,0.2093 -0.107333,0.3381 l -0.837198,2.31303 z m 6.810279,3.28976 -2.447193,-6.74588 h -0.04293 q 0.0161,0.22003 0.0322,0.56886 0.02147,0.34347 0.0322,0.75133 0.0161,0.4025 0.0161,0.79427 v 4.63142 h -1.00893 v -7.84605 h 1.583161 l 2.32376,6.39168 h 0.03757 l 2.382792,-6.39168 h 1.572429 v 7.84605 h -1.062597 v -4.69582 q 0,-0.3542 0.01073,-0.73523 0.01073,-0.3864 0.02683,-0.72987 0.02147,-0.34883 0.03757,-0.57423 h -0.0483 l -2.506225,6.73515 z"
         id="path11"
         style="font-weight:500;font-size:10.9909px;line-height:0;font-family:'open sans';-inkscape-font-specification:'open sans Medium';letter-spacing:0px;word-spacing:0px;display:inline;fill:#000000;stroke-width:1.73086;stroke-linecap:round;stroke-linejoin:round;stroke-opacity:0.501961"
         aria-label="STEAM"
         inkscape:label="Symbol Steam" />
    </g>
    <g
       id="g10"
       inkscape:label="Style - Outline (Black)"
       style="display:none">
      <path
         style="color:#000000;fill:#000000;stroke-linecap:round;stroke-linejoin:round;-inkscape-stroke:none"
         d="m 61.310077,115.4416 h 32.018366 c 4.873066,0 8.796147,4.40454 8.796147,9.87566 0,5.47112 -3.923081,9.87567 -8.796147,9.87567 H 61.310077 c -4.873067,0 -8.79615,-4.40455 -8.79615,-9.87567 0,-5.47112 3.923083,-9.87566 8.79615,-9.87566 z"
         id="path9"
         inkscape:label="Color" />
      <path
         style="color:#000000;display:inline;fill:#ffffff;stroke-linecap:round;stroke-linejoin:round;-inkscape-stroke:none"
         d="m 61.310547,114.66211 c -5.342967,0 -9.576172,4.8104 -9.576172,10.6543 0,5.8439 4.233205,10.65625 9.576172,10.65625 h 32.017578 c 5.342967,0 9.576175,-4.81235 9.576175,-10.65625 0,-5.8439 -4.233208,-10.6543 -9.576175,-10.6543 z m 0,1.55859 h 32.017578 c 4.403157,0 8.017575,3.99738 8.017575,9.09571 0,5.09832 -3.614418,9.09765 -8.017575,9.09765 H 61.310547 c -4.403157,0 -8.017578,-3.99933 -8.017578,-9.09765 0,-5.09833 3.614421,-9.09571 8.017578,-9.09571 z"
         id="path10"
         inkscape:label="Outline" />
      <path
         d="m 65.405297,127.13387 q 0,0.69767 -0.348833,1.19677 -0.343465,0.49373 -0.971363,0.75669 -0.627898,0.26297 -1.491929,0.26297 -0.434699,0 -0.831831,-0.0483 -0.391765,-0.0429 -0.729864,-0.1288 -0.338099,-0.0859 -0.611799,-0.21467 v -1.04113 q 0.445432,0.18247 1.030397,0.34347 0.584965,0.15563 1.207497,0.15563 0.542031,0 0.906964,-0.1449 0.370298,-0.15026 0.558131,-0.4186 0.187833,-0.26833 0.187833,-0.64399 0,-0.37567 -0.182466,-0.6279 -0.182466,-0.2576 -0.579598,-0.47227 -0.391766,-0.21466 -1.030397,-0.45616 -0.445432,-0.161 -0.810364,-0.36494 -0.364933,-0.2093 -0.633265,-0.47763 -0.262966,-0.26833 -0.407866,-0.6279 -0.144899,-0.36493 -0.144899,-0.83719 0,-0.64937 0.316632,-1.1109 0.321999,-0.46153 0.896231,-0.70303 0.574231,-0.24687 1.330929,-0.24687 0.622532,0 1.159197,0.12344 0.542031,0.12343 1.030396,0.3381 l -0.348832,0.91233 q -0.456165,-0.18784 -0.917697,-0.3059 -0.461532,-0.11807 -0.955264,-0.11807 -0.456165,0 -0.772797,0.13417 -0.311266,0.13416 -0.477632,0.38103 -0.161,0.24686 -0.161,0.58496 0,0.38104 0.171733,0.63327 0.171733,0.25223 0.542032,0.45616 0.370299,0.20394 0.965997,0.4347 0.670831,0.2576 1.13773,0.5474 0.472265,0.2898 0.719131,0.69767 0.246866,0.40786 0.246866,1.03039 z m 4.11622,2.1091 h -1.10553 v -6.89615 h -2.382792 v -0.9499 h 5.865749 v 0.9499 h -2.377427 z m 7.974843,0 h -4.40602 v -7.84605 h 4.40602 v 0.94453 h -3.305856 v 2.3345 h 3.10729 v 0.93379 h -3.10729 v 2.68333 h 3.305856 z m 6.606347,0 -0.869398,-2.3345 h -3.07509 l -0.858665,2.3345 h -1.143096 l 2.994591,-7.87825 h 1.126996 l 2.978491,7.87825 z m -1.175297,-3.28976 -0.826464,-2.31303 q -0.03757,-0.11806 -0.118066,-0.3542 -0.07513,-0.23613 -0.155633,-0.48836 -0.07513,-0.25223 -0.123433,-0.4186 -0.05367,0.22003 -0.123433,0.4669 -0.06977,0.2415 -0.139533,0.45616 -0.0644,0.2093 -0.107333,0.3381 l -0.837198,2.31303 z m 6.810279,3.28976 -2.447193,-6.74588 h -0.04293 q 0.0161,0.22003 0.0322,0.56886 0.02147,0.34347 0.0322,0.75133 0.0161,0.4025 0.0161,0.79427 v 4.63142 h -1.00893 v -7.84605 h 1.583161 l 2.32376,6.39168 h 0.03757 l 2.382792,-6.39168 h 1.572429 v 7.84605 h -1.062597 v -4.69582 q 0,-0.3542 0.01073,-0.73523 0.01073,-0.3864 0.02683,-0.72987 0.02147,-0.34883 0.03757,-0.57423 h -0.0483 l -2.506225,6.73515 z"
         id="path13"
         style="font-weight:500;font-size:10.9909px;line-height:0;font-family:'open sans';-inkscape-font-specification:'open sans Medium';letter-spacing:0px;word-spacing:0px;display:inline;fill:#ffffff;fill-opacity:1;stroke-width:1.73086;stroke-linecap:round;stroke-linejoin:round;stroke-opacity:0.501961"
         aria-label="STEAM"
         inkscape:label="Symbol Steam" />
    </g>
    <g
       id="rect1-5"
       inkscape:label="Style - Transparent"
       style="display:inline">
      <path
         style="color:#000000;display:inline;fill:#808080;fill-opacity:0.501961;stroke-linecap:round;stroke-linejoin:round;-inkscape-stroke:none;paint-order:stroke fill markers"
         d="m 61.310547,114.66211 c -5.342967,0 -9.576172,4.8104 -9.576172,10.6543 0,5.8439 4.233205,10.65625 9.576172,10.65625 h 32.017578 c 5.342967,0 9.576175,-4.81235 9.576175,-10.65625 0,-5.8439 -4.233208,-10.6543 -9.576175,-10.6543 z m 0,1.55859 h 32.017578 c 4.403157,0 8.017575,3.99738 8.017575,9.09571 0,5.09832 -3.614418,9.09765 -8.017575,9.09765 H 61.310547 c -4.403157,0 -8.017578,-3.99933 -8.017578,-9.09765 0,-5.09833 3.614421,-9.09571 8.017578,-9.09571 z"
         id="path5"
         inkscape:label="Outline" />
      <path
         style="color:#000000;display:inline;fill:#ffffff;stroke-linecap:round;stroke-linejoin:round;-inkscape-stroke:none;paint-order:stroke fill markers"
         d="m 61.310077,115.4416 h 32.018366 c 4.873066,0 8.796147,4.40454 8.796147,9.87566 0,5.47112 -3.923081,9.87567 -8.796147,9.87567 H 61.310077 c -4.873067,0 -8.79615,-4.40455 -8.79615,-9.87567 0,-5.47112 3.923083,-9.87566 8.79615,-9.87566 z"
         id="path6"
         inkscape:label="Color" />
      <path
         d="m 65.405297,127.13387 q 0,0.69767 -0.348833,1.19677 -0.343465,0.49373 -0.971363,0.75669 -0.627898,0.26297 -1.491929,0.26297 -0.434699,0 -0.831831,-0.0483 -0.391765,-0.0429 -0.729864,-0.1288 -0.338099,-0.0859 -0.611799,-0.21467 v -1.04113 q 0.445432,0.18247 1.030397,0.34347 0.584965,0.15563 1.207497,0.15563 0.542031,0 0.906964,-0.1449 0.370298,-0.15026 0.558131,-0.4186 0.187833,-0.26833 0.187833,-0.64399 0,-0.37567 -0.182466,-0.6279 -0.182466,-0.2576 -0.579598,-0.47227 -0.391766,-0.21466 -1.030397,-0.45616 -0.445432,-0.161 -0.810364,-0.36494 -0.364933,-0.2093 -0.633265,-0.47763 -0.262966,-0.26833 -0.407866,-0.6279 -0.144899,-0.36493 -0.144899,-0.83719 0,-0.64937 0.316632,-1.1109 0.321999,-0.46153 0.896231,-0.70303 0.574231,-0.24687 1.330929,-0.24687 0.622532,0 1.159197,0.12344 0.542031,0.12343 1.030396,0.3381 l -0.348832,0.91233 q -0.456165,-0.18784 -0.917697,-0.3059 -0.461532,-0.11807 -0.955264,-0.11807 -0.456165,0 -0.772797,0.13417 -0.311266,0.13416 -0.477632,0.38103 -0.161,0.24686 -0.161,0.58496 0,0.38104 0.171733,0.63327 0.171733,0.25223 0.542032,0.45616 0.370299,0.20394 0.965997,0.4347 0.670831,0.2576 1.13773,0.5474 0.472265,0.2898 0.719131,0.69767 0.246866,0.40786 0.246866,1.03039 z m 4.11622,2.1091 h -1.10553 v -6.89615 h -2.382792 v -0.9499 h 5.865749 v 0.9499 h -2.377427 z m 7.974843,0 h -4.40602 v -7.84605 h 4.40602 v 0.94453 h -3.305856 v 2.3345 h 3.10729 v 0.93379 h -3.10729 v 2.68333 h 3.305856 z m 6.606347,0 -0.869398,-2.3345 h -3.07509 l -0.858665,2.3345 h -1.143096 l 2.994591,-7.87825 h 1.126996 l 2.978491,7.87825 z m -1.175297,-3.28976 -0.826464,-2.31303 q -0.03757,-0.11806 -0.118066,-0.3542 -0.07513,-0.23613 -0.155633,-0.48836 -0.07513,-0.25223 -0.123433,-0.4186 -0.05367,0.22003 -0.123433,0.4669 -0.06977,0.2415 -0.139533,0.45616 -0.0644,0.2093 -0.107333,0.3381 l -0.837198,2.31303 z m 6.810279,3.28976 -2.447193,-6.74588 h -0.04293 q 0.0161,0.22003 0.0322,0.56886 0.02147,0.34347 0.0322,0.75133 0.0161,0.4025 0.0161,0.79427 v 4.63142 h -1.00893 v -7.84605 h 1.583161 l 2.32376,6.39168 h 0.03757 l 2.382792,-6.39168 h 1.572429 v 7.84605 h -1.062597 v -4.69582 q 0,-0.3542 0.01073,-0.73523 0.01073,-0.3864 0.02683,-0.72987 0.02147,-0.34883 0.03757,-0.57423 h -0.0483 l -2.506225,6.73515 z"
         id="path12"
         style="font-weight:500;font-size:10.9909px;line-height:0;font-family:'open sans';-inkscape-font-specification:'open sans Medium';letter-spacing:0px;word-spacing:0px;display:inline;fill:#808080;stroke-width:1.73086;stroke-linecap:round;stroke-linejoin:round;stroke-opacity:0.501961"
         aria-label="STEAM"
         inkscape:label="Symbol Steam" />
    </g>
  </g>
</svg>
