<?xml version="1.0" encoding="UTF-8" standalone="no"?>
<!-- Created with Inkscape (http://www.inkscape.org/) -->

<svg
   width="51.035461mm"
   height="49.087078mm"
   viewBox="0 0 51.035462 49.08708"
   version="1.1"
   id="svg1"
   inkscape:version="1.3.2 (091e20e, 2023-11-25, custom)"
   sodipodi:docname="SteamDeck-Left Touchpad.svg"
   xmlns:inkscape="http://www.inkscape.org/namespaces/inkscape"
   xmlns:sodipodi="http://sodipodi.sourceforge.net/DTD/sodipodi-0.dtd"
   xmlns="http://www.w3.org/2000/svg"
   xmlns:svg="http://www.w3.org/2000/svg">
  <sodipodi:namedview
     id="namedview1"
     pagecolor="#35ff96"
     bordercolor="#000000"
     borderopacity="0.25"
     inkscape:showpageshadow="2"
     inkscape:pageopacity="0.0"
     inkscape:pagecheckerboard="0"
     inkscape:deskcolor="#d1d1d1"
     inkscape:document-units="mm"
     inkscape:zoom="4.2434127"
     inkscape:cx="55.497784"
     inkscape:cy="114.05914"
     inkscape:window-width="2560"
     inkscape:window-height="1351"
     inkscape:window-x="-9"
     inkscape:window-y="-9"
     inkscape:window-maximized="1"
     inkscape:current-layer="svg1" />
  <defs
     id="defs1" />
  <g
     inkscape:label="Steam Deck Left Trackpad"
     id="layer1"
     style="stroke:#777777;stroke-opacity:1;paint-order:stroke fill markers"
     transform="translate(-104.39171,-114.53157)">
    <g
       id="rect2"
       inkscape:label="Style - Outline (White)"
       style="display:none">
      <path
         style="color:#000000;display:inline;fill:#ffffff;stroke:none;stroke-linecap:round;stroke-linejoin:round;-inkscape-stroke:none;paint-order:normal"
         d="m 113.52077,115.53243 h 32.77733 c 4.50302,0 8.1282,3.62518 8.1282,8.1282 v 30.82895 c 0,4.50303 -3.62518,8.1282 -8.1282,8.1282 h -32.77733 c -4.50302,0 -8.1282,-3.62517 -8.1282,-8.1282 v -30.82895 c 0,-4.50302 3.62518,-8.1282 8.1282,-8.1282 z"
         id="path4"
         inkscape:label="Color" />
      <path
         style="color:#000000;fill:#000000;stroke:none;stroke-linecap:round;stroke-linejoin:round;-inkscape-stroke:none;paint-order:normal"
         d="m 113.52148,114.5332 c -5.03972,0 -9.1289,4.08724 -9.1289,9.12696 v 30.83007 c 0,5.03973 4.08918,9.12696 9.1289,9.12696 h 32.77735 c 5.03972,0 9.12695,-4.08723 9.12695,-9.12696 v -30.83007 c 0,-5.03972 -4.08723,-9.12696 -9.12695,-9.12696 z m 0,2 h 32.77735 c 3.96631,0 7.12695,3.16064 7.12695,7.12696 v 30.83007 c 0,3.96632 -3.16064,7.12696 -7.12695,7.12696 h -32.77735 c -3.96631,0 -7.1289,-3.16064 -7.1289,-7.12696 v -30.83007 c 0,-3.96632 3.16259,-7.12696 7.1289,-7.12696 z"
         id="path5"
         inkscape:label="Outline" />
      <path
         style="color:#000000;fill:#000000;stroke:none;stroke-linecap:round;stroke-linejoin:round;-inkscape-stroke:none;paint-order:normal"
         d="m 115.21875,117.61328 c -4.22923,0 -7.64453,3.41533 -7.64453,7.64453 v 27.63477 c 0,4.22921 3.41531,7.64453 7.64453,7.64453 h 29.38086 c 4.22922,0 7.64453,-3.41532 7.64453,-7.64453 v -27.63477 c 0,-4.2292 -3.41531,-7.64453 -7.64453,-7.64453 z m 0,0.71875 h 29.38086 c 3.84345,0 6.92578,3.08236 6.92578,6.92578 v 27.63477 c 0,3.84343 -3.08233,6.92578 -6.92578,6.92578 h -29.38086 c -3.84345,0 -6.92578,-3.08235 -6.92578,-6.92578 v -27.63477 c 0,-3.84342 3.08233,-6.92578 6.92578,-6.92578 z"
         id="path14"
         transform="translate(1.2916667e-6)"
         inkscape:label="Outline 2" />
      <path
         d="m 124.26278,148.90298 v -19.65576 h 2.75611 v 17.26266 h 8.53721 v 2.3931 z"
         id="path6"
         style="font-weight:500;font-size:27.5342px;line-height:0;font-family:'open sans';-inkscape-font-specification:'open sans Medium';letter-spacing:-0.860441px;word-spacing:0px;display:inline;fill:#000000;stroke:none;stroke-width:4.33609;stroke-linecap:round;stroke-linejoin:round;stroke-opacity:1;paint-order:normal"
         aria-label="L"
         inkscape:label="Symbol L"
         transform="translate(1.2916667e-6)" />
    </g>
    <g
       id="g11"
       inkscape:label="Style - Outline (Black)"
       style="display:none">
      <path
         style="color:#000000;display:inline;fill:#000000;stroke:none;stroke-linecap:round;stroke-linejoin:round;-inkscape-stroke:none;paint-order:normal"
         d="m 113.52077,115.53243 h 32.77733 c 4.50302,0 8.1282,3.62518 8.1282,8.1282 v 30.82895 c 0,4.50303 -3.62518,8.1282 -8.1282,8.1282 h -32.77733 c -4.50302,0 -8.1282,-3.62517 -8.1282,-8.1282 v -30.82895 c 0,-4.50302 3.62518,-8.1282 8.1282,-8.1282 z"
         id="path8"
         inkscape:label="Color" />
      <path
         style="color:#000000;fill:#ffffff;stroke:none;stroke-linecap:round;stroke-linejoin:round;-inkscape-stroke:none;paint-order:normal"
         d="m 113.52148,114.5332 c -5.03972,0 -9.1289,4.08724 -9.1289,9.12696 v 30.83007 c 0,5.03973 4.08918,9.12696 9.1289,9.12696 h 32.77735 c 5.03972,0 9.12695,-4.08723 9.12695,-9.12696 v -30.83007 c 0,-5.03972 -4.08723,-9.12696 -9.12695,-9.12696 z m 0,2 h 32.77735 c 3.96631,0 7.12695,3.16064 7.12695,7.12696 v 30.83007 c 0,3.96632 -3.16064,7.12696 -7.12695,7.12696 h -32.77735 c -3.96631,0 -7.1289,-3.16064 -7.1289,-7.12696 v -30.83007 c 0,-3.96632 3.16259,-7.12696 7.1289,-7.12696 z"
         id="path9"
         inkscape:label="Outline" />
      <path
         style="color:#000000;fill:#ffffff;stroke:none;stroke-linecap:round;stroke-linejoin:round;-inkscape-stroke:none;paint-order:normal"
         d="m 115.21875,117.61328 c -4.22923,0 -7.64453,3.41533 -7.64453,7.64453 v 27.63477 c 0,4.22921 3.41531,7.64453 7.64453,7.64453 h 29.38086 c 4.22922,0 7.64453,-3.41532 7.64453,-7.64453 v -27.63477 c 0,-4.2292 -3.41531,-7.64453 -7.64453,-7.64453 z m 0,0.71875 h 29.38086 c 3.84345,0 6.92578,3.08236 6.92578,6.92578 v 27.63477 c 0,3.84343 -3.08233,6.92578 -6.92578,6.92578 h -29.38086 c -3.84345,0 -6.92578,-3.08235 -6.92578,-6.92578 v -27.63477 c 0,-3.84342 3.08233,-6.92578 6.92578,-6.92578 z"
         id="path13"
         inkscape:label="Outline 2" />
      <path
         d="m 124.26278,148.90298 v -19.65576 h 2.75611 v 17.26266 h 8.53721 v 2.3931 z"
         id="path11"
         style="font-weight:500;font-size:27.5342px;line-height:0;font-family:'open sans';-inkscape-font-specification:'open sans Medium';letter-spacing:-0.860441px;word-spacing:0px;display:inline;fill:#ffffff;stroke:none;stroke-width:4.33609;stroke-linecap:round;stroke-linejoin:round;stroke-opacity:1;paint-order:normal"
         aria-label="L"
         inkscape:label="Symbol L"
         transform="translate(1.2916667e-6)" />
    </g>
    <g
       id="rect1"
       inkscape:label="Style - Transparent"
       style="display:inline">
      <path
         style="color:#000000;display:inline;fill:#808080;fill-opacity:0.501961;stroke:none;stroke-linecap:round;stroke-linejoin:round;-inkscape-stroke:none"
         d="m 113.52148,114.5332 c -5.03972,0 -9.1289,4.08724 -9.1289,9.12696 v 30.83007 c 0,5.03973 4.08918,9.12696 9.1289,9.12696 h 32.77735 c 5.03972,0 9.12695,-4.08723 9.12695,-9.12696 v -30.83007 c 0,-5.03972 -4.08723,-9.12696 -9.12695,-9.12696 z m 0,2 h 32.77735 c 3.96631,0 7.12695,3.16064 7.12695,7.12696 v 30.83007 c 0,3.96632 -3.16064,7.12696 -7.12695,7.12696 h -32.77735 c -3.96631,0 -7.1289,-3.16064 -7.1289,-7.12696 v -30.83007 c 0,-3.96632 3.16259,-7.12696 7.1289,-7.12696 z"
         id="path2"
         inkscape:label="Outline" />
      <path
         style="color:#000000;display:inline;fill:#ffffff;stroke:none;stroke-linecap:round;stroke-linejoin:round;-inkscape-stroke:none"
         d="m 113.52077,115.53243 h 32.77733 c 4.50302,0 8.1282,3.62518 8.1282,8.1282 v 30.82895 c 0,4.50303 -3.62518,8.1282 -8.1282,8.1282 h -32.77733 c -4.50302,0 -8.1282,-3.62517 -8.1282,-8.1282 v -30.82895 c 0,-4.50302 3.62518,-8.1282 8.1282,-8.1282 z"
         id="path3"
         inkscape:label="Color" />
      <path
         style="color:#000000;display:inline;fill:none;stroke:#808080;stroke-width:0.826342;stroke-linecap:round;stroke-linejoin:round;stroke-dasharray:none;stroke-opacity:1;paint-order:normal"
         d="m 114.6783,117.19522 h 30.4623 c 4.18496,0 7.55411,3.36916 7.55411,7.55413 v 28.65152 c 0,4.18498 -3.36915,7.55413 -7.55411,7.55413 h -30.4623 c -4.18497,0 -7.55411,-3.36915 -7.55411,-7.55413 v -28.65152 c 0,-4.18497 3.36914,-7.55413 7.55411,-7.55413 z"
         id="path12"
         inkscape:label="Outline 2"
         transform="translate(1.2916667e-6)" />
      <path
         d="m 124.26278,148.90298 v -19.65576 h 2.75611 v 17.26266 h 8.53721 v 2.3931 z"
         id="text1"
         style="font-weight:500;font-size:27.5342px;line-height:0;font-family:'open sans';-inkscape-font-specification:'open sans Medium';letter-spacing:-0.860441px;word-spacing:0px;display:inline;fill:#808080;stroke:none;stroke-width:4.33609;stroke-linecap:round;stroke-linejoin:round;stroke-opacity:1;paint-order:normal"
         aria-label="L"
         inkscape:label="Symbol L"
         transform="translate(1.2916667e-6)" />
    </g>
  </g>
</svg>
