<?xml version="1.0" encoding="UTF-8" standalone="no"?>
<!-- Created with Inkscape (http://www.inkscape.org/) -->

<svg
   width="46.548828mm"
   height="58.433594mm"
   viewBox="0 0 46.548829 58.433593"
   version="1.1"
   id="svg1"
   inkscape:version="1.3.2 (091e20e, 2023-11-25, custom)"
   sodipodi:docname="steamcontroller-Right Grip.svg"
   xmlns:inkscape="http://www.inkscape.org/namespaces/inkscape"
   xmlns:sodipodi="http://sodipodi.sourceforge.net/DTD/sodipodi-0.dtd"
   xmlns="http://www.w3.org/2000/svg"
   xmlns:svg="http://www.w3.org/2000/svg">
  <sodipodi:namedview
     id="namedview1"
     pagecolor="#33ff9f"
     bordercolor="#000000"
     borderopacity="0.25"
     inkscape:showpageshadow="2"
     inkscape:pageopacity="0.0"
     inkscape:pagecheckerboard="0"
     inkscape:deskcolor="#d1d1d1"
     inkscape:document-units="mm"
     inkscape:zoom="2.9279062"
     inkscape:cx="50.377297"
     inkscape:cy="131.49328"
     inkscape:window-width="2560"
     inkscape:window-height="1351"
     inkscape:window-x="-9"
     inkscape:window-y="-9"
     inkscape:window-maximized="1"
     inkscape:current-layer="g3" />
  <defs
     id="defs1">
    <rect
       x="116.58379"
       y="-200.1355"
       width="63.296257"
       height="53.298012"
       id="rect23625" />
    <rect
       x="116.58379"
       y="-200.1355"
       width="63.296257"
       height="53.298012"
       id="rect8787-6-8-1-8" />
  </defs>
  <g
     id="g3"
     inkscape:label="Button Prompt RG">
    <g
       id="rect2"
       inkscape:label="Style - Outline (White)"
       style="display:none">
      <path
         style="color:#000000;fill:#ffffff;stroke-linecap:round;stroke-linejoin:round;-inkscape-stroke:none"
         d="m 14.456275,1.1015 h 17.635973 c 7.398546,0 13.354776,12.539431 13.354776,28.115316 0,15.575886 -5.95623,28.115317 -13.354776,28.115317 H 14.456275 C 7.0577299,57.332133 1.1015,44.792702 1.1015,29.216816 1.1015,13.640931 7.0577299,1.1015 14.456275,1.1015 Z"
         id="path6"
         inkscape:label="Color" />
      <path
         style="color:#000000;display:inline;fill:#030303;stroke-linecap:round;stroke-linejoin:round;-inkscape-stroke:none"
         d="M 14.457031,0 C 10.13547,0 6.5172042,3.5668851 4.0097656,8.8457031 1.502327,14.124521 0,21.288457 0,29.216797 c 0,7.928339 1.502327,15.092276 4.0097656,20.371094 2.5074386,5.278818 6.1257044,8.845703 10.4472654,8.845703 h 17.634766 c 4.321561,0 7.939827,-3.566885 10.447265,-8.845703 2.507439,-5.278818 4.009766,-12.442755 4.009766,-20.371094 0,-7.92834 -1.502327,-15.092276 -4.009766,-20.3710939 C 40.031624,3.5668851 36.413358,0 32.091797,0 Z m 0,2.203125 h 17.634766 c 3.076977,0 6.136723,2.703032 8.457031,7.5878906 2.320308,4.8848584 3.796875,11.7782514 3.796875,19.4257814 0,7.64753 -1.476567,14.540922 -3.796875,19.425781 -2.320308,4.884859 -5.380054,7.587891 -8.457031,7.587891 H 14.457031 C 11.380054,56.230469 8.3203079,53.527437 6,48.642578 3.6796921,43.757719 2.203125,36.864327 2.203125,29.216797 2.203125,21.569267 3.6796921,14.675874 6,9.7910156 8.3203079,4.906157 11.380054,2.203125 14.457031,2.203125 Z"
         id="path7"
         inkscape:label="Outline" />
      <path
         d="m 15.141263,21.880129 q 2.020908,0 3.331767,0.502496 1.321784,0.491572 1.966289,1.507488 0.644506,1.004992 0.644506,2.556176 0,1.223469 -0.447877,2.064603 -0.447877,0.841135 -1.179773,1.376403 -0.720973,0.535267 -1.551184,0.841134 l 4.467846,7.122336 h -2.5671 l -3.888882,-6.532449 h -2.93851 v 6.532449 H 10.73896 V 21.880129 Z m -0.14201,1.900746 h -2.020908 v 5.669466 h 2.173842 q 1.889822,0 2.763728,-0.731896 0.873906,-0.74282 0.873906,-2.184766 0,-1.496564 -0.928525,-2.119222 -0.928525,-0.633582 -2.862043,-0.633582 z m 15.730313,5.549304 h 5.767781 v 7.87608 q -1.25624,0.42603 -2.588947,0.644506 -1.332707,0.218477 -2.993129,0.218477 -2.468785,0 -4.161979,-0.983145 -1.693193,-0.983144 -2.578023,-2.818347 -0.873906,-1.835203 -0.873906,-4.413227 0,-2.479709 0.97222,-4.325836 0.972221,-1.846127 2.829272,-2.862043 1.85705,-1.015916 4.478769,-1.015916 1.31086,0 2.512481,0.251248 1.212545,0.251248 2.228461,0.699125 l -0.808364,1.889823 q -0.852058,-0.382334 -1.889822,-0.644506 -1.02684,-0.273096 -2.130146,-0.273096 -1.835204,0 -3.156987,0.775592 -1.310859,0.775592 -2.020908,2.184765 -0.699125,1.409174 -0.699125,3.342692 0,1.889822 0.589887,3.298996 0.589886,1.409174 1.846127,2.195689 1.25624,0.786516 3.233453,0.786516 0.994068,0 1.693193,-0.109238 0.710049,-0.109239 1.299936,-0.262172 v -4.500617 h -3.550244 z"
         id="text2"
         style="font-weight:500;font-size:22.372px;line-height:0;font-family:'open sans';-inkscape-font-specification:'open sans Medium';letter-spacing:-0.699125px;word-spacing:0px;display:inline;fill:#000000;stroke-width:4.22778;stroke-linecap:round;stroke-linejoin:round;paint-order:stroke fill markers"
         inkscape:label="Symbol RG"
         aria-label="RG" />
    </g>
    <g
       id="g9"
       inkscape:label="Style - Outline (Black)"
       style="display:none">
      <path
         style="color:#000000;fill:#000000;stroke-linecap:round;stroke-linejoin:round;-inkscape-stroke:none"
         d="m 14.456275,1.1015 h 17.635973 c 7.398546,0 13.354776,12.539431 13.354776,28.115316 0,15.575886 -5.95623,28.115317 -13.354776,28.115317 H 14.456275 C 7.0577299,57.332133 1.1015,44.792702 1.1015,29.216816 1.1015,13.640931 7.0577299,1.1015 14.456275,1.1015 Z"
         id="path8"
         inkscape:label="Color" />
      <path
         style="color:#000000;display:inline;fill:#ffffff;stroke-linecap:round;stroke-linejoin:round;-inkscape-stroke:none"
         d="M 14.457031,0 C 10.13547,0 6.5172042,3.5668851 4.0097656,8.8457031 1.502327,14.124521 0,21.288457 0,29.216797 c 0,7.928339 1.502327,15.092276 4.0097656,20.371094 2.5074386,5.278818 6.1257044,8.845703 10.4472654,8.845703 h 17.634766 c 4.321561,0 7.939827,-3.566885 10.447265,-8.845703 2.507439,-5.278818 4.009766,-12.442755 4.009766,-20.371094 0,-7.92834 -1.502327,-15.092276 -4.009766,-20.3710939 C 40.031624,3.5668851 36.413358,0 32.091797,0 Z m 0,2.203125 h 17.634766 c 3.076977,0 6.136723,2.703032 8.457031,7.5878906 2.320308,4.8848584 3.796875,11.7782514 3.796875,19.4257814 0,7.64753 -1.476567,14.540922 -3.796875,19.425781 -2.320308,4.884859 -5.380054,7.587891 -8.457031,7.587891 H 14.457031 C 11.380054,56.230469 8.3203079,53.527437 6,48.642578 3.6796921,43.757719 2.203125,36.864327 2.203125,29.216797 2.203125,21.569267 3.6796921,14.675874 6,9.7910156 8.3203079,4.906157 11.380054,2.203125 14.457031,2.203125 Z"
         id="path9"
         inkscape:label="Outline" />
      <path
         d="m 15.141263,21.880129 q 2.020908,0 3.331767,0.502496 1.321784,0.491572 1.966289,1.507488 0.644506,1.004992 0.644506,2.556176 0,1.223469 -0.447877,2.064603 -0.447877,0.841135 -1.179773,1.376403 -0.720973,0.535267 -1.551184,0.841134 l 4.467846,7.122336 h -2.5671 l -3.888882,-6.532449 h -2.93851 v 6.532449 H 10.73896 V 21.880129 Z m -0.14201,1.900746 h -2.020908 v 5.669466 h 2.173842 q 1.889822,0 2.763728,-0.731896 0.873906,-0.74282 0.873906,-2.184766 0,-1.496564 -0.928525,-2.119222 -0.928525,-0.633582 -2.862043,-0.633582 z m 15.730313,5.549304 h 5.767781 v 7.87608 q -1.25624,0.42603 -2.588947,0.644506 -1.332707,0.218477 -2.993129,0.218477 -2.468785,0 -4.161979,-0.983145 -1.693193,-0.983144 -2.578023,-2.818347 -0.873906,-1.835203 -0.873906,-4.413227 0,-2.479709 0.97222,-4.325836 0.972221,-1.846127 2.829272,-2.862043 1.85705,-1.015916 4.478769,-1.015916 1.31086,0 2.512481,0.251248 1.212545,0.251248 2.228461,0.699125 l -0.808364,1.889823 q -0.852058,-0.382334 -1.889822,-0.644506 -1.02684,-0.273096 -2.130146,-0.273096 -1.835204,0 -3.156987,0.775592 -1.310859,0.775592 -2.020908,2.184765 -0.699125,1.409174 -0.699125,3.342692 0,1.889822 0.589887,3.298996 0.589886,1.409174 1.846127,2.195689 1.25624,0.786516 3.233453,0.786516 0.994068,0 1.693193,-0.109238 0.710049,-0.109239 1.299936,-0.262172 v -4.500617 h -3.550244 z"
         id="path11"
         style="font-weight:500;font-size:22.372px;line-height:0;font-family:'open sans';-inkscape-font-specification:'open sans Medium';letter-spacing:-0.699125px;word-spacing:0px;display:inline;fill:#ffffff;stroke-width:4.22778;stroke-linecap:round;stroke-linejoin:round;paint-order:stroke fill markers"
         inkscape:label="Symbol RG"
         aria-label="RG" />
    </g>
    <g
       id="rect1"
       inkscape:label="Style - Transparent"
       style="display:inline">
      <path
         style="color:#000000;fill:#808080;fill-opacity:0.501961;stroke-linecap:round;stroke-linejoin:round;-inkscape-stroke:none;paint-order:stroke fill markers"
         d="M 14.457031,0 C 10.13547,0 6.5172042,3.5668851 4.0097656,8.8457031 1.502327,14.124521 0,21.288457 0,29.216797 c 0,7.928339 1.502327,15.092276 4.0097656,20.371094 2.5074386,5.278818 6.1257044,8.845703 10.4472654,8.845703 h 17.634766 c 4.321561,0 7.939827,-3.566885 10.447265,-8.845703 2.507439,-5.278818 4.009766,-12.442755 4.009766,-20.371094 0,-7.92834 -1.502327,-15.092276 -4.009766,-20.3710939 C 40.031624,3.5668851 36.413358,0 32.091797,0 Z m 0,2.203125 h 17.634766 c 3.076977,0 6.136723,2.703032 8.457031,7.5878906 2.320308,4.8848584 3.796875,11.7782514 3.796875,19.4257814 0,7.64753 -1.476567,14.540922 -3.796875,19.425781 -2.320308,4.884859 -5.380054,7.587891 -8.457031,7.587891 H 14.457031 C 11.380054,56.230469 8.3203079,53.527437 6,48.642578 3.6796921,43.757719 2.203125,36.864327 2.203125,29.216797 2.203125,21.569267 3.6796921,14.675874 6,9.7910156 8.3203079,4.906157 11.380054,2.203125 14.457031,2.203125 Z"
         id="path4"
         inkscape:label="Outltine" />
      <path
         style="color:#000000;display:inline;fill:#ffffff;stroke-linecap:round;stroke-linejoin:round;-inkscape-stroke:none;paint-order:stroke fill markers"
         d="m 14.456275,1.1015 h 17.635973 c 7.398546,0 13.354776,12.539431 13.354776,28.115316 0,15.575886 -5.95623,28.115317 -13.354776,28.115317 H 14.456275 C 7.0577299,57.332133 1.1015,44.792702 1.1015,29.216816 1.1015,13.640931 7.0577299,1.1015 14.456275,1.1015 Z"
         id="path5"
         inkscape:label="Color" />
      <path
         d="m 15.141263,21.880129 q 2.020908,0 3.331767,0.502496 1.321784,0.491572 1.966289,1.507488 0.644506,1.004992 0.644506,2.556176 0,1.223469 -0.447877,2.064603 -0.447877,0.841135 -1.179773,1.376403 -0.720973,0.535267 -1.551184,0.841134 l 4.467846,7.122336 h -2.5671 l -3.888882,-6.532449 h -2.93851 v 6.532449 H 10.73896 V 21.880129 Z m -0.14201,1.900746 h -2.020908 v 5.669466 h 2.173842 q 1.889822,0 2.763728,-0.731896 0.873906,-0.74282 0.873906,-2.184766 0,-1.496564 -0.928525,-2.119222 -0.928525,-0.633582 -2.862043,-0.633582 z m 15.730313,5.549304 h 5.767781 v 7.87608 q -1.25624,0.42603 -2.588947,0.644506 -1.332707,0.218477 -2.993129,0.218477 -2.468785,0 -4.161979,-0.983145 -1.693193,-0.983144 -2.578023,-2.818347 -0.873906,-1.835203 -0.873906,-4.413227 0,-2.479709 0.97222,-4.325836 0.972221,-1.846127 2.829272,-2.862043 1.85705,-1.015916 4.478769,-1.015916 1.31086,0 2.512481,0.251248 1.212545,0.251248 2.228461,0.699125 l -0.808364,1.889823 q -0.852058,-0.382334 -1.889822,-0.644506 -1.02684,-0.273096 -2.130146,-0.273096 -1.835204,0 -3.156987,0.775592 -1.310859,0.775592 -2.020908,2.184765 -0.699125,1.409174 -0.699125,3.342692 0,1.889822 0.589887,3.298996 0.589886,1.409174 1.846127,2.195689 1.25624,0.786516 3.233453,0.786516 0.994068,0 1.693193,-0.109238 0.710049,-0.109239 1.299936,-0.262172 v -4.500617 h -3.550244 z"
         id="path10"
         style="font-weight:500;font-size:22.372px;line-height:0;font-family:'open sans';-inkscape-font-specification:'open sans Medium';letter-spacing:-0.699125px;word-spacing:0px;fill:#808080;stroke-width:4.22778;stroke-linecap:round;stroke-linejoin:round;paint-order:stroke fill markers"
         inkscape:label="Symbol RG"
         aria-label="RG" />
    </g>
  </g>
</svg>
