<?xml version="1.0" encoding="UTF-8" standalone="no"?>
<!-- Created with Inkscape (http://www.inkscape.org/) -->

<svg
   width="72.837891mm"
   height="72.837891mm"
   viewBox="0 0 72.837889 72.837889"
   version="1.1"
   id="svg1"
   inkscape:version="1.3.2 (091e20e, 2023-11-25, custom)"
   sodipodi:docname="steamcontroller-Left Trackpad Left Click.svg"
   xmlns:inkscape="http://www.inkscape.org/namespaces/inkscape"
   xmlns:sodipodi="http://sodipodi.sourceforge.net/DTD/sodipodi-0.dtd"
   xmlns="http://www.w3.org/2000/svg"
   xmlns:svg="http://www.w3.org/2000/svg">
  <sodipodi:namedview
     id="namedview1"
     pagecolor="#9cff9a"
     bordercolor="#000000"
     borderopacity="0.25"
     inkscape:showpageshadow="2"
     inkscape:pageopacity="0.0"
     inkscape:pagecheckerboard="0"
     inkscape:deskcolor="#d1d1d1"
     inkscape:document-units="mm"
     inkscape:zoom="2"
     inkscape:cx="143.25"
     inkscape:cy="170"
     inkscape:window-width="1450"
     inkscape:window-height="1204"
     inkscape:window-x="816"
     inkscape:window-y="37"
     inkscape:window-maximized="0"
     inkscape:current-layer="svg1" />
  <defs
     id="defs1" />
  <g
     inkscape:label="Steam Controller Left Trackpad Left Click"
     id="layer1"
     transform="translate(-155.4043,-101.69336)">
    <g
       id="circle3"
       inkscape:label="Style - Outline (White)"
       style="display:none">
      <path
         style="color:#000000;display:inline;fill:#ffffff;-inkscape-stroke:none"
         d="m 227.04182,138.1125 a 35.218903,35.218903 0 0 1 -35.2189,35.21891 35.218903,35.218903 0 0 1 -35.2189,-35.21891 35.218903,35.218903 0 0 1 35.2189,-35.2189 35.218903,35.218903 0 0 1 35.2189,35.2189 z"
         id="path6"
         inkscape:label="Color" />
      <path
         style="color:#000000;display:inline;fill:#000000;-inkscape-stroke:none"
         d="m 191.82227,101.69336 c -20.09938,0 -36.41797,16.32055 -36.41797,36.41992 0,20.09937 16.31859,36.41797 36.41797,36.41797 20.09937,0 36.41992,-16.3186 36.41992,-36.41797 0,-20.09937 -16.32055,-36.41992 -36.41992,-36.41992 z m 0,2.40039 c 18.80231,0 34.01953,15.21722 34.01953,34.01953 0,18.80232 -15.21722,34.01758 -34.01953,34.01758 -18.80232,0 -34.01758,-15.21526 -34.01758,-34.01758 0,-18.80231 15.21526,-34.01953 34.01758,-34.01953 z"
         id="path7"
         inkscape:label="Outline" />
      <path
         style="color:#000000;display:inline;fill:#000000;stroke-linecap:round;stroke-linejoin:round;-inkscape-stroke:none"
         d="m 191.82227,105.43555 c -18.03968,0 -32.67579,14.63806 -32.67579,32.67773 0,18.03968 14.63611,32.67578 32.67579,32.67578 18.03967,0 32.67773,-14.6361 32.67773,-32.67578 0,-18.03967 -14.63806,-32.67773 -32.67773,-32.67773 z m 0,1.23828 c 17.37083,0 31.43945,14.06861 31.43945,31.43945 0,17.37084 -14.06862,31.43945 -31.43945,31.43945 -17.37084,0 -31.43946,-14.06861 -31.43946,-31.43945 0,-17.37084 14.06862,-31.43945 31.43946,-31.43945 z"
         id="circle1"
         inkscape:label="Outline 2" />
      <g
         id="g1"
         inkscape:label="D-Pad"
         style="display:inline"
         transform="translate(-6.2499998e-7,1.45625e-5)">
        <path
           style="display:inline;fill:#cdcdcd;fill-opacity:1;stroke:none;stroke-width:0.282842;stroke-linecap:round;stroke-linejoin:round;stroke-dasharray:none;stroke-opacity:1;paint-order:normal"
           d="m 190.79465,165.27516 c -1.21908,-0.22585 -3.18855,-1.85522 -3.69714,-3.61593 l -0.10809,-0.37417 -0.0766,-7.79525 -0.007,-7.68817 -0.10154,-0.358 c -0.27939,-0.98507 -1.7371,-2.33486 -2.68279,-2.34161 l -7.71741,-0.0238 -7.50243,0.0423 c -0.85662,0.58708 -1.27779,0.0576 -2.7959,-1.50645 -0.5991,-0.61722 -1.04095,-1.18447 -1.26505,-2.02085 -0.10268,-0.38323 -0.21274,-0.81688 -0.21274,-1.42124 0,-0.60436 0.0107,-0.79831 0.11335,-1.18154 0.23424,-0.87421 0.63603,-1.65035 1.26861,-2.25471 0.62921,-0.60115 0.88008,-0.93546 1.74398,-1.1668 0.37328,-0.1 1.12337,-0.41013 8.8224,-0.43665 7.26331,-0.025 7.5493,-0.0279 7.81342,-0.10745 0.35031,-0.1055 0.85398,-0.19654 1.14295,-0.40866 0.58877,-0.4322 1.05772,-1.0631 1.26435,-1.7935 l 0.10394,-0.36739 -0.10018,-7.64713 0.15819,-7.74222 0.10705,-0.37417 c 0.47119,-1.64703 1.49845,-3.06323 3.13394,-3.50971 0.34096,-0.0931 0.90431,-0.31524 1.56618,-0.31524 0.88555,0 1.32062,-0.004 2.00129,0.31465 1.26153,0.59096 2.34595,1.62073 2.77821,3.01704 l 0.13031,0.42095 0.14017,15.81232 0.10739,0.35079 c 0.31133,1.01691 1.30176,1.49757 2.22792,1.89491 0.11965,0.0513 0.38592,0.13374 0.59172,0.18312 0.36072,0.0866 0.0343,0.23749 7.13585,0.23807 6.1938,5.3e-4 7.38775,0.0444 7.76134,0.10143 1.05183,0.16038 1.92017,0.49231 2.67444,1.24659 0.63767,0.63766 1.44645,1.59075 1.67643,2.45423 0.10177,0.38209 0.11849,0.54389 0.11849,1.14646 0,0.60256 -0.0167,0.76437 -0.11849,1.14645 -0.2323,0.87219 -0.54816,1.67497 -1.18137,2.27993 -0.62944,0.60137 -1.28836,1.26983 -2.13954,1.50663 l -0.44433,0.12361 -8.14736,-0.001 -8.88006,0.69542 c -0.46809,0.47017 -1.14386,1.05326 -1.33292,1.6708 -0.22692,2.64526 -0.17212,5.34153 -0.0842,8.01717 0.25279,7.68965 -0.0931,7.8668 -0.19088,8.19222 -0.13589,0.45238 -0.21749,0.6666 -0.3665,0.96216 -0.58641,1.16316 -1.48518,2.03999 -2.76088,2.38948 -0.34704,0.0655 -1.53276,0.45531 -2.66843,0.24491 z"
           id="path5"
           sodipodi:nodetypes="sscccscccsssssscssscccsssssccsssccssscsscccssssss"
           inkscape:label="D-PAD Color" />
        <path
           style="display:inline;fill:#000000;fill-opacity:1;fill-rule:nonzero;stroke:none;stroke-width:0.766342"
           d="m 214.11267,142.82878 h -14.08152 c -0.58673,0 -1.17645,0.15268 -1.69434,0.44305 -0.56577,0.31432 -1.03874,0.77532 -1.35307,1.3411 -0.29635,0.51189 -0.44903,1.1076 -0.44903,1.71229 v 14.07853 c 0,2.60136 -2.11641,4.71179 -4.7088,4.71179 -2.59837,0 -4.71479,-2.11043 -4.71479,-4.71179 v -14.07853 c 0,-0.60469 -0.15267,-1.2004 -0.44903,-1.71229 -0.31433,-0.56578 -0.7873,-1.02678 -1.35308,-1.3411 -0.51788,-0.29037 -1.1076,-0.44305 -1.70032,-0.44305 h -14.07552 c -2.59838,0 -4.7148,-2.11641 -4.7148,-4.71479 0,-2.59538 2.11642,-4.7118 4.7148,-4.7118 h 14.07552 c 0.6047,0 1.20041,-0.15566 1.7153,-0.45202 0.55679,-0.31132 1.02377,-0.76934 1.3381,-1.33211 0.29636,-0.51489 0.44903,-1.10761 0.44903,-1.7123 v -14.07853 c 0,-2.59838 2.11642,-4.7148 4.71479,-4.7148 2.59239,0 4.7088,2.11642 4.7088,4.7148 v 14.07853 c 0,0.60469 0.15268,1.19741 0.44903,1.7123 0.31433,0.56277 0.78132,1.02079 1.33212,1.33211 0.52088,0.29636 1.11658,0.45202 1.71529,0.45202 h 14.08152 c 2.59838,0 4.7148,2.11642 4.7148,4.7118 0,2.59838 -2.11642,4.71479 -4.7148,4.71479 m 0,-10.27376 h -14.08152 c -1.46383,0 -2.65226,-1.18842 -2.65226,-2.64926 v -14.07853 c 0,-3.06536 -2.4936,-5.55897 -5.55298,-5.55897 -3.06537,0 -5.55897,2.49361 -5.55897,5.55897 v 14.07853 c 0,1.46084 -1.18843,2.64926 -2.65825,2.64926 h -14.07552 c -3.05639,0 -5.54999,2.49361 -5.54999,5.55897 0,3.05938 2.4936,5.54999 5.54999,5.54999 h 14.07552 c 1.46982,0 2.65825,1.19741 2.65825,2.66124 v 14.07853 c 0,3.06536 2.4936,5.55297 5.55897,5.55297 3.05938,0 5.55298,-2.48761 5.55298,-5.55297 v -14.07853 c 0,-1.46383 1.18843,-2.66124 2.65226,-2.66124 h 14.08152 c 3.05937,0 5.54998,-2.49061 5.54998,-5.54999 0,-3.06536 -2.49061,-5.55897 -5.54998,-5.55897"
           id="path928"
           inkscape:label="Left Touchpad D-PAD Outline" />
      </g>
      <g
         id="g22"
         style="display:inline;fill:#000000;fill-opacity:1"
         inkscape:label="Symbol Arrows"
         transform="matrix(0.31224352,0,0,0.31224352,169.8535,98.973086)">
        <path
           id="path8-6"
           style="color:#000000;display:inline;fill:#808080;fill-opacity:0.2;stroke-width:1.81363;stroke-linecap:round;stroke-linejoin:round;-inkscape-stroke:none"
           d="m 70.417901,205.41333 a 1.2581654,0.65372253 0 0 1 -1.09431,-0.3243 l -5.07654,-4.53946 -5.08113,-4.53856 a 1.2581654,0.65372253 0 0 1 1.08331,-0.98433 l 10.10819,-0.0156 10.10268,-0.0156 a 1.2581654,0.65372253 0 0 1 1.09889,0.97976 l -5.03072,4.55602 -5.02614,4.55321 a 1.2581654,0.65372253 0 0 1 -1.08423,0.32897 z"
           inkscape:label="Arrow Down" />
        <path
           id="path17"
           style="color:#000000;display:inline;fill:#808080;fill-opacity:0.2;stroke-width:1.81363;stroke-linecap:round;stroke-linejoin:round;-inkscape-stroke:none"
           d="m 150.42422,125.291 a 0.65372253,1.2581654 0 0 1 -0.3243,1.09431 l -4.53946,5.07654 -4.53856,5.08113 a 0.65372253,1.2581654 0 0 1 -0.98433,-1.08331 l -0.0156,-10.10819 -0.0156,-10.10268 a 0.65372253,1.2581654 0 0 1 0.97976,-1.09889 l 4.55602,5.03072 4.55321,5.02614 a 0.65372253,1.2581654 0 0 1 0.32897,1.08423 z"
           inkscape:label="Arrow Right" />
        <path
           id="path18"
           style="color:#000000;display:inline;fill:#000000;fill-opacity:1;stroke-width:1.81363;stroke-linecap:round;stroke-linejoin:round;-inkscape-stroke:none"
           d="m -9.704448,125.40703 a 0.65372253,1.2581654 0 0 1 0.3243,-1.09431 l 4.53946,-5.07654 4.53856004,-5.08113 a 0.65372253,1.2581654 0 0 1 0.98433,1.08331 l 0.0156,10.10819 0.0156,10.10268 a 0.65372253,1.2581654 0 0 1 -0.97976,1.09889 l -4.55602004,-5.03072 -4.55321,-5.02614 a 0.65372253,1.2581654 0 0 1 -0.32897,-1.08423 z"
           inkscape:label="Arrow Left" />
        <path
           id="path16"
           style="color:#000000;display:inline;fill:#808080;fill-opacity:0.2;stroke-width:1.81363;stroke-linecap:round;stroke-linejoin:round;-inkscape-stroke:none"
           d="m 70.301915,45.284688 a 1.2581654,0.65372253 0 0 1 1.094311,0.3243 l 5.076545,4.53946 5.081127,4.53856 a 1.2581654,0.65372253 0 0 1 -1.083313,0.98433 l -10.108184,0.0156 -10.102681,0.0156 a 1.2581654,0.65372253 0 0 1 -1.098891,-0.97976 l 5.030716,-4.55602 5.026139,-4.55321 a 1.2581654,0.65372253 0 0 1 1.084231,-0.32897 z"
           inkscape:label="Arrow Up" />
      </g>
    </g>
    <g
       id="g14"
       inkscape:label="Style - Outline (Black)"
       style="display:none">
      <path
         style="color:#000000;display:inline;fill:#000000;-inkscape-stroke:none"
         d="m 227.04182,138.1125 a 35.218903,35.218903 0 0 1 -35.2189,35.21891 35.218903,35.218903 0 0 1 -35.2189,-35.21891 35.218903,35.218903 0 0 1 35.2189,-35.2189 35.218903,35.218903 0 0 1 35.2189,35.2189 z"
         id="path9"
         inkscape:label="Color" />
      <path
         style="color:#000000;display:inline;fill:#ffffff;-inkscape-stroke:none"
         d="m 191.82227,101.69336 c -20.09938,0 -36.41797,16.32055 -36.41797,36.41992 0,20.09937 16.31859,36.41797 36.41797,36.41797 20.09937,0 36.41992,-16.3186 36.41992,-36.41797 0,-20.09937 -16.32055,-36.41992 -36.41992,-36.41992 z m 0,2.40039 c 18.80231,0 34.01953,15.21722 34.01953,34.01953 0,18.80232 -15.21722,34.01758 -34.01953,34.01758 -18.80232,0 -34.01758,-15.21526 -34.01758,-34.01758 0,-18.80231 15.21526,-34.01953 34.01758,-34.01953 z"
         id="path10"
         inkscape:label="Outline" />
      <path
         style="color:#000000;display:inline;fill:#ffffff;stroke-linecap:round;stroke-linejoin:round;-inkscape-stroke:none"
         d="m 191.82227,105.43555 c -18.03968,0 -32.67579,14.63806 -32.67579,32.67773 0,18.03968 14.63611,32.67578 32.67579,32.67578 18.03967,0 32.67773,-14.6361 32.67773,-32.67578 0,-18.03967 -14.63806,-32.67773 -32.67773,-32.67773 z m 0,1.23828 c 17.37083,0 31.43945,14.06861 31.43945,31.43945 0,17.37084 -14.06862,31.43945 -31.43945,31.43945 -17.37084,0 -31.43946,-14.06861 -31.43946,-31.43945 0,-17.37084 14.06862,-31.43945 31.43946,-31.43945 z"
         id="path11"
         inkscape:label="Outline 2" />
      <g
         id="g13"
         inkscape:label="D-Pad"
         style="display:inline"
         transform="translate(-6.2499998e-7,1.45625e-5)">
        <path
           style="display:inline;fill:#333333;fill-opacity:1;stroke:none;stroke-width:0.282842;stroke-linecap:round;stroke-linejoin:round;stroke-dasharray:none;stroke-opacity:1;paint-order:normal"
           d="m 190.79465,165.27516 c -1.21908,-0.22585 -3.18855,-1.85522 -3.69714,-3.61593 l -0.10809,-0.37417 -0.0766,-7.79525 -0.007,-7.68817 -0.10154,-0.358 c -0.27939,-0.98507 -1.7371,-2.33486 -2.68279,-2.34161 l -7.71741,-0.0238 -7.50243,0.0423 c -0.85662,0.58708 -1.27779,0.0576 -2.7959,-1.50645 -0.5991,-0.61722 -1.04095,-1.18447 -1.26505,-2.02085 -0.10268,-0.38323 -0.21274,-0.81688 -0.21274,-1.42124 0,-0.60436 0.0107,-0.79831 0.11335,-1.18154 0.23424,-0.87421 0.63603,-1.65035 1.26861,-2.25471 0.62921,-0.60115 0.88008,-0.93546 1.74398,-1.1668 0.37328,-0.1 1.12337,-0.41013 8.8224,-0.43665 7.26331,-0.025 7.5493,-0.0279 7.81342,-0.10745 0.35031,-0.1055 0.85398,-0.19654 1.14295,-0.40866 0.58877,-0.4322 1.05772,-1.0631 1.26435,-1.7935 l 0.10394,-0.36739 -0.10018,-7.64713 0.15819,-7.74222 0.10705,-0.37417 c 0.47119,-1.64703 1.49845,-3.06323 3.13394,-3.50971 0.34096,-0.0931 0.90431,-0.31524 1.56618,-0.31524 0.88555,0 1.32062,-0.004 2.00129,0.31465 1.26153,0.59096 2.34595,1.62073 2.77821,3.01704 l 0.13031,0.42095 0.14017,15.81232 0.10739,0.35079 c 0.31133,1.01691 1.30176,1.49757 2.22792,1.89491 0.11965,0.0513 0.38592,0.13374 0.59172,0.18312 0.36072,0.0866 0.0343,0.23749 7.13585,0.23807 6.1938,5.3e-4 7.38775,0.0444 7.76134,0.10143 1.05183,0.16038 1.92017,0.49231 2.67444,1.24659 0.63767,0.63766 1.44645,1.59075 1.67643,2.45423 0.10177,0.38209 0.11849,0.54389 0.11849,1.14646 0,0.60256 -0.0167,0.76437 -0.11849,1.14645 -0.2323,0.87219 -0.54816,1.67497 -1.18137,2.27993 -0.62944,0.60137 -1.28836,1.26983 -2.13954,1.50663 l -0.44433,0.12361 -8.14736,-0.001 -8.88006,0.69542 c -0.46809,0.47017 -1.14386,1.05326 -1.33292,1.6708 -0.22692,2.64526 -0.17212,5.34153 -0.0842,8.01717 0.25279,7.68965 -0.0931,7.8668 -0.19088,8.19222 -0.13589,0.45238 -0.21749,0.6666 -0.3665,0.96216 -0.58641,1.16316 -1.48518,2.03999 -2.76088,2.38948 -0.34704,0.0655 -1.53276,0.45531 -2.66843,0.24491 z"
           id="path12"
           sodipodi:nodetypes="sscccscccsssssscssscccsssssccsssccssscsscccssssss"
           inkscape:label="D-PAD Color" />
        <path
           style="display:inline;fill:#ffffff;fill-opacity:1;fill-rule:nonzero;stroke:none;stroke-width:0.766342"
           d="m 214.11267,142.82878 h -14.08152 c -0.58673,0 -1.17645,0.15268 -1.69434,0.44305 -0.56577,0.31432 -1.03874,0.77532 -1.35307,1.3411 -0.29635,0.51189 -0.44903,1.1076 -0.44903,1.71229 v 14.07853 c 0,2.60136 -2.11641,4.71179 -4.7088,4.71179 -2.59837,0 -4.71479,-2.11043 -4.71479,-4.71179 v -14.07853 c 0,-0.60469 -0.15267,-1.2004 -0.44903,-1.71229 -0.31433,-0.56578 -0.7873,-1.02678 -1.35308,-1.3411 -0.51788,-0.29037 -1.1076,-0.44305 -1.70032,-0.44305 h -14.07552 c -2.59838,0 -4.7148,-2.11641 -4.7148,-4.71479 0,-2.59538 2.11642,-4.7118 4.7148,-4.7118 h 14.07552 c 0.6047,0 1.20041,-0.15566 1.7153,-0.45202 0.55679,-0.31132 1.02377,-0.76934 1.3381,-1.33211 0.29636,-0.51489 0.44903,-1.10761 0.44903,-1.7123 v -14.07853 c 0,-2.59838 2.11642,-4.7148 4.71479,-4.7148 2.59239,0 4.7088,2.11642 4.7088,4.7148 v 14.07853 c 0,0.60469 0.15268,1.19741 0.44903,1.7123 0.31433,0.56277 0.78132,1.02079 1.33212,1.33211 0.52088,0.29636 1.11658,0.45202 1.71529,0.45202 h 14.08152 c 2.59838,0 4.7148,2.11642 4.7148,4.7118 0,2.59838 -2.11642,4.71479 -4.7148,4.71479 m 0,-10.27376 h -14.08152 c -1.46383,0 -2.65226,-1.18842 -2.65226,-2.64926 v -14.07853 c 0,-3.06536 -2.4936,-5.55897 -5.55298,-5.55897 -3.06537,0 -5.55897,2.49361 -5.55897,5.55897 v 14.07853 c 0,1.46084 -1.18843,2.64926 -2.65825,2.64926 h -14.07552 c -3.05639,0 -5.54999,2.49361 -5.54999,5.55897 0,3.05938 2.4936,5.54999 5.54999,5.54999 h 14.07552 c 1.46982,0 2.65825,1.19741 2.65825,2.66124 v 14.07853 c 0,3.06536 2.4936,5.55297 5.55897,5.55297 3.05938,0 5.55298,-2.48761 5.55298,-5.55297 v -14.07853 c 0,-1.46383 1.18843,-2.66124 2.65226,-2.66124 h 14.08152 c 3.05937,0 5.54998,-2.49061 5.54998,-5.54999 0,-3.06536 -2.49061,-5.55897 -5.54998,-5.55897"
           id="path13"
           inkscape:label="Left Touchpad D-PAD Outline" />
      </g>
      <g
         id="g26"
         style="display:inline;fill:#ffffff;fill-opacity:1"
         inkscape:label="Symbol Arrows"
         transform="matrix(0.31224352,0,0,0.31224352,169.8535,98.973086)">
        <path
           id="path23"
           style="color:#000000;display:inline;fill:#808080;fill-opacity:0.2;stroke-width:1.81363;stroke-linecap:round;stroke-linejoin:round;-inkscape-stroke:none"
           d="m 70.417901,205.41333 a 1.2581654,0.65372253 0 0 1 -1.09431,-0.3243 l -5.07654,-4.53946 -5.08113,-4.53856 a 1.2581654,0.65372253 0 0 1 1.08331,-0.98433 l 10.10819,-0.0156 10.10268,-0.0156 a 1.2581654,0.65372253 0 0 1 1.09889,0.97976 l -5.03072,4.55602 -5.02614,4.55321 a 1.2581654,0.65372253 0 0 1 -1.08423,0.32897 z"
           inkscape:label="Arrow Down" />
        <path
           id="path24"
           style="color:#000000;display:inline;fill:#808080;fill-opacity:0.2;stroke-width:1.81363;stroke-linecap:round;stroke-linejoin:round;-inkscape-stroke:none"
           d="m 150.42422,125.291 a 0.65372253,1.2581654 0 0 1 -0.3243,1.09431 l -4.53946,5.07654 -4.53856,5.08113 a 0.65372253,1.2581654 0 0 1 -0.98433,-1.08331 l -0.0156,-10.10819 -0.0156,-10.10268 a 0.65372253,1.2581654 0 0 1 0.97976,-1.09889 l 4.55602,5.03072 4.55321,5.02614 a 0.65372253,1.2581654 0 0 1 0.32897,1.08423 z"
           inkscape:label="Arrow Right" />
        <path
           id="path25"
           style="color:#000000;display:inline;fill:#ffffff;fill-opacity:1;stroke-width:1.81363;stroke-linecap:round;stroke-linejoin:round;-inkscape-stroke:none"
           d="m -9.704448,125.40703 a 0.65372253,1.2581654 0 0 1 0.3243,-1.09431 l 4.53946,-5.07654 4.53856004,-5.08113 a 0.65372253,1.2581654 0 0 1 0.98433,1.08331 l 0.0156,10.10819 0.0156,10.10268 a 0.65372253,1.2581654 0 0 1 -0.97976,1.09889 l -4.55602004,-5.03072 -4.55321,-5.02614 a 0.65372253,1.2581654 0 0 1 -0.32897,-1.08423 z"
           inkscape:label="Arrow Left" />
        <path
           id="path26"
           style="color:#000000;display:inline;fill:#808080;fill-opacity:0.2;stroke-width:1.81363;stroke-linecap:round;stroke-linejoin:round;-inkscape-stroke:none"
           d="m 70.301915,45.284688 a 1.2581654,0.65372253 0 0 1 1.094311,0.3243 l 5.076545,4.53946 5.081127,4.53856 a 1.2581654,0.65372253 0 0 1 -1.083313,0.98433 l -10.108184,0.0156 -10.102681,0.0156 a 1.2581654,0.65372253 0 0 1 -1.098891,-0.97976 l 5.030716,-4.55602 5.026139,-4.55321 a 1.2581654,0.65372253 0 0 1 1.084231,-0.32897 z"
           inkscape:label="Arrow Up" />
      </g>
    </g>
    <g
       id="circle1-6-9"
       inkscape:label="Style - Transparent"
       style="display:inline">
      <path
         style="color:#000000;display:inline;fill:#808080;fill-opacity:0.501961;-inkscape-stroke:none;paint-order:stroke fill markers"
         d="m 191.82227,101.69336 c -20.09938,0 -36.41797,16.32055 -36.41797,36.41992 0,20.09937 16.31859,36.41797 36.41797,36.41797 20.09937,0 36.41992,-16.3186 36.41992,-36.41797 0,-20.09937 -16.32055,-36.41992 -36.41992,-36.41992 z m 0,2.40039 c 18.80231,0 34.01953,15.21722 34.01953,34.01953 0,18.80232 -15.21722,34.01758 -34.01953,34.01758 -18.80232,0 -34.01758,-15.21526 -34.01758,-34.01758 0,-18.80231 15.21526,-34.01953 34.01758,-34.01953 z"
         id="path3"
         inkscape:label="Outline" />
      <path
         style="color:#000000;display:inline;fill:#ffffff;-inkscape-stroke:none;paint-order:stroke fill markers"
         d="m 227.04182,138.1125 a 35.218903,35.218903 0 0 1 -35.2189,35.21891 35.218903,35.218903 0 0 1 -35.2189,-35.21891 35.218903,35.218903 0 0 1 35.2189,-35.2189 35.218903,35.218903 0 0 1 35.2189,35.2189 z"
         id="path4"
         inkscape:label="Circle" />
      <path
         style="color:#000000;display:inline;fill:#808080;stroke-width:1.03036;stroke-linecap:round;stroke-linejoin:round;-inkscape-stroke:none"
         d="m 191.82224,104.44336 c -18.58743,0 -33.66795,15.08253 -33.66795,33.66995 0,18.58743 15.08052,33.66794 33.66795,33.66794 18.58742,0 33.66995,-15.08051 33.66995,-33.66794 0,-18.58742 -15.08253,-33.66995 -33.66995,-33.66995 z m 0,1.27588 c 17.89827,0 32.39407,14.49579 32.39407,32.39407 0,17.89828 -14.4958,32.39407 -32.39407,32.39407 -17.89828,0 -32.39408,-14.49579 -32.39408,-32.39407 0,-17.89828 14.4958,-32.39407 32.39408,-32.39407 z"
         id="path8"
         inkscape:label="Outline 2" />
      <g
         id="g15"
         inkscape:label="D-Pad"
         style="display:inline"
         transform="translate(-1.4166666e-6,1.5e-5)">
        <path
           style="display:inline;fill:#cccccc;fill-opacity:1;stroke:none;stroke-width:0.282842;stroke-linecap:round;stroke-linejoin:round;stroke-dasharray:none;stroke-opacity:1;paint-order:normal"
           d="m 190.79465,165.27516 c -1.21908,-0.22585 -3.18855,-1.85522 -3.69714,-3.61593 l -0.10809,-0.37417 -0.0766,-7.79525 -0.007,-7.68817 -0.10154,-0.358 c -0.27939,-0.98507 -1.7371,-2.33486 -2.68279,-2.34161 l -7.71741,-0.0238 -7.50243,0.0423 c -0.85662,0.58708 -1.27779,0.0576 -2.7959,-1.50645 -0.5991,-0.61722 -1.04095,-1.18447 -1.26505,-2.02085 -0.10268,-0.38323 -0.21274,-0.81688 -0.21274,-1.42124 0,-0.60436 0.0107,-0.79831 0.11335,-1.18154 0.23424,-0.87421 0.63603,-1.65035 1.26861,-2.25471 0.62921,-0.60115 0.88008,-0.93546 1.74398,-1.1668 0.37328,-0.1 1.12337,-0.41013 8.8224,-0.43665 7.26331,-0.025 7.5493,-0.0279 7.81342,-0.10745 0.35031,-0.1055 0.85398,-0.19654 1.14295,-0.40866 0.58877,-0.4322 1.05772,-1.0631 1.26435,-1.7935 l 0.10394,-0.36739 -0.10018,-7.64713 0.15819,-7.74222 0.10705,-0.37417 c 0.47119,-1.64703 1.49845,-3.06323 3.13394,-3.50971 0.34096,-0.0931 0.90431,-0.31524 1.56618,-0.31524 0.88555,0 1.32062,-0.004 2.00129,0.31465 1.26153,0.59096 2.34595,1.62073 2.77821,3.01704 l 0.13031,0.42095 0.14017,15.81232 0.10739,0.35079 c 0.31133,1.01691 1.30176,1.49757 2.22792,1.89491 0.11965,0.0513 0.38592,0.13374 0.59172,0.18312 0.36072,0.0866 0.0343,0.23749 7.13585,0.23807 6.1938,5.3e-4 7.38775,0.0444 7.76134,0.10143 1.05183,0.16038 1.92017,0.49231 2.67444,1.24659 0.63767,0.63766 1.44645,1.59075 1.67643,2.45423 0.10177,0.38209 0.11849,0.54389 0.11849,1.14646 0,0.60256 -0.0167,0.76437 -0.11849,1.14645 -0.2323,0.87219 -0.54816,1.67497 -1.18137,2.27993 -0.62944,0.60137 -1.28836,1.26983 -2.13954,1.50663 l -0.44433,0.12361 -8.14736,-0.001 -8.88006,0.69542 c -0.46809,0.47017 -1.14386,1.05326 -1.33292,1.6708 -0.22692,2.64526 -0.17212,5.34153 -0.0842,8.01717 0.25279,7.68965 -0.0931,7.8668 -0.19088,8.19222 -0.13589,0.45238 -0.21749,0.6666 -0.3665,0.96216 -0.58641,1.16316 -1.48518,2.03999 -2.76088,2.38948 -0.34704,0.0655 -1.53276,0.45531 -2.66843,0.24491 z"
           id="path14"
           sodipodi:nodetypes="sscccscccsssssscssscccsssssccsssccssscsscccssssss"
           inkscape:label="D-PAD Color" />
        <path
           style="display:inline;fill:#808080;fill-opacity:1;fill-rule:nonzero;stroke:none;stroke-width:0.766342"
           d="m 214.11267,142.82878 h -14.08152 c -0.58673,0 -1.17645,0.15268 -1.69434,0.44305 -0.56577,0.31432 -1.03874,0.77532 -1.35307,1.3411 -0.29635,0.51189 -0.44903,1.1076 -0.44903,1.71229 v 14.07853 c 0,2.60136 -2.11641,4.71179 -4.7088,4.71179 -2.59837,0 -4.71479,-2.11043 -4.71479,-4.71179 v -14.07853 c 0,-0.60469 -0.15267,-1.2004 -0.44903,-1.71229 -0.31433,-0.56578 -0.7873,-1.02678 -1.35308,-1.3411 -0.51788,-0.29037 -1.1076,-0.44305 -1.70032,-0.44305 h -14.07552 c -2.59838,0 -4.7148,-2.11641 -4.7148,-4.71479 0,-2.59538 2.11642,-4.7118 4.7148,-4.7118 h 14.07552 c 0.6047,0 1.20041,-0.15566 1.7153,-0.45202 0.55679,-0.31132 1.02377,-0.76934 1.3381,-1.33211 0.29636,-0.51489 0.44903,-1.10761 0.44903,-1.7123 v -14.07853 c 0,-2.59838 2.11642,-4.7148 4.71479,-4.7148 2.59239,0 4.7088,2.11642 4.7088,4.7148 v 14.07853 c 0,0.60469 0.15268,1.19741 0.44903,1.7123 0.31433,0.56277 0.78132,1.02079 1.33212,1.33211 0.52088,0.29636 1.11658,0.45202 1.71529,0.45202 h 14.08152 c 2.59838,0 4.7148,2.11642 4.7148,4.7118 0,2.59838 -2.11642,4.71479 -4.7148,4.71479 m 0,-10.27376 h -14.08152 c -1.46383,0 -2.65226,-1.18842 -2.65226,-2.64926 v -14.07853 c 0,-3.06536 -2.4936,-5.55897 -5.55298,-5.55897 -3.06537,0 -5.55897,2.49361 -5.55897,5.55897 v 14.07853 c 0,1.46084 -1.18843,2.64926 -2.65825,2.64926 h -14.07552 c -3.05639,0 -5.54999,2.49361 -5.54999,5.55897 0,3.05938 2.4936,5.54999 5.54999,5.54999 h 14.07552 c 1.46982,0 2.65825,1.19741 2.65825,2.66124 v 14.07853 c 0,3.06536 2.4936,5.55297 5.55897,5.55297 3.05938,0 5.55298,-2.48761 5.55298,-5.55297 v -14.07853 c 0,-1.46383 1.18843,-2.66124 2.65226,-2.66124 h 14.08152 c 3.05937,0 5.54998,-2.49061 5.54998,-5.54999 0,-3.06536 -2.49061,-5.55897 -5.54998,-5.55897"
           id="path15"
           inkscape:label="Left Touchpad D-PAD Outline" />
      </g>
      <g
         id="g23"
         style="display:inline;fill:#808080;fill-opacity:1"
         inkscape:label="Symbol Arrows"
         transform="matrix(0.31224352,0,0,0.31224352,169.8535,98.973086)">
        <path
           id="path19"
           style="color:#000000;display:inline;fill:#808080;fill-opacity:0.2;stroke-width:1.81363;stroke-linecap:round;stroke-linejoin:round;-inkscape-stroke:none"
           d="m 70.417901,205.41333 a 1.2581654,0.65372253 0 0 1 -1.09431,-0.3243 l -5.07654,-4.53946 -5.08113,-4.53856 a 1.2581654,0.65372253 0 0 1 1.08331,-0.98433 l 10.10819,-0.0156 10.10268,-0.0156 a 1.2581654,0.65372253 0 0 1 1.09889,0.97976 l -5.03072,4.55602 -5.02614,4.55321 a 1.2581654,0.65372253 0 0 1 -1.08423,0.32897 z"
           inkscape:label="Arrow Down" />
        <path
           id="path20"
           style="color:#000000;display:inline;fill:#808080;fill-opacity:0.2;stroke-width:1.81363;stroke-linecap:round;stroke-linejoin:round;-inkscape-stroke:none"
           d="m 150.42422,125.291 a 0.65372253,1.2581654 0 0 1 -0.3243,1.09431 l -4.53946,5.07654 -4.53856,5.08113 a 0.65372253,1.2581654 0 0 1 -0.98433,-1.08331 l -0.0156,-10.10819 -0.0156,-10.10268 a 0.65372253,1.2581654 0 0 1 0.97976,-1.09889 l 4.55602,5.03072 4.55321,5.02614 a 0.65372253,1.2581654 0 0 1 0.32897,1.08423 z"
           inkscape:label="Arrow Right" />
        <path
           id="path21"
           style="color:#000000;display:inline;fill:#808080;fill-opacity:1;stroke-width:1.81363;stroke-linecap:round;stroke-linejoin:round;-inkscape-stroke:none"
           d="m -9.704448,125.40703 a 0.65372253,1.2581654 0 0 1 0.3243,-1.09431 l 4.53946,-5.07654 4.53856004,-5.08113 a 0.65372253,1.2581654 0 0 1 0.98433,1.08331 l 0.0156,10.10819 0.0156,10.10268 a 0.65372253,1.2581654 0 0 1 -0.97976,1.09889 l -4.55602004,-5.03072 -4.55321,-5.02614 a 0.65372253,1.2581654 0 0 1 -0.32897,-1.08423 z"
           inkscape:label="Arrow Left" />
        <path
           id="path22"
           style="color:#000000;display:inline;fill:#808080;fill-opacity:0.2;stroke-width:1.81363;stroke-linecap:round;stroke-linejoin:round;-inkscape-stroke:none"
           d="m 70.301915,45.284688 a 1.2581654,0.65372253 0 0 1 1.094311,0.3243 l 5.076545,4.53946 5.081127,4.53856 a 1.2581654,0.65372253 0 0 1 -1.083313,0.98433 l -10.108184,0.0156 -10.102681,0.0156 a 1.2581654,0.65372253 0 0 1 -1.098891,-0.97976 l 5.030716,-4.55602 5.026139,-4.55321 a 1.2581654,0.65372253 0 0 1 1.084231,-0.32897 z"
           inkscape:label="Arrow Up" />
      </g>
    </g>
  </g>
</svg>
