<?xml version="1.0" encoding="UTF-8" standalone="no"?>
<!-- Created with Inkscape (http://www.inkscape.org/) -->

<svg
   width="45.529301mm"
   height="45.529289mm"
   viewBox="0 0 45.529302 45.529289"
   version="1.1"
   id="svg1"
   sodipodi:docname="steamcontroller-Guide.svg"
   inkscape:version="1.3.2 (091e20e, 2023-11-25, custom)"
   xmlns:inkscape="http://www.inkscape.org/namespaces/inkscape"
   xmlns:sodipodi="http://sodipodi.sourceforge.net/DTD/sodipodi-0.dtd"
   xmlns="http://www.w3.org/2000/svg"
   xmlns:svg="http://www.w3.org/2000/svg"
   xmlns:rdf="http://www.w3.org/1999/02/22-rdf-syntax-ns#"
   xmlns:cc="http://creativecommons.org/ns#">
  <sodipodi:namedview
     id="namedview1"
     pagecolor="#3e8d2e"
     bordercolor="#000000"
     borderopacity="0.25"
     inkscape:showpageshadow="true"
     inkscape:pageopacity="0.0"
     inkscape:pagecheckerboard="false"
     inkscape:deskcolor="#d1d1d1"
     inkscape:document-units="mm"
     inkscape:zoom="5.0058533"
     inkscape:cx="70.617331"
     inkscape:cy="100.38249"
     inkscape:window-width="2560"
     inkscape:window-height="1351"
     inkscape:window-x="-9"
     inkscape:window-y="-9"
     inkscape:window-maximized="1"
     inkscape:current-layer="layer1"
     labelstyle="default"
     showborder="true" />
  <defs
     id="defs1">
    <rect
       x="-56.219887"
       y="21.188398"
       width="94.076492"
       height="120.63262"
       id="rect3" />
    <rect
       x="-329.58707"
       y="426.24316"
       width="115.7824"
       height="107.24387"
       id="rect2" />
    <rect
       x="-486.35437"
       y="484.30515"
       width="87.776039"
       height="93.582237"
       id="rect1" />
    <rect
       x="-56.219887"
       y="21.188398"
       width="94.076492"
       height="120.63262"
       id="rect4" />
    <rect
       x="-56.219887"
       y="21.188398"
       width="94.076492"
       height="120.63262"
       id="rect5" />
  </defs>
  <g
     inkscape:label="Button Prompt Steam Controller Guide Button"
     id="layer1"
     transform="translate(139.87891,-115.24219)"
     style="display:inline">
    <g
       id="path1"
       inkscape:label="Style - Outline (White)"
       style="display:none">
      <path
         style="color:#000000;display:inline;fill:#000000;fill-opacity:1;fill-rule:evenodd;stroke-width:0.109639;stroke-linejoin:round;-inkscape-stroke:none"
         d="m -135.83725,143.67495 c 0,0 -0.77054,1.35284 -1.04893,-7.27043 24.40263,-22.3841 47.342723,-13.05198 26.99457,14.41283 -0.42322,0.5712 -12.03372,2.17357 -14.96283,1.64773 -1.1646,-0.20908 -4.27144,-4.52089 -5.39289,-4.99448 -2.29584,-0.96963 -4.10406,-2.52295 -5.02327,-3.12539 -0.26739,-0.17527 -0.56665,-0.67026 -0.56665,-0.67026 z"
         sodipodi:nodetypes="ccssssc"
         inkscape:label="Symbol Steam Logo (Below)"
         inkscape:export-filename="C:\Users\AL200\Desktop\icon.png"
         inkscape:export-xdpi="0.57510161"
         inkscape:export-ydpi="0.57510161"
         id="path11"
         transform="translate(1.25e-6)" />
      <path
         d="m -117.14885,118.02108 c -10.4046,0 -18.92792,8.09581 -19.73733,18.38344 l 10.61542,4.42913 a 5.5316831,5.5316831 0 0 1 3.15512,-0.98332 c 0.10531,0 0.20941,0.003 0.31202,0.008 l 4.72131,-6.90611 v -0.0967 c 0,-4.15557 3.35036,-7.53727 7.46889,-7.53727 4.11832,0 7.46858,3.3817 7.46858,7.53727 0,4.15539 -3.35026,7.53847 -7.46858,7.53847 -0.0569,0 -0.11279,-9.3e-4 -0.16963,-0.003 l -6.73363,4.84663 c 0,0.09 0.009,0.17965 0.009,0.26799 0,3.1208 -2.51513,5.65896 -5.60613,5.65896 -2.71336,0 -4.98348,-1.9552 -5.49653,-4.5431 l -7.59284,-3.16807 c 2.35139,8.38943 9.98969,14.54005 19.05617,14.54005 10.93882,0 19.805565,-8.94936 19.805565,-19.98662 0,-11.03851 -8.866745,-19.98663 -19.805565,-19.98663 z m -7.3258,30.32634 -2.43265,-1.01452 c 0.43048,0.90623 1.17717,1.66435 2.16759,2.08063 2.14038,0.90052 4.60863,-0.12404 5.50082,-2.28591 a 4.2562695,4.2562695 0 0 0 0.009,-3.24917 c -0.42759,-1.04882 -1.23561,-1.86686 -2.27159,-2.30292 -1.03022,-0.43171 -2.1333,-0.41611 -3.10238,-0.047 l 2.51391,1.04881 c 1.57898,0.6642 2.32557,2.49383 1.66731,4.08713 -0.65695,1.59314 -2.47113,2.34709 -4.05009,1.68289 z m 18.83799,-15.49125 c 0,-2.76878 -2.23302,-5.02318 -4.9763,-5.02318 -2.7447,0 -4.9778,2.2544 -4.9778,5.02318 0,2.76894 2.2331,5.02196 4.9778,5.02196 2.74328,0 4.9763,-2.25302 4.9763,-5.02196 z m -8.70711,-0.008 c 0,-2.08341 1.67439,-3.77201 3.73797,-3.77201 2.0649,0 3.7393,1.6886 3.7393,3.77201 0,2.08344 -1.6744,3.7722 -3.73939,3.7722 -2.06349,0 -3.73807,-1.68876 -3.73807,-3.77204 z"
         fill="#1a1918"
         id="path12"
         style="display:inline;fill:#ffffff;fill-opacity:1;stroke:none;stroke-width:0.154464;stroke-opacity:1"
         inkscape:export-filename="C:\Users\AL200\Desktop\icon.png"
         inkscape:export-xdpi="0.57510161"
         inkscape:export-ydpi="0.57510161"
         inkscape:label="Symbol Steam Logo (Above)"
         transform="translate(1.25e-6)" />
      <path
         style="color:#000000;display:inline;fill:#000000;fill-opacity:1;stroke-linecap:round;stroke-linejoin:round;-inkscape-stroke:none"
         d="m -117.11328,115.24219 c -12.554,0 -22.76563,10.21163 -22.76563,22.76562 0,12.554 10.21163,22.76367 22.76563,22.76367 12.55399,0 22.763671,-10.20967 22.763671,-22.76367 0,-12.55399 -10.209681,-22.76562 -22.763671,-22.76562 z m 0,3.10156 c 10.87863,0 19.664061,8.78543 19.664061,19.66406 0,10.87864 -8.785431,19.66406 -19.664061,19.66406 -10.87863,0 -19.66406,-8.78542 -19.66406,-19.66406 0,-10.87863 8.78543,-19.66406 19.66406,-19.66406 z"
         id="path4"
         inkscape:label="Outline" />
    </g>
    <g
       id="g6"
       inkscape:label="Style - Outline (Black)"
       style="display:none">
      <path
         style="color:#000000;display:inline;fill:#ffffff;fill-opacity:1;fill-rule:evenodd;stroke-width:0.109639;stroke-linejoin:round;-inkscape-stroke:none"
         d="m -135.83725,143.67495 c 0,0 -0.77054,1.35284 -1.04893,-7.27043 24.40263,-22.3841 47.342723,-13.05198 26.99457,14.41283 -0.42322,0.5712 -12.03372,2.17357 -14.96283,1.64773 -1.1646,-0.20908 -4.27144,-4.52089 -5.39289,-4.99448 -2.29584,-0.96963 -4.10406,-2.52295 -5.02327,-3.12539 -0.26739,-0.17527 -0.56665,-0.67026 -0.56665,-0.67026 z"
         sodipodi:nodetypes="ccssssc"
         inkscape:label="Symbol Steam Logo (Below)"
         inkscape:export-filename="C:\Users\AL200\Desktop\icon.png"
         inkscape:export-xdpi="0.57510161"
         inkscape:export-ydpi="0.57510161"
         id="path7" />
      <path
         d="m -117.14885,118.02108 c -10.4046,0 -18.92792,8.09581 -19.73733,18.38344 l 10.61542,4.42913 a 5.5316831,5.5316831 0 0 1 3.15512,-0.98332 c 0.10531,0 0.20941,0.003 0.31202,0.008 l 4.72131,-6.90611 v -0.0967 c 0,-4.15557 3.35036,-7.53727 7.46889,-7.53727 4.11832,0 7.46858,3.3817 7.46858,7.53727 0,4.15539 -3.35026,7.53847 -7.46858,7.53847 -0.0569,0 -0.11279,-9.3e-4 -0.16963,-0.003 l -6.73363,4.84663 c 0,0.09 0.009,0.17965 0.009,0.26799 0,3.1208 -2.51513,5.65896 -5.60613,5.65896 -2.71336,0 -4.98348,-1.9552 -5.49653,-4.5431 l -7.59284,-3.16807 c 2.35139,8.38943 9.98969,14.54005 19.05617,14.54005 10.93882,0 19.805565,-8.94936 19.805565,-19.98662 0,-11.03851 -8.866745,-19.98663 -19.805565,-19.98663 z m -7.3258,30.32634 -2.43265,-1.01452 c 0.43048,0.90623 1.17717,1.66435 2.16759,2.08063 2.14038,0.90052 4.60863,-0.12404 5.50082,-2.28591 a 4.2562695,4.2562695 0 0 0 0.009,-3.24917 c -0.42759,-1.04882 -1.23561,-1.86686 -2.27159,-2.30292 -1.03022,-0.43171 -2.1333,-0.41611 -3.10238,-0.047 l 2.51391,1.04881 c 1.57898,0.6642 2.32557,2.49383 1.66731,4.08713 -0.65695,1.59314 -2.47113,2.34709 -4.05009,1.68289 z m 18.83799,-15.49125 c 0,-2.76878 -2.23302,-5.02318 -4.9763,-5.02318 -2.7447,0 -4.9778,2.2544 -4.9778,5.02318 0,2.76894 2.2331,5.02196 4.9778,5.02196 2.74328,0 4.9763,-2.25302 4.9763,-5.02196 z m -8.70711,-0.008 c 0,-2.08341 1.67439,-3.77201 3.73797,-3.77201 2.0649,0 3.7393,1.6886 3.7393,3.77201 0,2.08344 -1.6744,3.7722 -3.73939,3.7722 -2.06349,0 -3.73807,-1.68876 -3.73807,-3.77204 z"
         fill="#1a1918"
         id="path8"
         style="display:inline;fill:#000000;fill-opacity:1;stroke:none;stroke-width:0.154464;stroke-opacity:1"
         inkscape:export-filename="C:\Users\AL200\Desktop\icon.png"
         inkscape:export-xdpi="0.57510161"
         inkscape:export-ydpi="0.57510161"
         inkscape:label="Symbol Steam Logo (Above)" />
      <path
         style="color:#000000;display:inline;fill:#ffffff;fill-opacity:1;stroke-linecap:round;stroke-linejoin:round;-inkscape-stroke:none"
         d="m -117.11328,115.24219 c -12.554,0 -22.76563,10.21163 -22.76563,22.76562 0,12.554 10.21163,22.76367 22.76563,22.76367 12.55399,0 22.763671,-10.20967 22.763671,-22.76367 0,-12.55399 -10.209681,-22.76562 -22.763671,-22.76562 z m 0,3.10156 c 10.87863,0 19.664061,8.78543 19.664061,19.66406 0,10.87864 -8.785431,19.66406 -19.664061,19.66406 -10.87863,0 -19.66406,-8.78542 -19.66406,-19.66406 0,-10.87863 8.78543,-19.66406 19.66406,-19.66406 z"
         id="path6"
         inkscape:label="Outline" />
    </g>
    <g
       id="g8"
       inkscape:label="Style - Transparent"
       style="display:inline;fill:#ffffff;fill-opacity:1">
      <path
         style="color:#000000;display:inline;fill:#808080;fill-opacity:0.501031;stroke-linecap:round;stroke-linejoin:round;-inkscape-stroke:none;paint-order:stroke markers fill"
         d="m -117.11328,115.24219 c -12.554,-10e-6 -22.76562,10.21163 -22.76563,22.76562 0,12.554 10.21163,22.76368 22.76563,22.76367 12.554,0 22.763674,-10.20967 22.763671,-22.76367 -3e-6,-12.55399 -10.209681,-22.76562 -22.763671,-22.76562 z m 0,3.10156 c 10.87863,0 19.664059,8.78543 19.664061,19.66406 3e-6,10.87864 -8.785431,19.66406 -19.664061,19.66406 -10.87864,10e-6 -19.66407,-8.78542 -19.66406,-19.66406 0,-10.87863 8.78543,-19.66406 19.66406,-19.66406 z"
         id="path9"
         inkscape:label="Outline" />
      <path
         style="color:#000000;display:inline;fill:#ffffff;fill-opacity:1;fill-rule:evenodd;stroke-width:0.117641;stroke-linejoin:round;-inkscape-stroke:none"
         d="m -137.20381,144.0886 c 0,0 -0.8268,1.45158 -1.1255,-7.80106 26.1837,-24.01784 50.798097,-14.00461 28.9648,15.46477 -0.4541,0.61289 -12.912,2.3322 -16.0549,1.76797 -1.2496,-0.22433 -4.5832,-4.85084 -5.7865,-5.35901 -2.4634,-1.04039 -4.4036,-2.70708 -5.3899,-3.35348 -0.2869,-0.18806 -0.608,-0.71919 -0.608,-0.71919 z"
         sodipodi:nodetypes="ccssssc"
         inkscape:label="Symbol Steam Logo (Below)"
         inkscape:export-filename="C:\Users\AL200\Desktop\icon.png"
         inkscape:export-xdpi="0.57510161"
         inkscape:export-ydpi="0.57510161"
         id="path7089" />
      <path
         d="m -117.15141,116.56236 c -11.164,0 -20.3094,8.68668 -21.1779,19.72518 l 11.3902,4.75238 a 5.935419,5.935419 0 0 1 3.3854,-1.05509 c 0.113,0 0.2247,0.003 0.3348,0.009 l 5.0659,-7.41016 v -0.10375 c 0,-4.45886 3.5949,-8.08737 8.014,-8.08737 4.4189,0 8.0137,3.62851 8.0137,8.08737 0,4.45869 -3.5948,8.08869 -8.0137,8.08869 -0.061,0 -0.121,-0.001 -0.182,-0.003 l -7.2251,5.20037 c 0,0.0965 0.01,0.19275 0.01,0.28755 0,3.34858 -2.6987,6.07199 -6.0153,6.07199 -2.9114,0 -5.3472,-2.09791 -5.8977,-4.87469 l -8.147,-3.39929 c 2.523,9.00174 10.7188,15.60127 20.447,15.60127 11.7372,0 21.251097,-9.60254 21.251097,-21.44537 0,-11.84416 -9.513897,-21.44538 -21.251097,-21.44538 z m -7.8605,32.53973 -2.6102,-1.08856 c 0.4619,0.97238 1.2631,1.78582 2.3258,2.23249 2.2966,0.96625 4.945,-0.13309 5.9023,-2.45276 a 4.566918,4.566918 0 0 0 0.01,-3.48631 c -0.4588,-1.12536 -1.3258,-2.00311 -2.4374,-2.47099 -1.1054,-0.46324 -2.289,-0.4465 -3.3288,-0.0504 l 2.6974,1.12536 c 1.6942,0.71268 2.4953,2.67585 1.789,4.38544 -0.7049,1.70942 -2.6515,2.51839 -4.3457,1.80571 z m 20.2129,-16.62189 c 0,-2.97086 -2.396,-5.38981 -5.3395,-5.38981 -2.945,0 -5.3411,2.41895 -5.3411,5.38981 0,2.97103 2.3961,5.38849 5.3411,5.38849 2.9435,0 5.3395,-2.41746 5.3395,-5.38849 z m -9.3426,-0.009 c 0,-2.23548 1.7966,-4.04733 4.0108,-4.04733 2.2156,0 4.0122,1.81185 4.0122,4.04733 0,2.23549 -1.7966,4.0475 -4.0123,4.0475 -2.2141,0 -4.0109,-1.81201 -4.0109,-4.04733 z"
         fill="#1a1918"
         id="path2"
         style="display:inline;fill:#808080;fill-opacity:1;stroke:none;stroke-width:0.165738;stroke-opacity:1"
         inkscape:export-filename="C:\Users\AL200\Desktop\icon.png"
         inkscape:export-xdpi="0.57510161"
         inkscape:export-ydpi="0.57510161"
         inkscape:label="Symbol Steam Logo (Above)" />
    </g>
  </g>
  <metadata
     id="metadata8">
    <rdf:RDF>
      <cc:Work
         rdf:about="">
        <cc:license
           rdf:resource="https://opensource.org/license/mit" />
      </cc:Work>
    </rdf:RDF>
  </metadata>
</svg>
