<?xml version="1.0" encoding="UTF-8" standalone="no"?>
<!-- Created with Inkscape (http://www.inkscape.org/) -->

<svg
   width="45.529301mm"
   height="45.529289mm"
   viewBox="0 0 45.529303 45.529285"
   version="1.1"
   id="svg1"
   sodipodi:docname="directinput-24.svg"
   inkscape:version="1.3.2 (091e20e, 2023-11-25, custom)"
   xmlns:inkscape="http://www.inkscape.org/namespaces/inkscape"
   xmlns:sodipodi="http://sodipodi.sourceforge.net/DTD/sodipodi-0.dtd"
   xmlns="http://www.w3.org/2000/svg"
   xmlns:svg="http://www.w3.org/2000/svg"
   xmlns:rdf="http://www.w3.org/1999/02/22-rdf-syntax-ns#"
   xmlns:cc="http://creativecommons.org/ns#">
  <sodipodi:namedview
     id="namedview1"
     pagecolor="#3e8d2e"
     bordercolor="#000000"
     borderopacity="0.25"
     inkscape:showpageshadow="true"
     inkscape:pageopacity="0.0"
     inkscape:pagecheckerboard="false"
     inkscape:deskcolor="#d1d1d1"
     inkscape:document-units="mm"
     inkscape:zoom="5.6568542"
     inkscape:cx="71.948115"
     inkscape:cy="95.371027"
     inkscape:window-width="2560"
     inkscape:window-height="1351"
     inkscape:window-x="-9"
     inkscape:window-y="-9"
     inkscape:window-maximized="1"
     inkscape:current-layer="svg1"
     labelstyle="default"
     showborder="true" />
  <defs
     id="defs1">
    <rect
       x="-329.58707"
       y="426.24316"
       width="115.7824"
       height="107.24387"
       id="rect2" />
    <rect
       x="-486.35437"
       y="484.30515"
       width="87.776039"
       height="93.582237"
       id="rect1" />
  </defs>
  <g
     inkscape:label="Button Prompt 24"
     id="layer1"
     transform="translate(139.87891,-115.24219)"
     style="display:inline">
    <g
       id="path1"
       inkscape:label="Style - Outline (White)"
       style="display:none">
      <path
         style="color:#000000;display:inline;fill:#ffffff;fill-opacity:1;stroke-linecap:round;stroke-linejoin:round;-inkscape-stroke:none"
         d="m -95.899378,138.00743 a 21.214285,21.214285 0 0 1 -21.214282,21.21429 21.214285,21.214285 0 0 1 -21.21429,-21.21429 21.214285,21.214285 0 0 1 21.21429,-21.21428 21.214285,21.214285 0 0 1 21.214282,21.21428 z"
         id="path3"
         inkscape:label="Circle" />
      <path
         style="color:#000000;display:inline;fill:#000000;fill-opacity:1;stroke-linecap:round;stroke-linejoin:round;-inkscape-stroke:none"
         d="m -117.11328,115.24219 c -12.554,0 -22.76563,10.21163 -22.76563,22.76562 0,12.554 10.21163,22.76367 22.76563,22.76367 12.55399,0 22.763671,-10.20967 22.763671,-22.76367 0,-12.55399 -10.209681,-22.76562 -22.763671,-22.76562 z m 0,3.10156 c 10.87863,0 19.664061,8.78543 19.664061,19.66406 0,10.87864 -8.785431,19.66406 -19.664061,19.66406 -10.87863,0 -19.66406,-8.78542 -19.66406,-19.66406 0,-10.87863 8.78543,-19.66406 19.66406,-19.66406 z"
         id="path4"
         inkscape:label="Outline" />
      <path
         d="M 21.495696,32.70013 H 8.4449044 v -2.117068 l 5.1586806,-5.239076 q 1.473908,-1.487308 2.438649,-2.599439 0.978139,-1.12553 1.473908,-2.170665 0.49577,-1.058535 0.49577,-2.304657 0,-1.527506 -0.897745,-2.331456 -0.897744,-0.80395 -2.385052,-0.80395 -1.339917,0 -2.42525,0.495769 -1.071933,0.48237 -2.224262,1.393514 L 8.6324928,15.227613 q 0.790551,-0.669958 1.7150942,-1.205925 0.924542,-0.549366 2.023274,-0.870946 1.098732,-0.32158 2.438649,-0.32158 1.835686,0 3.162204,0.64316 1.339917,0.64316 2.063472,1.822287 0.723555,1.179127 0.723555,2.760229 0,1.567703 -0.629761,2.90762 -0.616361,1.326518 -1.755291,2.639636 -1.138929,1.313119 -2.693233,2.800427 l -3.818763,3.778566 v 0.120592 h 9.634003 z m 15.962877,-4.421726 h -2.787027 v 4.421726 h -2.639637 v -4.421726 h -9.19183 v -2.130468 l 9.138234,-13.117787 h 2.693233 v 12.930199 h 2.787027 z m -5.426664,-2.318056 v -5.627651 q 0,-0.669959 0.0134,-1.272921 0.0134,-0.616362 0.0402,-1.165728 0.0268,-0.549366 0.0536,-1.018337 0.0268,-0.48237 0.0402,-0.870946 h -0.107193 q -0.254584,0.535967 -0.576164,1.112131 -0.308181,0.576164 -0.65656,1.071934 l -5.426664,7.771518 z"
         id="path30"
         style="font-weight:500;font-size:27.4415px;line-height:0;font-family:'open sans';-inkscape-font-specification:'open sans Medium';letter-spacing:-0.571698px;word-spacing:0px;display:inline;fill:#000000;stroke-width:4.3215;stroke-linecap:round;stroke-linejoin:round;stroke-opacity:0.501961"
         aria-label="24"
         inkscape:label="Symbol 24"
         transform="translate(-139.87891,115.24219)" />
    </g>
    <g
       id="g6"
       inkscape:label="Style - Outline (Black)"
       style="display:none">
      <path
         style="color:#000000;display:inline;fill:#000000;fill-opacity:1;stroke-linecap:round;stroke-linejoin:round;-inkscape-stroke:none"
         d="m -95.899378,138.00743 a 21.214285,21.214285 0 0 1 -21.214282,21.21429 21.214285,21.214285 0 0 1 -21.21429,-21.21429 21.214285,21.214285 0 0 1 21.21429,-21.21428 21.214285,21.214285 0 0 1 21.214282,21.21428 z"
         id="path5"
         inkscape:label="Circle" />
      <path
         style="color:#000000;display:inline;fill:#ffffff;fill-opacity:1;stroke-linecap:round;stroke-linejoin:round;-inkscape-stroke:none"
         d="m -117.11328,115.24219 c -12.554,0 -22.76563,10.21163 -22.76563,22.76562 0,12.554 10.21163,22.76367 22.76563,22.76367 12.55399,0 22.763671,-10.20967 22.763671,-22.76367 0,-12.55399 -10.209681,-22.76562 -22.763671,-22.76562 z m 0,3.10156 c 10.87863,0 19.664061,8.78543 19.664061,19.66406 0,10.87864 -8.785431,19.66406 -19.664061,19.66406 -10.87863,0 -19.66406,-8.78542 -19.66406,-19.66406 0,-10.87863 8.78543,-19.66406 19.66406,-19.66406 z"
         id="path6"
         inkscape:label="Outline" />
      <path
         d="M 21.495696,32.70013 H 8.4449044 v -2.117068 l 5.1586806,-5.239076 q 1.473908,-1.487308 2.438649,-2.599439 0.978139,-1.12553 1.473908,-2.170665 0.49577,-1.058535 0.49577,-2.304657 0,-1.527506 -0.897745,-2.331456 -0.897744,-0.80395 -2.385052,-0.80395 -1.339917,0 -2.42525,0.495769 -1.071933,0.48237 -2.224262,1.393514 L 8.6324928,15.227613 q 0.790551,-0.669958 1.7150942,-1.205925 0.924542,-0.549366 2.023274,-0.870946 1.098732,-0.32158 2.438649,-0.32158 1.835686,0 3.162204,0.64316 1.339917,0.64316 2.063472,1.822287 0.723555,1.179127 0.723555,2.760229 0,1.567703 -0.629761,2.90762 -0.616361,1.326518 -1.755291,2.639636 -1.138929,1.313119 -2.693233,2.800427 l -3.818763,3.778566 v 0.120592 h 9.634003 z m 15.962877,-4.421726 h -2.787027 v 4.421726 h -2.639637 v -4.421726 h -9.19183 v -2.130468 l 9.138234,-13.117787 h 2.693233 v 12.930199 h 2.787027 z m -5.426664,-2.318056 v -5.627651 q 0,-0.669959 0.0134,-1.272921 0.0134,-0.616362 0.0402,-1.165728 0.0268,-0.549366 0.0536,-1.018337 0.0268,-0.48237 0.0402,-0.870946 h -0.107193 q -0.254584,0.535967 -0.576164,1.112131 -0.308181,0.576164 -0.65656,1.071934 l -5.426664,7.771518 z"
         id="path31"
         style="font-weight:500;font-size:27.4415px;line-height:0;font-family:'open sans';-inkscape-font-specification:'open sans Medium';letter-spacing:-0.571698px;word-spacing:0px;fill:#ffffff;stroke-width:4.3215;stroke-linecap:round;stroke-linejoin:round;stroke-opacity:0.501961"
         aria-label="24"
         inkscape:label="Symbol 24"
         transform="translate(-139.87891,115.24219)" />
    </g>
    <g
       id="g8"
       inkscape:label="Style - Transparent"
       style="display:inline;fill:#ffffff;fill-opacity:1">
      <path
         style="color:#000000;display:inline;fill:#808080;fill-opacity:0.501031;stroke-linecap:round;stroke-linejoin:round;-inkscape-stroke:none;paint-order:stroke markers fill"
         d="m -117.11328,115.24219 c -12.554,-10e-6 -22.76562,10.21163 -22.76563,22.76562 0,12.554 10.21163,22.76368 22.76563,22.76367 12.554,0 22.763674,-10.20967 22.763671,-22.76367 -3e-6,-12.55399 -10.209681,-22.76562 -22.763671,-22.76562 z m 0,3.10156 c 10.87863,0 19.664059,8.78543 19.664061,19.66406 3e-6,10.87864 -8.785431,19.66406 -19.664061,19.66406 -10.87864,10e-6 -19.66407,-8.78542 -19.66406,-19.66406 0,-10.87863 8.78543,-19.66406 19.66406,-19.66406 z"
         id="path9"
         inkscape:label="Outline" />
      <path
         style="color:#000000;display:inline;stroke-linecap:round;stroke-linejoin:round;-inkscape-stroke:none;paint-order:stroke markers fill"
         d="m -95.899378,138.00743 a 21.214285,21.214285 0 0 1 -21.214282,21.21429 21.214285,21.214285 0 0 1 -21.21429,-21.21429 21.214285,21.214285 0 0 1 21.21429,-21.21428 21.214285,21.214285 0 0 1 21.214282,21.21428 z"
         id="path10"
         inkscape:label="Circle" />
      <path
         d="M 21.495696,32.70013 H 8.4449044 v -2.117068 l 5.1586806,-5.239076 q 1.473908,-1.487308 2.438649,-2.599439 0.978139,-1.12553 1.473908,-2.170665 0.49577,-1.058535 0.49577,-2.304657 0,-1.527506 -0.897745,-2.331456 -0.897744,-0.80395 -2.385052,-0.80395 -1.339917,0 -2.42525,0.495769 -1.071933,0.48237 -2.224262,1.393514 L 8.6324928,15.227613 q 0.790551,-0.669958 1.7150942,-1.205925 0.924542,-0.549366 2.023274,-0.870946 1.098732,-0.32158 2.438649,-0.32158 1.835686,0 3.162204,0.64316 1.339917,0.64316 2.063472,1.822287 0.723555,1.179127 0.723555,2.760229 0,1.567703 -0.629761,2.90762 -0.616361,1.326518 -1.755291,2.639636 -1.138929,1.313119 -2.693233,2.800427 l -3.818763,3.778566 v 0.120592 h 9.634003 z m 15.962877,-4.421726 h -2.787027 v 4.421726 h -2.639637 v -4.421726 h -9.19183 v -2.130468 l 9.138234,-13.117787 h 2.693233 v 12.930199 h 2.787027 z m -5.426664,-2.318056 v -5.627651 q 0,-0.669959 0.0134,-1.272921 0.0134,-0.616362 0.0402,-1.165728 0.0268,-0.549366 0.0536,-1.018337 0.0268,-0.48237 0.0402,-0.870946 h -0.107193 q -0.254584,0.535967 -0.576164,1.112131 -0.308181,0.576164 -0.65656,1.071934 l -5.426664,7.771518 z"
         id="text30"
         style="font-weight:500;font-size:27.4415px;line-height:0;font-family:'open sans';-inkscape-font-specification:'open sans Medium';letter-spacing:-0.571698px;word-spacing:0px;fill:#808080;stroke-width:4.3215;stroke-linecap:round;stroke-linejoin:round;stroke-opacity:0.501961"
         aria-label="24"
         inkscape:label="Symbol 24"
         transform="translate(-139.87891,115.24219)" />
    </g>
  </g>
  <metadata
     id="metadata8">
    <rdf:RDF>
      <cc:Work
         rdf:about="">
        <cc:license
           rdf:resource="https://opensource.org/license/mit" />
      </cc:Work>
    </rdf:RDF>
  </metadata>
</svg>
