<?xml version="1.0" encoding="UTF-8" standalone="no"?>
<!-- Created with Inkscape (http://www.inkscape.org/) -->

<svg
   width="45.529301mm"
   height="45.529289mm"
   viewBox="0 0 45.529303 45.529285"
   version="1.1"
   id="svg1"
   sodipodi:docname="directinput-20.svg"
   inkscape:version="1.3.2 (091e20e, 2023-11-25, custom)"
   xmlns:inkscape="http://www.inkscape.org/namespaces/inkscape"
   xmlns:sodipodi="http://sodipodi.sourceforge.net/DTD/sodipodi-0.dtd"
   xmlns="http://www.w3.org/2000/svg"
   xmlns:svg="http://www.w3.org/2000/svg"
   xmlns:rdf="http://www.w3.org/1999/02/22-rdf-syntax-ns#"
   xmlns:cc="http://creativecommons.org/ns#">
  <sodipodi:namedview
     id="namedview1"
     pagecolor="#3e8d2e"
     bordercolor="#000000"
     borderopacity="0.25"
     inkscape:showpageshadow="true"
     inkscape:pageopacity="0.0"
     inkscape:pagecheckerboard="false"
     inkscape:deskcolor="#d1d1d1"
     inkscape:document-units="mm"
     inkscape:zoom="5.6568542"
     inkscape:cx="89.979339"
     inkscape:cy="78.842407"
     inkscape:window-width="2560"
     inkscape:window-height="1344"
     inkscape:window-x="-9"
     inkscape:window-y="-9"
     inkscape:window-maximized="1"
     inkscape:current-layer="layer1"
     labelstyle="default"
     showborder="true" />
  <defs
     id="defs1">
    <rect
       x="-329.58707"
       y="426.24316"
       width="115.7824"
       height="107.24387"
       id="rect2" />
    <rect
       x="-486.35437"
       y="484.30515"
       width="87.776039"
       height="93.582237"
       id="rect1" />
  </defs>
  <g
     inkscape:label="Button Prompt 20"
     id="layer1"
     transform="translate(139.87891,-115.24219)"
     style="display:inline">
    <g
       id="path1"
       inkscape:label="Style - Outline (White)"
       style="display:none">
      <path
         style="color:#000000;display:inline;fill:#ffffff;fill-opacity:1;stroke-linecap:round;stroke-linejoin:round;-inkscape-stroke:none"
         d="m -95.899378,138.00743 a 21.214285,21.214285 0 0 1 -21.214282,21.21429 21.214285,21.214285 0 0 1 -21.21429,-21.21429 21.214285,21.214285 0 0 1 21.21429,-21.21428 21.214285,21.214285 0 0 1 21.214282,21.21428 z"
         id="path3"
         inkscape:label="Circle" />
      <path
         style="color:#000000;display:inline;fill:#000000;fill-opacity:1;stroke-linecap:round;stroke-linejoin:round;-inkscape-stroke:none"
         d="m -117.11328,115.24219 c -12.554,0 -22.76563,10.21163 -22.76563,22.76562 0,12.554 10.21163,22.76367 22.76563,22.76367 12.55399,0 22.763671,-10.20967 22.763671,-22.76367 0,-12.55399 -10.209681,-22.76562 -22.763671,-22.76562 z m 0,3.10156 c 10.87863,0 19.664061,8.78543 19.664061,19.66406 0,10.87864 -8.785431,19.66406 -19.664061,19.66406 -10.87863,0 -19.66406,-8.78542 -19.66406,-19.66406 0,-10.87863 8.78543,-19.66406 19.66406,-19.66406 z"
         id="path4"
         inkscape:label="Outline" />
      <path
         d="M 21.803869,32.436077 H 8.943835 v -2.086124 l 5.083278,-5.162499 q 1.452365,-1.465568 2.403004,-2.561444 0.963843,-1.109079 1.452366,-2.138938 0.488523,-1.043062 0.488523,-2.270971 0,-1.505178 -0.884623,-2.297377 -0.884622,-0.7922 -2.350191,-0.7922 -1.320332,0 -2.389801,0.488523 -1.056265,0.47532 -2.191751,1.373146 L 9.1286815,15.218948 q 0.7789959,-0.660166 1.6900245,-1.188299 0.91103,-0.541336 1.993702,-0.858216 1.082672,-0.31688 2.403004,-0.31688 1.808855,0 3.115984,0.63376 1.320332,0.633759 2.033311,1.795651 0.712979,1.161892 0.712979,2.719884 0,1.544789 -0.620556,2.865121 -0.607353,1.307128 -1.729635,2.601054 -1.122282,1.293925 -2.653867,2.759494 l -3.762946,3.723336 v 0.11883 h 9.493187 z m 15.249319,-9.678034 q 0,2.350191 -0.35649,4.198656 -0.35649,1.848465 -1.135486,3.129187 -0.765792,1.280722 -2.006904,1.954092 -1.227909,0.660166 -2.970747,0.660166 -2.191751,0 -3.61771,-1.175096 -1.425959,-1.175095 -2.125734,-3.393253 -0.699776,-2.231361 -0.699776,-5.373752 0,-3.089576 0.633759,-5.307734 0.633759,-2.231361 2.046515,-3.41966 1.425958,-1.201502 3.762946,-1.201502 2.218158,0 3.644116,1.188299 1.439162,1.175095 2.125735,3.406456 0.699776,2.218158 0.699776,5.334141 z m -10.245777,0 q 0,2.574648 0.369693,4.29108 0.369693,1.716431 1.201502,2.574647 0.831809,0.845012 2.204955,0.845012 1.373145,0 2.204954,-0.845012 0.845013,-0.845013 1.214706,-2.561444 0.369693,-1.716432 0.369693,-4.304283 0,-2.535037 -0.369693,-4.238265 -0.369693,-1.716432 -1.201502,-2.574648 -0.818606,-0.871419 -2.218158,-0.871419 -1.399552,0 -2.231361,0.871419 -0.818606,0.858216 -1.188299,2.574648 -0.35649,1.703228 -0.35649,4.238265 z"
         id="text27"
         style="font-weight:500;font-size:27.0404px;line-height:0;font-family:'open sans';-inkscape-font-specification:'open sans Medium';letter-spacing:-0.264583px;word-spacing:0px;stroke-width:4.25833;stroke-linecap:round;stroke-linejoin:round;stroke-opacity:0.501961"
         inkscape:label="Symbol 20"
         transform="translate(-139.87891,115.24219)"
         aria-label="20" />
    </g>
    <g
       id="g6"
       inkscape:label="Style - Outline (Black)"
       style="display:none">
      <path
         style="color:#000000;display:inline;fill:#000000;fill-opacity:1;stroke-linecap:round;stroke-linejoin:round;-inkscape-stroke:none"
         d="m -95.899378,138.00743 a 21.214285,21.214285 0 0 1 -21.214282,21.21429 21.214285,21.214285 0 0 1 -21.21429,-21.21429 21.214285,21.214285 0 0 1 21.21429,-21.21428 21.214285,21.214285 0 0 1 21.214282,21.21428 z"
         id="path5"
         inkscape:label="Circle" />
      <path
         style="color:#000000;display:inline;fill:#ffffff;fill-opacity:1;stroke-linecap:round;stroke-linejoin:round;-inkscape-stroke:none"
         d="m -117.11328,115.24219 c -12.554,0 -22.76563,10.21163 -22.76563,22.76562 0,12.554 10.21163,22.76367 22.76563,22.76367 12.55399,0 22.763671,-10.20967 22.763671,-22.76367 0,-12.55399 -10.209681,-22.76562 -22.763671,-22.76562 z m 0,3.10156 c 10.87863,0 19.664061,8.78543 19.664061,19.66406 0,10.87864 -8.785431,19.66406 -19.664061,19.66406 -10.87863,0 -19.66406,-8.78542 -19.66406,-19.66406 0,-10.87863 8.78543,-19.66406 19.66406,-19.66406 z"
         id="path6"
         inkscape:label="Outline" />
      <path
         d="M 21.803869,32.436077 H 8.943835 v -2.086124 l 5.083278,-5.162499 q 1.452365,-1.465568 2.403004,-2.561444 0.963843,-1.109079 1.452366,-2.138938 0.488523,-1.043062 0.488523,-2.270971 0,-1.505178 -0.884623,-2.297377 -0.884622,-0.7922 -2.350191,-0.7922 -1.320332,0 -2.389801,0.488523 -1.056265,0.47532 -2.191751,1.373146 L 9.1286815,15.218948 q 0.7789959,-0.660166 1.6900245,-1.188299 0.91103,-0.541336 1.993702,-0.858216 1.082672,-0.31688 2.403004,-0.31688 1.808855,0 3.115984,0.63376 1.320332,0.633759 2.033311,1.795651 0.712979,1.161892 0.712979,2.719884 0,1.544789 -0.620556,2.865121 -0.607353,1.307128 -1.729635,2.601054 -1.122282,1.293925 -2.653867,2.759494 l -3.762946,3.723336 v 0.11883 h 9.493187 z m 15.249319,-9.678034 q 0,2.350191 -0.35649,4.198656 -0.35649,1.848465 -1.135486,3.129187 -0.765792,1.280722 -2.006904,1.954092 -1.227909,0.660166 -2.970747,0.660166 -2.191751,0 -3.61771,-1.175096 -1.425959,-1.175095 -2.125734,-3.393253 -0.699776,-2.231361 -0.699776,-5.373752 0,-3.089576 0.633759,-5.307734 0.633759,-2.231361 2.046515,-3.41966 1.425958,-1.201502 3.762946,-1.201502 2.218158,0 3.644116,1.188299 1.439162,1.175095 2.125735,3.406456 0.699776,2.218158 0.699776,5.334141 z m -10.245777,0 q 0,2.574648 0.369693,4.29108 0.369693,1.716431 1.201502,2.574647 0.831809,0.845012 2.204955,0.845012 1.373145,0 2.204954,-0.845012 0.845013,-0.845013 1.214706,-2.561444 0.369693,-1.716432 0.369693,-4.304283 0,-2.535037 -0.369693,-4.238265 -0.369693,-1.716432 -1.201502,-2.574648 -0.818606,-0.871419 -2.218158,-0.871419 -1.399552,0 -2.231361,0.871419 -0.818606,0.858216 -1.188299,2.574648 -0.35649,1.703228 -0.35649,4.238265 z"
         id="text26"
         style="font-weight:500;font-size:27.0404px;line-height:0;font-family:'open sans';-inkscape-font-specification:'open sans Medium';letter-spacing:-0.264583px;word-spacing:0px;fill:#ffffff;stroke-width:4.25833;stroke-linecap:round;stroke-linejoin:round;stroke-opacity:0.501961"
         inkscape:label="Symbol 20"
         transform="translate(-139.87891,115.24219)"
         aria-label="20" />
    </g>
    <g
       id="g8"
       inkscape:label="Style - Transparent"
       style="display:inline;fill:#ffffff;fill-opacity:1">
      <path
         style="color:#000000;display:inline;fill:#808080;fill-opacity:0.501031;stroke-linecap:round;stroke-linejoin:round;-inkscape-stroke:none;paint-order:stroke markers fill"
         d="m -117.11328,115.24219 c -12.554,-10e-6 -22.76562,10.21163 -22.76563,22.76562 0,12.554 10.21163,22.76368 22.76563,22.76367 12.554,0 22.763674,-10.20967 22.763671,-22.76367 -3e-6,-12.55399 -10.209681,-22.76562 -22.763671,-22.76562 z m 0,3.10156 c 10.87863,0 19.664059,8.78543 19.664061,19.66406 3e-6,10.87864 -8.785431,19.66406 -19.664061,19.66406 -10.87864,10e-6 -19.66407,-8.78542 -19.66406,-19.66406 0,-10.87863 8.78543,-19.66406 19.66406,-19.66406 z"
         id="path9"
         inkscape:label="Outline" />
      <path
         style="color:#000000;display:inline;stroke-linecap:round;stroke-linejoin:round;-inkscape-stroke:none;paint-order:stroke markers fill"
         d="m -95.899378,138.00743 a 21.214285,21.214285 0 0 1 -21.214282,21.21429 21.214285,21.214285 0 0 1 -21.21429,-21.21429 21.214285,21.214285 0 0 1 21.21429,-21.21428 21.214285,21.214285 0 0 1 21.214282,21.21428 z"
         id="path10"
         inkscape:label="Circle" />
      <path
         d="M 21.803869,32.436077 H 8.943835 v -2.086124 l 5.083278,-5.162499 q 1.452365,-1.465568 2.403004,-2.561444 0.963843,-1.109079 1.452366,-2.138938 0.488523,-1.043062 0.488523,-2.270971 0,-1.505178 -0.884623,-2.297377 -0.884622,-0.7922 -2.350191,-0.7922 -1.320332,0 -2.389801,0.488523 -1.056265,0.47532 -2.191751,1.373146 L 9.1286815,15.218948 q 0.7789959,-0.660166 1.6900245,-1.188299 0.91103,-0.541336 1.993702,-0.858216 1.082672,-0.31688 2.403004,-0.31688 1.808855,0 3.115984,0.63376 1.320332,0.633759 2.033311,1.795651 0.712979,1.161892 0.712979,2.719884 0,1.544789 -0.620556,2.865121 -0.607353,1.307128 -1.729635,2.601054 -1.122282,1.293925 -2.653867,2.759494 l -3.762946,3.723336 v 0.11883 h 9.493187 z m 15.249319,-9.678034 q 0,2.350191 -0.35649,4.198656 -0.35649,1.848465 -1.135486,3.129187 -0.765792,1.280722 -2.006904,1.954092 -1.227909,0.660166 -2.970747,0.660166 -2.191751,0 -3.61771,-1.175096 -1.425959,-1.175095 -2.125734,-3.393253 -0.699776,-2.231361 -0.699776,-5.373752 0,-3.089576 0.633759,-5.307734 0.633759,-2.231361 2.046515,-3.41966 1.425958,-1.201502 3.762946,-1.201502 2.218158,0 3.644116,1.188299 1.439162,1.175095 2.125735,3.406456 0.699776,2.218158 0.699776,5.334141 z m -10.245777,0 q 0,2.574648 0.369693,4.29108 0.369693,1.716431 1.201502,2.574647 0.831809,0.845012 2.204955,0.845012 1.373145,0 2.204954,-0.845012 0.845013,-0.845013 1.214706,-2.561444 0.369693,-1.716432 0.369693,-4.304283 0,-2.535037 -0.369693,-4.238265 -0.369693,-1.716432 -1.201502,-2.574648 -0.818606,-0.871419 -2.218158,-0.871419 -1.399552,0 -2.231361,0.871419 -0.818606,0.858216 -1.188299,2.574648 -0.35649,1.703228 -0.35649,4.238265 z"
         id="text25"
         style="font-weight:500;font-size:27.0404px;line-height:0;font-family:'open sans';-inkscape-font-specification:'open sans Medium';letter-spacing:-0.264583px;word-spacing:0px;fill:#808080;stroke-width:4.25833;stroke-linecap:round;stroke-linejoin:round;stroke-opacity:0.501961"
         inkscape:label="Symbol 20"
         transform="translate(-139.87891,115.24219)"
         aria-label="20" />
    </g>
  </g>
  <metadata
     id="metadata8">
    <rdf:RDF>
      <cc:Work
         rdf:about="">
        <cc:license
           rdf:resource="https://opensource.org/license/mit" />
      </cc:Work>
    </rdf:RDF>
  </metadata>
</svg>
