<?xml version="1.0" encoding="UTF-8" standalone="no"?>
<!-- Created with Inkscape (http://www.inkscape.org/) -->

<svg
   width="45.529301mm"
   height="45.529289mm"
   viewBox="0 0 45.529303 45.529285"
   version="1.1"
   id="svg1"
   sodipodi:docname="directinput-13.svg"
   inkscape:version="1.3.2 (091e20e, 2023-11-25, custom)"
   xmlns:inkscape="http://www.inkscape.org/namespaces/inkscape"
   xmlns:sodipodi="http://sodipodi.sourceforge.net/DTD/sodipodi-0.dtd"
   xmlns="http://www.w3.org/2000/svg"
   xmlns:svg="http://www.w3.org/2000/svg"
   xmlns:rdf="http://www.w3.org/1999/02/22-rdf-syntax-ns#"
   xmlns:cc="http://creativecommons.org/ns#">
  <sodipodi:namedview
     id="namedview1"
     pagecolor="#3e8d2e"
     bordercolor="#000000"
     borderopacity="0.25"
     inkscape:showpageshadow="true"
     inkscape:pageopacity="0.0"
     inkscape:pagecheckerboard="false"
     inkscape:deskcolor="#d1d1d1"
     inkscape:document-units="mm"
     inkscape:zoom="4"
     inkscape:cx="91"
     inkscape:cy="105.125"
     inkscape:window-width="2560"
     inkscape:window-height="1351"
     inkscape:window-x="-9"
     inkscape:window-y="-9"
     inkscape:window-maximized="1"
     inkscape:current-layer="svg1"
     labelstyle="default"
     showborder="true" />
  <defs
     id="defs1">
    <rect
       x="-329.58707"
       y="426.24316"
       width="115.7824"
       height="107.24387"
       id="rect2" />
    <rect
       x="-486.35437"
       y="484.30515"
       width="87.776039"
       height="93.582237"
       id="rect1" />
  </defs>
  <g
     inkscape:label="Button Prompt 13"
     id="layer1"
     transform="translate(139.87891,-115.24219)"
     style="display:inline">
    <g
       id="path1"
       inkscape:label="Style - Outline (White)"
       style="display:none">
      <path
         style="color:#000000;display:inline;fill:#ffffff;fill-opacity:1;stroke-linecap:round;stroke-linejoin:round;-inkscape-stroke:none"
         d="m -95.899378,138.00743 a 21.214285,21.214285 0 0 1 -21.214282,21.21429 21.214285,21.214285 0 0 1 -21.21429,-21.21429 21.214285,21.214285 0 0 1 21.21429,-21.21428 21.214285,21.214285 0 0 1 21.214282,21.21428 z"
         id="path3"
         inkscape:label="Circle" />
      <path
         style="color:#000000;display:inline;fill:#000000;fill-opacity:1;stroke-linecap:round;stroke-linejoin:round;-inkscape-stroke:none"
         d="m -117.11328,115.24219 c -12.554,0 -22.76563,10.21163 -22.76563,22.76562 0,12.554 10.21163,22.76367 22.76563,22.76367 12.55399,0 22.763671,-10.20967 22.763671,-22.76367 0,-12.55399 -10.209681,-22.76562 -22.763671,-22.76562 z m 0,3.10156 c 10.87863,0 19.664061,8.78543 19.664061,19.66406 0,10.87864 -8.785431,19.66406 -19.664061,19.66406 -10.87863,0 -19.66406,-8.78542 -19.66406,-19.66406 0,-10.87863 8.78543,-19.66406 19.66406,-19.66406 z"
         id="path4"
         inkscape:label="Outline" />
      <path
         d="m -122.33661,147.67792 h -2.63096 v -13.07547 q 0,-0.70071 0,-1.28243 0.0132,-0.59494 0.0397,-1.12378 0.0264,-0.54205 0.0529,-1.04445 -0.34374,0.35697 -0.72715,0.68749 -0.37019,0.3173 -0.85936,0.72715 l -2.20789,1.78482 -1.36175,-1.74516 5.48667,-4.25713 h 2.20789 z m 17.29294,-14.87351 q 0,1.30887 -0.51561,2.27399 -0.51562,0.95191 -1.42786,1.56007 -0.91224,0.60816 -2.11534,0.85936 v 0.0925 q 2.30043,0.29086 3.46387,1.46752 1.17666,1.17666 1.17666,3.10691 0,1.67906 -0.79325,2.98793 -0.79326,1.30886 -2.44587,2.04924 -1.63939,0.74037 -4.21747,0.74037 -1.54684,0 -2.86893,-0.2512 -1.32209,-0.2512 -2.51197,-0.80648 v -2.41942 q 1.2031,0.60816 2.60452,0.9519 1.40141,0.33053 2.69706,0.33053 2.52519,0 3.62253,-0.97835 1.11055,-0.97835 1.11055,-2.69706 0,-1.137 -0.59494,-1.85093 -0.59494,-0.72715 -1.7716,-1.07089 -1.16344,-0.34375 -2.9086,-0.34375 h -1.81126 v -2.19466 h 1.8377 q 1.62617,0 2.67063,-0.42307 1.05767,-0.43629 1.57328,-1.21633 0.51562,-0.78003 0.51562,-1.82448 0,-1.36175 -0.89902,-2.10212 -0.8858,-0.75359 -2.51197,-0.75359 -1.00479,0 -1.83771,0.22475 -0.81969,0.21154 -1.53362,0.5685 -0.70071,0.35696 -1.36176,0.80647 l -1.30886,-1.8377 q 1.07089,-0.8197 2.59129,-1.40142 1.53363,-0.58172 3.50354,-0.58172 2.9747,0 4.52155,1.30887 1.54684,1.30887 1.54684,3.42422 z"
         id="text17"
         style="font-weight:500;font-size:27.0764px;line-height:0;font-family:'open sans';-inkscape-font-specification:'open sans Medium';letter-spacing:-1.69227px;word-spacing:0px;display:inline;fill:#000000;fill-opacity:1;stroke-width:4.264;stroke-linecap:round;stroke-linejoin:round;stroke-opacity:0.501961"
         inkscape:label="Symbol 13"
         aria-label="13"
         transform="translate(1.2499999e-6)" />
    </g>
    <g
       id="g6"
       inkscape:label="Style - Outline (Black)"
       style="display:none">
      <path
         style="color:#000000;display:inline;fill:#000000;fill-opacity:1;stroke-linecap:round;stroke-linejoin:round;-inkscape-stroke:none"
         d="m -95.899378,138.00743 a 21.214285,21.214285 0 0 1 -21.214282,21.21429 21.214285,21.214285 0 0 1 -21.21429,-21.21429 21.214285,21.214285 0 0 1 21.21429,-21.21428 21.214285,21.214285 0 0 1 21.214282,21.21428 z"
         id="path5"
         inkscape:label="Circle" />
      <path
         style="color:#000000;display:inline;fill:#ffffff;fill-opacity:1;stroke-linecap:round;stroke-linejoin:round;-inkscape-stroke:none"
         d="m -117.11328,115.24219 c -12.554,0 -22.76563,10.21163 -22.76563,22.76562 0,12.554 10.21163,22.76367 22.76563,22.76367 12.55399,0 22.763671,-10.20967 22.763671,-22.76367 0,-12.55399 -10.209681,-22.76562 -22.763671,-22.76562 z m 0,3.10156 c 10.87863,0 19.664061,8.78543 19.664061,19.66406 0,10.87864 -8.785431,19.66406 -19.664061,19.66406 -10.87863,0 -19.66406,-8.78542 -19.66406,-19.66406 0,-10.87863 8.78543,-19.66406 19.66406,-19.66406 z"
         id="path6"
         inkscape:label="Outline" />
      <path
         d="m -122.33661,147.67792 h -2.63096 v -13.07547 q 0,-0.70071 0,-1.28243 0.0132,-0.59494 0.0397,-1.12378 0.0264,-0.54205 0.0529,-1.04445 -0.34374,0.35697 -0.72715,0.68749 -0.37019,0.3173 -0.85936,0.72715 l -2.20789,1.78482 -1.36175,-1.74516 5.48667,-4.25713 h 2.20789 z m 17.29294,-14.87351 q 0,1.30887 -0.51561,2.27399 -0.51562,0.95191 -1.42786,1.56007 -0.91224,0.60816 -2.11534,0.85936 v 0.0925 q 2.30043,0.29086 3.46387,1.46752 1.17666,1.17666 1.17666,3.10691 0,1.67906 -0.79325,2.98793 -0.79326,1.30886 -2.44587,2.04924 -1.63939,0.74037 -4.21747,0.74037 -1.54684,0 -2.86893,-0.2512 -1.32209,-0.2512 -2.51197,-0.80648 v -2.41942 q 1.2031,0.60816 2.60452,0.9519 1.40141,0.33053 2.69706,0.33053 2.52519,0 3.62253,-0.97835 1.11055,-0.97835 1.11055,-2.69706 0,-1.137 -0.59494,-1.85093 -0.59494,-0.72715 -1.7716,-1.07089 -1.16344,-0.34375 -2.9086,-0.34375 h -1.81126 v -2.19466 h 1.8377 q 1.62617,0 2.67063,-0.42307 1.05767,-0.43629 1.57328,-1.21633 0.51562,-0.78003 0.51562,-1.82448 0,-1.36175 -0.89902,-2.10212 -0.8858,-0.75359 -2.51197,-0.75359 -1.00479,0 -1.83771,0.22475 -0.81969,0.21154 -1.53362,0.5685 -0.70071,0.35696 -1.36176,0.80647 l -1.30886,-1.8377 q 1.07089,-0.8197 2.59129,-1.40142 1.53363,-0.58172 3.50354,-0.58172 2.9747,0 4.52155,1.30887 1.54684,1.30887 1.54684,3.42422 z"
         id="path18"
         style="font-weight:500;font-size:27.0764px;line-height:0;font-family:'open sans';-inkscape-font-specification:'open sans Medium';letter-spacing:-1.69227px;word-spacing:0px;display:inline;fill:#ffffff;fill-opacity:1;stroke-width:4.264;stroke-linecap:round;stroke-linejoin:round;stroke-opacity:0.501961"
         inkscape:label="Symbol 13"
         aria-label="13"
         transform="translate(1.2499999e-6)" />
    </g>
    <g
       id="g8"
       inkscape:label="Style - Transparent"
       style="display:inline;fill:#ffffff;fill-opacity:1">
      <path
         style="color:#000000;display:inline;fill:#808080;fill-opacity:0.501031;stroke-linecap:round;stroke-linejoin:round;-inkscape-stroke:none;paint-order:stroke markers fill"
         d="m -117.11328,115.24219 c -12.554,-10e-6 -22.76562,10.21163 -22.76563,22.76562 0,12.554 10.21163,22.76368 22.76563,22.76367 12.554,0 22.763674,-10.20967 22.763671,-22.76367 -3e-6,-12.55399 -10.209681,-22.76562 -22.763671,-22.76562 z m 0,3.10156 c 10.87863,0 19.664059,8.78543 19.664061,19.66406 3e-6,10.87864 -8.785431,19.66406 -19.664061,19.66406 -10.87864,10e-6 -19.66407,-8.78542 -19.66406,-19.66406 0,-10.87863 8.78543,-19.66406 19.66406,-19.66406 z"
         id="path9"
         inkscape:label="Outline" />
      <path
         style="color:#000000;display:inline;stroke-linecap:round;stroke-linejoin:round;-inkscape-stroke:none;paint-order:stroke markers fill"
         d="m -95.899378,138.00743 a 21.214285,21.214285 0 0 1 -21.214282,21.21429 21.214285,21.214285 0 0 1 -21.21429,-21.21429 21.214285,21.214285 0 0 1 21.21429,-21.21428 21.214285,21.214285 0 0 1 21.214282,21.21428 z"
         id="path10"
         inkscape:label="Circle" />
      <path
         d="m -122.33661,147.67792 h -2.63096 v -13.07547 q 0,-0.70071 0,-1.28243 0.0132,-0.59494 0.0397,-1.12378 0.0264,-0.54205 0.0529,-1.04445 -0.34374,0.35697 -0.72715,0.68749 -0.37019,0.3173 -0.85936,0.72715 l -2.20789,1.78482 -1.36175,-1.74516 5.48667,-4.25713 h 2.20789 z m 17.29294,-14.87351 q 0,1.30887 -0.51561,2.27399 -0.51562,0.95191 -1.42786,1.56007 -0.91224,0.60816 -2.11534,0.85936 v 0.0925 q 2.30043,0.29086 3.46387,1.46752 1.17666,1.17666 1.17666,3.10691 0,1.67906 -0.79325,2.98793 -0.79326,1.30886 -2.44587,2.04924 -1.63939,0.74037 -4.21747,0.74037 -1.54684,0 -2.86893,-0.2512 -1.32209,-0.2512 -2.51197,-0.80648 v -2.41942 q 1.2031,0.60816 2.60452,0.9519 1.40141,0.33053 2.69706,0.33053 2.52519,0 3.62253,-0.97835 1.11055,-0.97835 1.11055,-2.69706 0,-1.137 -0.59494,-1.85093 -0.59494,-0.72715 -1.7716,-1.07089 -1.16344,-0.34375 -2.9086,-0.34375 h -1.81126 v -2.19466 h 1.8377 q 1.62617,0 2.67063,-0.42307 1.05767,-0.43629 1.57328,-1.21633 0.51562,-0.78003 0.51562,-1.82448 0,-1.36175 -0.89902,-2.10212 -0.8858,-0.75359 -2.51197,-0.75359 -1.00479,0 -1.83771,0.22475 -0.81969,0.21154 -1.53362,0.5685 -0.70071,0.35696 -1.36176,0.80647 l -1.30886,-1.8377 q 1.07089,-0.8197 2.59129,-1.40142 1.53363,-0.58172 3.50354,-0.58172 2.9747,0 4.52155,1.30887 1.54684,1.30887 1.54684,3.42422 z"
         id="path17"
         style="font-weight:500;font-size:27.0764px;line-height:0;font-family:'open sans';-inkscape-font-specification:'open sans Medium';letter-spacing:-1.69227px;word-spacing:0px;display:inline;fill:#808080;stroke-width:4.264;stroke-linecap:round;stroke-linejoin:round;stroke-opacity:0.501961"
         inkscape:label="Symbol 13"
         aria-label="13"
         transform="translate(1.2499999e-6)" />
    </g>
  </g>
  <metadata
     id="metadata8">
    <rdf:RDF>
      <cc:Work
         rdf:about="">
        <cc:license
           rdf:resource="https://opensource.org/license/mit" />
      </cc:Work>
    </rdf:RDF>
  </metadata>
</svg>
