<?xml version="1.0" encoding="UTF-8" standalone="no"?>
<!-- Created with Inkscape (http://www.inkscape.org/) -->

<svg
   width="45.529301mm"
   height="45.529289mm"
   viewBox="0 0 45.529303 45.529285"
   version="1.1"
   id="svg1"
   sodipodi:docname="directinput-29.svg"
   inkscape:version="1.3.2 (091e20e, 2023-11-25, custom)"
   xmlns:inkscape="http://www.inkscape.org/namespaces/inkscape"
   xmlns:sodipodi="http://sodipodi.sourceforge.net/DTD/sodipodi-0.dtd"
   xmlns="http://www.w3.org/2000/svg"
   xmlns:svg="http://www.w3.org/2000/svg"
   xmlns:rdf="http://www.w3.org/1999/02/22-rdf-syntax-ns#"
   xmlns:cc="http://creativecommons.org/ns#">
  <sodipodi:namedview
     id="namedview1"
     pagecolor="#3e8d2e"
     bordercolor="#000000"
     borderopacity="0.25"
     inkscape:showpageshadow="true"
     inkscape:pageopacity="0.0"
     inkscape:pagecheckerboard="false"
     inkscape:deskcolor="#d1d1d1"
     inkscape:document-units="mm"
     inkscape:zoom="8"
     inkscape:cx="86"
     inkscape:cy="80.1875"
     inkscape:window-width="2560"
     inkscape:window-height="1351"
     inkscape:window-x="-9"
     inkscape:window-y="-9"
     inkscape:window-maximized="1"
     inkscape:current-layer="layer1"
     labelstyle="default"
     showborder="true" />
  <defs
     id="defs1">
    <rect
       x="-329.58707"
       y="426.24316"
       width="115.7824"
       height="107.24387"
       id="rect2" />
    <rect
       x="-486.35437"
       y="484.30515"
       width="87.776039"
       height="93.582237"
       id="rect1" />
  </defs>
  <g
     inkscape:label="Button Prompt 29"
     id="layer1"
     transform="translate(139.87891,-115.24219)"
     style="display:inline">
    <g
       id="path1"
       inkscape:label="Style - Outline (White)"
       style="display:none">
      <path
         style="color:#000000;display:inline;fill:#ffffff;fill-opacity:1;stroke-linecap:round;stroke-linejoin:round;-inkscape-stroke:none"
         d="m -95.899378,138.00743 a 21.214285,21.214285 0 0 1 -21.214282,21.21429 21.214285,21.214285 0 0 1 -21.21429,-21.21429 21.214285,21.214285 0 0 1 21.21429,-21.21428 21.214285,21.214285 0 0 1 21.214282,21.21428 z"
         id="path3"
         inkscape:label="Circle" />
      <path
         style="color:#000000;display:inline;fill:#000000;fill-opacity:1;stroke-linecap:round;stroke-linejoin:round;-inkscape-stroke:none"
         d="m -117.11328,115.24219 c -12.554,0 -22.76563,10.21163 -22.76563,22.76562 0,12.554 10.21163,22.76367 22.76563,22.76367 12.55399,0 22.763671,-10.20967 22.763671,-22.76367 0,-12.55399 -10.209681,-22.76562 -22.763671,-22.76562 z m 0,3.10156 c 10.87863,0 19.664061,8.78543 19.664061,19.66406 0,10.87864 -8.785431,19.66406 -19.664061,19.66406 -10.87863,0 -19.66406,-8.78542 -19.66406,-19.66406 0,-10.87863 8.78543,-19.66406 19.66406,-19.66406 z"
         id="path4"
         inkscape:label="Outline" />
      <path
         d="m -117.80307,147.66489 h -12.86859 v -2.08751 l 5.08666,-5.16594 q 1.45333,-1.46654 2.40461,-2.56315 0.96448,-1.10981 1.45333,-2.14036 0.48885,-1.04375 0.48885,-2.27248 0,-1.50618 -0.88522,-2.29891 -0.88521,-0.79272 -2.35175,-0.79272 -1.32121,0 -2.39139,0.48884 -1.05697,0.47564 -2.19321,1.37406 l -1.42691,-1.77042 q 0.77951,-0.6606 1.69115,-1.18909 0.91163,-0.5417 1.99503,-0.85879 1.08339,-0.31709 2.4046,-0.31709 1.81006,0 3.11806,0.63418 1.32121,0.63419 2.03466,1.79685 0.71346,1.16267 0.71346,2.7217 0,1.54581 -0.62097,2.86702 -0.60776,1.308 -1.73079,2.60279 -1.12303,1.29479 -2.65563,2.76133 l -3.76545,3.72581 v 0.11891 h 9.4995 z m 14.90767,-11.08496 q 0,1.73079 -0.25103,3.39551 -0.23782,1.65152 -0.83237,3.10485 -0.58133,1.44012 -1.61187,2.53672 -1.03055,1.0834 -2.58958,1.70437 -1.55903,0.62096 -3.72581,0.62096 -0.56812,0 -1.308,-0.0661 -0.73988,-0.0661 -1.21551,-0.19818 V 145.432 q 0.50206,0.17176 1.14945,0.26425 0.64739,0.0925 1.26836,0.0925 2.45745,0 3.84473,-0.99091 1.38727,-0.99091 1.98181,-2.69527 0.60776,-1.71757 0.68703,-3.88436 h -0.15854 q -0.39637,0.63418 -1.00412,1.16267 -0.60776,0.52848 -1.49297,0.84557 -0.88521,0.31709 -2.11394,0.31709 -1.66473,0 -2.90666,-0.68703 -1.24194,-0.70024 -1.92897,-2.02145 -0.68703,-1.32121 -0.68703,-3.19733 0,-2.02145 0.7663,-3.488 0.7663,-1.47975 2.16679,-2.27248 1.40048,-0.79272 3.30302,-0.79272 1.44012,0 2.65564,0.54169 1.21551,0.52849 2.11394,1.59867 0.89842,1.05697 1.38727,2.65563 0.50206,1.58545 0.50206,3.69939 z m -6.63248,-6.27575 q -1.62509,0 -2.62921,1.07018 -1.00412,1.05697 -1.00412,3.22375 0,1.79685 0.85879,2.84061 0.87199,1.03054 2.66884,1.03054 1.24194,0 2.14036,-0.50206 0.91164,-0.51527 1.40049,-1.29478 0.50206,-0.77952 0.50206,-1.59867 0,-0.81915 -0.23782,-1.65151 -0.23782,-0.84558 -0.72667,-1.54582 -0.48885,-0.71345 -1.22872,-1.13624 -0.73988,-0.436 -1.744,-0.436 z"
         id="text36"
         style="font-weight:500;font-size:27.0584px;line-height:0;font-family:'open sans';-inkscape-font-specification:'open sans Medium';letter-spacing:-0.563716px;word-spacing:0px;display:inline;fill:#000000;fill-opacity:1;stroke-width:4.26116;stroke-linecap:round;stroke-linejoin:round;stroke-opacity:0.501961"
         inkscape:label="Symbol 29"
         aria-label="29"
         transform="translate(1.2499999e-6)" />
    </g>
    <g
       id="g6"
       inkscape:label="Style - Outline (Black)"
       style="display:none">
      <path
         style="color:#000000;display:inline;fill:#000000;fill-opacity:1;stroke-linecap:round;stroke-linejoin:round;-inkscape-stroke:none"
         d="m -95.899378,138.00743 a 21.214285,21.214285 0 0 1 -21.214282,21.21429 21.214285,21.214285 0 0 1 -21.21429,-21.21429 21.214285,21.214285 0 0 1 21.21429,-21.21428 21.214285,21.214285 0 0 1 21.214282,21.21428 z"
         id="path5"
         inkscape:label="Circle" />
      <path
         style="color:#000000;display:inline;fill:#ffffff;fill-opacity:1;stroke-linecap:round;stroke-linejoin:round;-inkscape-stroke:none"
         d="m -117.11328,115.24219 c -12.554,0 -22.76563,10.21163 -22.76563,22.76562 0,12.554 10.21163,22.76367 22.76563,22.76367 12.55399,0 22.763671,-10.20967 22.763671,-22.76367 0,-12.55399 -10.209681,-22.76562 -22.763671,-22.76562 z m 0,3.10156 c 10.87863,0 19.664061,8.78543 19.664061,19.66406 0,10.87864 -8.785431,19.66406 -19.664061,19.66406 -10.87863,0 -19.66406,-8.78542 -19.66406,-19.66406 0,-10.87863 8.78543,-19.66406 19.66406,-19.66406 z"
         id="path6"
         inkscape:label="Outline" />
      <path
         d="m -117.80307,147.66489 h -12.86859 v -2.08751 l 5.08666,-5.16594 q 1.45333,-1.46654 2.40461,-2.56315 0.96448,-1.10981 1.45333,-2.14036 0.48885,-1.04375 0.48885,-2.27248 0,-1.50618 -0.88522,-2.29891 -0.88521,-0.79272 -2.35175,-0.79272 -1.32121,0 -2.39139,0.48884 -1.05697,0.47564 -2.19321,1.37406 l -1.42691,-1.77042 q 0.77951,-0.6606 1.69115,-1.18909 0.91163,-0.5417 1.99503,-0.85879 1.08339,-0.31709 2.4046,-0.31709 1.81006,0 3.11806,0.63418 1.32121,0.63419 2.03466,1.79685 0.71346,1.16267 0.71346,2.7217 0,1.54581 -0.62097,2.86702 -0.60776,1.308 -1.73079,2.60279 -1.12303,1.29479 -2.65563,2.76133 l -3.76545,3.72581 v 0.11891 h 9.4995 z m 14.90767,-11.08496 q 0,1.73079 -0.25103,3.39551 -0.23782,1.65152 -0.83237,3.10485 -0.58133,1.44012 -1.61187,2.53672 -1.03055,1.0834 -2.58958,1.70437 -1.55903,0.62096 -3.72581,0.62096 -0.56812,0 -1.308,-0.0661 -0.73988,-0.0661 -1.21551,-0.19818 V 145.432 q 0.50206,0.17176 1.14945,0.26425 0.64739,0.0925 1.26836,0.0925 2.45745,0 3.84473,-0.99091 1.38727,-0.99091 1.98181,-2.69527 0.60776,-1.71757 0.68703,-3.88436 h -0.15854 q -0.39637,0.63418 -1.00412,1.16267 -0.60776,0.52848 -1.49297,0.84557 -0.88521,0.31709 -2.11394,0.31709 -1.66473,0 -2.90666,-0.68703 -1.24194,-0.70024 -1.92897,-2.02145 -0.68703,-1.32121 -0.68703,-3.19733 0,-2.02145 0.7663,-3.488 0.7663,-1.47975 2.16679,-2.27248 1.40048,-0.79272 3.30302,-0.79272 1.44012,0 2.65564,0.54169 1.21551,0.52849 2.11394,1.59867 0.89842,1.05697 1.38727,2.65563 0.50206,1.58545 0.50206,3.69939 z m -6.63248,-6.27575 q -1.62509,0 -2.62921,1.07018 -1.00412,1.05697 -1.00412,3.22375 0,1.79685 0.85879,2.84061 0.87199,1.03054 2.66884,1.03054 1.24194,0 2.14036,-0.50206 0.91164,-0.51527 1.40049,-1.29478 0.50206,-0.77952 0.50206,-1.59867 0,-0.81915 -0.23782,-1.65151 -0.23782,-0.84558 -0.72667,-1.54582 -0.48885,-0.71345 -1.22872,-1.13624 -0.73988,-0.436 -1.744,-0.436 z"
         id="path37"
         style="font-weight:500;font-size:27.0584px;line-height:0;font-family:'open sans';-inkscape-font-specification:'open sans Medium';letter-spacing:-0.563716px;word-spacing:0px;display:inline;fill:#ffffff;fill-opacity:1;stroke-width:4.26116;stroke-linecap:round;stroke-linejoin:round;stroke-opacity:0.501961"
         inkscape:label="Symbol 29"
         aria-label="29"
         transform="translate(1.2499999e-6)" />
    </g>
    <g
       id="g8"
       inkscape:label="Style - Transparent"
       style="display:inline;fill:#ffffff;fill-opacity:1">
      <path
         style="color:#000000;display:inline;fill:#808080;fill-opacity:0.501031;stroke-linecap:round;stroke-linejoin:round;-inkscape-stroke:none;paint-order:stroke markers fill"
         d="m -117.11328,115.24219 c -12.554,-10e-6 -22.76562,10.21163 -22.76563,22.76562 0,12.554 10.21163,22.76368 22.76563,22.76367 12.554,0 22.763674,-10.20967 22.763671,-22.76367 -3e-6,-12.55399 -10.209681,-22.76562 -22.763671,-22.76562 z m 0,3.10156 c 10.87863,0 19.664059,8.78543 19.664061,19.66406 3e-6,10.87864 -8.785431,19.66406 -19.664061,19.66406 -10.87864,10e-6 -19.66407,-8.78542 -19.66406,-19.66406 0,-10.87863 8.78543,-19.66406 19.66406,-19.66406 z"
         id="path9"
         inkscape:label="Outline" />
      <path
         style="color:#000000;display:inline;stroke-linecap:round;stroke-linejoin:round;-inkscape-stroke:none;paint-order:stroke markers fill"
         d="m -95.899378,138.00743 a 21.214285,21.214285 0 0 1 -21.214282,21.21429 21.214285,21.214285 0 0 1 -21.21429,-21.21429 21.214285,21.214285 0 0 1 21.21429,-21.21428 21.214285,21.214285 0 0 1 21.214282,21.21428 z"
         id="path10"
         inkscape:label="Circle" />
      <path
         d="m -117.80307,147.66489 h -12.86859 v -2.08751 l 5.08666,-5.16594 q 1.45333,-1.46654 2.40461,-2.56315 0.96448,-1.10981 1.45333,-2.14036 0.48885,-1.04375 0.48885,-2.27248 0,-1.50618 -0.88522,-2.29891 -0.88521,-0.79272 -2.35175,-0.79272 -1.32121,0 -2.39139,0.48884 -1.05697,0.47564 -2.19321,1.37406 l -1.42691,-1.77042 q 0.77951,-0.6606 1.69115,-1.18909 0.91163,-0.5417 1.99503,-0.85879 1.08339,-0.31709 2.4046,-0.31709 1.81006,0 3.11806,0.63418 1.32121,0.63419 2.03466,1.79685 0.71346,1.16267 0.71346,2.7217 0,1.54581 -0.62097,2.86702 -0.60776,1.308 -1.73079,2.60279 -1.12303,1.29479 -2.65563,2.76133 l -3.76545,3.72581 v 0.11891 h 9.4995 z m 14.90767,-11.08496 q 0,1.73079 -0.25103,3.39551 -0.23782,1.65152 -0.83237,3.10485 -0.58133,1.44012 -1.61187,2.53672 -1.03055,1.0834 -2.58958,1.70437 -1.55903,0.62096 -3.72581,0.62096 -0.56812,0 -1.308,-0.0661 -0.73988,-0.0661 -1.21551,-0.19818 V 145.432 q 0.50206,0.17176 1.14945,0.26425 0.64739,0.0925 1.26836,0.0925 2.45745,0 3.84473,-0.99091 1.38727,-0.99091 1.98181,-2.69527 0.60776,-1.71757 0.68703,-3.88436 h -0.15854 q -0.39637,0.63418 -1.00412,1.16267 -0.60776,0.52848 -1.49297,0.84557 -0.88521,0.31709 -2.11394,0.31709 -1.66473,0 -2.90666,-0.68703 -1.24194,-0.70024 -1.92897,-2.02145 -0.68703,-1.32121 -0.68703,-3.19733 0,-2.02145 0.7663,-3.488 0.7663,-1.47975 2.16679,-2.27248 1.40048,-0.79272 3.30302,-0.79272 1.44012,0 2.65564,0.54169 1.21551,0.52849 2.11394,1.59867 0.89842,1.05697 1.38727,2.65563 0.50206,1.58545 0.50206,3.69939 z m -6.63248,-6.27575 q -1.62509,0 -2.62921,1.07018 -1.00412,1.05697 -1.00412,3.22375 0,1.79685 0.85879,2.84061 0.87199,1.03054 2.66884,1.03054 1.24194,0 2.14036,-0.50206 0.91164,-0.51527 1.40049,-1.29478 0.50206,-0.77952 0.50206,-1.59867 0,-0.81915 -0.23782,-1.65151 -0.23782,-0.84558 -0.72667,-1.54582 -0.48885,-0.71345 -1.22872,-1.13624 -0.73988,-0.436 -1.744,-0.436 z"
         id="path36"
         style="font-weight:500;font-size:27.0584px;line-height:0;font-family:'open sans';-inkscape-font-specification:'open sans Medium';letter-spacing:-0.563716px;word-spacing:0px;display:inline;fill:#808080;stroke-width:4.26116;stroke-linecap:round;stroke-linejoin:round;stroke-opacity:0.501961"
         inkscape:label="Symbol 29"
         aria-label="29"
         transform="translate(1.2499999e-6)" />
    </g>
  </g>
  <metadata
     id="metadata8">
    <rdf:RDF>
      <cc:Work
         rdf:about="">
        <cc:license
           rdf:resource="https://opensource.org/license/mit" />
      </cc:Work>
    </rdf:RDF>
  </metadata>
</svg>
