<?xml version="1.0" encoding="UTF-8" standalone="no"?>
<!-- Created with Inkscape (http://www.inkscape.org/) -->

<svg
   width="45.529301mm"
   height="45.529289mm"
   viewBox="0 0 45.529303 45.529285"
   version="1.1"
   id="svg1"
   sodipodi:docname="directinput-32.svg"
   inkscape:version="1.3.2 (091e20e, 2023-11-25, custom)"
   xmlns:inkscape="http://www.inkscape.org/namespaces/inkscape"
   xmlns:sodipodi="http://sodipodi.sourceforge.net/DTD/sodipodi-0.dtd"
   xmlns="http://www.w3.org/2000/svg"
   xmlns:svg="http://www.w3.org/2000/svg"
   xmlns:rdf="http://www.w3.org/1999/02/22-rdf-syntax-ns#"
   xmlns:cc="http://creativecommons.org/ns#">
  <sodipodi:namedview
     id="namedview1"
     pagecolor="#3e8d2e"
     bordercolor="#000000"
     borderopacity="0.25"
     inkscape:showpageshadow="true"
     inkscape:pageopacity="0.0"
     inkscape:pagecheckerboard="false"
     inkscape:deskcolor="#d1d1d1"
     inkscape:document-units="mm"
     inkscape:zoom="4"
     inkscape:cx="23.5"
     inkscape:cy="108.875"
     inkscape:window-width="2560"
     inkscape:window-height="1351"
     inkscape:window-x="-9"
     inkscape:window-y="-9"
     inkscape:window-maximized="1"
     inkscape:current-layer="layer1"
     labelstyle="default"
     showborder="true" />
  <defs
     id="defs1">
    <rect
       x="-329.58707"
       y="426.24316"
       width="115.7824"
       height="107.24387"
       id="rect2" />
    <rect
       x="-486.35437"
       y="484.30515"
       width="87.776039"
       height="93.582237"
       id="rect1" />
  </defs>
  <g
     inkscape:label="Button Prompt 32"
     id="layer1"
     transform="translate(139.87891,-115.24219)"
     style="display:inline">
    <g
       id="path1"
       inkscape:label="Style - Outline (White)"
       style="display:none">
      <path
         style="color:#000000;display:inline;fill:#ffffff;fill-opacity:1;stroke-linecap:round;stroke-linejoin:round;-inkscape-stroke:none"
         d="m -95.899378,138.00743 a 21.214285,21.214285 0 0 1 -21.214282,21.21429 21.214285,21.214285 0 0 1 -21.21429,-21.21429 21.214285,21.214285 0 0 1 21.21429,-21.21428 21.214285,21.214285 0 0 1 21.214282,21.21428 z"
         id="path3"
         inkscape:label="Circle" />
      <path
         style="color:#000000;display:inline;fill:#000000;fill-opacity:1;stroke-linecap:round;stroke-linejoin:round;-inkscape-stroke:none"
         d="m -117.11328,115.24219 c -12.554,0 -22.76563,10.21163 -22.76563,22.76562 0,12.554 10.21163,22.76367 22.76563,22.76367 12.55399,0 22.763671,-10.20967 22.763671,-22.76367 0,-12.55399 -10.209681,-22.76562 -22.763671,-22.76562 z m 0,3.10156 c 10.87863,0 19.664061,8.78543 19.664061,19.66406 0,10.87864 -8.785431,19.66406 -19.664061,19.66406 -10.87863,0 -19.66406,-8.78542 -19.66406,-19.66406 0,-10.87863 8.78543,-19.66406 19.66406,-19.66406 z"
         id="path4"
         inkscape:label="Outline" />
      <path
         d="m 21.242147,17.562219 q 0,1.308869 -0.515615,2.273995 -0.515615,0.951905 -1.427857,1.560066 -0.912242,0.608161 -2.115344,0.859358 v 0.09255 q 2.300437,0.290859 3.463876,1.467519 1.17666,1.17666 1.17666,3.106912 0,1.679054 -0.793254,2.987923 -0.793254,1.308869 -2.445866,2.049239 -1.639392,0.74037 -4.217467,0.74037 -1.546845,0 -2.868935,-0.251197 -1.32209,-0.251197 -2.5119716,-0.806474 v -2.419425 q 1.2031026,0.608161 2.6045176,0.951905 1.401415,0.330522 2.697063,0.330522 2.525192,0 3.622527,-0.978346 1.110555,-0.978347 1.110555,-2.697064 0,-1.136997 -0.59494,-1.850925 -0.594941,-0.727153 -1.771601,-1.070896 -1.163439,-0.343744 -2.908597,-0.343744 h -1.811263 v -2.194669 h 1.837704 q 1.626171,0 2.670622,-0.423069 1.057672,-0.436289 1.573287,-1.216322 0.515615,-0.780033 0.515615,-1.824484 0,-1.361753 -0.899021,-2.102123 -0.8858,-0.753591 -2.511971,-0.753591 -1.004788,0 -1.837705,0.224755 -0.819696,0.211534 -1.533624,0.568498 -0.700708,0.356965 -1.361753,0.806475 L 9.0789194,14.812272 q 1.0708926,-0.819695 2.5912976,-1.401415 1.533624,-0.581719 3.503538,-0.581719 2.974702,0 4.521547,1.308869 1.546845,1.308869 1.546845,3.424212 z M 36.873657,32.43573 H 23.996502 v -2.088902 l 5.090046,-5.169371 q 1.454299,-1.46752 2.406204,-2.564854 0.965125,-1.110556 1.454298,-2.141786 0.489174,-1.044451 0.489174,-2.273995 0,-1.507182 -0.885801,-2.300436 -0.8858,-0.793254 -2.35332,-0.793254 -1.322089,0 -2.392982,0.489173 -1.057672,0.475953 -2.194669,1.374974 l -1.427857,-1.771601 q 0.780033,-0.661044 1.692275,-1.18988 0.912242,-0.542057 1.996355,-0.859359 1.084114,-0.317301 2.406204,-0.317301 1.811263,0 3.120132,0.634603 1.32209,0.634603 2.036018,1.798042 0.713929,1.163439 0.713929,2.723505 0,1.546845 -0.621382,2.868935 -0.608162,1.308869 -1.731938,2.604517 -1.123776,1.295648 -2.657401,2.763168 l -3.767956,3.728294 v 0.118988 h 9.505826 z"
         id="path39"
         style="-inkscape-font-specification:'open sans Medium';display:inline;fill:#000000;stroke-width:4.264;stroke-linecap:round;stroke-linejoin:round;stroke-opacity:0.501961"
         aria-label="32"
         inkscape:label="Symbol 32"
         transform="translate(-139.87891,115.24219)" />
    </g>
    <g
       id="g6"
       inkscape:label="Style - Outline (Black)"
       style="display:none">
      <path
         style="color:#000000;display:inline;fill:#000000;fill-opacity:1;stroke-linecap:round;stroke-linejoin:round;-inkscape-stroke:none"
         d="m -95.899378,138.00743 a 21.214285,21.214285 0 0 1 -21.214282,21.21429 21.214285,21.214285 0 0 1 -21.21429,-21.21429 21.214285,21.214285 0 0 1 21.21429,-21.21428 21.214285,21.214285 0 0 1 21.214282,21.21428 z"
         id="path5"
         inkscape:label="Circle" />
      <path
         style="color:#000000;display:inline;fill:#ffffff;fill-opacity:1;stroke-linecap:round;stroke-linejoin:round;-inkscape-stroke:none"
         d="m -117.11328,115.24219 c -12.554,0 -22.76563,10.21163 -22.76563,22.76562 0,12.554 10.21163,22.76367 22.76563,22.76367 12.55399,0 22.763671,-10.20967 22.763671,-22.76367 0,-12.55399 -10.209681,-22.76562 -22.763671,-22.76562 z m 0,3.10156 c 10.87863,0 19.664061,8.78543 19.664061,19.66406 0,10.87864 -8.785431,19.66406 -19.664061,19.66406 -10.87863,0 -19.66406,-8.78542 -19.66406,-19.66406 0,-10.87863 8.78543,-19.66406 19.66406,-19.66406 z"
         id="path6"
         inkscape:label="Outline" />
      <path
         d="m 21.242147,17.562219 q 0,1.308869 -0.515615,2.273995 -0.515615,0.951905 -1.427857,1.560066 -0.912242,0.608161 -2.115344,0.859358 v 0.09255 q 2.300437,0.290859 3.463876,1.467519 1.17666,1.17666 1.17666,3.106912 0,1.679054 -0.793254,2.987923 -0.793254,1.308869 -2.445866,2.049239 -1.639392,0.74037 -4.217467,0.74037 -1.546845,0 -2.868935,-0.251197 -1.32209,-0.251197 -2.5119716,-0.806474 v -2.419425 q 1.2031026,0.608161 2.6045176,0.951905 1.401415,0.330522 2.697063,0.330522 2.525192,0 3.622527,-0.978346 1.110555,-0.978347 1.110555,-2.697064 0,-1.136997 -0.59494,-1.850925 -0.594941,-0.727153 -1.771601,-1.070896 -1.163439,-0.343744 -2.908597,-0.343744 h -1.811263 v -2.194669 h 1.837704 q 1.626171,0 2.670622,-0.423069 1.057672,-0.436289 1.573287,-1.216322 0.515615,-0.780033 0.515615,-1.824484 0,-1.361753 -0.899021,-2.102123 -0.8858,-0.753591 -2.511971,-0.753591 -1.004788,0 -1.837705,0.224755 -0.819696,0.211534 -1.533624,0.568498 -0.700708,0.356965 -1.361753,0.806475 L 9.0789194,14.812272 q 1.0708926,-0.819695 2.5912976,-1.401415 1.533624,-0.581719 3.503538,-0.581719 2.974702,0 4.521547,1.308869 1.546845,1.308869 1.546845,3.424212 z M 36.873657,32.43573 H 23.996502 v -2.088902 l 5.090046,-5.169371 q 1.454299,-1.46752 2.406204,-2.564854 0.965125,-1.110556 1.454298,-2.141786 0.489174,-1.044451 0.489174,-2.273995 0,-1.507182 -0.885801,-2.300436 -0.8858,-0.793254 -2.35332,-0.793254 -1.322089,0 -2.392982,0.489173 -1.057672,0.475953 -2.194669,1.374974 l -1.427857,-1.771601 q 0.780033,-0.661044 1.692275,-1.18988 0.912242,-0.542057 1.996355,-0.859359 1.084114,-0.317301 2.406204,-0.317301 1.811263,0 3.120132,0.634603 1.32209,0.634603 2.036018,1.798042 0.713929,1.163439 0.713929,2.723505 0,1.546845 -0.621382,2.868935 -0.608162,1.308869 -1.731938,2.604517 -1.123776,1.295648 -2.657401,2.763168 l -3.767956,3.728294 v 0.118988 h 9.505826 z"
         id="path40"
         style="-inkscape-font-specification:'open sans Medium';display:inline;fill:#ffffff;stroke-width:4.264;stroke-linecap:round;stroke-linejoin:round;stroke-opacity:0.501961"
         aria-label="32"
         inkscape:label="Symbol 32"
         transform="translate(-139.87891,115.24219)" />
    </g>
    <g
       id="g8"
       inkscape:label="Style - Transparent"
       style="display:inline;fill:#ffffff;fill-opacity:1">
      <path
         style="color:#000000;display:inline;fill:#808080;fill-opacity:0.501031;stroke-linecap:round;stroke-linejoin:round;-inkscape-stroke:none;paint-order:stroke markers fill"
         d="m -117.11328,115.24219 c -12.554,-10e-6 -22.76562,10.21163 -22.76563,22.76562 0,12.554 10.21163,22.76368 22.76563,22.76367 12.554,0 22.763674,-10.20967 22.763671,-22.76367 -3e-6,-12.55399 -10.209681,-22.76562 -22.763671,-22.76562 z m 0,3.10156 c 10.87863,0 19.664059,8.78543 19.664061,19.66406 3e-6,10.87864 -8.785431,19.66406 -19.664061,19.66406 -10.87864,10e-6 -19.66407,-8.78542 -19.66406,-19.66406 0,-10.87863 8.78543,-19.66406 19.66406,-19.66406 z"
         id="path9"
         inkscape:label="Outline" />
      <path
         style="color:#000000;display:inline;stroke-linecap:round;stroke-linejoin:round;-inkscape-stroke:none;paint-order:stroke markers fill"
         d="m -95.899378,138.00743 a 21.214285,21.214285 0 0 1 -21.214282,21.21429 21.214285,21.214285 0 0 1 -21.21429,-21.21429 21.214285,21.214285 0 0 1 21.21429,-21.21428 21.214285,21.214285 0 0 1 21.214282,21.21428 z"
         id="path10"
         inkscape:label="Circle" />
      <path
         d="m 21.242147,17.562219 q 0,1.308869 -0.515615,2.273995 -0.515615,0.951905 -1.427857,1.560066 -0.912242,0.608161 -2.115344,0.859358 v 0.09255 q 2.300437,0.290859 3.463876,1.467519 1.17666,1.17666 1.17666,3.106912 0,1.679054 -0.793254,2.987923 -0.793254,1.308869 -2.445866,2.049239 -1.639392,0.74037 -4.217467,0.74037 -1.546845,0 -2.868935,-0.251197 -1.32209,-0.251197 -2.5119716,-0.806474 v -2.419425 q 1.2031026,0.608161 2.6045176,0.951905 1.401415,0.330522 2.697063,0.330522 2.525192,0 3.622527,-0.978346 1.110555,-0.978347 1.110555,-2.697064 0,-1.136997 -0.59494,-1.850925 -0.594941,-0.727153 -1.771601,-1.070896 -1.163439,-0.343744 -2.908597,-0.343744 h -1.811263 v -2.194669 h 1.837704 q 1.626171,0 2.670622,-0.423069 1.057672,-0.436289 1.573287,-1.216322 0.515615,-0.780033 0.515615,-1.824484 0,-1.361753 -0.899021,-2.102123 -0.8858,-0.753591 -2.511971,-0.753591 -1.004788,0 -1.837705,0.224755 -0.819696,0.211534 -1.533624,0.568498 -0.700708,0.356965 -1.361753,0.806475 L 9.0789194,14.812272 q 1.0708926,-0.819695 2.5912976,-1.401415 1.533624,-0.581719 3.503538,-0.581719 2.974702,0 4.521547,1.308869 1.546845,1.308869 1.546845,3.424212 z M 36.873657,32.43573 H 23.996502 v -2.088902 l 5.090046,-5.169371 q 1.454299,-1.46752 2.406204,-2.564854 0.965125,-1.110556 1.454298,-2.141786 0.489174,-1.044451 0.489174,-2.273995 0,-1.507182 -0.885801,-2.300436 -0.8858,-0.793254 -2.35332,-0.793254 -1.322089,0 -2.392982,0.489173 -1.057672,0.475953 -2.194669,1.374974 l -1.427857,-1.771601 q 0.780033,-0.661044 1.692275,-1.18988 0.912242,-0.542057 1.996355,-0.859359 1.084114,-0.317301 2.406204,-0.317301 1.811263,0 3.120132,0.634603 1.32209,0.634603 2.036018,1.798042 0.713929,1.163439 0.713929,2.723505 0,1.546845 -0.621382,2.868935 -0.608162,1.308869 -1.731938,2.604517 -1.123776,1.295648 -2.657401,2.763168 l -3.767956,3.728294 v 0.118988 h 9.505826 z"
         id="text39"
         style="-inkscape-font-specification:'open sans Medium';display:inline;fill:#808080;stroke-width:4.264;stroke-linecap:round;stroke-linejoin:round;stroke-opacity:0.501961"
         aria-label="32"
         inkscape:label="Symbol 32"
         transform="translate(-139.87891,115.24219)" />
    </g>
  </g>
  <metadata
     id="metadata8">
    <rdf:RDF>
      <cc:Work
         rdf:about="">
        <cc:license
           rdf:resource="https://opensource.org/license/mit" />
      </cc:Work>
    </rdf:RDF>
  </metadata>
</svg>
