<?xml version="1.0" encoding="UTF-8" standalone="no"?>
<!-- Created with Inkscape (http://www.inkscape.org/) -->

<svg
   width="45.529301mm"
   height="45.529289mm"
   viewBox="0 0 45.529303 45.529285"
   version="1.1"
   id="svg1"
   sodipodi:docname="directinput-14.svg"
   inkscape:version="1.3.2 (091e20e, 2023-11-25, custom)"
   xmlns:inkscape="http://www.inkscape.org/namespaces/inkscape"
   xmlns:sodipodi="http://sodipodi.sourceforge.net/DTD/sodipodi-0.dtd"
   xmlns="http://www.w3.org/2000/svg"
   xmlns:svg="http://www.w3.org/2000/svg"
   xmlns:rdf="http://www.w3.org/1999/02/22-rdf-syntax-ns#"
   xmlns:cc="http://creativecommons.org/ns#">
  <sodipodi:namedview
     id="namedview1"
     pagecolor="#3e8d2e"
     bordercolor="#000000"
     borderopacity="0.25"
     inkscape:showpageshadow="true"
     inkscape:pageopacity="0.0"
     inkscape:pagecheckerboard="false"
     inkscape:deskcolor="#d1d1d1"
     inkscape:document-units="mm"
     inkscape:zoom="5.6568542"
     inkscape:cx="83.96893"
     inkscape:cy="87.416076"
     inkscape:window-width="2560"
     inkscape:window-height="1351"
     inkscape:window-x="-9"
     inkscape:window-y="-9"
     inkscape:window-maximized="1"
     inkscape:current-layer="layer1"
     labelstyle="default"
     showborder="true" />
  <defs
     id="defs1">
    <rect
       x="-329.58707"
       y="426.24316"
       width="115.7824"
       height="107.24387"
       id="rect2" />
    <rect
       x="-486.35437"
       y="484.30515"
       width="87.776039"
       height="93.582237"
       id="rect1" />
  </defs>
  <g
     inkscape:label="Button Prompt 14"
     id="layer1"
     transform="translate(139.87891,-115.24219)"
     style="display:inline">
    <g
       id="path1"
       inkscape:label="Style - Outline (White)"
       style="display:none">
      <path
         style="color:#000000;display:inline;fill:#ffffff;fill-opacity:1;stroke-linecap:round;stroke-linejoin:round;-inkscape-stroke:none"
         d="m -95.899378,138.00743 a 21.214285,21.214285 0 0 1 -21.214282,21.21429 21.214285,21.214285 0 0 1 -21.21429,-21.21429 21.214285,21.214285 0 0 1 21.21429,-21.21428 21.214285,21.214285 0 0 1 21.214282,21.21428 z"
         id="path3"
         inkscape:label="Circle" />
      <path
         style="color:#000000;display:inline;fill:#000000;fill-opacity:1;stroke-linecap:round;stroke-linejoin:round;-inkscape-stroke:none"
         d="m -117.11328,115.24219 c -12.554,0 -22.76563,10.21163 -22.76563,22.76562 0,12.554 10.21163,22.76367 22.76563,22.76367 12.55399,0 22.763671,-10.20967 22.763671,-22.76367 0,-12.55399 -10.209681,-22.76562 -22.763671,-22.76562 z m 0,3.10156 c 10.87863,0 19.664061,8.78543 19.664061,19.66406 0,10.87864 -8.785431,19.66406 -19.664061,19.66406 -10.87863,0 -19.66406,-8.78542 -19.66406,-19.66406 0,-10.87863 8.78543,-19.66406 19.66406,-19.66406 z"
         id="path4"
         inkscape:label="Outline" />
      <path
         d="M 17.059192,32.70013 H 14.365511 V 19.312943 q 0,-0.717413 0,-1.313 0.01354,-0.609124 0.04061,-1.150567 0.02707,-0.55498 0.05415,-1.069351 -0.351939,0.365474 -0.744485,0.703876 -0.37901,0.324866 -0.879846,0.744485 l -2.260526,1.827371 -1.3942164,-1.786763 5.6174754,-4.358619 h 2.260526 z m 19.288919,-4.466907 h -2.815506 v 4.466907 h -2.666609 v -4.466907 h -9.285754 v -2.152238 l 9.23161,-13.251827 h 2.720753 V 25.89148 h 2.815506 z M 30.865996,25.89148 v -5.685155 q 0,-0.676805 0.01354,-1.285929 0.01354,-0.622659 0.04061,-1.177639 0.02707,-0.554979 0.05414,-1.028742 0.02707,-0.487299 0.04061,-0.879846 h -0.108288 q -0.257186,0.541444 -0.582052,1.123495 -0.31133,0.582052 -0.663268,1.082887 l -5.482114,7.850929 z"
         id="text18"
         style="font-weight:500;font-size:27.7219px;line-height:0;font-family:'open sans';-inkscape-font-specification:'open sans Medium';letter-spacing:-1.73262px;word-spacing:0px;display:inline;fill:#000000;fill-opacity:1;stroke-width:4.36566;stroke-linecap:round;stroke-linejoin:round;stroke-opacity:0.501961"
         inkscape:label="Symbol 14"
         aria-label="14"
         transform="translate(-139.87891,115.24219)" />
    </g>
    <g
       id="g6"
       inkscape:label="Style - Outline (Black)"
       style="display:none">
      <path
         style="color:#000000;display:inline;fill:#000000;fill-opacity:1;stroke-linecap:round;stroke-linejoin:round;-inkscape-stroke:none"
         d="m -95.899378,138.00743 a 21.214285,21.214285 0 0 1 -21.214282,21.21429 21.214285,21.214285 0 0 1 -21.21429,-21.21429 21.214285,21.214285 0 0 1 21.21429,-21.21428 21.214285,21.214285 0 0 1 21.214282,21.21428 z"
         id="path5"
         inkscape:label="Circle" />
      <path
         style="color:#000000;display:inline;fill:#ffffff;fill-opacity:1;stroke-linecap:round;stroke-linejoin:round;-inkscape-stroke:none"
         d="m -117.11328,115.24219 c -12.554,0 -22.76563,10.21163 -22.76563,22.76562 0,12.554 10.21163,22.76367 22.76563,22.76367 12.55399,0 22.763671,-10.20967 22.763671,-22.76367 0,-12.55399 -10.209681,-22.76562 -22.763671,-22.76562 z m 0,3.10156 c 10.87863,0 19.664061,8.78543 19.664061,19.66406 0,10.87864 -8.785431,19.66406 -19.664061,19.66406 -10.87863,0 -19.66406,-8.78542 -19.66406,-19.66406 0,-10.87863 8.78543,-19.66406 19.66406,-19.66406 z"
         id="path6"
         inkscape:label="Outline" />
      <path
         d="M 17.059192,32.70013 H 14.365511 V 19.312943 q 0,-0.717413 0,-1.313 0.01354,-0.609124 0.04061,-1.150567 0.02707,-0.55498 0.05415,-1.069351 -0.351939,0.365474 -0.744485,0.703876 -0.37901,0.324866 -0.879846,0.744485 l -2.260526,1.827371 -1.3942164,-1.786763 5.6174754,-4.358619 h 2.260526 z m 19.288919,-4.466907 h -2.815506 v 4.466907 h -2.666609 v -4.466907 h -9.285754 v -2.152238 l 9.23161,-13.251827 h 2.720753 V 25.89148 h 2.815506 z M 30.865996,25.89148 v -5.685155 q 0,-0.676805 0.01354,-1.285929 0.01354,-0.622659 0.04061,-1.177639 0.02707,-0.554979 0.05414,-1.028742 0.02707,-0.487299 0.04061,-0.879846 h -0.108288 q -0.257186,0.541444 -0.582052,1.123495 -0.31133,0.582052 -0.663268,1.082887 l -5.482114,7.850929 z"
         id="path19"
         style="font-weight:500;font-size:27.7219px;line-height:0;font-family:'open sans';-inkscape-font-specification:'open sans Medium';letter-spacing:-1.73262px;word-spacing:0px;display:inline;fill:#ffffff;fill-opacity:1;stroke-width:4.36566;stroke-linecap:round;stroke-linejoin:round;stroke-opacity:0.501961"
         inkscape:label="Symbol 14"
         aria-label="14"
         transform="translate(-139.87891,115.24219)" />
    </g>
    <g
       id="g8"
       inkscape:label="Style - Transparent"
       style="display:inline;fill:#ffffff;fill-opacity:1">
      <path
         style="color:#000000;display:inline;fill:#808080;fill-opacity:0.501031;stroke-linecap:round;stroke-linejoin:round;-inkscape-stroke:none;paint-order:stroke markers fill"
         d="m -117.11328,115.24219 c -12.554,-10e-6 -22.76562,10.21163 -22.76563,22.76562 0,12.554 10.21163,22.76368 22.76563,22.76367 12.554,0 22.763674,-10.20967 22.763671,-22.76367 -3e-6,-12.55399 -10.209681,-22.76562 -22.763671,-22.76562 z m 0,3.10156 c 10.87863,0 19.664059,8.78543 19.664061,19.66406 3e-6,10.87864 -8.785431,19.66406 -19.664061,19.66406 -10.87864,10e-6 -19.66407,-8.78542 -19.66406,-19.66406 0,-10.87863 8.78543,-19.66406 19.66406,-19.66406 z"
         id="path9"
         inkscape:label="Outline" />
      <path
         style="color:#000000;display:inline;stroke-linecap:round;stroke-linejoin:round;-inkscape-stroke:none;paint-order:stroke markers fill"
         d="m -95.899378,138.00743 a 21.214285,21.214285 0 0 1 -21.214282,21.21429 21.214285,21.214285 0 0 1 -21.21429,-21.21429 21.214285,21.214285 0 0 1 21.21429,-21.21428 21.214285,21.214285 0 0 1 21.214282,21.21428 z"
         id="path10"
         inkscape:label="Circle" />
      <path
         d="M 17.059192,32.70013 H 14.365511 V 19.312943 q 0,-0.717413 0,-1.313 0.01354,-0.609124 0.04061,-1.150567 0.02707,-0.55498 0.05415,-1.069351 -0.351939,0.365474 -0.744485,0.703876 -0.37901,0.324866 -0.879846,0.744485 l -2.260526,1.827371 -1.3942164,-1.786763 5.6174754,-4.358619 h 2.260526 z m 19.288919,-4.466907 h -2.815506 v 4.466907 h -2.666609 v -4.466907 h -9.285754 v -2.152238 l 9.23161,-13.251827 h 2.720753 V 25.89148 h 2.815506 z M 30.865996,25.89148 v -5.685155 q 0,-0.676805 0.01354,-1.285929 0.01354,-0.622659 0.04061,-1.177639 0.02707,-0.554979 0.05414,-1.028742 0.02707,-0.487299 0.04061,-0.879846 h -0.108288 q -0.257186,0.541444 -0.582052,1.123495 -0.31133,0.582052 -0.663268,1.082887 l -5.482114,7.850929 z"
         id="path18"
         style="font-weight:500;font-size:27.7219px;line-height:0;font-family:'open sans';-inkscape-font-specification:'open sans Medium';letter-spacing:-1.73262px;word-spacing:0px;fill:#808080;stroke-width:4.36566;stroke-linecap:round;stroke-linejoin:round;stroke-opacity:0.501961"
         inkscape:label="Symbol 14"
         aria-label="14"
         transform="translate(-139.87891,115.24219)" />
    </g>
  </g>
  <metadata
     id="metadata8">
    <rdf:RDF>
      <cc:Work
         rdf:about="">
        <cc:license
           rdf:resource="https://opensource.org/license/mit" />
      </cc:Work>
    </rdf:RDF>
  </metadata>
</svg>
