<?xml version="1.0" encoding="UTF-8" standalone="no"?>
<!-- Created with Inkscape (http://www.inkscape.org/) -->

<svg
   width="45.529301mm"
   height="45.529289mm"
   viewBox="0 0 45.529303 45.529285"
   version="1.1"
   id="svg1"
   sodipodi:docname="directinput-26.svg"
   inkscape:version="1.3.2 (091e20e, 2023-11-25, custom)"
   xmlns:inkscape="http://www.inkscape.org/namespaces/inkscape"
   xmlns:sodipodi="http://sodipodi.sourceforge.net/DTD/sodipodi-0.dtd"
   xmlns="http://www.w3.org/2000/svg"
   xmlns:svg="http://www.w3.org/2000/svg"
   xmlns:rdf="http://www.w3.org/1999/02/22-rdf-syntax-ns#"
   xmlns:cc="http://creativecommons.org/ns#">
  <sodipodi:namedview
     id="namedview1"
     pagecolor="#3e8d2e"
     bordercolor="#000000"
     borderopacity="0.25"
     inkscape:showpageshadow="true"
     inkscape:pageopacity="0.0"
     inkscape:pagecheckerboard="false"
     inkscape:deskcolor="#d1d1d1"
     inkscape:document-units="mm"
     inkscape:zoom="8"
     inkscape:cx="75.375"
     inkscape:cy="85.4375"
     inkscape:window-width="2560"
     inkscape:window-height="1351"
     inkscape:window-x="-9"
     inkscape:window-y="-9"
     inkscape:window-maximized="1"
     inkscape:current-layer="layer1"
     labelstyle="default"
     showborder="true" />
  <defs
     id="defs1">
    <rect
       x="-329.58707"
       y="426.24316"
       width="115.7824"
       height="107.24387"
       id="rect2" />
    <rect
       x="-486.35437"
       y="484.30515"
       width="87.776039"
       height="93.582237"
       id="rect1" />
  </defs>
  <g
     inkscape:label="Button Prompt 26"
     id="layer1"
     transform="translate(139.87891,-115.24219)"
     style="display:inline">
    <g
       id="path1"
       inkscape:label="Style - Outline (White)"
       style="display:none">
      <path
         style="color:#000000;display:inline;fill:#ffffff;fill-opacity:1;stroke-linecap:round;stroke-linejoin:round;-inkscape-stroke:none"
         d="m -95.899378,138.00743 a 21.214285,21.214285 0 0 1 -21.214282,21.21429 21.214285,21.214285 0 0 1 -21.21429,-21.21429 21.214285,21.214285 0 0 1 21.21429,-21.21428 21.214285,21.214285 0 0 1 21.214282,21.21428 z"
         id="path3"
         inkscape:label="Circle" />
      <path
         style="color:#000000;display:inline;fill:#000000;fill-opacity:1;stroke-linecap:round;stroke-linejoin:round;-inkscape-stroke:none"
         d="m -117.11328,115.24219 c -12.554,0 -22.76563,10.21163 -22.76563,22.76562 0,12.554 10.21163,22.76367 22.76563,22.76367 12.55399,0 22.763671,-10.20967 22.763671,-22.76367 0,-12.55399 -10.209681,-22.76562 -22.763671,-22.76562 z m 0,3.10156 c 10.87863,0 19.664061,8.78543 19.664061,19.66406 0,10.87864 -8.785431,19.66406 -19.664061,19.66406 -10.87863,0 -19.66406,-8.78542 -19.66406,-19.66406 0,-10.87863 8.78543,-19.66406 19.66406,-19.66406 z"
         id="path4"
         inkscape:label="Outline" />
      <path
         d="M 22.146054,32.435734 H 9.2688987 V 30.346832 L 14.358945,25.17746 q 1.454299,-1.467519 2.406203,-2.564854 0.965126,-1.110556 1.454299,-2.141786 0.489173,-1.044451 0.489173,-2.273994 0,-1.507183 -0.8858,-2.300437 -0.8858,-0.793254 -2.35332,-0.793254 -1.32209,0 -2.392982,0.489174 -1.057672,0.475952 -2.19467,1.374973 l -1.4278567,-1.7716 q 0.7800327,-0.661045 1.6922747,-1.189881 0.912242,-0.542057 1.996356,-0.859359 1.084114,-0.317301 2.406204,-0.317301 1.811263,0 3.120132,0.634603 1.32209,0.634603 2.036018,1.798042 0.713929,1.163439 0.713929,2.723505 0,1.546846 -0.621383,2.868935 -0.608161,1.308869 -1.731937,2.604518 -1.123777,1.295648 -2.657401,2.763167 l -3.767956,3.728294 v 0.118988 h 9.505826 z m 2.159414,-8.249841 q 0,-1.731938 0.237977,-3.38455 0.251197,-1.652613 0.832916,-3.09369 0.594941,-1.441078 1.626171,-2.525192 1.03123,-1.097335 2.578075,-1.718717 1.546845,-0.621382 3.728293,-0.621382 0.58172,0 1.282428,0.05288 0.713928,0.05288 1.17666,0.185093 v 2.234332 q -0.502395,-0.158651 -1.123777,-0.237976 -0.621382,-0.07933 -1.242764,-0.07933 -2.445867,0 -3.834061,1.004789 -1.388194,0.991567 -1.983135,2.710284 -0.59494,1.705496 -0.687486,3.860502 h 0.145429 q 0.396627,-0.647824 1.01801,-1.17666 0.621382,-0.528836 1.493961,-0.832916 0.8858,-0.317302 2.06246,-0.317302 1.692275,0 2.948261,0.700708 1.255985,0.687486 1.943472,2.009576 0.687487,1.32209 0.687487,3.212679 0,2.009576 -0.753592,3.477096 -0.753591,1.46752 -2.155006,2.260774 -1.388194,0.793254 -3.318446,0.793254 -1.427857,0 -2.644179,-0.528836 -1.216323,-0.542057 -2.115344,-1.599729 -0.899021,-1.070893 -1.401415,-2.657401 -0.502395,-1.599728 -0.502395,-3.728293 z m 6.623671,6.306369 q 1.652612,0 2.644179,-1.057672 1.004789,-1.070893 1.004789,-3.252341 0,-1.784822 -0.8858,-2.816052 -0.885801,-1.044451 -2.670622,-1.044451 -1.216323,0 -2.128565,0.515615 -0.899021,0.515615 -1.401415,1.295648 -0.489173,0.766812 -0.489173,1.573287 0,0.832917 0.237976,1.679054 0.237976,0.832917 0.727149,1.546846 0.489174,0.700707 1.229544,1.136997 0.74037,0.423069 1.731938,0.423069 z"
         id="path32"
         style="font-weight:500;font-size:27.0764px;line-height:0;font-family:'open sans';-inkscape-font-specification:'open sans Medium';letter-spacing:-0.564091px;word-spacing:0px;display:inline;fill:#000000;fill-opacity:1;stroke-width:4.264;stroke-linecap:round;stroke-linejoin:round;stroke-opacity:0.501961"
         aria-label="26"
         inkscape:label="Symbol 26"
         transform="translate(-139.87891,115.24219)" />
    </g>
    <g
       id="g6"
       inkscape:label="Style - Outline (Black)"
       style="display:none">
      <path
         style="color:#000000;display:inline;fill:#000000;fill-opacity:1;stroke-linecap:round;stroke-linejoin:round;-inkscape-stroke:none"
         d="m -95.899378,138.00743 a 21.214285,21.214285 0 0 1 -21.214282,21.21429 21.214285,21.214285 0 0 1 -21.21429,-21.21429 21.214285,21.214285 0 0 1 21.21429,-21.21428 21.214285,21.214285 0 0 1 21.214282,21.21428 z"
         id="path5"
         inkscape:label="Circle" />
      <path
         style="color:#000000;display:inline;fill:#ffffff;fill-opacity:1;stroke-linecap:round;stroke-linejoin:round;-inkscape-stroke:none"
         d="m -117.11328,115.24219 c -12.554,0 -22.76563,10.21163 -22.76563,22.76562 0,12.554 10.21163,22.76367 22.76563,22.76367 12.55399,0 22.763671,-10.20967 22.763671,-22.76367 0,-12.55399 -10.209681,-22.76562 -22.763671,-22.76562 z m 0,3.10156 c 10.87863,0 19.664061,8.78543 19.664061,19.66406 0,10.87864 -8.785431,19.66406 -19.664061,19.66406 -10.87863,0 -19.66406,-8.78542 -19.66406,-19.66406 0,-10.87863 8.78543,-19.66406 19.66406,-19.66406 z"
         id="path6"
         inkscape:label="Outline" />
      <path
         d="M 22.146054,32.435734 H 9.2688987 V 30.346832 L 14.358945,25.17746 q 1.454299,-1.467519 2.406203,-2.564854 0.965126,-1.110556 1.454299,-2.141786 0.489173,-1.044451 0.489173,-2.273994 0,-1.507183 -0.8858,-2.300437 -0.8858,-0.793254 -2.35332,-0.793254 -1.32209,0 -2.392982,0.489174 -1.057672,0.475952 -2.19467,1.374973 l -1.4278567,-1.7716 q 0.7800327,-0.661045 1.6922747,-1.189881 0.912242,-0.542057 1.996356,-0.859359 1.084114,-0.317301 2.406204,-0.317301 1.811263,0 3.120132,0.634603 1.32209,0.634603 2.036018,1.798042 0.713929,1.163439 0.713929,2.723505 0,1.546846 -0.621383,2.868935 -0.608161,1.308869 -1.731937,2.604518 -1.123777,1.295648 -2.657401,2.763167 l -3.767956,3.728294 v 0.118988 h 9.505826 z m 2.159414,-8.249841 q 0,-1.731938 0.237977,-3.38455 0.251197,-1.652613 0.832916,-3.09369 0.594941,-1.441078 1.626171,-2.525192 1.03123,-1.097335 2.578075,-1.718717 1.546845,-0.621382 3.728293,-0.621382 0.58172,0 1.282428,0.05288 0.713928,0.05288 1.17666,0.185093 v 2.234332 q -0.502395,-0.158651 -1.123777,-0.237976 -0.621382,-0.07933 -1.242764,-0.07933 -2.445867,0 -3.834061,1.004789 -1.388194,0.991567 -1.983135,2.710284 -0.59494,1.705496 -0.687486,3.860502 h 0.145429 q 0.396627,-0.647824 1.01801,-1.17666 0.621382,-0.528836 1.493961,-0.832916 0.8858,-0.317302 2.06246,-0.317302 1.692275,0 2.948261,0.700708 1.255985,0.687486 1.943472,2.009576 0.687487,1.32209 0.687487,3.212679 0,2.009576 -0.753592,3.477096 -0.753591,1.46752 -2.155006,2.260774 -1.388194,0.793254 -3.318446,0.793254 -1.427857,0 -2.644179,-0.528836 -1.216323,-0.542057 -2.115344,-1.599729 -0.899021,-1.070893 -1.401415,-2.657401 -0.502395,-1.599728 -0.502395,-3.728293 z m 6.623671,6.306369 q 1.652612,0 2.644179,-1.057672 1.004789,-1.070893 1.004789,-3.252341 0,-1.784822 -0.8858,-2.816052 -0.885801,-1.044451 -2.670622,-1.044451 -1.216323,0 -2.128565,0.515615 -0.899021,0.515615 -1.401415,1.295648 -0.489173,0.766812 -0.489173,1.573287 0,0.832917 0.237976,1.679054 0.237976,0.832917 0.727149,1.546846 0.489174,0.700707 1.229544,1.136997 0.74037,0.423069 1.731938,0.423069 z"
         id="path33"
         style="font-weight:500;font-size:27.0764px;line-height:0;font-family:'open sans';-inkscape-font-specification:'open sans Medium';letter-spacing:-0.564091px;word-spacing:0px;display:inline;fill:#ffffff;fill-opacity:1;stroke-width:4.264;stroke-linecap:round;stroke-linejoin:round;stroke-opacity:0.501961"
         aria-label="26"
         inkscape:label="Symbol 26"
         transform="translate(-139.87891,115.24219)" />
    </g>
    <g
       id="g8"
       inkscape:label="Style - Transparent"
       style="display:inline;fill:#ffffff;fill-opacity:1">
      <path
         style="color:#000000;display:inline;fill:#808080;fill-opacity:0.501031;stroke-linecap:round;stroke-linejoin:round;-inkscape-stroke:none;paint-order:stroke markers fill"
         d="m -117.11328,115.24219 c -12.554,-10e-6 -22.76562,10.21163 -22.76563,22.76562 0,12.554 10.21163,22.76368 22.76563,22.76367 12.554,0 22.763674,-10.20967 22.763671,-22.76367 -3e-6,-12.55399 -10.209681,-22.76562 -22.763671,-22.76562 z m 0,3.10156 c 10.87863,0 19.664059,8.78543 19.664061,19.66406 3e-6,10.87864 -8.785431,19.66406 -19.664061,19.66406 -10.87864,10e-6 -19.66407,-8.78542 -19.66406,-19.66406 0,-10.87863 8.78543,-19.66406 19.66406,-19.66406 z"
         id="path9"
         inkscape:label="Outline" />
      <path
         style="color:#000000;display:inline;stroke-linecap:round;stroke-linejoin:round;-inkscape-stroke:none;paint-order:stroke markers fill"
         d="m -95.899378,138.00743 a 21.214285,21.214285 0 0 1 -21.214282,21.21429 21.214285,21.214285 0 0 1 -21.21429,-21.21429 21.214285,21.214285 0 0 1 21.21429,-21.21428 21.214285,21.214285 0 0 1 21.214282,21.21428 z"
         id="path10"
         inkscape:label="Circle" />
      <path
         d="M 22.146054,32.435734 H 9.2688987 V 30.346832 L 14.358945,25.17746 q 1.454299,-1.467519 2.406203,-2.564854 0.965126,-1.110556 1.454299,-2.141786 0.489173,-1.044451 0.489173,-2.273994 0,-1.507183 -0.8858,-2.300437 -0.8858,-0.793254 -2.35332,-0.793254 -1.32209,0 -2.392982,0.489174 -1.057672,0.475952 -2.19467,1.374973 l -1.4278567,-1.7716 q 0.7800327,-0.661045 1.6922747,-1.189881 0.912242,-0.542057 1.996356,-0.859359 1.084114,-0.317301 2.406204,-0.317301 1.811263,0 3.120132,0.634603 1.32209,0.634603 2.036018,1.798042 0.713929,1.163439 0.713929,2.723505 0,1.546846 -0.621383,2.868935 -0.608161,1.308869 -1.731937,2.604518 -1.123777,1.295648 -2.657401,2.763167 l -3.767956,3.728294 v 0.118988 h 9.505826 z m 2.159414,-8.249841 q 0,-1.731938 0.237977,-3.38455 0.251197,-1.652613 0.832916,-3.09369 0.594941,-1.441078 1.626171,-2.525192 1.03123,-1.097335 2.578075,-1.718717 1.546845,-0.621382 3.728293,-0.621382 0.58172,0 1.282428,0.05288 0.713928,0.05288 1.17666,0.185093 v 2.234332 q -0.502395,-0.158651 -1.123777,-0.237976 -0.621382,-0.07933 -1.242764,-0.07933 -2.445867,0 -3.834061,1.004789 -1.388194,0.991567 -1.983135,2.710284 -0.59494,1.705496 -0.687486,3.860502 h 0.145429 q 0.396627,-0.647824 1.01801,-1.17666 0.621382,-0.528836 1.493961,-0.832916 0.8858,-0.317302 2.06246,-0.317302 1.692275,0 2.948261,0.700708 1.255985,0.687486 1.943472,2.009576 0.687487,1.32209 0.687487,3.212679 0,2.009576 -0.753592,3.477096 -0.753591,1.46752 -2.155006,2.260774 -1.388194,0.793254 -3.318446,0.793254 -1.427857,0 -2.644179,-0.528836 -1.216323,-0.542057 -2.115344,-1.599729 -0.899021,-1.070893 -1.401415,-2.657401 -0.502395,-1.599728 -0.502395,-3.728293 z m 6.623671,6.306369 q 1.652612,0 2.644179,-1.057672 1.004789,-1.070893 1.004789,-3.252341 0,-1.784822 -0.8858,-2.816052 -0.885801,-1.044451 -2.670622,-1.044451 -1.216323,0 -2.128565,0.515615 -0.899021,0.515615 -1.401415,1.295648 -0.489173,0.766812 -0.489173,1.573287 0,0.832917 0.237976,1.679054 0.237976,0.832917 0.727149,1.546846 0.489174,0.700707 1.229544,1.136997 0.74037,0.423069 1.731938,0.423069 z"
         id="path34"
         style="font-weight:500;font-size:27.0764px;line-height:0;font-family:'open sans';-inkscape-font-specification:'open sans Medium';letter-spacing:-0.564091px;word-spacing:0px;fill:#808080;stroke-width:4.264;stroke-linecap:round;stroke-linejoin:round;stroke-opacity:0.501961"
         aria-label="26"
         inkscape:label="Symbol 26"
         transform="translate(-139.87891,115.24219)" />
    </g>
  </g>
  <metadata
     id="metadata8">
    <rdf:RDF>
      <cc:Work
         rdf:about="">
        <cc:license
           rdf:resource="https://opensource.org/license/mit" />
      </cc:Work>
    </rdf:RDF>
  </metadata>
</svg>
