<?xml version="1.0" encoding="UTF-8" standalone="no"?>
<!-- Created with Inkscape (http://www.inkscape.org/) -->

<svg
   width="45.529301mm"
   height="45.529289mm"
   viewBox="0 0 45.529303 45.529285"
   version="1.1"
   id="svg1"
   sodipodi:docname="directinput-31.svg"
   inkscape:version="1.3.2 (091e20e, 2023-11-25, custom)"
   xmlns:inkscape="http://www.inkscape.org/namespaces/inkscape"
   xmlns:sodipodi="http://sodipodi.sourceforge.net/DTD/sodipodi-0.dtd"
   xmlns="http://www.w3.org/2000/svg"
   xmlns:svg="http://www.w3.org/2000/svg"
   xmlns:rdf="http://www.w3.org/1999/02/22-rdf-syntax-ns#"
   xmlns:cc="http://creativecommons.org/ns#">
  <sodipodi:namedview
     id="namedview1"
     pagecolor="#3e8d2e"
     bordercolor="#000000"
     borderopacity="0.25"
     inkscape:showpageshadow="true"
     inkscape:pageopacity="0.0"
     inkscape:pagecheckerboard="false"
     inkscape:deskcolor="#d1d1d1"
     inkscape:document-units="mm"
     inkscape:zoom="5.6568542"
     inkscape:cx="55.949825"
     inkscape:cy="83.350213"
     inkscape:window-width="2560"
     inkscape:window-height="1351"
     inkscape:window-x="-9"
     inkscape:window-y="-9"
     inkscape:window-maximized="1"
     inkscape:current-layer="layer1"
     labelstyle="default"
     showborder="true" />
  <defs
     id="defs1">
    <rect
       x="-329.58707"
       y="426.24316"
       width="115.7824"
       height="107.24387"
       id="rect2" />
    <rect
       x="-486.35437"
       y="484.30515"
       width="87.776039"
       height="93.582237"
       id="rect1" />
  </defs>
  <g
     inkscape:label="Button Prompt 31"
     id="layer1"
     transform="translate(139.87891,-115.24219)"
     style="display:inline">
    <g
       id="path1"
       inkscape:label="Style - Outline (White)"
       style="display:none">
      <path
         style="color:#000000;display:inline;fill:#ffffff;fill-opacity:1;stroke-linecap:round;stroke-linejoin:round;-inkscape-stroke:none"
         d="m -95.899378,138.00743 a 21.214285,21.214285 0 0 1 -21.214282,21.21429 21.214285,21.214285 0 0 1 -21.21429,-21.21429 21.214285,21.214285 0 0 1 21.21429,-21.21428 21.214285,21.214285 0 0 1 21.214282,21.21428 z"
         id="path3"
         inkscape:label="Circle" />
      <path
         style="color:#000000;display:inline;fill:#000000;fill-opacity:1;stroke-linecap:round;stroke-linejoin:round;-inkscape-stroke:none"
         d="m -117.11328,115.24219 c -12.554,0 -22.76563,10.21163 -22.76563,22.76562 0,12.554 10.21163,22.76367 22.76563,22.76367 12.55399,0 22.763671,-10.20967 22.763671,-22.76367 0,-12.55399 -10.209681,-22.76562 -22.763671,-22.76562 z m 0,3.10156 c 10.87863,0 19.664061,8.78543 19.664061,19.66406 0,10.87864 -8.785431,19.66406 -19.664061,19.66406 -10.87863,0 -19.66406,-8.78542 -19.66406,-19.66406 0,-10.87863 8.78543,-19.66406 19.66406,-19.66406 z"
         id="path4"
         inkscape:label="Outline" />
      <path
         d="m 22.854786,17.562223 q 0,1.308869 -0.515615,2.273994 -0.515615,0.951905 -1.427857,1.560066 -0.912242,0.608162 -2.115344,0.859359 v 0.09255 q 2.300436,0.29086 3.463876,1.46752 1.17666,1.17666 1.17666,3.106911 0,1.679054 -0.793254,2.987923 -0.793254,1.308869 -2.445867,2.049239 -1.639391,0.740371 -4.217466,0.740371 -1.546846,0 -2.868935,-0.251197 -1.32209,-0.251197 -2.511971,-0.806475 v -2.419425 q 1.203102,0.608162 2.604517,0.951905 1.401415,0.330523 2.697063,0.330523 2.525192,0 3.622526,-0.978347 1.110556,-0.978346 1.110556,-2.697063 0,-1.136998 -0.59494,-1.850926 -0.594941,-0.72715 -1.771601,-1.070893 -1.163439,-0.343743 -2.908598,-0.343743 h -1.811263 v -2.19467 h 1.837705 q 1.626171,0 2.670622,-0.423068 1.057672,-0.43629 1.573287,-1.216323 0.515615,-0.780033 0.515615,-1.824484 0,-1.361753 -0.899021,-2.102123 -0.885801,-0.753591 -2.511971,-0.753591 -1.004788,0 -1.837705,0.224755 -0.819696,0.211535 -1.533624,0.568499 -0.700708,0.356964 -1.361753,0.806475 L 10.691559,14.81228 q 1.070893,-0.819696 2.591296,-1.401416 1.533625,-0.581719 3.503538,-0.581719 2.974703,0 4.521548,1.308869 1.546845,1.308869 1.546845,3.424213 z M 34.268829,32.435734 H 31.63787 V 19.360265 q 0,-0.700708 0,-1.282427 0.01322,-0.594941 0.03966,-1.123777 0.02644,-0.542057 0.05288,-1.044451 -0.343744,0.356965 -0.72715,0.687487 -0.370185,0.317302 -0.859358,0.727149 l -2.20789,1.784822 -1.361753,-1.745159 5.486673,-4.257129 h 2.20789 z"
         id="text38"
         style="font-weight:500;font-size:27.0764px;line-height:0;font-family:'open sans';-inkscape-font-specification:'open sans Medium';letter-spacing:-0.564091px;word-spacing:0px;display:inline;fill:#000000;fill-opacity:1;stroke-width:4.264;stroke-linecap:round;stroke-linejoin:round;stroke-opacity:0.501961"
         inkscape:label="Symbol 31"
         aria-label="31"
         transform="translate(-139.87891,115.24219)" />
    </g>
    <g
       id="g6"
       inkscape:label="Style - Outline (Black)"
       style="display:none">
      <path
         style="color:#000000;display:inline;fill:#000000;fill-opacity:1;stroke-linecap:round;stroke-linejoin:round;-inkscape-stroke:none"
         d="m -95.899378,138.00743 a 21.214285,21.214285 0 0 1 -21.214282,21.21429 21.214285,21.214285 0 0 1 -21.21429,-21.21429 21.214285,21.214285 0 0 1 21.21429,-21.21428 21.214285,21.214285 0 0 1 21.214282,21.21428 z"
         id="path5"
         inkscape:label="Circle" />
      <path
         style="color:#000000;display:inline;fill:#ffffff;fill-opacity:1;stroke-linecap:round;stroke-linejoin:round;-inkscape-stroke:none"
         d="m -117.11328,115.24219 c -12.554,0 -22.76563,10.21163 -22.76563,22.76562 0,12.554 10.21163,22.76367 22.76563,22.76367 12.55399,0 22.763671,-10.20967 22.763671,-22.76367 0,-12.55399 -10.209681,-22.76562 -22.763671,-22.76562 z m 0,3.10156 c 10.87863,0 19.664061,8.78543 19.664061,19.66406 0,10.87864 -8.785431,19.66406 -19.664061,19.66406 -10.87863,0 -19.66406,-8.78542 -19.66406,-19.66406 0,-10.87863 8.78543,-19.66406 19.66406,-19.66406 z"
         id="path6"
         inkscape:label="Outline" />
      <path
         d="m 22.854786,17.562223 q 0,1.308869 -0.515615,2.273994 -0.515615,0.951905 -1.427857,1.560066 -0.912242,0.608162 -2.115344,0.859359 v 0.09255 q 2.300436,0.29086 3.463876,1.46752 1.17666,1.17666 1.17666,3.106911 0,1.679054 -0.793254,2.987923 -0.793254,1.308869 -2.445867,2.049239 -1.639391,0.740371 -4.217466,0.740371 -1.546846,0 -2.868935,-0.251197 -1.32209,-0.251197 -2.511971,-0.806475 v -2.419425 q 1.203102,0.608162 2.604517,0.951905 1.401415,0.330523 2.697063,0.330523 2.525192,0 3.622526,-0.978347 1.110556,-0.978346 1.110556,-2.697063 0,-1.136998 -0.59494,-1.850926 -0.594941,-0.72715 -1.771601,-1.070893 -1.163439,-0.343743 -2.908598,-0.343743 h -1.811263 v -2.19467 h 1.837705 q 1.626171,0 2.670622,-0.423068 1.057672,-0.43629 1.573287,-1.216323 0.515615,-0.780033 0.515615,-1.824484 0,-1.361753 -0.899021,-2.102123 -0.885801,-0.753591 -2.511971,-0.753591 -1.004788,0 -1.837705,0.224755 -0.819696,0.211535 -1.533624,0.568499 -0.700708,0.356964 -1.361753,0.806475 L 10.691559,14.81228 q 1.070893,-0.819696 2.591296,-1.401416 1.533625,-0.581719 3.503538,-0.581719 2.974703,0 4.521548,1.308869 1.546845,1.308869 1.546845,3.424213 z M 34.268829,32.435734 H 31.63787 V 19.360265 q 0,-0.700708 0,-1.282427 0.01322,-0.594941 0.03966,-1.123777 0.02644,-0.542057 0.05288,-1.044451 -0.343744,0.356965 -0.72715,0.687487 -0.370185,0.317302 -0.859358,0.727149 l -2.20789,1.784822 -1.361753,-1.745159 5.486673,-4.257129 h 2.20789 z"
         id="path39"
         style="font-weight:500;font-size:27.0764px;line-height:0;font-family:'open sans';-inkscape-font-specification:'open sans Medium';letter-spacing:-0.564091px;word-spacing:0px;display:inline;fill:#ffffff;fill-opacity:1;stroke-width:4.264;stroke-linecap:round;stroke-linejoin:round;stroke-opacity:0.501961"
         inkscape:label="Symbol 31"
         aria-label="31"
         transform="translate(-139.87891,115.24219)" />
    </g>
    <g
       id="g8"
       inkscape:label="Style - Transparent"
       style="display:inline;fill:#ffffff;fill-opacity:1">
      <path
         style="color:#000000;display:inline;fill:#808080;fill-opacity:0.501031;stroke-linecap:round;stroke-linejoin:round;-inkscape-stroke:none;paint-order:stroke markers fill"
         d="m -117.11328,115.24219 c -12.554,-10e-6 -22.76562,10.21163 -22.76563,22.76562 0,12.554 10.21163,22.76368 22.76563,22.76367 12.554,0 22.763674,-10.20967 22.763671,-22.76367 -3e-6,-12.55399 -10.209681,-22.76562 -22.763671,-22.76562 z m 0,3.10156 c 10.87863,0 19.664059,8.78543 19.664061,19.66406 3e-6,10.87864 -8.785431,19.66406 -19.664061,19.66406 -10.87864,10e-6 -19.66407,-8.78542 -19.66406,-19.66406 0,-10.87863 8.78543,-19.66406 19.66406,-19.66406 z"
         id="path9"
         inkscape:label="Outline" />
      <path
         style="color:#000000;display:inline;stroke-linecap:round;stroke-linejoin:round;-inkscape-stroke:none;paint-order:stroke markers fill"
         d="m -95.899378,138.00743 a 21.214285,21.214285 0 0 1 -21.214282,21.21429 21.214285,21.214285 0 0 1 -21.21429,-21.21429 21.214285,21.214285 0 0 1 21.21429,-21.21428 21.214285,21.214285 0 0 1 21.214282,21.21428 z"
         id="path10"
         inkscape:label="Circle" />
      <path
         d="m 22.854786,17.562223 q 0,1.308869 -0.515615,2.273994 -0.515615,0.951905 -1.427857,1.560066 -0.912242,0.608162 -2.115344,0.859359 v 0.09255 q 2.300436,0.29086 3.463876,1.46752 1.17666,1.17666 1.17666,3.106911 0,1.679054 -0.793254,2.987923 -0.793254,1.308869 -2.445867,2.049239 -1.639391,0.740371 -4.217466,0.740371 -1.546846,0 -2.868935,-0.251197 -1.32209,-0.251197 -2.511971,-0.806475 v -2.419425 q 1.203102,0.608162 2.604517,0.951905 1.401415,0.330523 2.697063,0.330523 2.525192,0 3.622526,-0.978347 1.110556,-0.978346 1.110556,-2.697063 0,-1.136998 -0.59494,-1.850926 -0.594941,-0.72715 -1.771601,-1.070893 -1.163439,-0.343743 -2.908598,-0.343743 h -1.811263 v -2.19467 h 1.837705 q 1.626171,0 2.670622,-0.423068 1.057672,-0.43629 1.573287,-1.216323 0.515615,-0.780033 0.515615,-1.824484 0,-1.361753 -0.899021,-2.102123 -0.885801,-0.753591 -2.511971,-0.753591 -1.004788,0 -1.837705,0.224755 -0.819696,0.211535 -1.533624,0.568499 -0.700708,0.356964 -1.361753,0.806475 L 10.691559,14.81228 q 1.070893,-0.819696 2.591296,-1.401416 1.533625,-0.581719 3.503538,-0.581719 2.974703,0 4.521548,1.308869 1.546845,1.308869 1.546845,3.424213 z M 34.268829,32.435734 H 31.63787 V 19.360265 q 0,-0.700708 0,-1.282427 0.01322,-0.594941 0.03966,-1.123777 0.02644,-0.542057 0.05288,-1.044451 -0.343744,0.356965 -0.72715,0.687487 -0.370185,0.317302 -0.859358,0.727149 l -2.20789,1.784822 -1.361753,-1.745159 5.486673,-4.257129 h 2.20789 z"
         id="path38"
         style="font-weight:500;font-size:27.0764px;line-height:0;font-family:'open sans';-inkscape-font-specification:'open sans Medium';letter-spacing:-0.564091px;word-spacing:0px;fill:#808080;stroke-width:4.264;stroke-linecap:round;stroke-linejoin:round;stroke-opacity:0.501961"
         inkscape:label="Symbol 31"
         aria-label="31"
         transform="translate(-139.87891,115.24219)" />
    </g>
  </g>
  <metadata
     id="metadata8">
    <rdf:RDF>
      <cc:Work
         rdf:about="">
        <cc:license
           rdf:resource="https://opensource.org/license/mit" />
      </cc:Work>
    </rdf:RDF>
  </metadata>
</svg>
