<?xml version="1.0" encoding="UTF-8" standalone="no"?>
<!-- Created with Inkscape (http://www.inkscape.org/) -->

<svg
   width="45.529301mm"
   height="45.529289mm"
   viewBox="0 0 45.529303 45.529285"
   version="1.1"
   id="svg1"
   sodipodi:docname="directinput-19.svg"
   inkscape:version="1.3.2 (091e20e, 2023-11-25, custom)"
   xmlns:inkscape="http://www.inkscape.org/namespaces/inkscape"
   xmlns:sodipodi="http://sodipodi.sourceforge.net/DTD/sodipodi-0.dtd"
   xmlns="http://www.w3.org/2000/svg"
   xmlns:svg="http://www.w3.org/2000/svg"
   xmlns:rdf="http://www.w3.org/1999/02/22-rdf-syntax-ns#"
   xmlns:cc="http://creativecommons.org/ns#">
  <sodipodi:namedview
     id="namedview1"
     pagecolor="#3e8d2e"
     bordercolor="#000000"
     borderopacity="0.25"
     inkscape:showpageshadow="true"
     inkscape:pageopacity="0.0"
     inkscape:pagecheckerboard="false"
     inkscape:deskcolor="#d1d1d1"
     inkscape:document-units="mm"
     inkscape:zoom="4"
     inkscape:cx="108.5"
     inkscape:cy="65.375"
     inkscape:window-width="2560"
     inkscape:window-height="1351"
     inkscape:window-x="-9"
     inkscape:window-y="-9"
     inkscape:window-maximized="1"
     inkscape:current-layer="svg1"
     labelstyle="default"
     showborder="true" />
  <defs
     id="defs1">
    <rect
       x="-329.58707"
       y="426.24316"
       width="115.7824"
       height="107.24387"
       id="rect2" />
    <rect
       x="-486.35437"
       y="484.30515"
       width="87.776039"
       height="93.582237"
       id="rect1" />
  </defs>
  <g
     inkscape:label="Button Prompt 19"
     id="layer1"
     transform="translate(139.87891,-115.24219)"
     style="display:inline">
    <g
       id="path1"
       inkscape:label="Style - Outline (White)"
       style="display:none">
      <path
         style="color:#000000;display:inline;fill:#ffffff;fill-opacity:1;stroke-linecap:round;stroke-linejoin:round;-inkscape-stroke:none"
         d="m -95.899378,138.00743 a 21.214285,21.214285 0 0 1 -21.214282,21.21429 21.214285,21.214285 0 0 1 -21.21429,-21.21429 21.214285,21.214285 0 0 1 21.21429,-21.21428 21.214285,21.214285 0 0 1 21.214282,21.21428 z"
         id="path3"
         inkscape:label="Circle" />
      <path
         style="color:#000000;display:inline;fill:#000000;fill-opacity:1;stroke-linecap:round;stroke-linejoin:round;-inkscape-stroke:none"
         d="m -117.11328,115.24219 c -12.554,0 -22.76563,10.21163 -22.76563,22.76562 0,12.554 10.21163,22.76367 22.76563,22.76367 12.55399,0 22.763671,-10.20967 22.763671,-22.76367 0,-12.55399 -10.209681,-22.76562 -22.763671,-22.76562 z m 0,3.10156 c 10.87863,0 19.664061,8.78543 19.664061,19.66406 0,10.87864 -8.785431,19.66406 -19.664061,19.66406 -10.87863,0 -19.66406,-8.78542 -19.66406,-19.66406 0,-10.87863 8.78543,-19.66406 19.66406,-19.66406 z"
         id="path4"
         inkscape:label="Outline" />
      <path
         d="M 17.608498,32.422512 H 14.977539 V 19.347043 q 0,-0.700708 0,-1.282427 0.01322,-0.59494 0.03966,-1.123776 0.02644,-0.542057 0.05288,-1.044451 -0.343743,0.356964 -0.727149,0.687486 -0.370186,0.317302 -0.859359,0.72715 l -2.20789,1.784821 -1.3617525,-1.745159 5.4866735,-4.257129 h 2.20789 z M 35.615366,21.330178 q 0,1.731938 -0.251197,3.397771 -0.237976,1.652612 -0.832916,3.106911 -0.58172,1.441078 -1.61295,2.538413 -1.03123,1.084113 -2.591296,1.705496 -1.560066,0.621382 -3.728294,0.621382 -0.568498,0 -1.308869,-0.06611 -0.74037,-0.0661 -1.216322,-0.198313 V 30.18818 q 0.502394,0.171872 1.150218,0.264418 0.647824,0.09255 1.269206,0.09255 2.459087,0 3.847282,-0.991567 1.388194,-0.991567 1.983135,-2.697063 0.608161,-1.718717 0.687486,-3.886945 h -0.15865 q -0.396627,0.634604 -1.004789,1.16344 -0.608161,0.528835 -1.493961,0.846137 -0.885801,0.317302 -2.115344,0.317302 -1.665833,0 -2.908598,-0.687487 -1.242764,-0.700708 -1.930251,-2.022798 -0.687487,-1.32209 -0.687487,-3.199457 0,-2.022798 0.766812,-3.490317 0.766812,-1.480741 2.168228,-2.273995 1.401415,-0.793254 3.305224,-0.793254 1.441078,0 2.657401,0.542057 1.216323,0.528836 2.115344,1.599729 0.899021,1.057672 1.388194,2.6574 0.502394,1.586508 0.502394,3.701852 z m -6.636891,-6.279927 q -1.62617,0 -2.630959,1.070893 -1.004788,1.057672 -1.004788,3.225899 0,1.798042 0.859358,2.842493 0.87258,1.03123 2.670622,1.03123 1.242764,0 2.141786,-0.502394 0.912242,-0.515615 1.401415,-1.295648 0.502394,-0.780033 0.502394,-1.599729 0,-0.819695 -0.237976,-1.652612 -0.237976,-0.846137 -0.72715,-1.546845 -0.489173,-0.713929 -1.229543,-1.136997 -0.740371,-0.43629 -1.745159,-0.43629 z"
         id="text24"
         style="font-weight:500;font-size:27.0764px;line-height:0;font-family:'open sans';-inkscape-font-specification:'open sans Medium';letter-spacing:-1.69227px;word-spacing:0px;display:inline;fill:#000000;fill-opacity:1;stroke-width:4.264;stroke-linecap:round;stroke-linejoin:round;stroke-opacity:0.501961"
         inkscape:label="Symbol 19"
         aria-label="19"
         transform="translate(-139.87891,115.24219)" />
    </g>
    <g
       id="g6"
       inkscape:label="Style - Outline (Black)"
       style="display:none">
      <path
         style="color:#000000;display:inline;fill:#000000;fill-opacity:1;stroke-linecap:round;stroke-linejoin:round;-inkscape-stroke:none"
         d="m -95.899378,138.00743 a 21.214285,21.214285 0 0 1 -21.214282,21.21429 21.214285,21.214285 0 0 1 -21.21429,-21.21429 21.214285,21.214285 0 0 1 21.21429,-21.21428 21.214285,21.214285 0 0 1 21.214282,21.21428 z"
         id="path5"
         inkscape:label="Circle" />
      <path
         style="color:#000000;display:inline;fill:#ffffff;fill-opacity:1;stroke-linecap:round;stroke-linejoin:round;-inkscape-stroke:none"
         d="m -117.11328,115.24219 c -12.554,0 -22.76563,10.21163 -22.76563,22.76562 0,12.554 10.21163,22.76367 22.76563,22.76367 12.55399,0 22.763671,-10.20967 22.763671,-22.76367 0,-12.55399 -10.209681,-22.76562 -22.763671,-22.76562 z m 0,3.10156 c 10.87863,0 19.664061,8.78543 19.664061,19.66406 0,10.87864 -8.785431,19.66406 -19.664061,19.66406 -10.87863,0 -19.66406,-8.78542 -19.66406,-19.66406 0,-10.87863 8.78543,-19.66406 19.66406,-19.66406 z"
         id="path6"
         inkscape:label="Outline" />
      <path
         d="M 17.608498,32.422512 H 14.977539 V 19.347043 q 0,-0.700708 0,-1.282427 0.01322,-0.59494 0.03966,-1.123776 0.02644,-0.542057 0.05288,-1.044451 -0.343743,0.356964 -0.727149,0.687486 -0.370186,0.317302 -0.859359,0.72715 l -2.20789,1.784821 -1.3617525,-1.745159 5.4866735,-4.257129 h 2.20789 z M 35.615366,21.330178 q 0,1.731938 -0.251197,3.397771 -0.237976,1.652612 -0.832916,3.106911 -0.58172,1.441078 -1.61295,2.538413 -1.03123,1.084113 -2.591296,1.705496 -1.560066,0.621382 -3.728294,0.621382 -0.568498,0 -1.308869,-0.06611 -0.74037,-0.0661 -1.216322,-0.198313 V 30.18818 q 0.502394,0.171872 1.150218,0.264418 0.647824,0.09255 1.269206,0.09255 2.459087,0 3.847282,-0.991567 1.388194,-0.991567 1.983135,-2.697063 0.608161,-1.718717 0.687486,-3.886945 h -0.15865 q -0.396627,0.634604 -1.004789,1.16344 -0.608161,0.528835 -1.493961,0.846137 -0.885801,0.317302 -2.115344,0.317302 -1.665833,0 -2.908598,-0.687487 -1.242764,-0.700708 -1.930251,-2.022798 -0.687487,-1.32209 -0.687487,-3.199457 0,-2.022798 0.766812,-3.490317 0.766812,-1.480741 2.168228,-2.273995 1.401415,-0.793254 3.305224,-0.793254 1.441078,0 2.657401,0.542057 1.216323,0.528836 2.115344,1.599729 0.899021,1.057672 1.388194,2.6574 0.502394,1.586508 0.502394,3.701852 z m -6.636891,-6.279927 q -1.62617,0 -2.630959,1.070893 -1.004788,1.057672 -1.004788,3.225899 0,1.798042 0.859358,2.842493 0.87258,1.03123 2.670622,1.03123 1.242764,0 2.141786,-0.502394 0.912242,-0.515615 1.401415,-1.295648 0.502394,-0.780033 0.502394,-1.599729 0,-0.819695 -0.237976,-1.652612 -0.237976,-0.846137 -0.72715,-1.546845 -0.489173,-0.713929 -1.229543,-1.136997 -0.740371,-0.43629 -1.745159,-0.43629 z"
         id="path25"
         style="font-weight:500;font-size:27.0764px;line-height:0;font-family:'open sans';-inkscape-font-specification:'open sans Medium';letter-spacing:-1.69227px;word-spacing:0px;display:inline;fill:#ffffff;fill-opacity:1;stroke-width:4.264;stroke-linecap:round;stroke-linejoin:round;stroke-opacity:0.501961"
         inkscape:label="Symbol 19"
         aria-label="19"
         transform="translate(-139.87891,115.24219)" />
    </g>
    <g
       id="g8"
       inkscape:label="Style - Transparent"
       style="display:inline;fill:#ffffff;fill-opacity:1">
      <path
         style="color:#000000;display:inline;fill:#808080;fill-opacity:0.501031;stroke-linecap:round;stroke-linejoin:round;-inkscape-stroke:none;paint-order:stroke markers fill"
         d="m -117.11328,115.24219 c -12.554,-10e-6 -22.76562,10.21163 -22.76563,22.76562 0,12.554 10.21163,22.76368 22.76563,22.76367 12.554,0 22.763674,-10.20967 22.763671,-22.76367 -3e-6,-12.55399 -10.209681,-22.76562 -22.763671,-22.76562 z m 0,3.10156 c 10.87863,0 19.664059,8.78543 19.664061,19.66406 3e-6,10.87864 -8.785431,19.66406 -19.664061,19.66406 -10.87864,10e-6 -19.66407,-8.78542 -19.66406,-19.66406 0,-10.87863 8.78543,-19.66406 19.66406,-19.66406 z"
         id="path9"
         inkscape:label="Outline" />
      <path
         style="color:#000000;display:inline;stroke-linecap:round;stroke-linejoin:round;-inkscape-stroke:none;paint-order:stroke markers fill"
         d="m -95.899378,138.00743 a 21.214285,21.214285 0 0 1 -21.214282,21.21429 21.214285,21.214285 0 0 1 -21.21429,-21.21429 21.214285,21.214285 0 0 1 21.21429,-21.21428 21.214285,21.214285 0 0 1 21.214282,21.21428 z"
         id="path10"
         inkscape:label="Circle" />
      <path
         d="M 17.608498,32.422512 H 14.977539 V 19.347043 q 0,-0.700708 0,-1.282427 0.01322,-0.59494 0.03966,-1.123776 0.02644,-0.542057 0.05288,-1.044451 -0.343743,0.356964 -0.727149,0.687486 -0.370186,0.317302 -0.859359,0.72715 l -2.20789,1.784821 -1.3617525,-1.745159 5.4866735,-4.257129 h 2.20789 z M 35.615366,21.330178 q 0,1.731938 -0.251197,3.397771 -0.237976,1.652612 -0.832916,3.106911 -0.58172,1.441078 -1.61295,2.538413 -1.03123,1.084113 -2.591296,1.705496 -1.560066,0.621382 -3.728294,0.621382 -0.568498,0 -1.308869,-0.06611 -0.74037,-0.0661 -1.216322,-0.198313 V 30.18818 q 0.502394,0.171872 1.150218,0.264418 0.647824,0.09255 1.269206,0.09255 2.459087,0 3.847282,-0.991567 1.388194,-0.991567 1.983135,-2.697063 0.608161,-1.718717 0.687486,-3.886945 h -0.15865 q -0.396627,0.634604 -1.004789,1.16344 -0.608161,0.528835 -1.493961,0.846137 -0.885801,0.317302 -2.115344,0.317302 -1.665833,0 -2.908598,-0.687487 -1.242764,-0.700708 -1.930251,-2.022798 -0.687487,-1.32209 -0.687487,-3.199457 0,-2.022798 0.766812,-3.490317 0.766812,-1.480741 2.168228,-2.273995 1.401415,-0.793254 3.305224,-0.793254 1.441078,0 2.657401,0.542057 1.216323,0.528836 2.115344,1.599729 0.899021,1.057672 1.388194,2.6574 0.502394,1.586508 0.502394,3.701852 z m -6.636891,-6.279927 q -1.62617,0 -2.630959,1.070893 -1.004788,1.057672 -1.004788,3.225899 0,1.798042 0.859358,2.842493 0.87258,1.03123 2.670622,1.03123 1.242764,0 2.141786,-0.502394 0.912242,-0.515615 1.401415,-1.295648 0.502394,-0.780033 0.502394,-1.599729 0,-0.819695 -0.237976,-1.652612 -0.237976,-0.846137 -0.72715,-1.546845 -0.489173,-0.713929 -1.229543,-1.136997 -0.740371,-0.43629 -1.745159,-0.43629 z"
         id="path24"
         style="font-weight:500;font-size:27.0764px;line-height:0;font-family:'open sans';-inkscape-font-specification:'open sans Medium';letter-spacing:-1.69227px;word-spacing:0px;display:inline;fill:#808080;stroke-width:4.264;stroke-linecap:round;stroke-linejoin:round;stroke-opacity:0.501961"
         inkscape:label="Symbol 19"
         aria-label="19"
         transform="translate(-139.87891,115.24219)" />
    </g>
  </g>
  <metadata
     id="metadata8">
    <rdf:RDF>
      <cc:Work
         rdf:about="">
        <cc:license
           rdf:resource="https://opensource.org/license/mit" />
      </cc:Work>
    </rdf:RDF>
  </metadata>
</svg>
