<?xml version="1.0" encoding="UTF-8" standalone="no"?>
<!-- Created with Inkscape (http://www.inkscape.org/) -->

<svg
   width="45.529301mm"
   height="45.529289mm"
   viewBox="0 0 45.529303 45.529285"
   version="1.1"
   id="svg1"
   sodipodi:docname="directinput-18.svg"
   inkscape:version="1.3.2 (091e20e, 2023-11-25, custom)"
   xmlns:inkscape="http://www.inkscape.org/namespaces/inkscape"
   xmlns:sodipodi="http://sodipodi.sourceforge.net/DTD/sodipodi-0.dtd"
   xmlns="http://www.w3.org/2000/svg"
   xmlns:svg="http://www.w3.org/2000/svg"
   xmlns:rdf="http://www.w3.org/1999/02/22-rdf-syntax-ns#"
   xmlns:cc="http://creativecommons.org/ns#">
  <sodipodi:namedview
     id="namedview1"
     pagecolor="#3e8d2e"
     bordercolor="#000000"
     borderopacity="0.25"
     inkscape:showpageshadow="true"
     inkscape:pageopacity="0.0"
     inkscape:pagecheckerboard="false"
     inkscape:deskcolor="#d1d1d1"
     inkscape:document-units="mm"
     inkscape:zoom="4"
     inkscape:cx="113"
     inkscape:cy="63.625"
     inkscape:window-width="2560"
     inkscape:window-height="1351"
     inkscape:window-x="-9"
     inkscape:window-y="-9"
     inkscape:window-maximized="1"
     inkscape:current-layer="layer1"
     labelstyle="default"
     showborder="true" />
  <defs
     id="defs1">
    <rect
       x="-329.58707"
       y="426.24316"
       width="115.7824"
       height="107.24387"
       id="rect2" />
    <rect
       x="-486.35437"
       y="484.30515"
       width="87.776039"
       height="93.582237"
       id="rect1" />
  </defs>
  <g
     inkscape:label="Button Prompt 18"
     id="layer1"
     transform="translate(139.87891,-115.24219)"
     style="display:inline">
    <g
       id="path1"
       inkscape:label="Style - Outline (White)"
       style="display:none">
      <path
         style="color:#000000;display:inline;fill:#ffffff;fill-opacity:1;stroke-linecap:round;stroke-linejoin:round;-inkscape-stroke:none"
         d="m -95.899378,138.00743 a 21.214285,21.214285 0 0 1 -21.214282,21.21429 21.214285,21.214285 0 0 1 -21.21429,-21.21429 21.214285,21.214285 0 0 1 21.21429,-21.21428 21.214285,21.214285 0 0 1 21.214282,21.21428 z"
         id="path3"
         inkscape:label="Circle" />
      <path
         style="color:#000000;display:inline;fill:#000000;fill-opacity:1;stroke-linecap:round;stroke-linejoin:round;-inkscape-stroke:none"
         d="m -117.11328,115.24219 c -12.554,0 -22.76563,10.21163 -22.76563,22.76562 0,12.554 10.21163,22.76367 22.76563,22.76367 12.55399,0 22.763671,-10.20967 22.763671,-22.76367 0,-12.55399 -10.209681,-22.76562 -22.763671,-22.76562 z m 0,3.10156 c 10.87863,0 19.664061,8.78543 19.664061,19.66406 0,10.87864 -8.785431,19.66406 -19.664061,19.66406 -10.87863,0 -19.66406,-8.78542 -19.66406,-19.66406 0,-10.87863 8.78543,-19.66406 19.66406,-19.66406 z"
         id="path4"
         inkscape:label="Outline" />
      <path
         d="m -122.29024,147.67792 h -2.63096 v -13.07547 q 0,-0.70071 0,-1.28243 0.0132,-0.59494 0.0397,-1.12378 0.0264,-0.54205 0.0529,-1.04445 -0.34374,0.35697 -0.72715,0.68749 -0.37018,0.3173 -0.85936,0.72715 l -2.20789,1.78482 -1.36175,-1.74516 5.48667,-4.25713 h 2.20789 z m 11.59474,-19.6066 q 1.66583,0 2.98792,0.52884 1.33531,0.52884 2.0889,1.56007 0.76681,1.01801 0.76681,2.53841 0,1.16344 -0.50239,2.04924 -0.48917,0.87258 -1.33531,1.53362 -0.83292,0.64783 -1.86415,1.16344 1.18988,0.55528 2.16823,1.26921 0.97835,0.71393 1.56007,1.67905 0.58171,0.96513 0.58171,2.28722 0,1.61295 -0.80647,2.80283 -0.79325,1.17666 -2.23433,1.82448 -1.44108,0.63461 -3.37133,0.63461 -2.0889,0 -3.5432,-0.60817 -1.4543,-0.62138 -2.22111,-1.7716 -0.75359,-1.16344 -0.75359,-2.78961 0,-1.33531 0.55527,-2.31365 0.55528,-0.99157 1.46752,-1.69228 0.91225,-0.71393 1.99636,-1.21632 -0.93868,-0.52884 -1.71872,-1.2031 -0.76681,-0.67427 -1.22954,-1.57329 -0.44951,-0.91224 -0.44951,-2.10212 0,-1.48074 0.76681,-2.49875 0.78003,-1.03123 2.11534,-1.56007 1.33531,-0.54206 2.97471,-0.54206 z m -3.91339,14.64876 q 0,1.37497 0.96513,2.26077 0.97834,0.8858 2.93504,0.8858 1.87736,0 2.88215,-0.87257 1.01801,-0.88581 1.01801,-2.32688 0,-0.91225 -0.48917,-1.59973 -0.47596,-0.68749 -1.33531,-1.22955 -0.84614,-0.55527 -1.9567,-1.00478 l -0.44951,-0.17188 q -1.12377,0.47596 -1.91703,1.05768 -0.79325,0.5685 -1.22954,1.30887 -0.42307,0.72714 -0.42307,1.69227 z m 3.88694,-12.54663 q -1.42785,0 -2.34009,0.68748 -0.89903,0.68749 -0.89903,1.96992 0,0.92546 0.43629,1.57329 0.44951,0.6346 1.20311,1.11055 0.75359,0.46273 1.69227,0.85936 0.89902,-0.39663 1.61295,-0.85936 0.72715,-0.47595 1.137,-1.12378 0.42307,-0.66104 0.42307,-1.56006 0,-1.29565 -0.91225,-1.96992 -0.89902,-0.68748 -2.35332,-0.68748 z"
         id="text23"
         style="font-weight:500;font-size:27.0764px;line-height:0;font-family:'open sans';-inkscape-font-specification:'open sans Medium';letter-spacing:-1.69227px;word-spacing:0px;display:inline;fill:#000000;fill-opacity:1;stroke-width:4.264;stroke-linecap:round;stroke-linejoin:round;stroke-opacity:0.501961"
         inkscape:label="Symbol 18"
         aria-label="18"
         transform="translate(1.2499999e-6)" />
    </g>
    <g
       id="g6"
       inkscape:label="Style - Outline (Black)"
       style="display:none">
      <path
         style="color:#000000;display:inline;fill:#000000;fill-opacity:1;stroke-linecap:round;stroke-linejoin:round;-inkscape-stroke:none"
         d="m -95.899378,138.00743 a 21.214285,21.214285 0 0 1 -21.214282,21.21429 21.214285,21.214285 0 0 1 -21.21429,-21.21429 21.214285,21.214285 0 0 1 21.21429,-21.21428 21.214285,21.214285 0 0 1 21.214282,21.21428 z"
         id="path5"
         inkscape:label="Circle" />
      <path
         style="color:#000000;display:inline;fill:#ffffff;fill-opacity:1;stroke-linecap:round;stroke-linejoin:round;-inkscape-stroke:none"
         d="m -117.11328,115.24219 c -12.554,0 -22.76563,10.21163 -22.76563,22.76562 0,12.554 10.21163,22.76367 22.76563,22.76367 12.55399,0 22.763671,-10.20967 22.763671,-22.76367 0,-12.55399 -10.209681,-22.76562 -22.763671,-22.76562 z m 0,3.10156 c 10.87863,0 19.664061,8.78543 19.664061,19.66406 0,10.87864 -8.785431,19.66406 -19.664061,19.66406 -10.87863,0 -19.66406,-8.78542 -19.66406,-19.66406 0,-10.87863 8.78543,-19.66406 19.66406,-19.66406 z"
         id="path6"
         inkscape:label="Outline" />
      <path
         d="m -122.29024,147.67792 h -2.63096 v -13.07547 q 0,-0.70071 0,-1.28243 0.0132,-0.59494 0.0397,-1.12378 0.0264,-0.54205 0.0529,-1.04445 -0.34374,0.35697 -0.72715,0.68749 -0.37018,0.3173 -0.85936,0.72715 l -2.20789,1.78482 -1.36175,-1.74516 5.48667,-4.25713 h 2.20789 z m 11.59474,-19.6066 q 1.66583,0 2.98792,0.52884 1.33531,0.52884 2.0889,1.56007 0.76681,1.01801 0.76681,2.53841 0,1.16344 -0.50239,2.04924 -0.48917,0.87258 -1.33531,1.53362 -0.83292,0.64783 -1.86415,1.16344 1.18988,0.55528 2.16823,1.26921 0.97835,0.71393 1.56007,1.67905 0.58171,0.96513 0.58171,2.28722 0,1.61295 -0.80647,2.80283 -0.79325,1.17666 -2.23433,1.82448 -1.44108,0.63461 -3.37133,0.63461 -2.0889,0 -3.5432,-0.60817 -1.4543,-0.62138 -2.22111,-1.7716 -0.75359,-1.16344 -0.75359,-2.78961 0,-1.33531 0.55527,-2.31365 0.55528,-0.99157 1.46752,-1.69228 0.91225,-0.71393 1.99636,-1.21632 -0.93868,-0.52884 -1.71872,-1.2031 -0.76681,-0.67427 -1.22954,-1.57329 -0.44951,-0.91224 -0.44951,-2.10212 0,-1.48074 0.76681,-2.49875 0.78003,-1.03123 2.11534,-1.56007 1.33531,-0.54206 2.97471,-0.54206 z m -3.91339,14.64876 q 0,1.37497 0.96513,2.26077 0.97834,0.8858 2.93504,0.8858 1.87736,0 2.88215,-0.87257 1.01801,-0.88581 1.01801,-2.32688 0,-0.91225 -0.48917,-1.59973 -0.47596,-0.68749 -1.33531,-1.22955 -0.84614,-0.55527 -1.9567,-1.00478 l -0.44951,-0.17188 q -1.12377,0.47596 -1.91703,1.05768 -0.79325,0.5685 -1.22954,1.30887 -0.42307,0.72714 -0.42307,1.69227 z m 3.88694,-12.54663 q -1.42785,0 -2.34009,0.68748 -0.89903,0.68749 -0.89903,1.96992 0,0.92546 0.43629,1.57329 0.44951,0.6346 1.20311,1.11055 0.75359,0.46273 1.69227,0.85936 0.89902,-0.39663 1.61295,-0.85936 0.72715,-0.47595 1.137,-1.12378 0.42307,-0.66104 0.42307,-1.56006 0,-1.29565 -0.91225,-1.96992 -0.89902,-0.68748 -2.35332,-0.68748 z"
         id="path24"
         style="font-weight:500;font-size:27.0764px;line-height:0;font-family:'open sans';-inkscape-font-specification:'open sans Medium';letter-spacing:-1.69227px;word-spacing:0px;display:inline;fill:#ffffff;fill-opacity:1;stroke-width:4.264;stroke-linecap:round;stroke-linejoin:round;stroke-opacity:0.501961"
         inkscape:label="Symbol 18"
         aria-label="18"
         transform="translate(1.2499999e-6)" />
    </g>
    <g
       id="g8"
       inkscape:label="Style - Transparent"
       style="display:inline;fill:#ffffff;fill-opacity:1">
      <path
         style="color:#000000;display:inline;fill:#808080;fill-opacity:0.501031;stroke-linecap:round;stroke-linejoin:round;-inkscape-stroke:none;paint-order:stroke markers fill"
         d="m -117.11328,115.24219 c -12.554,-10e-6 -22.76562,10.21163 -22.76563,22.76562 0,12.554 10.21163,22.76368 22.76563,22.76367 12.554,0 22.763674,-10.20967 22.763671,-22.76367 -3e-6,-12.55399 -10.209681,-22.76562 -22.763671,-22.76562 z m 0,3.10156 c 10.87863,0 19.664059,8.78543 19.664061,19.66406 3e-6,10.87864 -8.785431,19.66406 -19.664061,19.66406 -10.87864,10e-6 -19.66407,-8.78542 -19.66406,-19.66406 0,-10.87863 8.78543,-19.66406 19.66406,-19.66406 z"
         id="path9"
         inkscape:label="Outline" />
      <path
         style="color:#000000;display:inline;stroke-linecap:round;stroke-linejoin:round;-inkscape-stroke:none;paint-order:stroke markers fill"
         d="m -95.899378,138.00743 a 21.214285,21.214285 0 0 1 -21.214282,21.21429 21.214285,21.214285 0 0 1 -21.21429,-21.21429 21.214285,21.214285 0 0 1 21.21429,-21.21428 21.214285,21.214285 0 0 1 21.214282,21.21428 z"
         id="path10"
         inkscape:label="Circle" />
      <path
         d="m -122.29024,147.67792 h -2.63096 v -13.07547 q 0,-0.70071 0,-1.28243 0.0132,-0.59494 0.0397,-1.12378 0.0264,-0.54205 0.0529,-1.04445 -0.34374,0.35697 -0.72715,0.68749 -0.37018,0.3173 -0.85936,0.72715 l -2.20789,1.78482 -1.36175,-1.74516 5.48667,-4.25713 h 2.20789 z m 11.59474,-19.6066 q 1.66583,0 2.98792,0.52884 1.33531,0.52884 2.0889,1.56007 0.76681,1.01801 0.76681,2.53841 0,1.16344 -0.50239,2.04924 -0.48917,0.87258 -1.33531,1.53362 -0.83292,0.64783 -1.86415,1.16344 1.18988,0.55528 2.16823,1.26921 0.97835,0.71393 1.56007,1.67905 0.58171,0.96513 0.58171,2.28722 0,1.61295 -0.80647,2.80283 -0.79325,1.17666 -2.23433,1.82448 -1.44108,0.63461 -3.37133,0.63461 -2.0889,0 -3.5432,-0.60817 -1.4543,-0.62138 -2.22111,-1.7716 -0.75359,-1.16344 -0.75359,-2.78961 0,-1.33531 0.55527,-2.31365 0.55528,-0.99157 1.46752,-1.69228 0.91225,-0.71393 1.99636,-1.21632 -0.93868,-0.52884 -1.71872,-1.2031 -0.76681,-0.67427 -1.22954,-1.57329 -0.44951,-0.91224 -0.44951,-2.10212 0,-1.48074 0.76681,-2.49875 0.78003,-1.03123 2.11534,-1.56007 1.33531,-0.54206 2.97471,-0.54206 z m -3.91339,14.64876 q 0,1.37497 0.96513,2.26077 0.97834,0.8858 2.93504,0.8858 1.87736,0 2.88215,-0.87257 1.01801,-0.88581 1.01801,-2.32688 0,-0.91225 -0.48917,-1.59973 -0.47596,-0.68749 -1.33531,-1.22955 -0.84614,-0.55527 -1.9567,-1.00478 l -0.44951,-0.17188 q -1.12377,0.47596 -1.91703,1.05768 -0.79325,0.5685 -1.22954,1.30887 -0.42307,0.72714 -0.42307,1.69227 z m 3.88694,-12.54663 q -1.42785,0 -2.34009,0.68748 -0.89903,0.68749 -0.89903,1.96992 0,0.92546 0.43629,1.57329 0.44951,0.6346 1.20311,1.11055 0.75359,0.46273 1.69227,0.85936 0.89902,-0.39663 1.61295,-0.85936 0.72715,-0.47595 1.137,-1.12378 0.42307,-0.66104 0.42307,-1.56006 0,-1.29565 -0.91225,-1.96992 -0.89902,-0.68748 -2.35332,-0.68748 z"
         id="path23"
         style="font-weight:500;font-size:27.0764px;line-height:0;font-family:'open sans';-inkscape-font-specification:'open sans Medium';letter-spacing:-1.69227px;word-spacing:0px;display:inline;fill:#808080;stroke-width:4.264;stroke-linecap:round;stroke-linejoin:round;stroke-opacity:0.501961"
         inkscape:label="Symbol 18"
         aria-label="18"
         transform="translate(1.2499999e-6)" />
    </g>
  </g>
  <metadata
     id="metadata8">
    <rdf:RDF>
      <cc:Work
         rdf:about="">
        <cc:license
           rdf:resource="https://opensource.org/license/mit" />
      </cc:Work>
    </rdf:RDF>
  </metadata>
</svg>
