<?xml version="1.0" encoding="UTF-8" standalone="no"?>
<!-- Created with Inkscape (http://www.inkscape.org/) -->

<svg
   width="45.529301mm"
   height="45.529289mm"
   viewBox="0 0 45.529303 45.529285"
   version="1.1"
   id="svg1"
   sodipodi:docname="directinput-25.svg"
   inkscape:version="1.3.2 (091e20e, 2023-11-25, custom)"
   xmlns:inkscape="http://www.inkscape.org/namespaces/inkscape"
   xmlns:sodipodi="http://sodipodi.sourceforge.net/DTD/sodipodi-0.dtd"
   xmlns="http://www.w3.org/2000/svg"
   xmlns:svg="http://www.w3.org/2000/svg"
   xmlns:rdf="http://www.w3.org/1999/02/22-rdf-syntax-ns#"
   xmlns:cc="http://creativecommons.org/ns#">
  <sodipodi:namedview
     id="namedview1"
     pagecolor="#3e8d2e"
     bordercolor="#000000"
     borderopacity="0.25"
     inkscape:showpageshadow="true"
     inkscape:pageopacity="0.0"
     inkscape:pagecheckerboard="false"
     inkscape:deskcolor="#d1d1d1"
     inkscape:document-units="mm"
     inkscape:zoom="4"
     inkscape:cx="56.5"
     inkscape:cy="99.625"
     inkscape:window-width="2560"
     inkscape:window-height="1351"
     inkscape:window-x="-9"
     inkscape:window-y="-9"
     inkscape:window-maximized="1"
     inkscape:current-layer="layer1"
     labelstyle="default"
     showborder="true" />
  <defs
     id="defs1">
    <rect
       x="-329.58707"
       y="426.24316"
       width="115.7824"
       height="107.24387"
       id="rect2" />
    <rect
       x="-486.35437"
       y="484.30515"
       width="87.776039"
       height="93.582237"
       id="rect1" />
  </defs>
  <g
     inkscape:label="Button Prompt 25"
     id="layer1"
     transform="translate(139.87891,-115.24219)"
     style="display:inline">
    <g
       id="path1"
       inkscape:label="Style - Outline (White)"
       style="display:none">
      <path
         style="color:#000000;display:inline;fill:#ffffff;fill-opacity:1;stroke-linecap:round;stroke-linejoin:round;-inkscape-stroke:none"
         d="m -95.899378,138.00743 a 21.214285,21.214285 0 0 1 -21.214282,21.21429 21.214285,21.214285 0 0 1 -21.21429,-21.21429 21.214285,21.214285 0 0 1 21.21429,-21.21428 21.214285,21.214285 0 0 1 21.214282,21.21428 z"
         id="path3"
         inkscape:label="Circle" />
      <path
         style="color:#000000;display:inline;fill:#000000;fill-opacity:1;stroke-linecap:round;stroke-linejoin:round;-inkscape-stroke:none"
         d="m -117.11328,115.24219 c -12.554,0 -22.76563,10.21163 -22.76563,22.76562 0,12.554 10.21163,22.76367 22.76563,22.76367 12.55399,0 22.763671,-10.20967 22.763671,-22.76367 0,-12.55399 -10.209681,-22.76562 -22.763671,-22.76562 z m 0,3.10156 c 10.87863,0 19.664061,8.78543 19.664061,19.66406 0,10.87864 -8.785431,19.66406 -19.664061,19.66406 -10.87863,0 -19.66406,-8.78542 -19.66406,-19.66406 0,-10.87863 8.78543,-19.66406 19.66406,-19.66406 z"
         id="path4"
         inkscape:label="Outline" />
      <path
         d="M 22.180954,32.435734 H 9.3037989 V 30.346832 L 14.393845,25.17746 q 1.454299,-1.467519 2.406204,-2.564854 0.965125,-1.110556 1.454298,-2.141786 0.489174,-1.044451 0.489174,-2.273994 0,-1.507183 -0.885801,-2.300437 -0.8858,-0.793254 -2.35332,-0.793254 -1.322089,0 -2.392982,0.489174 -1.057672,0.475952 -2.194669,1.374973 l -1.4278575,-1.7716 q 0.7800335,-0.661045 1.6922755,-1.189881 0.912242,-0.542057 1.996355,-0.859359 1.084114,-0.317301 2.406204,-0.317301 1.811263,0 3.120132,0.634603 1.32209,0.634603 2.036018,1.798042 0.713929,1.163439 0.713929,2.723505 0,1.546846 -0.621382,2.868935 -0.608162,1.308869 -1.731938,2.604518 -1.123776,1.295648 -2.657401,2.763167 l -3.767956,3.728294 v 0.118988 h 9.505826 z m 8.386458,-11.951693 q 1.91703,0 3.344887,0.674266 1.441078,0.661045 2.234332,1.943472 0.806475,1.282427 0.806475,3.120132 0,2.009577 -0.859358,3.463876 -0.859359,1.454299 -2.49875,2.234332 -1.639392,0.780033 -3.96627,0.780033 -1.507182,0 -2.816051,-0.264418 -1.308869,-0.264418 -2.221111,-0.793254 v -2.445866 q 0.978346,0.568498 2.35332,0.925463 1.388194,0.343743 2.670621,0.343743 1.401415,0 2.432646,-0.43629 1.044451,-0.436289 1.612949,-1.32209 0.568499,-0.8858 0.568499,-2.247552 0,-1.798043 -1.123777,-2.776389 -1.123776,-0.978347 -3.52998,-0.978347 -0.806474,0 -1.745158,0.14543 -0.938684,0.132209 -1.546845,0.277639 l -1.242765,-0.753591 0.740371,-9.26785 h 9.836348 v 2.366541 h -7.535912 l -0.449511,5.328022 q 0.489174,-0.105767 1.216323,-0.211535 0.727149,-0.105767 1.718717,-0.105767 z"
         id="text31"
         style="font-weight:500;font-size:27.0764px;line-height:0;font-family:'open sans';-inkscape-font-specification:'open sans Medium';letter-spacing:-0.564091px;word-spacing:0px;display:inline;fill:#000000;fill-opacity:1;stroke-width:4.264;stroke-linecap:round;stroke-linejoin:round;stroke-opacity:0.501961"
         inkscape:label="Symbol 25"
         aria-label="25"
         transform="translate(-139.87891,115.24219)" />
    </g>
    <g
       id="g6"
       inkscape:label="Style - Outline (Black)"
       style="display:none">
      <path
         style="color:#000000;display:inline;fill:#000000;fill-opacity:1;stroke-linecap:round;stroke-linejoin:round;-inkscape-stroke:none"
         d="m -95.899378,138.00743 a 21.214285,21.214285 0 0 1 -21.214282,21.21429 21.214285,21.214285 0 0 1 -21.21429,-21.21429 21.214285,21.214285 0 0 1 21.21429,-21.21428 21.214285,21.214285 0 0 1 21.214282,21.21428 z"
         id="path5"
         inkscape:label="Circle" />
      <path
         style="color:#000000;display:inline;fill:#ffffff;fill-opacity:1;stroke-linecap:round;stroke-linejoin:round;-inkscape-stroke:none"
         d="m -117.11328,115.24219 c -12.554,0 -22.76563,10.21163 -22.76563,22.76562 0,12.554 10.21163,22.76367 22.76563,22.76367 12.55399,0 22.763671,-10.20967 22.763671,-22.76367 0,-12.55399 -10.209681,-22.76562 -22.763671,-22.76562 z m 0,3.10156 c 10.87863,0 19.664061,8.78543 19.664061,19.66406 0,10.87864 -8.785431,19.66406 -19.664061,19.66406 -10.87863,0 -19.66406,-8.78542 -19.66406,-19.66406 0,-10.87863 8.78543,-19.66406 19.66406,-19.66406 z"
         id="path6"
         inkscape:label="Outline" />
      <path
         d="M 22.180954,32.435734 H 9.3037989 V 30.346832 L 14.393845,25.17746 q 1.454299,-1.467519 2.406204,-2.564854 0.965125,-1.110556 1.454298,-2.141786 0.489174,-1.044451 0.489174,-2.273994 0,-1.507183 -0.885801,-2.300437 -0.8858,-0.793254 -2.35332,-0.793254 -1.322089,0 -2.392982,0.489174 -1.057672,0.475952 -2.194669,1.374973 l -1.4278575,-1.7716 q 0.7800335,-0.661045 1.6922755,-1.189881 0.912242,-0.542057 1.996355,-0.859359 1.084114,-0.317301 2.406204,-0.317301 1.811263,0 3.120132,0.634603 1.32209,0.634603 2.036018,1.798042 0.713929,1.163439 0.713929,2.723505 0,1.546846 -0.621382,2.868935 -0.608162,1.308869 -1.731938,2.604518 -1.123776,1.295648 -2.657401,2.763167 l -3.767956,3.728294 v 0.118988 h 9.505826 z m 8.386458,-11.951693 q 1.91703,0 3.344887,0.674266 1.441078,0.661045 2.234332,1.943472 0.806475,1.282427 0.806475,3.120132 0,2.009577 -0.859358,3.463876 -0.859359,1.454299 -2.49875,2.234332 -1.639392,0.780033 -3.96627,0.780033 -1.507182,0 -2.816051,-0.264418 -1.308869,-0.264418 -2.221111,-0.793254 v -2.445866 q 0.978346,0.568498 2.35332,0.925463 1.388194,0.343743 2.670621,0.343743 1.401415,0 2.432646,-0.43629 1.044451,-0.436289 1.612949,-1.32209 0.568499,-0.8858 0.568499,-2.247552 0,-1.798043 -1.123777,-2.776389 -1.123776,-0.978347 -3.52998,-0.978347 -0.806474,0 -1.745158,0.14543 -0.938684,0.132209 -1.546845,0.277639 l -1.242765,-0.753591 0.740371,-9.26785 h 9.836348 v 2.366541 h -7.535912 l -0.449511,5.328022 q 0.489174,-0.105767 1.216323,-0.211535 0.727149,-0.105767 1.718717,-0.105767 z"
         id="path32"
         style="font-weight:500;font-size:27.0764px;line-height:0;font-family:'open sans';-inkscape-font-specification:'open sans Medium';letter-spacing:-0.564091px;word-spacing:0px;display:inline;fill:#ffffff;fill-opacity:1;stroke-width:4.264;stroke-linecap:round;stroke-linejoin:round;stroke-opacity:0.501961"
         inkscape:label="Symbol 25"
         aria-label="25"
         transform="translate(-139.87891,115.24219)" />
    </g>
    <g
       id="g8"
       inkscape:label="Style - Transparent"
       style="display:inline;fill:#ffffff;fill-opacity:1">
      <path
         style="color:#000000;display:inline;fill:#808080;fill-opacity:0.501031;stroke-linecap:round;stroke-linejoin:round;-inkscape-stroke:none;paint-order:stroke markers fill"
         d="m -117.11328,115.24219 c -12.554,-10e-6 -22.76562,10.21163 -22.76563,22.76562 0,12.554 10.21163,22.76368 22.76563,22.76367 12.554,0 22.763674,-10.20967 22.763671,-22.76367 -3e-6,-12.55399 -10.209681,-22.76562 -22.763671,-22.76562 z m 0,3.10156 c 10.87863,0 19.664059,8.78543 19.664061,19.66406 3e-6,10.87864 -8.785431,19.66406 -19.664061,19.66406 -10.87864,10e-6 -19.66407,-8.78542 -19.66406,-19.66406 0,-10.87863 8.78543,-19.66406 19.66406,-19.66406 z"
         id="path9"
         inkscape:label="Outline" />
      <path
         style="color:#000000;display:inline;stroke-linecap:round;stroke-linejoin:round;-inkscape-stroke:none;paint-order:stroke markers fill"
         d="m -95.899378,138.00743 a 21.214285,21.214285 0 0 1 -21.214282,21.21429 21.214285,21.214285 0 0 1 -21.21429,-21.21429 21.214285,21.214285 0 0 1 21.21429,-21.21428 21.214285,21.214285 0 0 1 21.214282,21.21428 z"
         id="path10"
         inkscape:label="Circle" />
      <path
         d="M 22.180954,32.435734 H 9.3037989 V 30.346832 L 14.393845,25.17746 q 1.454299,-1.467519 2.406204,-2.564854 0.965125,-1.110556 1.454298,-2.141786 0.489174,-1.044451 0.489174,-2.273994 0,-1.507183 -0.885801,-2.300437 -0.8858,-0.793254 -2.35332,-0.793254 -1.322089,0 -2.392982,0.489174 -1.057672,0.475952 -2.194669,1.374973 l -1.4278575,-1.7716 q 0.7800335,-0.661045 1.6922755,-1.189881 0.912242,-0.542057 1.996355,-0.859359 1.084114,-0.317301 2.406204,-0.317301 1.811263,0 3.120132,0.634603 1.32209,0.634603 2.036018,1.798042 0.713929,1.163439 0.713929,2.723505 0,1.546846 -0.621382,2.868935 -0.608162,1.308869 -1.731938,2.604518 -1.123776,1.295648 -2.657401,2.763167 l -3.767956,3.728294 v 0.118988 h 9.505826 z m 8.386458,-11.951693 q 1.91703,0 3.344887,0.674266 1.441078,0.661045 2.234332,1.943472 0.806475,1.282427 0.806475,3.120132 0,2.009577 -0.859358,3.463876 -0.859359,1.454299 -2.49875,2.234332 -1.639392,0.780033 -3.96627,0.780033 -1.507182,0 -2.816051,-0.264418 -1.308869,-0.264418 -2.221111,-0.793254 v -2.445866 q 0.978346,0.568498 2.35332,0.925463 1.388194,0.343743 2.670621,0.343743 1.401415,0 2.432646,-0.43629 1.044451,-0.436289 1.612949,-1.32209 0.568499,-0.8858 0.568499,-2.247552 0,-1.798043 -1.123777,-2.776389 -1.123776,-0.978347 -3.52998,-0.978347 -0.806474,0 -1.745158,0.14543 -0.938684,0.132209 -1.546845,0.277639 l -1.242765,-0.753591 0.740371,-9.26785 h 9.836348 v 2.366541 h -7.535912 l -0.449511,5.328022 q 0.489174,-0.105767 1.216323,-0.211535 0.727149,-0.105767 1.718717,-0.105767 z"
         id="path31"
         style="font-weight:500;font-size:27.0764px;line-height:0;font-family:'open sans';-inkscape-font-specification:'open sans Medium';letter-spacing:-0.564091px;word-spacing:0px;fill:#808080;stroke-width:4.264;stroke-linecap:round;stroke-linejoin:round;stroke-opacity:0.501961"
         inkscape:label="Symbol 25"
         aria-label="25"
         transform="translate(-139.87891,115.24219)" />
    </g>
  </g>
  <metadata
     id="metadata8">
    <rdf:RDF>
      <cc:Work
         rdf:about="">
        <cc:license
           rdf:resource="https://opensource.org/license/mit" />
      </cc:Work>
    </rdf:RDF>
  </metadata>
</svg>
