<?xml version="1.0" encoding="UTF-8" standalone="no"?>
<!-- Created with Inkscape (http://www.inkscape.org/) -->

<svg
   width="45.529301mm"
   height="45.529289mm"
   viewBox="0 0 45.529303 45.529285"
   version="1.1"
   id="svg1"
   sodipodi:docname="directinput-27.svg"
   inkscape:version="1.3.2 (091e20e, 2023-11-25, custom)"
   xmlns:inkscape="http://www.inkscape.org/namespaces/inkscape"
   xmlns:sodipodi="http://sodipodi.sourceforge.net/DTD/sodipodi-0.dtd"
   xmlns="http://www.w3.org/2000/svg"
   xmlns:svg="http://www.w3.org/2000/svg"
   xmlns:rdf="http://www.w3.org/1999/02/22-rdf-syntax-ns#"
   xmlns:cc="http://creativecommons.org/ns#">
  <sodipodi:namedview
     id="namedview1"
     pagecolor="#3e8d2e"
     bordercolor="#000000"
     borderopacity="0.25"
     inkscape:showpageshadow="true"
     inkscape:pageopacity="0.0"
     inkscape:pagecheckerboard="false"
     inkscape:deskcolor="#d1d1d1"
     inkscape:document-units="mm"
     inkscape:zoom="5.6568542"
     inkscape:cx="70.710678"
     inkscape:cy="86.355416"
     inkscape:window-width="2560"
     inkscape:window-height="1351"
     inkscape:window-x="-9"
     inkscape:window-y="-9"
     inkscape:window-maximized="1"
     inkscape:current-layer="layer1"
     labelstyle="default"
     showborder="true" />
  <defs
     id="defs1">
    <rect
       x="-329.58707"
       y="426.24316"
       width="115.7824"
       height="107.24387"
       id="rect2" />
    <rect
       x="-486.35437"
       y="484.30515"
       width="87.776039"
       height="93.582237"
       id="rect1" />
  </defs>
  <g
     inkscape:label="Button Prompt 27"
     id="layer1"
     transform="translate(139.87891,-115.24219)"
     style="display:inline">
    <g
       id="path1"
       inkscape:label="Style - Outline (White)"
       style="display:none">
      <path
         style="color:#000000;display:inline;fill:#ffffff;fill-opacity:1;stroke-linecap:round;stroke-linejoin:round;-inkscape-stroke:none"
         d="m -95.899378,138.00743 a 21.214285,21.214285 0 0 1 -21.214282,21.21429 21.214285,21.214285 0 0 1 -21.21429,-21.21429 21.214285,21.214285 0 0 1 21.21429,-21.21428 21.214285,21.214285 0 0 1 21.214282,21.21428 z"
         id="path3"
         inkscape:label="Circle" />
      <path
         style="color:#000000;display:inline;fill:#000000;fill-opacity:1;stroke-linecap:round;stroke-linejoin:round;-inkscape-stroke:none"
         d="m -117.11328,115.24219 c -12.554,0 -22.76563,10.21163 -22.76563,22.76562 0,12.554 10.21163,22.76367 22.76563,22.76367 12.55399,0 22.763671,-10.20967 22.763671,-22.76367 0,-12.55399 -10.209681,-22.76562 -22.763671,-22.76562 z m 0,3.10156 c 10.87863,0 19.664061,8.78543 19.664061,19.66406 0,10.87864 -8.785431,19.66406 -19.664061,19.66406 -10.87863,0 -19.66406,-8.78542 -19.66406,-19.66406 0,-10.87863 8.78543,-19.66406 19.66406,-19.66406 z"
         id="path4"
         inkscape:label="Outline" />
      <path
         d="M 21.923319,32.700145 H 8.8725051 V 30.583073 L 14.031196,25.34399 q 1.473909,-1.48731 2.438652,-2.599442 0.97814,-1.125533 1.473911,-2.170669 0.49577,-1.058537 0.49577,-2.304662 0,-1.527507 -0.897745,-2.331459 -0.897747,-0.803951 -2.385057,-0.803951 -1.339918,0 -2.425253,0.495769 -1.071936,0.482373 -2.224267,1.393516 L 9.0600951,15.227601 q 0.790552,-0.669959 1.7150969,-1.205927 0.924545,-0.549366 2.023278,-0.870947 1.098734,-0.321582 2.438652,-0.321582 1.83569,0 3.16221,0.643163 1.339919,0.64316 2.063475,1.822289 0.723555,1.179128 0.723555,2.760232 0,1.567708 -0.629761,2.907626 -0.616363,1.32652 -1.755293,2.639641 -1.138932,1.313119 -2.693239,2.800431 L 12.2893,30.181098 v 0.120591 h 9.634019 z m 4.452997,0 7.878724,-17.191161 H 23.830472 v -2.398455 h 13.305395 v 1.929484 l -7.838526,17.660132 z"
         id="text34"
         style="font-weight:500;font-size:12.7px;line-height:0;font-family:'open sans';-inkscape-font-specification:'open sans Medium';letter-spacing:-0.264583px;word-spacing:0px;display:inline;fill:#000000;fill-opacity:1;stroke-width:4.3215;stroke-linecap:round;stroke-linejoin:round;stroke-opacity:0.501961"
         inkscape:label="Symbol 27"
         aria-label="27"
         transform="translate(-139.87891,115.24219)" />
    </g>
    <g
       id="g6"
       inkscape:label="Style - Outline (Black)"
       style="display:none">
      <path
         style="color:#000000;display:inline;fill:#000000;fill-opacity:1;stroke-linecap:round;stroke-linejoin:round;-inkscape-stroke:none"
         d="m -95.899378,138.00743 a 21.214285,21.214285 0 0 1 -21.214282,21.21429 21.214285,21.214285 0 0 1 -21.21429,-21.21429 21.214285,21.214285 0 0 1 21.21429,-21.21428 21.214285,21.214285 0 0 1 21.214282,21.21428 z"
         id="path5"
         inkscape:label="Circle" />
      <path
         style="color:#000000;display:inline;fill:#ffffff;fill-opacity:1;stroke-linecap:round;stroke-linejoin:round;-inkscape-stroke:none"
         d="m -117.11328,115.24219 c -12.554,0 -22.76563,10.21163 -22.76563,22.76562 0,12.554 10.21163,22.76367 22.76563,22.76367 12.55399,0 22.763671,-10.20967 22.763671,-22.76367 0,-12.55399 -10.209681,-22.76562 -22.763671,-22.76562 z m 0,3.10156 c 10.87863,0 19.664061,8.78543 19.664061,19.66406 0,10.87864 -8.785431,19.66406 -19.664061,19.66406 -10.87863,0 -19.66406,-8.78542 -19.66406,-19.66406 0,-10.87863 8.78543,-19.66406 19.66406,-19.66406 z"
         id="path6"
         inkscape:label="Outline" />
      <path
         d="M 21.923319,32.700145 H 8.8725051 V 30.583073 L 14.031196,25.34399 q 1.473909,-1.48731 2.438652,-2.599442 0.97814,-1.125533 1.473911,-2.170669 0.49577,-1.058537 0.49577,-2.304662 0,-1.527507 -0.897745,-2.331459 -0.897747,-0.803951 -2.385057,-0.803951 -1.339918,0 -2.425253,0.495769 -1.071936,0.482373 -2.224267,1.393516 L 9.0600951,15.227601 q 0.790552,-0.669959 1.7150969,-1.205927 0.924545,-0.549366 2.023278,-0.870947 1.098734,-0.321582 2.438652,-0.321582 1.83569,0 3.16221,0.643163 1.339919,0.64316 2.063475,1.822289 0.723555,1.179128 0.723555,2.760232 0,1.567708 -0.629761,2.907626 -0.616363,1.32652 -1.755293,2.639641 -1.138932,1.313119 -2.693239,2.800431 L 12.2893,30.181098 v 0.120591 h 9.634019 z m 4.452997,0 7.878724,-17.191161 H 23.830472 v -2.398455 h 13.305395 v 1.929484 l -7.838526,17.660132 z"
         id="path35"
         style="font-weight:500;font-size:12.7px;line-height:0;font-family:'open sans';-inkscape-font-specification:'open sans Medium';letter-spacing:-0.264583px;word-spacing:0px;display:inline;fill:#ffffff;fill-opacity:1;stroke-width:4.3215;stroke-linecap:round;stroke-linejoin:round;stroke-opacity:0.501961"
         inkscape:label="Symbol 27"
         aria-label="27"
         transform="translate(-139.87891,115.24219)" />
    </g>
    <g
       id="g8"
       inkscape:label="Style - Transparent"
       style="display:inline;fill:#ffffff;fill-opacity:1">
      <path
         style="color:#000000;display:inline;fill:#808080;fill-opacity:0.501031;stroke-linecap:round;stroke-linejoin:round;-inkscape-stroke:none;paint-order:stroke markers fill"
         d="m -117.11328,115.24219 c -12.554,-10e-6 -22.76562,10.21163 -22.76563,22.76562 0,12.554 10.21163,22.76368 22.76563,22.76367 12.554,0 22.763674,-10.20967 22.763671,-22.76367 -3e-6,-12.55399 -10.209681,-22.76562 -22.763671,-22.76562 z m 0,3.10156 c 10.87863,0 19.664059,8.78543 19.664061,19.66406 3e-6,10.87864 -8.785431,19.66406 -19.664061,19.66406 -10.87864,10e-6 -19.66407,-8.78542 -19.66406,-19.66406 0,-10.87863 8.78543,-19.66406 19.66406,-19.66406 z"
         id="path9"
         inkscape:label="Outline" />
      <path
         style="color:#000000;display:inline;stroke-linecap:round;stroke-linejoin:round;-inkscape-stroke:none;paint-order:stroke markers fill"
         d="m -95.899378,138.00743 a 21.214285,21.214285 0 0 1 -21.214282,21.21429 21.214285,21.214285 0 0 1 -21.21429,-21.21429 21.214285,21.214285 0 0 1 21.21429,-21.21428 21.214285,21.214285 0 0 1 21.214282,21.21428 z"
         id="path10"
         inkscape:label="Circle" />
      <path
         d="M 21.923319,32.700145 H 8.8725051 V 30.583073 L 14.031196,25.34399 q 1.473909,-1.48731 2.438652,-2.599442 0.97814,-1.125533 1.473911,-2.170669 0.49577,-1.058537 0.49577,-2.304662 0,-1.527507 -0.897745,-2.331459 -0.897747,-0.803951 -2.385057,-0.803951 -1.339918,0 -2.425253,0.495769 -1.071936,0.482373 -2.224267,1.393516 L 9.0600951,15.227601 q 0.790552,-0.669959 1.7150969,-1.205927 0.924545,-0.549366 2.023278,-0.870947 1.098734,-0.321582 2.438652,-0.321582 1.83569,0 3.16221,0.643163 1.339919,0.64316 2.063475,1.822289 0.723555,1.179128 0.723555,2.760232 0,1.567708 -0.629761,2.907626 -0.616363,1.32652 -1.755293,2.639641 -1.138932,1.313119 -2.693239,2.800431 L 12.2893,30.181098 v 0.120591 h 9.634019 z m 4.452997,0 7.878724,-17.191161 H 23.830472 v -2.398455 h 13.305395 v 1.929484 l -7.838526,17.660132 z"
         id="path34"
         style="font-weight:500;font-size:12.7px;line-height:0;font-family:'open sans';-inkscape-font-specification:'open sans Medium';letter-spacing:-0.264583px;word-spacing:0px;fill:#808080;stroke-width:4.3215;stroke-linecap:round;stroke-linejoin:round;stroke-opacity:0.501961"
         inkscape:label="Symbol 27"
         aria-label="27"
         transform="translate(-139.87891,115.24219)" />
    </g>
  </g>
  <metadata
     id="metadata8">
    <rdf:RDF>
      <cc:Work
         rdf:about="">
        <cc:license
           rdf:resource="https://opensource.org/license/mit" />
      </cc:Work>
    </rdf:RDF>
  </metadata>
</svg>
