<?xml version="1.0" encoding="UTF-8" standalone="no"?>
<!-- Created with Inkscape (http://www.inkscape.org/) -->

<svg
   width="45.529301mm"
   height="45.529289mm"
   viewBox="0 0 45.529302 45.529288"
   version="1.1"
   id="svg1"
   sodipodi:docname="directinput-3.svg"
   inkscape:version="1.3.2 (091e20e, 2023-11-25, custom)"
   xmlns:inkscape="http://www.inkscape.org/namespaces/inkscape"
   xmlns:sodipodi="http://sodipodi.sourceforge.net/DTD/sodipodi-0.dtd"
   xmlns="http://www.w3.org/2000/svg"
   xmlns:svg="http://www.w3.org/2000/svg"
   xmlns:rdf="http://www.w3.org/1999/02/22-rdf-syntax-ns#"
   xmlns:cc="http://creativecommons.org/ns#">
  <sodipodi:namedview
     id="namedview1"
     pagecolor="#3e8d2e"
     bordercolor="#000000"
     borderopacity="0.25"
     inkscape:showpageshadow="true"
     inkscape:pageopacity="0.0"
     inkscape:pagecheckerboard="false"
     inkscape:deskcolor="#d1d1d1"
     inkscape:document-units="mm"
     inkscape:zoom="2"
     inkscape:cx="-21.5"
     inkscape:cy="152.25"
     inkscape:window-width="2560"
     inkscape:window-height="1351"
     inkscape:window-x="-9"
     inkscape:window-y="-9"
     inkscape:window-maximized="1"
     inkscape:current-layer="svg1"
     labelstyle="default"
     showborder="true" />
  <defs
     id="defs1">
    <rect
       x="-329.58707"
       y="426.24316"
       width="115.7824"
       height="107.24387"
       id="rect2" />
    <rect
       x="-486.35437"
       y="484.30515"
       width="87.776039"
       height="93.582237"
       id="rect1" />
  </defs>
  <g
     inkscape:label="Button Prompt 3"
     id="layer1"
     transform="translate(139.87891,-115.24219)"
     style="display:inline">
    <g
       id="path1"
       inkscape:label="Style - Outline (White)"
       style="display:none">
      <path
         style="color:#000000;display:inline;fill:#ffffff;fill-opacity:1;stroke-linecap:round;stroke-linejoin:round;-inkscape-stroke:none"
         d="m -95.899378,138.00743 a 21.214285,21.214285 0 0 1 -21.214282,21.21429 21.214285,21.214285 0 0 1 -21.21429,-21.21429 21.214285,21.214285 0 0 1 21.21429,-21.21428 21.214285,21.214285 0 0 1 21.214282,21.21428 z"
         id="path3"
         inkscape:label="Circle" />
      <path
         style="color:#000000;display:inline;fill:#000000;fill-opacity:1;stroke-linecap:round;stroke-linejoin:round;-inkscape-stroke:none"
         d="m -117.11328,115.24219 c -12.554,0 -22.76563,10.21163 -22.76563,22.76562 0,12.554 10.21163,22.76367 22.76563,22.76367 12.55399,0 22.763671,-10.20967 22.763671,-22.76367 0,-12.55399 -10.209681,-22.76562 -22.763671,-22.76562 z m 0,3.10156 c 10.87863,0 19.664061,8.78543 19.664061,19.66406 0,10.87864 -8.785431,19.66406 -19.664061,19.66406 -10.87863,0 -19.66406,-8.78542 -19.66406,-19.66406 0,-10.87863 8.78543,-19.66406 19.66406,-19.66406 z"
         id="path4"
         inkscape:label="Outline" />
      <path
         d="m -110.43859,132.05807 q 0,1.49679 -0.58964,2.60048 -0.58965,1.08858 -1.63286,1.78406 -1.04322,0.69547 -2.41906,0.98274 v 0.10583 q 2.63072,0.33262 3.9612,1.67822 1.3456,1.3456 1.3456,3.55299 0,1.92012 -0.90714,3.41691 -0.90715,1.49679 -2.79703,2.34346 -1.87477,0.84667 -4.82299,0.84667 -1.76894,0 -3.28085,-0.28726 -1.51191,-0.28727 -2.87262,-0.92227 v -2.76679 q 1.37583,0.69548 2.97846,1.08857 1.60262,0.37798 3.08429,0.37798 2.88775,0 4.14263,-1.11881 1.27001,-1.11882 1.27001,-3.0843 0,-1.30024 -0.68036,-2.11667 -0.68036,-0.83155 -2.02596,-1.22465 -1.33048,-0.39309 -3.3262,-0.39309 h -2.07132 v -2.50977 h 2.10156 q 1.85965,0 3.05405,-0.48381 1.20953,-0.49893 1.79918,-1.39096 0.58964,-0.89203 0.58964,-2.08643 0,-1.55727 -1.0281,-2.40394 -1.01298,-0.86179 -2.87263,-0.86179 -1.14905,0 -2.10155,0.25703 -0.93738,0.2419 -1.75381,0.65012 -0.80132,0.40821 -1.55727,0.92226 l -1.49679,-2.10155 q 1.22465,-0.93739 2.96334,-1.60263 1.75382,-0.66524 4.00656,-0.66524 3.4018,0 5.17073,1.49679 1.76893,1.49679 1.76893,3.91585 z"
         id="text11"
         style="font-weight:500;font-size:30.9639px;line-height:0;font-family:'open sans';-inkscape-font-specification:'open sans Medium';letter-spacing:-0.967622px;word-spacing:0px;stroke-width:4.87621;stroke-linecap:round;stroke-linejoin:round;stroke-opacity:0.501961"
         inkscape:label="Symbol 3"
         transform="translate(1.25e-6)"
         aria-label="3" />
    </g>
    <g
       id="g6"
       inkscape:label="Style - Outline (Black)"
       style="display:none">
      <path
         style="color:#000000;display:inline;fill:#000000;fill-opacity:1;stroke-linecap:round;stroke-linejoin:round;-inkscape-stroke:none"
         d="m -95.899378,138.00743 a 21.214285,21.214285 0 0 1 -21.214282,21.21429 21.214285,21.214285 0 0 1 -21.21429,-21.21429 21.214285,21.214285 0 0 1 21.21429,-21.21428 21.214285,21.214285 0 0 1 21.214282,21.21428 z"
         id="path5"
         inkscape:label="Circle" />
      <path
         style="color:#000000;display:inline;fill:#ffffff;fill-opacity:1;stroke-linecap:round;stroke-linejoin:round;-inkscape-stroke:none"
         d="m -117.11328,115.24219 c -12.554,0 -22.76563,10.21163 -22.76563,22.76562 0,12.554 10.21163,22.76367 22.76563,22.76367 12.55399,0 22.763671,-10.20967 22.763671,-22.76367 0,-12.55399 -10.209681,-22.76562 -22.763671,-22.76562 z m 0,3.10156 c 10.87863,0 19.664061,8.78543 19.664061,19.66406 0,10.87864 -8.785431,19.66406 -19.664061,19.66406 -10.87863,0 -19.66406,-8.78542 -19.66406,-19.66406 0,-10.87863 8.78543,-19.66406 19.66406,-19.66406 z"
         id="path6"
         inkscape:label="Outline" />
      <path
         d="m -110.43859,132.05807 q 0,1.49679 -0.58964,2.60048 -0.58965,1.08858 -1.63286,1.78406 -1.04322,0.69547 -2.41906,0.98274 v 0.10583 q 2.63072,0.33262 3.9612,1.67822 1.3456,1.3456 1.3456,3.55299 0,1.92012 -0.90714,3.41691 -0.90715,1.49679 -2.79703,2.34346 -1.87477,0.84667 -4.82299,0.84667 -1.76894,0 -3.28085,-0.28726 -1.51191,-0.28727 -2.87262,-0.92227 v -2.76679 q 1.37583,0.69548 2.97846,1.08857 1.60262,0.37798 3.08429,0.37798 2.88775,0 4.14263,-1.11881 1.27001,-1.11882 1.27001,-3.0843 0,-1.30024 -0.68036,-2.11667 -0.68036,-0.83155 -2.02596,-1.22465 -1.33048,-0.39309 -3.3262,-0.39309 h -2.07132 v -2.50977 h 2.10156 q 1.85965,0 3.05405,-0.48381 1.20953,-0.49893 1.79918,-1.39096 0.58964,-0.89203 0.58964,-2.08643 0,-1.55727 -1.0281,-2.40394 -1.01298,-0.86179 -2.87263,-0.86179 -1.14905,0 -2.10155,0.25703 -0.93738,0.2419 -1.75381,0.65012 -0.80132,0.40821 -1.55727,0.92226 l -1.49679,-2.10155 q 1.22465,-0.93739 2.96334,-1.60263 1.75382,-0.66524 4.00656,-0.66524 3.4018,0 5.17073,1.49679 1.76893,1.49679 1.76893,3.91585 z"
         id="text13"
         style="font-weight:500;font-size:30.9639px;line-height:0;font-family:'open sans';-inkscape-font-specification:'open sans Medium';letter-spacing:-0.967622px;word-spacing:0px;fill:#ffffff;stroke-width:4.87621;stroke-linecap:round;stroke-linejoin:round;stroke-opacity:0.501961"
         inkscape:label="Symbol 3"
         transform="translate(1.25e-6)"
         aria-label="3" />
    </g>
    <g
       id="g8"
       inkscape:label="Style - Transparent"
       style="display:inline;fill:#ffffff;fill-opacity:1">
      <path
         style="color:#000000;display:inline;fill:#808080;fill-opacity:0.501031;stroke-linecap:round;stroke-linejoin:round;-inkscape-stroke:none;paint-order:stroke markers fill"
         d="m -117.11328,115.24219 c -12.554,-10e-6 -22.76562,10.21163 -22.76563,22.76562 0,12.554 10.21163,22.76368 22.76563,22.76367 12.554,0 22.763674,-10.20967 22.763671,-22.76367 -3e-6,-12.55399 -10.209681,-22.76562 -22.763671,-22.76562 z m 0,3.10156 c 10.87863,0 19.664059,8.78543 19.664061,19.66406 3e-6,10.87864 -8.785431,19.66406 -19.664061,19.66406 -10.87864,10e-6 -19.66407,-8.78542 -19.66406,-19.66406 0,-10.87863 8.78543,-19.66406 19.66406,-19.66406 z"
         id="path9"
         inkscape:label="Outline" />
      <path
         style="color:#000000;display:inline;stroke-linecap:round;stroke-linejoin:round;-inkscape-stroke:none;paint-order:stroke markers fill"
         d="m -95.899378,138.00743 a 21.214285,21.214285 0 0 1 -21.214282,21.21429 21.214285,21.214285 0 0 1 -21.21429,-21.21429 21.214285,21.214285 0 0 1 21.21429,-21.21428 21.214285,21.214285 0 0 1 21.214282,21.21428 z"
         id="path10"
         inkscape:label="Circle" />
      <path
         d="m -110.43859,132.05807 q 0,1.49679 -0.58964,2.60048 -0.58965,1.08858 -1.63286,1.78406 -1.04322,0.69547 -2.41906,0.98274 v 0.10583 q 2.63072,0.33262 3.9612,1.67822 1.3456,1.3456 1.3456,3.55299 0,1.92012 -0.90714,3.41691 -0.90715,1.49679 -2.79703,2.34346 -1.87477,0.84667 -4.82299,0.84667 -1.76894,0 -3.28085,-0.28726 -1.51191,-0.28727 -2.87262,-0.92227 v -2.76679 q 1.37583,0.69548 2.97846,1.08857 1.60262,0.37798 3.08429,0.37798 2.88775,0 4.14263,-1.11881 1.27001,-1.11882 1.27001,-3.0843 0,-1.30024 -0.68036,-2.11667 -0.68036,-0.83155 -2.02596,-1.22465 -1.33048,-0.39309 -3.3262,-0.39309 h -2.07132 v -2.50977 h 2.10156 q 1.85965,0 3.05405,-0.48381 1.20953,-0.49893 1.79918,-1.39096 0.58964,-0.89203 0.58964,-2.08643 0,-1.55727 -1.0281,-2.40394 -1.01298,-0.86179 -2.87263,-0.86179 -1.14905,0 -2.10155,0.25703 -0.93738,0.2419 -1.75381,0.65012 -0.80132,0.40821 -1.55727,0.92226 l -1.49679,-2.10155 q 1.22465,-0.93739 2.96334,-1.60263 1.75382,-0.66524 4.00656,-0.66524 3.4018,0 5.17073,1.49679 1.76893,1.49679 1.76893,3.91585 z"
         id="text12"
         style="font-weight:500;font-size:30.9639px;line-height:0;font-family:'open sans';-inkscape-font-specification:'open sans Medium';letter-spacing:-0.967622px;word-spacing:0px;fill:#808080;stroke-width:4.87621;stroke-linecap:round;stroke-linejoin:round;stroke-opacity:0.501961"
         inkscape:label="Symbol 3"
         aria-label="3" />
    </g>
  </g>
  <metadata
     id="metadata8">
    <rdf:RDF>
      <cc:Work
         rdf:about="">
        <cc:license
           rdf:resource="https://opensource.org/license/mit" />
      </cc:Work>
    </rdf:RDF>
  </metadata>
</svg>
