<?xml version="1.0" encoding="UTF-8" standalone="no"?>
<!-- Created with Inkscape (http://www.inkscape.org/) -->

<svg
   width="45.529301mm"
   height="45.529289mm"
   viewBox="0 0 45.529303 45.529285"
   version="1.1"
   id="svg1"
   sodipodi:docname="directinput-10.svg"
   inkscape:version="1.3.2 (091e20e, 2023-11-25, custom)"
   xmlns:inkscape="http://www.inkscape.org/namespaces/inkscape"
   xmlns:sodipodi="http://sodipodi.sourceforge.net/DTD/sodipodi-0.dtd"
   xmlns="http://www.w3.org/2000/svg"
   xmlns:svg="http://www.w3.org/2000/svg"
   xmlns:rdf="http://www.w3.org/1999/02/22-rdf-syntax-ns#"
   xmlns:cc="http://creativecommons.org/ns#">
  <sodipodi:namedview
     id="namedview1"
     pagecolor="#3e8d2e"
     bordercolor="#000000"
     borderopacity="0.25"
     inkscape:showpageshadow="true"
     inkscape:pageopacity="0.0"
     inkscape:pagecheckerboard="false"
     inkscape:deskcolor="#d1d1d1"
     inkscape:document-units="mm"
     inkscape:zoom="2.8284271"
     inkscape:cx="43.487067"
     inkscape:cy="100.58594"
     inkscape:window-width="2560"
     inkscape:window-height="1351"
     inkscape:window-x="-9"
     inkscape:window-y="-9"
     inkscape:window-maximized="1"
     inkscape:current-layer="layer1"
     labelstyle="default"
     showborder="true" />
  <defs
     id="defs1">
    <rect
       x="-329.58707"
       y="426.24316"
       width="115.7824"
       height="107.24387"
       id="rect2" />
    <rect
       x="-486.35437"
       y="484.30515"
       width="87.776039"
       height="93.582237"
       id="rect1" />
  </defs>
  <g
     inkscape:label="Button Prompt 10"
     id="layer1"
     transform="translate(139.87891,-115.24219)"
     style="display:inline">
    <g
       id="path1"
       inkscape:label="Style - Outline (White)"
       style="display:none">
      <path
         style="color:#000000;display:inline;fill:#ffffff;fill-opacity:1;stroke-linecap:round;stroke-linejoin:round;-inkscape-stroke:none"
         d="m -95.899378,138.00743 a 21.214285,21.214285 0 0 1 -21.214282,21.21429 21.214285,21.214285 0 0 1 -21.21429,-21.21429 21.214285,21.214285 0 0 1 21.21429,-21.21428 21.214285,21.214285 0 0 1 21.214282,21.21428 z"
         id="path3"
         inkscape:label="Circle" />
      <path
         style="color:#000000;display:inline;fill:#000000;fill-opacity:1;stroke-linecap:round;stroke-linejoin:round;-inkscape-stroke:none"
         d="m -117.11328,115.24219 c -12.554,0 -22.76563,10.21163 -22.76563,22.76562 0,12.554 10.21163,22.76367 22.76563,22.76367 12.55399,0 22.763671,-10.20967 22.763671,-22.76367 0,-12.55399 -10.209681,-22.76562 -22.763671,-22.76562 z m 0,3.10156 c 10.87863,0 19.664061,8.78543 19.664061,19.66406 0,10.87864 -8.785431,19.66406 -19.664061,19.66406 -10.87863,0 -19.66406,-8.78542 -19.66406,-19.66406 0,-10.87863 8.78543,-19.66406 19.66406,-19.66406 z"
         id="path4"
         inkscape:label="Outline" />
      <path
         d="m -122.28992,147.67823 h -2.62746 V 134.6202 q 0,-0.69978 0,-1.28072 0.0132,-0.59415 0.0396,-1.12228 0.0264,-0.54133 0.0528,-1.04306 -0.34329,0.35649 -0.72618,0.68657 -0.36969,0.31688 -0.85822,0.72618 l -2.20494,1.78244 -1.35994,-1.74283 5.47936,-4.25145 h 2.20495 z m 18.03567,-9.678 q 0,2.35019 -0.35649,4.19864 -0.35648,1.84846 -1.13548,3.12918 -0.76579,1.28072 -2.00689,1.95408 -1.22791,0.66017 -2.97074,0.66017 -2.19174,0 -3.6177,-1.17509 -1.42595,-1.1751 -2.12572,-3.39325 -0.69978,-2.23135 -0.69978,-5.37373 0,-3.08956 0.63376,-5.30771 0.63376,-2.23136 2.04651,-3.41965 1.42595,-1.2015 3.76293,-1.2015 2.21815,0 3.6441,1.1883 1.43916,1.17509 2.12573,3.40644 0.69977,2.21815 0.69977,5.33412 z m -10.24574,0 q 0,2.57464 0.3697,4.29107 0.36969,1.71642 1.20149,2.57463 0.83181,0.84501 2.20495,0.84501 1.37314,0 2.20495,-0.84501 0.84501,-0.84501 1.2147,-2.56143 0.36969,-1.71643 0.36969,-4.30427 0,-2.53503 -0.36969,-4.23825 -0.36969,-1.71642 -1.2015,-2.57464 -0.8186,-0.87141 -2.21815,-0.87141 -1.39955,0 -2.23135,0.87141 -0.81861,0.85822 -1.1883,2.57464 -0.35649,1.70322 -0.35649,4.23825 z"
         id="text14"
         style="font-weight:500;font-size:27.0403px;line-height:0;font-family:'open sans';-inkscape-font-specification:'open sans Medium';letter-spacing:-1.69001px;word-spacing:0px;display:inline;opacity:1;fill:#000000;fill-opacity:1;stroke-width:4.25831;stroke-linecap:round;stroke-linejoin:round;stroke-opacity:0.501961"
         aria-label="10"
         transform="translate(1.2499999e-6)"
         inkscape:label="Symbol 10" />
    </g>
    <g
       id="g6"
       inkscape:label="Style - Outline (Black)"
       style="display:none">
      <path
         style="color:#000000;display:inline;fill:#000000;fill-opacity:1;stroke-linecap:round;stroke-linejoin:round;-inkscape-stroke:none"
         d="m -95.899378,138.00743 a 21.214285,21.214285 0 0 1 -21.214282,21.21429 21.214285,21.214285 0 0 1 -21.21429,-21.21429 21.214285,21.214285 0 0 1 21.21429,-21.21428 21.214285,21.214285 0 0 1 21.214282,21.21428 z"
         id="path5"
         inkscape:label="Circle" />
      <path
         style="color:#000000;display:inline;fill:#ffffff;fill-opacity:1;stroke-linecap:round;stroke-linejoin:round;-inkscape-stroke:none"
         d="m -117.11328,115.24219 c -12.554,0 -22.76563,10.21163 -22.76563,22.76562 0,12.554 10.21163,22.76367 22.76563,22.76367 12.55399,0 22.763671,-10.20967 22.763671,-22.76367 0,-12.55399 -10.209681,-22.76562 -22.763671,-22.76562 z m 0,3.10156 c 10.87863,0 19.664061,8.78543 19.664061,19.66406 0,10.87864 -8.785431,19.66406 -19.664061,19.66406 -10.87863,0 -19.66406,-8.78542 -19.66406,-19.66406 0,-10.87863 8.78543,-19.66406 19.66406,-19.66406 z"
         id="path6"
         inkscape:label="Outline" />
      <path
         d="m -122.28992,147.67823 h -2.62746 V 134.6202 q 0,-0.69978 0,-1.28072 0.0132,-0.59415 0.0396,-1.12228 0.0264,-0.54133 0.0528,-1.04306 -0.34329,0.35649 -0.72618,0.68657 -0.36969,0.31688 -0.85822,0.72618 l -2.20494,1.78244 -1.35994,-1.74283 5.47936,-4.25145 h 2.20495 z m 18.03567,-9.678 q 0,2.35019 -0.35649,4.19864 -0.35648,1.84846 -1.13548,3.12918 -0.76579,1.28072 -2.00689,1.95408 -1.22791,0.66017 -2.97074,0.66017 -2.19174,0 -3.6177,-1.17509 -1.42595,-1.1751 -2.12572,-3.39325 -0.69978,-2.23135 -0.69978,-5.37373 0,-3.08956 0.63376,-5.30771 0.63376,-2.23136 2.04651,-3.41965 1.42595,-1.2015 3.76293,-1.2015 2.21815,0 3.6441,1.1883 1.43916,1.17509 2.12573,3.40644 0.69977,2.21815 0.69977,5.33412 z m -10.24574,0 q 0,2.57464 0.3697,4.29107 0.36969,1.71642 1.20149,2.57463 0.83181,0.84501 2.20495,0.84501 1.37314,0 2.20495,-0.84501 0.84501,-0.84501 1.2147,-2.56143 0.36969,-1.71643 0.36969,-4.30427 0,-2.53503 -0.36969,-4.23825 -0.36969,-1.71642 -1.2015,-2.57464 -0.8186,-0.87141 -2.21815,-0.87141 -1.39955,0 -2.23135,0.87141 -0.81861,0.85822 -1.1883,2.57464 -0.35649,1.70322 -0.35649,4.23825 z"
         id="path15"
         style="font-weight:500;font-size:27.0403px;line-height:0;font-family:'open sans';-inkscape-font-specification:'open sans Medium';letter-spacing:-1.69001px;word-spacing:0px;display:inline;opacity:1;fill:#ffffff;fill-opacity:1;stroke-width:4.25831;stroke-linecap:round;stroke-linejoin:round;stroke-opacity:0.501961"
         aria-label="10"
         transform="translate(1.2499999e-6)"
         inkscape:label="Symbol 10" />
    </g>
    <g
       id="g8"
       inkscape:label="Style - Transparent"
       style="display:inline;fill:#ffffff;fill-opacity:1">
      <path
         style="color:#000000;display:inline;fill:#808080;fill-opacity:0.501031;stroke-linecap:round;stroke-linejoin:round;-inkscape-stroke:none;paint-order:stroke markers fill"
         d="m -117.11328,115.24219 c -12.554,-10e-6 -22.76562,10.21163 -22.76563,22.76562 0,12.554 10.21163,22.76368 22.76563,22.76367 12.554,0 22.763674,-10.20967 22.763671,-22.76367 -3e-6,-12.55399 -10.209681,-22.76562 -22.763671,-22.76562 z m 0,3.10156 c 10.87863,0 19.664059,8.78543 19.664061,19.66406 3e-6,10.87864 -8.785431,19.66406 -19.664061,19.66406 -10.87864,10e-6 -19.66407,-8.78542 -19.66406,-19.66406 0,-10.87863 8.78543,-19.66406 19.66406,-19.66406 z"
         id="path9"
         inkscape:label="Outline" />
      <path
         style="color:#000000;display:inline;stroke-linecap:round;stroke-linejoin:round;-inkscape-stroke:none;paint-order:stroke markers fill"
         d="m -95.899378,138.00743 a 21.214285,21.214285 0 0 1 -21.214282,21.21429 21.214285,21.214285 0 0 1 -21.21429,-21.21429 21.214285,21.214285 0 0 1 21.21429,-21.21428 21.214285,21.214285 0 0 1 21.214282,21.21428 z"
         id="path10"
         inkscape:label="Circle" />
      <path
         d="m -122.28992,147.67823 h -2.62746 V 134.6202 q 0,-0.69978 0,-1.28072 0.0132,-0.59415 0.0396,-1.12228 0.0264,-0.54133 0.0528,-1.04306 -0.34329,0.35649 -0.72618,0.68657 -0.36969,0.31688 -0.85822,0.72618 l -2.20494,1.78244 -1.35994,-1.74283 5.47936,-4.25145 h 2.20495 z m 18.03567,-9.678 q 0,2.35019 -0.35649,4.19864 -0.35648,1.84846 -1.13548,3.12918 -0.76579,1.28072 -2.00689,1.95408 -1.22791,0.66017 -2.97074,0.66017 -2.19174,0 -3.6177,-1.17509 -1.42595,-1.1751 -2.12572,-3.39325 -0.69978,-2.23135 -0.69978,-5.37373 0,-3.08956 0.63376,-5.30771 0.63376,-2.23136 2.04651,-3.41965 1.42595,-1.2015 3.76293,-1.2015 2.21815,0 3.6441,1.1883 1.43916,1.17509 2.12573,3.40644 0.69977,2.21815 0.69977,5.33412 z m -10.24574,0 q 0,2.57464 0.3697,4.29107 0.36969,1.71642 1.20149,2.57463 0.83181,0.84501 2.20495,0.84501 1.37314,0 2.20495,-0.84501 0.84501,-0.84501 1.2147,-2.56143 0.36969,-1.71643 0.36969,-4.30427 0,-2.53503 -0.36969,-4.23825 -0.36969,-1.71642 -1.2015,-2.57464 -0.8186,-0.87141 -2.21815,-0.87141 -1.39955,0 -2.23135,0.87141 -0.81861,0.85822 -1.1883,2.57464 -0.35649,1.70322 -0.35649,4.23825 z"
         id="path14"
         style="font-weight:500;font-size:27.0403px;line-height:0;font-family:'open sans';-inkscape-font-specification:'open sans Medium';letter-spacing:-1.69001px;word-spacing:0px;display:inline;opacity:1;fill:#808080;stroke-width:4.25831;stroke-linecap:round;stroke-linejoin:round;stroke-opacity:0.501961"
         aria-label="10"
         transform="translate(1.25e-6)"
         inkscape:label="Symbol 10" />
    </g>
  </g>
  <metadata
     id="metadata8">
    <rdf:RDF>
      <cc:Work
         rdf:about="">
        <cc:license
           rdf:resource="https://opensource.org/license/mit" />
      </cc:Work>
    </rdf:RDF>
  </metadata>
</svg>
