<?xml version="1.0" encoding="UTF-8" standalone="no"?>
<!-- Created with Inkscape (http://www.inkscape.org/) -->

<svg
   width="45.529301mm"
   height="45.529289mm"
   viewBox="0 0 45.529302 45.529289"
   version="1.1"
   id="svg1"
   sodipodi:docname="directinput-0.svg"
   inkscape:version="1.3.2 (091e20e, 2023-11-25, custom)"
   xmlns:inkscape="http://www.inkscape.org/namespaces/inkscape"
   xmlns:sodipodi="http://sodipodi.sourceforge.net/DTD/sodipodi-0.dtd"
   xmlns="http://www.w3.org/2000/svg"
   xmlns:svg="http://www.w3.org/2000/svg"
   xmlns:rdf="http://www.w3.org/1999/02/22-rdf-syntax-ns#"
   xmlns:cc="http://creativecommons.org/ns#">
  <sodipodi:namedview
     id="namedview1"
     pagecolor="#3e8d2e"
     bordercolor="#000000"
     borderopacity="0.25"
     inkscape:showpageshadow="true"
     inkscape:pageopacity="0.0"
     inkscape:pagecheckerboard="false"
     inkscape:deskcolor="#d1d1d1"
     inkscape:document-units="mm"
     inkscape:zoom="2.8284271"
     inkscape:cx="-9.1923882"
     inkscape:cy="104.12147"
     inkscape:window-width="2560"
     inkscape:window-height="1351"
     inkscape:window-x="-9"
     inkscape:window-y="-9"
     inkscape:window-maximized="1"
     inkscape:current-layer="path1"
     labelstyle="default"
     showborder="true" />
  <defs
     id="defs1">
    <rect
       x="-329.58707"
       y="426.24316"
       width="115.7824"
       height="107.24387"
       id="rect2" />
    <rect
       x="-486.35437"
       y="484.30515"
       width="87.776039"
       height="93.582237"
       id="rect1" />
  </defs>
  <g
     inkscape:label="Button Prompt 0"
     id="layer1"
     transform="translate(139.87891,-115.24219)"
     style="display:inline">
    <g
       id="path1"
       inkscape:label="Style - Outline (White)"
       style="display:none">
      <path
         style="color:#000000;display:inline;fill:#ffffff;fill-opacity:1;stroke-linecap:round;stroke-linejoin:round;-inkscape-stroke:none"
         d="m -95.899378,138.00743 a 21.214285,21.214285 0 0 1 -21.214282,21.21429 21.214285,21.214285 0 0 1 -21.21429,-21.21429 21.214285,21.214285 0 0 1 21.21429,-21.21428 21.214285,21.214285 0 0 1 21.214282,21.21428 z"
         id="path3"
         inkscape:label="Circle" />
      <path
         style="color:#000000;display:inline;fill:#000000;fill-opacity:1;stroke-linecap:round;stroke-linejoin:round;-inkscape-stroke:none"
         d="m -117.11328,115.24219 c -12.554,0 -22.76563,10.21163 -22.76563,22.76562 0,12.554 10.21163,22.76367 22.76563,22.76367 12.55399,0 22.763671,-10.20967 22.763671,-22.76367 0,-12.55399 -10.209681,-22.76562 -22.763671,-22.76562 z m 0,3.10156 c 10.87863,0 19.664061,8.78543 19.664061,19.66406 0,10.87864 -8.785431,19.66406 -19.664061,19.66406 -10.87863,0 -19.66406,-8.78542 -19.66406,-19.66406 0,-10.87863 8.78543,-19.66406 19.66406,-19.66406 z"
         id="path4"
         inkscape:label="Outline" />
      <path
         d="m -109.86313,137.99928 q 0,2.68763 -0.40768,4.80149 -0.40767,2.11386 -1.29851,3.57847 -0.87574,1.4646 -2.29505,2.23465 -1.40421,0.75495 -3.39728,0.75495 -2.50644,0 -4.13714,-1.34381 -1.63069,-1.34381 -2.43094,-3.88045 -0.80025,-2.55173 -0.80025,-6.1453 0,-3.53317 0.72476,-6.06981 0.72475,-2.55173 2.34034,-3.91064 1.6307,-1.37402 4.30323,-1.37402 2.53663,0 4.16733,1.35892 1.64579,1.34381 2.43094,3.89554 0.80025,2.53664 0.80025,6.10001 z m -11.71684,0 q 0,2.94431 0.42277,4.90718 0.42277,1.96288 1.37401,2.94431 0.95124,0.96634 2.52154,0.96634 1.5703,0 2.52153,-0.96634 0.96634,-0.96634 1.38911,-2.92921 0.42278,-1.96287 0.42278,-4.92228 0,-2.89901 -0.42278,-4.84679 -0.42277,-1.96287 -1.37401,-2.94431 -0.93614,-0.99653 -2.53663,-0.99653 -1.6005,0 -2.55174,0.99653 -0.93614,0.98144 -1.35891,2.94431 -0.40767,1.94778 -0.40767,4.84679 z"
         id="text8"
         style="font-weight:500;font-size:30.9228px;line-height:0;font-family:'open sans';-inkscape-font-specification:'open sans Medium';letter-spacing:-0.966333px;word-spacing:0px;display:inline;fill:#000000;fill-opacity:1;stroke-width:4.86971;stroke-linecap:round;stroke-linejoin:round;stroke-opacity:0.501961"
         inkscape:label="Symbol 0"
         aria-label="0"
         transform="translate(1.2499999e-6)" />
    </g>
    <g
       id="g6"
       inkscape:label="Style - Outline (Black)"
       style="display:none">
      <path
         style="color:#000000;display:inline;fill:#000000;fill-opacity:1;stroke-linecap:round;stroke-linejoin:round;-inkscape-stroke:none"
         d="m -95.899378,138.00743 a 21.214285,21.214285 0 0 1 -21.214282,21.21429 21.214285,21.214285 0 0 1 -21.21429,-21.21429 21.214285,21.214285 0 0 1 21.21429,-21.21428 21.214285,21.214285 0 0 1 21.214282,21.21428 z"
         id="path5"
         inkscape:label="Circle" />
      <path
         style="color:#000000;display:inline;fill:#ffffff;fill-opacity:1;stroke-linecap:round;stroke-linejoin:round;-inkscape-stroke:none"
         d="m -117.11328,115.24219 c -12.554,0 -22.76563,10.21163 -22.76563,22.76562 0,12.554 10.21163,22.76367 22.76563,22.76367 12.55399,0 22.763671,-10.20967 22.763671,-22.76367 0,-12.55399 -10.209681,-22.76562 -22.763671,-22.76562 z m 0,3.10156 c 10.87863,0 19.664061,8.78543 19.664061,19.66406 0,10.87864 -8.785431,19.66406 -19.664061,19.66406 -10.87863,0 -19.66406,-8.78542 -19.66406,-19.66406 0,-10.87863 8.78543,-19.66406 19.66406,-19.66406 z"
         id="path6"
         inkscape:label="Outline" />
      <path
         d="m -109.86313,137.99928 q 0,2.68763 -0.40768,4.80149 -0.40767,2.11386 -1.29851,3.57847 -0.87574,1.4646 -2.29505,2.23465 -1.40421,0.75495 -3.39728,0.75495 -2.50644,0 -4.13714,-1.34381 -1.63069,-1.34381 -2.43094,-3.88045 -0.80025,-2.55173 -0.80025,-6.1453 0,-3.53317 0.72476,-6.06981 0.72475,-2.55173 2.34034,-3.91064 1.6307,-1.37402 4.30323,-1.37402 2.53663,0 4.16733,1.35892 1.64579,1.34381 2.43094,3.89554 0.80025,2.53664 0.80025,6.10001 z m -11.71684,0 q 0,2.94431 0.42277,4.90718 0.42277,1.96288 1.37401,2.94431 0.95124,0.96634 2.52154,0.96634 1.5703,0 2.52153,-0.96634 0.96634,-0.96634 1.38911,-2.92921 0.42278,-1.96287 0.42278,-4.92228 0,-2.89901 -0.42278,-4.84679 -0.42277,-1.96287 -1.37401,-2.94431 -0.93614,-0.99653 -2.53663,-0.99653 -1.6005,0 -2.55174,0.99653 -0.93614,0.98144 -1.35891,2.94431 -0.40767,1.94778 -0.40767,4.84679 z"
         id="path11"
         style="font-weight:500;font-size:30.9228px;line-height:0;font-family:'open sans';-inkscape-font-specification:'open sans Medium';letter-spacing:-0.966333px;word-spacing:0px;display:inline;fill:#ffffff;fill-opacity:1;stroke-width:4.86971;stroke-linecap:round;stroke-linejoin:round;stroke-opacity:0.501961"
         inkscape:label="Symbol 0"
         aria-label="0"
         transform="translate(1.2499999e-6)" />
    </g>
    <g
       id="g8"
       inkscape:label="Style - Transparent"
       style="display:inline;fill:#ffffff;fill-opacity:1">
      <path
         style="color:#000000;display:inline;fill:#808080;fill-opacity:0.501031;stroke-linecap:round;stroke-linejoin:round;-inkscape-stroke:none;paint-order:stroke markers fill"
         d="m -117.11328,115.24219 c -12.554,-10e-6 -22.76562,10.21163 -22.76563,22.76562 0,12.554 10.21163,22.76368 22.76563,22.76367 12.554,0 22.763674,-10.20967 22.763671,-22.76367 -3e-6,-12.55399 -10.209681,-22.76562 -22.763671,-22.76562 z m 0,3.10156 c 10.87863,0 19.664059,8.78543 19.664061,19.66406 3e-6,10.87864 -8.785431,19.66406 -19.664061,19.66406 -10.87864,10e-6 -19.66407,-8.78542 -19.66406,-19.66406 0,-10.87863 8.78543,-19.66406 19.66406,-19.66406 z"
         id="path9"
         inkscape:label="Outline" />
      <path
         style="color:#000000;display:inline;stroke-linecap:round;stroke-linejoin:round;-inkscape-stroke:none;paint-order:stroke markers fill"
         d="m -95.899378,138.00743 a 21.214285,21.214285 0 0 1 -21.214282,21.21429 21.214285,21.214285 0 0 1 -21.21429,-21.21429 21.214285,21.214285 0 0 1 21.21429,-21.21428 21.214285,21.214285 0 0 1 21.214282,21.21428 z"
         id="path10"
         inkscape:label="Circle" />
      <path
         d="m -109.86313,137.99928 q 0,2.68763 -0.40768,4.80149 -0.40767,2.11386 -1.29851,3.57847 -0.87574,1.4646 -2.29505,2.23465 -1.40421,0.75495 -3.39728,0.75495 -2.50644,0 -4.13714,-1.34381 -1.63069,-1.34381 -2.43094,-3.88045 -0.80025,-2.55173 -0.80025,-6.1453 0,-3.53317 0.72476,-6.06981 0.72475,-2.55173 2.34034,-3.91064 1.6307,-1.37402 4.30323,-1.37402 2.53663,0 4.16733,1.35892 1.64579,1.34381 2.43094,3.89554 0.80025,2.53664 0.80025,6.10001 z m -11.71684,0 q 0,2.94431 0.42277,4.90718 0.42277,1.96288 1.37401,2.94431 0.95124,0.96634 2.52154,0.96634 1.5703,0 2.52153,-0.96634 0.96634,-0.96634 1.38911,-2.92921 0.42278,-1.96287 0.42278,-4.92228 0,-2.89901 -0.42278,-4.84679 -0.42277,-1.96287 -1.37401,-2.94431 -0.93614,-0.99653 -2.53663,-0.99653 -1.6005,0 -2.55174,0.99653 -0.93614,0.98144 -1.35891,2.94431 -0.40767,1.94778 -0.40767,4.84679 z"
         id="path8"
         style="font-weight:500;font-size:30.9228px;line-height:0;font-family:'open sans';-inkscape-font-specification:'open sans Medium';letter-spacing:-0.966333px;word-spacing:0px;fill:#808080;stroke-width:4.86971;stroke-linecap:round;stroke-linejoin:round;stroke-opacity:0.501961"
         inkscape:label="Symbol 0"
         aria-label="0" />
    </g>
  </g>
  <metadata
     id="metadata8">
    <rdf:RDF>
      <cc:Work
         rdf:about="">
        <cc:license
           rdf:resource="https://opensource.org/license/mit" />
      </cc:Work>
    </rdf:RDF>
  </metadata>
</svg>
