<?xml version="1.0" encoding="UTF-8" standalone="no"?>
<!-- Created with Inkscape (http://www.inkscape.org/) -->

<svg
   width="45.529301mm"
   height="45.529289mm"
   viewBox="0 0 45.529303 45.529285"
   version="1.1"
   id="svg1"
   sodipodi:docname="directinput-23.svg"
   inkscape:version="1.3.2 (091e20e, 2023-11-25, custom)"
   xmlns:inkscape="http://www.inkscape.org/namespaces/inkscape"
   xmlns:sodipodi="http://sodipodi.sourceforge.net/DTD/sodipodi-0.dtd"
   xmlns="http://www.w3.org/2000/svg"
   xmlns:svg="http://www.w3.org/2000/svg"
   xmlns:rdf="http://www.w3.org/1999/02/22-rdf-syntax-ns#"
   xmlns:cc="http://creativecommons.org/ns#">
  <sodipodi:namedview
     id="namedview1"
     pagecolor="#3e8d2e"
     bordercolor="#000000"
     borderopacity="0.25"
     inkscape:showpageshadow="true"
     inkscape:pageopacity="0.0"
     inkscape:pagecheckerboard="false"
     inkscape:deskcolor="#d1d1d1"
     inkscape:document-units="mm"
     inkscape:zoom="2.8284271"
     inkscape:cx="24.041631"
     inkscape:cy="104.82858"
     inkscape:window-width="2560"
     inkscape:window-height="1351"
     inkscape:window-x="-9"
     inkscape:window-y="-9"
     inkscape:window-maximized="1"
     inkscape:current-layer="layer1"
     labelstyle="default"
     showborder="true" />
  <defs
     id="defs1">
    <rect
       x="-329.58707"
       y="426.24316"
       width="115.7824"
       height="107.24387"
       id="rect2" />
    <rect
       x="-486.35437"
       y="484.30515"
       width="87.776039"
       height="93.582237"
       id="rect1" />
  </defs>
  <g
     inkscape:label="Button Prompt 23"
     id="layer1"
     transform="translate(139.87891,-115.24219)"
     style="display:inline">
    <g
       id="path1"
       inkscape:label="Style - Outline (White)"
       style="display:none">
      <path
         style="color:#000000;display:inline;fill:#ffffff;fill-opacity:1;stroke-linecap:round;stroke-linejoin:round;-inkscape-stroke:none"
         d="m -95.899378,138.00743 a 21.214285,21.214285 0 0 1 -21.214282,21.21429 21.214285,21.214285 0 0 1 -21.21429,-21.21429 21.214285,21.214285 0 0 1 21.21429,-21.21428 21.214285,21.214285 0 0 1 21.214282,21.21428 z"
         id="path3"
         inkscape:label="Circle" />
      <path
         style="color:#000000;display:inline;fill:#000000;fill-opacity:1;stroke-linecap:round;stroke-linejoin:round;-inkscape-stroke:none"
         d="m -117.11328,115.24219 c -12.554,0 -22.76563,10.21163 -22.76563,22.76562 0,12.554 10.21163,22.76367 22.76563,22.76367 12.55399,0 22.763671,-10.20967 22.763671,-22.76367 0,-12.55399 -10.209681,-22.76562 -22.763671,-22.76562 z m 0,3.10156 c 10.87863,0 19.664061,8.78543 19.664061,19.66406 0,10.87864 -8.785431,19.66406 -19.664061,19.66406 -10.87863,0 -19.66406,-8.78542 -19.66406,-19.66406 0,-10.87863 8.78543,-19.66406 19.66406,-19.66406 z"
         id="path4"
         inkscape:label="Outline" />
      <path
         d="M 22.273563,32.435734 H 9.3964074 V 30.346832 L 14.486453,25.17746 q 1.454299,-1.467519 2.406204,-2.564854 0.965126,-1.110556 1.454299,-2.141786 0.489173,-1.044451 0.489173,-2.273994 0,-1.507183 -0.8858,-2.300437 -0.8858,-0.793254 -2.35332,-0.793254 -1.32209,0 -2.392983,0.489174 -1.057672,0.475952 -2.194669,1.374973 l -1.4278571,-1.7716 q 0.7800331,-0.661045 1.6922751,-1.189881 0.912242,-0.542057 1.996356,-0.859359 1.084113,-0.317301 2.406203,-0.317301 1.811263,0 3.120132,0.634603 1.32209,0.634603 2.036019,1.798042 0.713928,1.163439 0.713928,2.723505 0,1.546846 -0.621382,2.868935 -0.608161,1.308869 -1.731938,2.604518 -1.123776,1.295648 -2.6574,2.763167 l -3.767956,3.728294 v 0.118988 h 9.505826 z M 36.477216,17.562223 q 0,1.308869 -0.515615,2.273994 -0.515615,0.951905 -1.427857,1.560066 -0.912242,0.608162 -2.115344,0.859359 v 0.09255 q 2.300436,0.29086 3.463875,1.46752 1.17666,1.17666 1.17666,3.106911 0,1.679054 -0.793254,2.987923 -0.793253,1.308869 -2.445866,2.049239 -1.639391,0.740371 -4.217467,0.740371 -1.546845,0 -2.868935,-0.251197 -1.322089,-0.251197 -2.51197,-0.806475 v -2.419425 q 1.203101,0.608162 2.604517,0.951905 1.401415,0.330523 2.697063,0.330523 2.525192,0 3.622526,-0.978347 1.110556,-0.978346 1.110556,-2.697063 0,-1.136998 -0.594941,-1.850926 -0.59494,-0.72715 -1.7716,-1.070893 -1.163439,-0.343743 -2.908598,-0.343743 h -1.811263 v -2.19467 h 1.837705 q 1.626171,0 2.670622,-0.423068 1.057671,-0.43629 1.573287,-1.216323 0.515615,-0.780033 0.515615,-1.824484 0,-1.361753 -0.899022,-2.102123 -0.8858,-0.753591 -2.51197,-0.753591 -1.004789,0 -1.837705,0.224755 -0.819696,0.211535 -1.533625,0.568499 -0.700707,0.356964 -1.361752,0.806475 L 24.313989,14.81228 q 1.070893,-0.819696 2.591296,-1.401416 1.533624,-0.581719 3.503538,-0.581719 2.974703,0 4.521548,1.308869 1.546845,1.308869 1.546845,3.424213 z"
         id="text29"
         style="font-weight:500;font-size:27.0764px;line-height:0;font-family:'open sans';-inkscape-font-specification:'open sans Medium';letter-spacing:-0.564091px;word-spacing:0px;display:inline;fill:#000000;fill-opacity:1;stroke-width:4.264;stroke-linecap:round;stroke-linejoin:round;stroke-opacity:0.501961"
         aria-label="23"
         inkscape:label="Symbol 23"
         transform="translate(-139.87891,115.24219)" />
    </g>
    <g
       id="g6"
       inkscape:label="Style - Outline (Black)"
       style="display:none">
      <path
         style="color:#000000;display:inline;fill:#000000;fill-opacity:1;stroke-linecap:round;stroke-linejoin:round;-inkscape-stroke:none"
         d="m -95.899378,138.00743 a 21.214285,21.214285 0 0 1 -21.214282,21.21429 21.214285,21.214285 0 0 1 -21.21429,-21.21429 21.214285,21.214285 0 0 1 21.21429,-21.21428 21.214285,21.214285 0 0 1 21.214282,21.21428 z"
         id="path5"
         inkscape:label="Circle" />
      <path
         style="color:#000000;display:inline;fill:#ffffff;fill-opacity:1;stroke-linecap:round;stroke-linejoin:round;-inkscape-stroke:none"
         d="m -117.11328,115.24219 c -12.554,0 -22.76563,10.21163 -22.76563,22.76562 0,12.554 10.21163,22.76367 22.76563,22.76367 12.55399,0 22.763671,-10.20967 22.763671,-22.76367 0,-12.55399 -10.209681,-22.76562 -22.763671,-22.76562 z m 0,3.10156 c 10.87863,0 19.664061,8.78543 19.664061,19.66406 0,10.87864 -8.785431,19.66406 -19.664061,19.66406 -10.87863,0 -19.66406,-8.78542 -19.66406,-19.66406 0,-10.87863 8.78543,-19.66406 19.66406,-19.66406 z"
         id="path6"
         inkscape:label="Outline" />
      <path
         d="M 22.273563,32.435734 H 9.3964074 V 30.346832 L 14.486453,25.17746 q 1.454299,-1.467519 2.406204,-2.564854 0.965126,-1.110556 1.454299,-2.141786 0.489173,-1.044451 0.489173,-2.273994 0,-1.507183 -0.8858,-2.300437 -0.8858,-0.793254 -2.35332,-0.793254 -1.32209,0 -2.392983,0.489174 -1.057672,0.475952 -2.194669,1.374973 l -1.4278571,-1.7716 q 0.7800331,-0.661045 1.6922751,-1.189881 0.912242,-0.542057 1.996356,-0.859359 1.084113,-0.317301 2.406203,-0.317301 1.811263,0 3.120132,0.634603 1.32209,0.634603 2.036019,1.798042 0.713928,1.163439 0.713928,2.723505 0,1.546846 -0.621382,2.868935 -0.608161,1.308869 -1.731938,2.604518 -1.123776,1.295648 -2.6574,2.763167 l -3.767956,3.728294 v 0.118988 h 9.505826 z M 36.477216,17.562223 q 0,1.308869 -0.515615,2.273994 -0.515615,0.951905 -1.427857,1.560066 -0.912242,0.608162 -2.115344,0.859359 v 0.09255 q 2.300436,0.29086 3.463875,1.46752 1.17666,1.17666 1.17666,3.106911 0,1.679054 -0.793254,2.987923 -0.793253,1.308869 -2.445866,2.049239 -1.639391,0.740371 -4.217467,0.740371 -1.546845,0 -2.868935,-0.251197 -1.322089,-0.251197 -2.51197,-0.806475 v -2.419425 q 1.203101,0.608162 2.604517,0.951905 1.401415,0.330523 2.697063,0.330523 2.525192,0 3.622526,-0.978347 1.110556,-0.978346 1.110556,-2.697063 0,-1.136998 -0.594941,-1.850926 -0.59494,-0.72715 -1.7716,-1.070893 -1.163439,-0.343743 -2.908598,-0.343743 h -1.811263 v -2.19467 h 1.837705 q 1.626171,0 2.670622,-0.423068 1.057671,-0.43629 1.573287,-1.216323 0.515615,-0.780033 0.515615,-1.824484 0,-1.361753 -0.899022,-2.102123 -0.8858,-0.753591 -2.51197,-0.753591 -1.004789,0 -1.837705,0.224755 -0.819696,0.211535 -1.533625,0.568499 -0.700707,0.356964 -1.361752,0.806475 L 24.313989,14.81228 q 1.070893,-0.819696 2.591296,-1.401416 1.533624,-0.581719 3.503538,-0.581719 2.974703,0 4.521548,1.308869 1.546845,1.308869 1.546845,3.424213 z"
         id="path30"
         style="font-weight:500;font-size:27.0764px;line-height:0;font-family:'open sans';-inkscape-font-specification:'open sans Medium';letter-spacing:-0.564091px;word-spacing:0px;display:inline;fill:#ffffff;fill-opacity:1;stroke-width:4.264;stroke-linecap:round;stroke-linejoin:round;stroke-opacity:0.501961"
         aria-label="23"
         inkscape:label="Symbol 23"
         transform="translate(-139.87891,115.24219)" />
    </g>
    <g
       id="g8"
       inkscape:label="Style - Transparent"
       style="display:inline;fill:#ffffff;fill-opacity:1">
      <path
         style="color:#000000;display:inline;fill:#808080;fill-opacity:0.501031;stroke-linecap:round;stroke-linejoin:round;-inkscape-stroke:none;paint-order:stroke markers fill"
         d="m -117.11328,115.24219 c -12.554,-10e-6 -22.76562,10.21163 -22.76563,22.76562 0,12.554 10.21163,22.76368 22.76563,22.76367 12.554,0 22.763674,-10.20967 22.763671,-22.76367 -3e-6,-12.55399 -10.209681,-22.76562 -22.763671,-22.76562 z m 0,3.10156 c 10.87863,0 19.664059,8.78543 19.664061,19.66406 3e-6,10.87864 -8.785431,19.66406 -19.664061,19.66406 -10.87864,10e-6 -19.66407,-8.78542 -19.66406,-19.66406 0,-10.87863 8.78543,-19.66406 19.66406,-19.66406 z"
         id="path9"
         inkscape:label="Outline" />
      <path
         style="color:#000000;display:inline;stroke-linecap:round;stroke-linejoin:round;-inkscape-stroke:none;paint-order:stroke markers fill"
         d="m -95.899378,138.00743 a 21.214285,21.214285 0 0 1 -21.214282,21.21429 21.214285,21.214285 0 0 1 -21.21429,-21.21429 21.214285,21.214285 0 0 1 21.21429,-21.21428 21.214285,21.214285 0 0 1 21.214282,21.21428 z"
         id="path10"
         inkscape:label="Circle" />
      <path
         d="M 22.273563,32.435734 H 9.3964074 V 30.346832 L 14.486453,25.17746 q 1.454299,-1.467519 2.406204,-2.564854 0.965126,-1.110556 1.454299,-2.141786 0.489173,-1.044451 0.489173,-2.273994 0,-1.507183 -0.8858,-2.300437 -0.8858,-0.793254 -2.35332,-0.793254 -1.32209,0 -2.392983,0.489174 -1.057672,0.475952 -2.194669,1.374973 l -1.4278571,-1.7716 q 0.7800331,-0.661045 1.6922751,-1.189881 0.912242,-0.542057 1.996356,-0.859359 1.084113,-0.317301 2.406203,-0.317301 1.811263,0 3.120132,0.634603 1.32209,0.634603 2.036019,1.798042 0.713928,1.163439 0.713928,2.723505 0,1.546846 -0.621382,2.868935 -0.608161,1.308869 -1.731938,2.604518 -1.123776,1.295648 -2.6574,2.763167 l -3.767956,3.728294 v 0.118988 h 9.505826 z M 36.477216,17.562223 q 0,1.308869 -0.515615,2.273994 -0.515615,0.951905 -1.427857,1.560066 -0.912242,0.608162 -2.115344,0.859359 v 0.09255 q 2.300436,0.29086 3.463875,1.46752 1.17666,1.17666 1.17666,3.106911 0,1.679054 -0.793254,2.987923 -0.793253,1.308869 -2.445866,2.049239 -1.639391,0.740371 -4.217467,0.740371 -1.546845,0 -2.868935,-0.251197 -1.322089,-0.251197 -2.51197,-0.806475 v -2.419425 q 1.203101,0.608162 2.604517,0.951905 1.401415,0.330523 2.697063,0.330523 2.525192,0 3.622526,-0.978347 1.110556,-0.978346 1.110556,-2.697063 0,-1.136998 -0.594941,-1.850926 -0.59494,-0.72715 -1.7716,-1.070893 -1.163439,-0.343743 -2.908598,-0.343743 h -1.811263 v -2.19467 h 1.837705 q 1.626171,0 2.670622,-0.423068 1.057671,-0.43629 1.573287,-1.216323 0.515615,-0.780033 0.515615,-1.824484 0,-1.361753 -0.899022,-2.102123 -0.8858,-0.753591 -2.51197,-0.753591 -1.004789,0 -1.837705,0.224755 -0.819696,0.211535 -1.533625,0.568499 -0.700707,0.356964 -1.361752,0.806475 L 24.313989,14.81228 q 1.070893,-0.819696 2.591296,-1.401416 1.533624,-0.581719 3.503538,-0.581719 2.974703,0 4.521548,1.308869 1.546845,1.308869 1.546845,3.424213 z"
         id="path29"
         style="font-weight:500;font-size:27.0764px;line-height:0;font-family:'open sans';-inkscape-font-specification:'open sans Medium';letter-spacing:-0.564091px;word-spacing:0px;fill:#808080;stroke-width:4.264;stroke-linecap:round;stroke-linejoin:round;stroke-opacity:0.501961"
         aria-label="23"
         inkscape:label="Symbol 23"
         transform="translate(-139.87891,115.24219)" />
    </g>
  </g>
  <metadata
     id="metadata8">
    <rdf:RDF>
      <cc:Work
         rdf:about="">
        <cc:license
           rdf:resource="https://opensource.org/license/mit" />
      </cc:Work>
    </rdf:RDF>
  </metadata>
</svg>
