<?xml version="1.0" encoding="UTF-8" standalone="no"?>
<!-- Created with Inkscape (http://www.inkscape.org/) -->

<svg
   width="45.529301mm"
   height="45.529289mm"
   viewBox="0 0 45.529303 45.529285"
   version="1.1"
   id="svg1"
   sodipodi:docname="directinput-21.svg"
   inkscape:version="1.3.2 (091e20e, 2023-11-25, custom)"
   xmlns:inkscape="http://www.inkscape.org/namespaces/inkscape"
   xmlns:sodipodi="http://sodipodi.sourceforge.net/DTD/sodipodi-0.dtd"
   xmlns="http://www.w3.org/2000/svg"
   xmlns:svg="http://www.w3.org/2000/svg"
   xmlns:rdf="http://www.w3.org/1999/02/22-rdf-syntax-ns#"
   xmlns:cc="http://creativecommons.org/ns#">
  <sodipodi:namedview
     id="namedview1"
     pagecolor="#3e8d2e"
     bordercolor="#000000"
     borderopacity="0.25"
     inkscape:showpageshadow="true"
     inkscape:pageopacity="0.0"
     inkscape:pagecheckerboard="false"
     inkscape:deskcolor="#d1d1d1"
     inkscape:document-units="mm"
     inkscape:zoom="5.6568542"
     inkscape:cx="74.776542"
     inkscape:cy="89.007066"
     inkscape:window-width="2560"
     inkscape:window-height="1351"
     inkscape:window-x="-9"
     inkscape:window-y="-9"
     inkscape:window-maximized="1"
     inkscape:current-layer="layer1"
     labelstyle="default"
     showborder="true" />
  <defs
     id="defs1">
    <rect
       x="-329.58707"
       y="426.24316"
       width="115.7824"
       height="107.24387"
       id="rect2" />
    <rect
       x="-486.35437"
       y="484.30515"
       width="87.776039"
       height="93.582237"
       id="rect1" />
  </defs>
  <g
     inkscape:label="Button Prompt 21"
     id="layer1"
     transform="translate(139.87891,-115.24219)"
     style="display:inline">
    <g
       id="path1"
       inkscape:label="Style - Outline (White)"
       style="display:none">
      <path
         style="color:#000000;display:inline;fill:#ffffff;fill-opacity:1;stroke-linecap:round;stroke-linejoin:round;-inkscape-stroke:none"
         d="m -95.899378,138.00743 a 21.214285,21.214285 0 0 1 -21.214282,21.21429 21.214285,21.214285 0 0 1 -21.21429,-21.21429 21.214285,21.214285 0 0 1 21.21429,-21.21428 21.214285,21.214285 0 0 1 21.214282,21.21428 z"
         id="path3"
         inkscape:label="Circle" />
      <path
         style="color:#000000;display:inline;fill:#000000;fill-opacity:1;stroke-linecap:round;stroke-linejoin:round;-inkscape-stroke:none"
         d="m -117.11328,115.24219 c -12.554,0 -22.76563,10.21163 -22.76563,22.76562 0,12.554 10.21163,22.76367 22.76563,22.76367 12.55399,0 22.763671,-10.20967 22.763671,-22.76367 0,-12.55399 -10.209681,-22.76562 -22.763671,-22.76562 z m 0,3.10156 c 10.87863,0 19.664061,8.78543 19.664061,19.66406 0,10.87864 -8.785431,19.66406 -19.664061,19.66406 -10.87863,0 -19.66406,-8.78542 -19.66406,-19.66406 0,-10.87863 8.78543,-19.66406 19.66406,-19.66406 z"
         id="path4"
         inkscape:label="Outline" />
      <path
         d="m -116.43201,147.94232 h -13.05079 v -2.11707 l 5.15868,-5.23907 q 1.4739,-1.48731 2.43864,-2.59944 0.97814,-1.12553 1.47391,-2.17067 0.49577,-1.05853 0.49577,-2.30465 0,-1.52751 -0.89774,-2.33146 -0.89775,-0.80395 -2.38505,-0.80395 -1.33992,0 -2.42525,0.49577 -1.07194,0.48237 -2.22427,1.39351 l -1.44711,-1.79549 q 0.79055,-0.66995 1.7151,-1.20592 0.92454,-0.54937 2.02327,-0.87095 1.09873,-0.32158 2.43865,-0.32158 1.83569,0 3.1622,0.64316 1.33992,0.64316 2.06348,1.82229 0.72355,1.17913 0.72355,2.76023 0,1.5677 -0.62976,2.90762 -0.61636,1.32652 -1.75529,2.63964 -1.13893,1.31311 -2.69323,2.80042 l -3.81877,3.77857 v 0.12059 h 9.63401 z m 10.84439,0 h -2.66643 v -13.25178 q 0,-0.71015 0,-1.29972 0.0134,-0.60296 0.0402,-1.13893 0.0268,-0.54936 0.0536,-1.05853 -0.34838,0.36178 -0.73695,0.69676 -0.37518,0.32158 -0.87095,0.73695 l -2.23766,1.80889 -1.38012,-1.76869 5.56066,-4.31453 h 2.23766 z"
         id="path27"
         style="font-weight:500;font-size:27.4415px;line-height:0;font-family:'open sans';-inkscape-font-specification:'open sans Medium';letter-spacing:-0.571698px;word-spacing:0px;display:inline;fill:#000000;stroke-width:4.3215;stroke-linecap:round;stroke-linejoin:round;stroke-opacity:0.501961"
         aria-label="21"
         inkscape:label="Symbol 21"
         transform="translate(1.2499999e-6)" />
    </g>
    <g
       id="g6"
       inkscape:label="Style - Outline (Black)"
       style="display:none">
      <path
         style="color:#000000;display:inline;fill:#000000;fill-opacity:1;stroke-linecap:round;stroke-linejoin:round;-inkscape-stroke:none"
         d="m -95.899378,138.00743 a 21.214285,21.214285 0 0 1 -21.214282,21.21429 21.214285,21.214285 0 0 1 -21.21429,-21.21429 21.214285,21.214285 0 0 1 21.21429,-21.21428 21.214285,21.214285 0 0 1 21.214282,21.21428 z"
         id="path5"
         inkscape:label="Circle" />
      <path
         style="color:#000000;display:inline;fill:#ffffff;fill-opacity:1;stroke-linecap:round;stroke-linejoin:round;-inkscape-stroke:none"
         d="m -117.11328,115.24219 c -12.554,0 -22.76563,10.21163 -22.76563,22.76562 0,12.554 10.21163,22.76367 22.76563,22.76367 12.55399,0 22.763671,-10.20967 22.763671,-22.76367 0,-12.55399 -10.209681,-22.76562 -22.763671,-22.76562 z m 0,3.10156 c 10.87863,0 19.664061,8.78543 19.664061,19.66406 0,10.87864 -8.785431,19.66406 -19.664061,19.66406 -10.87863,0 -19.66406,-8.78542 -19.66406,-19.66406 0,-10.87863 8.78543,-19.66406 19.66406,-19.66406 z"
         id="path6"
         inkscape:label="Outline" />
      <path
         d="m -116.43201,147.94232 h -13.05079 v -2.11707 l 5.15868,-5.23907 q 1.4739,-1.48731 2.43864,-2.59944 0.97814,-1.12553 1.47391,-2.17067 0.49577,-1.05853 0.49577,-2.30465 0,-1.52751 -0.89774,-2.33146 -0.89775,-0.80395 -2.38505,-0.80395 -1.33992,0 -2.42525,0.49577 -1.07194,0.48237 -2.22427,1.39351 l -1.44711,-1.79549 q 0.79055,-0.66995 1.7151,-1.20592 0.92454,-0.54937 2.02327,-0.87095 1.09873,-0.32158 2.43865,-0.32158 1.83569,0 3.1622,0.64316 1.33992,0.64316 2.06348,1.82229 0.72355,1.17913 0.72355,2.76023 0,1.5677 -0.62976,2.90762 -0.61636,1.32652 -1.75529,2.63964 -1.13893,1.31311 -2.69323,2.80042 l -3.81877,3.77857 v 0.12059 h 9.63401 z m 10.84439,0 h -2.66643 v -13.25178 q 0,-0.71015 0,-1.29972 0.0134,-0.60296 0.0402,-1.13893 0.0268,-0.54936 0.0536,-1.05853 -0.34838,0.36178 -0.73695,0.69676 -0.37518,0.32158 -0.87095,0.73695 l -2.23766,1.80889 -1.38012,-1.76869 5.56066,-4.31453 h 2.23766 z"
         id="text27"
         style="font-weight:500;font-size:27.4415px;line-height:0;font-family:'open sans';-inkscape-font-specification:'open sans Medium';letter-spacing:-0.571698px;word-spacing:0px;display:inline;fill:#ffffff;stroke-width:4.3215;stroke-linecap:round;stroke-linejoin:round;stroke-opacity:0.501961"
         aria-label="21"
         inkscape:label="Symbol 21"
         transform="translate(1.2499999e-6)" />
    </g>
    <g
       id="g8"
       inkscape:label="Style - Transparent"
       style="display:inline;fill:#ffffff;fill-opacity:1">
      <path
         style="color:#000000;display:inline;fill:#808080;fill-opacity:0.501031;stroke-linecap:round;stroke-linejoin:round;-inkscape-stroke:none;paint-order:stroke markers fill"
         d="m -117.11328,115.24219 c -12.554,-10e-6 -22.76562,10.21163 -22.76563,22.76562 0,12.554 10.21163,22.76368 22.76563,22.76367 12.554,0 22.763674,-10.20967 22.763671,-22.76367 -3e-6,-12.55399 -10.209681,-22.76562 -22.763671,-22.76562 z m 0,3.10156 c 10.87863,0 19.664059,8.78543 19.664061,19.66406 3e-6,10.87864 -8.785431,19.66406 -19.664061,19.66406 -10.87864,10e-6 -19.66407,-8.78542 -19.66406,-19.66406 0,-10.87863 8.78543,-19.66406 19.66406,-19.66406 z"
         id="path9"
         inkscape:label="Outline" />
      <path
         style="color:#000000;display:inline;stroke-linecap:round;stroke-linejoin:round;-inkscape-stroke:none;paint-order:stroke markers fill"
         d="m -95.899378,138.00743 a 21.214285,21.214285 0 0 1 -21.214282,21.21429 21.214285,21.214285 0 0 1 -21.21429,-21.21429 21.214285,21.214285 0 0 1 21.21429,-21.21428 21.214285,21.214285 0 0 1 21.214282,21.21428 z"
         id="path10"
         inkscape:label="Circle" />
      <path
         d="m -116.43201,147.94232 h -13.05079 v -2.11707 l 5.15868,-5.23907 q 1.4739,-1.48731 2.43864,-2.59944 0.97814,-1.12553 1.47391,-2.17067 0.49577,-1.05853 0.49577,-2.30465 0,-1.52751 -0.89774,-2.33146 -0.89775,-0.80395 -2.38505,-0.80395 -1.33992,0 -2.42525,0.49577 -1.07194,0.48237 -2.22427,1.39351 l -1.44711,-1.79549 q 0.79055,-0.66995 1.7151,-1.20592 0.92454,-0.54937 2.02327,-0.87095 1.09873,-0.32158 2.43865,-0.32158 1.83569,0 3.1622,0.64316 1.33992,0.64316 2.06348,1.82229 0.72355,1.17913 0.72355,2.76023 0,1.5677 -0.62976,2.90762 -0.61636,1.32652 -1.75529,2.63964 -1.13893,1.31311 -2.69323,2.80042 l -3.81877,3.77857 v 0.12059 h 9.63401 z m 10.84439,0 h -2.66643 v -13.25178 q 0,-0.71015 0,-1.29972 0.0134,-0.60296 0.0402,-1.13893 0.0268,-0.54936 0.0536,-1.05853 -0.34838,0.36178 -0.73695,0.69676 -0.37518,0.32158 -0.87095,0.73695 l -2.23766,1.80889 -1.38012,-1.76869 5.56066,-4.31453 h 2.23766 z"
         id="path28"
         style="font-weight:500;font-size:27.4415px;line-height:0;font-family:'open sans';-inkscape-font-specification:'open sans Medium';letter-spacing:-0.571698px;word-spacing:0px;display:inline;fill:#808080;stroke-width:4.3215;stroke-linecap:round;stroke-linejoin:round;stroke-opacity:0.501961"
         aria-label="21"
         inkscape:label="Symbol 21"
         transform="translate(1.2499999e-6)" />
    </g>
  </g>
  <metadata
     id="metadata8">
    <rdf:RDF>
      <cc:Work
         rdf:about="">
        <cc:license
           rdf:resource="https://opensource.org/license/mit" />
      </cc:Work>
    </rdf:RDF>
  </metadata>
</svg>
