<?xml version="1.0" encoding="UTF-8" standalone="no"?>
<!-- Created with Inkscape (http://www.inkscape.org/) -->

<svg
   width="45.529301mm"
   height="45.529289mm"
   viewBox="0 0 45.529303 45.529285"
   version="1.1"
   id="svg1"
   sodipodi:docname="directinput-28.svg"
   inkscape:version="1.3.2 (091e20e, 2023-11-25, custom)"
   xmlns:inkscape="http://www.inkscape.org/namespaces/inkscape"
   xmlns:sodipodi="http://sodipodi.sourceforge.net/DTD/sodipodi-0.dtd"
   xmlns="http://www.w3.org/2000/svg"
   xmlns:svg="http://www.w3.org/2000/svg"
   xmlns:rdf="http://www.w3.org/1999/02/22-rdf-syntax-ns#"
   xmlns:cc="http://creativecommons.org/ns#">
  <sodipodi:namedview
     id="namedview1"
     pagecolor="#3e8d2e"
     bordercolor="#000000"
     borderopacity="0.25"
     inkscape:showpageshadow="true"
     inkscape:pageopacity="0.0"
     inkscape:pagecheckerboard="false"
     inkscape:deskcolor="#d1d1d1"
     inkscape:document-units="mm"
     inkscape:zoom="5.6568542"
     inkscape:cx="70.710678"
     inkscape:cy="91.835493"
     inkscape:window-width="2560"
     inkscape:window-height="1351"
     inkscape:window-x="-9"
     inkscape:window-y="-9"
     inkscape:window-maximized="1"
     inkscape:current-layer="layer1"
     labelstyle="default"
     showborder="true" />
  <defs
     id="defs1">
    <rect
       x="-329.58707"
       y="426.24316"
       width="115.7824"
       height="107.24387"
       id="rect2" />
    <rect
       x="-486.35437"
       y="484.30515"
       width="87.776039"
       height="93.582237"
       id="rect1" />
  </defs>
  <g
     inkscape:label="Button Prompt 28"
     id="layer1"
     transform="translate(139.87891,-115.24219)"
     style="display:inline">
    <g
       id="path1"
       inkscape:label="Style - Outline (White)"
       style="display:none">
      <path
         style="color:#000000;display:inline;fill:#ffffff;fill-opacity:1;stroke-linecap:round;stroke-linejoin:round;-inkscape-stroke:none"
         d="m -95.899378,138.00743 a 21.214285,21.214285 0 0 1 -21.214282,21.21429 21.214285,21.214285 0 0 1 -21.21429,-21.21429 21.214285,21.214285 0 0 1 21.21429,-21.21428 21.214285,21.214285 0 0 1 21.214282,21.21428 z"
         id="path3"
         inkscape:label="Circle" />
      <path
         style="color:#000000;display:inline;fill:#000000;fill-opacity:1;stroke-linecap:round;stroke-linejoin:round;-inkscape-stroke:none"
         d="m -117.11328,115.24219 c -12.554,0 -22.76563,10.21163 -22.76563,22.76562 0,12.554 10.21163,22.76367 22.76563,22.76367 12.55399,0 22.763671,-10.20967 22.763671,-22.76367 0,-12.55399 -10.209681,-22.76562 -22.763671,-22.76562 z m 0,3.10156 c 10.87863,0 19.664061,8.78543 19.664061,19.66406 0,10.87864 -8.785431,19.66406 -19.664061,19.66406 -10.87863,0 -19.66406,-8.78542 -19.66406,-19.66406 0,-10.87863 8.78543,-19.66406 19.66406,-19.66406 z"
         id="path4"
         inkscape:label="Outline" />
      <path
         d="M 22.088408,32.435734 H 9.2112525 V 30.346832 L 14.301298,25.17746 q 1.454299,-1.467519 2.406204,-2.564854 0.965126,-1.110556 1.454299,-2.141786 0.489173,-1.044451 0.489173,-2.273994 0,-1.507183 -0.8858,-2.300437 -0.8858,-0.793254 -2.35332,-0.793254 -1.32209,0 -2.392983,0.489174 -1.057672,0.475952 -2.194669,1.374973 l -1.427857,-1.7716 q 0.780033,-0.661045 1.692275,-1.189881 0.912242,-0.542057 1.996356,-0.859359 1.084114,-0.317301 2.406203,-0.317301 1.811264,0 3.120133,0.634603 1.322089,0.634603 2.036018,1.798042 0.713928,1.163439 0.713928,2.723505 0,1.546846 -0.621382,2.868935 -0.608161,1.308869 -1.731938,2.604518 -1.123776,1.295648 -2.6574,2.763167 l -3.767956,3.728294 v 0.118988 h 9.505826 z m 8.505446,-19.606593 q 1.665833,0 2.987923,0.528836 1.33531,0.528836 2.088902,1.560066 0.766812,1.018009 0.766812,2.538412 0,1.16344 -0.502394,2.04924 -0.489174,0.872579 -1.335311,1.533624 -0.832917,0.647824 -1.864147,1.163439 1.189881,0.555278 2.168228,1.269206 0.978346,0.713929 1.560066,1.679055 0.581719,0.965125 0.581719,2.287215 0,1.61295 -0.806475,2.802831 -0.793254,1.17666 -2.234332,1.824484 -1.441078,0.634603 -3.371329,0.634603 -2.088902,0 -3.543201,-0.608162 -1.454299,-0.621382 -2.221111,-1.7716 -0.753591,-1.163439 -0.753591,-2.78961 0,-1.33531 0.555278,-2.313657 0.555278,-0.991567 1.46752,-1.692275 0.912242,-0.713929 1.996355,-1.216323 -0.938683,-0.528836 -1.718716,-1.203101 -0.766813,-0.674266 -1.229544,-1.573287 -0.449511,-0.912242 -0.449511,-2.102123 0,-1.480741 0.766812,-2.49875 0.780034,-1.03123 2.115344,-1.560066 1.335311,-0.542057 2.974703,-0.542057 z m -3.913387,14.648756 q 0,1.374973 0.965126,2.260773 0.978347,0.885801 2.93504,0.885801 1.877367,0 2.882156,-0.87258 1.018009,-0.8858 1.018009,-2.326878 0,-0.912242 -0.489173,-1.599729 -0.475953,-0.687486 -1.335311,-1.229543 -0.846138,-0.555278 -1.956693,-1.004789 L 30.25011,23.419081 q -1.123776,0.475952 -1.91703,1.057672 -0.793254,0.568498 -1.229544,1.308869 -0.423069,0.727149 -0.423069,1.692275 z m 3.886945,-12.546633 q -1.427857,0 -2.340099,0.687487 -0.899021,0.687486 -0.899021,1.969913 0,0.925463 0.436289,1.573287 0.449511,0.634604 1.203102,1.110556 0.753591,0.462731 1.692275,0.859358 0.899021,-0.396627 1.61295,-0.859358 0.727149,-0.475952 1.136997,-1.123777 0.423069,-0.661044 0.423069,-1.560066 0,-1.295648 -0.912242,-1.969913 -0.899021,-0.687487 -2.35332,-0.687487 z"
         id="path36"
         style="font-weight:500;font-size:27.0764px;line-height:0;font-family:'open sans';-inkscape-font-specification:'open sans Medium';letter-spacing:-0.564091px;word-spacing:0px;display:inline;fill:#000000;fill-opacity:1;stroke-width:4.264;stroke-linecap:round;stroke-linejoin:round;stroke-opacity:0.501961"
         inkscape:label="Symbol 28"
         aria-label="28"
         transform="translate(-139.87891,115.24219)" />
    </g>
    <g
       id="g6"
       inkscape:label="Style - Outline (Black)"
       style="display:none">
      <path
         style="color:#000000;display:inline;fill:#000000;fill-opacity:1;stroke-linecap:round;stroke-linejoin:round;-inkscape-stroke:none"
         d="m -95.899378,138.00743 a 21.214285,21.214285 0 0 1 -21.214282,21.21429 21.214285,21.214285 0 0 1 -21.21429,-21.21429 21.214285,21.214285 0 0 1 21.21429,-21.21428 21.214285,21.214285 0 0 1 21.214282,21.21428 z"
         id="path5"
         inkscape:label="Circle" />
      <path
         style="color:#000000;display:inline;fill:#ffffff;fill-opacity:1;stroke-linecap:round;stroke-linejoin:round;-inkscape-stroke:none"
         d="m -117.11328,115.24219 c -12.554,0 -22.76563,10.21163 -22.76563,22.76562 0,12.554 10.21163,22.76367 22.76563,22.76367 12.55399,0 22.763671,-10.20967 22.763671,-22.76367 0,-12.55399 -10.209681,-22.76562 -22.763671,-22.76562 z m 0,3.10156 c 10.87863,0 19.664061,8.78543 19.664061,19.66406 0,10.87864 -8.785431,19.66406 -19.664061,19.66406 -10.87863,0 -19.66406,-8.78542 -19.66406,-19.66406 0,-10.87863 8.78543,-19.66406 19.66406,-19.66406 z"
         id="path6"
         inkscape:label="Outline" />
      <path
         d="M 22.088408,32.435734 H 9.2112525 V 30.346832 L 14.301298,25.17746 q 1.454299,-1.467519 2.406204,-2.564854 0.965126,-1.110556 1.454299,-2.141786 0.489173,-1.044451 0.489173,-2.273994 0,-1.507183 -0.8858,-2.300437 -0.8858,-0.793254 -2.35332,-0.793254 -1.32209,0 -2.392983,0.489174 -1.057672,0.475952 -2.194669,1.374973 l -1.427857,-1.7716 q 0.780033,-0.661045 1.692275,-1.189881 0.912242,-0.542057 1.996356,-0.859359 1.084114,-0.317301 2.406203,-0.317301 1.811264,0 3.120133,0.634603 1.322089,0.634603 2.036018,1.798042 0.713928,1.163439 0.713928,2.723505 0,1.546846 -0.621382,2.868935 -0.608161,1.308869 -1.731938,2.604518 -1.123776,1.295648 -2.6574,2.763167 l -3.767956,3.728294 v 0.118988 h 9.505826 z m 8.505446,-19.606593 q 1.665833,0 2.987923,0.528836 1.33531,0.528836 2.088902,1.560066 0.766812,1.018009 0.766812,2.538412 0,1.16344 -0.502394,2.04924 -0.489174,0.872579 -1.335311,1.533624 -0.832917,0.647824 -1.864147,1.163439 1.189881,0.555278 2.168228,1.269206 0.978346,0.713929 1.560066,1.679055 0.581719,0.965125 0.581719,2.287215 0,1.61295 -0.806475,2.802831 -0.793254,1.17666 -2.234332,1.824484 -1.441078,0.634603 -3.371329,0.634603 -2.088902,0 -3.543201,-0.608162 -1.454299,-0.621382 -2.221111,-1.7716 -0.753591,-1.163439 -0.753591,-2.78961 0,-1.33531 0.555278,-2.313657 0.555278,-0.991567 1.46752,-1.692275 0.912242,-0.713929 1.996355,-1.216323 -0.938683,-0.528836 -1.718716,-1.203101 -0.766813,-0.674266 -1.229544,-1.573287 -0.449511,-0.912242 -0.449511,-2.102123 0,-1.480741 0.766812,-2.49875 0.780034,-1.03123 2.115344,-1.560066 1.335311,-0.542057 2.974703,-0.542057 z m -3.913387,14.648756 q 0,1.374973 0.965126,2.260773 0.978347,0.885801 2.93504,0.885801 1.877367,0 2.882156,-0.87258 1.018009,-0.8858 1.018009,-2.326878 0,-0.912242 -0.489173,-1.599729 -0.475953,-0.687486 -1.335311,-1.229543 -0.846138,-0.555278 -1.956693,-1.004789 L 30.25011,23.419081 q -1.123776,0.475952 -1.91703,1.057672 -0.793254,0.568498 -1.229544,1.308869 -0.423069,0.727149 -0.423069,1.692275 z m 3.886945,-12.546633 q -1.427857,0 -2.340099,0.687487 -0.899021,0.687486 -0.899021,1.969913 0,0.925463 0.436289,1.573287 0.449511,0.634604 1.203102,1.110556 0.753591,0.462731 1.692275,0.859358 0.899021,-0.396627 1.61295,-0.859358 0.727149,-0.475952 1.136997,-1.123777 0.423069,-0.661044 0.423069,-1.560066 0,-1.295648 -0.912242,-1.969913 -0.899021,-0.687487 -2.35332,-0.687487 z"
         id="text35"
         style="font-weight:500;font-size:27.0764px;line-height:0;font-family:'open sans';-inkscape-font-specification:'open sans Medium';letter-spacing:-0.564091px;word-spacing:0px;display:inline;fill:#ffffff;fill-opacity:1;stroke-width:4.264;stroke-linecap:round;stroke-linejoin:round;stroke-opacity:0.501961"
         inkscape:label="Symbol 28"
         aria-label="28"
         transform="translate(-139.87891,115.24219)" />
    </g>
    <g
       id="g8"
       inkscape:label="Style - Transparent"
       style="display:inline;fill:#ffffff;fill-opacity:1">
      <path
         style="color:#000000;display:inline;fill:#808080;fill-opacity:0.501031;stroke-linecap:round;stroke-linejoin:round;-inkscape-stroke:none;paint-order:stroke markers fill"
         d="m -117.11328,115.24219 c -12.554,-10e-6 -22.76562,10.21163 -22.76563,22.76562 0,12.554 10.21163,22.76368 22.76563,22.76367 12.554,0 22.763674,-10.20967 22.763671,-22.76367 -3e-6,-12.55399 -10.209681,-22.76562 -22.763671,-22.76562 z m 0,3.10156 c 10.87863,0 19.664059,8.78543 19.664061,19.66406 3e-6,10.87864 -8.785431,19.66406 -19.664061,19.66406 -10.87864,10e-6 -19.66407,-8.78542 -19.66406,-19.66406 0,-10.87863 8.78543,-19.66406 19.66406,-19.66406 z"
         id="path9"
         inkscape:label="Outline" />
      <path
         style="color:#000000;display:inline;stroke-linecap:round;stroke-linejoin:round;-inkscape-stroke:none;paint-order:stroke markers fill"
         d="m -95.899378,138.00743 a 21.214285,21.214285 0 0 1 -21.214282,21.21429 21.214285,21.214285 0 0 1 -21.21429,-21.21429 21.214285,21.214285 0 0 1 21.21429,-21.21428 21.214285,21.214285 0 0 1 21.214282,21.21428 z"
         id="path10"
         inkscape:label="Circle" />
      <path
         d="M 22.088408,32.435734 H 9.2112525 V 30.346832 L 14.301298,25.17746 q 1.454299,-1.467519 2.406204,-2.564854 0.965126,-1.110556 1.454299,-2.141786 0.489173,-1.044451 0.489173,-2.273994 0,-1.507183 -0.8858,-2.300437 -0.8858,-0.793254 -2.35332,-0.793254 -1.32209,0 -2.392983,0.489174 -1.057672,0.475952 -2.194669,1.374973 l -1.427857,-1.7716 q 0.780033,-0.661045 1.692275,-1.189881 0.912242,-0.542057 1.996356,-0.859359 1.084114,-0.317301 2.406203,-0.317301 1.811264,0 3.120133,0.634603 1.322089,0.634603 2.036018,1.798042 0.713928,1.163439 0.713928,2.723505 0,1.546846 -0.621382,2.868935 -0.608161,1.308869 -1.731938,2.604518 -1.123776,1.295648 -2.6574,2.763167 l -3.767956,3.728294 v 0.118988 h 9.505826 z m 8.505446,-19.606593 q 1.665833,0 2.987923,0.528836 1.33531,0.528836 2.088902,1.560066 0.766812,1.018009 0.766812,2.538412 0,1.16344 -0.502394,2.04924 -0.489174,0.872579 -1.335311,1.533624 -0.832917,0.647824 -1.864147,1.163439 1.189881,0.555278 2.168228,1.269206 0.978346,0.713929 1.560066,1.679055 0.581719,0.965125 0.581719,2.287215 0,1.61295 -0.806475,2.802831 -0.793254,1.17666 -2.234332,1.824484 -1.441078,0.634603 -3.371329,0.634603 -2.088902,0 -3.543201,-0.608162 -1.454299,-0.621382 -2.221111,-1.7716 -0.753591,-1.163439 -0.753591,-2.78961 0,-1.33531 0.555278,-2.313657 0.555278,-0.991567 1.46752,-1.692275 0.912242,-0.713929 1.996355,-1.216323 -0.938683,-0.528836 -1.718716,-1.203101 -0.766813,-0.674266 -1.229544,-1.573287 -0.449511,-0.912242 -0.449511,-2.102123 0,-1.480741 0.766812,-2.49875 0.780034,-1.03123 2.115344,-1.560066 1.335311,-0.542057 2.974703,-0.542057 z m -3.913387,14.648756 q 0,1.374973 0.965126,2.260773 0.978347,0.885801 2.93504,0.885801 1.877367,0 2.882156,-0.87258 1.018009,-0.8858 1.018009,-2.326878 0,-0.912242 -0.489173,-1.599729 -0.475953,-0.687486 -1.335311,-1.229543 -0.846138,-0.555278 -1.956693,-1.004789 L 30.25011,23.419081 q -1.123776,0.475952 -1.91703,1.057672 -0.793254,0.568498 -1.229544,1.308869 -0.423069,0.727149 -0.423069,1.692275 z m 3.886945,-12.546633 q -1.427857,0 -2.340099,0.687487 -0.899021,0.687486 -0.899021,1.969913 0,0.925463 0.436289,1.573287 0.449511,0.634604 1.203102,1.110556 0.753591,0.462731 1.692275,0.859358 0.899021,-0.396627 1.61295,-0.859358 0.727149,-0.475952 1.136997,-1.123777 0.423069,-0.661044 0.423069,-1.560066 0,-1.295648 -0.912242,-1.969913 -0.899021,-0.687487 -2.35332,-0.687487 z"
         id="path35"
         style="font-weight:500;font-size:27.0764px;line-height:0;font-family:'open sans';-inkscape-font-specification:'open sans Medium';letter-spacing:-0.564091px;word-spacing:0px;fill:#808080;stroke-width:4.264;stroke-linecap:round;stroke-linejoin:round;stroke-opacity:0.501961"
         inkscape:label="Symbol 28"
         aria-label="28"
         transform="translate(-139.87891,115.24219)" />
    </g>
  </g>
  <metadata
     id="metadata8">
    <rdf:RDF>
      <cc:Work
         rdf:about="">
        <cc:license
           rdf:resource="https://opensource.org/license/mit" />
      </cc:Work>
    </rdf:RDF>
  </metadata>
</svg>
