<?xml version="1.0" encoding="UTF-8" standalone="no"?>
<!-- Created with Inkscape (http://www.inkscape.org/) -->

<svg
   width="45.529301mm"
   height="45.529289mm"
   viewBox="0 0 45.529303 45.529286"
   version="1.1"
   id="svg1"
   sodipodi:docname="directinput-8.svg"
   inkscape:version="1.3.2 (091e20e, 2023-11-25, custom)"
   xmlns:inkscape="http://www.inkscape.org/namespaces/inkscape"
   xmlns:sodipodi="http://sodipodi.sourceforge.net/DTD/sodipodi-0.dtd"
   xmlns="http://www.w3.org/2000/svg"
   xmlns:svg="http://www.w3.org/2000/svg"
   xmlns:rdf="http://www.w3.org/1999/02/22-rdf-syntax-ns#"
   xmlns:cc="http://creativecommons.org/ns#">
  <sodipodi:namedview
     id="namedview1"
     pagecolor="#3e8d2e"
     bordercolor="#000000"
     borderopacity="0.25"
     inkscape:showpageshadow="true"
     inkscape:pageopacity="0.0"
     inkscape:pagecheckerboard="false"
     inkscape:deskcolor="#d1d1d1"
     inkscape:document-units="mm"
     inkscape:zoom="5.6568542"
     inkscape:cx="52.856232"
     inkscape:cy="86.708969"
     inkscape:window-width="2560"
     inkscape:window-height="1351"
     inkscape:window-x="-9"
     inkscape:window-y="-9"
     inkscape:window-maximized="1"
     inkscape:current-layer="layer1"
     labelstyle="default"
     showborder="true" />
  <defs
     id="defs1">
    <rect
       x="-329.58707"
       y="426.24316"
       width="115.7824"
       height="107.24387"
       id="rect2" />
    <rect
       x="-486.35437"
       y="484.30515"
       width="87.776039"
       height="93.582237"
       id="rect1" />
  </defs>
  <g
     inkscape:label="Button Prompt 8"
     id="layer1"
     transform="translate(139.87891,-115.24219)"
     style="display:inline">
    <g
       id="path1"
       inkscape:label="Style - Outline (White)"
       style="display:none">
      <path
         style="color:#000000;display:inline;fill:#ffffff;fill-opacity:1;stroke-linecap:round;stroke-linejoin:round;-inkscape-stroke:none"
         d="m -95.899378,138.00743 a 21.214285,21.214285 0 0 1 -21.214282,21.21429 21.214285,21.214285 0 0 1 -21.21429,-21.21429 21.214285,21.214285 0 0 1 21.21429,-21.21428 21.214285,21.214285 0 0 1 21.214282,21.21428 z"
         id="path3"
         inkscape:label="Circle" />
      <path
         style="color:#000000;display:inline;fill:#000000;fill-opacity:1;stroke-linecap:round;stroke-linejoin:round;-inkscape-stroke:none"
         d="m -117.11328,115.24219 c -12.554,0 -22.76563,10.21163 -22.76563,22.76562 0,12.554 10.21163,22.76367 22.76563,22.76367 12.55399,0 22.763671,-10.20967 22.763671,-22.76367 0,-12.55399 -10.209681,-22.76562 -22.763671,-22.76562 z m 0,3.10156 c 10.87863,0 19.664061,8.78543 19.664061,19.66406 0,10.87864 -8.785431,19.66406 -19.664061,19.66406 -10.87863,0 -19.66406,-8.78542 -19.66406,-19.66406 0,-10.87863 8.78543,-19.66406 19.66406,-19.66406 z"
         id="path4"
         inkscape:label="Outline" />
      <path
         d="m -116.91205,126.64484 q 1.90501,0 3.41692,0.60476 1.52703,0.60476 2.38882,1.78405 0.87691,1.16417 0.87691,2.90287 0,1.33048 -0.57453,2.34346 -0.55941,0.99786 -1.52703,1.75381 -0.9525,0.74084 -2.13179,1.33048 1.36072,0.635 2.47953,1.45144 1.11881,0.81643 1.78405,1.92012 0.66524,1.10369 0.66524,2.6156 0,1.84453 -0.92226,3.20525 -0.90715,1.3456 -2.55513,2.08644 -1.64798,0.72571 -3.85538,0.72571 -2.38881,0 -4.05191,-0.69548 -1.6631,-0.71059 -2.54001,-2.02595 -0.86179,-1.33048 -0.86179,-3.19013 0,-1.52703 0.635,-2.64584 0.63501,-1.13394 1.67822,-1.93525 1.04322,-0.81643 2.28299,-1.39095 -1.07346,-0.60477 -1.96549,-1.37584 -0.8769,-0.77108 -1.40607,-1.79917 -0.51405,-1.04322 -0.51405,-2.40394 0,-1.69334 0.87691,-2.85751 0.89202,-1.17929 2.41905,-1.78405 1.52703,-0.61988 3.4018,-0.61988 z m -4.47525,16.75195 q 0,1.57239 1.10369,2.58537 1.11881,1.01297 3.35644,1.01297 2.14692,0 3.29597,-0.99786 1.16417,-1.01297 1.16417,-2.66096 0,-1.04321 -0.55941,-1.82941 -0.54428,-0.78619 -1.52702,-1.40607 -0.96764,-0.635 -2.23764,-1.14905 l -0.51405,-0.19655 q -1.28512,0.54429 -2.19227,1.20953 -0.90714,0.65012 -1.40607,1.49679 -0.48381,0.83155 -0.48381,1.93524 z m 4.44501,-14.34802 q -1.63286,0 -2.67608,0.7862 -1.0281,0.78619 -1.0281,2.25274 0,1.05834 0.49893,1.79917 0.51405,0.72572 1.37584,1.27001 0.86179,0.52916 1.93524,0.98274 1.0281,-0.45358 1.84454,-0.98274 0.83155,-0.54429 1.30024,-1.28513 0.48381,-0.75595 0.48381,-1.78405 0,-1.48167 -1.04321,-2.25274 -1.02811,-0.7862 -2.69121,-0.7862 z"
         id="text12"
         style="font-weight:500;font-size:30.9639px;line-height:0;font-family:'open sans';-inkscape-font-specification:'open sans Medium';letter-spacing:-0.967622px;word-spacing:0px;display:inline;fill:#000000;stroke-width:4.87621;stroke-linecap:round;stroke-linejoin:round;stroke-opacity:0.501961"
         aria-label="8"
         inkscape:label="Symbol 8"
         transform="translate(1.25e-6)" />
    </g>
    <g
       id="g6"
       inkscape:label="Style - Outline (Black)"
       style="display:none">
      <path
         style="color:#000000;display:inline;fill:#000000;fill-opacity:1;stroke-linecap:round;stroke-linejoin:round;-inkscape-stroke:none"
         d="m -95.899378,138.00743 a 21.214285,21.214285 0 0 1 -21.214282,21.21429 21.214285,21.214285 0 0 1 -21.21429,-21.21429 21.214285,21.214285 0 0 1 21.21429,-21.21428 21.214285,21.214285 0 0 1 21.214282,21.21428 z"
         id="path5"
         inkscape:label="Circle" />
      <path
         style="color:#000000;display:inline;fill:#ffffff;fill-opacity:1;stroke-linecap:round;stroke-linejoin:round;-inkscape-stroke:none"
         d="m -117.11328,115.24219 c -12.554,0 -22.76563,10.21163 -22.76563,22.76562 0,12.554 10.21163,22.76367 22.76563,22.76367 12.55399,0 22.763671,-10.20967 22.763671,-22.76367 0,-12.55399 -10.209681,-22.76562 -22.763671,-22.76562 z m 0,3.10156 c 10.87863,0 19.664061,8.78543 19.664061,19.66406 0,10.87864 -8.785431,19.66406 -19.664061,19.66406 -10.87863,0 -19.66406,-8.78542 -19.66406,-19.66406 0,-10.87863 8.78543,-19.66406 19.66406,-19.66406 z"
         id="path6"
         inkscape:label="Outline" />
      <path
         d="m -116.91205,126.64484 q 1.90501,0 3.41692,0.60476 1.52703,0.60476 2.38882,1.78405 0.87691,1.16417 0.87691,2.90287 0,1.33048 -0.57453,2.34346 -0.55941,0.99786 -1.52703,1.75381 -0.9525,0.74084 -2.13179,1.33048 1.36072,0.635 2.47953,1.45144 1.11881,0.81643 1.78405,1.92012 0.66524,1.10369 0.66524,2.6156 0,1.84453 -0.92226,3.20525 -0.90715,1.3456 -2.55513,2.08644 -1.64798,0.72571 -3.85538,0.72571 -2.38881,0 -4.05191,-0.69548 -1.6631,-0.71059 -2.54001,-2.02595 -0.86179,-1.33048 -0.86179,-3.19013 0,-1.52703 0.635,-2.64584 0.63501,-1.13394 1.67822,-1.93525 1.04322,-0.81643 2.28299,-1.39095 -1.07346,-0.60477 -1.96549,-1.37584 -0.8769,-0.77108 -1.40607,-1.79917 -0.51405,-1.04322 -0.51405,-2.40394 0,-1.69334 0.87691,-2.85751 0.89202,-1.17929 2.41905,-1.78405 1.52703,-0.61988 3.4018,-0.61988 z m -4.47525,16.75195 q 0,1.57239 1.10369,2.58537 1.11881,1.01297 3.35644,1.01297 2.14692,0 3.29597,-0.99786 1.16417,-1.01297 1.16417,-2.66096 0,-1.04321 -0.55941,-1.82941 -0.54428,-0.78619 -1.52702,-1.40607 -0.96764,-0.635 -2.23764,-1.14905 l -0.51405,-0.19655 q -1.28512,0.54429 -2.19227,1.20953 -0.90714,0.65012 -1.40607,1.49679 -0.48381,0.83155 -0.48381,1.93524 z m 4.44501,-14.34802 q -1.63286,0 -2.67608,0.7862 -1.0281,0.78619 -1.0281,2.25274 0,1.05834 0.49893,1.79917 0.51405,0.72572 1.37584,1.27001 0.86179,0.52916 1.93524,0.98274 1.0281,-0.45358 1.84454,-0.98274 0.83155,-0.54429 1.30024,-1.28513 0.48381,-0.75595 0.48381,-1.78405 0,-1.48167 -1.04321,-2.25274 -1.02811,-0.7862 -2.69121,-0.7862 z"
         id="path12"
         style="font-weight:500;font-size:30.9639px;line-height:0;font-family:'open sans';-inkscape-font-specification:'open sans Medium';letter-spacing:-0.967622px;word-spacing:0px;display:inline;fill:#ffffff;stroke-width:4.87621;stroke-linecap:round;stroke-linejoin:round;stroke-opacity:0.501961"
         aria-label="8"
         inkscape:label="Symbol 8"
         transform="translate(1.25e-6)" />
    </g>
    <g
       id="g8"
       inkscape:label="Style - Transparent"
       style="display:inline;fill:#ffffff;fill-opacity:1">
      <path
         style="color:#000000;display:inline;fill:#808080;fill-opacity:0.501031;stroke-linecap:round;stroke-linejoin:round;-inkscape-stroke:none;paint-order:stroke markers fill"
         d="m -117.11328,115.24219 c -12.554,-10e-6 -22.76562,10.21163 -22.76563,22.76562 0,12.554 10.21163,22.76368 22.76563,22.76367 12.554,0 22.763674,-10.20967 22.763671,-22.76367 -3e-6,-12.55399 -10.209681,-22.76562 -22.763671,-22.76562 z m 0,3.10156 c 10.87863,0 19.664059,8.78543 19.664061,19.66406 3e-6,10.87864 -8.785431,19.66406 -19.664061,19.66406 -10.87864,10e-6 -19.66407,-8.78542 -19.66406,-19.66406 0,-10.87863 8.78543,-19.66406 19.66406,-19.66406 z"
         id="path9"
         inkscape:label="Outline" />
      <path
         style="color:#000000;display:inline;stroke-linecap:round;stroke-linejoin:round;-inkscape-stroke:none;paint-order:stroke markers fill"
         d="m -95.899378,138.00743 a 21.214285,21.214285 0 0 1 -21.214282,21.21429 21.214285,21.214285 0 0 1 -21.21429,-21.21429 21.214285,21.214285 0 0 1 21.21429,-21.21428 21.214285,21.214285 0 0 1 21.214282,21.21428 z"
         id="path10"
         inkscape:label="Circle" />
      <path
         d="m -116.91205,126.64484 q 1.90501,0 3.41692,0.60476 1.52703,0.60476 2.38882,1.78405 0.87691,1.16417 0.87691,2.90287 0,1.33048 -0.57453,2.34346 -0.55941,0.99786 -1.52703,1.75381 -0.9525,0.74084 -2.13179,1.33048 1.36072,0.635 2.47953,1.45144 1.11881,0.81643 1.78405,1.92012 0.66524,1.10369 0.66524,2.6156 0,1.84453 -0.92226,3.20525 -0.90715,1.3456 -2.55513,2.08644 -1.64798,0.72571 -3.85538,0.72571 -2.38881,0 -4.05191,-0.69548 -1.6631,-0.71059 -2.54001,-2.02595 -0.86179,-1.33048 -0.86179,-3.19013 0,-1.52703 0.635,-2.64584 0.63501,-1.13394 1.67822,-1.93525 1.04322,-0.81643 2.28299,-1.39095 -1.07346,-0.60477 -1.96549,-1.37584 -0.8769,-0.77108 -1.40607,-1.79917 -0.51405,-1.04322 -0.51405,-2.40394 0,-1.69334 0.87691,-2.85751 0.89202,-1.17929 2.41905,-1.78405 1.52703,-0.61988 3.4018,-0.61988 z m -4.47525,16.75195 q 0,1.57239 1.10369,2.58537 1.11881,1.01297 3.35644,1.01297 2.14692,0 3.29597,-0.99786 1.16417,-1.01297 1.16417,-2.66096 0,-1.04321 -0.55941,-1.82941 -0.54428,-0.78619 -1.52702,-1.40607 -0.96764,-0.635 -2.23764,-1.14905 l -0.51405,-0.19655 q -1.28512,0.54429 -2.19227,1.20953 -0.90714,0.65012 -1.40607,1.49679 -0.48381,0.83155 -0.48381,1.93524 z m 4.44501,-14.34802 q -1.63286,0 -2.67608,0.7862 -1.0281,0.78619 -1.0281,2.25274 0,1.05834 0.49893,1.79917 0.51405,0.72572 1.37584,1.27001 0.86179,0.52916 1.93524,0.98274 1.0281,-0.45358 1.84454,-0.98274 0.83155,-0.54429 1.30024,-1.28513 0.48381,-0.75595 0.48381,-1.78405 0,-1.48167 -1.04321,-2.25274 -1.02811,-0.7862 -2.69121,-0.7862 z"
         id="path13"
         style="font-weight:500;font-size:30.9639px;line-height:0;font-family:'open sans';-inkscape-font-specification:'open sans Medium';letter-spacing:-0.967622px;word-spacing:0px;display:inline;fill:#808080;stroke-width:4.87621;stroke-linecap:round;stroke-linejoin:round;stroke-opacity:0.501961"
         aria-label="8"
         inkscape:label="Symbol 8"
         transform="translate(1.25e-6)" />
    </g>
  </g>
  <metadata
     id="metadata8">
    <rdf:RDF>
      <cc:Work
         rdf:about="">
        <cc:license
           rdf:resource="https://opensource.org/license/mit" />
      </cc:Work>
    </rdf:RDF>
  </metadata>
</svg>
