<?xml version="1.0" encoding="UTF-8" standalone="no"?>
<!-- Created with Inkscape (http://www.inkscape.org/) -->

<svg
   width="45.529301mm"
   height="45.529289mm"
   viewBox="0 0 45.529301 45.529289"
   version="1.1"
   id="svg1"
   sodipodi:docname="directinput-2.svg"
   inkscape:version="1.3.2 (091e20e, 2023-11-25, custom)"
   xmlns:inkscape="http://www.inkscape.org/namespaces/inkscape"
   xmlns:sodipodi="http://sodipodi.sourceforge.net/DTD/sodipodi-0.dtd"
   xmlns="http://www.w3.org/2000/svg"
   xmlns:svg="http://www.w3.org/2000/svg"
   xmlns:rdf="http://www.w3.org/1999/02/22-rdf-syntax-ns#"
   xmlns:cc="http://creativecommons.org/ns#">
  <sodipodi:namedview
     id="namedview1"
     pagecolor="#3e8d2e"
     bordercolor="#000000"
     borderopacity="0.25"
     inkscape:showpageshadow="true"
     inkscape:pageopacity="0.0"
     inkscape:pagecheckerboard="false"
     inkscape:deskcolor="#d1d1d1"
     inkscape:document-units="mm"
     inkscape:zoom="5.6568542"
     inkscape:cx="95.812969"
     inkscape:cy="84.057319"
     inkscape:window-width="2560"
     inkscape:window-height="1351"
     inkscape:window-x="-9"
     inkscape:window-y="-9"
     inkscape:window-maximized="1"
     inkscape:current-layer="layer1"
     labelstyle="default"
     showborder="true" />
  <defs
     id="defs1">
    <rect
       x="-329.58707"
       y="426.24316"
       width="115.7824"
       height="107.24387"
       id="rect2" />
    <rect
       x="-486.35437"
       y="484.30515"
       width="87.776039"
       height="93.582237"
       id="rect1" />
  </defs>
  <g
     inkscape:label="Button Prompt 2"
     id="layer1"
     transform="translate(139.87891,-115.24219)"
     style="display:inline">
    <g
       id="path1"
       inkscape:label="Style - Outline (White)"
       style="display:none">
      <path
         style="color:#000000;display:inline;fill:#ffffff;fill-opacity:1;stroke-linecap:round;stroke-linejoin:round;-inkscape-stroke:none"
         d="m -95.899378,138.00743 a 21.214285,21.214285 0 0 1 -21.214282,21.21429 21.214285,21.214285 0 0 1 -21.21429,-21.21429 21.214285,21.214285 0 0 1 21.21429,-21.21428 21.214285,21.214285 0 0 1 21.214282,21.21428 z"
         id="path3"
         inkscape:label="Circle" />
      <path
         style="color:#000000;display:inline;fill:#000000;fill-opacity:1;stroke-linecap:round;stroke-linejoin:round;-inkscape-stroke:none"
         d="m -117.11328,115.24219 c -12.554,0 -22.76563,10.21163 -22.76563,22.76562 0,12.554 10.21163,22.76367 22.76563,22.76367 12.55399,0 22.763671,-10.20967 22.763671,-22.76367 0,-12.55399 -10.209681,-22.76562 -22.763671,-22.76562 z m 0,3.10156 c 10.87863,0 19.664061,8.78543 19.664061,19.66406 0,10.87864 -8.785431,19.66406 -19.664061,19.66406 -10.87863,0 -19.66406,-8.78542 -19.66406,-19.66406 0,-10.87863 8.78543,-19.66406 19.66406,-19.66406 z"
         id="path4"
         inkscape:label="Outline" />
      <path
         d="M 30.227284,33.612663 H 15.302018 v -2.421141 l 5.899617,-5.99156 q 1.685605,-1.700929 2.78891,-2.972794 1.118629,-1.28719 1.685605,-2.482437 0.566976,-1.210571 0.566976,-2.635673 0,-1.7469 -1.026686,-2.666321 -1.026687,-0.919421 -2.727616,-0.919421 -1.532368,0 -2.773586,0.566977 -1.225895,0.551652 -2.543731,1.593663 l -1.654958,-2.053374 q 0.904097,-0.766184 1.961431,-1.379131 1.057334,-0.628271 2.313876,-0.996039 1.256542,-0.367769 2.78891,-0.367769 2.099345,0 3.616389,0.735537 1.532368,0.735537 2.359847,2.084021 0.827479,1.348484 0.827479,3.156678 0,1.792871 -0.720213,3.325239 -0.704889,1.517045 -2.007402,3.018765 -1.302513,1.501721 -3.08006,3.20265 l -4.36725,4.321278 v 0.137913 h 11.017728 z"
         id="text18"
         style="font-weight:500;font-size:31.3829px;line-height:0;font-family:'open sans';-inkscape-font-specification:'open sans Medium';letter-spacing:-0.980715px;word-spacing:0px;stroke-width:4.94218;stroke-linecap:round;stroke-linejoin:round;stroke-opacity:0.501961"
         inkscape:label="Symbol 2"
         transform="translate(-139.87891,115.24219)"
         aria-label="2" />
    </g>
    <g
       id="g6"
       inkscape:label="Style - Outline (Black)"
       style="display:none">
      <path
         style="color:#000000;display:inline;fill:#000000;fill-opacity:1;stroke-linecap:round;stroke-linejoin:round;-inkscape-stroke:none"
         d="m -95.899378,138.00743 a 21.214285,21.214285 0 0 1 -21.214282,21.21429 21.214285,21.214285 0 0 1 -21.21429,-21.21429 21.214285,21.214285 0 0 1 21.21429,-21.21428 21.214285,21.214285 0 0 1 21.214282,21.21428 z"
         id="path5"
         inkscape:label="Circle" />
      <path
         style="color:#000000;display:inline;fill:#ffffff;fill-opacity:1;stroke-linecap:round;stroke-linejoin:round;-inkscape-stroke:none"
         d="m -117.11328,115.24219 c -12.554,0 -22.76563,10.21163 -22.76563,22.76562 0,12.554 10.21163,22.76367 22.76563,22.76367 12.55399,0 22.763671,-10.20967 22.763671,-22.76367 0,-12.55399 -10.209681,-22.76562 -22.763671,-22.76562 z m 0,3.10156 c 10.87863,0 19.664061,8.78543 19.664061,19.66406 0,10.87864 -8.785431,19.66406 -19.664061,19.66406 -10.87863,0 -19.66406,-8.78542 -19.66406,-19.66406 0,-10.87863 8.78543,-19.66406 19.66406,-19.66406 z"
         id="path6"
         inkscape:label="Outline" />
      <path
         d="M 30.227284,33.612663 H 15.302018 v -2.421141 l 5.899617,-5.99156 q 1.685605,-1.700929 2.78891,-2.972794 1.118629,-1.28719 1.685605,-2.482437 0.566976,-1.210571 0.566976,-2.635673 0,-1.7469 -1.026686,-2.666321 -1.026687,-0.919421 -2.727616,-0.919421 -1.532368,0 -2.773586,0.566977 -1.225895,0.551652 -2.543731,1.593663 l -1.654958,-2.053374 q 0.904097,-0.766184 1.961431,-1.379131 1.057334,-0.628271 2.313876,-0.996039 1.256542,-0.367769 2.78891,-0.367769 2.099345,0 3.616389,0.735537 1.532368,0.735537 2.359847,2.084021 0.827479,1.348484 0.827479,3.156678 0,1.792871 -0.720213,3.325239 -0.704889,1.517045 -2.007402,3.018765 -1.302513,1.501721 -3.08006,3.20265 l -4.36725,4.321278 v 0.137913 h 11.017728 z"
         id="text20"
         style="font-weight:500;font-size:31.3829px;line-height:0;font-family:'open sans';-inkscape-font-specification:'open sans Medium';letter-spacing:-0.980715px;word-spacing:0px;fill:#ffffff;stroke-width:4.94218;stroke-linecap:round;stroke-linejoin:round;stroke-opacity:0.501961"
         inkscape:label="Symbol 2"
         transform="translate(-139.87891,115.24219)"
         aria-label="2" />
    </g>
    <g
       id="g8"
       inkscape:label="Style - Transparent"
       style="display:inline;fill:#ffffff;fill-opacity:1">
      <path
         style="color:#000000;display:inline;fill:#808080;fill-opacity:0.501031;stroke-linecap:round;stroke-linejoin:round;-inkscape-stroke:none;paint-order:stroke markers fill"
         d="m -117.11328,115.24219 c -12.554,-10e-6 -22.76562,10.21163 -22.76563,22.76562 0,12.554 10.21163,22.76368 22.76563,22.76367 12.554,0 22.763674,-10.20967 22.763671,-22.76367 -3e-6,-12.55399 -10.209681,-22.76562 -22.763671,-22.76562 z m 0,3.10156 c 10.87863,0 19.664059,8.78543 19.664061,19.66406 3e-6,10.87864 -8.785431,19.66406 -19.664061,19.66406 -10.87864,10e-6 -19.66407,-8.78542 -19.66406,-19.66406 0,-10.87863 8.78543,-19.66406 19.66406,-19.66406 z"
         id="path9"
         inkscape:label="Outline" />
      <path
         style="color:#000000;display:inline;stroke-linecap:round;stroke-linejoin:round;-inkscape-stroke:none;paint-order:stroke markers fill"
         d="m -95.899378,138.00743 a 21.214285,21.214285 0 0 1 -21.214282,21.21429 21.214285,21.214285 0 0 1 -21.21429,-21.21429 21.214285,21.214285 0 0 1 21.21429,-21.21428 21.214285,21.214285 0 0 1 21.214282,21.21428 z"
         id="path10"
         inkscape:label="Circle" />
      <path
         d="M 30.227284,33.612663 H 15.302018 v -2.421141 l 5.899617,-5.99156 q 1.685605,-1.700929 2.78891,-2.972794 1.118629,-1.28719 1.685605,-2.482437 0.566976,-1.210571 0.566976,-2.635673 0,-1.7469 -1.026686,-2.666321 -1.026687,-0.919421 -2.727616,-0.919421 -1.532368,0 -2.773586,0.566977 -1.225895,0.551652 -2.543731,1.593663 l -1.654958,-2.053374 q 0.904097,-0.766184 1.961431,-1.379131 1.057334,-0.628271 2.313876,-0.996039 1.256542,-0.367769 2.78891,-0.367769 2.099345,0 3.616389,0.735537 1.532368,0.735537 2.359847,2.084021 0.827479,1.348484 0.827479,3.156678 0,1.792871 -0.720213,3.325239 -0.704889,1.517045 -2.007402,3.018765 -1.302513,1.501721 -3.08006,3.20265 l -4.36725,4.321278 v 0.137913 h 11.017728 z"
         id="text19"
         style="font-weight:500;font-size:31.3829px;line-height:0;font-family:'open sans';-inkscape-font-specification:'open sans Medium';letter-spacing:-0.980715px;word-spacing:0px;fill:#808080;stroke-width:4.94218;stroke-linecap:round;stroke-linejoin:round;stroke-opacity:0.501961"
         inkscape:label="Symbol 2"
         transform="translate(-139.87891,115.24219)"
         aria-label="2" />
    </g>
  </g>
  <metadata
     id="metadata8">
    <rdf:RDF>
      <cc:Work
         rdf:about="">
        <cc:license
           rdf:resource="https://opensource.org/license/mit" />
      </cc:Work>
    </rdf:RDF>
  </metadata>
</svg>
