<?xml version="1.0" encoding="UTF-8" standalone="no"?>
<!-- Created with Inkscape (http://www.inkscape.org/) -->

<svg
   width="45.529301mm"
   height="45.529289mm"
   viewBox="0 0 45.529303 45.529285"
   version="1.1"
   id="svg1"
   sodipodi:docname="directinput-15.svg"
   inkscape:version="1.3.2 (091e20e, 2023-11-25, custom)"
   xmlns:inkscape="http://www.inkscape.org/namespaces/inkscape"
   xmlns:sodipodi="http://sodipodi.sourceforge.net/DTD/sodipodi-0.dtd"
   xmlns="http://www.w3.org/2000/svg"
   xmlns:svg="http://www.w3.org/2000/svg"
   xmlns:rdf="http://www.w3.org/1999/02/22-rdf-syntax-ns#"
   xmlns:cc="http://creativecommons.org/ns#">
  <sodipodi:namedview
     id="namedview1"
     pagecolor="#3e8d2e"
     bordercolor="#000000"
     borderopacity="0.25"
     inkscape:showpageshadow="true"
     inkscape:pageopacity="0.0"
     inkscape:pagecheckerboard="false"
     inkscape:deskcolor="#d1d1d1"
     inkscape:document-units="mm"
     inkscape:zoom="5.6568542"
     inkscape:cx="83.96893"
     inkscape:cy="87.416076"
     inkscape:window-width="2560"
     inkscape:window-height="1351"
     inkscape:window-x="-9"
     inkscape:window-y="-9"
     inkscape:window-maximized="1"
     inkscape:current-layer="layer1"
     labelstyle="default"
     showborder="true" />
  <defs
     id="defs1">
    <rect
       x="-329.58707"
       y="426.24316"
       width="115.7824"
       height="107.24387"
       id="rect2" />
    <rect
       x="-486.35437"
       y="484.30515"
       width="87.776039"
       height="93.582237"
       id="rect1" />
  </defs>
  <g
     inkscape:label="Button Prompt 15"
     id="layer1"
     transform="translate(139.87891,-115.24219)"
     style="display:inline">
    <g
       id="path1"
       inkscape:label="Style - Outline (White)"
       style="display:none">
      <path
         style="color:#000000;display:inline;fill:#ffffff;fill-opacity:1;stroke-linecap:round;stroke-linejoin:round;-inkscape-stroke:none"
         d="m -95.899378,138.00743 a 21.214285,21.214285 0 0 1 -21.214282,21.21429 21.214285,21.214285 0 0 1 -21.21429,-21.21429 21.214285,21.214285 0 0 1 21.21429,-21.21428 21.214285,21.214285 0 0 1 21.214282,21.21428 z"
         id="path3"
         inkscape:label="Circle" />
      <path
         style="color:#000000;display:inline;fill:#000000;fill-opacity:1;stroke-linecap:round;stroke-linejoin:round;-inkscape-stroke:none"
         d="m -117.11328,115.24219 c -12.554,0 -22.76563,10.21163 -22.76563,22.76562 0,12.554 10.21163,22.76367 22.76563,22.76367 12.55399,0 22.763671,-10.20967 22.763671,-22.76367 0,-12.55399 -10.209681,-22.76562 -22.763671,-22.76562 z m 0,3.10156 c 10.87863,0 19.664061,8.78543 19.664061,19.66406 0,10.87864 -8.785431,19.66406 -19.664061,19.66406 -10.87863,0 -19.66406,-8.78542 -19.66406,-19.66406 0,-10.87863 8.78543,-19.66406 19.66406,-19.66406 z"
         id="path4"
         inkscape:label="Outline" />
      <path
         d="m -122.26974,147.67418 h -2.66825 v -13.26076 q 0,-0.71064 0,-1.3006 0.0134,-0.60337 0.0402,-1.1397 0.0268,-0.54974 0.0536,-1.05926 -0.34861,0.36203 -0.73745,0.69723 -0.37543,0.3218 -0.87154,0.73746 l -2.23918,1.81011 -1.38105,-1.76989 5.56443,-4.31746 h 2.23918 z m 11.63837,-12.12106 q 1.94419,0 3.39228,0.68382 1.4615,0.67041 2.266,1.97101 0.8179,1.3006 0.8179,3.16435 0,2.03805 -0.87153,3.51296 -0.87154,1.47491 -2.53416,2.266 -1.66263,0.79108 -4.02248,0.79108 -1.52854,0 -2.85596,-0.26816 -1.32741,-0.26817 -2.25258,-0.8045 v -2.48052 q 0.99221,0.57655 2.38667,0.93857 1.40786,0.34862 2.70846,0.34862 1.42128,0 2.46712,-0.44247 1.05925,-0.44248 1.63581,-1.34083 0.57655,-0.89835 0.57655,-2.2794 0,-1.82352 -1.1397,-2.81573 -1.1397,-0.99221 -3.58,-0.99221 -0.81791,0 -1.76989,0.14749 -0.95199,0.13408 -1.56877,0.28157 l -1.26037,-0.76427 0.75086,-9.39919 h 9.97574 v 2.40008 h -7.6427 l -0.45589,5.40353 q 0.49611,-0.10727 1.23356,-0.21453 0.73746,-0.10727 1.74308,-0.10727 z"
         id="text19"
         style="font-weight:500;font-size:27.4601px;line-height:0;font-family:'open sans';-inkscape-font-specification:'open sans Medium';letter-spacing:-1.71625px;word-spacing:0px;display:inline;fill:#000000;fill-opacity:1;stroke-width:4.32442;stroke-linecap:round;stroke-linejoin:round;stroke-opacity:0.501961"
         inkscape:label="Symbol 15"
         aria-label="15"
         transform="translate(1.2499999e-6)" />
    </g>
    <g
       id="g6"
       inkscape:label="Style - Outline (Black)"
       style="display:none">
      <path
         style="color:#000000;display:inline;fill:#000000;fill-opacity:1;stroke-linecap:round;stroke-linejoin:round;-inkscape-stroke:none"
         d="m -95.899378,138.00743 a 21.214285,21.214285 0 0 1 -21.214282,21.21429 21.214285,21.214285 0 0 1 -21.21429,-21.21429 21.214285,21.214285 0 0 1 21.21429,-21.21428 21.214285,21.214285 0 0 1 21.214282,21.21428 z"
         id="path5"
         inkscape:label="Circle" />
      <path
         style="color:#000000;display:inline;fill:#ffffff;fill-opacity:1;stroke-linecap:round;stroke-linejoin:round;-inkscape-stroke:none"
         d="m -117.11328,115.24219 c -12.554,0 -22.76563,10.21163 -22.76563,22.76562 0,12.554 10.21163,22.76367 22.76563,22.76367 12.55399,0 22.763671,-10.20967 22.763671,-22.76367 0,-12.55399 -10.209681,-22.76562 -22.763671,-22.76562 z m 0,3.10156 c 10.87863,0 19.664061,8.78543 19.664061,19.66406 0,10.87864 -8.785431,19.66406 -19.664061,19.66406 -10.87863,0 -19.66406,-8.78542 -19.66406,-19.66406 0,-10.87863 8.78543,-19.66406 19.66406,-19.66406 z"
         id="path6"
         inkscape:label="Outline" />
      <path
         d="m -122.26974,147.67418 h -2.66825 v -13.26076 q 0,-0.71064 0,-1.3006 0.0134,-0.60337 0.0402,-1.1397 0.0268,-0.54974 0.0536,-1.05926 -0.34861,0.36203 -0.73745,0.69723 -0.37543,0.3218 -0.87154,0.73746 l -2.23918,1.81011 -1.38105,-1.76989 5.56443,-4.31746 h 2.23918 z m 11.63837,-12.12106 q 1.94419,0 3.39228,0.68382 1.4615,0.67041 2.266,1.97101 0.8179,1.3006 0.8179,3.16435 0,2.03805 -0.87153,3.51296 -0.87154,1.47491 -2.53416,2.266 -1.66263,0.79108 -4.02248,0.79108 -1.52854,0 -2.85596,-0.26816 -1.32741,-0.26817 -2.25258,-0.8045 v -2.48052 q 0.99221,0.57655 2.38667,0.93857 1.40786,0.34862 2.70846,0.34862 1.42128,0 2.46712,-0.44247 1.05925,-0.44248 1.63581,-1.34083 0.57655,-0.89835 0.57655,-2.2794 0,-1.82352 -1.1397,-2.81573 -1.1397,-0.99221 -3.58,-0.99221 -0.81791,0 -1.76989,0.14749 -0.95199,0.13408 -1.56877,0.28157 l -1.26037,-0.76427 0.75086,-9.39919 h 9.97574 v 2.40008 h -7.6427 l -0.45589,5.40353 q 0.49611,-0.10727 1.23356,-0.21453 0.73746,-0.10727 1.74308,-0.10727 z"
         id="path20"
         style="font-weight:500;font-size:27.4601px;line-height:0;font-family:'open sans';-inkscape-font-specification:'open sans Medium';letter-spacing:-1.71625px;word-spacing:0px;display:inline;fill:#ffffff;fill-opacity:1;stroke-width:4.32442;stroke-linecap:round;stroke-linejoin:round;stroke-opacity:0.501961"
         inkscape:label="Symbol 15"
         aria-label="15"
         transform="translate(1.2499999e-6)" />
    </g>
    <g
       id="g8"
       inkscape:label="Style - Transparent"
       style="display:inline;fill:#ffffff;fill-opacity:1">
      <path
         style="color:#000000;display:inline;fill:#808080;fill-opacity:0.501031;stroke-linecap:round;stroke-linejoin:round;-inkscape-stroke:none;paint-order:stroke markers fill"
         d="m -117.11328,115.24219 c -12.554,-10e-6 -22.76562,10.21163 -22.76563,22.76562 0,12.554 10.21163,22.76368 22.76563,22.76367 12.554,0 22.763674,-10.20967 22.763671,-22.76367 -3e-6,-12.55399 -10.209681,-22.76562 -22.763671,-22.76562 z m 0,3.10156 c 10.87863,0 19.664059,8.78543 19.664061,19.66406 3e-6,10.87864 -8.785431,19.66406 -19.664061,19.66406 -10.87864,10e-6 -19.66407,-8.78542 -19.66406,-19.66406 0,-10.87863 8.78543,-19.66406 19.66406,-19.66406 z"
         id="path9"
         inkscape:label="Outline" />
      <path
         style="color:#000000;display:inline;stroke-linecap:round;stroke-linejoin:round;-inkscape-stroke:none;paint-order:stroke markers fill"
         d="m -95.899378,138.00743 a 21.214285,21.214285 0 0 1 -21.214282,21.21429 21.214285,21.214285 0 0 1 -21.21429,-21.21429 21.214285,21.214285 0 0 1 21.21429,-21.21428 21.214285,21.214285 0 0 1 21.214282,21.21428 z"
         id="path10"
         inkscape:label="Circle" />
      <path
         d="m -122.26974,147.67418 h -2.66825 v -13.26076 q 0,-0.71064 0,-1.3006 0.0134,-0.60337 0.0402,-1.1397 0.0268,-0.54974 0.0536,-1.05926 -0.34861,0.36203 -0.73745,0.69723 -0.37543,0.3218 -0.87154,0.73746 l -2.23918,1.81011 -1.38105,-1.76989 5.56443,-4.31746 h 2.23918 z m 11.63837,-12.12106 q 1.94419,0 3.39228,0.68382 1.4615,0.67041 2.266,1.97101 0.8179,1.3006 0.8179,3.16435 0,2.03805 -0.87153,3.51296 -0.87154,1.47491 -2.53416,2.266 -1.66263,0.79108 -4.02248,0.79108 -1.52854,0 -2.85596,-0.26816 -1.32741,-0.26817 -2.25258,-0.8045 v -2.48052 q 0.99221,0.57655 2.38667,0.93857 1.40786,0.34862 2.70846,0.34862 1.42128,0 2.46712,-0.44247 1.05925,-0.44248 1.63581,-1.34083 0.57655,-0.89835 0.57655,-2.2794 0,-1.82352 -1.1397,-2.81573 -1.1397,-0.99221 -3.58,-0.99221 -0.81791,0 -1.76989,0.14749 -0.95199,0.13408 -1.56877,0.28157 l -1.26037,-0.76427 0.75086,-9.39919 h 9.97574 v 2.40008 h -7.6427 l -0.45589,5.40353 q 0.49611,-0.10727 1.23356,-0.21453 0.73746,-0.10727 1.74308,-0.10727 z"
         id="path19"
         style="font-weight:500;font-size:27.4601px;line-height:0;font-family:'open sans';-inkscape-font-specification:'open sans Medium';letter-spacing:-1.71625px;word-spacing:0px;display:inline;fill:#808080;stroke-width:4.32442;stroke-linecap:round;stroke-linejoin:round;stroke-opacity:0.501961"
         inkscape:label="Symbol 15"
         aria-label="15"
         transform="translate(1.2499999e-6)" />
    </g>
  </g>
  <metadata
     id="metadata8">
    <rdf:RDF>
      <cc:Work
         rdf:about="">
        <cc:license
           rdf:resource="https://opensource.org/license/mit" />
      </cc:Work>
    </rdf:RDF>
  </metadata>
</svg>
