<?xml version="1.0" encoding="UTF-8" standalone="no"?>
<!-- Created with Inkscape (http://www.inkscape.org/) -->

<svg
   width="45.529301mm"
   height="45.529289mm"
   viewBox="0 0 45.529303 45.529285"
   version="1.1"
   id="svg1"
   sodipodi:docname="directinput-16.svg"
   inkscape:version="1.3.2 (091e20e, 2023-11-25, custom)"
   xmlns:inkscape="http://www.inkscape.org/namespaces/inkscape"
   xmlns:sodipodi="http://sodipodi.sourceforge.net/DTD/sodipodi-0.dtd"
   xmlns="http://www.w3.org/2000/svg"
   xmlns:svg="http://www.w3.org/2000/svg"
   xmlns:rdf="http://www.w3.org/1999/02/22-rdf-syntax-ns#"
   xmlns:cc="http://creativecommons.org/ns#">
  <sodipodi:namedview
     id="namedview1"
     pagecolor="#3e8d2e"
     bordercolor="#000000"
     borderopacity="0.25"
     inkscape:showpageshadow="true"
     inkscape:pageopacity="0.0"
     inkscape:pagecheckerboard="false"
     inkscape:deskcolor="#d1d1d1"
     inkscape:document-units="mm"
     inkscape:zoom="8"
     inkscape:cx="80.375"
     inkscape:cy="90.3125"
     inkscape:window-width="2560"
     inkscape:window-height="1351"
     inkscape:window-x="-9"
     inkscape:window-y="-9"
     inkscape:window-maximized="1"
     inkscape:current-layer="svg1"
     labelstyle="default"
     showborder="true" />
  <defs
     id="defs1">
    <rect
       x="-329.58707"
       y="426.24316"
       width="115.7824"
       height="107.24387"
       id="rect2" />
    <rect
       x="-486.35437"
       y="484.30515"
       width="87.776039"
       height="93.582237"
       id="rect1" />
  </defs>
  <g
     inkscape:label="Button Prompt 16"
     id="layer1"
     transform="translate(139.87891,-115.24219)"
     style="display:inline">
    <g
       id="path1"
       inkscape:label="Style - Outline (White)"
       style="display:none">
      <path
         style="color:#000000;display:inline;fill:#ffffff;fill-opacity:1;stroke-linecap:round;stroke-linejoin:round;-inkscape-stroke:none"
         d="m -95.899378,138.00743 a 21.214285,21.214285 0 0 1 -21.214282,21.21429 21.214285,21.214285 0 0 1 -21.21429,-21.21429 21.214285,21.214285 0 0 1 21.21429,-21.21428 21.214285,21.214285 0 0 1 21.214282,21.21428 z"
         id="path3"
         inkscape:label="Circle" />
      <path
         style="color:#000000;display:inline;fill:#000000;fill-opacity:1;stroke-linecap:round;stroke-linejoin:round;-inkscape-stroke:none"
         d="m -117.11328,115.24219 c -12.554,0 -22.76563,10.21163 -22.76563,22.76562 0,12.554 10.21163,22.76367 22.76563,22.76367 12.55399,0 22.763671,-10.20967 22.763671,-22.76367 0,-12.55399 -10.209681,-22.76562 -22.763671,-22.76562 z m 0,3.10156 c 10.87863,0 19.664061,8.78543 19.664061,19.66406 0,10.87864 -8.785431,19.66406 -19.664061,19.66406 -10.87863,0 -19.66406,-8.78542 -19.66406,-19.66406 0,-10.87863 8.78543,-19.66406 19.66406,-19.66406 z"
         id="path4"
         inkscape:label="Outline" />
      <path
         style="font-weight:500;font-size:27.0944px;line-height:0;font-family:'open sans';-inkscape-font-specification:'open sans Medium';letter-spacing:-1.6934px;word-spacing:0px;display:inline;fill:#000000;fill-opacity:1;stroke-width:4.26684;stroke-linecap:round;stroke-linejoin:round;stroke-opacity:0.501961"
         d="M 17.406632,32.435547 H 14.773924 V 19.351386 q 0,-0.701174 0,-1.28328 0.01323,-0.595336 0.03969,-1.124523 0.02646,-0.542418 0.05292,-1.045146 -0.343972,0.357202 -0.727633,0.687944 -0.370431,0.317513 -0.85993,0.727633 l -2.209357,1.786008 -1.3626582,-1.746319 5.4903202,-4.25996 h 2.209358 z m 5.252186,-8.255325 q 0,-1.733089 0.238134,-3.3868 0.251364,-1.653711 0.83347,-3.095747 0.595336,-1.442036 1.627252,-2.526871 1.031916,-1.098064 2.579789,-1.719859 1.547874,-0.621795 3.730772,-0.621795 0.582106,0 1.28328,0.05292 0.714403,0.05292 1.177442,0.185216 v 2.235817 q -0.502728,-0.158756 -1.124523,-0.238134 -0.621796,-0.07938 -1.243591,-0.07938 -2.447492,0 -3.83661,1.005456 -1.389117,0.992227 -1.984453,2.712086 -0.595336,1.70663 -0.687943,3.863069 h 0.145526 q 0.396891,-0.648255 1.018686,-1.177442 0.621795,-0.529188 1.494955,-0.833471 0.886389,-0.317512 2.063831,-0.317512 1.6934,0 2.95022,0.701173 1.256821,0.687944 1.944764,2.010913 0.687944,1.322969 0.687944,3.214814 0,2.010912 -0.754092,3.479408 -0.754092,1.468495 -2.156439,2.262276 -1.389117,0.793782 -3.320652,0.793782 -1.428806,0 -2.645937,-0.529188 -1.217131,-0.542417 -2.11675,-1.600792 -0.899619,-1.071605 -1.402347,-2.659167 -0.502728,-1.600793 -0.502728,-3.730772 z m 6.628073,6.310561 q 1.653711,0 2.645938,-1.058375 1.005456,-1.071605 1.005456,-3.254503 0,-1.786008 -0.886389,-2.817924 -0.886389,-1.045145 -2.672397,-1.045145 -1.217131,0 -2.12998,0.515958 -0.899618,0.515957 -1.402347,1.296509 -0.489498,0.767322 -0.489498,1.574333 0,0.83347 0.238134,1.68017 0.238135,0.83347 0.727633,1.547874 0.489499,0.701173 1.230361,1.137753 0.740863,0.42335 1.733089,0.42335 z"
         id="path22"
         inkscape:label="Symbol 16"
         aria-label="16&#10;"
         transform="translate(-139.87891,115.24219)" />
    </g>
    <g
       id="g6"
       inkscape:label="Style - Outline (Black)"
       style="display:none">
      <path
         style="color:#000000;display:inline;fill:#000000;fill-opacity:1;stroke-linecap:round;stroke-linejoin:round;-inkscape-stroke:none"
         d="m -95.899378,138.00743 a 21.214285,21.214285 0 0 1 -21.214282,21.21429 21.214285,21.214285 0 0 1 -21.21429,-21.21429 21.214285,21.214285 0 0 1 21.21429,-21.21428 21.214285,21.214285 0 0 1 21.214282,21.21428 z"
         id="path5"
         inkscape:label="Circle" />
      <path
         style="color:#000000;display:inline;fill:#ffffff;fill-opacity:1;stroke-linecap:round;stroke-linejoin:round;-inkscape-stroke:none"
         d="m -117.11328,115.24219 c -12.554,0 -22.76563,10.21163 -22.76563,22.76562 0,12.554 10.21163,22.76367 22.76563,22.76367 12.55399,0 22.763671,-10.20967 22.763671,-22.76367 0,-12.55399 -10.209681,-22.76562 -22.763671,-22.76562 z m 0,3.10156 c 10.87863,0 19.664061,8.78543 19.664061,19.66406 0,10.87864 -8.785431,19.66406 -19.664061,19.66406 -10.87863,0 -19.66406,-8.78542 -19.66406,-19.66406 0,-10.87863 8.78543,-19.66406 19.66406,-19.66406 z"
         id="path6"
         inkscape:label="Outline" />
      <path
         style="font-weight:500;font-size:27.0944px;line-height:0;font-family:'open sans';-inkscape-font-specification:'open sans Medium';letter-spacing:-1.6934px;word-spacing:0px;display:inline;fill:#ffffff;fill-opacity:1;stroke-width:4.26684;stroke-linecap:round;stroke-linejoin:round;stroke-opacity:0.501961"
         d="M 17.406632,32.435547 H 14.773924 V 19.351386 q 0,-0.701174 0,-1.28328 0.01323,-0.595336 0.03969,-1.124523 0.02646,-0.542418 0.05292,-1.045146 -0.343972,0.357202 -0.727633,0.687944 -0.370431,0.317513 -0.85993,0.727633 l -2.209357,1.786008 -1.3626582,-1.746319 5.4903202,-4.25996 h 2.209358 z m 5.252186,-8.255325 q 0,-1.733089 0.238134,-3.3868 0.251364,-1.653711 0.83347,-3.095747 0.595336,-1.442036 1.627252,-2.526871 1.031916,-1.098064 2.579789,-1.719859 1.547874,-0.621795 3.730772,-0.621795 0.582106,0 1.28328,0.05292 0.714403,0.05292 1.177442,0.185216 v 2.235817 q -0.502728,-0.158756 -1.124523,-0.238134 -0.621796,-0.07938 -1.243591,-0.07938 -2.447492,0 -3.83661,1.005456 -1.389117,0.992227 -1.984453,2.712086 -0.595336,1.70663 -0.687943,3.863069 h 0.145526 q 0.396891,-0.648255 1.018686,-1.177442 0.621795,-0.529188 1.494955,-0.833471 0.886389,-0.317512 2.063831,-0.317512 1.6934,0 2.95022,0.701173 1.256821,0.687944 1.944764,2.010913 0.687944,1.322969 0.687944,3.214814 0,2.010912 -0.754092,3.479408 -0.754092,1.468495 -2.156439,2.262276 -1.389117,0.793782 -3.320652,0.793782 -1.428806,0 -2.645937,-0.529188 -1.217131,-0.542417 -2.11675,-1.600792 -0.899619,-1.071605 -1.402347,-2.659167 -0.502728,-1.600793 -0.502728,-3.730772 z m 6.628073,6.310561 q 1.653711,0 2.645938,-1.058375 1.005456,-1.071605 1.005456,-3.254503 0,-1.786008 -0.886389,-2.817924 -0.886389,-1.045145 -2.672397,-1.045145 -1.217131,0 -2.12998,0.515958 -0.899618,0.515957 -1.402347,1.296509 -0.489498,0.767322 -0.489498,1.574333 0,0.83347 0.238134,1.68017 0.238135,0.83347 0.727633,1.547874 0.489499,0.701173 1.230361,1.137753 0.740863,0.42335 1.733089,0.42335 z"
         id="text20"
         inkscape:label="Symbol 16"
         aria-label="16&#10;"
         transform="translate(-139.87891,115.24219)" />
    </g>
    <g
       id="g8"
       inkscape:label="Style - Transparent"
       style="display:inline;fill:#ffffff;fill-opacity:1">
      <path
         style="color:#000000;display:inline;fill:#808080;fill-opacity:0.501031;stroke-linecap:round;stroke-linejoin:round;-inkscape-stroke:none;paint-order:stroke markers fill"
         d="m -117.11328,115.24219 c -12.554,-10e-6 -22.76562,10.21163 -22.76563,22.76562 0,12.554 10.21163,22.76368 22.76563,22.76367 12.554,0 22.763674,-10.20967 22.763671,-22.76367 -3e-6,-12.55399 -10.209681,-22.76562 -22.763671,-22.76562 z m 0,3.10156 c 10.87863,0 19.664059,8.78543 19.664061,19.66406 3e-6,10.87864 -8.785431,19.66406 -19.664061,19.66406 -10.87864,10e-6 -19.66407,-8.78542 -19.66406,-19.66406 0,-10.87863 8.78543,-19.66406 19.66406,-19.66406 z"
         id="path9"
         inkscape:label="Outline" />
      <path
         style="color:#000000;display:inline;stroke-linecap:round;stroke-linejoin:round;-inkscape-stroke:none;paint-order:stroke markers fill"
         d="m -95.899378,138.00743 a 21.214285,21.214285 0 0 1 -21.214282,21.21429 21.214285,21.214285 0 0 1 -21.21429,-21.21429 21.214285,21.214285 0 0 1 21.21429,-21.21428 21.214285,21.214285 0 0 1 21.214282,21.21428 z"
         id="path10"
         inkscape:label="Circle" />
      <path
         style="font-weight:500;font-size:27.0944px;line-height:0;font-family:'open sans';-inkscape-font-specification:'open sans Medium';letter-spacing:-1.6934px;word-spacing:0px;fill:#808080;stroke-width:4.26684;stroke-linecap:round;stroke-linejoin:round;stroke-opacity:0.501961"
         d="M 17.406632,32.435547 H 14.773924 V 19.351386 q 0,-0.701174 0,-1.28328 0.01323,-0.595336 0.03969,-1.124523 0.02646,-0.542418 0.05292,-1.045146 -0.343972,0.357202 -0.727633,0.687944 -0.370431,0.317513 -0.85993,0.727633 l -2.209357,1.786008 -1.3626582,-1.746319 5.4903202,-4.25996 h 2.209358 z m 5.252186,-8.255325 q 0,-1.733089 0.238134,-3.3868 0.251364,-1.653711 0.83347,-3.095747 0.595336,-1.442036 1.627252,-2.526871 1.031916,-1.098064 2.579789,-1.719859 1.547874,-0.621795 3.730772,-0.621795 0.582106,0 1.28328,0.05292 0.714403,0.05292 1.177442,0.185216 v 2.235817 q -0.502728,-0.158756 -1.124523,-0.238134 -0.621796,-0.07938 -1.243591,-0.07938 -2.447492,0 -3.83661,1.005456 -1.389117,0.992227 -1.984453,2.712086 -0.595336,1.70663 -0.687943,3.863069 h 0.145526 q 0.396891,-0.648255 1.018686,-1.177442 0.621795,-0.529188 1.494955,-0.833471 0.886389,-0.317512 2.063831,-0.317512 1.6934,0 2.95022,0.701173 1.256821,0.687944 1.944764,2.010913 0.687944,1.322969 0.687944,3.214814 0,2.010912 -0.754092,3.479408 -0.754092,1.468495 -2.156439,2.262276 -1.389117,0.793782 -3.320652,0.793782 -1.428806,0 -2.645937,-0.529188 -1.217131,-0.542417 -2.11675,-1.600792 -0.899619,-1.071605 -1.402347,-2.659167 -0.502728,-1.600793 -0.502728,-3.730772 z m 6.628073,6.310561 q 1.653711,0 2.645938,-1.058375 1.005456,-1.071605 1.005456,-3.254503 0,-1.786008 -0.886389,-2.817924 -0.886389,-1.045145 -2.672397,-1.045145 -1.217131,0 -2.12998,0.515958 -0.899618,0.515957 -1.402347,1.296509 -0.489498,0.767322 -0.489498,1.574333 0,0.83347 0.238134,1.68017 0.238135,0.83347 0.727633,1.547874 0.489499,0.701173 1.230361,1.137753 0.740863,0.42335 1.733089,0.42335 z"
         id="path21"
         inkscape:label="Symbol 16"
         aria-label="16&#10;"
         transform="translate(-139.87891,115.24219)" />
    </g>
  </g>
  <metadata
     id="metadata8">
    <rdf:RDF>
      <cc:Work
         rdf:about="">
        <cc:license
           rdf:resource="https://opensource.org/license/mit" />
      </cc:Work>
    </rdf:RDF>
  </metadata>
</svg>
