<?xml version="1.0" encoding="UTF-8" standalone="no"?>
<!-- Created with Inkscape (http://www.inkscape.org/) -->

<svg
   width="45.529301mm"
   height="45.529289mm"
   viewBox="0 0 45.529303 45.529286"
   version="1.1"
   id="svg1"
   sodipodi:docname="directinput-9.svg"
   inkscape:version="1.3.2 (091e20e, 2023-11-25, custom)"
   xmlns:inkscape="http://www.inkscape.org/namespaces/inkscape"
   xmlns:sodipodi="http://sodipodi.sourceforge.net/DTD/sodipodi-0.dtd"
   xmlns="http://www.w3.org/2000/svg"
   xmlns:svg="http://www.w3.org/2000/svg"
   xmlns:rdf="http://www.w3.org/1999/02/22-rdf-syntax-ns#"
   xmlns:cc="http://creativecommons.org/ns#">
  <sodipodi:namedview
     id="namedview1"
     pagecolor="#3e8d2e"
     bordercolor="#000000"
     borderopacity="0.25"
     inkscape:showpageshadow="true"
     inkscape:pageopacity="0.0"
     inkscape:pagecheckerboard="false"
     inkscape:deskcolor="#d1d1d1"
     inkscape:document-units="mm"
     inkscape:zoom="5.6568542"
     inkscape:cx="52.856232"
     inkscape:cy="86.708969"
     inkscape:window-width="2560"
     inkscape:window-height="1351"
     inkscape:window-x="-9"
     inkscape:window-y="-9"
     inkscape:window-maximized="1"
     inkscape:current-layer="path1"
     labelstyle="default"
     showborder="true" />
  <defs
     id="defs1">
    <rect
       x="-329.58707"
       y="426.24316"
       width="115.7824"
       height="107.24387"
       id="rect2" />
    <rect
       x="-486.35437"
       y="484.30515"
       width="87.776039"
       height="93.582237"
       id="rect1" />
  </defs>
  <g
     inkscape:label="Button Prompt 9"
     id="layer1"
     transform="translate(139.87891,-115.24219)"
     style="display:inline">
    <g
       id="path1"
       inkscape:label="Style - Outline (White)"
       style="display:none">
      <path
         style="color:#000000;display:inline;fill:#ffffff;fill-opacity:1;stroke-linecap:round;stroke-linejoin:round;-inkscape-stroke:none"
         d="m -95.899378,138.00743 a 21.214285,21.214285 0 0 1 -21.214282,21.21429 21.214285,21.214285 0 0 1 -21.21429,-21.21429 21.214285,21.214285 0 0 1 21.21429,-21.21428 21.214285,21.214285 0 0 1 21.214282,21.21428 z"
         id="path3"
         inkscape:label="Circle" />
      <path
         style="color:#000000;display:inline;fill:#000000;fill-opacity:1;stroke-linecap:round;stroke-linejoin:round;-inkscape-stroke:none"
         d="m -117.11328,115.24219 c -12.554,0 -22.76563,10.21163 -22.76563,22.76562 0,12.554 10.21163,22.76367 22.76563,22.76367 12.55399,0 22.763671,-10.20967 22.763671,-22.76367 0,-12.55399 -10.209681,-22.76562 -22.763671,-22.76562 z m 0,3.10156 c 10.87863,0 19.664061,8.78543 19.664061,19.66406 0,10.87864 -8.785431,19.66406 -19.664061,19.66406 -10.87863,0 -19.66406,-8.78542 -19.66406,-19.66406 0,-10.87863 8.78543,-19.66406 19.66406,-19.66406 z"
         id="path4"
         inkscape:label="Outline" />
      <path
         d="m -109.40873,136.36641 q 0,1.9806 -0.28726,3.88561 -0.27215,1.88989 -0.95251,3.55299 -0.66524,1.64798 -1.84453,2.90286 -1.17928,1.23977 -2.96334,1.95036 -1.78405,0.7106 -4.26358,0.7106 -0.65012,0 -1.49679,-0.0756 -0.84667,-0.0756 -1.39096,-0.22679 v -2.57025 q 0.57453,0.19655 1.31536,0.30239 0.74084,0.10583 1.45144,0.10583 2.81215,0 4.39965,-1.13393 1.58751,-1.13393 2.26787,-3.0843 0.69547,-1.96548 0.78619,-4.44501 h -0.18143 q -0.45357,0.72572 -1.14905,1.33048 -0.69548,0.60476 -1.70846,0.96762 -1.01298,0.36286 -2.41905,0.36286 -1.90501,0 -3.3262,-0.78619 -1.4212,-0.80131 -2.20739,-2.31322 -0.78619,-1.51191 -0.78619,-3.65882 0,-2.31322 0.8769,-3.99144 0.87691,-1.69334 2.47953,-2.60049 1.60263,-0.90714 3.77978,-0.90714 1.64798,0 3.03893,0.61988 1.39096,0.60476 2.41906,1.82941 1.0281,1.20953 1.5875,3.03894 0.57453,1.81429 0.57453,4.23334 z m -7.58978,-7.18157 q -1.85965,0 -3.0087,1.22465 -1.14905,1.20953 -1.14905,3.68906 0,2.0562 0.98274,3.2506 0.99786,1.17929 3.05405,1.17929 1.4212,0 2.4493,-0.57452 1.04321,-0.58965 1.60262,-1.48167 0.57452,-0.89203 0.57452,-1.82941 0,-0.93739 -0.27214,-1.88989 -0.27214,-0.96762 -0.83155,-1.76893 -0.55941,-0.81643 -1.40607,-1.30025 -0.84667,-0.49893 -1.99572,-0.49893 z"
         id="text13"
         style="font-weight:500;font-size:30.9639px;line-height:0;font-family:'open sans';-inkscape-font-specification:'open sans Medium';letter-spacing:-0.967622px;word-spacing:0px;display:inline;opacity:1;fill:#000000;fill-opacity:1;stroke-width:4.87621;stroke-linecap:round;stroke-linejoin:round;stroke-opacity:0.501961"
         aria-label="9"
         transform="translate(1.25e-6)"
         inkscape:label="Symbol 9" />
    </g>
    <g
       id="g6"
       inkscape:label="Style - Outline (Black)"
       style="display:none">
      <path
         style="color:#000000;display:inline;fill:#000000;fill-opacity:1;stroke-linecap:round;stroke-linejoin:round;-inkscape-stroke:none"
         d="m -95.899378,138.00743 a 21.214285,21.214285 0 0 1 -21.214282,21.21429 21.214285,21.214285 0 0 1 -21.21429,-21.21429 21.214285,21.214285 0 0 1 21.21429,-21.21428 21.214285,21.214285 0 0 1 21.214282,21.21428 z"
         id="path5"
         inkscape:label="Circle" />
      <path
         style="color:#000000;display:inline;fill:#ffffff;fill-opacity:1;stroke-linecap:round;stroke-linejoin:round;-inkscape-stroke:none"
         d="m -117.11328,115.24219 c -12.554,0 -22.76563,10.21163 -22.76563,22.76562 0,12.554 10.21163,22.76367 22.76563,22.76367 12.55399,0 22.763671,-10.20967 22.763671,-22.76367 0,-12.55399 -10.209681,-22.76562 -22.763671,-22.76562 z m 0,3.10156 c 10.87863,0 19.664061,8.78543 19.664061,19.66406 0,10.87864 -8.785431,19.66406 -19.664061,19.66406 -10.87863,0 -19.66406,-8.78542 -19.66406,-19.66406 0,-10.87863 8.78543,-19.66406 19.66406,-19.66406 z"
         id="path6"
         inkscape:label="Outline" />
      <path
         d="m -109.40873,136.36641 q 0,1.9806 -0.28726,3.88561 -0.27215,1.88989 -0.95251,3.55299 -0.66524,1.64798 -1.84453,2.90286 -1.17928,1.23977 -2.96334,1.95036 -1.78405,0.7106 -4.26358,0.7106 -0.65012,0 -1.49679,-0.0756 -0.84667,-0.0756 -1.39096,-0.22679 v -2.57025 q 0.57453,0.19655 1.31536,0.30239 0.74084,0.10583 1.45144,0.10583 2.81215,0 4.39965,-1.13393 1.58751,-1.13393 2.26787,-3.0843 0.69547,-1.96548 0.78619,-4.44501 h -0.18143 q -0.45357,0.72572 -1.14905,1.33048 -0.69548,0.60476 -1.70846,0.96762 -1.01298,0.36286 -2.41905,0.36286 -1.90501,0 -3.3262,-0.78619 -1.4212,-0.80131 -2.20739,-2.31322 -0.78619,-1.51191 -0.78619,-3.65882 0,-2.31322 0.8769,-3.99144 0.87691,-1.69334 2.47953,-2.60049 1.60263,-0.90714 3.77978,-0.90714 1.64798,0 3.03893,0.61988 1.39096,0.60476 2.41906,1.82941 1.0281,1.20953 1.5875,3.03894 0.57453,1.81429 0.57453,4.23334 z m -7.58978,-7.18157 q -1.85965,0 -3.0087,1.22465 -1.14905,1.20953 -1.14905,3.68906 0,2.0562 0.98274,3.2506 0.99786,1.17929 3.05405,1.17929 1.4212,0 2.4493,-0.57452 1.04321,-0.58965 1.60262,-1.48167 0.57452,-0.89203 0.57452,-1.82941 0,-0.93739 -0.27214,-1.88989 -0.27214,-0.96762 -0.83155,-1.76893 -0.55941,-0.81643 -1.40607,-1.30025 -0.84667,-0.49893 -1.99572,-0.49893 z"
         id="path14"
         style="font-weight:500;font-size:30.9639px;line-height:0;font-family:'open sans';-inkscape-font-specification:'open sans Medium';letter-spacing:-0.967622px;word-spacing:0px;display:inline;opacity:1;fill:#ffffff;fill-opacity:1;stroke-width:4.87621;stroke-linecap:round;stroke-linejoin:round;stroke-opacity:0.501961"
         aria-label="9"
         transform="translate(1.25e-6)"
         inkscape:label="Symbol 9" />
    </g>
    <g
       id="g8"
       inkscape:label="Style - Transparent"
       style="display:inline;fill:#ffffff;fill-opacity:1">
      <path
         style="color:#000000;display:inline;fill:#808080;fill-opacity:0.501031;stroke-linecap:round;stroke-linejoin:round;-inkscape-stroke:none;paint-order:stroke markers fill"
         d="m -117.11328,115.24219 c -12.554,-10e-6 -22.76562,10.21163 -22.76563,22.76562 0,12.554 10.21163,22.76368 22.76563,22.76367 12.554,0 22.763674,-10.20967 22.763671,-22.76367 -3e-6,-12.55399 -10.209681,-22.76562 -22.763671,-22.76562 z m 0,3.10156 c 10.87863,0 19.664059,8.78543 19.664061,19.66406 3e-6,10.87864 -8.785431,19.66406 -19.664061,19.66406 -10.87864,10e-6 -19.66407,-8.78542 -19.66406,-19.66406 0,-10.87863 8.78543,-19.66406 19.66406,-19.66406 z"
         id="path9"
         inkscape:label="Outline" />
      <path
         style="color:#000000;display:inline;stroke-linecap:round;stroke-linejoin:round;-inkscape-stroke:none;paint-order:stroke markers fill"
         d="m -95.899378,138.00743 a 21.214285,21.214285 0 0 1 -21.214282,21.21429 21.214285,21.214285 0 0 1 -21.21429,-21.21429 21.214285,21.214285 0 0 1 21.21429,-21.21428 21.214285,21.214285 0 0 1 21.214282,21.21428 z"
         id="path10"
         inkscape:label="Circle" />
      <path
         d="m -109.40873,136.36641 q 0,1.9806 -0.28726,3.88561 -0.27215,1.88989 -0.95251,3.55299 -0.66524,1.64798 -1.84453,2.90286 -1.17928,1.23977 -2.96334,1.95036 -1.78405,0.7106 -4.26358,0.7106 -0.65012,0 -1.49679,-0.0756 -0.84667,-0.0756 -1.39096,-0.22679 v -2.57025 q 0.57453,0.19655 1.31536,0.30239 0.74084,0.10583 1.45144,0.10583 2.81215,0 4.39965,-1.13393 1.58751,-1.13393 2.26787,-3.0843 0.69547,-1.96548 0.78619,-4.44501 h -0.18143 q -0.45357,0.72572 -1.14905,1.33048 -0.69548,0.60476 -1.70846,0.96762 -1.01298,0.36286 -2.41905,0.36286 -1.90501,0 -3.3262,-0.78619 -1.4212,-0.80131 -2.20739,-2.31322 -0.78619,-1.51191 -0.78619,-3.65882 0,-2.31322 0.8769,-3.99144 0.87691,-1.69334 2.47953,-2.60049 1.60263,-0.90714 3.77978,-0.90714 1.64798,0 3.03893,0.61988 1.39096,0.60476 2.41906,1.82941 1.0281,1.20953 1.5875,3.03894 0.57453,1.81429 0.57453,4.23334 z m -7.58978,-7.18157 q -1.85965,0 -3.0087,1.22465 -1.14905,1.20953 -1.14905,3.68906 0,2.0562 0.98274,3.2506 0.99786,1.17929 3.05405,1.17929 1.4212,0 2.4493,-0.57452 1.04321,-0.58965 1.60262,-1.48167 0.57452,-0.89203 0.57452,-1.82941 0,-0.93739 -0.27214,-1.88989 -0.27214,-0.96762 -0.83155,-1.76893 -0.55941,-0.81643 -1.40607,-1.30025 -0.84667,-0.49893 -1.99572,-0.49893 z"
         id="path13"
         style="font-weight:500;font-size:30.9639px;line-height:0;font-family:'open sans';-inkscape-font-specification:'open sans Medium';letter-spacing:-0.967622px;word-spacing:0px;display:inline;opacity:1;fill:#808080;stroke-width:4.87621;stroke-linecap:round;stroke-linejoin:round;stroke-opacity:0.501961"
         aria-label="9"
         transform="translate(1.25e-6)"
         inkscape:label="Symbol 9" />
    </g>
  </g>
  <metadata
     id="metadata8">
    <rdf:RDF>
      <cc:Work
         rdf:about="">
        <cc:license
           rdf:resource="https://opensource.org/license/mit" />
      </cc:Work>
    </rdf:RDF>
  </metadata>
</svg>
