<?xml version="1.0" encoding="UTF-8" standalone="no"?>
<!-- Created with Inkscape (http://www.inkscape.org/) -->

<svg
   width="45.529301mm"
   height="45.529289mm"
   viewBox="0 0 45.529302 45.529287"
   version="1.1"
   id="svg1"
   sodipodi:docname="directinput-6.svg"
   inkscape:version="1.3.2 (091e20e, 2023-11-25, custom)"
   xmlns:inkscape="http://www.inkscape.org/namespaces/inkscape"
   xmlns:sodipodi="http://sodipodi.sourceforge.net/DTD/sodipodi-0.dtd"
   xmlns="http://www.w3.org/2000/svg"
   xmlns:svg="http://www.w3.org/2000/svg"
   xmlns:rdf="http://www.w3.org/1999/02/22-rdf-syntax-ns#"
   xmlns:cc="http://creativecommons.org/ns#">
  <sodipodi:namedview
     id="namedview1"
     pagecolor="#3e8d2e"
     bordercolor="#000000"
     borderopacity="0.25"
     inkscape:showpageshadow="true"
     inkscape:pageopacity="0.0"
     inkscape:pagecheckerboard="false"
     inkscape:deskcolor="#d1d1d1"
     inkscape:document-units="mm"
     inkscape:zoom="5.6568542"
     inkscape:cx="58.689863"
     inkscape:cy="84.587649"
     inkscape:window-width="2560"
     inkscape:window-height="1351"
     inkscape:window-x="-9"
     inkscape:window-y="-9"
     inkscape:window-maximized="1"
     inkscape:current-layer="path1"
     labelstyle="default"
     showborder="true" />
  <defs
     id="defs1">
    <rect
       x="-329.58707"
       y="426.24316"
       width="115.7824"
       height="107.24387"
       id="rect2" />
    <rect
       x="-486.35437"
       y="484.30515"
       width="87.776039"
       height="93.582237"
       id="rect1" />
  </defs>
  <g
     inkscape:label="Button Prompt 6"
     id="layer1"
     transform="translate(139.87891,-115.24219)"
     style="display:inline">
    <g
       id="path1"
       inkscape:label="Style - Outline (White)"
       style="display:none">
      <path
         style="color:#000000;display:inline;fill:#ffffff;fill-opacity:1;stroke-linecap:round;stroke-linejoin:round;-inkscape-stroke:none"
         d="m -95.899378,138.00743 a 21.214285,21.214285 0 0 1 -21.214282,21.21429 21.214285,21.214285 0 0 1 -21.21429,-21.21429 21.214285,21.214285 0 0 1 21.21429,-21.21428 21.214285,21.214285 0 0 1 21.214282,21.21428 z"
         id="path3"
         inkscape:label="Circle" />
      <path
         style="color:#000000;display:inline;fill:#000000;fill-opacity:1;stroke-linecap:round;stroke-linejoin:round;-inkscape-stroke:none"
         d="m -117.11328,115.24219 c -12.554,0 -22.76563,10.21163 -22.76563,22.76562 0,12.554 10.21163,22.76367 22.76563,22.76367 12.55399,0 22.763671,-10.20967 22.763671,-22.76367 0,-12.55399 -10.209681,-22.76562 -22.763671,-22.76562 z m 0,3.10156 c 10.87863,0 19.664061,8.78543 19.664061,19.66406 0,10.87864 -8.785431,19.66406 -19.664061,19.66406 -10.87863,0 -19.66406,-8.78542 -19.66406,-19.66406 0,-10.87863 8.78543,-19.66406 19.66406,-19.66406 z"
         id="path4"
         inkscape:label="Outline" />
      <path
         d="m -124.81653,139.3924 q 0,-1.98192 0.27233,-3.87306 0.28745,-1.89114 0.95313,-3.54022 0.68081,-1.64908 1.86089,-2.88967 1.18007,-1.25572 2.95018,-1.96679 1.77011,-0.71107 4.26642,-0.71107 0.66568,0 1.46753,0.0605 0.81697,0.0605 1.34649,0.21181 v 2.55682 q -0.5749,-0.18155 -1.28597,-0.27232 -0.71107,-0.0908 -1.42214,-0.0908 -2.7989,0 -4.38746,1.14982 -1.58856,1.13468 -2.26937,3.10147 -0.68081,1.95166 -0.78672,4.41772 h 0.16642 q 0.45388,-0.74133 1.16495,-1.3465 0.71107,-0.60516 1.70959,-0.95313 1.01366,-0.3631 2.36015,-0.3631 1.93653,0 3.3738,0.80184 1.43727,0.78672 2.22399,2.29963 0.78671,1.51292 0.78671,3.67639 0,2.29963 -0.86236,3.97896 -0.86236,1.67934 -2.46605,2.58709 -1.58856,0.90775 -3.79742,0.90775 -1.63395,0 -3.02583,-0.60517 -1.39188,-0.6203 -2.42066,-1.83063 -1.02878,-1.22546 -1.60369,-3.04096 -0.57491,-1.83062 -0.57491,-4.26642 z m 7.57971,7.21661 q 1.89114,0 3.02583,-1.21033 1.14981,-1.22547 1.14981,-3.72178 0,-2.04243 -1.01365,-3.2225 -1.01366,-1.19521 -3.05609,-1.19521 -1.39188,0 -2.43579,0.59004 -1.02879,0.59004 -1.60369,1.48266 -0.55978,0.87749 -0.55978,1.80036 0,0.95314 0.27232,1.92141 0.27233,0.95313 0.83211,1.77011 0.55977,0.80184 1.40701,1.3011 0.84723,0.48414 1.98192,0.48414 z"
         id="text7"
         style="font-weight:500;font-size:30.9845px;line-height:0;font-family:'open sans';-inkscape-font-specification:'open sans Medium';letter-spacing:-0.968266px;word-spacing:0px;display:inline;fill:#000000;fill-opacity:1;stroke-width:4.87945;stroke-linecap:round;stroke-linejoin:round;stroke-opacity:0.501961"
         inkscape:label="Symbol 6"
         aria-label="6"
         transform="translate(1.2499999e-6)" />
    </g>
    <g
       id="g6"
       inkscape:label="Style - Outline (Black)"
       style="display:none">
      <path
         style="color:#000000;display:inline;fill:#000000;fill-opacity:1;stroke-linecap:round;stroke-linejoin:round;-inkscape-stroke:none"
         d="m -95.899378,138.00743 a 21.214285,21.214285 0 0 1 -21.214282,21.21429 21.214285,21.214285 0 0 1 -21.21429,-21.21429 21.214285,21.214285 0 0 1 21.21429,-21.21428 21.214285,21.214285 0 0 1 21.214282,21.21428 z"
         id="path5"
         inkscape:label="Circle" />
      <path
         style="color:#000000;display:inline;fill:#ffffff;fill-opacity:1;stroke-linecap:round;stroke-linejoin:round;-inkscape-stroke:none"
         d="m -117.11328,115.24219 c -12.554,0 -22.76563,10.21163 -22.76563,22.76562 0,12.554 10.21163,22.76367 22.76563,22.76367 12.55399,0 22.763671,-10.20967 22.763671,-22.76367 0,-12.55399 -10.209681,-22.76562 -22.763671,-22.76562 z m 0,3.10156 c 10.87863,0 19.664061,8.78543 19.664061,19.66406 0,10.87864 -8.785431,19.66406 -19.664061,19.66406 -10.87863,0 -19.66406,-8.78542 -19.66406,-19.66406 0,-10.87863 8.78543,-19.66406 19.66406,-19.66406 z"
         id="path6"
         inkscape:label="Outline" />
      <path
         d="m -124.81653,139.3924 q 0,-1.98192 0.27233,-3.87306 0.28745,-1.89114 0.95313,-3.54022 0.68081,-1.64908 1.86089,-2.88967 1.18007,-1.25572 2.95018,-1.96679 1.77011,-0.71107 4.26642,-0.71107 0.66568,0 1.46753,0.0605 0.81697,0.0605 1.34649,0.21181 v 2.55682 q -0.5749,-0.18155 -1.28597,-0.27232 -0.71107,-0.0908 -1.42214,-0.0908 -2.7989,0 -4.38746,1.14982 -1.58856,1.13468 -2.26937,3.10147 -0.68081,1.95166 -0.78672,4.41772 h 0.16642 q 0.45388,-0.74133 1.16495,-1.3465 0.71107,-0.60516 1.70959,-0.95313 1.01366,-0.3631 2.36015,-0.3631 1.93653,0 3.3738,0.80184 1.43727,0.78672 2.22399,2.29963 0.78671,1.51292 0.78671,3.67639 0,2.29963 -0.86236,3.97896 -0.86236,1.67934 -2.46605,2.58709 -1.58856,0.90775 -3.79742,0.90775 -1.63395,0 -3.02583,-0.60517 -1.39188,-0.6203 -2.42066,-1.83063 -1.02878,-1.22546 -1.60369,-3.04096 -0.57491,-1.83062 -0.57491,-4.26642 z m 7.57971,7.21661 q 1.89114,0 3.02583,-1.21033 1.14981,-1.22547 1.14981,-3.72178 0,-2.04243 -1.01365,-3.2225 -1.01366,-1.19521 -3.05609,-1.19521 -1.39188,0 -2.43579,0.59004 -1.02879,0.59004 -1.60369,1.48266 -0.55978,0.87749 -0.55978,1.80036 0,0.95314 0.27232,1.92141 0.27233,0.95313 0.83211,1.77011 0.55977,0.80184 1.40701,1.3011 0.84723,0.48414 1.98192,0.48414 z"
         id="path8"
         style="font-weight:500;font-size:30.9845px;line-height:0;font-family:'open sans';-inkscape-font-specification:'open sans Medium';letter-spacing:-0.968266px;word-spacing:0px;display:inline;fill:#ffffff;fill-opacity:1;stroke-width:4.87945;stroke-linecap:round;stroke-linejoin:round;stroke-opacity:0.501961"
         inkscape:label="Symbol 6"
         aria-label="6"
         transform="translate(1.2499999e-6)" />
    </g>
    <g
       id="g8"
       inkscape:label="Style - Transparent"
       style="display:inline;fill:#ffffff;fill-opacity:1">
      <path
         style="color:#000000;display:inline;fill:#808080;fill-opacity:0.501031;stroke-linecap:round;stroke-linejoin:round;-inkscape-stroke:none;paint-order:stroke markers fill"
         d="m -117.11328,115.24219 c -12.554,-10e-6 -22.76562,10.21163 -22.76563,22.76562 0,12.554 10.21163,22.76368 22.76563,22.76367 12.554,0 22.763674,-10.20967 22.763671,-22.76367 -3e-6,-12.55399 -10.209681,-22.76562 -22.763671,-22.76562 z m 0,3.10156 c 10.87863,0 19.664059,8.78543 19.664061,19.66406 3e-6,10.87864 -8.785431,19.66406 -19.664061,19.66406 -10.87864,10e-6 -19.66407,-8.78542 -19.66406,-19.66406 0,-10.87863 8.78543,-19.66406 19.66406,-19.66406 z"
         id="path9"
         inkscape:label="Outline" />
      <path
         style="color:#000000;display:inline;stroke-linecap:round;stroke-linejoin:round;-inkscape-stroke:none;paint-order:stroke markers fill"
         d="m -95.899378,138.00743 a 21.214285,21.214285 0 0 1 -21.214282,21.21429 21.214285,21.214285 0 0 1 -21.21429,-21.21429 21.214285,21.214285 0 0 1 21.21429,-21.21428 21.214285,21.214285 0 0 1 21.214282,21.21428 z"
         id="path10"
         inkscape:label="Circle" />
      <path
         d="m -124.81653,139.3924 q 0,-1.98192 0.27233,-3.87306 0.28745,-1.89114 0.95313,-3.54022 0.68081,-1.64908 1.86089,-2.88967 1.18007,-1.25572 2.95018,-1.96679 1.77011,-0.71107 4.26642,-0.71107 0.66568,0 1.46753,0.0605 0.81697,0.0605 1.34649,0.21181 v 2.55682 q -0.5749,-0.18155 -1.28597,-0.27232 -0.71107,-0.0908 -1.42214,-0.0908 -2.7989,0 -4.38746,1.14982 -1.58856,1.13468 -2.26937,3.10147 -0.68081,1.95166 -0.78672,4.41772 h 0.16642 q 0.45388,-0.74133 1.16495,-1.3465 0.71107,-0.60516 1.70959,-0.95313 1.01366,-0.3631 2.36015,-0.3631 1.93653,0 3.3738,0.80184 1.43727,0.78672 2.22399,2.29963 0.78671,1.51292 0.78671,3.67639 0,2.29963 -0.86236,3.97896 -0.86236,1.67934 -2.46605,2.58709 -1.58856,0.90775 -3.79742,0.90775 -1.63395,0 -3.02583,-0.60517 -1.39188,-0.6203 -2.42066,-1.83063 -1.02878,-1.22546 -1.60369,-3.04096 -0.57491,-1.83062 -0.57491,-4.26642 z m 7.57971,7.21661 q 1.89114,0 3.02583,-1.21033 1.14981,-1.22547 1.14981,-3.72178 0,-2.04243 -1.01365,-3.2225 -1.01366,-1.19521 -3.05609,-1.19521 -1.39188,0 -2.43579,0.59004 -1.02879,0.59004 -1.60369,1.48266 -0.55978,0.87749 -0.55978,1.80036 0,0.95314 0.27232,1.92141 0.27233,0.95313 0.83211,1.77011 0.55977,0.80184 1.40701,1.3011 0.84723,0.48414 1.98192,0.48414 z"
         id="path7"
         style="font-weight:500;font-size:30.9845px;line-height:0;font-family:'open sans';-inkscape-font-specification:'open sans Medium';letter-spacing:-0.968266px;word-spacing:0px;fill:#808080;stroke-width:4.87945;stroke-linecap:round;stroke-linejoin:round;stroke-opacity:0.501961"
         inkscape:label="Symbol 6"
         aria-label="6" />
    </g>
  </g>
  <metadata
     id="metadata8">
    <rdf:RDF>
      <cc:Work
         rdf:about="">
        <cc:license
           rdf:resource="https://opensource.org/license/mit" />
      </cc:Work>
    </rdf:RDF>
  </metadata>
</svg>
