<?xml version="1.0" standalone="no"?><!DOCTYPE svg PUBLIC "-//W3C//DTD SVG 1.1//EN" "http://www.w3.org/Graphics/SVG/1.1/DTD/svg11.dtd"><svg t="1743395530408" class="icon" viewBox="0 0 1024 1024" version="1.1" xmlns="http://www.w3.org/2000/svg" p-id="2528" xmlns:xlink="http://www.w3.org/1999/xlink" width="200" height="200"><path d="M512 512m-512 0a512 512 0 1 0 1024 0 512 512 0 1 0-1024 0Z" fill="#333333" p-id="2529"></path><path d="M759.296 448.512c-48.896 0-96.256-15.872-135.424-45.056v204.8c0 104.448-80.64 189.184-179.968 189.184s-179.968-84.736-179.968-189.184 80.64-189.184 179.968-189.184c9.984 0 19.712 0.768 28.928 2.56V529.92c-8.96-3.584-18.688-5.376-28.16-5.376-44.288 0-80.384 37.632-80.384 84.48s36.096 84.48 80.384 84.48 80.128-37.632 80.128-84.48V202.24h100.352c0 78.336 60.416 141.568 134.656 141.568v104.704h-0.512" fill="#FFFFFF" p-id="2530"></path></svg>