<svg version="1.1" xmlns="http://www.w3.org/2000/svg" height="50" width="50" viewBox="0 0 1024 1024"><path d="M256 0h512c140.8 0 256 115.2 256 256v512c0 140.8-115.2 256-256 256H256c-140.8 0-256-115.2-256-256V256c0-140.8 115.2-256 256-256z m256 486.4c-12.8-25.6-34.133333-42.666667-46.933333-64-21.333333-25.6-38.4-55.466667-55.466667-85.333333L384 273.066667c-8.533333-21.333333-17.066667-46.933333-34.133333-64-8.533333-8.533333-25.6-12.8-38.4-12.8-12.8 4.266667-21.333333 8.533333-29.866667 12.8-21.333333 21.333333-34.133333 42.666667-51.2 64-29.866667 51.2-46.933333 106.666667-55.466667 162.133333-12.8 72.533333-8.533333 149.333333 12.8 221.866667 17.066667 59.733333 46.933333 115.2 93.866667 157.866666 12.8 17.066667 42.666667 21.333333 59.733333 8.533334 25.6-12.8 42.666667-29.866667 59.733334-51.2 21.333333-25.6 38.4-51.2 51.2-81.066667 25.6-46.933333 51.2-93.866667 64-149.333333 8.533333-17.066667 4.266667-38.4-4.266667-55.466667z m337.066667-8.533333c-8.533333-25.6-21.333333-46.933333-34.133334-68.266667-21.333333-34.133333-46.933333-64-76.8-89.6-51.2-46.933333-110.933333-85.333333-174.933333-115.2-21.333333-8.533333-42.666667-17.066667-68.266667-21.333333-17.066667-4.266667-38.4-4.266667-55.466666 0-17.066667 0-34.133333 12.8-34.133334 29.866666v21.333334c4.266667 38.4 21.333333 72.533333 38.4 102.4s38.4 59.733333 59.733334 85.333333l25.6 25.6c42.666667 38.4 93.866667 68.266667 153.6 85.333333 25.6 4.266667 51.2 4.266667 72.533333 4.266667 25.6-4.266667 55.466667-4.266667 76.8-21.333333 8.533333-4.266667 12.8-12.8 12.8-21.333334 8.533333-4.266667 4.266667-17.066667 4.266667-17.066666z m-8.533334 81.066666c-25.6-12.8-51.2 4.266667-81.066666 0-34.133333 0-64-4.266667-98.133334-8.533333-25.6-4.266667-46.933333-8.533333-72.533333-8.533333-12.8 4.266667-25.6 4.266667-34.133333 17.066666-12.8 17.066667-21.333333 34.133333-25.6 55.466667-21.333333 55.466667-51.2 106.666667-81.066667 153.6-8.533333 12.8-17.066667 21.333333-21.333333 34.133333-4.266667 8.533333-8.533333 21.333333 0 34.133334 8.533333 12.8 25.6 12.8 38.4 12.8 55.466667 4.266667 115.2-8.533333 166.4-34.133334 51.2-25.6 102.4-59.733333 145.066666-98.133333 34.133333-34.133333 68.266667-72.533333 76.8-123.733333 0-8.533333 0-25.6-12.8-34.133334z"></path></svg>