<?xml version="1.0" standalone="no"?><!DOCTYPE svg PUBLIC "-//W3C//DTD SVG 1.1//EN" "http://www.w3.org/Graphics/SVG/1.1/DTD/svg11.dtd"><svg t="1697886231944" class="icon" viewBox="0 0 1024 1024" version="1.1" xmlns="http://www.w3.org/2000/svg" p-id="2563" xmlns:xlink="http://www.w3.org/1999/xlink" width="200" height="200"><path d="M212.5568 605.0816C212.48 647.936 198.7584 687.1296 171.52 722.688c-40.9088 53.3248-83.9168 69.2736-77.824 85.1968 11.3408 35.4048 45.568 49.024 102.656 40.8832 36.7872 61.44 95.488 90.0096 176.0256 85.6064 88.6016-9.6 119.6544-92.0064 93.1072-247.2192l-252.9024-82.048zM734.6688 591.4112a293.504 293.504 0 0 1-52.352 122.8288c-40.448 55.7056-31.3856 56.9344-25.344 73.6 7.7824 21.4528 24.0128 50.048 48.7424 85.8112 80.2048 26.9312 158.3616 13.056 234.496-41.5744 30.9504-25.344-15.9744-57.2672-51.9424-136.6016-10.3168-22.784-5.0688-88.0128 15.7696-195.6608l-169.3696 91.5968z" fill="#23ADE5" p-id="2564"></path><path d="M706.2016 689.664l113.28-16.384c35.9936-44.6464 69.888-54.5024 101.6832-29.5168 47.6928 37.4272 8.2688 142.0288-71.5008 102.7584-1.7408 0-51.5072 5.5296-149.3504 16.64l5.888-73.5232zM420.6336 759.4752a41.8816 41.8816 0 0 1 18.5088 56.7296l-36.096 69.7088a43.136 43.136 0 0 1-57.5488 18.7648 41.8816 41.8816 0 0 1-18.4832-56.7296l36.0448-69.7088a43.136 43.136 0 0 1 57.5744-18.7648z" fill="#FFE6DF" p-id="2565"></path><path d="M465.4592 698.112c-35.5072-0.6656-67.456 23.296-95.872 71.8336-0.0512 0.3584 18.0992 20.1728 54.4512 59.4688l-18.5856 64.1536c2.6624 36.1728 57.0624 54.272 163.1744 54.272s165.1456-21.4272 177.152-64.2304l-30.72-93.2352c50.7904-1.1264 76.2112-7.424 76.2112-18.8416 0-17.152-27.6736-97.536-27.6736-115.328 0-11.8528-26.4448-5.632-79.3088 18.688l-218.8288 23.2192z" fill="#47CFE5" p-id="2566"></path><path d="M528.5376 684.0832l56.192-4.9152 22.912 53.6832c-23.9616 27.9552-38.3488 41.8048-43.0848 41.5232-6.3744-0.0256-22.912-11.1616-49.6384-33.408l13.6192-56.8832z" fill="#FED878" p-id="2567"></path><path d="M560.512 728.0128l-37.4272 106.3936 53.888 79.0784 38.8608-87.168z" fill="#FED878" p-id="2568"></path><path d="M574.5408 705.024c290.4832-44.8256 302.72-134.016 290.5088-252.928-12.2368-118.8864-160.2816-200.4224-330.752-182.0928-170.4192 18.3296-298.6752 129.5872-286.464 248.4736 12.2112 118.912 36.224 231.3216 326.7072 186.5216z" fill="#FFE6DF" p-id="2569"></path><path d="M388.0192 350.848c25.6512 24.32 31.744 31.4112 85.4528 58.4448 105.1392 42.752 245.8112 9.344 192.2048-92.928 19.5328 43.4176 96.256 99.7632 131.4304 118.5024-8.7552 137.216-15.5648 200.7808 8.7552 209.1008 19.584 6.7072 83.584-40.064 102.1184-171.1872 19.712-239.4624-231.7824-433.152-347.9552-354.304C283.7504 23.9616 83.2256 343.3472 139.648 558.5664c30.72 113.6896 139.392 207.9232 174.7456 182.3488 24.8064-17.92 3.2768-148.4288-35.0464-228.864 48.7168-40.448 68.7104-57.6256 108.672-161.1776z" fill="#23ADE5" p-id="2570"></path><path d="M337.3056 490.1632l2.3808 0.3584 129.3568 29.184c13.1584 2.944 16.896 19.3536 7.424 27.904l-2.0736 1.5872-105.9328 69.504a16.2816 16.2816 0 0 1-19.968-25.6l2.0992-1.6384 73.8048-48.4352-91.8784-20.736a16.3072 16.3072 0 0 1-12.6464-17.0752l0.3584-2.3808a16.3072 16.3072 0 0 1 17.0752-12.672z" fill="#24A7DA" p-id="2571"></path><path d="M653.927816 504.23771a86.5792 42.3168 84 1 0 84.169968-8.84662 86.5792 42.3168 84 1 0-84.169968 8.84662Z" fill="#24A7DA" p-id="2572"></path><path d="M625.2544 565.632l2.4064 0.256a16.2816 16.2816 0 0 1 13.2352 18.8672c-8.5248 48.2048-28.672 71.5264-57.4464 67.712a58.7776 58.7776 0 0 1-24.6272-9.9584l-1.3312-0.9472-1.5104 1.28c-28.6208 22.912-55.8848 15.0528-71.04-22.6304l-1.6896-4.48a16.2816 16.2816 0 0 1 30.72-10.9056l2.176 5.888c5.6576 14.1312 9.984 16.2048 20.0448 6.8608l4.0448-4.0448 4.6592-5.0944a16.3072 16.3072 0 0 1 23.04-1.3312l1.8432 1.9712c2.8672 3.584 11.8528 10.2912 17.9456 11.0848 7.5264 1.024 15.232-7.8848 21.0688-41.0624a16.3072 16.3072 0 0 1 16.4608-13.4656z" fill="#24A7DA" p-id="2573"></path></svg>