<?xml version="1.0" encoding="UTF-8" standalone="no"?>
<!-- Created with Inkscape (http://www.inkscape.org/) -->

<svg
   width="36.34536mm"
   height="26.712582mm"
   viewBox="0 0 36.345359 26.712583"
   version="1.1"
   id="svg1"
   inkscape:version="1.3.2 (091e20e, 2023-11-25, custom)"
   sodipodi:docname="xbox-P3.svg"
   xmlns:inkscape="http://www.inkscape.org/namespaces/inkscape"
   xmlns:sodipodi="http://sodipodi.sourceforge.net/DTD/sodipodi-0.dtd"
   xmlns="http://www.w3.org/2000/svg"
   xmlns:svg="http://www.w3.org/2000/svg">
  <sodipodi:namedview
     id="namedview1"
     pagecolor="#53ff98"
     bordercolor="#000000"
     borderopacity="0.25"
     inkscape:showpageshadow="2"
     inkscape:pageopacity="0.0"
     inkscape:pagecheckerboard="0"
     inkscape:deskcolor="#d1d1d1"
     inkscape:document-units="mm"
     inkscape:zoom="3.9910213"
     inkscape:cx="60.886671"
     inkscape:cy="95.714849"
     inkscape:window-width="2560"
     inkscape:window-height="1344"
     inkscape:window-x="-9"
     inkscape:window-y="-9"
     inkscape:window-maximized="1"
     inkscape:current-layer="layer1" />
  <defs
     id="defs1" />
  <g
     inkscape:label="Button Prompt P3"
     id="layer1"
     transform="translate(-184.41458,-74.083333)">
    <g
       id="path18"
       style="display:none"
       inkscape:label="Style - Outline (White)"
       transform="matrix(-1,0,0,1,343.76588,8.7550943)">
      <path
         id="path19"
         style="color:#000000;display:inline;fill:#ffffff;stroke-linecap:round;stroke-linejoin:round;-inkscape-stroke:none"
         d="m 159.3513,66.427397 h -22.60666 c -7.0015,0 -12.63851,5.466047 -12.63851,12.256099 0,6.790053 5.63701,12.257133 12.63851,12.257133 h 22.60666 z"
         sodipodi:nodetypes="cssscc"
         inkscape:label="Color" />
      <path
         id="path20"
         style="color:#000000;display:inline;fill:#000000;stroke-linecap:round;stroke-linejoin:round;-inkscape-stroke:none"
         d="m 159.3513,65.328239 h -22.60718 c -7.57401,0 -13.73818,5.956415 -13.73818,13.355257 0,7.398843 6.16411,13.357325 13.73818,13.357325 h 22.60718 v -2.2009 h -22.60718 c -6.4289,0 -11.53728,-4.975177 -11.53728,-11.156425 0,-6.181248 5.10833,-11.155908 11.53728,-11.155908 h 22.60718 z"
         sodipodi:nodetypes="csssccssscc"
         inkscape:label="Outline" />
      <path
         d="m 199.43416,81.097448 q 2.457,0 3.58566,0.981064 1.13734,0.981064 1.13734,2.786916 0,0.816107 -0.26046,1.554075 -0.26046,0.729287 -0.85084,1.293616 -0.58169,0.555645 -1.53671,0.885565 -0.95502,0.32123 -2.34413,0.32123 h -1.44989 v 4.87059 h -1.77981 V 81.097448 Z m -0.13891,1.493301 h -1.58012 v 4.827182 h 1.25888 q 1.10261,0 1.84927,-0.243095 0.74665,-0.251778 1.12865,-0.798743 0.38201,-0.546965 0.38201,-1.441209 0,-1.180749 -0.73797,-1.762442 -0.73797,-0.581693 -2.30072,-0.581693 z m 13.83618,1.432527 q 0,0.859516 -0.3386,1.493301 -0.33859,0.625103 -0.93765,1.024474 -0.59906,0.399371 -1.38912,0.564329 v 0.06077 q 1.51067,0.191003 2.27468,0.9637 0.7727,0.7727 0.7727,2.04027 0,1.10261 -0.52092,1.96212 -0.52092,0.85952 -1.60617,1.34571 -1.07656,0.48619 -2.76955,0.48619 -1.01579,0 -1.88399,-0.16496 -0.8682,-0.16495 -1.64958,-0.5296 v -1.5888 q 0.79006,0.39937 1.71035,0.6251 0.92029,0.21705 1.77113,0.21705 1.65826,0 2.37886,-0.64246 0.72929,-0.64247 0.72929,-1.77113 0,-0.74665 -0.39069,-1.21548 -0.39069,-0.4775 -1.16339,-0.70324 -0.76401,-0.225728 -1.91003,-0.225728 h -1.18943 v -1.441209 h 1.20679 q 1.06789,0 1.75376,-0.277823 0.69456,-0.286506 1.03316,-0.798743 0.3386,-0.512237 0.3386,-1.198113 0,-0.894245 -0.59038,-1.380436 -0.58169,-0.494873 -1.64958,-0.494873 -0.65983,0 -1.20679,0.147594 -0.53828,0.138912 -1.00711,0.373325 -0.46015,0.234414 -0.89425,0.529601 l -0.85951,-1.206795 q 0.70324,-0.538283 1.70167,-0.920291 1.00711,-0.382007 2.30072,-0.382007 1.95345,0 2.96924,0.859517 1.01579,0.859516 1.01579,2.248633 z"
         id="text5"
         style="font-weight:500;font-size:17.7807px;line-height:0;font-family:'open sans';-inkscape-font-specification:'open sans Medium';letter-spacing:-0.740864px;word-spacing:0px;display:inline;fill:#000000;stroke-width:6.38146;stroke-linecap:round;stroke-linejoin:round"
         aria-label="P3"
         inkscape:label="Symbol P3"
         transform="matrix(-1,0,0,1,343.76588,-8.7550944)" />
    </g>
    <g
       id="g27"
       style="display:none"
       inkscape:label="Style - Outline (Black)"
       transform="matrix(-1,0,0,1,343.76588,8.7550943)">
      <path
         id="path26"
         style="color:#000000;display:inline;fill:#000000;stroke-linecap:round;stroke-linejoin:round;-inkscape-stroke:none"
         d="m 159.3513,66.427397 h -22.60666 c -7.0015,0 -12.63851,5.466047 -12.63851,12.256099 0,6.790053 5.63701,12.257133 12.63851,12.257133 h 22.60666 z"
         sodipodi:nodetypes="cssscc"
         inkscape:label="Color" />
      <path
         id="path27"
         style="color:#000000;display:inline;fill:#ffffff;stroke-linecap:round;stroke-linejoin:round;-inkscape-stroke:none"
         d="m 159.3513,65.328239 h -22.60718 c -7.57401,0 -13.73818,5.956415 -13.73818,13.355257 0,7.398843 6.16411,13.357325 13.73818,13.357325 h 22.60718 v -2.2009 h -22.60718 c -6.4289,0 -11.53728,-4.975177 -11.53728,-11.156425 0,-6.181248 5.10833,-11.155908 11.53728,-11.155908 h 22.60718 z"
         sodipodi:nodetypes="csssccssscc"
         inkscape:label="Outline" />
      <path
         d="m 199.43416,81.097448 q 2.457,0 3.58566,0.981064 1.13734,0.981064 1.13734,2.786916 0,0.816107 -0.26046,1.554075 -0.26046,0.729287 -0.85084,1.293616 -0.58169,0.555645 -1.53671,0.885565 -0.95502,0.32123 -2.34413,0.32123 h -1.44989 v 4.87059 h -1.77981 V 81.097448 Z m -0.13891,1.493301 h -1.58012 v 4.827182 h 1.25888 q 1.10261,0 1.84927,-0.243095 0.74665,-0.251778 1.12865,-0.798743 0.38201,-0.546965 0.38201,-1.441209 0,-1.180749 -0.73797,-1.762442 -0.73797,-0.581693 -2.30072,-0.581693 z m 13.83618,1.432527 q 0,0.859516 -0.3386,1.493301 -0.33859,0.625103 -0.93765,1.024474 -0.59906,0.399371 -1.38912,0.564329 v 0.06077 q 1.51067,0.191003 2.27468,0.9637 0.7727,0.7727 0.7727,2.04027 0,1.10261 -0.52092,1.96212 -0.52092,0.85952 -1.60617,1.34571 -1.07656,0.48619 -2.76955,0.48619 -1.01579,0 -1.88399,-0.16496 -0.8682,-0.16495 -1.64958,-0.5296 v -1.5888 q 0.79006,0.39937 1.71035,0.6251 0.92029,0.21705 1.77113,0.21705 1.65826,0 2.37886,-0.64246 0.72929,-0.64247 0.72929,-1.77113 0,-0.74665 -0.39069,-1.21548 -0.39069,-0.4775 -1.16339,-0.70324 -0.76401,-0.225728 -1.91003,-0.225728 h -1.18943 v -1.441209 h 1.20679 q 1.06789,0 1.75376,-0.277823 0.69456,-0.286506 1.03316,-0.798743 0.3386,-0.512237 0.3386,-1.198113 0,-0.894245 -0.59038,-1.380436 -0.58169,-0.494873 -1.64958,-0.494873 -0.65983,0 -1.20679,0.147594 -0.53828,0.138912 -1.00711,0.373325 -0.46015,0.234414 -0.89425,0.529601 l -0.85951,-1.206795 q 0.70324,-0.538283 1.70167,-0.920291 1.00711,-0.382007 2.30072,-0.382007 1.95345,0 2.96924,0.859517 1.01579,0.859516 1.01579,2.248633 z"
         id="path4"
         style="font-weight:500;font-size:17.7807px;line-height:0;font-family:'open sans';-inkscape-font-specification:'open sans Medium';letter-spacing:-0.740864px;word-spacing:0px;display:inline;fill:#ffffff;stroke-width:6.38146;stroke-linecap:round;stroke-linejoin:round"
         aria-label="P3"
         inkscape:label="Symbol P3"
         transform="matrix(-1,0,0,1,343.76588,-8.7550944)" />
    </g>
    <g
       id="rect1"
       style="display:inline"
       inkscape:label="Style - Transparent"
       transform="matrix(-1,0,0,1,343.76588,8.7550943)">
      <path
         id="path21"
         style="color:#000000;display:inline;fill:#808080;fill-opacity:0.5;stroke-linecap:round;stroke-linejoin:round;-inkscape-stroke:none;paint-order:stroke fill markers"
         d="m 159.3513,65.328239 h -22.60718 c -7.57401,0 -13.73818,5.956415 -13.73818,13.355257 0,7.398843 6.16411,13.357325 13.73818,13.357325 h 22.60718 v -2.2009 h -22.60718 c -6.4289,0 -11.53728,-4.975177 -11.53728,-11.156425 0,-6.181248 5.10833,-11.155908 11.53728,-11.155908 h 22.60718 z"
         sodipodi:nodetypes="csssccssscc"
         inkscape:label="Outline" />
      <path
         id="path22"
         style="color:#000000;display:inline;fill:#ffffff;stroke-linecap:round;stroke-linejoin:round;-inkscape-stroke:none;paint-order:stroke fill markers"
         d="m 159.3513,66.427397 h -22.60666 c -7.0015,0 -12.63851,5.466054 -12.63851,12.256099 0,6.790047 5.63701,12.257133 12.63851,12.257133 h 22.60666 z"
         sodipodi:nodetypes="cssscc"
         inkscape:label="Color" />
      <path
         d="m 199.43416,81.097448 q 2.457,0 3.58566,0.981064 1.13734,0.981064 1.13734,2.786916 0,0.816107 -0.26046,1.554075 -0.26046,0.729287 -0.85084,1.293616 -0.58169,0.555645 -1.53671,0.885565 -0.95502,0.32123 -2.34413,0.32123 h -1.44989 v 4.87059 h -1.77981 V 81.097448 Z m -0.13891,1.493301 h -1.58012 v 4.827182 h 1.25888 q 1.10261,0 1.84927,-0.243095 0.74665,-0.251778 1.12865,-0.798743 0.38201,-0.546965 0.38201,-1.441209 0,-1.180749 -0.73797,-1.762442 -0.73797,-0.581693 -2.30072,-0.581693 z m 13.83618,1.432527 q 0,0.859516 -0.3386,1.493301 -0.33859,0.625103 -0.93765,1.024474 -0.59906,0.399371 -1.38912,0.564329 v 0.06077 q 1.51067,0.191003 2.27468,0.9637 0.7727,0.7727 0.7727,2.04027 0,1.10261 -0.52092,1.96212 -0.52092,0.85952 -1.60617,1.34571 -1.07656,0.48619 -2.76955,0.48619 -1.01579,0 -1.88399,-0.16496 -0.8682,-0.16495 -1.64958,-0.5296 v -1.5888 q 0.79006,0.39937 1.71035,0.6251 0.92029,0.21705 1.77113,0.21705 1.65826,0 2.37886,-0.64246 0.72929,-0.64247 0.72929,-1.77113 0,-0.74665 -0.39069,-1.21548 -0.39069,-0.4775 -1.16339,-0.70324 -0.76401,-0.225728 -1.91003,-0.225728 h -1.18943 v -1.441209 h 1.20679 q 1.06789,0 1.75376,-0.277823 0.69456,-0.286506 1.03316,-0.798743 0.3386,-0.512237 0.3386,-1.198113 0,-0.894245 -0.59038,-1.380436 -0.58169,-0.494873 -1.64958,-0.494873 -0.65983,0 -1.20679,0.147594 -0.53828,0.138912 -1.00711,0.373325 -0.46015,0.234414 -0.89425,0.529601 l -0.85951,-1.206795 q 0.70324,-0.538283 1.70167,-0.920291 1.00711,-0.382007 2.30072,-0.382007 1.95345,0 2.96924,0.859517 1.01579,0.859516 1.01579,2.248633 z"
         id="path3"
         style="font-weight:500;font-size:17.7807px;line-height:0;font-family:'open sans';-inkscape-font-specification:'open sans Medium';letter-spacing:-0.740864px;word-spacing:0px;fill:#808080;stroke-width:6.38146;stroke-linecap:round;stroke-linejoin:round"
         aria-label="P3"
         inkscape:label="Symbol P3"
         transform="matrix(-1,0,0,1,343.76588,-8.7550944)" />
    </g>
  </g>
</svg>
