<?xml version="1.0" encoding="UTF-8" standalone="no"?>
<!-- Created with Inkscape (http://www.inkscape.org/) -->

<svg
   width="36.34536mm"
   height="26.712582mm"
   viewBox="0 0 36.345359 26.712583"
   version="1.1"
   id="svg1"
   inkscape:version="1.3.2 (091e20e, 2023-11-25, custom)"
   sodipodi:docname="xbox-P4.svg"
   xmlns:inkscape="http://www.inkscape.org/namespaces/inkscape"
   xmlns:sodipodi="http://sodipodi.sourceforge.net/DTD/sodipodi-0.dtd"
   xmlns="http://www.w3.org/2000/svg"
   xmlns:svg="http://www.w3.org/2000/svg">
  <sodipodi:namedview
     id="namedview1"
     pagecolor="#53ff98"
     bordercolor="#000000"
     borderopacity="0.25"
     inkscape:showpageshadow="2"
     inkscape:pageopacity="0.0"
     inkscape:pagecheckerboard="0"
     inkscape:deskcolor="#d1d1d1"
     inkscape:document-units="mm"
     inkscape:zoom="3.9910213"
     inkscape:cx="60.886671"
     inkscape:cy="95.714849"
     inkscape:window-width="2560"
     inkscape:window-height="1344"
     inkscape:window-x="-9"
     inkscape:window-y="-9"
     inkscape:window-maximized="1"
     inkscape:current-layer="layer1" />
  <defs
     id="defs1" />
  <g
     inkscape:label="Button Prompt P4"
     id="layer1"
     transform="translate(-184.41458,-74.083333)">
    <g
       id="path18"
       style="display:none"
       inkscape:label="Style - Outline (White)"
       transform="matrix(-1,0,0,1,343.76588,8.7550943)">
      <path
         id="path19"
         style="color:#000000;display:inline;fill:#ffffff;stroke-linecap:round;stroke-linejoin:round;-inkscape-stroke:none"
         d="m 159.3513,66.427397 h -22.60666 c -7.0015,0 -12.63851,5.466047 -12.63851,12.256099 0,6.790053 5.63701,12.257133 12.63851,12.257133 h 22.60666 z"
         sodipodi:nodetypes="cssscc"
         inkscape:label="Color" />
      <path
         id="path20"
         style="color:#000000;display:inline;fill:#000000;stroke-linecap:round;stroke-linejoin:round;-inkscape-stroke:none"
         d="m 159.3513,65.328239 h -22.60718 c -7.57401,0 -13.73818,5.956415 -13.73818,13.355257 0,7.398843 6.16411,13.357325 13.73818,13.357325 h 22.60718 v -2.2009 h -22.60718 c -6.4289,0 -11.53728,-4.975177 -11.53728,-11.156425 0,-6.181248 5.10833,-11.155908 11.53728,-11.155908 h 22.60718 z"
         sodipodi:nodetypes="csssccssscc"
         inkscape:label="Outline" />
      <path
         d="m 145.31627,72.213371 q -2.51558,0 -3.67114,1.004453 -1.16446,1.004453 -1.16446,2.853358 0,0.835562 0.26667,1.591124 0.26667,0.746673 0.87112,1.324456 0.59556,0.568894 1.57335,0.906674 0.97778,0.328892 2.40002,0.328892 h 1.48445 v 4.986709 h 1.82224 V 72.213371 Z m 0.14222,1.528902 h 1.61779 v 4.942264 h -1.2889 q -1.12889,0 -1.89335,-0.248891 -0.76445,-0.25778 -1.15556,-0.817785 -0.39112,-0.560004 -0.39112,-1.475568 0,-1.208899 0.75557,-1.80446 0.75556,-0.59556 2.35557,-0.59556 z m -15.20605,8.533406 h 1.8489 v 2.933358 h 1.75113 v -2.933358 h 6.09783 v -1.413346 l -6.06228,-8.702296 h -1.78668 v 8.577851 h -1.8489 z m 3.60003,-1.537791 v -3.733365 q 0,-0.444448 -0.009,-0.844452 -0.009,-0.408892 -0.0267,-0.77334 -0.0178,-0.364447 -0.0356,-0.675561 -0.0178,-0.320003 -0.0267,-0.577783 h 0.0711 q 0.16889,0.355559 0.38222,0.737784 0.20445,0.382226 0.43556,0.711117 l 3.60003,5.1556 z"
         id="text6"
         style="font-weight:500;font-size:18.2046px;line-height:0;font-family:'open sans';-inkscape-font-specification:'open sans Medium';letter-spacing:-0.758527px;word-spacing:0px;display:inline;fill:#000000;stroke-width:6.53361;stroke-linecap:round;stroke-linejoin:round"
         aria-label="P4"
         inkscape:label="Symbol P4" />
    </g>
    <g
       id="g27"
       style="display:none"
       inkscape:label="Style - Outline (Black)"
       transform="matrix(-1,0,0,1,343.76588,8.7550943)">
      <path
         id="path26"
         style="color:#000000;display:inline;fill:#000000;stroke-linecap:round;stroke-linejoin:round;-inkscape-stroke:none"
         d="m 159.3513,66.427397 h -22.60666 c -7.0015,0 -12.63851,5.466047 -12.63851,12.256099 0,6.790053 5.63701,12.257133 12.63851,12.257133 h 22.60666 z"
         sodipodi:nodetypes="cssscc"
         inkscape:label="Color" />
      <path
         id="path27"
         style="color:#000000;display:inline;fill:#ffffff;stroke-linecap:round;stroke-linejoin:round;-inkscape-stroke:none"
         d="m 159.3513,65.328239 h -22.60718 c -7.57401,0 -13.73818,5.956415 -13.73818,13.355257 0,7.398843 6.16411,13.357325 13.73818,13.357325 h 22.60718 v -2.2009 h -22.60718 c -6.4289,0 -11.53728,-4.975177 -11.53728,-11.156425 0,-6.181248 5.10833,-11.155908 11.53728,-11.155908 h 22.60718 z"
         sodipodi:nodetypes="csssccssscc"
         inkscape:label="Outline" />
      <path
         d="m 145.31627,72.213371 q -2.51558,0 -3.67114,1.004453 -1.16446,1.004453 -1.16446,2.853358 0,0.835562 0.26667,1.591124 0.26667,0.746673 0.87112,1.324456 0.59556,0.568894 1.57335,0.906674 0.97778,0.328892 2.40002,0.328892 h 1.48445 v 4.986709 h 1.82224 V 72.213371 Z m 0.14222,1.528902 h 1.61779 v 4.942264 h -1.2889 q -1.12889,0 -1.89335,-0.248891 -0.76445,-0.25778 -1.15556,-0.817785 -0.39112,-0.560004 -0.39112,-1.475568 0,-1.208899 0.75557,-1.80446 0.75556,-0.59556 2.35557,-0.59556 z m -15.20605,8.533406 h 1.8489 v 2.933358 h 1.75113 v -2.933358 h 6.09783 v -1.413346 l -6.06228,-8.702296 h -1.78668 v 8.577851 h -1.8489 z m 3.60003,-1.537791 v -3.733365 q 0,-0.444448 -0.009,-0.844452 -0.009,-0.408892 -0.0267,-0.77334 -0.0178,-0.364447 -0.0356,-0.675561 -0.0178,-0.320003 -0.0267,-0.577783 h 0.0711 q 0.16889,0.355559 0.38222,0.737784 0.20445,0.382226 0.43556,0.711117 l 3.60003,5.1556 z"
         id="path5"
         style="font-weight:500;font-size:18.2046px;line-height:0;font-family:'open sans';-inkscape-font-specification:'open sans Medium';letter-spacing:-0.758527px;word-spacing:0px;display:inline;fill:#ffffff;stroke-width:6.53361;stroke-linecap:round;stroke-linejoin:round"
         aria-label="P4"
         inkscape:label="Symbol P4" />
    </g>
    <g
       id="rect1"
       style="display:inline"
       inkscape:label="Style - Transparent"
       transform="matrix(-1,0,0,1,343.76588,8.7550943)">
      <path
         id="path21"
         style="color:#000000;display:inline;fill:#808080;fill-opacity:0.5;stroke-linecap:round;stroke-linejoin:round;-inkscape-stroke:none;paint-order:stroke fill markers"
         d="m 159.3513,65.328239 h -22.60718 c -7.57401,0 -13.73818,5.956415 -13.73818,13.355257 0,7.398843 6.16411,13.357325 13.73818,13.357325 h 22.60718 v -2.2009 h -22.60718 c -6.4289,0 -11.53728,-4.975177 -11.53728,-11.156425 0,-6.181248 5.10833,-11.155908 11.53728,-11.155908 h 22.60718 z"
         sodipodi:nodetypes="csssccssscc"
         inkscape:label="Outline" />
      <path
         id="path22"
         style="color:#000000;display:inline;fill:#ffffff;stroke-linecap:round;stroke-linejoin:round;-inkscape-stroke:none;paint-order:stroke fill markers"
         d="m 159.3513,66.427397 h -22.60666 c -7.0015,0 -12.63851,5.466054 -12.63851,12.256099 0,6.790047 5.63701,12.257133 12.63851,12.257133 h 22.60666 z"
         sodipodi:nodetypes="cssscc"
         inkscape:label="Color" />
      <path
         d="m 145.31627,72.213371 q -2.51558,0 -3.67114,1.004453 -1.16446,1.004453 -1.16446,2.853358 0,0.835562 0.26667,1.591124 0.26667,0.746673 0.87112,1.324456 0.59556,0.568894 1.57335,0.906674 0.97778,0.328892 2.40002,0.328892 h 1.48445 v 4.986709 h 1.82224 V 72.213371 Z m 0.14222,1.528902 h 1.61779 v 4.942264 h -1.2889 q -1.12889,0 -1.89335,-0.248891 -0.76445,-0.25778 -1.15556,-0.817785 -0.39112,-0.560004 -0.39112,-1.475568 0,-1.208899 0.75557,-1.80446 0.75556,-0.59556 2.35557,-0.59556 z m -15.20605,8.533406 h 1.8489 v 2.933358 h 1.75113 v -2.933358 h 6.09783 v -1.413346 l -6.06228,-8.702296 h -1.78668 v 8.577851 h -1.8489 z m 3.60003,-1.537791 v -3.733365 q 0,-0.444448 -0.009,-0.844452 -0.009,-0.408892 -0.0267,-0.77334 -0.0178,-0.364447 -0.0356,-0.675561 -0.0178,-0.320003 -0.0267,-0.577783 h 0.0711 q 0.16889,0.355559 0.38222,0.737784 0.20445,0.382226 0.43556,0.711117 l 3.60003,5.1556 z"
         id="path4"
         style="font-weight:500;font-size:18.2046px;line-height:0;font-family:'open sans';-inkscape-font-specification:'open sans Medium';letter-spacing:-0.758527px;word-spacing:0px;fill:#808080;stroke-width:6.53361;stroke-linecap:round;stroke-linejoin:round"
         aria-label="P4"
         inkscape:label="Symbol P4" />
    </g>
  </g>
</svg>
