<?xml version="1.0" encoding="UTF-8" standalone="no"?>
<!-- Created with Inkscape (http://www.inkscape.org/) -->

<svg
   width="51.149792mm"
   height="27.260098mm"
   viewBox="0 0 51.149792 27.260098"
   version="1.1"
   id="svg1"
   inkscape:version="1.3.2 (091e20e, 2023-11-25, custom)"
   sodipodi:docname="xbox-Share.svg"
   xmlns:inkscape="http://www.inkscape.org/namespaces/inkscape"
   xmlns:sodipodi="http://sodipodi.sourceforge.net/DTD/sodipodi-0.dtd"
   xmlns="http://www.w3.org/2000/svg"
   xmlns:svg="http://www.w3.org/2000/svg">
  <sodipodi:namedview
     id="namedview1"
     pagecolor="#1bffc1"
     bordercolor="#000000"
     borderopacity="0.25"
     inkscape:showpageshadow="2"
     inkscape:pageopacity="0.0"
     inkscape:pagecheckerboard="0"
     inkscape:deskcolor="#d1d1d1"
     inkscape:document-units="mm"
     inkscape:zoom="4.0515993"
     inkscape:cx="63.925374"
     inkscape:cy="93.173083"
     inkscape:window-width="2560"
     inkscape:window-height="1351"
     inkscape:window-x="-9"
     inkscape:window-y="-9"
     inkscape:window-maximized="1"
     inkscape:current-layer="layer1" />
  <defs
     id="defs1" />
  <g
     inkscape:label="Button Prompt Share Button"
     id="layer1"
     transform="translate(-44.714582,-85.460413)">
    <g
       id="rect2"
       inkscape:label="Style - Outline (White)"
       transform="translate(1.3125e-6)"
       style="display:none">
      <path
         style="color:#000000;display:inline;fill:#ffffff;stroke-linecap:round;stroke-linejoin:round;-inkscape-stroke:none"
         d="m 58.344631,86.860413 h 23.889694 c 6.775448,0 12.23005,5.454602 12.23005,12.230049 0,6.775448 -5.454602,12.230048 -12.23005,12.230048 H 58.344631 c -6.775447,0 -12.230049,-5.4546 -12.230049,-12.230048 0,-6.775447 5.454602,-12.230049 12.230049,-12.230049 z"
         id="path4"
         inkscape:label="Rectangle Shape" />
      <path
         style="color:#000000;display:inline;fill:#000000;stroke-linecap:round;stroke-linejoin:round;-inkscape-stroke:none"
         d="m 58.34375,85.460937 c -7.526824,0 -13.628906,6.102083 -13.628906,13.628907 0,7.526826 6.102082,13.630856 13.628906,13.630856 h 23.890625 c 7.526824,0 13.630859,-6.10403 13.630859,-13.630856 0,-7.526824 -6.104035,-13.628907 -13.630859,-13.628907 z m 0,2.798829 h 23.890625 c 6.024057,0 10.830078,4.80602 10.830078,10.830078 0,6.024056 -4.806021,10.830076 -10.830078,10.830076 H 58.34375 c -6.024057,0 -10.830078,-4.80602 -10.830078,-10.830076 0,-6.024058 4.806021,-10.830078 10.830078,-10.830078 z"
         id="path5"
         inkscape:label="Outline" />
      <path
         id="path8"
         style="color:#000000;display:inline;fill:#000000;stroke-width:0.855107;-inkscape-stroke:none;paint-order:normal"
         d="m 70.289478,92.454177 -0.10826,0.10871 -3.28544,3.285 1.32964,1.32787 1.12373,-1.12062 v 5.219153 h 1.88067 v -5.219153 l 1.12417,1.12062 1.3292,-1.32787 z m -10.37158,5.89083 v 7.381753 h 20.74315 v -7.381753 h -1.88067 v 5.501073 h -16.9818 v -5.501073 z"
         inkscape:label="Symbol Share" />
    </g>
    <g
       id="g7"
       inkscape:label="Style - Outline (Black)"
       transform="translate(1.3125e-6)"
       style="display:none">
      <path
         style="color:#000000;display:inline;fill:#000000;stroke-linecap:round;stroke-linejoin:round;-inkscape-stroke:none"
         d="m 58.344631,86.860413 h 23.889694 c 6.775448,0 12.23005,5.454602 12.23005,12.230049 0,6.775448 -5.454602,12.230048 -12.23005,12.230048 H 58.344631 c -6.775447,0 -12.230049,-5.4546 -12.230049,-12.230048 0,-6.775447 5.454602,-12.230049 12.230049,-12.230049 z"
         id="path6"
         inkscape:label="Rectangle Shape" />
      <path
         style="color:#000000;display:inline;fill:#ffffff;stroke-linecap:round;stroke-linejoin:round;-inkscape-stroke:none"
         d="m 58.34375,85.460937 c -7.526824,0 -13.628906,6.102083 -13.628906,13.628907 0,7.526826 6.102082,13.630856 13.628906,13.630856 h 23.890625 c 7.526824,0 13.630859,-6.10403 13.630859,-13.630856 0,-7.526824 -6.104035,-13.628907 -13.630859,-13.628907 z m 0,2.798829 h 23.890625 c 6.024057,0 10.830078,4.80602 10.830078,10.830078 0,6.024056 -4.806021,10.830076 -10.830078,10.830076 H 58.34375 c -6.024057,0 -10.830078,-4.80602 -10.830078,-10.830076 0,-6.024058 4.806021,-10.830078 10.830078,-10.830078 z"
         id="path7"
         inkscape:label="Outline" />
      <path
         id="path9"
         style="color:#000000;display:inline;fill:#ffffff;stroke-width:0.855107;-inkscape-stroke:none;paint-order:normal"
         d="m 70.289478,92.454177 -0.10826,0.10871 -3.28544,3.285 1.32964,1.32787 1.12373,-1.12062 v 5.219153 h 1.88067 v -5.219153 l 1.12417,1.12062 1.3292,-1.32787 z m -10.37158,5.89083 v 7.381753 h 20.74315 v -7.381753 h -1.88067 v 5.501073 h -16.9818 v -5.501073 z"
         inkscape:label="Symbol Share" />
    </g>
    <g
       id="rect1"
       inkscape:label="Style - Transparent"
       style="display:inline">
      <path
         style="color:#000000;display:inline;fill:#808080;fill-opacity:0.501961;stroke-linecap:round;stroke-linejoin:round;-inkscape-stroke:none;paint-order:stroke fill markers"
         d="m 58.34375,85.460937 c -7.526824,0 -13.628906,6.102083 -13.628906,13.628907 0,7.526826 6.102082,13.630856 13.628906,13.630856 h 23.890625 c 7.526824,0 13.630859,-6.10403 13.630859,-13.630856 0,-7.526824 -6.104035,-13.628907 -13.630859,-13.628907 z m 0,2.798829 h 23.890625 c 6.024057,0 10.830078,4.80602 10.830078,10.830078 0,6.024056 -4.806021,10.830076 -10.830078,10.830076 H 58.34375 c -6.024057,0 -10.830078,-4.80602 -10.830078,-10.830076 0,-6.024058 4.806021,-10.830078 10.830078,-10.830078 z"
         id="path2"
         inkscape:label="Outline" />
      <path
         style="color:#000000;display:inline;fill:#ffffff;stroke-linecap:round;stroke-linejoin:round;-inkscape-stroke:none;paint-order:stroke fill markers"
         d="m 58.344631,86.860413 h 23.889694 c 6.775448,0 12.23005,5.454602 12.23005,12.230049 0,6.775448 -5.454602,12.230048 -12.23005,12.230048 H 58.344631 c -6.775447,0 -12.230049,-5.4546 -12.230049,-12.230048 0,-6.775447 5.454602,-12.230049 12.230049,-12.230049 z"
         id="path3"
         inkscape:label="Rectangle Shape" />
      <path
         id="path56"
         style="color:#000000;display:inline;fill:#808080;stroke-width:0.855107;-inkscape-stroke:none;paint-order:normal"
         d="m 70.289478,92.454177 -0.10826,0.10871 -3.28544,3.285 1.32964,1.32787 1.12373,-1.12062 v 5.219153 h 1.88067 v -5.219153 l 1.12417,1.12062 1.3292,-1.32787 z m -10.37158,5.89083 v 7.381753 h 20.74315 v -7.381753 h -1.88067 v 5.501073 h -16.9818 v -5.501073 z"
         inkscape:label="Symbol Share"
         transform="translate(1.3125e-6)" />
    </g>
  </g>
</svg>
