<?xml version="1.0" encoding="UTF-8" standalone="no"?>
<!-- Created with Inkscape (http://www.inkscape.org/) -->

<svg
   width="45.547035mm"
   height="45.547024mm"
   viewBox="0 0 45.547035 45.547024"
   version="1.1"
   id="svg1"
   sodipodi:docname="xbox-Guide.svg"
   inkscape:version="1.3.2 (091e20e, 2023-11-25, custom)"
   xmlns:inkscape="http://www.inkscape.org/namespaces/inkscape"
   xmlns:sodipodi="http://sodipodi.sourceforge.net/DTD/sodipodi-0.dtd"
   xmlns="http://www.w3.org/2000/svg"
   xmlns:svg="http://www.w3.org/2000/svg"
   xmlns:rdf="http://www.w3.org/1999/02/22-rdf-syntax-ns#"
   xmlns:cc="http://creativecommons.org/ns#">
  <sodipodi:namedview
     id="namedview1"
     pagecolor="#3e8d2e"
     bordercolor="#000000"
     borderopacity="0.25"
     inkscape:showpageshadow="true"
     inkscape:pageopacity="0.0"
     inkscape:pagecheckerboard="false"
     inkscape:deskcolor="#d1d1d1"
     inkscape:document-units="mm"
     inkscape:zoom="2.335167"
     inkscape:cx="-5.3529361"
     inkscape:cy="188.20923"
     inkscape:window-width="2560"
     inkscape:window-height="1351"
     inkscape:window-x="-9"
     inkscape:window-y="-9"
     inkscape:window-maximized="1"
     inkscape:current-layer="layer1"
     labelstyle="default"
     showborder="true" />
  <defs
     id="defs1">
    <rect
       x="-329.58707"
       y="426.24316"
       width="115.7824"
       height="107.24387"
       id="rect2" />
    <rect
       x="-486.35437"
       y="484.30515"
       width="87.776039"
       height="93.582237"
       id="rect1" />
  </defs>
  <g
     inkscape:label="Button Prompt Xbox Guide"
     id="layer1"
     transform="matrix(1.0003895,0,0,1.0003895,139.93339,-115.28708)"
     style="display:inline">
    <g
       id="path1"
       inkscape:label="Style - Outline (White)"
       style="display:none">
      <path
         style="color:#000000;display:inline;fill:#ffffff;fill-opacity:1;stroke-linecap:round;stroke-linejoin:round;-inkscape-stroke:none"
         d="m -95.899378,138.00743 a 21.214285,21.214285 0 0 1 -21.214282,21.21429 21.214285,21.214285 0 0 1 -21.21429,-21.21429 21.214285,21.214285 0 0 1 21.21429,-21.21428 21.214285,21.214285 0 0 1 21.214282,21.21428 z"
         id="path3"
         inkscape:label="Circle" />
      <path
         style="color:#000000;display:inline;fill:#000000;fill-opacity:1;stroke-linecap:round;stroke-linejoin:round;-inkscape-stroke:none"
         d="m -117.11328,115.24219 c -12.554,0 -22.76563,10.21163 -22.76563,22.76562 0,12.554 10.21163,22.76367 22.76563,22.76367 12.55399,0 22.763671,-10.20967 22.763671,-22.76367 0,-12.55399 -10.209681,-22.76562 -22.763671,-22.76562 z m 0,3.10156 c 10.87863,0 19.664061,8.78543 19.664061,19.66406 0,10.87864 -8.785431,19.66406 -19.664061,19.66406 -10.87863,0 -19.66406,-8.78542 -19.66406,-19.66406 0,-10.87863 8.78543,-19.66406 19.66406,-19.66406 z"
         id="path4"
         inkscape:label="Outline" />
      <path
         id="path7"
         style="display:inline;fill:#000000;fill-opacity:1;fill-rule:nonzero;stroke:none;stroke-width:0.227192"
         d="m -117.11549,118.88005 c -3.85293,0 -7.06733,1.05662 -10.00796,2.81745 l -0.0269,0.0967 0.0889,0.035 c 3.28609,-0.84519 8.49419,1.89281 9.90249,2.69397 l 0.0432,0.018 0.0364,-0.018 c 0.54027,-0.31691 6.17314,-3.51195 9.87554,-2.71959 l 0.0973,-0.0267 -0.0352,-0.0967 c -2.93179,-1.74319 -6.11214,-2.79994 -9.97397,-2.79994 z m 12.87053,5.38564 c -0.93774,0.002 -3.14583,0.68708 -7.60935,5.11775 l -0.0259,0.0617 0.0259,0.0525 c 3.85293,4.58696 11.31122,15.52187 9.84976,20.02958 l 0.02,0.0967 0.10549,-0.0267 c 2.453482,-3.22232 3.915987,-7.22786 3.915987,-11.59472 0,-5.31769 -2.179487,-10.13385 -5.695917,-13.60268 0.006,0.004 -0.15842,-0.13445 -0.58469,-0.13386 z m -25.74342,0.002 c -0.42612,-0.002 -0.58948,0.13704 -0.58116,0.13164 -3.5164,3.46885 -5.6959,8.28501 -5.6959,13.6027 0,4.36685 1.45364,8.37241 3.91599,11.59472 l 0.0973,0.0267 0.0256,-0.0967 c -1.46145,-4.5077 6.00623,-15.43329 9.85914,-20.02026 l 0.026,-0.0536 -0.0352,-0.0618 c -4.46359,-4.4306 -6.67425,-5.11941 -7.61175,-5.1235 z m 12.87289,9.94897 -0.0622,0.035 c -5.73072,4.34926 -15.53556,15.11696 -12.55064,18.15437 3.37465,2.9406 7.78548,4.7276 12.61275,4.7276 4.82723,0 9.23877,-1.787 12.60452,-4.7276 2.99382,-3.03741 -6.81171,-13.80511 -12.54243,-18.15435 z"
         inkscape:label="Symbol Xbox Guide Button" />
    </g>
    <g
       id="g6"
       inkscape:label="Style - Outline (Black)"
       style="display:none">
      <path
         style="color:#000000;display:inline;fill:#000000;fill-opacity:1;stroke-linecap:round;stroke-linejoin:round;-inkscape-stroke:none"
         d="m -95.899378,138.00743 a 21.214285,21.214285 0 0 1 -21.214282,21.21429 21.214285,21.214285 0 0 1 -21.21429,-21.21429 21.214285,21.214285 0 0 1 21.21429,-21.21428 21.214285,21.214285 0 0 1 21.214282,21.21428 z"
         id="path5"
         inkscape:label="Circle" />
      <path
         style="color:#000000;display:inline;fill:#ffffff;fill-opacity:1;stroke-linecap:round;stroke-linejoin:round;-inkscape-stroke:none"
         d="m -117.11328,115.24219 c -12.554,0 -22.76563,10.21163 -22.76563,22.76562 0,12.554 10.21163,22.76367 22.76563,22.76367 12.55399,0 22.763671,-10.20967 22.763671,-22.76367 0,-12.55399 -10.209681,-22.76562 -22.763671,-22.76562 z m 0,3.10156 c 10.87863,0 19.664061,8.78543 19.664061,19.66406 0,10.87864 -8.785431,19.66406 -19.664061,19.66406 -10.87863,0 -19.66406,-8.78542 -19.66406,-19.66406 0,-10.87863 8.78543,-19.66406 19.66406,-19.66406 z"
         id="path6"
         inkscape:label="Outline" />
      <path
         id="path11"
         style="display:inline;fill:#ffffff;fill-opacity:1;fill-rule:nonzero;stroke:none;stroke-width:0.227192"
         d="m -117.11549,118.88005 c -3.85293,0 -7.06733,1.05662 -10.00796,2.81745 l -0.0269,0.0967 0.0889,0.035 c 3.28609,-0.84519 8.49419,1.89281 9.90249,2.69397 l 0.0432,0.018 0.0364,-0.018 c 0.54027,-0.31691 6.17314,-3.51195 9.87554,-2.71959 l 0.0973,-0.0267 -0.0352,-0.0967 c -2.93179,-1.74319 -6.11214,-2.79994 -9.97397,-2.79994 z m 12.87053,5.38564 c -0.93774,0.002 -3.14583,0.68708 -7.60935,5.11775 l -0.0259,0.0617 0.0259,0.0525 c 3.85293,4.58696 11.31122,15.52187 9.84976,20.02958 l 0.02,0.0967 0.10549,-0.0267 c 2.453482,-3.22232 3.915987,-7.22786 3.915987,-11.59472 0,-5.31769 -2.179487,-10.13385 -5.695917,-13.60268 0.006,0.004 -0.15842,-0.13445 -0.58469,-0.13386 z m -25.74342,0.002 c -0.42612,-0.002 -0.58948,0.13704 -0.58116,0.13164 -3.5164,3.46885 -5.6959,8.28501 -5.6959,13.6027 0,4.36685 1.45364,8.37241 3.91599,11.59472 l 0.0973,0.0267 0.0256,-0.0967 c -1.46145,-4.5077 6.00623,-15.43329 9.85914,-20.02026 l 0.026,-0.0536 -0.0352,-0.0618 c -4.46359,-4.4306 -6.67425,-5.11941 -7.61175,-5.1235 z m 12.87289,9.94897 -0.0622,0.035 c -5.73072,4.34926 -15.53556,15.11696 -12.55064,18.15437 3.37465,2.9406 7.78548,4.7276 12.61275,4.7276 4.82723,0 9.23877,-1.787 12.60452,-4.7276 2.99382,-3.03741 -6.81171,-13.80511 -12.54243,-18.15435 z"
         inkscape:label="Symbol Xbox Guide Button"
         transform="translate(-1.0412611e-6)" />
    </g>
    <g
       id="g8"
       inkscape:label="Style - Transparent"
       style="display:inline;fill:#ffffff;fill-opacity:1">
      <path
         style="color:#000000;display:inline;fill:#808080;fill-opacity:0.501031;stroke-linecap:round;stroke-linejoin:round;-inkscape-stroke:none;paint-order:stroke markers fill"
         d="m -117.11328,115.24219 c -12.554,-10e-6 -22.76562,10.21163 -22.76563,22.76562 0,12.554 10.21163,22.76368 22.76563,22.76367 12.554,0 22.763674,-10.20967 22.763671,-22.76367 -3e-6,-12.55399 -10.209681,-22.76562 -22.763671,-22.76562 z m 0,3.10156 c 10.87863,0 19.664059,8.78543 19.664061,19.66406 3e-6,10.87864 -8.785431,19.66406 -19.664061,19.66406 -10.87864,10e-6 -19.66407,-8.78542 -19.66406,-19.66406 0,-10.87863 8.78543,-19.66406 19.66406,-19.66406 z"
         id="path9"
         inkscape:label="Outline" />
      <path
         style="color:#000000;display:inline;stroke-linecap:round;stroke-linejoin:round;-inkscape-stroke:none;paint-order:stroke markers fill"
         d="m -95.899378,138.00743 a 21.214285,21.214285 0 0 1 -21.214282,21.21429 21.214285,21.214285 0 0 1 -21.21429,-21.21429 21.214285,21.214285 0 0 1 21.21429,-21.21428 21.214285,21.214285 0 0 1 21.214282,21.21428 z"
         id="path10"
         inkscape:label="Circle" />
      <path
         id="path8160-9-5-4"
         style="display:inline;fill:#808080;fill-opacity:1;fill-rule:nonzero;stroke:none;stroke-width:0.248225"
         d="m -117.11445,117.11 c -4.20966,0 -7.72161,1.15444 -10.93448,3.07828 l -0.0294,0.10562 0.0973,0.0382 c 3.5903,-0.92345 9.28057,2.06804 10.81925,2.94339 l 0.0474,0.019 0.0397,-0.019 c 0.59031,-0.34629 6.74468,-3.83712 10.78981,-2.97139 l 0.10626,-0.0293 -0.0384,-0.10561 c -3.2032,-1.90461 -6.678,-3.05919 -10.89734,-3.05919 z m 14.06208,5.88423 c -1.02456,0.002 -3.43706,0.75068 -8.31384,5.59155 l -0.0282,0.0675 0.0282,0.0573 c 4.20966,5.01161 12.358398,16.95887 10.76165,21.88391 l 0.0208,0.10562 0.11522,-0.0292 c 2.680618,-3.52063 4.278528,-7.89703 4.278528,-12.66816 0,-5.81001 -2.38128,-11.07205 -6.223198,-14.86202 0.006,0.006 -0.17312,-0.14705 -0.63884,-0.14633 z m -28.12673,0.002 c -0.46558,-0.002 -0.64408,0.14984 -0.635,0.14381 -3.84191,3.78997 -6.22322,9.05201 -6.22322,14.86202 0,4.77113 1.58823,9.14752 4.27854,12.66816 l 0.10626,0.0293 0.0282,-0.10562 c -1.59676,-4.92502 6.56226,-16.86209 10.77189,-21.87371 l 0.0282,-0.0585 -0.0384,-0.0675 c -4.87683,-4.84079 -7.29217,-5.59339 -8.31645,-5.59783 z m 14.06465,10.87005 -0.0679,0.0382 c -6.26126,4.75191 -16.97386,16.5165 -13.71258,19.83513 3.68707,3.21282 8.50627,5.16525 13.78044,5.16525 5.27417,0 10.09409,-1.95243 13.77147,-5.16525 3.27096,-3.31863 -7.44236,-15.08322 -13.70363,-19.83511 z"
         inkscape:label="Symbol Xbox Guide Button" />
    </g>
  </g>
  <metadata
     id="metadata8">
    <rdf:RDF>
      <cc:Work
         rdf:about="">
        <cc:license
           rdf:resource="https://opensource.org/license/mit" />
      </cc:Work>
    </rdf:RDF>
  </metadata>
</svg>
