<?xml version="1.0" encoding="UTF-8" standalone="no"?>
<!-- Created with Inkscape (http://www.inkscape.org/) -->

<svg
   width="36.34536mm"
   height="26.712582mm"
   viewBox="0 0 36.345359 26.712584"
   version="1.1"
   id="svg1"
   inkscape:version="1.3.2 (091e20e, 2023-11-25, custom)"
   sodipodi:docname="shared-R4.svg"
   xmlns:inkscape="http://www.inkscape.org/namespaces/inkscape"
   xmlns:sodipodi="http://sodipodi.sourceforge.net/DTD/sodipodi-0.dtd"
   xmlns="http://www.w3.org/2000/svg"
   xmlns:svg="http://www.w3.org/2000/svg">
  <sodipodi:namedview
     id="namedview1"
     pagecolor="#53ff98"
     bordercolor="#000000"
     borderopacity="0.25"
     inkscape:showpageshadow="2"
     inkscape:pageopacity="0.0"
     inkscape:pagecheckerboard="0"
     inkscape:deskcolor="#d1d1d1"
     inkscape:document-units="mm"
     inkscape:zoom="3.9910213"
     inkscape:cx="61.011952"
     inkscape:cy="95.714849"
     inkscape:window-width="2560"
     inkscape:window-height="1344"
     inkscape:window-x="-9"
     inkscape:window-y="-9"
     inkscape:window-maximized="1"
     inkscape:current-layer="svg1" />
  <defs
     id="defs1" />
  <g
     inkscape:label="Button Prompt R4"
     id="layer1"
     transform="translate(-184.41458,-74.083333)">
    <g
       id="path18"
       style="display:none"
       inkscape:label="Style - Outline (White)"
       transform="matrix(-1,0,0,1,343.76588,8.7550943)">
      <path
         id="path19"
         style="color:#000000;display:inline;fill:#ffffff;stroke-linecap:round;stroke-linejoin:round;-inkscape-stroke:none"
         d="m 159.3513,66.427397 h -22.60666 c -7.0015,0 -12.63851,5.466047 -12.63851,12.256099 0,6.790053 5.63701,12.257133 12.63851,12.257133 h 22.60666 z"
         sodipodi:nodetypes="cssscc"
         inkscape:label="Color" />
      <path
         id="path20"
         style="color:#000000;display:inline;fill:#000000;stroke-linecap:round;stroke-linejoin:round;-inkscape-stroke:none"
         d="m 159.3513,65.328239 h -22.60718 c -7.57401,0 -13.73818,5.956415 -13.73818,13.355257 0,7.398843 6.16411,13.357325 13.73818,13.357325 h 22.60718 v -2.2009 h -22.60718 c -6.4289,0 -11.53728,-4.975177 -11.53728,-11.156425 0,-6.181248 5.10833,-11.155908 11.53728,-11.155908 h 22.60718 z"
         sodipodi:nodetypes="csssccssscc"
         inkscape:label="Outline" />
      <path
         d="m 197.90442,80.968464 q 1.64446,0 2.71113,0.408892 1.07557,0.400004 1.60002,1.226677 0.52445,0.817787 0.52445,2.080017 0,0.99557 -0.36444,1.68002 -0.36446,0.68444 -0.96002,1.12 -0.58666,0.43557 -1.26223,0.68445 l 3.63558,5.79561 h -2.0889 l -3.16447,-5.3156 h -2.39114 v 5.3156 h -1.82223 V 80.968464 Z m -0.11556,1.54668 h -1.64446 v 4.613376 h 1.76891 q 1.53779,0 2.24891,-0.59556 0.71112,-0.60446 0.71112,-1.7778 0,-1.21779 -0.75556,-1.724457 -0.75557,-0.515559 -2.32892,-0.515559 z m 15.72458,8.515626 h -1.8489 v 2.93336 h -1.75113 v -2.93336 h -6.09783 v -1.41334 l 6.06227,-8.702299 h 1.78669 v 8.577849 h 1.8489 z m -3.60003,-1.53779 v -3.73336 q 0,-0.44445 0.009,-0.84446 0.009,-0.40889 0.0266,-0.77334 0.0178,-0.36444 0.0355,-0.67556 0.0178,-0.320002 0.0266,-0.577779 h -0.0711 q -0.16889,0.355559 -0.38223,0.737789 -0.20444,0.38222 -0.43556,0.71111 l -3.60003,5.1556 z"
         id="path1"
         style="font-weight:500;font-size:32.5227px;line-height:0;font-family:'open sans';-inkscape-font-specification:'open sans Medium';letter-spacing:-1.01634px;word-spacing:0px;display:inline;fill:#000000;stroke-width:2.86687;stroke-linecap:round;stroke-linejoin:round;stroke-opacity:0.501961;paint-order:stroke fill markers"
         inkscape:label="Symbol R4"
         aria-label="R4"
         transform="matrix(-1,0,0,1,343.76588,-8.7550946)" />
    </g>
    <g
       id="g27"
       style="display:none"
       inkscape:label="Style - Outline (Black)"
       transform="matrix(-1,0,0,1,343.76588,8.7550943)">
      <path
         id="path26"
         style="color:#000000;display:inline;fill:#000000;stroke-linecap:round;stroke-linejoin:round;-inkscape-stroke:none"
         d="m 159.3513,66.427397 h -22.60666 c -7.0015,0 -12.63851,5.466047 -12.63851,12.256099 0,6.790053 5.63701,12.257133 12.63851,12.257133 h 22.60666 z"
         sodipodi:nodetypes="cssscc"
         inkscape:label="Color" />
      <path
         id="path27"
         style="color:#000000;display:inline;fill:#ffffff;stroke-linecap:round;stroke-linejoin:round;-inkscape-stroke:none"
         d="m 159.3513,65.328239 h -22.60718 c -7.57401,0 -13.73818,5.956415 -13.73818,13.355257 0,7.398843 6.16411,13.357325 13.73818,13.357325 h 22.60718 v -2.2009 h -22.60718 c -6.4289,0 -11.53728,-4.975177 -11.53728,-11.156425 0,-6.181248 5.10833,-11.155908 11.53728,-11.155908 h 22.60718 z"
         sodipodi:nodetypes="csssccssscc"
         inkscape:label="Outline" />
      <path
         d="m 197.90442,80.968464 q 1.64446,0 2.71113,0.408892 1.07557,0.400004 1.60002,1.226677 0.52445,0.817787 0.52445,2.080017 0,0.99557 -0.36444,1.68002 -0.36446,0.68444 -0.96002,1.12 -0.58666,0.43557 -1.26223,0.68445 l 3.63558,5.79561 h -2.0889 l -3.16447,-5.3156 h -2.39114 v 5.3156 h -1.82223 V 80.968464 Z m -0.11556,1.54668 h -1.64446 v 4.613376 h 1.76891 q 1.53779,0 2.24891,-0.59556 0.71112,-0.60446 0.71112,-1.7778 0,-1.21779 -0.75556,-1.724457 -0.75557,-0.515559 -2.32892,-0.515559 z m 15.72458,8.515626 h -1.8489 v 2.93336 h -1.75113 v -2.93336 h -6.09783 v -1.41334 l 6.06227,-8.702299 h 1.78669 v 8.577849 h 1.8489 z m -3.60003,-1.53779 v -3.73336 q 0,-0.44445 0.009,-0.84446 0.009,-0.40889 0.0266,-0.77334 0.0178,-0.36444 0.0355,-0.67556 0.0178,-0.320002 0.0266,-0.577779 h -0.0711 q -0.16889,0.355559 -0.38223,0.737789 -0.20444,0.38222 -0.43556,0.71111 l -3.60003,5.1556 z"
         id="path3"
         style="font-weight:500;font-size:32.5227px;line-height:0;font-family:'open sans';-inkscape-font-specification:'open sans Medium';letter-spacing:-1.01634px;word-spacing:0px;display:inline;fill:#ffffff;stroke-width:2.86687;stroke-linecap:round;stroke-linejoin:round;stroke-opacity:0.501961;paint-order:stroke fill markers"
         inkscape:label="Symbol R4"
         aria-label="R4"
         transform="matrix(-1,0,0,1,343.76588,-8.7550946)" />
    </g>
    <g
       id="rect1"
       style="display:inline"
       inkscape:label="Style - Transparent"
       transform="matrix(-1,0,0,1,343.76588,8.7550943)">
      <path
         id="path21"
         style="color:#000000;display:inline;fill:#808080;fill-opacity:0.5;stroke-linecap:round;stroke-linejoin:round;-inkscape-stroke:none;paint-order:stroke fill markers"
         d="m 159.3513,65.328239 h -22.60718 c -7.57401,0 -13.73818,5.956415 -13.73818,13.355257 0,7.398843 6.16411,13.357325 13.73818,13.357325 h 22.60718 v -2.2009 h -22.60718 c -6.4289,0 -11.53728,-4.975177 -11.53728,-11.156425 0,-6.181248 5.10833,-11.155908 11.53728,-11.155908 h 22.60718 z"
         sodipodi:nodetypes="csssccssscc"
         inkscape:label="Outline" />
      <path
         id="path22"
         style="color:#000000;display:inline;fill:#ffffff;stroke-linecap:round;stroke-linejoin:round;-inkscape-stroke:none;paint-order:stroke fill markers"
         d="m 159.3513,66.427397 h -22.60666 c -7.0015,0 -12.63851,5.466054 -12.63851,12.256099 0,6.790047 5.63701,12.257133 12.63851,12.257133 h 22.60666 z"
         sodipodi:nodetypes="cssscc"
         inkscape:label="Color" />
      <path
         d="m 197.90442,80.968464 q 1.64446,0 2.71113,0.408892 1.07557,0.400004 1.60002,1.226677 0.52445,0.817787 0.52445,2.080017 0,0.99557 -0.36444,1.68002 -0.36446,0.68444 -0.96002,1.12 -0.58666,0.43557 -1.26223,0.68445 l 3.63558,5.79561 h -2.0889 l -3.16447,-5.3156 h -2.39114 v 5.3156 h -1.82223 V 80.968464 Z m -0.11556,1.54668 h -1.64446 v 4.613376 h 1.76891 q 1.53779,0 2.24891,-0.59556 0.71112,-0.60446 0.71112,-1.7778 0,-1.21779 -0.75556,-1.724457 -0.75557,-0.515559 -2.32892,-0.515559 z m 15.72458,8.515626 h -1.8489 v 2.93336 h -1.75113 v -2.93336 h -6.09783 v -1.41334 l 6.06227,-8.702299 h 1.78669 v 8.577849 h 1.8489 z m -3.60003,-1.53779 v -3.73336 q 0,-0.44445 0.009,-0.84446 0.009,-0.40889 0.0266,-0.77334 0.0178,-0.36444 0.0355,-0.67556 0.0178,-0.320002 0.0266,-0.577779 h -0.0711 q -0.16889,0.355559 -0.38223,0.737789 -0.20444,0.38222 -0.43556,0.71111 l -3.60003,5.1556 z"
         id="path2"
         style="font-weight:500;font-size:32.5227px;line-height:0;font-family:'open sans';-inkscape-font-specification:'open sans Medium';letter-spacing:-1.01634px;word-spacing:0px;display:inline;fill:#808080;stroke-width:2.86687;stroke-linecap:round;stroke-linejoin:round;stroke-opacity:0.501961;paint-order:stroke fill markers"
         inkscape:label="Symbol R4"
         aria-label="R4"
         transform="matrix(-1,0,0,1,343.76588,-8.7550946)" />
    </g>
  </g>
</svg>
