<?xml version="1.0" encoding="UTF-8" standalone="no"?>
<!-- Created with Inkscape (http://www.inkscape.org/) -->

<svg
   width="47.898441mm"
   height="21.761721mm"
   viewBox="0 0 47.898441 21.761721"
   version="1.1"
   id="svg1"
   inkscape:version="1.3.2 (091e20e, 2023-11-25, custom)"
   sodipodi:docname="shared-Select.svg"
   xmlns:inkscape="http://www.inkscape.org/namespaces/inkscape"
   xmlns:sodipodi="http://sodipodi.sourceforge.net/DTD/sodipodi-0.dtd"
   xmlns="http://www.w3.org/2000/svg"
   xmlns:svg="http://www.w3.org/2000/svg">
  <sodipodi:namedview
     id="namedview1"
     pagecolor="#90ff90"
     bordercolor="#000000"
     borderopacity="0.25"
     inkscape:showpageshadow="2"
     inkscape:pageopacity="0.0"
     inkscape:pagecheckerboard="0"
     inkscape:deskcolor="#d1d1d1"
     inkscape:document-units="mm"
     inkscape:zoom="3.9910213"
     inkscape:cx="61.638358"
     inkscape:cy="58.631609"
     inkscape:window-width="2560"
     inkscape:window-height="1344"
     inkscape:window-x="-9"
     inkscape:window-y="-9"
     inkscape:window-maximized="1"
     inkscape:current-layer="g11" />
  <defs
     id="defs1" />
  <g
     inkscape:label="Button Prompt Select"
     id="layer1"
     transform="translate(-116.94531,-116.15234)">
    <g
       id="g11"
       inkscape:label="Style - Outline (White)"
       style="display:none">
      <path
         style="color:#000000;display:inline;fill:#ffffff;stroke-linecap:round;stroke-linejoin:round;-inkscape-stroke:none"
         d="m 127.8267,116.77291 h 26.13714 c 5.68406,0 10.26003,4.57598 10.26003,10.26003 0,5.68406 -4.57597,10.26003 -10.26003,10.26003 H 127.8267 c -5.68405,0 -10.26003,-4.57597 -10.26003,-10.26003 0,-5.68405 4.57598,-10.26003 10.26003,-10.26003 z"
         id="path9"
         inkscape:label="Color" />
      <path
         style="color:#000000;display:inline;fill:#000000;stroke-linecap:round;stroke-linejoin:round;-inkscape-stroke:none"
         d="m 127.82617,116.15234 c -6.01725,0 -10.88086,4.86361 -10.88086,10.88086 0,6.01726 4.86361,10.88086 10.88086,10.88086 h 26.13672 c 6.01725,0 10.88086,-4.8636 10.88086,-10.88086 0,-6.01725 -4.86361,-10.88086 -10.88086,-10.88086 z m 0,1.24219 h 26.13672 c 5.35085,0 9.64063,4.28782 9.64063,9.63867 0,5.35085 -4.28978,9.63867 -9.64063,9.63867 h -26.13672 c -5.35085,0 -9.63867,-4.28782 -9.63867,-9.63867 0,-5.35085 4.28782,-9.63867 9.63867,-9.63867 z"
         id="path10"
         inkscape:label="Outline" />
      <path
         style="font-weight:500;font-size:10.5234px;line-height:0;font-family:'open sans';-inkscape-font-specification:'open sans Medium';letter-spacing:0px;word-spacing:0px;baseline-shift:baseline;display:inline;fill:#000000;stroke-width:1.32578;stroke-linecap:round;stroke-linejoin:round"
         d="m 11.242009,12.620202 q 0,0.667989 -0.333995,1.145858 -0.328856,0.472731 -0.9300462,0.724512 -0.6011904,0.25178 -1.4284694,0.25178 -0.4162087,0 -0.7964487,-0.04625 Q 7.377948,14.655 7.0542301,14.572786 6.7305122,14.490572 6.4684549,14.36725 v -0.996845 q 0.4264855,0.174705 0.9865688,0.328856 0.5600833,0.149013 1.1561353,0.149013 0.5189762,0 0.868386,-0.138736 0.3545482,-0.143875 0.534391,-0.400794 0.179844,-0.256919 0.179844,-0.616605 0,-0.359687 -0.174705,-0.60119 Q 9.8443699,11.844306 9.4641299,11.638771 9.0890282,11.433236 8.4775611,11.202009 8.0510756,11.047858 7.7016659,10.852599 7.3522561,10.652202 7.0953371,10.395283 6.8435566,10.138364 6.7048203,9.7940931 6.5660841,9.4446833 6.5660841,8.992506 q 0,-0.6217439 0.3031644,-1.0636445 0.3083027,-0.4419006 0.8581093,-0.6731277 0.5498065,-0.2363654 1.274318,-0.2363654 0.5960519,0 1.1098902,0.1181827 0.518976,0.1181827 0.986568,0.3237179 L 10.76414,8.3347934 Q 10.327378,8.1549502 9.885477,8.0419058 9.4435764,7.9288615 8.9708455,7.9288615 q -0.4367622,0 -0.7399266,0.1284595 -0.298026,0.1284594 -0.4573157,0.3648249 -0.1541514,0.2363654 -0.1541514,0.5600833 0,0.3648249 0.1644281,0.6063287 0.1644282,0.2415038 0.5189763,0.4367621 0.3545482,0.195259 0.9249082,0.416209 0.6422974,0.246642 1.0893366,0.524115 0.452177,0.277472 0.688543,0.667989 0.236365,0.390517 0.236365,0.986569 z m 5.703601,2.019383 H 12.727 V 7.1272744 h 4.21861 v 0.9043547 h -3.165242 v 2.2351949 h 2.975122 v 0.894078 h -2.975122 v 2.569189 h 3.165242 z m 1.639143,0 V 7.1272744 h 1.053368 v 6.5976786 h 3.26287 v 0.914632 z m 9.82458,0 H 24.190724 V 7.1272744 h 4.218609 v 0.9043547 h -3.165241 v 2.2351949 h 2.975121 v 0.894078 h -2.975121 v 2.569189 h 3.165241 z m 4.845492,-6.7107235 q -0.580637,0 -1.043091,0.2055352 -0.457316,0.2003967 -0.775896,0.5909135 -0.318579,0.3853785 -0.488146,0.9300467 -0.169566,0.5446681 -0.169566,1.2280721 0,0.909494 0.267196,1.572344 0.272334,0.662851 0.817002,1.022538 0.544668,0.359686 1.371947,0.359686 0.493284,0 0.940323,-0.08735 0.452178,-0.09249 0.899217,-0.236365 v 0.904354 q -0.431624,0.164428 -0.894078,0.241504 -0.457316,0.08221 -1.073921,0.08221 -1.150997,0 -1.916616,-0.477869 -0.76048,-0.477869 -1.135582,-1.341117 -0.375101,-0.868386 -0.375101,-2.045075 0,-0.852971 0.236365,-1.5569288 0.236366,-0.7090963 0.693681,-1.2229342 0.457316,-0.5189763 1.120167,-0.7964488 0.667989,-0.2826108 1.536375,-0.2826108 0.565222,0 1.099613,0.1233211 0.53953,0.1181827 0.991708,0.3339946 L 34.965905,8.355347 Q 34.590803,8.1857804 34.159179,8.057321 33.732694,7.9288615 33.254825,7.9288615 Z m 5.898859,6.7107235 H 38.095178 V 8.0367675 h -2.28144 V 7.1272744 h 5.616248 v 0.9094931 h -2.276302 z"
         id="text2"
         aria-label="SELECT"
         inkscape:label="Symbol Select"
         transform="translate(116.94531,116.15234)" />
    </g>
    <g
       id="rect1"
       inkscape:label="Style - Outline (Black)"
       style="display:none">
      <path
         style="color:#000000;display:inline;fill:#000000;stroke-linecap:round;stroke-linejoin:round;-inkscape-stroke:none"
         d="m 127.8267,116.77291 h 26.13714 c 5.68406,0 10.26003,4.57598 10.26003,10.26003 0,5.68406 -4.57597,10.26003 -10.26003,10.26003 H 127.8267 c -5.68405,0 -10.26003,-4.57597 -10.26003,-10.26003 0,-5.68405 4.57598,-10.26003 10.26003,-10.26003 z"
         id="path6"
         inkscape:label="Color" />
      <path
         style="color:#000000;display:inline;fill:#ffffff;stroke-linecap:round;stroke-linejoin:round;-inkscape-stroke:none"
         d="m 127.82617,116.15234 c -6.01725,0 -10.88086,4.86361 -10.88086,10.88086 0,6.01726 4.86361,10.88086 10.88086,10.88086 h 26.13672 c 6.01725,0 10.88086,-4.8636 10.88086,-10.88086 0,-6.01725 -4.86361,-10.88086 -10.88086,-10.88086 z m 0,1.24219 h 26.13672 c 5.35085,0 9.64063,4.28782 9.64063,9.63867 0,5.35085 -4.28978,9.63867 -9.64063,9.63867 h -26.13672 c -5.35085,0 -9.63867,-4.28782 -9.63867,-9.63867 0,-5.35085 4.28782,-9.63867 9.63867,-9.63867 z"
         id="path7"
         inkscape:label="Outline" />
      <path
         style="font-weight:500;font-size:10.5234px;line-height:0;font-family:'open sans';-inkscape-font-specification:'open sans Medium';letter-spacing:0px;word-spacing:0px;baseline-shift:baseline;display:inline;fill:#ffffff;stroke-width:1.32578;stroke-linecap:round;stroke-linejoin:round"
         d="m 11.242009,12.620202 q 0,0.667989 -0.333995,1.145858 -0.328856,0.472731 -0.9300462,0.724512 -0.6011904,0.25178 -1.4284694,0.25178 -0.4162087,0 -0.7964487,-0.04625 Q 7.377948,14.655 7.0542301,14.572786 6.7305122,14.490572 6.4684549,14.36725 v -0.996845 q 0.4264855,0.174705 0.9865688,0.328856 0.5600833,0.149013 1.1561353,0.149013 0.5189762,0 0.868386,-0.138736 0.3545482,-0.143875 0.534391,-0.400794 0.179844,-0.256919 0.179844,-0.616605 0,-0.359687 -0.174705,-0.60119 Q 9.8443699,11.844306 9.4641299,11.638771 9.0890282,11.433236 8.4775611,11.202009 8.0510756,11.047858 7.7016659,10.852599 7.3522561,10.652202 7.0953371,10.395283 6.8435566,10.138364 6.7048203,9.7940931 6.5660841,9.4446833 6.5660841,8.992506 q 0,-0.6217439 0.3031644,-1.0636445 0.3083027,-0.4419006 0.8581093,-0.6731277 0.5498065,-0.2363654 1.274318,-0.2363654 0.5960519,0 1.1098902,0.1181827 0.518976,0.1181827 0.986568,0.3237179 L 10.76414,8.3347934 Q 10.327378,8.1549502 9.885477,8.0419058 9.4435764,7.9288615 8.9708455,7.9288615 q -0.4367622,0 -0.7399266,0.1284595 -0.298026,0.1284594 -0.4573157,0.3648249 -0.1541514,0.2363654 -0.1541514,0.5600833 0,0.3648249 0.1644281,0.6063287 0.1644282,0.2415038 0.5189763,0.4367621 0.3545482,0.195259 0.9249082,0.416209 0.6422974,0.246642 1.0893366,0.524115 0.452177,0.277472 0.688543,0.667989 0.236365,0.390517 0.236365,0.986569 z m 5.703601,2.019383 H 12.727 V 7.1272744 h 4.21861 v 0.9043547 h -3.165242 v 2.2351949 h 2.975122 v 0.894078 h -2.975122 v 2.569189 h 3.165242 z m 1.639143,0 V 7.1272744 h 1.053368 v 6.5976786 h 3.26287 v 0.914632 z m 9.82458,0 H 24.190724 V 7.1272744 h 4.218609 v 0.9043547 h -3.165241 v 2.2351949 h 2.975121 v 0.894078 h -2.975121 v 2.569189 h 3.165241 z m 4.845492,-6.7107235 q -0.580637,0 -1.043091,0.2055352 -0.457316,0.2003967 -0.775896,0.5909135 -0.318579,0.3853785 -0.488146,0.9300467 -0.169566,0.5446681 -0.169566,1.2280721 0,0.909494 0.267196,1.572344 0.272334,0.662851 0.817002,1.022538 0.544668,0.359686 1.371947,0.359686 0.493284,0 0.940323,-0.08735 0.452178,-0.09249 0.899217,-0.236365 v 0.904354 q -0.431624,0.164428 -0.894078,0.241504 -0.457316,0.08221 -1.073921,0.08221 -1.150997,0 -1.916616,-0.477869 -0.76048,-0.477869 -1.135582,-1.341117 -0.375101,-0.868386 -0.375101,-2.045075 0,-0.852971 0.236365,-1.5569288 0.236366,-0.7090963 0.693681,-1.2229342 0.457316,-0.5189763 1.120167,-0.7964488 0.667989,-0.2826108 1.536375,-0.2826108 0.565222,0 1.099613,0.1233211 0.53953,0.1181827 0.991708,0.3339946 L 34.965905,8.355347 Q 34.590803,8.1857804 34.159179,8.057321 33.732694,7.9288615 33.254825,7.9288615 Z m 5.898859,6.7107235 H 38.095178 V 8.0367675 h -2.28144 V 7.1272744 h 5.616248 v 0.9094931 h -2.276302 z"
         id="path12"
         aria-label="SELECT"
         inkscape:label="Symbol Select"
         transform="translate(116.94531,116.15234)" />
    </g>
    <g
       id="rect7"
       inkscape:label="Style - Transparent"
       style="display:inline">
      <path
         style="color:#000000;fill:#808080;fill-opacity:0.501961;stroke-linecap:round;stroke-linejoin:round;-inkscape-stroke:none;paint-order:stroke fill markers"
         d="m 127.82617,116.15234 c -6.01725,0 -10.88086,4.86361 -10.88086,10.88086 0,6.01726 4.86361,10.88086 10.88086,10.88086 h 26.13672 c 6.01725,0 10.88086,-4.8636 10.88086,-10.88086 0,-6.01725 -4.86361,-10.88086 -10.88086,-10.88086 z m 0,1.24219 h 26.13672 c 5.35085,0 9.64063,4.28782 9.64063,9.63867 0,5.35085 -4.28978,9.63867 -9.64063,9.63867 h -26.13672 c -5.35085,0 -9.63867,-4.28782 -9.63867,-9.63867 0,-5.35085 4.28782,-9.63867 9.63867,-9.63867 z"
         id="path4"
         inkscape:label="Outline" />
      <path
         style="color:#000000;display:inline;fill:#ffffff;fill-opacity:1;stroke-linecap:round;stroke-linejoin:round;-inkscape-stroke:none;paint-order:stroke fill markers"
         d="m 127.8267,116.77291 h 26.13714 c 5.68406,0 10.26003,4.57598 10.26003,10.26003 0,5.68406 -4.57597,10.26003 -10.26003,10.26003 H 127.8267 c -5.68405,0 -10.26003,-4.57597 -10.26003,-10.26003 0,-5.68405 4.57598,-10.26003 10.26003,-10.26003 z"
         id="path5"
         inkscape:label="Color" />
      <path
         style="font-weight:500;font-size:10.5234px;line-height:0;font-family:'open sans';-inkscape-font-specification:'open sans Medium';letter-spacing:0px;word-spacing:0px;baseline-shift:baseline;fill:#808080;stroke-width:1.32578;stroke-linecap:round;stroke-linejoin:round"
         d="m 11.242009,12.620202 q 0,0.667989 -0.333995,1.145858 -0.328856,0.472731 -0.9300462,0.724512 -0.6011904,0.25178 -1.4284694,0.25178 -0.4162087,0 -0.7964487,-0.04625 Q 7.377948,14.655 7.0542301,14.572786 6.7305122,14.490572 6.4684549,14.36725 v -0.996845 q 0.4264855,0.174705 0.9865688,0.328856 0.5600833,0.149013 1.1561353,0.149013 0.5189762,0 0.868386,-0.138736 0.3545482,-0.143875 0.534391,-0.400794 0.179844,-0.256919 0.179844,-0.616605 0,-0.359687 -0.174705,-0.60119 Q 9.8443699,11.844306 9.4641299,11.638771 9.0890282,11.433236 8.4775611,11.202009 8.0510756,11.047858 7.7016659,10.852599 7.3522561,10.652202 7.0953371,10.395283 6.8435566,10.138364 6.7048203,9.7940931 6.5660841,9.4446833 6.5660841,8.992506 q 0,-0.6217439 0.3031644,-1.0636445 0.3083027,-0.4419006 0.8581093,-0.6731277 0.5498065,-0.2363654 1.274318,-0.2363654 0.5960519,0 1.1098902,0.1181827 0.518976,0.1181827 0.986568,0.3237179 L 10.76414,8.3347934 Q 10.327378,8.1549502 9.885477,8.0419058 9.4435764,7.9288615 8.9708455,7.9288615 q -0.4367622,0 -0.7399266,0.1284595 -0.298026,0.1284594 -0.4573157,0.3648249 -0.1541514,0.2363654 -0.1541514,0.5600833 0,0.3648249 0.1644281,0.6063287 0.1644282,0.2415038 0.5189763,0.4367621 0.3545482,0.195259 0.9249082,0.416209 0.6422974,0.246642 1.0893366,0.524115 0.452177,0.277472 0.688543,0.667989 0.236365,0.390517 0.236365,0.986569 z m 5.703601,2.019383 H 12.727 V 7.1272744 h 4.21861 v 0.9043547 h -3.165242 v 2.2351949 h 2.975122 v 0.894078 h -2.975122 v 2.569189 h 3.165242 z m 1.639143,0 V 7.1272744 h 1.053368 v 6.5976786 h 3.26287 v 0.914632 z m 9.82458,0 H 24.190724 V 7.1272744 h 4.218609 v 0.9043547 h -3.165241 v 2.2351949 h 2.975121 v 0.894078 h -2.975121 v 2.569189 h 3.165241 z m 4.845492,-6.7107235 q -0.580637,0 -1.043091,0.2055352 -0.457316,0.2003967 -0.775896,0.5909135 -0.318579,0.3853785 -0.488146,0.9300467 -0.169566,0.5446681 -0.169566,1.2280721 0,0.909494 0.267196,1.572344 0.272334,0.662851 0.817002,1.022538 0.544668,0.359686 1.371947,0.359686 0.493284,0 0.940323,-0.08735 0.452178,-0.09249 0.899217,-0.236365 v 0.904354 q -0.431624,0.164428 -0.894078,0.241504 -0.457316,0.08221 -1.073921,0.08221 -1.150997,0 -1.916616,-0.477869 -0.76048,-0.477869 -1.135582,-1.341117 -0.375101,-0.868386 -0.375101,-2.045075 0,-0.852971 0.236365,-1.5569288 0.236366,-0.7090963 0.693681,-1.2229342 0.457316,-0.5189763 1.120167,-0.7964488 0.667989,-0.2826108 1.536375,-0.2826108 0.565222,0 1.099613,0.1233211 0.53953,0.1181827 0.991708,0.3339946 L 34.965905,8.355347 Q 34.590803,8.1857804 34.159179,8.057321 33.732694,7.9288615 33.254825,7.9288615 Z m 5.898859,6.7107235 H 38.095178 V 8.0367675 h -2.28144 V 7.1272744 h 5.616248 v 0.9094931 h -2.276302 z"
         id="path11"
         aria-label="SELECT"
         inkscape:label="Symbol Select"
         transform="translate(116.94531,116.15234)" />
    </g>
  </g>
</svg>
