<?xml version="1.0" encoding="UTF-8" standalone="no"?>
<!-- Created with Inkscape (http://www.inkscape.org/) -->

<svg
   width="126.21555mm"
   height="126.21536mm"
   viewBox="0 0 126.21555 126.21535"
   version="1.1"
   id="svg1"
   xml:space="preserve"
   inkscape:version="1.3.2 (091e20e, 2023-11-25, custom)"
   sodipodi:docname="shared-positional prompt B.svg"
   xmlns:inkscape="http://www.inkscape.org/namespaces/inkscape"
   xmlns:sodipodi="http://sodipodi.sourceforge.net/DTD/sodipodi-0.dtd"
   xmlns="http://www.w3.org/2000/svg"
   xmlns:svg="http://www.w3.org/2000/svg"><sodipodi:namedview
     id="namedview1"
     pagecolor="#5bff91"
     bordercolor="#000000"
     borderopacity="0.25"
     inkscape:showpageshadow="2"
     inkscape:pageopacity="0.0"
     inkscape:pagecheckerboard="0"
     inkscape:deskcolor="#d1d1d1"
     inkscape:document-units="mm"
     inkscape:zoom="0.50000001"
     inkscape:cx="172"
     inkscape:cy="335.99999"
     inkscape:window-width="2560"
     inkscape:window-height="1351"
     inkscape:window-x="-9"
     inkscape:window-y="-9"
     inkscape:window-maximized="1"
     inkscape:current-layer="layer1" /><defs
     id="defs1"><rect
       x="-329.58707"
       y="426.24316"
       width="115.7824"
       height="107.24387"
       id="rect2" /><rect
       x="-486.35437"
       y="484.30515"
       width="87.776039"
       height="93.582237"
       id="rect1" /><rect
       x="-329.58707"
       y="426.24316"
       width="115.7824"
       height="107.24387"
       id="rect2-1" /><rect
       x="-486.35437"
       y="484.30515"
       width="87.776039"
       height="93.582237"
       id="rect1-3" /><rect
       x="-329.58707"
       y="426.24316"
       width="115.7824"
       height="107.24387"
       id="rect2-4" /><rect
       x="-486.35437"
       y="484.30515"
       width="87.776039"
       height="93.582237"
       id="rect1-9" /><rect
       x="-329.58707"
       y="426.24316"
       width="115.7824"
       height="107.24387"
       id="rect2-11" /><rect
       x="-486.35437"
       y="484.30515"
       width="87.776039"
       height="93.582237"
       id="rect1-5" /></defs><g
     inkscape:label="Positional Glyph B"
     id="layer1"
     transform="translate(-35.10544,-127.68245)"><g
       id="g1"
       inkscape:label="Style - Outline (White)"
       style="display:none"><g
         inkscape:label="Button Prompt A"
         id="layer1-8"
         transform="translate(215.32783,93.126341)"
         style="display:inline"><path
           style="color:#000000;display:inline;fill:#000000;fill-opacity:1;stroke:none;stroke-linecap:round;stroke-linejoin:round;stroke-opacity:1;-inkscape-stroke:none"
           d="m -117.11328,115.24219 c -12.554,0 -22.76563,10.21163 -22.76563,22.76562 0,12.554 10.21163,22.76367 22.76563,22.76367 12.55399,0 22.763671,-10.20967 22.763671,-22.76367 0,-12.55399 -10.209681,-22.76562 -22.763671,-22.76562 z m 0,3.10156 c 10.87863,0 19.664061,8.78543 19.664061,19.66406 0,10.87864 -8.785431,19.66406 -19.664061,19.66406 -10.87863,0 -19.66406,-8.78542 -19.66406,-19.66406 0,-10.87863 8.78543,-19.66406 19.66406,-19.66406 z"
           id="path22"
           inkscape:label="Outline" /></g><g
         inkscape:label="Button Prompt B"
         id="layer1-5"
         transform="translate(255.67042,52.783311)"
         style="display:inline"><path
           id="path54"
           style="color:#000000;display:inline;fill:#ffffff;fill-opacity:1;stroke-width:1.04044;stroke-linecap:round;stroke-linejoin:round;-inkscape-stroke:none"
           inkscape:label="Circle"
           d="m -117.11341,117.54831 c -11.3185,0 -20.45904,9.14107 -20.45904,20.45957 0,11.31851 9.14054,20.45903 20.45904,20.45903 11.31849,0 20.459026,-9.14052 20.459026,-20.45903 0,-11.3185 -9.140536,-20.45957 -20.459026,-20.45957 z" /><path
           id="path55"
           style="color:#000000;display:inline;fill:#000000;fill-opacity:1;stroke-linecap:round;stroke-linejoin:round;-inkscape-stroke:none"
           inkscape:label="Outline"
           d="m -117.11341,115.24233 c -7.61699,0 -14.36651,3.76322 -18.5012,9.52397 -0.25411,0.35405 -0.49835,0.7154 -0.73226,1.08417 -0.33914,0.53466 -0.65626,1.08396 -0.95084,1.64745 -0.22969,0.43936 -0.44626,0.88648 -0.64751,1.34203 -1.24004,2.80691 -1.93373,5.90701 -1.93373,9.16792 0,3.13849 0.63813,6.13066 1.79162,8.8532 0.28833,0.68049 0.60936,1.34413 0.96015,1.98903 0.17543,0.32252 0.35796,0.64053 0.54829,0.95343 0.38066,0.6258 0.79096,1.23198 1.22835,1.81643 4.15516,5.55218 10.7832,9.15138 18.23713,9.15138 6.27684,0 11.96773,-2.55256 16.08945,-6.67401 0.77281,-0.77282 1.490646,-1.6007 2.146646,-2.47737 1.31201,-1.75332 2.37754,-3.70143 3.14451,-5.79241 0.89476,-2.4395 1.38338,-5.0735 1.38338,-7.81968 0,-1.88786 -0.23472,-3.72151 -0.66973,-5.47667 -0.037,-0.1492 -0.0764,-0.29742 -0.11627,-0.44545 -0.14885,-0.55206 -0.31786,-1.09567 -0.50643,-1.63039 -0.82741,-2.34604 -2.02946,-4.51499 -3.53312,-6.43889 -0.24615,-0.31496 -0.5002,-0.62308 -0.76223,-0.92449 -0.227736,-0.26194 -0.460926,-0.51872 -0.700216,-0.76998 -0.12865,-0.1351 -0.25464,-0.2727 -0.38654,-0.40462 -4.12172,-4.12198 -9.81261,-6.67505 -16.08945,-6.67505 z m 0,3.10111 c 10.87861,0 19.663906,8.78581 19.663906,19.66443 0,10.87863 -8.785296,19.66391 -19.663906,19.66391 -10.87862,0 -19.66392,-8.78528 -19.66392,-19.66391 0,-10.87862 8.7853,-19.66443 19.66392,-19.66443 z" /><path
           d="m -124.64719,148.0103 v -22.24218 h 8.34461 q 2.5489,0 4.08127,0.68274 1.54755,0.66757 2.41235,2.07856 0.87998,1.39583 0.87998,2.9282 0,1.42617 -0.77377,2.68545 -0.77378,1.25928 -2.33649,2.03305 2.01788,0.59171 3.09509,2.01788 1.09238,1.42617 1.09238,3.36819 0,1.56272 -0.66756,2.91303 -0.6524,1.33514 -1.62341,2.06339 -0.97101,0.72826 -2.4427,1.10756 -1.45651,0.36413 -3.58059,0.36413 z m 2.94337,-12.89622 h 4.80953 q 1.95719,0 2.80682,-0.25792 1.12273,-0.33379 1.6841,-1.10756 0.57653,-0.77377 0.57653,-1.94202 0,-1.10756 -0.53102,-1.94202 -0.53102,-0.84963 -1.5172,-1.15307 -0.98618,-0.31861 -3.38336,-0.31861 h -4.4454 z m 0,10.27146 h 5.53779 q 1.42617,0 2.0027,-0.1062 1.01653,-0.18207 1.69927,-0.60689 0.68274,-0.42481 1.12273,-1.22893 0.43999,-0.81929 0.43999,-1.88133 0,-1.24411 -0.63723,-2.15443 -0.63722,-0.92549 -1.77512,-1.28962 -1.12273,-0.3793 -3.24682,-0.3793 h -5.14331 z"
           id="path7-1"
           style="font-size:31.0723px;line-height:0;font-family:Arial;-inkscape-font-specification:Arial;letter-spacing:-15.7789px;word-spacing:0px;display:inline;fill:#000000;fill-opacity:1;stroke-width:3.48647;stroke-linecap:round;paint-order:stroke fill markers"
           inkscape:label="Symbol B"
           aria-label="B" /></g><g
         inkscape:label="Button Prompt X"
         id="layer1-7"
         transform="translate(174.98435,52.783301)"
         style="display:inline"><path
           style="color:#000000;display:inline;fill:#000000;fill-opacity:1;stroke-linecap:round;stroke-linejoin:round;-inkscape-stroke:none"
           d="m -117.11328,115.24219 c -12.554,0 -22.76563,10.21163 -22.76563,22.76562 0,12.554 10.21163,22.76367 22.76563,22.76367 12.55399,0 22.763671,-10.20967 22.763671,-22.76367 0,-12.55399 -10.209681,-22.76562 -22.763671,-22.76562 z m 0,3.10156 c 10.87863,0 19.664061,8.78543 19.664061,19.66406 0,10.87864 -8.785431,19.66406 -19.664061,19.66406 -10.87863,0 -19.66406,-8.78542 -19.66406,-19.66406 0,-10.87863 8.78543,-19.66406 19.66406,-19.66406 z"
           id="path4-2"
           inkscape:label="Outline" /></g><g
         inkscape:label="Button Prompt Y"
         id="layer1-4"
         transform="translate(215.32783,12.440265)"
         style="display:inline;fill:#ffffff;fill-opacity:1"><path
           style="color:#000000;display:inline;fill:#000000;fill-opacity:1;stroke-linecap:round;stroke-linejoin:round;-inkscape-stroke:none"
           d="m -117.11328,115.24219 c -12.554,0 -22.76563,10.21163 -22.76563,22.76562 0,12.554 10.21163,22.76367 22.76563,22.76367 12.55399,0 22.763671,-10.20967 22.763671,-22.76367 0,-12.55399 -10.209681,-22.76562 -22.763671,-22.76562 z m 0,3.10156 c 10.87863,0 19.664061,8.78543 19.664061,19.66406 0,10.87864 -8.785431,19.66406 -19.664061,19.66406 -10.87863,0 -19.66406,-8.78542 -19.66406,-19.66406 0,-10.87863 8.78543,-19.66406 19.66406,-19.66406 z"
           id="path4-6"
           inkscape:label="Outline" /></g></g><g
       id="g42"
       inkscape:label="Style - Outline (Black)"
       style="display:none"><g
         inkscape:label="Button Prompt A"
         id="g29"
         transform="translate(215.32783,93.126341)"
         style="display:inline"><path
           style="color:#000000;display:inline;fill:#ffffff;fill-opacity:1;stroke:none;stroke-linecap:round;stroke-linejoin:round;stroke-opacity:1;-inkscape-stroke:none"
           d="m -117.11328,115.24219 c -12.554,0 -22.76563,10.21163 -22.76563,22.76562 0,12.554 10.21163,22.76367 22.76563,22.76367 12.55399,0 22.763671,-10.20967 22.763671,-22.76367 0,-12.55399 -10.209681,-22.76562 -22.763671,-22.76562 z m 0,3.10156 c 10.87863,0 19.664061,8.78543 19.664061,19.66406 0,10.87864 -8.785431,19.66406 -19.664061,19.66406 -10.87863,0 -19.66406,-8.78542 -19.66406,-19.66406 0,-10.87863 8.78543,-19.66406 19.66406,-19.66406 z"
           id="path26"
           inkscape:label="Outline" /></g><g
         inkscape:label="Button Prompt B"
         id="g33"
         transform="translate(255.67042,52.783311)"
         style="display:inline"><path
           id="path33"
           style="color:#000000;display:inline;fill:#000000;fill-opacity:1;stroke-width:1.04044;stroke-linecap:round;stroke-linejoin:round;-inkscape-stroke:none"
           inkscape:label="Circle"
           d="m -117.11341,117.54831 c -11.3185,0 -20.45904,9.14107 -20.45904,20.45957 0,11.31851 9.14054,20.45903 20.45904,20.45903 11.31849,0 20.459028,-9.14052 20.459028,-20.45903 0,-11.3185 -9.140538,-20.45957 -20.459028,-20.45957 z" /><path
           id="path53"
           style="color:#000000;display:inline;fill:#f3f3f3;fill-opacity:1;stroke-linecap:round;stroke-linejoin:round;-inkscape-stroke:none"
           inkscape:label="Outline"
           d="m -117.11341,115.24233 c -7.61699,0 -14.36651,3.76322 -18.5012,9.52397 -0.25411,0.35405 -0.49835,0.7154 -0.73226,1.08417 -0.33914,0.53466 -0.65626,1.08396 -0.95084,1.64745 -0.22969,0.43936 -0.44626,0.88648 -0.64751,1.34203 -1.24004,2.80691 -1.93373,5.90701 -1.93373,9.16792 0,3.13849 0.63813,6.13066 1.79162,8.8532 0.28833,0.68049 0.60936,1.34413 0.96015,1.98903 0.17543,0.32252 0.35796,0.64053 0.54829,0.95343 0.38066,0.6258 0.79096,1.23198 1.22835,1.81643 4.15516,5.55218 10.7832,9.15138 18.23713,9.15138 6.27684,0 11.96773,-2.55256 16.08945,-6.67401 0.77281,-0.77282 1.490648,-1.6007 2.146642,-2.47737 1.312016,-1.75332 2.377547,-3.70143 3.144511,-5.79241 0.894766,-2.4395 1.383378,-5.0735 1.383378,-7.81968 0,-1.88786 -0.234712,-3.72151 -0.669727,-5.47667 -0.03698,-0.1492 -0.07636,-0.29742 -0.116272,-0.44545 -0.148848,-0.55206 -0.317859,-1.09567 -0.506429,-1.63039 -0.827403,-2.34604 -2.029462,-4.51499 -3.533118,-6.43889 -0.246148,-0.31496 -0.500199,-0.62308 -0.762227,-0.92449 -0.227738,-0.26194 -0.460928,-0.51872 -0.700218,-0.76998 -0.12865,-0.1351 -0.25464,-0.2727 -0.38654,-0.40462 -4.12172,-4.12198 -9.81261,-6.67505 -16.08945,-6.67505 z m 0,3.10111 c 10.87861,0 19.663911,8.78581 19.663911,19.66443 0,10.87863 -8.785301,19.66391 -19.663911,19.66391 -10.87862,0 -19.66392,-8.78528 -19.66392,-19.66391 0,-10.87862 8.7853,-19.66443 19.66392,-19.66443 z" /><path
           d="m -124.64719,148.0103 v -22.24218 h 8.34461 q 2.5489,0 4.08127,0.68274 1.54755,0.66757 2.41235,2.07856 0.87998,1.39583 0.87998,2.9282 0,1.42617 -0.77377,2.68545 -0.77378,1.25928 -2.33649,2.03305 2.01788,0.59171 3.09509,2.01788 1.09238,1.42617 1.09238,3.36819 0,1.56272 -0.66756,2.91303 -0.6524,1.33514 -1.62341,2.06339 -0.97101,0.72826 -2.4427,1.10756 -1.45651,0.36413 -3.58059,0.36413 z m 2.94337,-12.89622 h 4.80953 q 1.95719,0 2.80682,-0.25792 1.12273,-0.33379 1.6841,-1.10756 0.57653,-0.77377 0.57653,-1.94202 0,-1.10756 -0.53102,-1.94202 -0.53102,-0.84963 -1.5172,-1.15307 -0.98618,-0.31861 -3.38336,-0.31861 h -4.4454 z m 0,10.27146 h 5.53779 q 1.42617,0 2.0027,-0.1062 1.01653,-0.18207 1.69927,-0.60689 0.68274,-0.42481 1.12273,-1.22893 0.43999,-0.81929 0.43999,-1.88133 0,-1.24411 -0.63723,-2.15443 -0.63722,-0.92549 -1.77512,-1.28962 -1.12273,-0.3793 -3.24682,-0.3793 h -5.14331 z"
           id="path31"
           style="font-size:31.0723px;line-height:0;font-family:Arial;-inkscape-font-specification:Arial;letter-spacing:-15.7789px;word-spacing:0px;display:inline;fill:#ffffff;fill-opacity:1;stroke-width:3.48647;stroke-linecap:round;paint-order:stroke fill markers"
           inkscape:label="Symbol B"
           aria-label="B" /></g><g
         inkscape:label="Button Prompt X"
         id="g37"
         transform="translate(174.98435,52.783301)"
         style="display:inline"><path
           style="color:#000000;display:inline;fill:#ffffff;fill-opacity:1;stroke-linecap:round;stroke-linejoin:round;-inkscape-stroke:none"
           d="m -117.11328,115.24219 c -12.554,0 -22.76563,10.21163 -22.76563,22.76562 0,12.554 10.21163,22.76367 22.76563,22.76367 12.55399,0 22.763671,-10.20967 22.763671,-22.76367 0,-12.55399 -10.209681,-22.76562 -22.763671,-22.76562 z m 0,3.10156 c 10.87863,0 19.664061,8.78543 19.664061,19.66406 0,10.87864 -8.785431,19.66406 -19.664061,19.66406 -10.87863,0 -19.66406,-8.78542 -19.66406,-19.66406 0,-10.87863 8.78543,-19.66406 19.66406,-19.66406 z"
           id="path34"
           inkscape:label="Outline" /></g><g
         inkscape:label="Button Prompt Y"
         id="g41"
         transform="translate(215.32783,12.440265)"
         style="display:inline;fill:#ffffff;fill-opacity:1"><path
           style="color:#000000;display:inline;fill:#ffffff;fill-opacity:1;stroke-linecap:round;stroke-linejoin:round;-inkscape-stroke:none"
           d="m -117.11328,115.24219 c -12.554,0 -22.76563,10.21163 -22.76563,22.76562 0,12.554 10.21163,22.76367 22.76563,22.76367 12.55399,0 22.763671,-10.20967 22.763671,-22.76367 0,-12.55399 -10.209681,-22.76562 -22.763671,-22.76562 z m 0,3.10156 c 10.87863,0 19.664061,8.78543 19.664061,19.66406 0,10.87864 -8.785431,19.66406 -19.664061,19.66406 -10.87863,0 -19.66406,-8.78542 -19.66406,-19.66406 0,-10.87863 8.78543,-19.66406 19.66406,-19.66406 z"
           id="path38"
           inkscape:label="Outline" /></g></g><g
       id="g20"
       inkscape:label="Style - Transparent"
       style="display:inline"><g
         inkscape:label="Button Prompt A"
         id="g7"
         transform="translate(215.32783,93.126341)"
         style="display:inline"><path
           style="color:#000000;display:inline;fill:#ffffff;fill-opacity:1;stroke:none;stroke-linecap:round;stroke-linejoin:round;stroke-opacity:1;-inkscape-stroke:none"
           d="m -117.11328,115.24219 c -12.554,0 -22.76563,10.21163 -22.76563,22.76562 0,12.554 10.21163,22.76367 22.76563,22.76367 12.55399,0 22.763671,-10.20967 22.763671,-22.76367 0,-12.55399 -10.209681,-22.76562 -22.763671,-22.76562 z m 0,3.10156 c 10.87863,0 19.664061,8.78543 19.664061,19.66406 0,10.87864 -8.785431,19.66406 -19.664061,19.66406 -10.87863,0 -19.66406,-8.78542 -19.66406,-19.66406 0,-10.87863 8.78543,-19.66406 19.66406,-19.66406 z"
           id="path5"
           inkscape:label="Outline" /></g><g
         inkscape:label="Button Prompt B"
         id="g11"
         transform="translate(255.67042,52.783311)"
         style="display:inline"><path
           id="path7"
           style="color:#000000;display:inline;fill:#ffffff;fill-opacity:1;stroke-linecap:round;stroke-linejoin:round;-inkscape-stroke:none"
           inkscape:label="Circle"
           d="m -117.11341,115.24241 c -12.55399,0 -22.76554,10.21156 -22.76554,22.76554 0,12.55399 10.21155,22.76347 22.76554,22.76347 12.55397,0 22.763982,-10.20948 22.763982,-22.76347 0,-12.55398 -10.210012,-22.76554 -22.763982,-22.76554 z" /><path
           d="m -124.64719,148.0103 v -22.24218 h 8.34461 q 2.5489,0 4.08127,0.68274 1.54755,0.66757 2.41235,2.07856 0.87998,1.39583 0.87998,2.9282 0,1.42617 -0.77377,2.68545 -0.77378,1.25928 -2.33649,2.03305 2.01788,0.59171 3.09509,2.01788 1.09238,1.42617 1.09238,3.36819 0,1.56272 -0.66756,2.91303 -0.6524,1.33514 -1.62341,2.06339 -0.97101,0.72826 -2.4427,1.10756 -1.45651,0.36413 -3.58059,0.36413 z m 2.94337,-12.89622 h 4.80953 q 1.95719,0 2.80682,-0.25792 1.12273,-0.33379 1.6841,-1.10756 0.57653,-0.77377 0.57653,-1.94202 0,-1.10756 -0.53102,-1.94202 -0.53102,-0.84963 -1.5172,-1.15307 -0.98618,-0.31861 -3.38336,-0.31861 h -4.4454 z m 0,10.27146 h 5.53779 q 1.42617,0 2.0027,-0.1062 1.01653,-0.18207 1.69927,-0.60689 0.68274,-0.42481 1.12273,-1.22893 0.43999,-0.81929 0.43999,-1.88133 0,-1.24411 -0.63723,-2.15443 -0.63722,-0.92549 -1.77512,-1.28962 -1.12273,-0.3793 -3.24682,-0.3793 h -5.14331 z"
           id="path9"
           style="font-size:31.0723px;line-height:0;font-family:Arial;-inkscape-font-specification:Arial;letter-spacing:-15.7789px;word-spacing:0px;display:inline;fill:#808080;fill-opacity:1;stroke-width:3.48647;stroke-linecap:round;paint-order:stroke fill markers"
           inkscape:label="Symbol B"
           aria-label="B" /></g><g
         inkscape:label="Button Prompt X"
         id="g15"
         transform="translate(174.98435,52.783301)"
         style="display:inline"><path
           style="color:#000000;display:inline;fill:#ffffff;fill-opacity:1;stroke-linecap:round;stroke-linejoin:round;-inkscape-stroke:none"
           d="m -117.11328,115.24219 c -12.554,0 -22.76563,10.21163 -22.76563,22.76562 0,12.554 10.21163,22.76367 22.76563,22.76367 12.55399,0 22.763671,-10.20967 22.763671,-22.76367 0,-12.55399 -10.209681,-22.76562 -22.763671,-22.76562 z m 0,3.10156 c 10.87863,0 19.664061,8.78543 19.664061,19.66406 0,10.87864 -8.785431,19.66406 -19.664061,19.66406 -10.87863,0 -19.66406,-8.78542 -19.66406,-19.66406 0,-10.87863 8.78543,-19.66406 19.66406,-19.66406 z"
           id="path12"
           inkscape:label="Outline" /></g><g
         inkscape:label="Button Prompt Y"
         id="g19"
         transform="translate(215.32783,12.440265)"
         style="display:inline;fill:#ffffff;fill-opacity:1"><path
           style="color:#000000;display:inline;fill:#ffffff;fill-opacity:1;stroke-linecap:round;stroke-linejoin:round;-inkscape-stroke:none"
           d="m -117.11328,115.24219 c -12.554,0 -22.76563,10.21163 -22.76563,22.76562 0,12.554 10.21163,22.76367 22.76563,22.76367 12.55399,0 22.763671,-10.20967 22.763671,-22.76367 0,-12.55399 -10.209681,-22.76562 -22.763671,-22.76562 z m 0,3.10156 c 10.87863,0 19.664061,8.78543 19.664061,19.66406 0,10.87864 -8.785431,19.66406 -19.664061,19.66406 -10.87863,0 -19.66406,-8.78542 -19.66406,-19.66406 0,-10.87863 8.78543,-19.66406 19.66406,-19.66406 z"
           id="path16"
           inkscape:label="Outline" /></g></g></g></svg>
