<?xml version="1.0" encoding="UTF-8" standalone="no"?>
<!-- Created with Inkscape (http://www.inkscape.org/) -->

<svg
   width="48.910149mm"
   height="31.757816mm"
   viewBox="0 0 48.910154 31.757817"
   version="1.1"
   id="svg1"
   inkscape:version="1.3.2 (091e20e, 2023-11-25, custom)"
   sodipodi:docname="xbox360-start.svg"
   xml:space="preserve"
   xmlns:inkscape="http://www.inkscape.org/namespaces/inkscape"
   xmlns:sodipodi="http://sodipodi.sourceforge.net/DTD/sodipodi-0.dtd"
   xmlns="http://www.w3.org/2000/svg"
   xmlns:svg="http://www.w3.org/2000/svg"><sodipodi:namedview
     id="namedview1"
     pagecolor="#50ff5f"
     bordercolor="#000000"
     borderopacity="0.25"
     inkscape:showpageshadow="2"
     inkscape:pageopacity="0.0"
     inkscape:pagecheckerboard="0"
     inkscape:deskcolor="#d1d1d1"
     inkscape:document-units="mm"
     inkscape:zoom="2.0257997"
     inkscape:cx="-20.238921"
     inkscape:cy="69.355327"
     inkscape:window-width="2560"
     inkscape:window-height="1351"
     inkscape:window-x="-9"
     inkscape:window-y="-9"
     inkscape:window-maximized="1"
     inkscape:current-layer="svg1" /><defs
     id="defs1"><inkscape:path-effect
       effect="bspline"
       id="path-effect12"
       is_visible="true"
       lpeversion="1.3"
       weight="33.333333"
       steps="2"
       helper_size="0"
       apply_no_weight="true"
       apply_with_weight="true"
       only_selected="false"
       uniform="false" /><inkscape:path-effect
       effect="bspline"
       id="path-effect10"
       is_visible="true"
       lpeversion="1.3"
       weight="33.333333"
       steps="2"
       helper_size="0"
       apply_no_weight="true"
       apply_with_weight="true"
       only_selected="false"
       uniform="false" /><rect
       x="-6"
       y="-34"
       width="85"
       height="25.25"
       id="rect22" /><rect
       x="-6"
       y="-34"
       width="85"
       height="25.25"
       id="rect11" /><rect
       x="-6"
       y="-34"
       width="85"
       height="25.25"
       id="rect12" /></defs><g
     inkscape:label="Button Start"
     id="layer1"
     transform="translate(-133.87891,-82.814453)"><g
       id="rect1"
       inkscape:label="Style - Outline (White)"
       style="display:none"><path
         style="color:#000000;display:inline;fill:#ffffff;stroke-linecap:round;stroke-linejoin:round;-inkscape-stroke:none"
         d="m 149.37507,84.214584 h 17.91721 c 7.80913,0 14.0959,6.286768 14.0959,14.095891 V 99.0771 c 0,7.80912 -6.28677,14.09589 -14.0959,14.09589 h -17.91721 c -7.80913,0 -14.0959,-6.28677 -14.0959,-14.09589 v -0.766625 c 0,-7.809123 6.28677,-14.095891 14.0959,-14.095891 z"
         id="path4"
         inkscape:label="Shape" /><path
         style="color:#000000;display:inline;fill:#000000;stroke-linecap:round;stroke-linejoin:round;-inkscape-stroke:none"
         d="m 149.375,82.814453 c -8.5605,0 -15.49609,6.935595 -15.49609,15.496094 v 0.765625 c 0,8.560498 6.93559,15.496098 15.49609,15.496098 h 17.91797 c 8.5605,0 15.49609,-6.9356 15.49609,-15.496098 v -0.765625 c 0,-8.560499 -6.93559,-15.496094 -15.49609,-15.496094 z m 0,2.800781 h 17.91797 c 7.05773,0 12.69531,5.63758 12.69531,12.695313 v 0.765625 c 0,7.057728 -5.63758,12.697268 -12.69531,12.697268 H 149.375 c -7.05773,0 -12.69531,-5.63954 -12.69531,-12.697268 v -0.765625 c 0,-7.057733 5.63758,-12.695313 12.69531,-12.695313 z"
         id="path5"
         inkscape:label="Outline" /><path
         id="path23"
         style="color:#000000;display:inline;fill:#000000;stroke-width:0.64873;stroke-linecap:round;stroke-linejoin:round;-inkscape-stroke:none;paint-order:stroke fill markers"
         d="m 151.02897,90.109823 a 0.43316964,0.37754598 0 0 0 -0.21662,0.0505 0.43316964,0.37754598 0 0 0 -0.21698,0.32631 v 16.412747 a 0.43316964,0.37754598 0 0 0 0.64987,0.32775 l 16.30793,-8.206927 a 0.43316964,0.37754598 0 0 0 0,-0.65404 l -16.30793,-8.20586 a 0.43316964,0.37754598 0 0 0 -0.21627,-0.0505 z"
         inkscape:label="Symbol Arrow" /></g><g
       id="g7"
       inkscape:label="Style - Outline (Black)"
       style="display:none"><path
         style="color:#000000;display:inline;fill:#000000;stroke-linecap:round;stroke-linejoin:round;-inkscape-stroke:none"
         d="m 149.37507,84.214584 h 17.91721 c 7.80913,0 14.0959,6.286768 14.0959,14.095891 V 99.0771 c 0,7.80912 -6.28677,14.09589 -14.0959,14.09589 h -17.91721 c -7.80913,0 -14.0959,-6.28677 -14.0959,-14.09589 v -0.766625 c 0,-7.809123 6.28677,-14.095891 14.0959,-14.095891 z"
         id="path6"
         inkscape:label="Shape" /><path
         style="color:#000000;display:inline;fill:#ffffff;stroke-linecap:round;stroke-linejoin:round;-inkscape-stroke:none"
         d="m 149.375,82.814453 c -8.5605,0 -15.49609,6.935595 -15.49609,15.496094 v 0.765625 c 0,8.560498 6.93559,15.496098 15.49609,15.496098 h 17.91797 c 8.5605,0 15.49609,-6.9356 15.49609,-15.496098 v -0.765625 c 0,-8.560499 -6.93559,-15.496094 -15.49609,-15.496094 z m 0,2.800781 h 17.91797 c 7.05773,0 12.69531,5.63758 12.69531,12.695313 v 0.765625 c 0,7.057728 -5.63758,12.697268 -12.69531,12.697268 H 149.375 c -7.05773,0 -12.69531,-5.63954 -12.69531,-12.697268 v -0.765625 c 0,-7.057733 5.63758,-12.695313 12.69531,-12.695313 z"
         id="path7"
         inkscape:label="Outline" /><path
         id="path9"
         style="color:#000000;display:inline;fill:#ffffff;stroke-width:0.64873;stroke-linecap:round;stroke-linejoin:round;-inkscape-stroke:none;paint-order:stroke fill markers"
         d="m 151.02897,90.109823 a 0.43316964,0.37754598 0 0 0 -0.21662,0.0505 0.43316964,0.37754598 0 0 0 -0.21698,0.32631 v 16.412747 a 0.43316964,0.37754598 0 0 0 0.64987,0.32775 l 16.30793,-8.206927 a 0.43316964,0.37754598 0 0 0 0,-0.65404 l -16.30793,-8.20586 a 0.43316964,0.37754598 0 0 0 -0.21627,-0.0505 z"
         inkscape:label="Symbol Arrow" /></g><g
       id="rect24"
       inkscape:label="Style - Transparent"
       style="display:inline"><path
         style="color:#000000;fill:#808080;fill-opacity:0.501961;stroke-linecap:round;stroke-linejoin:round;-inkscape-stroke:none;paint-order:stroke fill markers"
         d="m 149.375,82.814453 c -8.5605,0 -15.49609,6.935595 -15.49609,15.496094 v 0.765625 c 0,8.560498 6.93559,15.496098 15.49609,15.496098 h 17.91797 c 8.5605,0 15.49609,-6.9356 15.49609,-15.496098 v -0.765625 c 0,-8.560499 -6.93559,-15.496094 -15.49609,-15.496094 z m 0,2.800781 h 17.91797 c 7.05773,0 12.69531,5.63758 12.69531,12.695313 v 0.765625 c 0,7.057728 -5.63758,12.697268 -12.69531,12.697268 H 149.375 c -7.05773,0 -12.69531,-5.63954 -12.69531,-12.697268 v -0.765625 c 0,-7.057733 5.63758,-12.695313 12.69531,-12.695313 z"
         id="path2"
         inkscape:label="Outline" /><path
         style="color:#000000;display:inline;fill:#ffffff;stroke-linecap:round;stroke-linejoin:round;-inkscape-stroke:none;paint-order:stroke fill markers"
         d="m 149.37507,84.214584 h 17.91721 c 7.80913,0 14.0959,6.286768 14.0959,14.095891 V 99.0771 c 0,7.80912 -6.28677,14.09589 -14.0959,14.09589 h -17.91721 c -7.80913,0 -14.0959,-6.28677 -14.0959,-14.09589 v -0.766625 c 0,-7.809123 6.28677,-14.095891 14.0959,-14.095891 z"
         id="path3"
         inkscape:label="Shape" /><path
         id="path8"
         style="color:#000000;fill:#808080;stroke-width:0.64873;stroke-linecap:round;stroke-linejoin:round;-inkscape-stroke:none;paint-order:stroke fill markers"
         d="m 151.02897,90.109823 a 0.43316964,0.37754598 0 0 0 -0.21662,0.0505 0.43316964,0.37754598 0 0 0 -0.21698,0.32631 v 16.412747 a 0.43316964,0.37754598 0 0 0 0.64987,0.32775 l 16.30793,-8.206927 a 0.43316964,0.37754598 0 0 0 0,-0.65404 l -16.30793,-8.20586 a 0.43316964,0.37754598 0 0 0 -0.21627,-0.0505 z"
         inkscape:label="Symbol Arrow" /></g></g></svg>
