<?xml version="1.0" encoding="UTF-8" standalone="no"?>
<!-- Created with Inkscape (http://www.inkscape.org/) -->

<svg
   width="59.585381mm"
   height="59.031681mm"
   viewBox="0 0 59.585378 59.031681"
   version="1.1"
   id="svg1"
   inkscape:version="1.3.2 (091e20e, 2023-11-25, custom)"
   sodipodi:docname="ps-L2.svg"
   xmlns:inkscape="http://www.inkscape.org/namespaces/inkscape"
   xmlns:sodipodi="http://sodipodi.sourceforge.net/DTD/sodipodi-0.dtd"
   xmlns="http://www.w3.org/2000/svg"
   xmlns:svg="http://www.w3.org/2000/svg">
  <sodipodi:namedview
     id="namedview1"
     pagecolor="#91ff95"
     bordercolor="#000000"
     borderopacity="0.25"
     inkscape:showpageshadow="2"
     inkscape:pageopacity="0.0"
     inkscape:pagecheckerboard="0"
     inkscape:deskcolor="#d1d1d1"
     inkscape:document-units="mm"
     inkscape:zoom="2.0703423"
     inkscape:cx="62.550043"
     inkscape:cy="127.75665"
     inkscape:window-width="2560"
     inkscape:window-height="1351"
     inkscape:window-x="-9"
     inkscape:window-y="-9"
     inkscape:window-maximized="1"
     inkscape:current-layer="g1" />
  <defs
     id="defs1">
    <rect
       x="360.04303"
       y="190.72911"
       width="206.08942"
       height="106.00632"
       id="rect4" />
    <rect
       x="360.04303"
       y="190.72911"
       width="206.08942"
       height="106.00632"
       id="rect3" />
    <rect
       x="360.04303"
       y="190.72911"
       width="206.08942"
       height="106.00632"
       id="rect11" />
    <rect
       x="360.04303"
       y="190.72911"
       width="206.08942"
       height="106.00632"
       id="rect12" />
    <rect
       x="360.04303"
       y="190.72911"
       width="206.08942"
       height="106.00632"
       id="rect15" />
    <rect
       x="360.04303"
       y="190.72911"
       width="206.08942"
       height="106.00632"
       id="rect16" />
    <rect
       x="360.04303"
       y="190.72911"
       width="206.08942"
       height="106.00632"
       id="rect17" />
    <rect
       x="360.04303"
       y="190.72911"
       width="206.08942"
       height="106.00632"
       id="rect18" />
    <rect
       x="360.04303"
       y="190.72911"
       width="206.08942"
       height="106.00632"
       id="rect19" />
    <rect
       x="360.04303"
       y="190.72911"
       width="206.08942"
       height="106.00632"
       id="rect20" />
    <rect
       x="360.04303"
       y="190.72911"
       width="206.08942"
       height="106.00632"
       id="rect21" />
    <rect
       x="360.04303"
       y="190.72911"
       width="206.08942"
       height="106.00632"
       id="rect22" />
    <rect
       x="360.04303"
       y="190.72911"
       width="206.08942"
       height="106.00632"
       id="rect2" />
    <rect
       x="360.04303"
       y="190.72911"
       width="206.08942"
       height="106.00632"
       id="rect5" />
    <rect
       x="360.04303"
       y="190.72911"
       width="206.08942"
       height="106.00632"
       id="rect6" />
    <rect
       x="360.04303"
       y="190.72911"
       width="206.08942"
       height="106.00632"
       id="rect7" />
    <rect
       x="360.04303"
       y="190.72911"
       width="206.08942"
       height="106.00632"
       id="rect8" />
    <rect
       x="360.04303"
       y="190.72911"
       width="206.08942"
       height="106.00632"
       id="rect9" />
  </defs>
  <g
     id="g1"
     inkscape:label="Button Prompt L2"
     transform="translate(-6.4507011e-4,2.6e-4)">
    <g
       id="g9"
       inkscape:label="Style - Outline (White)"
       transform="translate(-179.12291,-102.12917)"
       style="display:none">
      <path
         style="color:#000000;display:inline;fill:#ffffff;stroke-linecap:round;-inkscape-stroke:none"
         d="m 208.9376,159.72555 c 15.31739,0 27.71334,-12.36733 28.29748,-27.95095 0.0696,-9.40301 0.0281,-18.80812 0.0281,-28.21172 h -56.65176 c 0.13752,9.40147 -0.20234,18.81161 0.0281,28.21172 0.58411,15.58362 12.98059,27.95095 28.29797,27.95095 z"
         id="path8"
         inkscape:label="Trigger Shape" />
      <path
         style="color:#000000;display:inline;fill:#030303;stroke-linecap:round;-inkscape-stroke:none"
         d="m 179.15625,102.12891 0.0215,1.45507 c 0.13681,9.35293 -0.20256,18.76851 0.0293,28.22657 v 0.008 0.01 c 0.61149,16.31397 13.64138,29.33204 29.73047,29.33204 16.0891,0 29.11895,-13.01811 29.73047,-29.33204 v -0.0215 -0.0215 c 0.0697,-9.4143 0.0293,-18.82329 0.0293,-28.22266 v -1.43359 z m 2.89062,2.86718 h 53.78125 c 0.004,8.91919 0.0383,17.83374 -0.0273,26.73828 -0.56368,14.8466 -12.32223,26.55665 -26.86328,26.55665 -14.54564,0 -26.3085,-11.71707 -26.86523,-26.57032 -0.2163,-8.85369 0.0615,-17.77319 -0.0254,-26.72461 z"
         id="path9"
         inkscape:label="Outline"
         transform="translate(1.2708334e-6)" />
      <path
         style="font-weight:500;font-size:31.0372px;line-height:0;font-family:'open sans';-inkscape-font-specification:'open sans Medium';letter-spacing:0px;word-spacing:0px;display:inline;fill:#000000;fill-opacity:1;stroke-width:2.825;stroke-linecap:round"
         d="M 0.41680264,22.391371 V 0.23493227 H 3.5235536 V 19.693802 h 9.6233514 v 2.697569 z m 29.77934636,0 H 15.435292 v -2.394472 l 5.83463,-5.925559 q 1.667038,-1.682192 2.758189,-2.940047 1.106307,-1.2730111 1.667038,-2.4550907 0.56073,-1.197236 0.56073,-2.60664 0,-1.727657 -1.015377,-2.63695 -1.015377,-0.909293 -2.697569,-0.909293 -1.515489,0 -2.743034,0.560731 -1.212391,0.545575 -2.515711,1.576107 l -1.636727,-2.030754 q 0.894138,-0.757744 1.939825,-1.363939 1.045687,-0.62135103 2.288387,-0.98506803 1.242701,-0.36371699 2.758189,-0.36371699 2.076219,0 3.576553,0.72743399 1.515488,0.72743503 2.333852,2.06106503 0.818363,1.333629 0.818363,3.121905 0,1.773122 -0.712279,3.28861 -0.697125,1.5003337 -1.98529,2.9855117 -1.288165,1.485179 -3.046131,3.167371 l -4.319142,4.273677 v 0.136394 h 10.896361 z"
         id="path2"
         inkscape:label="Symbol L2"
         aria-label="L2"
         transform="translate(194.51323,117.81477)" />
    </g>
    <g
       id="path3"
       inkscape:label="Style - Outline (Black)"
       transform="translate(-179.12291,-102.12917)"
       style="display:none">
      <path
         style="color:#000000;display:inline;fill:#000000;fill-opacity:1;stroke-linecap:round;-inkscape-stroke:none"
         d="m 208.9376,159.72555 c 15.31739,0 27.71334,-12.36733 28.29748,-27.95095 0.0696,-9.40301 0.0281,-18.80812 0.0281,-28.21172 h -56.65176 c 0.13752,9.40147 -0.20234,18.81161 0.0281,28.21172 0.58411,15.58362 12.98059,27.95095 28.29797,27.95095 z"
         id="path6"
         inkscape:label="Trigger Shape" />
      <path
         style="color:#000000;display:inline;fill:#ffffff;fill-opacity:1;stroke-linecap:round;-inkscape-stroke:none"
         d="m 179.15625,102.12891 0.0215,1.45507 c 0.13681,9.35293 -0.20256,18.76851 0.0293,28.22657 v 0.008 0.01 c 0.61149,16.31397 13.64138,29.33204 29.73047,29.33204 16.0891,0 29.11895,-13.01811 29.73047,-29.33204 v -0.0215 -0.0215 c 0.0697,-9.4143 0.0293,-18.82329 0.0293,-28.22266 v -1.43359 z m 2.89062,2.86718 h 53.78125 c 0.004,8.91919 0.0383,17.83374 -0.0273,26.73828 -0.56368,14.8466 -12.32223,26.55665 -26.86328,26.55665 -14.54564,0 -26.3085,-11.71707 -26.86523,-26.57032 -0.2163,-8.85369 0.0615,-17.77319 -0.0254,-26.72461 z"
         id="path7"
         inkscape:label="Outline"
         transform="translate(1.2708334e-6)" />
      <path
         style="font-weight:500;font-size:31.0372px;line-height:0;font-family:'open sans';-inkscape-font-specification:'open sans Medium';letter-spacing:0px;word-spacing:0px;display:inline;fill:#ffffff;fill-opacity:1;stroke-width:2.825;stroke-linecap:round"
         d="M 0.41680264,22.391371 V 0.23493227 H 3.5235536 V 19.693802 h 9.6233514 v 2.697569 z m 29.77934636,0 H 15.435292 v -2.394472 l 5.83463,-5.925559 q 1.667038,-1.682192 2.758189,-2.940047 1.106307,-1.2730111 1.667038,-2.4550907 0.56073,-1.197236 0.56073,-2.60664 0,-1.727657 -1.015377,-2.63695 -1.015377,-0.909293 -2.697569,-0.909293 -1.515489,0 -2.743034,0.560731 -1.212391,0.545575 -2.515711,1.576107 l -1.636727,-2.030754 q 0.894138,-0.757744 1.939825,-1.363939 1.045687,-0.62135103 2.288387,-0.98506803 1.242701,-0.36371699 2.758189,-0.36371699 2.076219,0 3.576553,0.72743399 1.515488,0.72743503 2.333852,2.06106503 0.818363,1.333629 0.818363,3.121905 0,1.773122 -0.712279,3.28861 -0.697125,1.5003337 -1.98529,2.9855117 -1.288165,1.485179 -3.046131,3.167371 l -4.319142,4.273677 v 0.136394 h 10.896361 z"
         id="text1"
         inkscape:label="Symbol L2"
         aria-label="L2"
         transform="translate(194.51323,117.81477)" />
    </g>
    <g
       id="path20"
       inkscape:label="Style - Transparent"
       transform="translate(-179.12291,-102.12917)"
       style="display:inline">
      <path
         style="color:#000000;display:inline;fill:#808080;fill-opacity:0.501961;stroke-linecap:round;-inkscape-stroke:none;paint-order:stroke fill markers"
         d="m 179.15625,102.12891 0.0215,1.45507 c 0.13681,9.35293 -0.20256,18.76851 0.0293,28.22657 v 0.008 0.01 c 0.61149,16.31397 13.64138,29.33204 29.73047,29.33204 16.0891,0 29.11895,-13.01811 29.73047,-29.33204 v -0.0215 -0.0215 c 0.0697,-9.4143 0.0293,-18.82329 0.0293,-28.22266 v -1.43359 z m 2.89062,2.86718 h 53.78125 c 0.004,8.91919 0.0383,17.83374 -0.0273,26.73828 -0.56368,14.8466 -12.32223,26.55665 -26.86328,26.55665 -14.54564,0 -26.3085,-11.71707 -26.86523,-26.57032 -0.2163,-8.85369 0.0615,-17.77319 -0.0254,-26.72461 z"
         id="path4"
         inkscape:label="Outline" />
      <path
         style="color:#000000;display:inline;fill:#ffffff;stroke-linecap:round;-inkscape-stroke:none;paint-order:stroke fill markers"
         d="m 208.9376,159.72555 c 15.31739,0 27.71334,-12.36733 28.29748,-27.95095 0.0696,-9.40301 0.0281,-18.80812 0.0281,-28.21172 h -56.65176 c 0.13752,9.40147 -0.20234,18.81161 0.0281,28.21172 0.58411,15.58362 12.98059,27.95095 28.29797,27.95095 z"
         id="path5"
         inkscape:label="Trigger Shape" />
      <path
         style="font-weight:500;font-size:31.0372px;line-height:0;font-family:'open sans';-inkscape-font-specification:'open sans Medium';letter-spacing:0px;word-spacing:0px;fill:#808080;stroke-width:2.825;stroke-linecap:round"
         d="M 0.41680264,22.391371 V 0.23493227 H 3.5235536 V 19.693802 h 9.6233514 v 2.697569 z m 29.77934636,0 H 15.435292 v -2.394472 l 5.83463,-5.925559 q 1.667038,-1.682192 2.758189,-2.940047 1.106307,-1.2730111 1.667038,-2.4550907 0.56073,-1.197236 0.56073,-2.60664 0,-1.727657 -1.015377,-2.63695 -1.015377,-0.909293 -2.697569,-0.909293 -1.515489,0 -2.743034,0.560731 -1.212391,0.545575 -2.515711,1.576107 l -1.636727,-2.030754 q 0.894138,-0.757744 1.939825,-1.363939 1.045687,-0.62135103 2.288387,-0.98506803 1.242701,-0.36371699 2.758189,-0.36371699 2.076219,0 3.576553,0.72743399 1.515488,0.72743503 2.333852,2.06106503 0.818363,1.333629 0.818363,3.121905 0,1.773122 -0.712279,3.28861 -0.697125,1.5003337 -1.98529,2.9855117 -1.288165,1.485179 -3.046131,3.167371 l -4.319142,4.273677 v 0.136394 h 10.896361 z"
         id="path1"
         inkscape:label="Symbol L2"
         aria-label="L2"
         transform="translate(194.51323,117.81477)" />
    </g>
  </g>
</svg>
