<?xml version="1.0" encoding="UTF-8" standalone="no"?>
<!-- Created with Inkscape (http://www.inkscape.org/) -->

<svg
   width="45.529301mm"
   height="45.529289mm"
   viewBox="0 0 45.529302 45.529289"
   version="1.1"
   id="svg1"
   sodipodi:docname="shared-Guide.svg"
   inkscape:version="1.3.2 (091e20e, 2023-11-25, custom)"
   xmlns:inkscape="http://www.inkscape.org/namespaces/inkscape"
   xmlns:sodipodi="http://sodipodi.sourceforge.net/DTD/sodipodi-0.dtd"
   xmlns="http://www.w3.org/2000/svg"
   xmlns:svg="http://www.w3.org/2000/svg"
   xmlns:rdf="http://www.w3.org/1999/02/22-rdf-syntax-ns#"
   xmlns:cc="http://creativecommons.org/ns#">
  <sodipodi:namedview
     id="namedview1"
     pagecolor="#3e8d2e"
     bordercolor="#000000"
     borderopacity="0.25"
     inkscape:showpageshadow="true"
     inkscape:pageopacity="0.0"
     inkscape:pagecheckerboard="false"
     inkscape:deskcolor="#d1d1d1"
     inkscape:document-units="mm"
     inkscape:zoom="4"
     inkscape:cx="67.875"
     inkscape:cy="89.875"
     inkscape:window-width="2560"
     inkscape:window-height="1351"
     inkscape:window-x="-9"
     inkscape:window-y="-9"
     inkscape:window-maximized="1"
     inkscape:current-layer="layer1"
     labelstyle="default"
     showborder="true" />
  <defs
     id="defs1">
    <rect
       x="-329.58707"
       y="426.24316"
       width="115.7824"
       height="107.24387"
       id="rect2" />
    <rect
       x="-486.35437"
       y="484.30515"
       width="87.776039"
       height="93.582237"
       id="rect1" />
  </defs>
  <g
     inkscape:label="Button Prompt Guide Button"
     id="layer1"
     transform="translate(139.87891,-115.24219)"
     style="display:inline">
    <g
       id="path1"
       inkscape:label="Style - Outline (White)"
       style="display:none">
      <path
         style="color:#000000;display:inline;fill:#ffffff;fill-opacity:1;stroke-linecap:round;stroke-linejoin:round;-inkscape-stroke:none"
         d="m -95.899378,138.00743 a 21.214285,21.214285 0 0 1 -21.214282,21.21429 21.214285,21.214285 0 0 1 -21.21429,-21.21429 21.214285,21.214285 0 0 1 21.21429,-21.21428 21.214285,21.214285 0 0 1 21.214282,21.21428 z"
         id="path3"
         inkscape:label="Circle" />
      <path
         style="color:#000000;display:inline;fill:#000000;fill-opacity:1;stroke-linecap:round;stroke-linejoin:round;-inkscape-stroke:none"
         d="m -117.11328,115.24219 c -12.554,0 -22.76563,10.21163 -22.76563,22.76562 0,12.554 10.21163,22.76367 22.76563,22.76367 12.55399,0 22.763671,-10.20967 22.763671,-22.76367 0,-12.55399 -10.209681,-22.76562 -22.763671,-22.76562 z m 0,3.10156 c 10.87863,0 19.664061,8.78543 19.664061,19.66406 0,10.87864 -8.785431,19.66406 -19.664061,19.66406 -10.87863,0 -19.66406,-8.78542 -19.66406,-19.66406 0,-10.87863 8.78543,-19.66406 19.66406,-19.66406 z"
         id="path4"
         inkscape:label="Outline" />
      <path
         id="path16"
         style="color:#000000;display:inline;fill:#cdcdcd;fill-opacity:1;stroke-width:0.3794;stroke-linecap:round;stroke-linejoin:round;-inkscape-stroke:none;paint-order:stroke fill markers"
         inkscape:label="Door Color"
         d="m -113.09602,150.13515 v -8.13068 c 0,-1.1588 -0.92545,-2.09202 -2.07491,-2.09202 h -3.88644 c -1.14946,0 -2.07491,0.93322 -2.07491,2.09202 v 8.13068 z" />
      <path
         id="path15"
         style="color:#000000;display:inline;fill:#000000;fill-opacity:1;stroke-width:0.355098;stroke-linecap:round;stroke-linejoin:round;-inkscape-stroke:none;paint-order:stroke fill markers"
         inkscape:label="House Color"
         d="m -117.32835,124.07834 a 0.83883307,0.83883307 0 0 0 -0.37259,0.21188 l -6.54843,6.41924 -6.54844,6.41977 a 0.83883307,0.83883307 0 0 0 0.58704,1.43712 h 2.16886 v 10.73009 a 0.83883307,0.83883307 0 0 0 0.83871,0.83871 h 6.3283 v -7.60987 c 0,-1.08458 0.86617,-1.95802 1.942,-1.95802 h 3.6375 c 1.07583,0 1.942,0.87344 1.942,1.95802 v 7.60987 h 6.3283 a 0.83883307,0.83883307 0 0 0 0.83819,-0.83871 v -10.73009 h 2.16886 a 0.83883307,0.83883307 0 0 0 0.58756,-1.43712 l -6.54844,-6.41977 -6.54792,-6.41924 a 0.83883307,0.83883307 0 0 0 -0.8015,-0.21188 z"
         transform="translate(1.25e-6)" />
    </g>
    <g
       id="g6"
       inkscape:label="Style - Outline (Black)"
       style="display:none">
      <path
         style="color:#000000;display:inline;fill:#000000;fill-opacity:1;stroke-linecap:round;stroke-linejoin:round;-inkscape-stroke:none"
         d="m -95.899378,138.00743 a 21.214285,21.214285 0 0 1 -21.214282,21.21429 21.214285,21.214285 0 0 1 -21.21429,-21.21429 21.214285,21.214285 0 0 1 21.21429,-21.21428 21.214285,21.214285 0 0 1 21.214282,21.21428 z"
         id="path5"
         inkscape:label="Circle" />
      <path
         style="color:#000000;display:inline;fill:#ffffff;fill-opacity:1;stroke-linecap:round;stroke-linejoin:round;-inkscape-stroke:none"
         d="m -117.11328,115.24219 c -12.554,0 -22.76563,10.21163 -22.76563,22.76562 0,12.554 10.21163,22.76367 22.76563,22.76367 12.55399,0 22.763671,-10.20967 22.763671,-22.76367 0,-12.55399 -10.209681,-22.76562 -22.763671,-22.76562 z m 0,3.10156 c 10.87863,0 19.664061,8.78543 19.664061,19.66406 0,10.87864 -8.785431,19.66406 -19.664061,19.66406 -10.87863,0 -19.66406,-8.78542 -19.66406,-19.66406 0,-10.87863 8.78543,-19.66406 19.66406,-19.66406 z"
         id="path6"
         inkscape:label="Outline" />
      <path
         id="path17"
         style="color:#000000;display:inline;fill:#343434;fill-opacity:1;stroke-width:0.3794;stroke-linecap:round;stroke-linejoin:round;-inkscape-stroke:none;paint-order:stroke fill markers"
         inkscape:label="Door Color"
         d="m -113.09602,150.13515 v -8.13068 c 0,-1.1588 -0.92545,-2.09202 -2.07491,-2.09202 h -3.88644 c -1.14946,0 -2.07491,0.93322 -2.07491,2.09202 v 8.13068 z"
         transform="translate(1.25e-6)" />
      <path
         id="path13"
         style="color:#000000;display:inline;fill:#ffffff;fill-opacity:1;stroke-width:0.355098;stroke-linecap:round;stroke-linejoin:round;-inkscape-stroke:none;paint-order:stroke fill markers"
         inkscape:label="House Color"
         d="m -117.32835,124.07834 a 0.83883307,0.83883307 0 0 0 -0.37259,0.21188 l -6.54843,6.41924 -6.54844,6.41977 a 0.83883307,0.83883307 0 0 0 0.58704,1.43712 h 2.16886 v 10.73009 a 0.83883307,0.83883307 0 0 0 0.83871,0.83871 h 6.3283 v -7.60987 c 0,-1.08458 0.86617,-1.95802 1.942,-1.95802 h 3.6375 c 1.07583,0 1.942,0.87344 1.942,1.95802 v 7.60987 h 6.3283 a 0.83883307,0.83883307 0 0 0 0.83819,-0.83871 v -10.73009 h 2.16886 a 0.83883307,0.83883307 0 0 0 0.58756,-1.43712 l -6.54844,-6.41977 -6.54792,-6.41924 a 0.83883307,0.83883307 0 0 0 -0.8015,-0.21188 z"
         transform="translate(1.25e-6)" />
    </g>
    <g
       id="g8"
       inkscape:label="Style - Transparent"
       style="display:inline;fill:#ffffff;fill-opacity:1">
      <path
         style="color:#000000;display:inline;fill:#808080;fill-opacity:0.501031;stroke-linecap:round;stroke-linejoin:round;-inkscape-stroke:none;paint-order:stroke markers fill"
         d="m -117.11328,115.24219 c -12.554,-10e-6 -22.76562,10.21163 -22.76563,22.76562 0,12.554 10.21163,22.76368 22.76563,22.76367 12.554,0 22.763674,-10.20967 22.763671,-22.76367 -3e-6,-12.55399 -10.209681,-22.76562 -22.763671,-22.76562 z m 0,3.10156 c 10.87863,0 19.664059,8.78543 19.664061,19.66406 3e-6,10.87864 -8.785431,19.66406 -19.664061,19.66406 -10.87864,10e-6 -19.66407,-8.78542 -19.66406,-19.66406 0,-10.87863 8.78543,-19.66406 19.66406,-19.66406 z"
         id="path9"
         inkscape:label="Outline" />
      <path
         style="color:#000000;display:inline;stroke-linecap:round;stroke-linejoin:round;-inkscape-stroke:none;paint-order:stroke markers fill"
         d="m -95.899378,138.00743 a 21.214285,21.214285 0 0 1 -21.214282,21.21429 21.214285,21.214285 0 0 1 -21.21429,-21.21429 21.214285,21.214285 0 0 1 21.21429,-21.21428 21.214285,21.214285 0 0 1 21.214282,21.21428 z"
         id="path10"
         inkscape:label="Circle" />
      <path
         id="path18"
         style="color:#000000;display:inline;fill:#cbcbcb;fill-opacity:1;stroke-width:0.3794;stroke-linecap:round;stroke-linejoin:round;-inkscape-stroke:none;paint-order:stroke fill markers"
         inkscape:label="Door Color"
         d="m -113.09613,150.13515 v -8.13068 c 0,-1.1588 -0.92545,-2.09202 -2.07491,-2.09202 h -3.88644 c -1.14946,0 -2.07491,0.93322 -2.07491,2.09202 v 8.13068 z" />
      <path
         id="path12"
         style="color:#000000;display:inline;fill:#808080;stroke-width:0.355098;stroke-linecap:round;stroke-linejoin:round;-inkscape-stroke:none;paint-order:stroke fill markers"
         inkscape:label="House Color"
         d="m -117.32846,124.07834 a 0.83883307,0.83883307 0 0 0 -0.37259,0.21188 l -6.54843,6.41924 -6.54844,6.41977 a 0.83883307,0.83883307 0 0 0 0.58704,1.43712 h 2.16886 v 10.73009 a 0.83883307,0.83883307 0 0 0 0.83871,0.83871 h 6.3283 v -7.60987 c 0,-1.08458 0.86617,-1.95802 1.942,-1.95802 h 3.6375 c 1.07583,0 1.942,0.87344 1.942,1.95802 v 7.60987 h 6.3283 a 0.83883307,0.83883307 0 0 0 0.83819,-0.83871 v -10.73009 h 2.16886 a 0.83883307,0.83883307 0 0 0 0.58756,-1.43712 l -6.54844,-6.41977 -6.54792,-6.41924 a 0.83883307,0.83883307 0 0 0 -0.8015,-0.21188 z" />
    </g>
  </g>
  <metadata
     id="metadata8">
    <rdf:RDF>
      <cc:Work
         rdf:about="">
        <cc:license
           rdf:resource="https://opensource.org/license/mit" />
      </cc:Work>
    </rdf:RDF>
  </metadata>
</svg>
