<?xml version="1.0" encoding="UTF-8" standalone="no"?>
<!-- Created with Inkscape (http://www.inkscape.org/) -->

<svg
   width="31.757999mm"
   height="28.053219mm"
   viewBox="0 0 31.758 28.053218"
   version="1.1"
   id="svg1"
   inkscape:version="1.3.2 (091e20e, 2023-11-25, custom)"
   sodipodi:docname="shared-M3.svg"
   xmlns:inkscape="http://www.inkscape.org/namespaces/inkscape"
   xmlns:sodipodi="http://sodipodi.sourceforge.net/DTD/sodipodi-0.dtd"
   xmlns="http://www.w3.org/2000/svg"
   xmlns:svg="http://www.w3.org/2000/svg">
  <sodipodi:namedview
     id="namedview1"
     pagecolor="#7fff8a"
     bordercolor="#000000"
     borderopacity="0.25"
     inkscape:showpageshadow="2"
     inkscape:pageopacity="0.0"
     inkscape:pagecheckerboard="0"
     inkscape:deskcolor="#d1d1d1"
     inkscape:document-units="mm"
     inkscape:zoom="3.9910213"
     inkscape:cx="55.123735"
     inkscape:cy="90.7036"
     inkscape:window-width="1542"
     inkscape:window-height="1258"
     inkscape:window-x="719"
     inkscape:window-y="50"
     inkscape:window-maximized="0"
     inkscape:current-layer="rect7" />
  <defs
     id="defs1" />
  <g
     inkscape:label="Button Prompts M3"
     id="layer1"
     transform="matrix(0.97775682,0,0,0.97775682,-106.58364,-66.226728)"
     style="display:inline">
    <g
       id="rect7"
       inkscape:label="Style - Outline (White)"
       style="display:none"
       transform="translate(81.617709,67.733333)">
      <path
         style="color:#000000;display:inline;fill:#ffffff;stroke-linecap:round;stroke-linejoin:round;-inkscape-stroke:none"
         d="m 34.906566,0.80000001 h 17.44856 c 3.720813,0 6.71627,2.99545639 6.71627,6.71626999 v 13.658284 c 0,3.720814 -2.995457,6.71627 -6.71627,6.71627 h -17.44856 c -3.720813,0 -6.71627,-2.995456 -6.71627,-6.71627 V 7.51627 c 0,-3.7208136 2.995457,-6.71626999 6.71627,-6.71626999 z"
         id="path12"
         inkscape:label="Color" />
      <path
         style="color:#000000;display:inline;fill:#000000;stroke-linecap:round;stroke-linejoin:round;-inkscape-stroke:none"
         d="m 34.90625,0 c -4.150172,0 -7.515625,3.3654534 -7.515625,7.515625 v 13.658203 c 0,4.150172 3.365453,7.517578 7.515625,7.517578 h 17.449219 c 4.150171,0 7.515625,-3.367406 7.515625,-7.517578 V 7.515625 C 59.871094,3.3654534 56.50564,0 52.355469,0 Z m 0,1.5996094 h 17.449219 c 3.291448,0 5.916015,2.6245675 5.916015,5.9160156 v 13.658203 c 0,3.291448 -2.624567,5.917969 -5.916015,5.917969 H 34.90625 c -3.291448,0 -5.916016,-2.626521 -5.916016,-5.917969 V 7.515625 c 0,-3.2914481 2.624568,-5.9160156 5.916016,-5.9160156 z"
         id="path13"
         inkscape:label="Outline" />
      <path
         d="M 10.98024,19.182629 7.7660922,10.322578 h -0.05639 q 0.02114,0.288992 0.0423,0.747148 0.02819,0.451108 0.0423,0.9868 0.02114,0.528643 0.02114,1.043188 v 6.082915 H 6.4903092 V 8.8776204 h 2.079328 l 3.0520298,8.3948466 h 0.04935 l 3.129566,-8.3948466 h 2.065231 V 19.182629 h -1.395617 v -6.167498 q 0,-0.465205 0.01409,-0.965654 0.01409,-0.507498 0.03525,-0.958606 0.0282,-0.458156 0.04935,-0.754196 h -0.06344 l -3.29168,8.845954 z m 13.977312,-7.929641 q 0,0.697808 -0.274895,1.212355 -0.274894,0.507496 -0.761244,0.831731 -0.486353,0.324234 -1.127771,0.458156 v 0.04935 q 1.22645,0.155068 1.846724,0.78239 0.627324,0.627324 0.627324,1.656414 0,0.895169 -0.422915,1.592977 -0.422915,0.697809 -1.303985,1.092527 -0.874023,0.394721 -2.248494,0.394721 -0.824683,0 -1.529539,-0.133922 -0.704857,-0.133924 -1.339229,-0.429964 v -1.289888 q 0.641421,0.324233 1.388568,0.507495 0.747148,0.176215 1.437908,0.176215 1.346278,0 1.931309,-0.521593 0.592079,-0.521594 0.592079,-1.437908 0,-0.606178 -0.317185,-0.9868 -0.317186,-0.387672 -0.944508,-0.570935 -0.620275,-0.183263 -1.550686,-0.183263 h -0.965654 v -1.170061 h 0.97975 q 0.866975,0 1.423812,-0.225555 0.563887,-0.232602 0.838779,-0.648468 0.274896,-0.415866 0.274896,-0.972703 0,-0.726003 -0.479304,-1.120723 -0.472254,-0.4017666 -1.339228,-0.4017666 -0.535691,0 -0.979751,0.1198256 -0.437011,0.112777 -0.817634,0.303088 -0.373574,0.190311 -0.726002,0.429961 L 18.472868,9.7868954 q 0.570934,-0.437011 1.38152,-0.747149 0.817633,-0.310137 1.86787,-0.310137 1.585929,0 2.410611,0.697809 0.824683,0.6978076 0.824683,1.8255776 z"
         id="text4"
         style="font-weight:500;font-size:12.7px;line-height:0;font-family:'open sans';-inkscape-font-specification:'open sans Medium';letter-spacing:-0.396875px;word-spacing:0px;display:inline;fill:#000000;stroke-width:1.70498;stroke-linecap:round;stroke-linejoin:round"
         aria-label="M3"
         inkscape:label="Symbol M3"
         transform="matrix(1.0227492,0,0,1.0227492,27.390621,0)" />
    </g>
    <g
       id="rect8"
       inkscape:label="Style - Outline (Black)"
       style="display:none"
       transform="translate(81.617709,67.733333)">
      <path
         style="color:#000000;display:inline;fill:#000000;stroke-linecap:round;stroke-linejoin:round;-inkscape-stroke:none"
         d="m 34.906566,0.80000001 h 17.44856 c 3.720813,0 6.71627,2.99545639 6.71627,6.71626999 v 13.658284 c 0,3.720814 -2.995457,6.71627 -6.71627,6.71627 h -17.44856 c -3.720813,0 -6.71627,-2.995456 -6.71627,-6.71627 V 7.51627 c 0,-3.7208136 2.995457,-6.71626999 6.71627,-6.71626999 z"
         id="path10"
         inkscape:label="Color" />
      <path
         style="color:#000000;display:inline;fill:#ffffff;stroke-linecap:round;stroke-linejoin:round;-inkscape-stroke:none"
         d="m 34.90625,0 c -4.150172,0 -7.515625,3.3654534 -7.515625,7.515625 v 13.658203 c 0,4.150172 3.365453,7.517578 7.515625,7.517578 h 17.449219 c 4.150171,0 7.515625,-3.367406 7.515625,-7.517578 V 7.515625 C 59.871094,3.3654534 56.50564,0 52.355469,0 Z m 0,1.5996094 h 17.449219 c 3.291448,0 5.916015,2.6245675 5.916015,5.9160156 v 13.658203 c 0,3.291448 -2.624567,5.917969 -5.916015,5.917969 H 34.90625 c -3.291448,0 -5.916016,-2.626521 -5.916016,-5.917969 V 7.515625 c 0,-3.2914481 2.624568,-5.9160156 5.916016,-5.9160156 z"
         id="path11"
         inkscape:label="Outline" />
      <path
         d="M 10.98024,19.182629 7.7660922,10.322578 h -0.05639 q 0.02114,0.288992 0.0423,0.747148 0.02819,0.451108 0.0423,0.9868 0.02114,0.528643 0.02114,1.043188 v 6.082915 H 6.4903092 V 8.8776204 h 2.079328 l 3.0520298,8.3948466 h 0.04935 l 3.129566,-8.3948466 h 2.065231 V 19.182629 h -1.395617 v -6.167498 q 0,-0.465205 0.01409,-0.965654 0.01409,-0.507498 0.03525,-0.958606 0.0282,-0.458156 0.04935,-0.754196 h -0.06344 l -3.29168,8.845954 z m 13.977312,-7.929641 q 0,0.697808 -0.274895,1.212355 -0.274894,0.507496 -0.761244,0.831731 -0.486353,0.324234 -1.127771,0.458156 v 0.04935 q 1.22645,0.155068 1.846724,0.78239 0.627324,0.627324 0.627324,1.656414 0,0.895169 -0.422915,1.592977 -0.422915,0.697809 -1.303985,1.092527 -0.874023,0.394721 -2.248494,0.394721 -0.824683,0 -1.529539,-0.133922 -0.704857,-0.133924 -1.339229,-0.429964 v -1.289888 q 0.641421,0.324233 1.388568,0.507495 0.747148,0.176215 1.437908,0.176215 1.346278,0 1.931309,-0.521593 0.592079,-0.521594 0.592079,-1.437908 0,-0.606178 -0.317185,-0.9868 -0.317186,-0.387672 -0.944508,-0.570935 -0.620275,-0.183263 -1.550686,-0.183263 h -0.965654 v -1.170061 h 0.97975 q 0.866975,0 1.423812,-0.225555 0.563887,-0.232602 0.838779,-0.648468 0.274896,-0.415866 0.274896,-0.972703 0,-0.726003 -0.479304,-1.120723 -0.472254,-0.4017666 -1.339228,-0.4017666 -0.535691,0 -0.979751,0.1198256 -0.437011,0.112777 -0.817634,0.303088 -0.373574,0.190311 -0.726002,0.429961 L 18.472868,9.7868954 q 0.570934,-0.437011 1.38152,-0.747149 0.817633,-0.310137 1.86787,-0.310137 1.585929,0 2.410611,0.697809 0.824683,0.6978076 0.824683,1.8255776 z"
         id="path6"
         style="font-weight:500;font-size:12.7px;line-height:0;font-family:'open sans';-inkscape-font-specification:'open sans Medium';letter-spacing:-0.396875px;word-spacing:0px;display:inline;fill:#ffffff;stroke-width:1.70498;stroke-linecap:round;stroke-linejoin:round"
         aria-label="M3"
         inkscape:label="Symbol M3"
         transform="matrix(1.0227492,0,0,1.0227492,27.390621,0)" />
    </g>
    <g
       id="rect1"
       inkscape:label="Style - Transparent"
       style="display:inline"
       transform="translate(81.617709,67.733333)">
      <path
         style="color:#000000;fill:#808080;fill-opacity:0.501961;stroke-linecap:round;stroke-linejoin:round;-inkscape-stroke:none;paint-order:stroke fill markers"
         d="m 34.90625,0 c -4.150172,0 -7.515625,3.3654534 -7.515625,7.515625 v 13.658203 c 0,4.150172 3.365453,7.517578 7.515625,7.517578 h 17.449219 c 4.150171,0 7.515625,-3.367406 7.515625,-7.517578 V 7.515625 C 59.871094,3.3654534 56.50564,0 52.355469,0 Z m 0,1.5996094 h 17.449219 c 3.291448,0 5.916015,2.6245675 5.916015,5.9160156 v 13.658203 c 0,3.291448 -2.624567,5.917969 -5.916015,5.917969 H 34.90625 c -3.291448,0 -5.916016,-2.626521 -5.916016,-5.917969 V 7.515625 c 0,-3.2914481 2.624568,-5.9160156 5.916016,-5.9160156 z"
         id="path8"
         inkscape:label="Outline" />
      <path
         style="color:#000000;display:inline;fill:#ffffff;stroke-linecap:round;stroke-linejoin:round;-inkscape-stroke:none;paint-order:stroke fill markers"
         d="m 34.906566,0.80000001 h 17.44856 c 3.720813,0 6.71627,2.99545639 6.71627,6.71626999 v 13.658284 c 0,3.720814 -2.995457,6.71627 -6.71627,6.71627 h -17.44856 c -3.720813,0 -6.71627,-2.995456 -6.71627,-6.71627 V 7.51627 c 0,-3.7208136 2.995457,-6.71626999 6.71627,-6.71626999 z"
         id="path9"
         inkscape:label="Color" />
      <path
         d="M 10.98024,19.182629 7.7660922,10.322578 h -0.05639 q 0.02114,0.288992 0.0423,0.747148 0.02819,0.451108 0.0423,0.9868 0.02114,0.528643 0.02114,1.043188 v 6.082915 H 6.4903092 V 8.8776204 h 2.079328 l 3.0520298,8.3948466 h 0.04935 l 3.129566,-8.3948466 h 2.065231 V 19.182629 h -1.395617 v -6.167498 q 0,-0.465205 0.01409,-0.965654 0.01409,-0.507498 0.03525,-0.958606 0.0282,-0.458156 0.04935,-0.754196 h -0.06344 l -3.29168,8.845954 z m 13.977312,-7.929641 q 0,0.697808 -0.274895,1.212355 -0.274894,0.507496 -0.761244,0.831731 -0.486353,0.324234 -1.127771,0.458156 v 0.04935 q 1.22645,0.155068 1.846724,0.78239 0.627324,0.627324 0.627324,1.656414 0,0.895169 -0.422915,1.592977 -0.422915,0.697809 -1.303985,1.092527 -0.874023,0.394721 -2.248494,0.394721 -0.824683,0 -1.529539,-0.133922 -0.704857,-0.133924 -1.339229,-0.429964 v -1.289888 q 0.641421,0.324233 1.388568,0.507495 0.747148,0.176215 1.437908,0.176215 1.346278,0 1.931309,-0.521593 0.592079,-0.521594 0.592079,-1.437908 0,-0.606178 -0.317185,-0.9868 -0.317186,-0.387672 -0.944508,-0.570935 -0.620275,-0.183263 -1.550686,-0.183263 h -0.965654 v -1.170061 h 0.97975 q 0.866975,0 1.423812,-0.225555 0.563887,-0.232602 0.838779,-0.648468 0.274896,-0.415866 0.274896,-0.972703 0,-0.726003 -0.479304,-1.120723 -0.472254,-0.4017666 -1.339228,-0.4017666 -0.535691,0 -0.979751,0.1198256 -0.437011,0.112777 -0.817634,0.303088 -0.373574,0.190311 -0.726002,0.429961 L 18.472868,9.7868954 q 0.570934,-0.437011 1.38152,-0.747149 0.817633,-0.310137 1.86787,-0.310137 1.585929,0 2.410611,0.697809 0.824683,0.6978076 0.824683,1.8255776 z"
         id="path5"
         style="font-weight:500;font-size:12.7px;line-height:0;font-family:'open sans';-inkscape-font-specification:'open sans Medium';letter-spacing:-0.396875px;word-spacing:0px;display:inline;fill:#808080;stroke-width:1.70498;stroke-linecap:round;stroke-linejoin:round"
         aria-label="M3"
         inkscape:label="Symbol M3"
         transform="matrix(1.0227492,0,0,1.0227492,27.390621,0)" />
    </g>
  </g>
</svg>
