<?xml version="1.0" encoding="UTF-8" standalone="no"?>
<!-- Created with Inkscape (http://www.inkscape.org/) -->

<svg
   width="51.991203mm"
   height="51.990685mm"
   viewBox="0 0 51.991209 51.990686"
   version="1.1"
   id="svg1"
   inkscape:version="1.3.2 (091e20e, 2023-11-25, custom)"
   sodipodi:docname="shared-D-PAD Up.svg"
   xml:space="preserve"
   xmlns:inkscape="http://www.inkscape.org/namespaces/inkscape"
   xmlns:sodipodi="http://sodipodi.sourceforge.net/DTD/sodipodi-0.dtd"
   xmlns="http://www.w3.org/2000/svg"
   xmlns:svg="http://www.w3.org/2000/svg"><sodipodi:namedview
     id="namedview1"
     pagecolor="#7dff74"
     bordercolor="#000000"
     borderopacity="0.25"
     inkscape:showpageshadow="2"
     inkscape:pageopacity="0.0"
     inkscape:pagecheckerboard="0"
     inkscape:deskcolor="#d1d1d1"
     inkscape:document-units="mm"
     inkscape:zoom="4"
     inkscape:cx="93.625"
     inkscape:cy="104.625"
     inkscape:window-width="2560"
     inkscape:window-height="1351"
     inkscape:window-x="-9"
     inkscape:window-y="-9"
     inkscape:window-maximized="1"
     inkscape:current-layer="svg1" /><defs
     id="defs1" /><g
     id="layer1"
     inkscape:label="D-PAD Up"
     transform="translate(-2.7284201,-2.7290689)"><g
       id="g9"
       style="display:none"
       transform="translate(2.7284201,2.7290689)"
       inkscape:label="Style - Outline (White)"><path
         style="color:#000000;display:inline;fill:#ffffff;stroke-linecap:round;stroke-linejoin:round;-inkscape-stroke:none"
         d="m 19.620796,0.5 c -1.176474,0 -2.123384,0.94691 -2.123384,2.1233846 V 17.496895 H 2.623901 C 1.447427,17.496895 0.5,18.443805 0.5,19.62028 v 12.749609 c 0,1.176475 0.947427,2.123902 2.123901,2.123902 h 14.873511 v 14.87351 c 0,1.176475 0.94691,2.123385 2.123384,2.123385 h 12.74961 c 1.176474,0 2.123901,-0.94691 2.123901,-2.123385 v -14.87351 h 14.872994 c 1.176475,0 2.123902,-0.947427 2.123902,-2.123902 V 19.62028 c 0,-1.176475 -0.947427,-2.123385 -2.123902,-2.123385 H 34.494307 V 2.6233846 C 34.494307,1.44691 33.54688,0.5 32.370406,0.5 Z"
         id="path18"
         inkscape:label="D-PAD Shape" /><path
         style="color:#000000;display:inline;fill:#000000;stroke-linecap:round;stroke-linejoin:round;-inkscape-stroke:none"
         d="M 19.621094,0 C 18.176331,0 16.998047,1.1782835 16.998047,2.6230469 V 16.996094 H 2.6230469 C 1.1782839,16.996094 0,18.176184 0,19.621094 v 12.748047 c 0,1.44491 1.1781374,2.625 2.6230469,2.625 H 16.998047 v 14.373046 c 0,1.444764 1.178284,2.623047 2.623047,2.623047 h 12.75 c 1.444763,0 2.623047,-1.178136 2.623047,-2.623047 V 34.994141 h 14.373046 c 1.444911,0 2.623047,-1.18009 2.623047,-2.625 V 19.621094 c 0,-1.44491 -1.178283,-2.625 -2.623047,-2.625 H 34.994141 V 2.6230469 C 34.994141,1.178137 33.815857,0 32.371094,0 Z m 0,1 h 12.75 c 0.908182,0 1.623047,0.7150099 1.623047,1.6230469 V 17.496094 a 0.50005,0.50005 0 0 0 0.5,0.5 h 14.873046 c 0.908184,0 1.623047,0.716962 1.623047,1.625 v 12.748047 c 0,0.908037 -0.715009,1.625 -1.623047,1.625 H 34.494141 a 0.50005,0.50005 0 0 0 -0.5,0.5 v 14.873046 c 0,0.908038 -0.714865,1.623047 -1.623047,1.623047 h -12.75 c -0.908183,0 -1.623047,-0.714863 -1.623047,-1.623047 V 34.494141 a 0.50005,0.50005 0 0 0 -0.5,-0.5 H 2.6230469 C 1.7150107,33.994141 1,33.277178 1,32.369141 V 19.621094 c 0,-0.908038 0.7148642,-1.625 1.6230469,-1.625 H 17.498047 a 0.50005,0.50005 0 0 0 0.5,-0.5 V 2.6230469 C 17.998047,1.7148634 18.712911,1 19.621094,1 Z"
         id="path19"
         inkscape:label="Outline" /><g
         id="g17"
         inkscape:label="Symbol Arrows"
         style="display:inline;fill:#808080;fill-opacity:1"><path
           id="path14"
           style="color:#000000;display:inline;fill:#808080;fill-opacity:0.2;stroke-width:0.466408;stroke-linecap:round;stroke-linejoin:round;-inkscape-stroke:none"
           d="m 25.980761,47.678886 a 0.32355934,0.16811623 0 0 0 0.281421,-0.0834 l 1.305523,-1.1674 1.306701,-1.16717 a 0.32355934,0.16811623 0 0 0 -0.278593,-0.25314 l -2.599497,-0.004 -2.598082,-0.004 a 0.32355934,0.16811623 0 0 0 -0.282599,0.25196 l 1.293737,1.17166 1.29256,1.17094 a 0.32355934,0.16811623 0 0 0 0.278829,0.0846 z"
           inkscape:label="Arrow Down" /><path
           id="path15"
           style="color:#000000;display:inline;fill:#808080;fill-opacity:0.2;stroke-width:0.466408;stroke-linecap:round;stroke-linejoin:round;-inkscape-stroke:none"
           d="m 4.312046,25.980336 a 0.16811623,0.32355934 0 0 0 0.0834,0.281421 l 1.1674,1.305523 1.16717,1.306701 a 0.16811623,0.32355934 0 0 0 0.25314,-0.278593 l 0.004,-2.599497 0.004,-2.598082 A 0.16811623,0.32355934 0 0 0 6.739196,23.11521 l -1.17166,1.293737 -1.17094,1.29256 a 0.16811623,0.32355934 0 0 0 -0.0846,0.278829 z"
           inkscape:label="Arrow Left" /><path
           id="path16"
           style="color:#000000;display:inline;fill:#808080;fill-opacity:0.2;stroke-width:0.466408;stroke-linecap:round;stroke-linejoin:round;-inkscape-stroke:none"
           d="m 47.119337,25.980336 a 0.16811623,0.32355934 0 0 1 -0.0834,0.281421 l -1.1674,1.305523 -1.16717,1.306701 a 0.16811623,0.32355934 0 0 1 -0.25314,-0.278593 l -0.004,-2.599497 -0.004,-2.598082 a 0.16811623,0.32355934 0 0 1 0.25196,-0.282599 l 1.17166,1.293737 1.17094,1.29256 a 0.16811623,0.32355934 0 0 1 0.0846,0.278829 z"
           inkscape:label="Arrow Right" /><path
           id="path17"
           style="color:#000000;display:inline;fill:#000000;fill-opacity:1;stroke-width:0.466408;stroke-linecap:round;stroke-linejoin:round;-inkscape-stroke:none"
           d="m 25.980761,4.8715952 a 0.32355934,0.16811623 0 0 1 0.281421,0.0834 l 1.305523,1.1674 1.306701,1.16717 a 0.32355934,0.16811623 0 0 1 -0.278593,0.25314 l -2.599497,0.004 -2.598082,0.004 a 0.32355934,0.16811623 0 0 1 -0.282599,-0.25196 l 1.293737,-1.17166 1.29256,-1.17094 a 0.32355934,0.16811623 0 0 1 0.278829,-0.0846 z"
           inkscape:label="Arrow Up" /></g></g><g
       id="g26"
       style="display:none"
       transform="translate(2.7284201,2.7290689)"
       inkscape:label="Style - Outline (Black)"><path
         style="color:#000000;display:inline;fill:#000000;fill-opacity:1;stroke-linecap:round;stroke-linejoin:round;-inkscape-stroke:none"
         d="m 19.620796,0.5 c -1.176474,0 -2.123384,0.94691 -2.123384,2.1233846 V 17.496895 H 2.623901 C 1.447427,17.496895 0.5,18.443805 0.5,19.62028 v 12.749609 c 0,1.176475 0.947427,2.123902 2.123901,2.123902 h 14.873511 v 14.87351 c 0,1.176475 0.94691,2.123385 2.123384,2.123385 h 12.74961 c 1.176474,0 2.123901,-0.94691 2.123901,-2.123385 v -14.87351 h 14.872994 c 1.176475,0 2.123902,-0.947427 2.123902,-2.123902 V 19.62028 c 0,-1.176475 -0.947427,-2.123385 -2.123902,-2.123385 H 34.494307 V 2.6233846 C 34.494307,1.44691 33.54688,0.5 32.370406,0.5 Z"
         id="path20"
         inkscape:label="D-PAD Shape" /><path
         style="color:#000000;display:inline;fill:#ffffff;fill-opacity:1;stroke-linecap:round;stroke-linejoin:round;-inkscape-stroke:none"
         d="M 19.621094,0 C 18.176331,0 16.998047,1.1782835 16.998047,2.6230469 V 16.996094 H 2.6230469 C 1.1782839,16.996094 0,18.176184 0,19.621094 v 12.748047 c 0,1.44491 1.1781374,2.625 2.6230469,2.625 H 16.998047 v 14.373046 c 0,1.444764 1.178284,2.623047 2.623047,2.623047 h 12.75 c 1.444763,0 2.623047,-1.178136 2.623047,-2.623047 V 34.994141 h 14.373046 c 1.444911,0 2.623047,-1.18009 2.623047,-2.625 V 19.621094 c 0,-1.44491 -1.178283,-2.625 -2.623047,-2.625 H 34.994141 V 2.6230469 C 34.994141,1.178137 33.815857,0 32.371094,0 Z m 0,1 h 12.75 c 0.908182,0 1.623047,0.7150099 1.623047,1.6230469 V 17.496094 a 0.50005,0.50005 0 0 0 0.5,0.5 h 14.873046 c 0.908184,0 1.623047,0.716962 1.623047,1.625 v 12.748047 c 0,0.908037 -0.715009,1.625 -1.623047,1.625 H 34.494141 a 0.50005,0.50005 0 0 0 -0.5,0.5 v 14.873046 c 0,0.908038 -0.714865,1.623047 -1.623047,1.623047 h -12.75 c -0.908183,0 -1.623047,-0.714863 -1.623047,-1.623047 V 34.494141 a 0.50005,0.50005 0 0 0 -0.5,-0.5 H 2.6230469 C 1.7150107,33.994141 1,33.277178 1,32.369141 V 19.621094 c 0,-0.908038 0.7148642,-1.625 1.6230469,-1.625 H 17.498047 a 0.50005,0.50005 0 0 0 0.5,-0.5 V 2.6230469 C 17.998047,1.7148634 18.712911,1 19.621094,1 Z"
         id="path21"
         inkscape:label="Outline" /><g
         id="g25"
         inkscape:label="Symbol Arrows"
         style="display:inline;fill:#808080;fill-opacity:1"><path
           id="path22"
           style="color:#000000;display:inline;fill:#808080;fill-opacity:0.2;stroke-width:0.466408;stroke-linecap:round;stroke-linejoin:round;-inkscape-stroke:none"
           d="m 25.980761,47.678886 a 0.32355934,0.16811623 0 0 0 0.281421,-0.0834 l 1.305523,-1.1674 1.306701,-1.16717 a 0.32355934,0.16811623 0 0 0 -0.278593,-0.25314 l -2.599497,-0.004 -2.598082,-0.004 a 0.32355934,0.16811623 0 0 0 -0.282599,0.25196 l 1.293737,1.17166 1.29256,1.17094 a 0.32355934,0.16811623 0 0 0 0.278829,0.0846 z"
           inkscape:label="Arrow Down" /><path
           id="path23"
           style="color:#000000;display:inline;fill:#808080;fill-opacity:0.2;stroke-width:0.466408;stroke-linecap:round;stroke-linejoin:round;-inkscape-stroke:none"
           d="m 4.312046,25.980336 a 0.16811623,0.32355934 0 0 0 0.0834,0.281421 l 1.1674,1.305523 1.16717,1.306701 a 0.16811623,0.32355934 0 0 0 0.25314,-0.278593 l 0.004,-2.599497 0.004,-2.598082 A 0.16811623,0.32355934 0 0 0 6.739196,23.11521 l -1.17166,1.293737 -1.17094,1.29256 a 0.16811623,0.32355934 0 0 0 -0.0846,0.278829 z"
           inkscape:label="Arrow Left" /><path
           id="path24"
           style="color:#000000;display:inline;fill:#808080;fill-opacity:0.2;stroke-width:0.466408;stroke-linecap:round;stroke-linejoin:round;-inkscape-stroke:none"
           d="m 47.119337,25.980336 a 0.16811623,0.32355934 0 0 1 -0.0834,0.281421 l -1.1674,1.305523 -1.16717,1.306701 a 0.16811623,0.32355934 0 0 1 -0.25314,-0.278593 l -0.004,-2.599497 -0.004,-2.598082 a 0.16811623,0.32355934 0 0 1 0.25196,-0.282599 l 1.17166,1.293737 1.17094,1.29256 a 0.16811623,0.32355934 0 0 1 0.0846,0.278829 z"
           inkscape:label="Arrow Right" /><path
           id="path25"
           style="color:#000000;display:inline;fill:#ffffff;fill-opacity:1;stroke-width:0.466408;stroke-linecap:round;stroke-linejoin:round;-inkscape-stroke:none"
           d="m 25.980761,4.8715952 a 0.32355934,0.16811623 0 0 1 0.281421,0.0834 l 1.305523,1.1674 1.306701,1.16717 a 0.32355934,0.16811623 0 0 1 -0.278593,0.25314 l -2.599497,0.004 -2.598082,0.004 a 0.32355934,0.16811623 0 0 1 -0.282599,-0.25196 l 1.293737,-1.17166 1.29256,-1.17094 a 0.32355934,0.16811623 0 0 1 0.278829,-0.0846 z"
           inkscape:label="Arrow Up" /></g></g><g
       id="g11"
       style="display:inline"
       transform="translate(2.7284201,2.7290689)"
       inkscape:label="Style - Transparent"><path
         style="color:#000000;display:inline;fill:#808080;fill-opacity:0.501961;stroke-linecap:round;stroke-linejoin:round;-inkscape-stroke:none;paint-order:stroke fill markers"
         d="M 19.621094,0 C 18.176331,0 16.998047,1.1782835 16.998047,2.6230469 V 16.996094 H 2.6230469 C 1.1782839,16.996094 0,18.176184 0,19.621094 v 12.748047 c 0,1.44491 1.1781374,2.625 2.6230469,2.625 H 16.998047 v 14.373046 c 0,1.444764 1.178284,2.623047 2.623047,2.623047 h 12.75 c 1.444763,0 2.623047,-1.178136 2.623047,-2.623047 V 34.994141 h 14.373046 c 1.444911,0 2.623047,-1.18009 2.623047,-2.625 V 19.621094 c 0,-1.44491 -1.178283,-2.625 -2.623047,-2.625 H 34.994141 V 2.6230469 C 34.994141,1.178137 33.815857,0 32.371094,0 Z m 0,1 h 12.75 c 0.908182,0 1.623047,0.7150099 1.623047,1.6230469 V 17.496094 a 0.50005,0.50005 0 0 0 0.5,0.5 h 14.873046 c 0.908184,0 1.623047,0.716962 1.623047,1.625 v 12.748047 c 0,0.908037 -0.715009,1.625 -1.623047,1.625 H 34.494141 a 0.50005,0.50005 0 0 0 -0.5,0.5 v 14.873046 c 0,0.908038 -0.714865,1.623047 -1.623047,1.623047 h -12.75 c -0.908183,0 -1.623047,-0.714863 -1.623047,-1.623047 V 34.494141 a 0.50005,0.50005 0 0 0 -0.5,-0.5 H 2.6230469 C 1.7150107,33.994141 1,33.277178 1,32.369141 V 19.621094 c 0,-0.908038 0.7148642,-1.625 1.6230469,-1.625 H 17.498047 a 0.50005,0.50005 0 0 0 0.5,-0.5 V 2.6230469 C 17.998047,1.7148634 18.712911,1 19.621094,1 Z"
         id="path12"
         inkscape:label="Outline" /><path
         style="color:#000000;display:inline;fill:#ffffff;stroke-linecap:round;stroke-linejoin:round;-inkscape-stroke:none;paint-order:stroke fill markers"
         d="m 19.620796,0.5 c -1.176474,0 -2.123384,0.94691 -2.123384,2.1233846 V 17.496895 H 2.623901 C 1.447427,17.496895 0.5,18.443805 0.5,19.62028 v 12.749609 c 0,1.176475 0.947427,2.123902 2.123901,2.123902 h 14.873511 v 14.87351 c 0,1.176475 0.94691,2.123385 2.123384,2.123385 h 12.74961 c 1.176474,0 2.123901,-0.94691 2.123901,-2.123385 v -14.87351 h 14.872994 c 1.176475,0 2.123902,-0.947427 2.123902,-2.123902 V 19.62028 c 0,-1.176475 -0.947427,-2.123385 -2.123902,-2.123385 H 34.494307 V 2.6233846 C 34.494307,1.44691 33.54688,0.5 32.370406,0.5 Z"
         id="path13"
         inkscape:label="D-PAD Shape" /><g
         id="g10"
         inkscape:label="Symbol Arrows"
         style="display:inline;fill:#808080;fill-opacity:1"><path
           id="path2"
           style="color:#000000;display:inline;fill:#808080;fill-opacity:0.2;stroke-width:0.466408;stroke-linecap:round;stroke-linejoin:round;-inkscape-stroke:none"
           d="m 25.980761,47.678886 a 0.32355934,0.16811623 0 0 0 0.281421,-0.0834 l 1.305523,-1.1674 1.306701,-1.16717 a 0.32355934,0.16811623 0 0 0 -0.278593,-0.25314 l -2.599497,-0.004 -2.598082,-0.004 a 0.32355934,0.16811623 0 0 0 -0.282599,0.25196 l 1.293737,1.17166 1.29256,1.17094 a 0.32355934,0.16811623 0 0 0 0.278829,0.0846 z"
           inkscape:label="Arrow Down" /><path
           id="path4"
           style="color:#000000;display:inline;fill:#808080;fill-opacity:0.2;stroke-width:0.466408;stroke-linecap:round;stroke-linejoin:round;-inkscape-stroke:none"
           d="m 4.312046,25.980336 a 0.16811623,0.32355934 0 0 0 0.0834,0.281421 l 1.1674,1.305523 1.16717,1.306701 a 0.16811623,0.32355934 0 0 0 0.25314,-0.278593 l 0.004,-2.599497 0.004,-2.598082 A 0.16811623,0.32355934 0 0 0 6.739196,23.11521 l -1.17166,1.293737 -1.17094,1.29256 a 0.16811623,0.32355934 0 0 0 -0.0846,0.278829 z"
           inkscape:label="Arrow Left" /><path
           id="path10"
           style="color:#000000;display:inline;fill:#808080;fill-opacity:0.2;stroke-width:0.466408;stroke-linecap:round;stroke-linejoin:round;-inkscape-stroke:none"
           d="m 47.119337,25.980336 a 0.16811623,0.32355934 0 0 1 -0.0834,0.281421 l -1.1674,1.305523 -1.16717,1.306701 a 0.16811623,0.32355934 0 0 1 -0.25314,-0.278593 l -0.004,-2.599497 -0.004,-2.598082 a 0.16811623,0.32355934 0 0 1 0.25196,-0.282599 l 1.17166,1.293737 1.17094,1.29256 a 0.16811623,0.32355934 0 0 1 0.0846,0.278829 z"
           inkscape:label="Arrow Right" /><path
           id="path3"
           style="color:#000000;display:inline;fill:#808080;fill-opacity:1;stroke-width:0.466408;stroke-linecap:round;stroke-linejoin:round;-inkscape-stroke:none"
           d="m 25.980761,4.8715952 a 0.32355934,0.16811623 0 0 1 0.281421,0.0834 l 1.305523,1.1674 1.306701,1.16717 a 0.32355934,0.16811623 0 0 1 -0.278593,0.25314 l -2.599497,0.004 -2.598082,0.004 a 0.32355934,0.16811623 0 0 1 -0.282599,-0.25196 l 1.293737,-1.17166 1.29256,-1.17094 a 0.32355934,0.16811623 0 0 1 0.278829,-0.0846 z"
           inkscape:label="Arrow Up" /></g></g></g></svg>
