<?xml version="1.0" encoding="UTF-8" standalone="no"?>
<!-- Created with Inkscape (http://www.inkscape.org/) -->

<svg
   width="126.21537mm"
   height="126.21529mm"
   viewBox="0 0 126.21537 126.21527"
   version="1.1"
   id="svg1"
   xml:space="preserve"
   inkscape:version="1.3.2 (091e20e, 2023-11-25, custom)"
   sodipodi:docname="shared-positional prompt A-Color.svg"
   xmlns:inkscape="http://www.inkscape.org/namespaces/inkscape"
   xmlns:sodipodi="http://sodipodi.sourceforge.net/DTD/sodipodi-0.dtd"
   xmlns="http://www.w3.org/2000/svg"
   xmlns:svg="http://www.w3.org/2000/svg"><sodipodi:namedview
     id="namedview1"
     pagecolor="#5bff91"
     bordercolor="#000000"
     borderopacity="0.25"
     inkscape:showpageshadow="2"
     inkscape:pageopacity="0.0"
     inkscape:pagecheckerboard="0"
     inkscape:deskcolor="#d1d1d1"
     inkscape:document-units="mm"
     inkscape:zoom="1.4142136"
     inkscape:cx="230.87036"
     inkscape:cy="274.35742"
     inkscape:window-width="1690"
     inkscape:window-height="1109"
     inkscape:window-x="646"
     inkscape:window-y="224"
     inkscape:window-maximized="0"
     inkscape:current-layer="layer1" /><defs
     id="defs1"><rect
       x="-329.58707"
       y="426.24316"
       width="115.7824"
       height="107.24387"
       id="rect2" /><rect
       x="-486.35437"
       y="484.30515"
       width="87.776039"
       height="93.582237"
       id="rect1" /><rect
       x="-329.58707"
       y="426.24316"
       width="115.7824"
       height="107.24387"
       id="rect2-1" /><rect
       x="-486.35437"
       y="484.30515"
       width="87.776039"
       height="93.582237"
       id="rect1-3" /><rect
       x="-329.58707"
       y="426.24316"
       width="115.7824"
       height="107.24387"
       id="rect2-4" /><rect
       x="-486.35437"
       y="484.30515"
       width="87.776039"
       height="93.582237"
       id="rect1-9" /><rect
       x="-329.58707"
       y="426.24316"
       width="115.7824"
       height="107.24387"
       id="rect2-11" /><rect
       x="-486.35437"
       y="484.30515"
       width="87.776039"
       height="93.582237"
       id="rect1-5" /></defs><g
     inkscape:label="Positional Glyph A"
     id="layer1"
     transform="translate(-35.10544,-127.68245)"><g
       id="g1"
       inkscape:label="Style - Outline (White)"
       style="display:none"><g
         inkscape:label="Button Prompt A"
         id="layer1-8"
         transform="translate(215.32783,93.126341)"
         style="display:inline"><path
           id="path54"
           style="color:#000000;display:inline;fill:#ffffff;fill-opacity:1;stroke-width:1.04044;stroke-linecap:round;stroke-linejoin:round;-inkscape-stroke:none"
           inkscape:label="Circle"
           d="m 98.214253,210.67471 c -11.3185,0 -20.45904,9.14107 -20.45904,20.45957 0,11.31851 9.14054,20.45903 20.45904,20.45903 11.318487,0 20.459027,-9.14052 20.459027,-20.45903 0,-11.3185 -9.14054,-20.45957 -20.459027,-20.45957 z"
           transform="translate(-215.32783,-93.12634)" /><path
           id="path55"
           style="color:#000000;display:inline;fill:#3cdb4e;fill-opacity:1;stroke-linecap:round;stroke-linejoin:round;-inkscape-stroke:none"
           inkscape:label="Outline"
           d="m 98.214253,208.36873 c -7.61699,0 -14.36651,3.76322 -18.5012,9.52397 -0.25411,0.35405 -0.49835,0.7154 -0.73226,1.08417 -0.33914,0.53466 -0.65626,1.08396 -0.95084,1.64745 -0.22969,0.43936 -0.44626,0.88648 -0.64751,1.34203 -1.24004,2.80691 -1.93373,5.90701 -1.93373,9.16792 0,3.13849 0.63813,6.13066 1.79162,8.8532 0.28833,0.68049 0.60936,1.34413 0.96015,1.98903 0.17543,0.32252 0.35796,0.64053 0.54829,0.95343 0.38066,0.6258 0.79096,1.23198 1.22835,1.81643 4.15516,5.55218 10.7832,9.15138 18.23713,9.15138 6.276837,0 11.967727,-2.55256 16.089447,-6.67401 0.77281,-0.77282 1.49065,-1.6007 2.14664,-2.47737 1.31202,-1.75332 2.37755,-3.70143 3.14451,-5.79241 0.89477,-2.4395 1.38338,-5.0735 1.38338,-7.81968 0,-1.88786 -0.23471,-3.72151 -0.66973,-5.47667 -0.037,-0.1492 -0.0764,-0.29742 -0.11627,-0.44545 -0.14885,-0.55206 -0.31786,-1.09567 -0.50643,-1.63039 -0.8274,-2.34604 -2.02946,-4.51499 -3.53312,-6.43889 -0.24614,-0.31496 -0.50019,-0.62308 -0.76222,-0.92449 -0.22774,-0.26194 -0.46093,-0.51872 -0.70022,-0.76998 -0.12865,-0.1351 -0.25464,-0.2727 -0.38654,-0.40462 -4.12172,-4.12198 -9.81261,-6.67505 -16.089447,-6.67505 z m 0,3.10111 c 10.878607,0 19.663907,8.78581 19.663907,19.66443 0,10.87863 -8.7853,19.66391 -19.663907,19.66391 -10.87862,0 -19.66392,-8.78528 -19.66392,-19.66391 0,-10.87862 8.7853,-19.66443 19.66392,-19.66443 z"
           transform="translate(-215.32783,-93.12634)" /><path
           style="font-weight:500;font-size:31.0372px;line-height:0;font-family:'open sans';-inkscape-font-specification:'open sans Medium';letter-spacing:-2.11667px;word-spacing:0px;display:inline;fill:#3cdb4e;fill-opacity:1;stroke-width:2.825;stroke-linecap:round"
           d="m -109.79385,148.01289 -2.45509,-6.59237 h -8.68375 l -2.42478,6.59237 h -3.22799 l 8.45643,-22.24736 h 3.18252 l 8.41096,22.24736 z m -3.31892,-9.28994 -2.33385,-6.53175 q -0.10608,-0.33341 -0.33341,-1.00023 -0.21216,-0.66681 -0.43949,-1.37909 -0.21217,-0.71228 -0.34856,-1.18208 -0.15155,0.62135 -0.34856,1.31847 -0.19701,0.68197 -0.39403,1.28817 -0.18186,0.59104 -0.3031,0.95476 l -2.36416,6.53175 z"
           id="text1"
           inkscape:label="Symbol A"
           aria-label="A" /></g><g
         inkscape:label="Button Prompt B"
         id="layer1-5"
         transform="translate(255.67042,52.783311)"
         style="display:inline"><path
           style="color:#000000;display:inline;fill:#3cdb4e;fill-opacity:1;stroke-linecap:round;stroke-linejoin:round;-inkscape-stroke:none"
           d="m -117.11328,115.24219 c -12.554,0 -22.76563,10.21163 -22.76563,22.76562 0,12.554 10.21163,22.76367 22.76563,22.76367 12.55399,0 22.763671,-10.20967 22.763671,-22.76367 0,-12.55399 -10.209681,-22.76562 -22.763671,-22.76562 z m 0,3.10156 c 10.87863,0 19.664061,8.78543 19.664061,19.66406 0,10.87864 -8.785431,19.66406 -19.664061,19.66406 -10.87863,0 -19.66406,-8.78542 -19.66406,-19.66406 0,-10.87863 8.78543,-19.66406 19.66406,-19.66406 z"
           id="path4-0"
           inkscape:label="Outline" /></g><g
         inkscape:label="Button Prompt X"
         id="layer1-7"
         transform="translate(174.98435,52.783301)"
         style="display:inline"><path
           style="color:#000000;display:inline;fill:#3cdb4e;fill-opacity:1;stroke-linecap:round;stroke-linejoin:round;-inkscape-stroke:none"
           d="m -117.11328,115.24219 c -12.554,0 -22.76563,10.21163 -22.76563,22.76562 0,12.554 10.21163,22.76367 22.76563,22.76367 12.55399,0 22.763671,-10.20967 22.763671,-22.76367 0,-12.55399 -10.209681,-22.76562 -22.763671,-22.76562 z m 0,3.10156 c 10.87863,0 19.664061,8.78543 19.664061,19.66406 0,10.87864 -8.785431,19.66406 -19.664061,19.66406 -10.87863,0 -19.66406,-8.78542 -19.66406,-19.66406 0,-10.87863 8.78543,-19.66406 19.66406,-19.66406 z"
           id="path4-2"
           inkscape:label="Outline" /></g><g
         inkscape:label="Button Prompt Y"
         id="layer1-4"
         transform="translate(215.32783,12.440265)"
         style="display:inline;fill:#ffffff;fill-opacity:1"><path
           style="color:#000000;display:inline;fill:#3cdb4e;fill-opacity:1;stroke-linecap:round;stroke-linejoin:round;-inkscape-stroke:none"
           d="m -117.11328,115.24219 c -12.554,0 -22.76563,10.21163 -22.76563,22.76562 0,12.554 10.21163,22.76367 22.76563,22.76367 12.55399,0 22.763671,-10.20967 22.763671,-22.76367 0,-12.55399 -10.209681,-22.76562 -22.763671,-22.76562 z m 0,3.10156 c 10.87863,0 19.664061,8.78543 19.664061,19.66406 0,10.87864 -8.785431,19.66406 -19.664061,19.66406 -10.87863,0 -19.66406,-8.78542 -19.66406,-19.66406 0,-10.87863 8.78543,-19.66406 19.66406,-19.66406 z"
           id="path4-6"
           inkscape:label="Outline" /></g></g><g
       id="g42"
       inkscape:label="Style - Outline (Black)"
       style="display:none"><g
         inkscape:label="Button Prompt A"
         id="g29"
         transform="translate(215.32783,93.126341)"
         style="display:inline"><path
           id="path33-7"
           style="color:#000000;display:inline;fill:#000000;fill-opacity:1;stroke-width:1.04044;stroke-linecap:round;stroke-linejoin:round;-inkscape-stroke:none"
           inkscape:label="Circle"
           d="m -117.11358,117.54837 c -11.3185,0 -20.45904,9.14107 -20.45904,20.45957 0,11.31851 9.14054,20.45903 20.45904,20.45903 11.31849,0 20.459033,-9.14052 20.459033,-20.45903 0,-11.3185 -9.140543,-20.45957 -20.459033,-20.45957 z" /><path
           id="path53"
           style="color:#000000;display:inline;fill:#3cdb4e;fill-opacity:1;stroke-linecap:round;stroke-linejoin:round;-inkscape-stroke:none"
           inkscape:label="Outline"
           d="m -117.11358,115.24239 c -7.61699,0 -14.36651,3.76322 -18.5012,9.52397 -0.25411,0.35405 -0.49835,0.7154 -0.73226,1.08417 -0.33914,0.53466 -0.65626,1.08396 -0.95084,1.64745 -0.22969,0.43936 -0.44626,0.88648 -0.64751,1.34203 -1.24004,2.80691 -1.93373,5.90701 -1.93373,9.16792 0,3.13849 0.63813,6.13066 1.79162,8.8532 0.28833,0.68049 0.60936,1.34413 0.96015,1.98903 0.17543,0.32252 0.35796,0.64053 0.54829,0.95343 0.38066,0.6258 0.79096,1.23198 1.22835,1.81643 4.15516,5.55218 10.7832,9.15138 18.23713,9.15138 6.27684,0 11.96773,-2.55256 16.08945,-6.67401 0.77281,-0.77282 1.490653,-1.6007 2.146643,-2.47737 1.31202,-1.75332 2.37755,-3.70143 3.14451,-5.79241 0.89477,-2.4395 1.38338,-5.0735 1.38338,-7.81968 0,-1.88786 -0.23471,-3.72151 -0.66973,-5.47667 -0.037,-0.1492 -0.0764,-0.29742 -0.11627,-0.44545 -0.14885,-0.55206 -0.31786,-1.09567 -0.50643,-1.63039 -0.8274,-2.34604 -2.02946,-4.51499 -3.53311,-6.43889 -0.24615,-0.31496 -0.5002,-0.62308 -0.76223,-0.92449 -0.227743,-0.26194 -0.460933,-0.51872 -0.700223,-0.76998 -0.12865,-0.1351 -0.25464,-0.2727 -0.38654,-0.40462 -4.12172,-4.12198 -9.81261,-6.67505 -16.08945,-6.67505 z m 0,3.10111 c 10.87861,0 19.663913,8.78581 19.663913,19.66443 0,10.87863 -8.785303,19.66391 -19.663913,19.66391 -10.87862,0 -19.66392,-8.78528 -19.66392,-19.66391 0,-10.87862 8.7853,-19.66443 19.66392,-19.66443 z" /><path
           style="font-weight:500;font-size:31.0372px;line-height:0;font-family:'open sans';-inkscape-font-specification:'open sans Medium';letter-spacing:-2.11667px;word-spacing:0px;display:inline;fill:#3cdb4e;fill-opacity:1;stroke-width:2.825;stroke-linecap:round"
           d="m -109.79385,148.01289 -2.45509,-6.59237 h -8.68375 l -2.42478,6.59237 h -3.22799 l 8.45643,-22.24736 h 3.18252 l 8.41096,22.24736 z m -3.31892,-9.28994 -2.33385,-6.53175 q -0.10608,-0.33341 -0.33341,-1.00023 -0.21216,-0.66681 -0.43949,-1.37909 -0.21217,-0.71228 -0.34856,-1.18208 -0.15155,0.62135 -0.34856,1.31847 -0.19701,0.68197 -0.39403,1.28817 -0.18186,0.59104 -0.3031,0.95476 l -2.36416,6.53175 z"
           id="path28"
           inkscape:label="Symbol A"
           aria-label="A" /></g><g
         inkscape:label="Button Prompt B"
         id="g33"
         transform="translate(255.67042,52.783311)"
         style="display:inline"><path
           style="color:#000000;display:inline;fill:#3cdb4e;fill-opacity:1;stroke-linecap:round;stroke-linejoin:round;-inkscape-stroke:none"
           d="m -117.11328,115.24219 c -12.554,0 -22.76563,10.21163 -22.76563,22.76562 0,12.554 10.21163,22.76367 22.76563,22.76367 12.55399,0 22.763671,-10.20967 22.763671,-22.76367 0,-12.55399 -10.209681,-22.76562 -22.763671,-22.76562 z m 0,3.10156 c 10.87863,0 19.664061,8.78543 19.664061,19.66406 0,10.87864 -8.785431,19.66406 -19.664061,19.66406 -10.87863,0 -19.66406,-8.78542 -19.66406,-19.66406 0,-10.87863 8.78543,-19.66406 19.66406,-19.66406 z"
           id="path30"
           inkscape:label="Outline" /></g><g
         inkscape:label="Button Prompt X"
         id="g37"
         transform="translate(174.98435,52.783301)"
         style="display:inline"><path
           style="color:#000000;display:inline;fill:#3cdb4e;fill-opacity:1;stroke-linecap:round;stroke-linejoin:round;-inkscape-stroke:none"
           d="m -117.11328,115.24219 c -12.554,0 -22.76563,10.21163 -22.76563,22.76562 0,12.554 10.21163,22.76367 22.76563,22.76367 12.55399,0 22.763671,-10.20967 22.763671,-22.76367 0,-12.55399 -10.209681,-22.76562 -22.763671,-22.76562 z m 0,3.10156 c 10.87863,0 19.664061,8.78543 19.664061,19.66406 0,10.87864 -8.785431,19.66406 -19.664061,19.66406 -10.87863,0 -19.66406,-8.78542 -19.66406,-19.66406 0,-10.87863 8.78543,-19.66406 19.66406,-19.66406 z"
           id="path34"
           inkscape:label="Outline" /></g><g
         inkscape:label="Button Prompt Y"
         id="g41"
         transform="translate(215.32783,12.440265)"
         style="display:inline;fill:#ffffff;fill-opacity:1"><path
           style="color:#000000;display:inline;fill:#3cdb4e;fill-opacity:1;stroke-linecap:round;stroke-linejoin:round;-inkscape-stroke:none"
           d="m -117.11328,115.24219 c -12.554,0 -22.76563,10.21163 -22.76563,22.76562 0,12.554 10.21163,22.76367 22.76563,22.76367 12.55399,0 22.763671,-10.20967 22.763671,-22.76367 0,-12.55399 -10.209681,-22.76562 -22.763671,-22.76562 z m 0,3.10156 c 10.87863,0 19.664061,8.78543 19.664061,19.66406 0,10.87864 -8.785431,19.66406 -19.664061,19.66406 -10.87863,0 -19.66406,-8.78542 -19.66406,-19.66406 0,-10.87863 8.78543,-19.66406 19.66406,-19.66406 z"
           id="path38"
           inkscape:label="Outline" /></g></g><g
       id="g20"
       inkscape:label="Style - Transparent"
       style="display:inline"><g
         inkscape:label="Button Prompt A"
         id="g7"
         transform="translate(215.32783,93.126341)"
         style="display:inline"><path
           id="path2"
           style="color:#000000;display:inline;fill:#333333;fill-opacity:1;stroke-linecap:round;stroke-linejoin:round;-inkscape-stroke:none"
           inkscape:label="Circle"
           d="m -117.11306,115.24214 c -12.55399,0 -22.76606,10.21156 -22.76606,22.76554 0,12.55398 10.21207,22.76398 22.76606,22.76398 12.55397,0 22.763465,-10.21 22.763465,-22.76398 0,-12.55398 -10.209495,-22.76554 -22.763465,-22.76554 z" /><path
           style="font-weight:500;font-size:31.0372px;line-height:0;font-family:'open sans';-inkscape-font-specification:'open sans Medium';letter-spacing:-2.11667px;word-spacing:0px;display:inline;fill:#3cdb4e;fill-opacity:1;stroke-width:2.825;stroke-linecap:round"
           d="m -109.79385,148.01289 -2.45509,-6.59237 h -8.68375 l -2.42478,6.59237 h -3.22799 l 8.45643,-22.24736 h 3.18252 l 8.41096,22.24736 z m -3.31892,-9.28994 -2.33385,-6.53175 q -0.10608,-0.33341 -0.33341,-1.00023 -0.21216,-0.66681 -0.43949,-1.37909 -0.21217,-0.71228 -0.34856,-1.18208 -0.15155,0.62135 -0.34856,1.31847 -0.19701,0.68197 -0.39403,1.28817 -0.18186,0.59104 -0.3031,0.95476 l -2.36416,6.53175 z"
           id="path6"
           inkscape:label="Symbol A"
           aria-label="A" /></g><g
         inkscape:label="Button Prompt B"
         id="g11"
         transform="translate(255.67042,52.783311)"
         style="display:inline"><path
           style="color:#000000;display:inline;fill:#333333;fill-opacity:1;stroke-linecap:round;stroke-linejoin:round;-inkscape-stroke:none"
           d="m -117.11328,115.24219 c -12.554,0 -22.76563,10.21163 -22.76563,22.76562 0,12.554 10.21163,22.76367 22.76563,22.76367 12.55399,0 22.763671,-10.20967 22.763671,-22.76367 0,-12.55399 -10.209681,-22.76562 -22.763671,-22.76562 z m 0,3.10156 c 10.87863,0 19.664061,8.78543 19.664061,19.66406 0,10.87864 -8.785431,19.66406 -19.664061,19.66406 -10.87863,0 -19.66406,-8.78542 -19.66406,-19.66406 0,-10.87863 8.78543,-19.66406 19.66406,-19.66406 z"
           id="path8"
           inkscape:label="Outline" /></g><g
         inkscape:label="Button Prompt X"
         id="g15"
         transform="translate(174.98435,52.783301)"
         style="display:inline"><path
           style="color:#000000;display:inline;fill:#333333;fill-opacity:1;stroke-linecap:round;stroke-linejoin:round;-inkscape-stroke:none"
           d="m -117.11328,115.24219 c -12.554,0 -22.76563,10.21163 -22.76563,22.76562 0,12.554 10.21163,22.76367 22.76563,22.76367 12.55399,0 22.763671,-10.20967 22.763671,-22.76367 0,-12.55399 -10.209681,-22.76562 -22.763671,-22.76562 z m 0,3.10156 c 10.87863,0 19.664061,8.78543 19.664061,19.66406 0,10.87864 -8.785431,19.66406 -19.664061,19.66406 -10.87863,0 -19.66406,-8.78542 -19.66406,-19.66406 0,-10.87863 8.78543,-19.66406 19.66406,-19.66406 z"
           id="path12"
           inkscape:label="Outline" /></g><g
         inkscape:label="Button Prompt Y"
         id="g19"
         transform="translate(215.32783,12.440265)"
         style="display:inline;fill:#ffffff;fill-opacity:1"><path
           style="color:#000000;display:inline;fill:#333333;fill-opacity:1;stroke-linecap:round;stroke-linejoin:round;-inkscape-stroke:none"
           d="m -117.11328,115.24219 c -12.554,0 -22.76563,10.21163 -22.76563,22.76562 0,12.554 10.21163,22.76367 22.76563,22.76367 12.55399,0 22.763671,-10.20967 22.763671,-22.76367 0,-12.55399 -10.209681,-22.76562 -22.763671,-22.76562 z m 0,3.10156 c 10.87863,0 19.664061,8.78543 19.664061,19.66406 0,10.87864 -8.785431,19.66406 -19.664061,19.66406 -10.87863,0 -19.66406,-8.78542 -19.66406,-19.66406 0,-10.87863 8.78543,-19.66406 19.66406,-19.66406 z"
           id="path16"
           inkscape:label="Outline" /></g></g></g></svg>
