<?xml version="1.0" encoding="UTF-8" standalone="no"?>
<!-- Created with Inkscape (http://www.inkscape.org/) -->

<svg
   width="45.529301mm"
   height="45.529289mm"
   viewBox="0 0 45.529302 45.52929"
   version="1.1"
   id="svg1"
   sodipodi:docname="shared-B.svg"
   inkscape:version="1.3.2 (091e20e, 2023-11-25, custom)"
   xmlns:inkscape="http://www.inkscape.org/namespaces/inkscape"
   xmlns:sodipodi="http://sodipodi.sourceforge.net/DTD/sodipodi-0.dtd"
   xmlns="http://www.w3.org/2000/svg"
   xmlns:svg="http://www.w3.org/2000/svg"
   xmlns:rdf="http://www.w3.org/1999/02/22-rdf-syntax-ns#"
   xmlns:cc="http://creativecommons.org/ns#">
  <sodipodi:namedview
     id="namedview1"
     pagecolor="#3e8d2e"
     bordercolor="#000000"
     borderopacity="0.25"
     inkscape:showpageshadow="true"
     inkscape:pageopacity="0.0"
     inkscape:pagecheckerboard="false"
     inkscape:deskcolor="#d1d1d1"
     inkscape:document-units="mm"
     inkscape:zoom="1.7698364"
     inkscape:cx="7.9103357"
     inkscape:cy="144.64614"
     inkscape:window-width="2560"
     inkscape:window-height="1351"
     inkscape:window-x="-9"
     inkscape:window-y="-9"
     inkscape:window-maximized="1"
     inkscape:current-layer="layer1"
     labelstyle="default"
     showborder="true" />
  <defs
     id="defs1">
    <rect
       x="-56.219887"
       y="21.188398"
       width="94.076492"
       height="120.63262"
       id="rect3" />
    <rect
       x="-329.58707"
       y="426.24316"
       width="115.7824"
       height="107.24387"
       id="rect2" />
    <rect
       x="-486.35437"
       y="484.30515"
       width="87.776039"
       height="93.582237"
       id="rect1" />
    <rect
       x="-56.219887"
       y="21.188398"
       width="94.076492"
       height="120.63262"
       id="rect4" />
    <rect
       x="-56.219887"
       y="21.188398"
       width="94.076492"
       height="120.63262"
       id="rect5" />
  </defs>
  <g
     inkscape:label="Button Prompt B"
     id="layer1"
     transform="translate(139.87891,-115.24219)"
     style="display:inline">
    <g
       id="path1"
       inkscape:label="Style - Outline (White)"
       style="display:none">
      <path
         style="color:#000000;display:inline;fill:#ffffff;fill-opacity:1;stroke-linecap:round;stroke-linejoin:round;-inkscape-stroke:none"
         d="m -95.899378,138.00743 a 21.214285,21.214285 0 0 1 -21.214282,21.21429 21.214285,21.214285 0 0 1 -21.21429,-21.21429 21.214285,21.214285 0 0 1 21.21429,-21.21428 21.214285,21.214285 0 0 1 21.214282,21.21428 z"
         id="path3"
         inkscape:label="Circle" />
      <path
         style="color:#000000;display:inline;fill:#000000;fill-opacity:1;stroke-linecap:round;stroke-linejoin:round;-inkscape-stroke:none"
         d="m -117.11328,115.24219 c -12.554,0 -22.76563,10.21163 -22.76563,22.76562 0,12.554 10.21163,22.76367 22.76563,22.76367 12.55399,0 22.763671,-10.20967 22.763671,-22.76367 0,-12.55399 -10.209681,-22.76562 -22.763671,-22.76562 z m 0,3.10156 c 10.87863,0 19.664061,8.78543 19.664061,19.66406 0,10.87864 -8.785431,19.66406 -19.664061,19.66406 -10.87863,0 -19.66406,-8.78542 -19.66406,-19.66406 0,-10.87863 8.78543,-19.66406 19.66406,-19.66406 z"
         id="path4"
         inkscape:label="Outline" />
      <path
         d="m -44.994152,-29.136546 h 24.286007 q 15.9806517,0 24.0568949,4.696822 8.0762431,4.696822 8.0762431,16.0952081 0,4.8686572 -1.7756279,8.70630462 Q 7.8737372,4.1994362 4.4943163,6.7196823 1.1148954,9.2399284 -3.8110401,10.156381 v 0.572784 q 5.1550488,0.859174 9.1645312,3.093029 4.0094824,2.233854 6.3006149,6.357894 2.348411,4.06676 2.348411,10.481932 0,7.675295 -3.608534,13.059457 -3.6085339,5.326884 -10.25281905,8.133522 -6.58700685,2.749359 -15.69425995,2.749359 h -29.441056 z m 11.742055,35.2261667 h 14.605972 q 10.1382626,0 14.0331884,-3.3221425 3.89492574,-3.3221426 3.89492574,-9.6800361 0,-6.5870071 -4.63954394,-9.4509231 -4.6395439,-2.921194 -14.7205282,-2.921194 h -13.174014 z m 0,9.6800363 v 28.925552 h 15.980652 q 10.3673756,0 14.6059713,-4.066761 4.295874,-4.066761 4.295874,-10.940159 0,-4.353153 -1.94746292,-7.446182 Q -2.2072472,19.091799 -6.5031212,17.430728 -10.798995,15.769657 -18.073342,15.769657 Z"
         id="text4"
         style="font-weight:500;font-size:117.306px;line-height:0;font-family:'open sans';-inkscape-font-specification:'open sans Medium';letter-spacing:0px;word-spacing:0px;white-space:pre;stroke-width:10.6772;stroke-linecap:round"
         inkscape:label="Symbol B"
         transform="matrix(0.26458333,0,0,0.26458333,-112.14955,133.52003)"
         aria-label="B" />
    </g>
    <g
       id="g6"
       inkscape:label="Style - Outline (Black)"
       style="display:none">
      <path
         style="color:#000000;display:inline;fill:#000000;fill-opacity:1;stroke-linecap:round;stroke-linejoin:round;-inkscape-stroke:none"
         d="m -95.899378,138.00743 a 21.214285,21.214285 0 0 1 -21.214282,21.21429 21.214285,21.214285 0 0 1 -21.21429,-21.21429 21.214285,21.214285 0 0 1 21.21429,-21.21428 21.214285,21.214285 0 0 1 21.214282,21.21428 z"
         id="path5"
         inkscape:label="Circle" />
      <path
         style="color:#000000;display:inline;fill:#ffffff;fill-opacity:1;stroke-linecap:round;stroke-linejoin:round;-inkscape-stroke:none"
         d="m -117.11328,115.24219 c -12.554,0 -22.76563,10.21163 -22.76563,22.76562 0,12.554 10.21163,22.76367 22.76563,22.76367 12.55399,0 22.763671,-10.20967 22.763671,-22.76367 0,-12.55399 -10.209681,-22.76562 -22.763671,-22.76562 z m 0,3.10156 c 10.87863,0 19.664061,8.78543 19.664061,19.66406 0,10.87864 -8.785431,19.66406 -19.664061,19.66406 -10.87863,0 -19.66406,-8.78542 -19.66406,-19.66406 0,-10.87863 8.78543,-19.66406 19.66406,-19.66406 z"
         id="path6"
         inkscape:label="Outline" />
      <path
         d="m -44.994152,-29.136546 h 24.286007 q 15.9806517,0 24.0568949,4.696822 8.0762431,4.696822 8.0762431,16.0952081 0,4.8686572 -1.7756279,8.70630462 Q 7.8737372,4.1994362 4.4943163,6.7196823 1.1148954,9.2399284 -3.8110401,10.156381 v 0.572784 q 5.1550488,0.859174 9.1645312,3.093029 4.0094824,2.233854 6.3006149,6.357894 2.348411,4.06676 2.348411,10.481932 0,7.675295 -3.608534,13.059457 -3.6085339,5.326884 -10.25281905,8.133522 -6.58700685,2.749359 -15.69425995,2.749359 h -29.441056 z m 11.742055,35.2261667 h 14.605972 q 10.1382626,0 14.0331884,-3.3221425 3.89492574,-3.3221426 3.89492574,-9.6800361 0,-6.5870071 -4.63954394,-9.4509231 -4.6395439,-2.921194 -14.7205282,-2.921194 h -13.174014 z m 0,9.6800363 v 28.925552 h 15.980652 q 10.3673756,0 14.6059713,-4.066761 4.295874,-4.066761 4.295874,-10.940159 0,-4.353153 -1.94746292,-7.446182 Q -2.2072472,19.091799 -6.5031212,17.430728 -10.798995,15.769657 -18.073342,15.769657 Z"
         id="text5"
         style="font-weight:500;font-size:117.306px;line-height:0;font-family:'open sans';-inkscape-font-specification:'open sans Medium';letter-spacing:0px;word-spacing:0px;white-space:pre;fill:#ffffff;stroke-width:10.6772;stroke-linecap:round"
         inkscape:label="Symbol B"
         transform="matrix(0.26458333,0,0,0.26458333,-112.14955,133.52003)"
         aria-label="B" />
    </g>
    <g
       id="g8"
       inkscape:label="Style - Transparent"
       style="display:inline;fill:#ffffff;fill-opacity:1">
      <path
         style="color:#000000;display:inline;fill:#808080;fill-opacity:0.501031;stroke-linecap:round;stroke-linejoin:round;-inkscape-stroke:none;paint-order:stroke markers fill"
         d="m -117.11328,115.24219 c -12.554,-10e-6 -22.76562,10.21163 -22.76563,22.76562 0,12.554 10.21163,22.76368 22.76563,22.76367 12.554,0 22.763674,-10.20967 22.763671,-22.76367 -3e-6,-12.55399 -10.209681,-22.76562 -22.763671,-22.76562 z m 0,3.10156 c 10.87863,0 19.664059,8.78543 19.664061,19.66406 3e-6,10.87864 -8.785431,19.66406 -19.664061,19.66406 -10.87864,10e-6 -19.66407,-8.78542 -19.66406,-19.66406 0,-10.87863 8.78543,-19.66406 19.66406,-19.66406 z"
         id="path9"
         inkscape:label="Outline" />
      <path
         style="color:#000000;display:inline;stroke-linecap:round;stroke-linejoin:round;-inkscape-stroke:none;paint-order:stroke markers fill"
         d="m -95.899378,138.00743 a 21.214285,21.214285 0 0 1 -21.214282,21.21429 21.214285,21.214285 0 0 1 -21.21429,-21.21429 21.214285,21.214285 0 0 1 21.21429,-21.21428 21.214285,21.214285 0 0 1 21.214282,21.21428 z"
         id="path10"
         inkscape:label="Circle" />
      <path
         d="m -44.994152,-29.136546 h 24.286007 q 15.9806517,0 24.0568949,4.696822 8.0762431,4.696822 8.0762431,16.0952081 0,4.8686572 -1.7756279,8.70630462 Q 7.8737372,4.1994362 4.4943163,6.7196823 1.1148954,9.2399284 -3.8110401,10.156381 v 0.572784 q 5.1550488,0.859174 9.1645312,3.093029 4.0094824,2.233854 6.3006149,6.357894 2.348411,4.06676 2.348411,10.481932 0,7.675295 -3.608534,13.059457 -3.6085339,5.326884 -10.25281905,8.133522 -6.58700685,2.749359 -15.69425995,2.749359 h -29.441056 z m 11.742055,35.2261667 h 14.605972 q 10.1382626,0 14.0331884,-3.3221425 3.89492574,-3.3221426 3.89492574,-9.6800361 0,-6.5870071 -4.63954394,-9.4509231 -4.6395439,-2.921194 -14.7205282,-2.921194 h -13.174014 z m 0,9.6800363 v 28.925552 h 15.980652 q 10.3673756,0 14.6059713,-4.066761 4.295874,-4.066761 4.295874,-10.940159 0,-4.353153 -1.94746292,-7.446182 Q -2.2072472,19.091799 -6.5031212,17.430728 -10.798995,15.769657 -18.073342,15.769657 Z"
         id="text1"
         style="font-weight:500;font-size:117.306px;line-height:0;font-family:'open sans';-inkscape-font-specification:'open sans Medium';letter-spacing:0px;word-spacing:0px;white-space:pre;fill:#808080;stroke-width:10.6772;stroke-linecap:round"
         inkscape:label="Symbol B"
         transform="matrix(0.26458333,0,0,0.26458333,-112.14955,133.52003)"
         aria-label="B" />
    </g>
  </g>
  <metadata
     id="metadata8">
    <rdf:RDF>
      <cc:Work
         rdf:about="">
        <cc:license
           rdf:resource="https://opensource.org/license/mit" />
      </cc:Work>
    </rdf:RDF>
  </metadata>
</svg>
