<?xml version="1.0" encoding="UTF-8" standalone="no"?>
<!-- Created with Inkscape (http://www.inkscape.org/) -->

<svg
   width="44.862999mm"
   height="48.167377mm"
   viewBox="0 0 44.862998 48.167377"
   version="1.1"
   id="svg1"
   xml:space="preserve"
   sodipodi:docname="shared-Right Stick Click.svg"
   inkscape:version="1.3.2 (091e20e, 2023-11-25, custom)"
   xmlns:inkscape="http://www.inkscape.org/namespaces/inkscape"
   xmlns:sodipodi="http://sodipodi.sourceforge.net/DTD/sodipodi-0.dtd"
   xmlns="http://www.w3.org/2000/svg"
   xmlns:svg="http://www.w3.org/2000/svg"><sodipodi:namedview
     id="namedview1"
     pagecolor="#65ffaf"
     bordercolor="#000000"
     borderopacity="0.25"
     inkscape:showpageshadow="2"
     inkscape:pageopacity="0.0"
     inkscape:pagecheckerboard="0"
     inkscape:deskcolor="#d1d1d1"
     inkscape:document-units="mm"
     inkscape:zoom="2.1131289"
     inkscape:cx="9.2280219"
     inkscape:cy="203.01648"
     inkscape:window-width="2560"
     inkscape:window-height="1344"
     inkscape:window-x="-9"
     inkscape:window-y="-9"
     inkscape:window-maximized="1"
     inkscape:current-layer="layer1" /><defs
     id="defs1" /><g
     inkscape:label="Right Stick Click"
     id="layer1"
     transform="matrix(1.8988062,0,0,1.8988062,-230.66787,-190.48883)"><g
       id="g6"
       inkscape:label="Style - Outline (White)"
       style="display:none;stroke-width:1;stroke-dasharray:none"><g
         id="path5"
         inkscape:label="Joystick Click Shape"><path
           style="color:#000000;fill:#ffffff;stroke-linecap:round;stroke-linejoin:round;-inkscape-stroke:none"
           d="m 124.09205,108.46171 c -1.17046,0 -2.11253,0.94207 -2.11253,2.11253 0,1.17046 0.94207,2.11305 2.11253,2.11305 h 1.10174 v 12.4995 h 16.19902 v -12.4995 h 1.10122 c 1.17046,0 2.11253,-0.94259 2.11253,-2.11305 0,-1.17046 -0.94207,-2.11253 -2.11253,-2.11253 z"
           id="path21"
           inkscape:label="Color" /><path
           style="color:#000000;display:inline;fill:#000000;stroke-linecap:round;stroke-linejoin:round;-inkscape-stroke:none"
           d="m 124.0918,107.96094 c -1.43875,0 -2.61133,1.17453 -2.61133,2.61328 0,1.43875 1.17243,2.61328 2.61133,2.61328 h 0.60156 v 12 a 0.50005,0.50005 0 0 0 0.5,0.5 h 16.19922 a 0.50005,0.50005 0 0 0 0.5,-0.5 v -12 h 0.60156 c 1.4389,0 2.61328,-1.17453 2.61328,-2.61328 0,-1.43875 -1.17453,-2.61328 -2.61328,-2.61328 z m 0,1 h 18.40234 c 0.90217,0 1.61328,0.71111 1.61328,1.61328 0,0.90217 -0.71126,1.61328 -1.61328,1.61328 h -1.10156 a 0.50005,0.50005 0 0 0 -0.5,0.5 v 12 h -15.19922 v -12 a 0.50005,0.50005 0 0 0 -0.5,-0.5 h -1.10156 c -0.90202,0 -1.61133,-0.71111 -1.61133,-1.61328 0,-0.90217 0.70916,-1.61328 1.61133,-1.61328 z"
           id="path22"
           inkscape:label="Outline" /></g><g
         id="path6"
         inkscape:label="Arrow Indicator"><path
           style="color:#000000;fill:#000000;stroke-linecap:round;stroke-linejoin:round;-inkscape-stroke:none;paint-order:stroke fill markers"
           d="m 127.00195,100.32031 c -0.47125,6.7e-4 -0.8787,0.32838 -1.01757,0.7168 -0.13888,0.38842 -0.032,0.90187 0.33203,1.20117 l 3.14453,2.58594 3.14453,2.58789 c 0.3958,0.32537 0.9792,0.32537 1.375,0 l 3.14453,-2.58789 3.14453,-2.58594 c 0.36421,-0.29947 0.47124,-0.81266 0.33203,-1.20117 -0.1392,-0.38851 -0.54605,-0.71677 -1.01758,-0.7168 h -6.29101 z m 0.88868,1.40039 h 5.40234 5.40234 l -2.45898,2.02344 -2.94336,2.41992 -2.94336,-2.41992 z"
           id="path17"
           inkscape:label="Outline" /><path
           style="color:#000000;display:inline;fill:#ffffff;stroke-linecap:round;stroke-linejoin:round;-inkscape-stroke:none;paint-order:stroke fill markers"
           d="m 127.0027,101.02057 a 0.38164931,0.38164931 0 0 0 -0.24185,0.67644 l 3.14503,2.58744 3.14503,2.58641 a 0.38164931,0.38164931 0 0 0 0.48472,0 l 3.14503,-2.58641 3.14503,-2.58744 a 0.38164931,0.38164931 0 0 0 -0.24237,-0.67644 h -6.29005 z"
           id="path18"
           sodipodi:insensitive="true"
           inkscape:label="Arrow Shape" /></g><path
         d="m 130.13638,114.67529 q 0.97928,0 1.61449,0.2435 0.6405,0.2382 0.95281,0.73049 0.31232,0.48699 0.31232,1.23865 0,0.59287 -0.21703,1.00046 -0.21703,0.40759 -0.57169,0.66697 -0.34937,0.25938 -0.75167,0.40759 l 2.16501,3.4513 h -1.24395 l -1.88446,-3.16545 h -1.42392 v 3.16545 h -1.08515 v -7.73896 z m -0.0688,0.92105 h -0.97928 v 2.74728 h 1.05338 q 0.91576,0 1.33924,-0.35466 0.42347,-0.35995 0.42347,-1.05868 0,-0.72519 -0.44994,-1.02692 -0.44994,-0.30702 -1.38687,-0.30702 z m 8.76601,4.7376 q 0,0.68815 -0.34407,1.18043 -0.33878,0.487 -0.95811,0.74637 -0.61933,0.25938 -1.47156,0.25938 -0.42877,0 -0.82048,-0.0476 -0.38642,-0.0423 -0.71991,-0.12704 -0.33348,-0.0847 -0.60344,-0.21174 v -1.02692 q 0.43935,0.17998 1.01633,0.33878 0.57698,0.15351 1.19102,0.15351 0.53463,0 0.89458,-0.14292 0.36525,-0.14822 0.55052,-0.41289 0.18527,-0.26467 0.18527,-0.63521 0,-0.37054 -0.17998,-0.61933 -0.17998,-0.25408 -0.57169,-0.46582 -0.38642,-0.21173 -1.01633,-0.44994 -0.43935,-0.1588 -0.79931,-0.35995 -0.35995,-0.20644 -0.62462,-0.47111 -0.25938,-0.26467 -0.4023,-0.61933 -0.14292,-0.35995 -0.14292,-0.82577 0,-0.64051 0.31231,-1.09574 0.31761,-0.45523 0.884,-0.69343 0.5664,-0.2435 1.31277,-0.2435 0.61403,0 1.14337,0.12175 0.53464,0.12175 1.01634,0.33348 l -0.34408,0.89988 q -0.44993,-0.18527 -0.90517,-0.30172 -0.45523,-0.11646 -0.94222,-0.11646 -0.44994,0 -0.76226,0.13234 -0.30701,0.13233 -0.47111,0.37583 -0.1588,0.2435 -0.1588,0.57698 0,0.37583 0.16939,0.62462 0.16939,0.24879 0.53463,0.44994 0.36525,0.20115 0.95282,0.42877 0.66167,0.25408 1.1222,0.53993 0.46582,0.28584 0.70931,0.68814 0.2435,0.4023 0.2435,1.01633 z"
         id="text28"
         style="font-weight:500;font-size:10.8409px;line-height:0;font-family:'open sans';-inkscape-font-specification:'open sans Medium';letter-spacing:-0.396875px;word-spacing:0px;fill-opacity:0.996556;stroke-linecap:round"
         inkscape:label="Symbol RS"
         transform="translate(1.125e-6)"
         aria-label="RS" /></g><g
       id="g27"
       inkscape:label="Style - Outline (Black)"
       style="display:none;stroke-width:1;stroke-dasharray:none"><g
         id="g24"
         inkscape:label="Joystick Click Shape"><path
           style="color:#000000;fill:#000000;stroke-linecap:round;stroke-linejoin:round;-inkscape-stroke:none"
           d="m 124.09205,108.46171 c -1.17046,0 -2.11253,0.94207 -2.11253,2.11253 0,1.17046 0.94207,2.11305 2.11253,2.11305 h 1.10174 v 12.4995 h 16.19902 v -12.4995 h 1.10122 c 1.17046,0 2.11253,-0.94259 2.11253,-2.11305 0,-1.17046 -0.94207,-2.11253 -2.11253,-2.11253 z"
           id="path23"
           inkscape:label="Color" /><path
           style="color:#000000;display:inline;fill:#ffffff;stroke-linecap:round;stroke-linejoin:round;-inkscape-stroke:none"
           d="m 124.0918,107.96094 c -1.43875,0 -2.61133,1.17453 -2.61133,2.61328 0,1.43875 1.17243,2.61328 2.61133,2.61328 h 0.60156 v 12 a 0.50005,0.50005 0 0 0 0.5,0.5 h 16.19922 a 0.50005,0.50005 0 0 0 0.5,-0.5 v -12 h 0.60156 c 1.4389,0 2.61328,-1.17453 2.61328,-2.61328 0,-1.43875 -1.17453,-2.61328 -2.61328,-2.61328 z m 0,1 h 18.40234 c 0.90217,0 1.61328,0.71111 1.61328,1.61328 0,0.90217 -0.71126,1.61328 -1.61328,1.61328 h -1.10156 a 0.50005,0.50005 0 0 0 -0.5,0.5 v 12 h -15.19922 v -12 a 0.50005,0.50005 0 0 0 -0.5,-0.5 h -1.10156 c -0.90202,0 -1.61133,-0.71111 -1.61133,-1.61328 0,-0.90217 0.70916,-1.61328 1.61133,-1.61328 z"
           id="path24"
           inkscape:label="Outline" /></g><g
         id="g26"
         inkscape:label="Arrow Indicator"><path
           style="color:#000000;fill:#ffffff;stroke-linecap:round;stroke-linejoin:round;-inkscape-stroke:none;paint-order:stroke fill markers"
           d="m 127.00195,100.32031 c -0.47125,6.7e-4 -0.8787,0.32838 -1.01757,0.7168 -0.13888,0.38842 -0.032,0.90187 0.33203,1.20117 l 3.14453,2.58594 3.14453,2.58789 c 0.3958,0.32537 0.9792,0.32537 1.375,0 l 3.14453,-2.58789 3.14453,-2.58594 c 0.36421,-0.29947 0.47124,-0.81266 0.33203,-1.20117 -0.1392,-0.38851 -0.54605,-0.71677 -1.01758,-0.7168 h -6.29101 z m 0.88868,1.40039 h 5.40234 5.40234 l -2.45898,2.02344 -2.94336,2.41992 -2.94336,-2.41992 z"
           id="path25"
           inkscape:label="Outline" /><path
           style="color:#000000;display:inline;fill:#000000;stroke-linecap:round;stroke-linejoin:round;-inkscape-stroke:none;paint-order:stroke fill markers"
           d="m 127.0027,101.02057 a 0.38164931,0.38164931 0 0 0 -0.24185,0.67644 l 3.14503,2.58744 3.14503,2.58641 a 0.38164931,0.38164931 0 0 0 0.48472,0 l 3.14503,-2.58641 3.14503,-2.58744 a 0.38164931,0.38164931 0 0 0 -0.24237,-0.67644 h -6.29005 z"
           id="path26"
           inkscape:label="Arrow Shape" /></g><path
         d="m 130.13638,114.67529 q 0.97928,0 1.61449,0.2435 0.6405,0.2382 0.95281,0.73049 0.31232,0.48699 0.31232,1.23865 0,0.59287 -0.21703,1.00046 -0.21703,0.40759 -0.57169,0.66697 -0.34937,0.25938 -0.75167,0.40759 l 2.16501,3.4513 h -1.24395 l -1.88446,-3.16545 h -1.42392 v 3.16545 h -1.08515 v -7.73896 z m -0.0688,0.92105 h -0.97928 v 2.74728 h 1.05338 q 0.91576,0 1.33924,-0.35466 0.42347,-0.35995 0.42347,-1.05868 0,-0.72519 -0.44994,-1.02692 -0.44994,-0.30702 -1.38687,-0.30702 z m 8.76601,4.7376 q 0,0.68815 -0.34407,1.18043 -0.33878,0.487 -0.95811,0.74637 -0.61933,0.25938 -1.47156,0.25938 -0.42877,0 -0.82048,-0.0476 -0.38642,-0.0423 -0.71991,-0.12704 -0.33348,-0.0847 -0.60344,-0.21174 v -1.02692 q 0.43935,0.17998 1.01633,0.33878 0.57698,0.15351 1.19102,0.15351 0.53463,0 0.89458,-0.14292 0.36525,-0.14822 0.55052,-0.41289 0.18527,-0.26467 0.18527,-0.63521 0,-0.37054 -0.17998,-0.61933 -0.17998,-0.25408 -0.57169,-0.46582 -0.38642,-0.21173 -1.01633,-0.44994 -0.43935,-0.1588 -0.79931,-0.35995 -0.35995,-0.20644 -0.62462,-0.47111 -0.25938,-0.26467 -0.4023,-0.61933 -0.14292,-0.35995 -0.14292,-0.82577 0,-0.64051 0.31231,-1.09574 0.31761,-0.45523 0.884,-0.69343 0.5664,-0.2435 1.31277,-0.2435 0.61403,0 1.14337,0.12175 0.53464,0.12175 1.01634,0.33348 l -0.34408,0.89988 q -0.44993,-0.18527 -0.90517,-0.30172 -0.45523,-0.11646 -0.94222,-0.11646 -0.44994,0 -0.76226,0.13234 -0.30701,0.13233 -0.47111,0.37583 -0.1588,0.2435 -0.1588,0.57698 0,0.37583 0.16939,0.62462 0.16939,0.24879 0.53463,0.44994 0.36525,0.20115 0.95282,0.42877 0.66167,0.25408 1.1222,0.53993 0.46582,0.28584 0.70931,0.68814 0.2435,0.4023 0.2435,1.01633 z"
         id="text27"
         style="font-weight:500;font-size:10.8409px;line-height:0;font-family:'open sans';-inkscape-font-specification:'open sans Medium';letter-spacing:-0.396875px;word-spacing:0px;fill:#ffffff;fill-opacity:0.996556;stroke-linecap:round"
         inkscape:label="Symbol RS"
         transform="translate(1.125e-6)"
         aria-label="RS" /></g><g
       id="g5"
       inkscape:label="Style - Transparent"
       style="display:inline;stroke-width:1;stroke-dasharray:none"><g
         id="rect1"
         inkscape:label="Joystick Click Shape"><path
           style="color:#000000;display:inline;fill:#808080;fill-opacity:0.501961;stroke-linecap:round;-inkscape-stroke:none;paint-order:stroke fill markers"
           d="m 124.0918,107.96094 c -1.43875,0 -2.61133,1.17453 -2.61133,2.61328 0,1.43875 1.17243,2.61328 2.61133,2.61328 h 0.60156 v 12.5 h 17.19922 v -12.5 h 0.60156 c 1.4389,0 2.61328,-1.17453 2.61328,-2.61328 0,-1.43875 -1.17453,-2.61328 -2.61328,-2.61328 z m 0,1 h 18.40234 c 0.90217,0 1.61328,0.71111 1.61328,1.61328 0,0.90217 -0.71126,1.61328 -1.61328,1.61328 h -1.60156 v 12.5 h -15.19922 v -12.5 h -1.60156 c -0.90202,0 -1.61133,-0.71111 -1.61133,-1.61328 0,-0.90217 0.70916,-1.61328 1.61133,-1.61328 z"
           id="path7"
           inkscape:label="Outline" /><path
           style="color:#000000;display:inline;fill:#ffffff;stroke-linecap:round;-inkscape-stroke:none;paint-order:stroke fill markers"
           d="m 124.09205,108.46171 c -1.17046,0 -2.11253,0.94207 -2.11253,2.11253 0,1.17046 0.94207,2.11305 2.11253,2.11305 h 1.10174 v 12.4995 h 16.19902 v -12.4995 h 1.10122 c 1.17046,0 2.11253,-0.94259 2.11253,-2.11305 0,-1.17046 -0.94207,-2.11253 -2.11253,-2.11253 z"
           id="path8"
           inkscape:label="Color" /></g><g
         id="g20"
         inkscape:label="Arrow Indicator"
         style="display:inline;stroke-width:1;stroke-dasharray:none"><path
           style="color:#000000;fill:#808080;fill-opacity:0.501961;stroke-linecap:round;stroke-linejoin:round;-inkscape-stroke:none;paint-order:stroke fill markers"
           d="m 127.00195,100.32031 c -0.47125,6.7e-4 -0.8787,0.32838 -1.01757,0.7168 -0.13888,0.38842 -0.032,0.90187 0.33203,1.20117 l 3.14453,2.58594 3.14453,2.58789 c 0.3958,0.32537 0.9792,0.32537 1.375,0 l 3.14453,-2.58789 3.14453,-2.58594 c 0.36421,-0.29947 0.47124,-0.81266 0.33203,-1.20117 -0.1392,-0.38851 -0.54605,-0.71677 -1.01758,-0.7168 h -6.29101 z m 0.88868,1.40039 h 5.40234 5.40234 l -2.45898,2.02344 -2.94336,2.41992 -2.94336,-2.41992 z"
           id="path19"
           inkscape:label="Outline" /><path
           style="color:#000000;display:inline;fill:#ffffff;stroke-linecap:round;stroke-linejoin:round;-inkscape-stroke:none;paint-order:stroke fill markers"
           d="m 127.0027,101.02057 a 0.38164931,0.38164931 0 0 0 -0.24185,0.67644 l 3.14503,2.58744 3.14503,2.58641 a 0.38164931,0.38164931 0 0 0 0.48472,0 l 3.14503,-2.58641 3.14503,-2.58744 a 0.38164931,0.38164931 0 0 0 -0.24237,-0.67644 h -6.29005 z"
           id="path20"
           inkscape:label="Arrow Shape" /></g><path
         d="m 130.13638,114.67529 q 0.97928,0 1.61449,0.2435 0.6405,0.2382 0.95281,0.73049 0.31232,0.48699 0.31232,1.23865 0,0.59287 -0.21703,1.00046 -0.21703,0.40759 -0.57169,0.66697 -0.34937,0.25938 -0.75167,0.40759 l 2.16501,3.4513 h -1.24395 l -1.88446,-3.16545 h -1.42392 v 3.16545 h -1.08515 v -7.73896 z m -0.0688,0.92105 h -0.97928 v 2.74728 h 1.05338 q 0.91576,0 1.33924,-0.35466 0.42347,-0.35995 0.42347,-1.05868 0,-0.72519 -0.44994,-1.02692 -0.44994,-0.30702 -1.38687,-0.30702 z m 8.76601,4.7376 q 0,0.68815 -0.34407,1.18043 -0.33878,0.487 -0.95811,0.74637 -0.61933,0.25938 -1.47156,0.25938 -0.42877,0 -0.82048,-0.0476 -0.38642,-0.0423 -0.71991,-0.12704 -0.33348,-0.0847 -0.60344,-0.21174 v -1.02692 q 0.43935,0.17998 1.01633,0.33878 0.57698,0.15351 1.19102,0.15351 0.53463,0 0.89458,-0.14292 0.36525,-0.14822 0.55052,-0.41289 0.18527,-0.26467 0.18527,-0.63521 0,-0.37054 -0.17998,-0.61933 -0.17998,-0.25408 -0.57169,-0.46582 -0.38642,-0.21173 -1.01633,-0.44994 -0.43935,-0.1588 -0.79931,-0.35995 -0.35995,-0.20644 -0.62462,-0.47111 -0.25938,-0.26467 -0.4023,-0.61933 -0.14292,-0.35995 -0.14292,-0.82577 0,-0.64051 0.31231,-1.09574 0.31761,-0.45523 0.884,-0.69343 0.5664,-0.2435 1.31277,-0.2435 0.61403,0 1.14337,0.12175 0.53464,0.12175 1.01634,0.33348 l -0.34408,0.89988 q -0.44993,-0.18527 -0.90517,-0.30172 -0.45523,-0.11646 -0.94222,-0.11646 -0.44994,0 -0.76226,0.13234 -0.30701,0.13233 -0.47111,0.37583 -0.1588,0.2435 -0.1588,0.57698 0,0.37583 0.16939,0.62462 0.16939,0.24879 0.53463,0.44994 0.36525,0.20115 0.95282,0.42877 0.66167,0.25408 1.1222,0.53993 0.46582,0.28584 0.70931,0.68814 0.2435,0.4023 0.2435,1.01633 z"
         id="text2"
         style="font-weight:500;font-size:10.8409px;line-height:0;font-family:'open sans';-inkscape-font-specification:'open sans Medium';letter-spacing:-0.396875px;word-spacing:0px;fill:#808080;fill-opacity:0.996556;stroke-linecap:round"
         inkscape:label="Symbol RS"
         aria-label="RS" /></g></g></svg>
