<?xml version="1.0" encoding="UTF-8" standalone="no"?>
<!-- Created with Inkscape (http://www.inkscape.org/) -->

<svg
   width="44.862999mm"
   height="48.167377mm"
   viewBox="0 0 44.862998 48.167377"
   version="1.1"
   id="svg1"
   xml:space="preserve"
   sodipodi:docname="shared-R3 Click.svg"
   inkscape:version="1.3.2 (091e20e, 2023-11-25, custom)"
   xmlns:inkscape="http://www.inkscape.org/namespaces/inkscape"
   xmlns:sodipodi="http://sodipodi.sourceforge.net/DTD/sodipodi-0.dtd"
   xmlns="http://www.w3.org/2000/svg"
   xmlns:svg="http://www.w3.org/2000/svg"><sodipodi:namedview
     id="namedview1"
     pagecolor="#65ffaf"
     bordercolor="#000000"
     borderopacity="0.25"
     inkscape:showpageshadow="2"
     inkscape:pageopacity="0.0"
     inkscape:pagecheckerboard="0"
     inkscape:deskcolor="#d1d1d1"
     inkscape:document-units="mm"
     inkscape:zoom="2.9884155"
     inkscape:cx="81.481307"
     inkscape:cy="102.73003"
     inkscape:window-width="2560"
     inkscape:window-height="1344"
     inkscape:window-x="-9"
     inkscape:window-y="-9"
     inkscape:window-maximized="1"
     inkscape:current-layer="svg1" /><defs
     id="defs1" /><g
     inkscape:label="R3 Click"
     id="layer1"
     transform="matrix(1.8988062,0,0,1.8988062,-230.66787,-190.48883)"><g
       id="g6"
       inkscape:label="Style - Outline (White)"
       style="display:none;stroke-width:1;stroke-dasharray:none"><g
         id="path5"
         inkscape:label="Joystick Click Shape"><path
           style="color:#000000;fill:#ffffff;stroke-linecap:round;stroke-linejoin:round;-inkscape-stroke:none"
           d="m 124.09205,108.46171 c -1.17046,0 -2.11253,0.94207 -2.11253,2.11253 0,1.17046 0.94207,2.11305 2.11253,2.11305 h 1.10174 v 12.4995 h 16.19902 v -12.4995 h 1.10122 c 1.17046,0 2.11253,-0.94259 2.11253,-2.11305 0,-1.17046 -0.94207,-2.11253 -2.11253,-2.11253 z"
           id="path21"
           inkscape:label="Color" /><path
           style="color:#000000;display:inline;fill:#000000;stroke-linecap:round;stroke-linejoin:round;-inkscape-stroke:none"
           d="m 124.0918,107.96094 c -1.43875,0 -2.61133,1.17453 -2.61133,2.61328 0,1.43875 1.17243,2.61328 2.61133,2.61328 h 0.60156 v 12 a 0.50005,0.50005 0 0 0 0.5,0.5 h 16.19922 a 0.50005,0.50005 0 0 0 0.5,-0.5 v -12 h 0.60156 c 1.4389,0 2.61328,-1.17453 2.61328,-2.61328 0,-1.43875 -1.17453,-2.61328 -2.61328,-2.61328 z m 0,1 h 18.40234 c 0.90217,0 1.61328,0.71111 1.61328,1.61328 0,0.90217 -0.71126,1.61328 -1.61328,1.61328 h -1.10156 a 0.50005,0.50005 0 0 0 -0.5,0.5 v 12 h -15.19922 v -12 a 0.50005,0.50005 0 0 0 -0.5,-0.5 h -1.10156 c -0.90202,0 -1.61133,-0.71111 -1.61133,-1.61328 0,-0.90217 0.70916,-1.61328 1.61133,-1.61328 z"
           id="path22"
           inkscape:label="Outline" /></g><g
         id="path6"
         inkscape:label="Arrow Indicator"><path
           style="color:#000000;fill:#000000;stroke-linecap:round;stroke-linejoin:round;-inkscape-stroke:none;paint-order:stroke fill markers"
           d="m 127.00195,100.32031 c -0.47125,6.7e-4 -0.8787,0.32838 -1.01757,0.7168 -0.13888,0.38842 -0.032,0.90187 0.33203,1.20117 l 3.14453,2.58594 3.14453,2.58789 c 0.3958,0.32537 0.9792,0.32537 1.375,0 l 3.14453,-2.58789 3.14453,-2.58594 c 0.36421,-0.29947 0.47124,-0.81266 0.33203,-1.20117 -0.1392,-0.38851 -0.54605,-0.71677 -1.01758,-0.7168 h -6.29101 z m 0.88868,1.40039 h 5.40234 5.40234 l -2.45898,2.02344 -2.94336,2.41992 -2.94336,-2.41992 z"
           id="path17"
           inkscape:label="Outline" /><path
           style="color:#000000;display:inline;fill:#ffffff;stroke-linecap:round;stroke-linejoin:round;-inkscape-stroke:none;paint-order:stroke fill markers"
           d="m 127.0027,101.02057 a 0.38164931,0.38164931 0 0 0 -0.24185,0.67644 l 3.14503,2.58744 3.14503,2.58641 a 0.38164931,0.38164931 0 0 0 0.48472,0 l 3.14503,-2.58641 3.14503,-2.58744 a 0.38164931,0.38164931 0 0 0 -0.24237,-0.67644 h -6.29005 z"
           id="path18"
           sodipodi:insensitive="true"
           inkscape:label="Arrow Shape" /></g><path
         id="path3"
         style="font-weight:500;font-size:10.8409px;line-height:0;font-family:'open sans';-inkscape-font-specification:'open sans Medium';letter-spacing:-0.396875px;word-spacing:0px;display:inline;fill:#000000;fill-opacity:0.996556;stroke-width:1;stroke-linecap:round;stroke-dasharray:none"
         d="m 136.51004,114.5613 c -0.52581,0 -0.99366,0.0778 -1.40301,0.23306 -0.40583,0.15528 -0.75131,0.34241 -1.03715,0.56121 l 0.524,0.73587 c 0.17645,-0.11999 0.35815,-0.2277 0.54519,-0.32298 0.19056,-0.0953 0.39512,-0.17142 0.61391,-0.22789 0.22233,-0.06 0.46768,-0.0899 0.73588,-0.0899 0.43406,0 0.76918,0.10065 1.00562,0.30179 0.23997,0.19762 0.36018,0.47833 0.36018,0.84181 0,0.27879 -0.0691,0.52198 -0.2067,0.73019 -0.13763,0.20821 -0.34762,0.37085 -0.62994,0.48731 -0.27878,0.11293 -0.63512,0.1695 -1.06918,0.1695 h -0.73587 v 0.8785 h 0.72502 c 0.46581,0 0.85424,0.0457 1.16478,0.13746 0.31408,0.0918 0.55071,0.23482 0.70952,0.42891 0.1588,0.19056 0.23823,0.43755 0.23823,0.74104 0,0.45877 -0.1485,0.8189 -0.44494,1.08004 -0.2929,0.26114 -0.77653,0.39171 -1.45055,0.39171 -0.34584,0 -0.70545,-0.0441 -1.07952,-0.1323 -0.37407,-0.0917 -0.7217,-0.21904 -1.04283,-0.38137 v 0.96893 c 0.3176,0.14822 0.65273,0.25594 1.00562,0.32298 0.35289,0.0671 0.73588,0.10025 1.14877,0.10025 0.68814,0 1.25068,-0.0985 1.68826,-0.2961 0.44112,-0.19763 0.76805,-0.47126 0.97979,-0.82062 0.21173,-0.34937 0.31729,-0.74814 0.31729,-1.19631 0,-0.51523 -0.15721,-0.92978 -0.47129,-1.24385 -0.31054,-0.31408 -0.77244,-0.50993 -1.38647,-0.58757 v -0.0372 c 0.32113,-0.0671 0.60348,-0.18183 0.84697,-0.34417 0.2435,-0.16232 0.43392,-0.37068 0.57154,-0.62477 0.13756,-0.25748 0.20612,-0.56087 0.20619,-0.91002 v -5.1e-4 c -1.2e-4,-0.56439 -0.20632,-1.0212 -0.61908,-1.37046 -0.41288,-0.34937 -1.01621,-0.52452 -1.81023,-0.52452 z m -8.56485,0.11111 v 7.73906 h 1.08521 v -3.16518 h 1.42368 l 1.88464,3.16518 h 1.24385 l -2.16524,-3.45095 c 0.26819,-0.0988 0.51898,-0.23481 0.75189,-0.40773 0.23644,-0.17291 0.42686,-0.39541 0.57154,-0.66714 0.14469,-0.27173 0.21705,-0.60522 0.21705,-1.00046 0,-0.50111 -0.10392,-0.91402 -0.31213,-1.23868 -0.20821,-0.32819 -0.52591,-0.57139 -0.95291,-0.73019 -0.42348,-0.16233 -0.96152,-0.24391 -1.61438,-0.24391 z m 1.08521,0.92139 h 0.97927 c 0.62461,0 1.08651,0.10227 1.38647,0.30695 0.29996,0.20115 0.45011,0.54335 0.45011,1.02682 0,0.46581 -0.14092,0.81888 -0.42323,1.05885 -0.28232,0.23643 -0.72895,0.3545 -1.33946,0.3545 h -1.05316 z"
         inkscape:label="Symbol R3"
         transform="translate(1.125e-6)" /></g><g
       id="g27"
       inkscape:label="Style - Outline (Black)"
       style="display:none;stroke-width:1;stroke-dasharray:none"><g
         id="g24"
         inkscape:label="Joystick Click Shape"><path
           style="color:#000000;fill:#000000;stroke-linecap:round;stroke-linejoin:round;-inkscape-stroke:none"
           d="m 124.09205,108.46171 c -1.17046,0 -2.11253,0.94207 -2.11253,2.11253 0,1.17046 0.94207,2.11305 2.11253,2.11305 h 1.10174 v 12.4995 h 16.19902 v -12.4995 h 1.10122 c 1.17046,0 2.11253,-0.94259 2.11253,-2.11305 0,-1.17046 -0.94207,-2.11253 -2.11253,-2.11253 z"
           id="path23"
           inkscape:label="Color" /><path
           style="color:#000000;display:inline;fill:#ffffff;stroke-linecap:round;stroke-linejoin:round;-inkscape-stroke:none"
           d="m 124.0918,107.96094 c -1.43875,0 -2.61133,1.17453 -2.61133,2.61328 0,1.43875 1.17243,2.61328 2.61133,2.61328 h 0.60156 v 12 a 0.50005,0.50005 0 0 0 0.5,0.5 h 16.19922 a 0.50005,0.50005 0 0 0 0.5,-0.5 v -12 h 0.60156 c 1.4389,0 2.61328,-1.17453 2.61328,-2.61328 0,-1.43875 -1.17453,-2.61328 -2.61328,-2.61328 z m 0,1 h 18.40234 c 0.90217,0 1.61328,0.71111 1.61328,1.61328 0,0.90217 -0.71126,1.61328 -1.61328,1.61328 h -1.10156 a 0.50005,0.50005 0 0 0 -0.5,0.5 v 12 h -15.19922 v -12 a 0.50005,0.50005 0 0 0 -0.5,-0.5 h -1.10156 c -0.90202,0 -1.61133,-0.71111 -1.61133,-1.61328 0,-0.90217 0.70916,-1.61328 1.61133,-1.61328 z"
           id="path24"
           inkscape:label="Outline" /></g><g
         id="g26"
         inkscape:label="Arrow Indicator"><path
           style="color:#000000;fill:#ffffff;stroke-linecap:round;stroke-linejoin:round;-inkscape-stroke:none;paint-order:stroke fill markers"
           d="m 127.00195,100.32031 c -0.47125,6.7e-4 -0.8787,0.32838 -1.01757,0.7168 -0.13888,0.38842 -0.032,0.90187 0.33203,1.20117 l 3.14453,2.58594 3.14453,2.58789 c 0.3958,0.32537 0.9792,0.32537 1.375,0 l 3.14453,-2.58789 3.14453,-2.58594 c 0.36421,-0.29947 0.47124,-0.81266 0.33203,-1.20117 -0.1392,-0.38851 -0.54605,-0.71677 -1.01758,-0.7168 h -6.29101 z m 0.88868,1.40039 h 5.40234 5.40234 l -2.45898,2.02344 -2.94336,2.41992 -2.94336,-2.41992 z"
           id="path25"
           inkscape:label="Outline" /><path
           style="color:#000000;display:inline;fill:#000000;stroke-linecap:round;stroke-linejoin:round;-inkscape-stroke:none;paint-order:stroke fill markers"
           d="m 127.0027,101.02057 a 0.38164931,0.38164931 0 0 0 -0.24185,0.67644 l 3.14503,2.58744 3.14503,2.58641 a 0.38164931,0.38164931 0 0 0 0.48472,0 l 3.14503,-2.58641 3.14503,-2.58744 a 0.38164931,0.38164931 0 0 0 -0.24237,-0.67644 h -6.29005 z"
           id="path26"
           inkscape:label="Arrow Shape" /></g><path
         id="path2"
         style="font-weight:500;font-size:10.8409px;line-height:0;font-family:'open sans';-inkscape-font-specification:'open sans Medium';letter-spacing:-0.396875px;word-spacing:0px;display:inline;fill:#ffffff;fill-opacity:0.996556;stroke-width:1;stroke-linecap:round;stroke-dasharray:none"
         d="m 136.51004,114.5613 c -0.52581,0 -0.99366,0.0778 -1.40301,0.23306 -0.40583,0.15528 -0.75131,0.34241 -1.03715,0.56121 l 0.524,0.73587 c 0.17645,-0.11999 0.35815,-0.2277 0.54519,-0.32298 0.19056,-0.0953 0.39512,-0.17142 0.61391,-0.22789 0.22233,-0.06 0.46768,-0.0899 0.73588,-0.0899 0.43406,0 0.76918,0.10065 1.00562,0.30179 0.23997,0.19762 0.36018,0.47833 0.36018,0.84181 0,0.27879 -0.0691,0.52198 -0.2067,0.73019 -0.13763,0.20821 -0.34762,0.37085 -0.62994,0.48731 -0.27878,0.11293 -0.63512,0.1695 -1.06918,0.1695 h -0.73587 v 0.8785 h 0.72502 c 0.46581,0 0.85424,0.0457 1.16478,0.13746 0.31408,0.0918 0.55071,0.23482 0.70952,0.42891 0.1588,0.19056 0.23823,0.43755 0.23823,0.74104 0,0.45877 -0.1485,0.8189 -0.44494,1.08004 -0.2929,0.26114 -0.77653,0.39171 -1.45055,0.39171 -0.34584,0 -0.70545,-0.0441 -1.07952,-0.1323 -0.37407,-0.0917 -0.7217,-0.21904 -1.04283,-0.38137 v 0.96893 c 0.3176,0.14822 0.65273,0.25594 1.00562,0.32298 0.35289,0.0671 0.73588,0.10025 1.14877,0.10025 0.68814,0 1.25068,-0.0985 1.68826,-0.2961 0.44112,-0.19763 0.76805,-0.47126 0.97979,-0.82062 0.21173,-0.34937 0.31729,-0.74814 0.31729,-1.19631 0,-0.51523 -0.15721,-0.92978 -0.47129,-1.24385 -0.31054,-0.31408 -0.77244,-0.50993 -1.38647,-0.58757 v -0.0372 c 0.32113,-0.0671 0.60348,-0.18183 0.84697,-0.34417 0.2435,-0.16232 0.43392,-0.37068 0.57154,-0.62477 0.13756,-0.25748 0.20612,-0.56087 0.20619,-0.91002 v -5.1e-4 c -1.2e-4,-0.56439 -0.20632,-1.0212 -0.61908,-1.37046 -0.41288,-0.34937 -1.01621,-0.52452 -1.81023,-0.52452 z m -8.56485,0.11111 v 7.73906 h 1.08521 v -3.16518 h 1.42368 l 1.88464,3.16518 h 1.24385 l -2.16524,-3.45095 c 0.26819,-0.0988 0.51898,-0.23481 0.75189,-0.40773 0.23644,-0.17291 0.42686,-0.39541 0.57154,-0.66714 0.14469,-0.27173 0.21705,-0.60522 0.21705,-1.00046 0,-0.50111 -0.10392,-0.91402 -0.31213,-1.23868 -0.20821,-0.32819 -0.52591,-0.57139 -0.95291,-0.73019 -0.42348,-0.16233 -0.96152,-0.24391 -1.61438,-0.24391 z m 1.08521,0.92139 h 0.97927 c 0.62461,0 1.08651,0.10227 1.38647,0.30695 0.29996,0.20115 0.45011,0.54335 0.45011,1.02682 0,0.46581 -0.14092,0.81888 -0.42323,1.05885 -0.28232,0.23643 -0.72895,0.3545 -1.33946,0.3545 h -1.05316 z"
         inkscape:label="Symbol R3"
         transform="translate(1.125e-6)" /></g><g
       id="g5"
       inkscape:label="Style - Transparent"
       style="display:inline;stroke-width:1;stroke-dasharray:none"><g
         id="rect1"
         inkscape:label="Joystick Click Shape"><path
           style="color:#000000;display:inline;fill:#808080;fill-opacity:0.501961;stroke-linecap:round;-inkscape-stroke:none;paint-order:stroke fill markers"
           d="m 124.0918,107.96094 c -1.43875,0 -2.61133,1.17453 -2.61133,2.61328 0,1.43875 1.17243,2.61328 2.61133,2.61328 h 0.60156 v 12.5 h 17.19922 v -12.5 h 0.60156 c 1.4389,0 2.61328,-1.17453 2.61328,-2.61328 0,-1.43875 -1.17453,-2.61328 -2.61328,-2.61328 z m 0,1 h 18.40234 c 0.90217,0 1.61328,0.71111 1.61328,1.61328 0,0.90217 -0.71126,1.61328 -1.61328,1.61328 h -1.60156 v 12.5 h -15.19922 v -12.5 h -1.60156 c -0.90202,0 -1.61133,-0.71111 -1.61133,-1.61328 0,-0.90217 0.70916,-1.61328 1.61133,-1.61328 z"
           id="path7"
           inkscape:label="Outline" /><path
           style="color:#000000;display:inline;fill:#ffffff;stroke-linecap:round;-inkscape-stroke:none;paint-order:stroke fill markers"
           d="m 124.09205,108.46171 c -1.17046,0 -2.11253,0.94207 -2.11253,2.11253 0,1.17046 0.94207,2.11305 2.11253,2.11305 h 1.10174 v 12.4995 h 16.19902 v -12.4995 h 1.10122 c 1.17046,0 2.11253,-0.94259 2.11253,-2.11305 0,-1.17046 -0.94207,-2.11253 -2.11253,-2.11253 z"
           id="path8"
           inkscape:label="Color" /></g><g
         id="g20"
         inkscape:label="Arrow Indicator"
         style="display:inline;stroke-width:1;stroke-dasharray:none"><path
           style="color:#000000;fill:#808080;fill-opacity:0.501961;stroke-linecap:round;stroke-linejoin:round;-inkscape-stroke:none;paint-order:stroke fill markers"
           d="m 127.00195,100.32031 c -0.47125,6.7e-4 -0.8787,0.32838 -1.01757,0.7168 -0.13888,0.38842 -0.032,0.90187 0.33203,1.20117 l 3.14453,2.58594 3.14453,2.58789 c 0.3958,0.32537 0.9792,0.32537 1.375,0 l 3.14453,-2.58789 3.14453,-2.58594 c 0.36421,-0.29947 0.47124,-0.81266 0.33203,-1.20117 -0.1392,-0.38851 -0.54605,-0.71677 -1.01758,-0.7168 h -6.29101 z m 0.88868,1.40039 h 5.40234 5.40234 l -2.45898,2.02344 -2.94336,2.41992 -2.94336,-2.41992 z"
           id="path19"
           inkscape:label="Outline" /><path
           style="color:#000000;display:inline;fill:#ffffff;stroke-linecap:round;stroke-linejoin:round;-inkscape-stroke:none;paint-order:stroke fill markers"
           d="m 127.0027,101.02057 a 0.38164931,0.38164931 0 0 0 -0.24185,0.67644 l 3.14503,2.58744 3.14503,2.58641 a 0.38164931,0.38164931 0 0 0 0.48472,0 l 3.14503,-2.58641 3.14503,-2.58744 a 0.38164931,0.38164931 0 0 0 -0.24237,-0.67644 h -6.29005 z"
           id="path20"
           inkscape:label="Arrow Shape" /></g><path
         id="path1"
         style="font-weight:500;font-size:10.8409px;line-height:0;font-family:'open sans';-inkscape-font-specification:'open sans Medium';letter-spacing:-0.396875px;word-spacing:0px;fill:#808080;fill-opacity:0.996556;stroke-linecap:round"
         d="m 136.51004,114.5613 c -0.52581,0 -0.99366,0.0778 -1.40301,0.23306 -0.40583,0.15528 -0.75131,0.34241 -1.03715,0.56121 l 0.524,0.73587 c 0.17645,-0.11999 0.35815,-0.2277 0.54519,-0.32298 0.19056,-0.0953 0.39512,-0.17142 0.61391,-0.22789 0.22233,-0.06 0.46768,-0.0899 0.73588,-0.0899 0.43406,0 0.76918,0.10065 1.00562,0.30179 0.23997,0.19762 0.36018,0.47833 0.36018,0.84181 0,0.27879 -0.0691,0.52198 -0.2067,0.73019 -0.13763,0.20821 -0.34762,0.37085 -0.62994,0.48731 -0.27878,0.11293 -0.63512,0.1695 -1.06918,0.1695 h -0.73587 v 0.8785 h 0.72502 c 0.46581,0 0.85424,0.0457 1.16478,0.13746 0.31408,0.0918 0.55071,0.23482 0.70952,0.42891 0.1588,0.19056 0.23823,0.43755 0.23823,0.74104 0,0.45877 -0.1485,0.8189 -0.44494,1.08004 -0.2929,0.26114 -0.77653,0.39171 -1.45055,0.39171 -0.34584,0 -0.70545,-0.0441 -1.07952,-0.1323 -0.37407,-0.0917 -0.7217,-0.21904 -1.04283,-0.38137 v 0.96893 c 0.3176,0.14822 0.65273,0.25594 1.00562,0.32298 0.35289,0.0671 0.73588,0.10025 1.14877,0.10025 0.68814,0 1.25068,-0.0985 1.68826,-0.2961 0.44112,-0.19763 0.76805,-0.47126 0.97979,-0.82062 0.21173,-0.34937 0.31729,-0.74814 0.31729,-1.19631 0,-0.51523 -0.15721,-0.92978 -0.47129,-1.24385 -0.31054,-0.31408 -0.77244,-0.50993 -1.38647,-0.58757 v -0.0372 c 0.32113,-0.0671 0.60348,-0.18183 0.84697,-0.34417 0.2435,-0.16232 0.43392,-0.37068 0.57154,-0.62477 0.13756,-0.25748 0.20612,-0.56087 0.20619,-0.91002 v -5.1e-4 c -1.2e-4,-0.56439 -0.20632,-1.0212 -0.61908,-1.37046 -0.41288,-0.34937 -1.01621,-0.52452 -1.81023,-0.52452 z m -8.56485,0.11111 v 7.73906 h 1.08521 v -3.16518 h 1.42368 l 1.88464,3.16518 h 1.24385 l -2.16524,-3.45095 c 0.26819,-0.0988 0.51898,-0.23481 0.75189,-0.40773 0.23644,-0.17291 0.42686,-0.39541 0.57154,-0.66714 0.14469,-0.27173 0.21705,-0.60522 0.21705,-1.00046 0,-0.50111 -0.10392,-0.91402 -0.31213,-1.23868 -0.20821,-0.32819 -0.52591,-0.57139 -0.95291,-0.73019 -0.42348,-0.16233 -0.96152,-0.24391 -1.61438,-0.24391 z m 1.08521,0.92139 h 0.97927 c 0.62461,0 1.08651,0.10227 1.38647,0.30695 0.29996,0.20115 0.45011,0.54335 0.45011,1.02682 0,0.46581 -0.14092,0.81888 -0.42323,1.05885 -0.28232,0.23643 -0.72895,0.3545 -1.33946,0.3545 h -1.05316 z"
         inkscape:label="Symbol R3" /></g></g></svg>
