<?xml version="1.0" encoding="UTF-8" standalone="no"?>
<!-- Created with Inkscape (http://www.inkscape.org/) -->

<svg
   width="31.757999mm"
   height="28.053219mm"
   viewBox="0 0 31.758 28.053218"
   version="1.1"
   id="svg1"
   inkscape:version="1.3.2 (091e20e, 2023-11-25, custom)"
   sodipodi:docname="shared-M2.svg"
   xmlns:inkscape="http://www.inkscape.org/namespaces/inkscape"
   xmlns:sodipodi="http://sodipodi.sourceforge.net/DTD/sodipodi-0.dtd"
   xmlns="http://www.w3.org/2000/svg"
   xmlns:svg="http://www.w3.org/2000/svg">
  <sodipodi:namedview
     id="namedview1"
     pagecolor="#7fff8a"
     bordercolor="#000000"
     borderopacity="0.25"
     inkscape:showpageshadow="2"
     inkscape:pageopacity="0.0"
     inkscape:pagecheckerboard="0"
     inkscape:deskcolor="#d1d1d1"
     inkscape:document-units="mm"
     inkscape:zoom="3.9910213"
     inkscape:cx="55.123735"
     inkscape:cy="90.7036"
     inkscape:window-width="1542"
     inkscape:window-height="1258"
     inkscape:window-x="719"
     inkscape:window-y="50"
     inkscape:window-maximized="0"
     inkscape:current-layer="rect7" />
  <defs
     id="defs1" />
  <g
     inkscape:label="Button Prompts M2"
     id="layer1"
     transform="matrix(0.97775682,0,0,0.97775682,-106.58364,-66.226728)"
     style="display:inline">
    <g
       id="rect7"
       inkscape:label="Style - Outline (White)"
       style="display:none"
       transform="translate(81.617709,67.733333)">
      <path
         style="color:#000000;display:inline;fill:#ffffff;stroke-linecap:round;stroke-linejoin:round;-inkscape-stroke:none"
         d="m 34.906566,0.80000001 h 17.44856 c 3.720813,0 6.71627,2.99545639 6.71627,6.71626999 v 13.658284 c 0,3.720814 -2.995457,6.71627 -6.71627,6.71627 h -17.44856 c -3.720813,0 -6.71627,-2.995456 -6.71627,-6.71627 V 7.51627 c 0,-3.7208136 2.995457,-6.71626999 6.71627,-6.71626999 z"
         id="path12"
         inkscape:label="Color" />
      <path
         style="color:#000000;display:inline;fill:#000000;stroke-linecap:round;stroke-linejoin:round;-inkscape-stroke:none"
         d="m 34.90625,0 c -4.150172,0 -7.515625,3.3654534 -7.515625,7.515625 v 13.658203 c 0,4.150172 3.365453,7.517578 7.515625,7.517578 h 17.449219 c 4.150171,0 7.515625,-3.367406 7.515625,-7.517578 V 7.515625 C 59.871094,3.3654534 56.50564,0 52.355469,0 Z m 0,1.5996094 h 17.449219 c 3.291448,0 5.916015,2.6245675 5.916015,5.9160156 v 13.658203 c 0,3.291448 -2.624567,5.917969 -5.916015,5.917969 H 34.90625 c -3.291448,0 -5.916016,-2.626521 -5.916016,-5.917969 V 7.515625 c 0,-3.2914481 2.624568,-5.9160156 5.916016,-5.9160156 z"
         id="path13"
         inkscape:label="Outline" />
      <path
         d="m 120.13429,87.496541 -3.3316,-9.18382 h -0.0584 q 0.0219,0.29955 0.0438,0.77445 0.0292,0.46759 0.0438,1.02286 0.0219,0.54796 0.0219,1.08131 v 6.3052 h -1.37355 v -10.68158 h 2.15531 l 3.16355,8.70161 h 0.0512 l 3.24393,-8.70161 h 2.1407 v 10.68158 h -1.44662 v -6.39288 q 0,-0.4822 0.0146,-1.00094 0.0146,-0.52604 0.0365,-0.99363 0.0292,-0.4749 0.0512,-0.78176 h -0.0658 l -3.41196,9.16921 z m 14.8826,0 h -7.11618 v -1.15438 l 2.81287,-2.8567 q 0.80367,-0.81098 1.32971,-1.41739 0.53335,-0.61371 0.80368,-1.18359 0.27033,-0.57718 0.27033,-1.25666 0,-0.8329 -0.48952,-1.27126 -0.48951,-0.438372 -1.30049,-0.438372 -0.73061,0 -1.32241,0.270332 -0.58449,0.26302 -1.21282,0.75983 L 128.003,77.969334 q 0.43106,-0.365309 0.93519,-0.657554 0.50412,-0.299552 1.10322,-0.474901 0.59911,-0.175347 1.32972,-0.175347 1.00094,0 1.72425,0.350696 0.73061,0.350694 1.12514,0.993634 0.39454,0.642939 0.39454,1.505059 0,0.85482 -0.34339,1.58544 -0.33609,0.7233 -0.95711,1.43931 -0.62102,0.716 -1.46853,1.52698 l -2.08225,2.06033 v 0.0658 h 5.25311 z"
         id="text3"
         style="font-weight:500;font-size:12.7px;line-height:0;font-family:'open sans';-inkscape-font-specification:'open sans Medium';letter-spacing:-0.396875px;word-spacing:0px;display:inline;fill:#000000;stroke-width:1.76728;stroke-linecap:round;stroke-linejoin:round"
         aria-label="M2"
         inkscape:label="Symbol M2"
         transform="translate(-81.617708,-67.733332)" />
    </g>
    <g
       id="rect8"
       inkscape:label="Style - Outline (Black)"
       style="display:none"
       transform="translate(81.617709,67.733333)">
      <path
         style="color:#000000;display:inline;fill:#000000;stroke-linecap:round;stroke-linejoin:round;-inkscape-stroke:none"
         d="m 34.906566,0.80000001 h 17.44856 c 3.720813,0 6.71627,2.99545639 6.71627,6.71626999 v 13.658284 c 0,3.720814 -2.995457,6.71627 -6.71627,6.71627 h -17.44856 c -3.720813,0 -6.71627,-2.995456 -6.71627,-6.71627 V 7.51627 c 0,-3.7208136 2.995457,-6.71626999 6.71627,-6.71626999 z"
         id="path10"
         inkscape:label="Color" />
      <path
         style="color:#000000;display:inline;fill:#ffffff;stroke-linecap:round;stroke-linejoin:round;-inkscape-stroke:none"
         d="m 34.90625,0 c -4.150172,0 -7.515625,3.3654534 -7.515625,7.515625 v 13.658203 c 0,4.150172 3.365453,7.517578 7.515625,7.517578 h 17.449219 c 4.150171,0 7.515625,-3.367406 7.515625,-7.517578 V 7.515625 C 59.871094,3.3654534 56.50564,0 52.355469,0 Z m 0,1.5996094 h 17.449219 c 3.291448,0 5.916015,2.6245675 5.916015,5.9160156 v 13.658203 c 0,3.291448 -2.624567,5.917969 -5.916015,5.917969 H 34.90625 c -3.291448,0 -5.916016,-2.626521 -5.916016,-5.917969 V 7.515625 c 0,-3.2914481 2.624568,-5.9160156 5.916016,-5.9160156 z"
         id="path11"
         inkscape:label="Outline" />
      <path
         d="m 120.13429,87.496541 -3.3316,-9.18382 h -0.0584 q 0.0219,0.29955 0.0438,0.77445 0.0292,0.46759 0.0438,1.02286 0.0219,0.54796 0.0219,1.08131 v 6.3052 h -1.37355 v -10.68158 h 2.15531 l 3.16355,8.70161 h 0.0512 l 3.24393,-8.70161 h 2.1407 v 10.68158 h -1.44662 v -6.39288 q 0,-0.4822 0.0146,-1.00094 0.0146,-0.52604 0.0365,-0.99363 0.0292,-0.4749 0.0512,-0.78176 h -0.0658 l -3.41196,9.16921 z m 14.8826,0 h -7.11618 v -1.15438 l 2.81287,-2.8567 q 0.80367,-0.81098 1.32971,-1.41739 0.53335,-0.61371 0.80368,-1.18359 0.27033,-0.57718 0.27033,-1.25666 0,-0.8329 -0.48952,-1.27126 -0.48951,-0.438372 -1.30049,-0.438372 -0.73061,0 -1.32241,0.270332 -0.58449,0.26302 -1.21282,0.75983 L 128.003,77.969334 q 0.43106,-0.365309 0.93519,-0.657554 0.50412,-0.299552 1.10322,-0.474901 0.59911,-0.175347 1.32972,-0.175347 1.00094,0 1.72425,0.350696 0.73061,0.350694 1.12514,0.993634 0.39454,0.642939 0.39454,1.505059 0,0.85482 -0.34339,1.58544 -0.33609,0.7233 -0.95711,1.43931 -0.62102,0.716 -1.46853,1.52698 l -2.08225,2.06033 v 0.0658 h 5.25311 z"
         id="path5"
         style="font-weight:500;font-size:12.7px;line-height:0;font-family:'open sans';-inkscape-font-specification:'open sans Medium';letter-spacing:-0.396875px;word-spacing:0px;display:inline;fill:#ffffff;stroke-width:1.76728;stroke-linecap:round;stroke-linejoin:round"
         aria-label="M2"
         inkscape:label="Symbol M2"
         transform="translate(-81.617708,-67.733332)" />
    </g>
    <g
       id="rect1"
       inkscape:label="Style - Transparent"
       style="display:inline"
       transform="translate(81.617709,67.733333)">
      <path
         style="color:#000000;fill:#808080;fill-opacity:0.501961;stroke-linecap:round;stroke-linejoin:round;-inkscape-stroke:none;paint-order:stroke fill markers"
         d="m 34.90625,0 c -4.150172,0 -7.515625,3.3654534 -7.515625,7.515625 v 13.658203 c 0,4.150172 3.365453,7.517578 7.515625,7.517578 h 17.449219 c 4.150171,0 7.515625,-3.367406 7.515625,-7.517578 V 7.515625 C 59.871094,3.3654534 56.50564,0 52.355469,0 Z m 0,1.5996094 h 17.449219 c 3.291448,0 5.916015,2.6245675 5.916015,5.9160156 v 13.658203 c 0,3.291448 -2.624567,5.917969 -5.916015,5.917969 H 34.90625 c -3.291448,0 -5.916016,-2.626521 -5.916016,-5.917969 V 7.515625 c 0,-3.2914481 2.624568,-5.9160156 5.916016,-5.9160156 z"
         id="path8"
         inkscape:label="Outline" />
      <path
         style="color:#000000;display:inline;fill:#ffffff;stroke-linecap:round;stroke-linejoin:round;-inkscape-stroke:none;paint-order:stroke fill markers"
         d="m 34.906566,0.80000001 h 17.44856 c 3.720813,0 6.71627,2.99545639 6.71627,6.71626999 v 13.658284 c 0,3.720814 -2.995457,6.71627 -6.71627,6.71627 h -17.44856 c -3.720813,0 -6.71627,-2.995456 -6.71627,-6.71627 V 7.51627 c 0,-3.7208136 2.995457,-6.71626999 6.71627,-6.71626999 z"
         id="path9"
         inkscape:label="Color" />
      <path
         d="m 120.13429,87.496541 -3.3316,-9.18382 h -0.0584 q 0.0219,0.29955 0.0438,0.77445 0.0292,0.46759 0.0438,1.02286 0.0219,0.54796 0.0219,1.08131 v 6.3052 h -1.37355 v -10.68158 h 2.15531 l 3.16355,8.70161 h 0.0512 l 3.24393,-8.70161 h 2.1407 v 10.68158 h -1.44662 v -6.39288 q 0,-0.4822 0.0146,-1.00094 0.0146,-0.52604 0.0365,-0.99363 0.0292,-0.4749 0.0512,-0.78176 h -0.0658 l -3.41196,9.16921 z m 14.8826,0 h -7.11618 v -1.15438 l 2.81287,-2.8567 q 0.80367,-0.81098 1.32971,-1.41739 0.53335,-0.61371 0.80368,-1.18359 0.27033,-0.57718 0.27033,-1.25666 0,-0.8329 -0.48952,-1.27126 -0.48951,-0.438372 -1.30049,-0.438372 -0.73061,0 -1.32241,0.270332 -0.58449,0.26302 -1.21282,0.75983 L 128.003,77.969334 q 0.43106,-0.365309 0.93519,-0.657554 0.50412,-0.299552 1.10322,-0.474901 0.59911,-0.175347 1.32972,-0.175347 1.00094,0 1.72425,0.350696 0.73061,0.350694 1.12514,0.993634 0.39454,0.642939 0.39454,1.505059 0,0.85482 -0.34339,1.58544 -0.33609,0.7233 -0.95711,1.43931 -0.62102,0.716 -1.46853,1.52698 l -2.08225,2.06033 v 0.0658 h 5.25311 z"
         id="path4"
         style="font-weight:500;font-size:12.7px;line-height:0;font-family:'open sans';-inkscape-font-specification:'open sans Medium';letter-spacing:-0.396875px;word-spacing:0px;display:inline;fill:#808080;stroke-width:1.76728;stroke-linecap:round;stroke-linejoin:round"
         aria-label="M2"
         inkscape:label="Symbol M2"
         transform="translate(-81.617709,-67.733332)" />
    </g>
  </g>
</svg>
